<svg height="135.323" viewBox="0 0 111.533 135.323" width="111.533" xmlns="http://www.w3.org/2000/svg"><path d="m351.18 709.473-62.754 24.427-27.582-97.714 65.663-24.675a4.336 4.336 0 0 1 5.734 3.013l22.092 88.865a5.187 5.187 0 0 1 -3.153 6.084z" fill="#846244" transform="translate(-245.873 -611.23)"/><path d="m356.1 721.537-22.217-89.072-68.663 23.72 23.961 88.428 63.627-21.94-1.663 8.953z" fill="#ccc" transform="translate(-249.307 -627.9)"/><path d="m237.591 727.3s-8.228 4.689-5.979 12.655 13.8 2.67 13.8 2.67z" fill="#a67c52" transform="translate(-222.621 -702.342)"/><path d="m320.481 646.31s-2.243 4.615-12.858 3.231c-6.007-.783-22.466 2.186-35.624 4.911 19.279-6.557 45.475-16.608 46.085-17.218.923-.923 2.4-4.769 2.4-4.769l-68.663 23.72s-5.114 5.592-3.268 8.858 7.664 4.224 7.664 4.224l20.027 87.807 62.49-3.839 3.968 5.531 4.742-14.153z" fill="#efefef" transform="translate(-235.907 -627.899)"/><path d="m327.542 850.068-66.927 1.83-27.582-97.714 68.363-8.712a5.5 5.5 0 0 1 6.017 4.067l24.659 94.5a4.817 4.817 0 0 1 -4.53 6.029z" fill="#a67c52" transform="translate(-224.042 -716.575)"/><path d="m380.1 853.139-16.627 1.814-3.609-13.491-9.215.966 3.512 13.541-16.9 1.843 1.982 8.1 17-1.9 10.02 38.632 9.643-1.2-10.294-38.482 16.729-1.868z" fill="#ffb727" transform="translate(-305.863 -791.963)"/><path d="m201.231 797.547c-.751-2.27-1.527-4.617-2.227-6.924-2.266-7.465-4.558-17.2-2.143-26.282 2.131-8.016 7.639-13.109 13.1-14.957h-.02l4.073-2.354s-5.208-2.152-9.909 0a27.809 27.809 0 0 0 -11.7 16.124c-2.714 10.208-.257 20.757 2.187 28.808.717 2.361 1.5 4.736 2.262 7.032 2.1 6.347 4.27 12.91 5.075 19.526 1.213 9.96-1.162 18.773-6.515 24.179l4.794-2.288-1.515 5.535c6.353-6.416 9.2-16.616 7.817-27.985-.865-7.069-3.11-13.853-5.279-20.414z" fill="#c1272d" transform="translate(-191.213 -717.085)"/><path d="m279.688 881.175-27.866-98.253-1.625.207-.181.177 28.145 97.911z" fill="#846244" transform="translate(-237.373 -746.008)"/></svg>