<svg height="92.915" viewBox="0 0 151.727 92.915" width="151.727" xmlns="http://www.w3.org/2000/svg"><path d="m1282.483 250.775c6.822 15.467-13.878 37.523-18.753 42.718a94.626 94.626 0 0 1 -22.317 17.5 3.224 3.224 0 0 1 -.045.973c-2.165 10.614-62.487 12.888-66.363.151a4.951 4.951 0 0 1 -.181-.875 89.69 89.69 0 0 1 -21.057-18.681c-6.122-7.47-25-28.545-18.487-42.321a14.6 14.6 0 0 1 3.529-4.621c23.232-21.09 122.7-21.819 141.5 1.63a16.052 16.052 0 0 1 2.174 3.526z" fill="#e84048" transform="translate(-1133.033 -228.812)"/><path d="m1202.639 317.988a96.939 96.939 0 0 1 -18.335-1.575c-8.1-1.606-12.756-4.222-13.837-7.774a5.912 5.912 0 0 1 -.147-.6 90.4 90.4 0 0 1 -20.924-18.649c-.421-.513-.9-1.091-1.431-1.726-3.523-4.231-9.42-11.312-13.587-18.855-5.121-9.27-6.328-16.908-3.587-22.7a15.4 15.4 0 0 1 3.739-4.9c8.468-7.687 25.084-11.625 37.532-13.575a233.885 233.885 0 0 1 53-1.838 152.11 152.11 0 0 1 31.981 5.6c9.742 3.01 16.572 6.895 20.3 11.546a17.141 17.141 0 0 1 2.295 3.732c3.015 6.837 1.318 15.6-5.045 26.047a111.8 111.8 0 0 1 -13.876 17.656 95.767 95.767 0 0 1 -22.059 17.394 4.056 4.056 0 0 1 -.077.637c-.549 2.691-3.928 4.921-10.044 6.63a93.33 93.33 0 0 1 -19.748 2.807c-2.071.095-4.129.143-6.15.143zm3.889-91.1a223.989 223.989 0 0 0 -34.186 2.536c-17.251 2.7-30.247 7.364-36.6 13.127a13.654 13.654 0 0 0 -3.32 4.338c-2.477 5.237-1.288 12.319 3.536 21.051 4.084 7.392 9.911 14.39 13.393 18.571.532.639 1.017 1.221 1.44 1.738a88.626 88.626 0 0 0 20.844 18.493l.364.233.048.43a3.992 3.992 0 0 0 .147.712c.847 2.783 5.271 5.1 12.457 6.525a103.857 103.857 0 0 0 24.049 1.4c15.489-.73 27.308-4.09 28.1-7.99a2.314 2.314 0 0 0 .032-.7l-.063-.589.515-.293a94.042 94.042 0 0 0 22.1-17.329c20.8-22.163 21.587-34.928 18.585-41.733a15.307 15.307 0 0 0 -2.05-3.33c-6.768-8.441-25.361-14.445-51.013-16.474-6.029-.483-12.206-.72-18.378-.72z" fill="#b3383a" transform="translate(-1129.362 -225.074)"/><path d="m1245.241 410.422c-2.3 1.258-7.393.757-10 .864-3.046.125-5.993-.064-9-.23-6.158-.34-12.1-.589-18.151-1.959-22.856-5.171-40.529-19.97-53.515-38.95a16.019 16.019 0 0 1 -1.83-3.792c-6.337-1.922-13.052-6.013-15.38-12.173-.59 14.3 15.85 34.362 19.149 38.386a89.689 89.689 0 0 0 21.056 18.681 4.943 4.943 0 0 0 .181.875c3.876 12.738 64.2 10.463 66.363-.151a3.216 3.216 0 0 0 .045-.973c.352-.182.713-.376 1.082-.578z" fill="#e84048" opacity=".5" transform="translate(-1135.782 -328.825)"/><ellipse cx="74.975" cy="26.055" fill="#c52229" opacity=".5" rx="72.006" ry="22.56"/><path d="m1209.329 281.349c-19.615 0-38.075-2.452-51.979-6.9-14.382-4.605-22.3-10.928-22.3-17.8s7.92-13.2 22.3-17.8c13.9-4.452 32.363-6.9 51.979-6.9s38.075 2.452 51.978 6.9c14.382 4.605 22.3 10.928 22.3 17.8s-7.921 13.2-22.3 17.8c-13.907 4.451-32.363 6.9-51.978 6.9zm0-46.7c-19.342 0-37.507 2.406-51.15 6.774-12.974 4.154-20.415 9.7-20.415 15.217s7.441 11.063 20.415 15.218c13.643 4.368 31.808 6.774 51.15 6.774s37.507-2.406 51.15-6.774c12.974-4.154 20.415-9.7 20.415-15.218s-7.441-11.063-20.415-15.217c-13.643-4.368-31.808-6.774-51.15-6.774z" fill="#f2686f" transform="translate(-1133.931 -230.586)"/><path d="m1217.848 243.237c19.213 0 37.266 2.342 50.833 6.594 6.553 2.053 11.687 4.437 15.259 7.083s5.39 5.424 5.39 8.247-1.813 5.6-5.39 8.248-8.705 5.029-15.259 7.083c-13.568 4.252-31.621 6.594-50.833 6.594s-37.266-2.342-50.833-6.594c-6.553-2.054-11.687-4.437-15.259-7.083s-5.389-5.425-5.389-8.248 1.813-5.6 5.389-8.247 8.705-5.029 15.259-7.083c13.568-4.252 31.621-6.594 50.833-6.594zm0-.7c-39.874 0-72.2 10.13-72.2 22.626s32.325 22.626 72.2 22.626 72.2-10.13 72.2-22.626-32.324-22.626-72.2-22.626z" fill="#f2848d" opacity=".5" transform="translate(-1142.45 -239.106)"/><g fill="#ecdfe2"><path d="m1683.032 480.5a6.631 6.631 0 0 0 -2.6.2 17.108 17.108 0 0 0 -2.427.658c-.341.142-.685.3-1.013.469a3.479 3.479 0 0 0 -1.093.937 1.176 1.176 0 0 0 .3 1.634 3.307 3.307 0 0 0 1.253.481c.365.043.746.072 1.113.084a17.349 17.349 0 0 0 2.6-.24 6.829 6.829 0 0 0 2.5-.736c.728-.388 1.666-1.133 1.494-2.074s-1.306-1.297-2.127-1.413z" transform="translate(-1568.383 -430.287)"/><path d="m1765 424.993a1.74 1.74 0 0 0 -1.993.208 23.672 23.672 0 0 1 -8.793 5.094q-.484.16-.973.29a15.728 15.728 0 0 1 -1.954.392 14.2 14.2 0 0 0 -2.97.869q-.458.153-.922.3c-.928.3-1.875.569-2.855.788-1.867.461-5.09 2.032-3.853 3.176 1.435 1.238 4.874.37 7.87-.568.375-.117.742-.235 1.1-.35a47.82 47.82 0 0 0 5.853-2.229q.566-.267 1.109-.554c1.515-.914 3.258-1.71 4.758-2.8-.12.044-.095.111-.214.155 1.545-1.333 3.354-2.687 4.264-4.2a.891.891 0 0 0 -.427-.571z" transform="translate(-1620.395 -385.545)"/></g></svg>