<svg height="189.9" viewBox="0 0 189.9 189.9" width="189.9" xmlns="http://www.w3.org/2000/svg" xmlns:xlink="http://www.w3.org/1999/xlink"><clipPath id="a"><circle cx="67.14" cy="67.14" r="67.14" transform="matrix(.70710678 -.70710678 .70710678 .70710678 155.552 409.061)"/></clipPath><linearGradient id="b" gradientUnits="objectBoundingBox" x1=".5" x2=".5" y1="1.566" y2="-1.191"><stop offset="0" stop-color="#9a7b5b"/><stop offset=".433" stop-color="#8b6742"/><stop offset="1" stop-color="#7a5127"/></linearGradient><linearGradient id="c" x1="121.788" x2="121.788" xlink:href="#b" y1="8.018" y2="-.807"/><linearGradient id="d" x1="132.796" x2="132.796" xlink:href="#b" y1="8.385" y2="-.442"/><linearGradient id="e" x1=".5" x2=".5" xlink:href="#b" y1="2.26" y2="-2.168"/><radialGradient id="f" cx=".496" cy=".86" gradientTransform="matrix(.836 .006 -.003 .676 .691 2.357)" gradientUnits="objectBoundingBox" r="1.106"><stop offset="0" stop-color="#fff"/><stop offset="1" stop-color="#aed6e6"/></radialGradient><radialGradient id="g" cx=".504" cy=".86" gradientTransform="matrix(-.836 .005 .003 .676 .688 2.381)" r="1.106" xlink:href="#f"/><radialGradient id="h" cx=".602" cy="2.514" gradientTransform="matrix(2.294 0 0 4.464 28.045 25.296)" gradientUnits="objectBoundingBox" r=".686"><stop offset="0" stop-color="#701c19"/><stop offset="1" stop-color="#701c19" stop-opacity="0"/></radialGradient><g clip-path="url(#a)" transform="translate(-155.552 -314.111)"><path d="m233.747 430.222c.144 13.8.173 20.754-1.885 23.682-.992 1.41-5.47 7-21.682 6.884a33.083 33.083 0 0 0 17.748 35.56c16.236 8.349 33.271 1.318 34.953.593 13.931-6.006 22.7-19.3 22.453-34.017-13.841-.454-18.436-5.3-19.851-7.12-2.688-3.467-2.881-10.886-3.159-25.582-.047-2.511-.059-4.609-.06-6.092a19.639 19.639 0 0 0 -28.614.633c.033 1.315.073 3.198.097 5.459z" fill="url(#b)"/><path d="m262.324 430.222c-.047-2.511-.059-4.609-.06-6.092a19.639 19.639 0 0 0 -28.614.633c.033 1.315.073 3.2.1 5.459.071 6.862.114 12.029-.114 15.853 5.293 4.566 16.071 11.859 26.543 6.754a23.238 23.238 0 0 0 3.346-2.012c-.865-4.317-1.017-10.847-1.201-20.595z" fill="#07031e" opacity=".3"/><path d="m265.483 455.8c-.13-.168-.25-.354-.369-.541a19.989 19.989 0 0 1 -35.591.988c-2.781 2.084-8.374 4.618-19.343 4.537a33.083 33.083 0 0 0 17.748 35.56c16.236 8.349 33.271 1.318 34.953.593 13.931-6.006 22.7-19.3 22.453-34.017-13.841-.45-18.434-5.291-19.851-7.12z" fill="#07031e" opacity=".3"/><path d="m269.845 406.747c-.777 5.424.389 10.03 2.6 10.288s4.638-3.93 5.415-9.353-.39-10.03-2.6-10.288-4.639 3.929-5.415 9.353z" fill="url(#c)"/><path d="m224.465 406.747c.77 5.425-.22 10.007-2.211 10.235s-4.23-3.985-5-9.409.22-10.007 2.211-10.235 4.235 3.984 5 9.409z" fill="url(#d)"/><path d="m273.028 405.329c-.113 1.855-1.315 19.568-7.6 27.726a60.585 60.585 0 0 1 -6.163 6.367 30.924 30.924 0 0 1 -4.894 3.764 11.932 11.932 0 0 1 -5.03 1.9c-2.553.227-4.518-.725-6.42-1.646a23.708 23.708 0 0 1 -4.86-3.232 44.322 44.322 0 0 1 -7.817-8.256c-7.82-11.234-8.5-24.658-8.7-29.129-.061-1.387-.067-2.531-.063-3.291a60.354 60.354 0 0 1 .936-10.525c.935-5.219 2.308-12.877 7.729-19.071a26 26 0 0 1 5.111-4.424 24.247 24.247 0 0 1 13.443-3.912 20.861 20.861 0 0 1 13.354 4.357 23.213 23.213 0 0 1 4.737 5.162c7.653 11.081 6.598 28.313 6.237 34.21z" fill="url(#e)"/><path d="m264.441 403.678a3.329 3.329 0 0 0 -.331-1.386 3.2 3.2 0 0 0 -.668-.886 5.422 5.422 0 0 0 -8.479 1.188 3.23 3.23 0 0 0 -.591 1.762c.023 1.887 2.15 3.43 3.924 3.844a5.443 5.443 0 0 0 4.508-1.1 4.355 4.355 0 0 0 .92-.989 4.115 4.115 0 0 0 .717-2.433z" fill="url(#f)" opacity=".67"/><ellipse cx="2.886" cy="3.536" fill="#3a220e" rx="2.886" ry="3.536" transform="translate(256.498 400.264)"/><path d="m252.971 404.1c-.26-.192.261-1.361.869-2.179a6.327 6.327 0 0 1 2.567-1.988 7.627 7.627 0 0 1 3.989-.574 6.456 6.456 0 0 1 3.713 1.415c1.325 1.159 1.928 2.915 1.619 3.135-.246.176-.87-.77-2.251-1.529a8.724 8.724 0 0 0 -7.465-.345c-1.847.847-2.74 2.287-3.041 2.065z" fill="#190f0f"/><path d="m267.4 397.472c.59-.627-1.639-2.762-4.418-3.832a13.3 13.3 0 0 0 -5.465-.791c-1.373.071-4.16.215-4.947 1.517a1.429 1.429 0 0 0 .177 1.79c1.036.98 3.344.238 7.27.4 4.691.193 6.86 1.477 7.383.916z" fill="#21170f"/><path d="m229.743 403.678a3.334 3.334 0 0 1 .332-1.386 3.171 3.171 0 0 1 .667-.886 5.422 5.422 0 0 1 8.479 1.188 3.23 3.23 0 0 1 .591 1.762c-.023 1.887-2.149 3.43-3.924 3.844a5.443 5.443 0 0 1 -4.508-1.1 4.355 4.355 0 0 1 -.92-.989 4.122 4.122 0 0 1 -.717-2.433z" fill="url(#g)" opacity=".67"/><ellipse cx="2.886" cy="3.536" fill="#3a220e" rx="2.886" ry="3.536" transform="translate(231.914 400.264)"/><path d="m241.214 404.1c.259-.192-.262-1.361-.869-2.179a6.334 6.334 0 0 0 -2.568-1.988 7.627 7.627 0 0 0 -3.989-.574 6.456 6.456 0 0 0 -3.713 1.415c-1.325 1.159-1.928 2.915-1.619 3.135.246.176.87-.77 2.251-1.529a8.724 8.724 0 0 1 7.465-.345c1.847.847 2.74 2.287 3.042 2.065z" fill="#190f0f"/><path d="m226.781 397.472c-.59-.627 1.639-2.762 4.418-3.832a13.3 13.3 0 0 1 5.465-.791c1.373.071 4.16.215 4.947 1.517a1.429 1.429 0 0 1 -.177 1.79c-1.036.98-3.344.238-7.27.4-4.688.193-6.857 1.477-7.383.916z" fill="#21170f"/><path d="m250.7 419.962c-.085 3-2.03 5.2-3.62 5.152s-3.564-2.381-3.636-5.487c-.026-1.087.625-3.045 1.926-6.917 1.292-3.845 1.561-4.3 1.894-4.239.4.077.588.849 1.8 5.02 1.494 5.141 1.666 5.537 1.636 6.471z" fill="url(#h)"/><path d="m226.65 456.28a21.524 21.524 0 0 0 40.3-.521s19 7.547 26.953 7.286c0 0-8.728 39.032-43.125 39.292s-44.666-19.256-44.152-42.674c.002 0 17.457-2.082 20.024-3.383z" fill="#511406"/><path d="m237.033 425.917s2.558 4.631 9.868 5 10.05-4.816 10.05-4.816" fill="none" stroke="#190f0f" stroke-linecap="round" stroke-miterlimit="10"/><path d="m232.476 374.675a43.3 43.3 0 0 0 8.691 2.149 45.159 45.159 0 0 0 22.046-2.579 81.5 81.5 0 0 0 10.055 21.878c-.162-7.653-1.412-17.677-6.473-25.008a23.213 23.213 0 0 0 -4.737-5.162 20.861 20.861 0 0 0 -13.358-4.353 24.247 24.247 0 0 0 -13.448 3.915 26 26 0 0 0 -5.111 4.424c-5.421 6.194-6.794 13.852-7.729 19.071-.239 1.335-.483 2.981-.663 4.883a61.457 61.457 0 0 0 10.723-19.214z" fill="#07031e" opacity=".19"/></g></svg>