<svg height="102.145" viewBox="0 0 116.327 102.145" width="116.327" xmlns="http://www.w3.org/2000/svg"><g transform="translate(-371.248 -307.364)"><path d="m468 367.92c0 .227 0 .452-.007.677a17.608 17.608 0 0 1 -2.536 9.322 16.87 16.87 0 0 1 -3.022 3.544c-.176.16-.353.314-.536.46a21.021 21.021 0 0 1 -10.7 4.511 23.171 23.171 0 0 1 -14.962-3.073 24.094 24.094 0 0 1 -6.309-5.661l-.1-.126c-.07-.089-.142-.177-.21-.268-.167-.034-.338-.065-.508-.1l-.343-.056a33.179 33.179 0 0 0 -3.713-.406c-.452-.026-.911-.043-1.373-.056-.462.014-.919.031-1.375.056s-.914.056-1.369.1c-.786.073-1.566.177-2.342.305l-.344.056c-.171.031-.339.061-.508.1-.068.09-.138.179-.208.268l-.1.126a24.094 24.094 0 0 1 -6.309 5.661 23.166 23.166 0 0 1 -14.961 3.073 21.014 21.014 0 0 1 -10.7-4.511c-.182-.147-.36-.3-.535-.46a16.824 16.824 0 0 1 -3.024-3.544 16.115 16.115 0 0 1 -2.314-6.5v-.01a22.943 22.943 0 0 1 -.218-2.809c-.007-.225-.009-.45-.009-.677 0-.945.051-1.895.126-2.843.005-.08.014-.162.02-.244.114-1.356.29-2.7.478-4.032.181-1.252.375-2.522.547-3.8.534-1.417 1.146-2.807 1.784-4.168 1.646-3.518 3.373-6.977 4.726-10.625a112.026 112.026 0 0 0 5.654-23.59c.438-3.155.841-6.321 1.189-9.491l.005-.055c1.015-.111 2.026-.24 3.029-.4-1.968 12.745-8.067 24.839-7.154 37.968a29.792 29.792 0 0 0 6.216 16.422 33.172 33.172 0 0 0 13.625 10.209 34.465 34.465 0 0 0 7.192 2.045q1.054.182 2.125.293c.174.02.35.038.525.051.237.024.476.041.713.058h.029c.372.034.742.06 1.115.08.79.044 1.584.06 2.372.055h.275c1.071 0 2.147-.037 3.213-.135h.027c.239-.017.478-.034.713-.058q.263-.02.527-.051a34.387 34.387 0 0 0 9.317-2.338 33.184 33.184 0 0 0 13.625-10.209 29.777 29.777 0 0 0 6.215-16.422c.914-13.129-5.186-25.222-7.155-37.968 1 .159 2.014.288 3.029.4l.005.055c.348 3.17.75 6.336 1.189 9.491a112.241 112.241 0 0 0 5.654 23.589c1.352 3.648 3.08 7.107 4.728 10.625.638 1.361 1.248 2.751 1.782 4.168.172 1.277.368 2.548.547 3.8a51.622 51.622 0 0 1 .628 7.118z" fill="#b8569b" transform="translate(5.728 .925)"/><path d="m395.642 329.126c1.5-6.675 2.429-13.443 3.414-20.2-1.518.162-3.043.29-4.555.425-5.5.491-11.429 1.265-15.972 4.688-4.78 3.6-6.464 9.588-6.769 15.319-.636 11.923 3.419 23.786 2.287 35.663a16.35 16.35 0 0 0 5.572 2.478 14.764 14.764 0 0 0 4.415.321 47.951 47.951 0 0 1 .6-6.6c.193-1.327.409-2.657.609-3.987.755-5.048 1.276-10.085-.575-14.855-.022-.061.077-.1.1-.044 1.861 3.914 1.888 8.137 1.443 12.334.367-.873.759-1.736 1.165-2.6 1.734-3.677 3.515-7.3 4.89-11.137a99.8 99.8 0 0 0 3.376-11.805z" fill="#f0a771" transform="translate(.313 1.101)"/><path d="m450.262 329.357c-.305-5.73-1.989-11.715-6.767-15.319-4.545-3.423-10.472-4.2-15.974-4.688-1.513-.135-3.037-.263-4.554-.425.984 6.759 1.915 13.526 3.414 20.2a99.8 99.8 0 0 0 3.37 11.809c1.375 3.837 3.157 7.46 4.891 11.137.4.86.8 1.723 1.163 2.6-.445-4.2-.416-8.42 1.445-12.334.027-.058.125-.017.1.044-1.849 4.77-1.33 9.807-.575 14.855.2 1.33.416 2.661.611 3.987a48.49 48.49 0 0 1 .6 6.6 14.753 14.753 0 0 0 4.414-.321 16.344 16.344 0 0 0 5.574-2.478c-1.13-11.881 2.926-23.744 2.288-35.667z" fill="#f0a771" transform="translate(36.487 1.101)"/><path d="m458.922 354.8c-1.578 6.073-3.066 12.174-4.409 18.3-.926.409-1.862.8-2.8 1.17-9.834 3.883-20.234 4.937-30.685 5.343-10.45-.406-20.848-1.462-30.682-5.343-.362-.145-.725-.29-1.085-.44q-.865-.353-1.719-.73c-1.341-6.13-2.831-12.23-4.409-18.3 6.813 5.072 16.939 5.478 24.435 1.559a22.989 22.989 0 0 0 6.847-5.475 18.122 18.122 0 0 0 1.247-1.651c.805-.1 1.613-.176 2.42-.232.582-.043 1.165-.077 1.745-.1.394-.015.781-.026 1.173-.026h.06c.391 0 .778.01 1.172.026 1.385.06 2.778.164 4.165.333a17.825 17.825 0 0 0 1.247 1.651 22.982 22.982 0 0 0 6.846 5.475c7.493 3.914 17.62 3.508 24.432-1.56z" fill="#f0a771" transform="translate(8.384 29.282)"/><path d="m385.991 348.155a29.513 29.513 0 0 0 6.975 16.393 32.228 32.228 0 0 0 14.527 9.6 40.508 40.508 0 0 0 7.187 1.63c.154.021.307.041.461.06q.962.118 1.922.189c.5.039 1 .061 1.491.072.281.005.563.007.844 0h.3c.5-.01.993-.032 1.491-.072q.959-.072 1.922-.189c.154-.019.307-.039.461-.06a40.527 40.527 0 0 0 7.189-1.63 32.224 32.224 0 0 0 14.526-9.6 29.513 29.513 0 0 0 6.975-16.393c.66-6.945-.74-13.925-2.466-20.621-1.552-6.031-3.283-12.013-4.1-18.174l-.007-.058q-1.192-.189-2.364-.449c-.779-.065-1.562-.126-2.343-.184-7.277-.546-14.56-.817-21.854-.93-7.293.113-14.578.384-21.854.93q-1.174.087-2.343.184c-.783.174-1.569.322-2.364.449l-.009.058c-.813 6.16-2.545 12.143-4.1 18.174-1.725 6.696-3.127 13.676-2.467 20.621z" fill="#f0a771" transform="translate(10.283 .265)"/><g fill="#fff"><path d="m480.053 325.909a14.623 14.623 0 0 0 -4.782-8.916c-2.925-2.369-6.825-3.053-10.542-3.655-6.737-1.091-13.523-2.183-20.321-2.979 0-.043 0-.087 0-.131a135.653 135.653 0 0 0 -33.944 0c0 .044 0 .089.005.131-6.8.8-13.586 1.888-20.323 2.979-3.715.6-7.615 1.286-10.54 3.655a14.614 14.614 0 0 0 -4.782 8.916 43.519 43.519 0 0 0 -.169 10.311q.747 11.822 1.5 23.643c.053.849.194 1.844.941 2.25a1.735 1.735 0 0 0 2.111-.667 4.858 4.858 0 0 0 .7-2.289c.878-7 .553-13.987.389-21.022-.026-1.081.031-2.338.9-2.979 1.3-.955 3.085.305 4.006 1.63 3.991 5.747 3.44 13.385 2.7 20.341-.583 5.459-1.83 11.979 1 16.944a15.691 15.691 0 0 0 29-3.447 26.393 26.393 0 0 0 .13-12.522c-.592-2.8-.986-5.916.5-8.364 1.445-2.377 4.315-3.493 7.061-3.943a13.345 13.345 0 0 1 6.208.249 7.271 7.271 0 0 1 4.591 3.976 8.858 8.858 0 0 1 .056 5.543c-.478 1.818-1.243 3.552-1.711 5.372a17.248 17.248 0 0 0 1.074 11.49c1.4 2.985 4.047 6.361 7.184 7.659 3.1 1.282 6.952 2.444 10.328 2.209a16.292 16.292 0 0 0 12.662-8.222c2.831-4.965 1.584-11.485 1-16.944-.745-6.957-1.294-14.594 2.7-20.341.921-1.325 2.7-2.585 4.006-1.63.872.641.928 1.9.9 2.979-.165 7.035-.489 14.017.389 21.022a4.84 4.84 0 0 0 .7 2.289 1.733 1.733 0 0 0 2.11.667c.749-.406.889-1.4.943-2.25l1.494-23.643a43.429 43.429 0 0 0 -.174-10.311z" opacity=".07" transform="translate(2.249 1.259)"/><path d="m382.4 357.709a16.67 16.67 0 0 0 12.419 10.691 16.235 16.235 0 0 0 14.229-5.089 19.608 19.608 0 0 0 4.92-14.5 24.84 24.84 0 0 0 -6.013-14.261c-3.249-3.827-9.614-8.359-14.652-5.106a29.312 29.312 0 0 0 -11.408 16.2 20.6 20.6 0 0 0 .505 12.065z" opacity=".08" transform="translate(7.044 14.788)"/><path d="m401.691 334.413a7.082 7.082 0 0 1 2.754 1.55c3.38 3.049 4.876 8.811 4.306 13.4a15.88 15.88 0 0 1 -4.637 9.517 12.068 12.068 0 0 1 -9.346 3.368c-7.791-.764-13.707-9.489-10.281-17.538a18.629 18.629 0 0 1 7.838-8.463c2.736-1.624 6.292-2.747 9.366-1.834z" opacity=".08" transform="translate(8.638 18.852)"/><path d="m442.2 357.709a16.672 16.672 0 0 1 -12.415 10.691 16.235 16.235 0 0 1 -14.229-5.089 19.608 19.608 0 0 1 -4.92-14.5 24.828 24.828 0 0 1 6.014-14.261c3.249-3.827 9.614-8.359 14.652-5.106a29.312 29.312 0 0 1 11.408 16.2 20.6 20.6 0 0 1 -.51 12.065z" opacity=".08" transform="translate(27.757 14.788)"/><path d="m419.852 334.413a7.071 7.071 0 0 0 -2.754 1.55c-3.38 3.049-4.876 8.811-4.306 13.4a15.879 15.879 0 0 0 4.637 9.517 12.068 12.068 0 0 0 9.346 3.368c7.791-.764 13.707-9.489 10.281-17.538a18.629 18.629 0 0 0 -7.838-8.463c-2.737-1.624-6.293-2.747-9.366-1.834z" opacity=".08" transform="translate(29.224 18.852)"/></g><path d="m415.661 349.177c.805-.1 1.613-.176 2.42-.232a17.989 17.989 0 0 1 -3.3 5.258 26.8 26.8 0 0 1 -13.095 7.538c-3.145.822-6.576 1.277-9.032 3.409a10.96 10.96 0 0 0 -3.367 7.711c-.017.3-.026.611-.026.916q-.865-.353-1.719-.73c-1.341-6.13-2.831-12.23-4.409-18.3 6.813 5.072 16.939 5.478 24.435 1.559a22.989 22.989 0 0 0 6.847-5.475 18.122 18.122 0 0 0 1.246-1.654z" opacity=".05" transform="translate(8.384 29.335)"/><path d="m421.354 356.752c-.044.147-.089.3-.136.443-.114.353-.239.7-.372 1.047-.786.073-1.566.177-2.342.305l-.344.056c-.171.031-.339.061-.508.1-.068.09-.138.179-.208.268l-.1.126a24.094 24.094 0 0 1 -6.309 5.661 23.166 23.166 0 0 1 -14.961 3.073 21.014 21.014 0 0 1 -10.7-4.511c-.182-.147-.36-.3-.535-.46a16.824 16.824 0 0 1 -3.024-3.544 16.115 16.115 0 0 1 -2.314-6.5c1.516 6.735 7.412 12.133 14.623 13.777a21.2 21.2 0 0 0 19.889-6.169 19.95 19.95 0 0 0 2.7-3.706c.1-.177.2-.358.293-.541a21.568 21.568 0 0 0 2.378-7.951 22.047 22.047 0 0 0 -.518-7.085c-.522-2.289-1.7-4.052-2.749-6.083a28.5 28.5 0 0 1 4.131 5.959 21.886 21.886 0 0 1 2 7.866 22.593 22.593 0 0 1 -.894 7.869z" opacity=".05" transform="translate(5.822 19.533)"/><path d="m409.5 349.177c-.8-.1-1.613-.176-2.42-.232a17.989 17.989 0 0 0 3.3 5.258 26.8 26.8 0 0 0 13.095 7.538c3.145.822 6.576 1.277 9.032 3.409a10.966 10.966 0 0 1 3.367 7.711c.017.3.026.611.026.916q.865-.353 1.719-.73c1.341-6.13 2.829-12.23 4.409-18.3-6.813 5.072-16.939 5.478-24.436 1.559a23 23 0 0 1 -6.846-5.475 18.133 18.133 0 0 1 -1.246-1.654z" opacity=".05" transform="translate(25.28 29.335)"/><path d="m407.05 356.752c.044.147.089.3.136.443.114.353.237.7.37 1.047.788.073 1.567.177 2.343.305l.344.056c.169.031.339.061.508.1.068.09.138.179.208.268l.1.126a24.116 24.116 0 0 0 6.307 5.661 23.171 23.171 0 0 0 14.962 3.073 21.021 21.021 0 0 0 10.7-4.511c.182-.147.36-.3.536-.46a16.924 16.924 0 0 0 3.024-3.544 16.115 16.115 0 0 0 2.314-6.5c-1.516 6.735-7.412 12.133-14.623 13.777a21.2 21.2 0 0 1 -19.889-6.169 19.953 19.953 0 0 1 -2.7-3.706c-.1-.177-.2-.358-.293-.541a21.57 21.57 0 0 1 -2.378-7.951 22.047 22.047 0 0 1 .518-7.085c.522-2.289 1.7-4.052 2.749-6.083a28.5 28.5 0 0 0 -4.131 5.959 21.883 21.883 0 0 0 -2 7.866 22.593 22.593 0 0 0 .895 7.869z" opacity=".05" transform="translate(24.601 19.533)"/><path d="m479.323 313.8a22.425 22.425 0 0 0 -6.435-2.727h-.005q-1.023-.269-2.062-.472h-.005a57.934 57.934 0 0 0 -6.733-.849h-.009l-1.559-.182c-1.059-.121-2.12-.239-3.182-.346l-.222-.024q-1.522-.156-3.044-.3c-.06-.007-.121-.014-.179-.017-.745-.068-1.494-.135-2.238-.194a.971.971 0 0 0 -.1-.01h-.005q-1.169-.1-2.342-.188-4.812-.373-9.634-.634c-1.436-.082-2.869-.155-4.3-.229q-3.927-.192-7.85-.256-3.924.061-7.85.256c-1.436.073-2.87.147-4.306.229q-4.82.269-9.634.634-1.172.087-2.34.188h-.007l-.1.009q-1.12.092-2.239.2c-.06 0-.121.01-.179.017q-1.525.138-3.046.3l-.222.024c-1.063.107-2.123.225-3.181.346l-1.56.182h-.007a57.84 57.84 0 0 0 -6.733.849h-.005q-1.041.2-2.064.472h-.005a22.415 22.415 0 0 0 -6.441 2.722c-10.722 6.861-8.417 22.067-7.064 32.745a125.772 125.772 0 0 1 1.436 19.229c0 .109-.007.22-.01.331 0 .08-.005.159-.009.239.147.119.3.24.449.355a14.27 14.27 0 0 0 5.582 2.6 14.967 14.967 0 0 0 4.465.307 18.147 18.147 0 0 0 2.446 9.264 17.861 17.861 0 0 0 4.126 4.748c.041.188.08.375.123.563 1.282 5.983 2.654 11.949 4.158 17.877.046.179.092.36.14.541.13.063.259.126.391.186.1.053.21.1.315.152a59.1 59.1 0 0 0 10.983 3.865 92.057 92.057 0 0 0 14.781 2.3h.01c2.526.2 5.059.327 7.589.4 2.529-.073 5.064-.2 7.589-.4h.009a92.078 92.078 0 0 0 14.783-2.3 59.1 59.1 0 0 0 10.983-3.865c.1-.049.21-.1.316-.152.131-.06.261-.123.391-.186.048-.181.094-.362.14-.541 1.5-5.928 2.875-11.894 4.158-17.877.043-.188.08-.375.121-.563a17.831 17.831 0 0 0 4.126-4.748 18.166 18.166 0 0 0 2.447-9.264 14.956 14.956 0 0 0 4.463-.307 14.259 14.259 0 0 0 5.582-2.6c.077-.058.152-.116.227-.176s.148-.121.223-.179c-.009-.191-.015-.38-.019-.57a125.555 125.555 0 0 1 1.436-19.229c1.353-10.681 3.659-25.887-7.063-32.745zm-76.476-4.23c.795-.126 1.581-.275 2.364-.449q1.169-.1 2.343-.184c7.276-.546 14.561-.817 21.854-.93 7.294.113 14.577.384 21.854.93.781.058 1.564.119 2.343.184q1.172.261 2.364.449l.007.058c.815 6.16 2.546 12.143 4.1 18.174 1.726 6.7 3.126 13.676 2.466 20.621a29.513 29.513 0 0 1 -6.975 16.393 32.224 32.224 0 0 1 -14.526 9.6 40.527 40.527 0 0 1 -7.189 1.63c-.154.021-.307.041-.461.06q-.962.118-1.922.189c-.5.039-.994.061-1.491.072-.1 0-.2 0-.3 0-.281 0-.563 0-.844 0-.495-.01-.991-.032-1.491-.072q-.959-.072-1.922-.189c-.153-.019-.307-.039-.461-.06a40.508 40.508 0 0 1 -7.187-1.63 32.228 32.228 0 0 1 -14.527-9.6 29.513 29.513 0 0 1 -6.975-16.393c-.66-6.945.742-13.925 2.466-20.621 1.554-6.031 3.285-12.013 4.1-18.174zm-17.9 52.756a47.951 47.951 0 0 0 -.6 6.6 14.764 14.764 0 0 1 -4.415-.321 16.35 16.35 0 0 1 -5.572-2.478c1.132-11.877-2.923-23.74-2.287-35.663.305-5.73 1.989-11.715 6.769-15.319 4.543-3.423 10.472-4.2 15.972-4.688 1.513-.135 3.037-.263 4.555-.425-.986 6.759-1.917 13.526-3.414 20.2a99.8 99.8 0 0 1 -3.372 11.809c-1.375 3.837-3.155 7.46-4.89 11.137-.406.86-.8 1.723-1.165 2.6.445-4.2.418-8.42-1.443-12.334-.027-.058-.126-.017-.1.044 1.85 4.77 1.33 9.807.575 14.855-.2 1.33-.416 2.661-.609 3.987zm77.953 40.056c-.926.409-1.862.8-2.8 1.17-9.834 3.883-20.234 4.937-30.685 5.343-10.45-.406-20.848-1.462-30.682-5.343-.941-.373-1.878-.761-2.8-1.17-1.341-6.13-2.831-12.23-4.409-18.3 6.813 5.072 16.939 5.478 24.435 1.559a22.989 22.989 0 0 0 6.847-5.475 18.122 18.122 0 0 0 1.247-1.651c1.387-.169 2.778-.273 4.165-.333.394-.015.781-.026 1.173-.026h.06c.391 0 .778.01 1.172.026 1.385.06 2.778.164 4.165.333a17.825 17.825 0 0 0 1.247 1.651 22.982 22.982 0 0 0 6.846 5.475c7.5 3.919 17.623 3.513 24.435-1.559-1.588 6.07-3.077 12.17-4.416 18.3zm10.823-32.86a17.608 17.608 0 0 1 -2.536 9.322 16.87 16.87 0 0 1 -3.022 3.544c-.176.16-.353.314-.536.46a21.021 21.021 0 0 1 -10.7 4.511 23.171 23.171 0 0 1 -14.962-3.073 24.094 24.094 0 0 1 -6.309-5.661l-.1-.126c-.07-.089-.142-.177-.21-.268-.167-.034-.338-.065-.508-.1l-.343-.056a33.179 33.179 0 0 0 -3.713-.406c-.452-.026-.911-.043-1.373-.056-.462.014-.919.031-1.375.056a33.19 33.19 0 0 0 -3.711.406l-.344.056c-.171.031-.339.061-.508.1-.068.09-.138.179-.208.268l-.1.126a24.094 24.094 0 0 1 -6.309 5.661 23.166 23.166 0 0 1 -14.956 3.074 21.014 21.014 0 0 1 -10.7-4.511c-.182-.147-.36-.3-.535-.46a16.824 16.824 0 0 1 -3.024-3.544 17.621 17.621 0 0 1 -2.534-9.322c-.007-.225-.009-.45-.009-.677a52.168 52.168 0 0 1 .624-7.119c.181-1.252.375-2.522.547-3.8.534-1.417 1.146-2.807 1.784-4.168 1.646-3.518 3.373-6.977 4.726-10.625a112.026 112.026 0 0 0 5.654-23.589c.438-3.155.841-6.321 1.189-9.491l.005-.055c1.015-.111 2.026-.24 3.029-.4-1.968 12.745-8.067 24.839-7.154 37.968a29.792 29.792 0 0 0 6.216 16.422 33.172 33.172 0 0 0 13.622 10.211 34.372 34.372 0 0 0 9.317 2.338c.174.02.35.038.525.051.237.024.476.041.713.058h.029c1.156.1 2.326.143 3.488.135h.275c1.071 0 2.147-.037 3.213-.135h.027c.239-.017.478-.034.713-.058q.263-.02.527-.051a34.387 34.387 0 0 0 9.317-2.338 33.184 33.184 0 0 0 13.625-10.209 29.777 29.777 0 0 0 6.215-16.422c.914-13.129-5.186-25.222-7.155-37.968 1 .159 2.014.288 3.029.4l.005.055c.348 3.17.75 6.336 1.189 9.491a112.241 112.241 0 0 0 5.654 23.589c1.352 3.648 3.08 7.107 4.728 10.625.638 1.361 1.248 2.751 1.782 4.168.172 1.277.368 2.548.547 3.8a51.622 51.622 0 0 1 .624 7.119c0 .224-.002.452-.007.674zm10.743-3.4a16.344 16.344 0 0 1 -5.574 2.478 14.753 14.753 0 0 1 -4.414.321 48.49 48.49 0 0 0 -.6-6.6c-.194-1.327-.411-2.657-.611-3.987-.756-5.048-1.274-10.085.575-14.855.022-.061-.075-.1-.1-.044-1.861 3.914-1.89 8.137-1.445 12.334-.365-.873-.759-1.736-1.163-2.6-1.734-3.677-3.517-7.3-4.891-11.137a99.8 99.8 0 0 1 -3.37-11.809c-1.5-6.675-2.43-13.443-3.414-20.2 1.516.162 3.041.29 4.554.425 5.5.491 11.428 1.265 15.974 4.688 4.779 3.6 6.462 9.588 6.767 15.319.632 11.926-3.423 23.789-2.291 35.666z" fill="#c47b4e"/></g></svg>