<svg height="115.135" viewBox="0 0 85.903 115.135" width="85.903" xmlns="http://www.w3.org/2000/svg"><path d="m147.105 131.988s-.428 70.417-.2 79.612c.226 9.026 2.107 9.719 3.9 9.833s3.131-2.654 3.339-10.172-2.078-79.061-2.078-79.061z" fill="#592705" transform="translate(-125.015 -115.07)"/><path d="m152.227 132.2-4.958-.212s-.042 7.139-.1 17.159c1.5 1.1 3.678 4.618 3.947 15.788.414 17.23.69 35.7.827 44.386.116 7.292-1.905 10.5-4.352 8 .727 3.644 2.072 4.034 3.371 4.115 1.791.116 3.131-2.654 3.339-10.172s-2.074-79.064-2.074-79.064z" fill="#592705" opacity=".5" transform="translate(-125.179 -115.07)"/><path d="m207.313 229.42a2.661 2.661 0 0 1 -2.709 2.61l-47.484-.861a2.66 2.66 0 0 1 -2.612-2.708 2.661 2.661 0 0 1 2.709-2.611l47.482.861a2.661 2.661 0 0 1 2.613 2.708z" fill="#934307" transform="translate(-128.758 -160.881)"/><path d="m204.7 226.713-3.37-.062.469 2.224-7.765-.1-.41-2.258-9.492-.173.591 2.958s-8.013.147-17.062-.3c-5.626-.276-7.882-1.813-8.778-3.118l-1.665-.03a2.66 2.66 0 1 0 -.1 5.319l47.484.861a2.659 2.659 0 1 0 .1-5.318z" fill="#934307" opacity=".5" transform="translate(-128.758 -160.881)"/><path d="m137.023 230.24a2.661 2.661 0 0 0 -3.762.076l-12.1 12.6c.422 2.216.711 4.453.941 6.7l14.998-15.616a2.661 2.661 0 0 0 -.077-3.76z" fill="#934307" transform="translate(-112.483 -162.661)"/><path d="m126.019 243.7c-1.285.347-1.285-1.772-1.143-3.226l-3.716 3.868c.422 2.216.711 4.453.941 6.7l15-15.615a2.656 2.656 0 0 0 .463-3.011c-2.319 2.556-9.916 10.843-11.545 11.284z" fill="#934307" opacity=".5" transform="translate(-112.483 -164.084)"/><path d="m234.219 133.34s10.251 69.667 11.871 78.724c1.591 8.887 3.555 9.286 5.341 9.127s2.695-3.1 1.76-10.56-14.039-77.831-14.039-77.831z" fill="#592705" transform="translate(-167.662 -115.465)"/><path d="m253.191 210.631c-.936-7.463-14.039-77.834-14.039-77.834l-4.933.543s.9 6.119 2.209 14.964c1.64 1.174 4.032 4.47 5.837 13.581 3.033 15.3 5.927 36.391 7.306 43.834 1.136 6.136 1.051 12.637-2.485 10.721 1.375 4.642 2.917 4.878 4.345 4.751 1.789-.157 2.695-3.097 1.76-10.56z" fill="#592705" opacity=".5" transform="translate(-167.662 -115.465)"/><path d="m117.044 150.018s-11.267 69.512-12.457 78.632c-1.166 8.954.585 9.927 2.337 10.317s3.5-2.141 4.865-9.538 10.122-78.438 10.122-78.438z" fill="#703005" transform="translate(-104.21 -123.87)"/><path d="m117.58 150.018-.566 3.5c1.337.914 2.924 2.841 2.394 6.766-.876 6.482-7.358 55.36-9.635 67.624-1.062 5.717-2.658 8.425-4.466 9.386a2.707 2.707 0 0 0 2.153 1.672c1.752.389 3.5-2.141 4.865-9.538s10.122-78.438 10.122-78.438z" fill="#703005" opacity=".5" transform="translate(-104.745 -123.87)"/><path d="m174.354 263.3a2.66 2.66 0 0 1 -2.819 2.491l-47.4-2.932a2.661 2.661 0 0 1 -2.491-2.821 2.66 2.66 0 0 1 2.819-2.49l47.4 2.931a2.659 2.659 0 0 1 2.491 2.82z" fill="#a34f06" transform="translate(-112.716 -176.347)"/><path d="m171.913 263.212-1.063-.065c.325 2.256-.01 3.337-3.888 3.2-8-.374-38.758-2.483-45.221-2.929a2.659 2.659 0 0 0 2.444 2.172l47.4 2.932a2.661 2.661 0 0 0 .328-5.311z" fill="#a34f06" opacity=".5" transform="translate(-112.766 -179.084)"/><path d="m241.651 236.368a2.661 2.661 0 0 0 -3.758.212l-11.638 13.03c.5 2.2.872 4.424 1.183 6.662l14.423-16.148a2.659 2.659 0 0 0 -.21-3.756z" fill="#934307" transform="translate(-163.775 -165.684)"/><path d="m231.6 249.775-.925-3.955-4.419 4.947c.5 2.2.872 4.424 1.183 6.662l14.423-16.148a2.653 2.653 0 0 0 .236-3.22z" fill="#934307" opacity=".5" transform="translate(-163.775 -166.84)"/><path d="m208.92 148.665s12.617 69.278 13.984 78.376c1.341 8.928-.391 9.935-2.135 10.359s-3.544-2.071-5.05-9.44-11.646-78.227-11.646-78.227z" fill="#703005" transform="translate(-152.949 -123.21)"/><path d="m222.9 227.041c-1.367-9.1-13.984-78.376-13.984-78.376l-4.847 1.067s.32 2.239.853 5.946c1.363.065 3.293 1.406 4.456 7.693 1.946 10.51 9.732 56.057 11.484 65.787 1.027 5.705-.756 7.26-2.8 6.278.883 1.612 1.8 2.182 2.7 1.963 1.751-.423 3.483-1.43 2.138-10.358z" fill="#703005" opacity=".5" transform="translate(-152.949 -123.21)"/><path d="m177.061 118.154c-7.668-2-18.118-3.238-29.647-3.238a125 125 0 0 0 -28.679 2.991l-13.89-.059-.023 8.539c0 6.336 19.068 11.473 42.592 11.473s42.593-5.137 42.593-11.473v-8.177z" fill="#843b04" transform="translate(-104.509 -106.738)"/><g fill="#a34f06"><path d="m190.007 110.415c0 6.335-19.068 11.471-42.593 11.471s-42.592-5.136-42.592-11.471 19.068-11.473 42.592-11.473 42.593 5.135 42.593 11.473z" transform="translate(-104.509 -98.942)"/><path d="m190.209 111.757c0 5.11-15.947 9.252-35.617 9.252s-35.618-4.143-35.618-9.252 15.946-9.254 35.618-9.254 35.617 4.143 35.617 9.254z" opacity=".3" transform="translate(-111.416 -100.68)"/><path d="m115.3 132.972a18.062 18.062 0 0 0 .856 2.131 20.547 20.547 0 0 0 1.089 2.054 18.141 18.141 0 0 0 1.535 2.15 14.728 14.728 0 0 0 1.83 1.894c.3.293.639.525.941.771a6.909 6.909 0 0 0 .9.627 13.745 13.745 0 0 0 1.427.849l.555.316-.613-.177a8.442 8.442 0 0 1 -1.582-.605 7.353 7.353 0 0 1 -1-.539 7.713 7.713 0 0 1 -1.058-.713 9.4 9.4 0 0 1 -1.037-.892 11.052 11.052 0 0 1 -.96-1.037 13.159 13.159 0 0 1 -2.431-4.543 9.392 9.392 0 0 1 -.452-2.286z" transform="translate(-109.621 -115.551)"/><path d="m120.806 134.918s.455.843 1.191 2.049c.366.6.822 1.291 1.333 2a24.032 24.032 0 0 0 1.693 2.145 16.826 16.826 0 0 0 1.944 1.893c.353.245.659.541 1 .747s.648.426.96.578.6.283.86.413a6.458 6.458 0 0 0 .7.248l.619.218-.653-.07a6.9 6.9 0 0 1 -1.7-.408c-.343-.123-.689-.317-1.072-.492a9.812 9.812 0 0 1 -1.124-.69c-.372-.265-.728-.574-1.1-.883-.334-.342-.692-.675-1.014-1.038a16.936 16.936 0 0 1 -1.679-2.285 19.966 19.966 0 0 1 -1.15-2.176 14.374 14.374 0 0 1 -.808-2.249z" transform="translate(-112.31 -116.501)"/><path d="m129.239 137.838s.135.21.4.554c.238.36.647.824 1.1 1.4a10.771 10.771 0 0 0 .783.888c.291.3.576.64.9.959s.676.638 1.026.966a7.873 7.873 0 0 0 1.1.94c.381.3.761.605 1.134.9a10.437 10.437 0 0 0 1.165.78l1.1.718a5.393 5.393 0 0 0 1.037.564c1.321.632 2.2 1.121 2.2 1.121s-.953-.248-2.384-.723a5.526 5.526 0 0 1 -1.121-.46l-1.2-.637a8.234 8.234 0 0 1 -1.242-.751l-1.191-.915a8.036 8.036 0 0 1 -1.12-1c-.345-.355-.682-.706-1.01-1.044s-.572-.729-.838-1.068a11.015 11.015 0 0 1 -.7-.99 11.422 11.422 0 0 1 -1.139-2.202z" transform="translate(-116.426 -117.926)"/><path d="m138.065 139.324a6.7 6.7 0 0 0 .687 1.011 7.6 7.6 0 0 0 .926 1.039 11.645 11.645 0 0 0 1.358 1.179 12.947 12.947 0 0 0 1.772 1.162c.631.409 1.411.634 2.139 1a23.389 23.389 0 0 0 2.409.771l.6.179.656.108a7.7 7.7 0 0 0 1.3.154 15.131 15.131 0 0 0 5.055-.467c.793-.214 1.552-.449 2.266-.7.707-.271 1.368-.548 1.967-.836a26.328 26.328 0 0 0 3.851-2.2 19.366 19.366 0 0 1 -3.65 2.595c-.591.328-1.248.651-1.956.972a18.389 18.389 0 0 1 -2.3.83 15.8 15.8 0 0 1 -5.319.589 8.633 8.633 0 0 1 -1.345-.188l-.653-.121-.665-.2a24.041 24.041 0 0 1 -2.479-.849 15.9 15.9 0 0 1 -2.172-1.142 13.626 13.626 0 0 1 -1.761-1.311 8.711 8.711 0 0 1 -1.294-1.323 8 8 0 0 1 -.838-1.146 5.9 5.9 0 0 1 -.437-.8 2.685 2.685 0 0 1 -.117-.306z" transform="translate(-120.734 -118.651)"/><path d="m163.023 151.19a5.7 5.7 0 0 0 .758 0 4.988 4.988 0 0 0 .854-.1 7.329 7.329 0 0 0 1.089-.216c.393-.1.818-.217 1.268-.335l1.368-.535.722-.269.71-.359 1.453-.719a11.534 11.534 0 0 0 1.412-.8c.459-.277.914-.548 1.353-.81s.885-.487 1.26-.773l1.089-.761c1.359-.93 2.313-1.508 2.313-1.508s-.79.768-2.05 1.859l-1.023.873a9.712 9.712 0 0 1 -1.214.885l-1.346.882a11.353 11.353 0 0 1 -1.433.845c-.505.239-1.01.48-1.508.716l-.742.344c-.259.08-.513.163-.765.242-.5.153-.988.3-1.45.438l-1.343.219a4.678 4.678 0 0 1 -1.144.074 5.128 5.128 0 0 1 -.882-.04 3.69 3.69 0 0 1 -.749-.152z" transform="translate(-132.915 -120.936)"/><path d="m187.978 151.15s.28-.077.751-.243c.477-.132 1.131-.441 1.923-.74.39-.174.809-.365 1.254-.566.45-.184.893-.453 1.37-.687s.957-.5 1.453-.751c.48-.284.969-.571 1.455-.86s1-.532 1.454-.864l1.371-.9c.454-.285.889-.559 1.3-.82.4-.289.768-.562 1.115-.812 1.39-1 2.364-1.621 2.364-1.621s-.808.812-2.093 1.966l-1.046.923c-.4.3-.815.608-1.249.929s-.894.638-1.355.969-.975.6-1.466.9l-1.5.851c-.5.265-1.026.475-1.515.706a24.547 24.547 0 0 1 -2.766 1.045c-.412.137-.805.212-1.146.3a9.071 9.071 0 0 1 -.893.18 6.394 6.394 0 0 1 -.781.095z" transform="translate(-145.094 -120.097)"/><path d="m207.318 148.764a22.6 22.6 0 0 0 3.162-.661 28.393 28.393 0 0 0 3.116-1.041c.548-.242 1.133-.449 1.687-.75a15.654 15.654 0 0 0 1.67-.911 20.588 20.588 0 0 0 3.075-2.129c.481-.361.875-.786 1.293-1.146a10.992 10.992 0 0 0 1.087-1.106c.312-.367.646-.667.885-.979l.629-.8.565-.7-.438.781c-.146.247-.322.548-.523.891a10.833 10.833 0 0 1 -.782 1.087 11.427 11.427 0 0 1 -1.017 1.224 11.815 11.815 0 0 1 -1.258 1.259 18.463 18.463 0 0 1 -1.484 1.2 17.124 17.124 0 0 1 -1.639 1.091 16.834 16.834 0 0 1 -1.752.9c-.581.294-1.189.492-1.761.726a20.8 20.8 0 0 1 -3.259.834 16.657 16.657 0 0 1 -2.359.245 7.9 7.9 0 0 1 -.897-.015z" transform="translate(-154.533 -118.269)"/><path d="m227.6 146.968a20.329 20.329 0 0 0 2.275-.893 19.059 19.059 0 0 0 2.185-1.155c.391-.223.761-.507 1.154-.761a13.621 13.621 0 0 0 1.1-.9 9.068 9.068 0 0 0 1.01-.992 8.228 8.228 0 0 0 .872-1.059 8.722 8.722 0 0 0 .71-1.073 5.39 5.39 0 0 0 .533-1.032c.133-.334.3-.629.4-.907s.171-.527.237-.732l.222-.641s-.027.246-.076.673a7.426 7.426 0 0 1 -.374 1.766 5.791 5.791 0 0 1 -.439 1.133 6.042 6.042 0 0 1 -.648 1.2 7.042 7.042 0 0 1 -.874 1.172 9.837 9.837 0 0 1 -1.057 1.076c-.366.353-.8.617-1.187.927-.418.267-.832.526-1.249.741a14.777 14.777 0 0 1 -2.369.969 10.679 10.679 0 0 1 -2.425.488z" transform="translate(-164.43 -117.432)"/><path d="m107.467 127.78s.052.758.244 1.85c.073.551.242 1.175.4 1.841a17 17 0 0 0 .672 2.026 13 13 0 0 0 .924 1.916 11.151 11.151 0 0 0 1.033 1.56 11.933 11.933 0 0 0 .86 1.033c.217.25.339.4.339.4s-.161-.1-.437-.282a6.448 6.448 0 0 1 -1.085-.853 5.536 5.536 0 0 1 -.645-.667 5.894 5.894 0 0 1 -.644-.819 9.653 9.653 0 0 1 -1.066-1.993 11.332 11.332 0 0 1 -.618-2.17 12.512 12.512 0 0 1 -.167-1.949 7.818 7.818 0 0 1 .19-1.893z" transform="translate(-105.707 -113.017)"/><path d="m251.226 134.021a5.44 5.44 0 0 1 .239 2.034 7.557 7.557 0 0 1 -.409 2.095 8.532 8.532 0 0 1 -1.137 2.181c-.272.317-.509.667-.806.951a10.289 10.289 0 0 1 -.883.817c-.306.241-.611.461-.9.666l-.861.5a9.3 9.3 0 0 1 -1.347.618l-.523.2.452-.334c.285-.211.718-.469 1.18-.851l.762-.59.783-.721c.284-.238.508-.548.785-.813s.483-.6.731-.9c.225-.313.436-.64.631-.967a10.773 10.773 0 0 0 .5-1 8.873 8.873 0 0 0 .613-1.9 8.366 8.366 0 0 0 .19-1.986z" transform="translate(-172.728 -116.063)"/><path d="m262.69 129.34a5.822 5.822 0 0 1 .571 1.67 7.732 7.732 0 0 1 -.189 3.916 6.952 6.952 0 0 1 -.408 1 6.314 6.314 0 0 1 -.534.9 5.423 5.423 0 0 1 -.617.753 5.144 5.144 0 0 1 -.628.6 5.671 5.671 0 0 1 -1.049.739c-.264.157-.421.239-.421.239l.327-.358c.1-.107.234-.239.38-.391s.279-.35.451-.537a4.851 4.851 0 0 0 .5-.646c.148-.25.34-.485.481-.765a8.552 8.552 0 0 0 .431-.855 6.287 6.287 0 0 0 .347-.921 10.006 10.006 0 0 0 .419-1.9c.01-.312.073-.616.073-.906a7.5 7.5 0 0 0 .005-.821 12.092 12.092 0 0 0 -.139-1.717z" transform="translate(-179.96 -113.778)"/></g></svg>