<svg height="164.282" viewBox="0 0 128.992 164.282" width="128.992" xmlns="http://www.w3.org/2000/svg"><path d="m28.583 96.128s-.876-4.376-2.513-5.249-2.244-1.422-.77-2.679 3.007-1.639 4.156-.16 1.697 5.46 1.697 5.46a4.138 4.138 0 0 1 -2.57 2.628z" fill="#dc7a1f" transform="translate(11.702 55.514)"/><path d="m30.428 89.693c.31 2.825-1.123 4.352-1.4 3.084-.322-1.517-.538-2.594-2.92-4.057-.641-.4-.767-.789-.619-1.153-.061.051-.127.1-.19.154-1.477 1.259-.876 1.805.767 2.681s2.513 5.249 2.513 5.249a4.138 4.138 0 0 0 2.57-2.624 24.208 24.208 0 0 0 -.721-3.334z" fill="#dc7a1f" opacity=".5" transform="translate(11.702 55.99)"/><path d="m39.849 84.436s-2.568 5.852-2.677 10.991c4.755-3.227 6.944-4.427 11.646-2.95 2.732.815 3.28 2.129 1.257 2.511s-5.849.987-7.984 3.717c4.595-1.42 10.663-1.91 12.3 0s.6 4.045-3.5 3.284-8.312-.876-12.029.817-4.812 2.466-7 2.408a10.618 10.618 0 0 0 -7.272 2.021c-1.7 1.424-2.788.658-1.752-1.692s3.832-4.868 7.711-6.181c1.807-.821 2.24-1.422 2.353-3.992s1.098-8.637 2.467-11.425c1.366-.545 3.442-.822 4.48.491z" fill="#fba31d" transform="translate(9.728 52.004)"/><g fill="#ce7b0d" opacity=".5" transform="translate(33.578 138.5)"><path d="m23.154 93.825a1.771 1.771 0 0 1 .593-.036 2.332 2.332 0 0 1 .609.121 2.294 2.294 0 0 1 .328.134 2.27 2.27 0 0 1 .308.2 1.857 1.857 0 0 1 .277.251 1.62 1.62 0 0 1 .221.277 2.1 2.1 0 0 1 .156.291 1.571 1.571 0 0 1 .1.275 2.331 2.331 0 0 1 .061.235c0 .081.014.142.018.2.01.1.016.162.016.162s-.022-.053-.065-.148c-.02-.049-.044-.109-.067-.176a2.061 2.061 0 0 0 -.1-.21 2.188 2.188 0 0 0 -.13-.237c-.061-.083-.107-.17-.176-.251a2.4 2.4 0 0 0 -.214-.239 1.69 1.69 0 0 0 -.251-.214 2.378 2.378 0 0 0 -.273-.188 2.964 2.964 0 0 0 -.289-.14c-.1-.04-.192-.081-.285-.109s-.18-.057-.267-.079a4.081 4.081 0 0 0 -.57-.119z" transform="translate(-23.154 -76.439)"/><path d="m24.5 92.568a2.3 2.3 0 0 1 .271-.042c.087 0 .192-.008.312-.008a2.542 2.542 0 0 1 .405.032 3.681 3.681 0 0 1 .475.1 2.889 2.889 0 0 1 .506.2 2.691 2.691 0 0 1 .5.289 3.543 3.543 0 0 1 .854.84 4.793 4.793 0 0 1 .316.482c.085.172.168.328.237.486s.111.31.162.451c.022.069.049.134.069.2s.026.129.04.19l.063.3c.034.17.055.269.055.269s-.043-.095-.1-.253c-.028-.079-.065-.178-.107-.289a3.354 3.354 0 0 0 -.156-.364l-.2-.423c-.085-.14-.168-.295-.259-.447s-.216-.293-.318-.449a4.8 4.8 0 0 0 -.376-.427 4.5 4.5 0 0 0 -.425-.36 4.11 4.11 0 0 0 -.927-.512 4.484 4.484 0 0 0 -.439-.142 3.772 3.772 0 0 0 -.69-.115c-.168-.008-.268-.008-.268-.008z" transform="translate(-21.84 -77.672)"/><path d="m26.643 91.422a2.165 2.165 0 0 1 .3.075 3.084 3.084 0 0 1 .33.125 2.825 2.825 0 0 1 .417.194c.152.075.3.18.469.283a4.223 4.223 0 0 1 .484.372c.079.071.162.14.241.215s.152.166.227.241a5.9 5.9 0 0 1 .429.53c.125.188.237.384.354.573.1.2.19.4.279.591.073.206.134.4.2.579s.089.37.129.53a2.3 2.3 0 0 1 .077.455c.018.132.03.249.04.35.018.194.026.3.026.3l-.075-.295c-.024-.095-.051-.21-.081-.342s-.081-.275-.127-.431-.1-.33-.17-.508-.152-.356-.225-.544c-.095-.184-.19-.376-.289-.562-.115-.184-.225-.374-.35-.554s-.249-.352-.4-.508c-.073-.077-.142-.158-.21-.241s-.15-.14-.223-.214c-.146-.142-.3-.263-.443-.389-.15-.107-.289-.225-.431-.308a5.166 5.166 0 0 0 -.7-.4c-.173-.077-.278-.117-.278-.117z" transform="translate(-19.745 -78.744)"/><path d="m27.481 90.907a3.312 3.312 0 0 1 .352-.065c.113-.01.253-.02.411-.02h.256c.089 0 .184.02.279.028a3.062 3.062 0 0 1 .308.053c.1.028.212.042.318.081s.219.071.33.113a2.445 2.445 0 0 1 .336.158c.053.022.109.051.168.079s.1.071.158.109c.107.071.214.14.324.219.095.089.192.174.291.267a2.094 2.094 0 0 1 .279.283 5.413 5.413 0 0 1 .828 1.3 6.084 6.084 0 0 1 .261.66c.063.216.123.415.178.611a3.4 3.4 0 0 1 .109.52c.024.156.047.291.065.4.03.223.051.354.051.354s-.04-.127-.1-.34c-.03-.115-.069-.241-.113-.4a5.173 5.173 0 0 0 -.154-.5c-.067-.184-.136-.378-.212-.587s-.2-.4-.293-.621a5.006 5.006 0 0 0 -.366-.635 4.374 4.374 0 0 0 -.453-.6 2.023 2.023 0 0 0 -.261-.275c-.089-.085-.182-.168-.273-.255a4.625 4.625 0 0 0 -.6-.4c-.1-.055-.2-.119-.306-.164s-.208-.087-.308-.129a2.924 2.924 0 0 0 -.3-.1 2.44 2.44 0 0 0 -.29-.051l-.267-.053c-.087-.008-.168-.018-.247-.028a3.536 3.536 0 0 0 -.405-.024c-.225-.002-.354.012-.354.012z" transform="translate(-18.926 -79.331)"/><path d="m30.116 89.414a1.946 1.946 0 0 1 .306.158c.091.057.2.127.326.219a2.7 2.7 0 0 1 .39.326 5.018 5.018 0 0 1 .413.443 4.093 4.093 0 0 1 .405.548c.129.2.239.417.356.635.091.227.208.455.283.692s.16.477.206.72.111.475.132.708.053.457.069.672.006.411.01.605c0 .089.006.18.006.265s-.016.16-.024.243c-.01.148-.022.279-.03.391-.024.214-.034.334-.034.334s-.006-.121-.02-.34 0-.522-.049-.894c-.016-.176-.034-.376-.051-.587-.034-.206-.071-.425-.109-.652s-.1-.449-.15-.688-.136-.457-.206-.69-.182-.449-.265-.674c-.111-.21-.2-.429-.324-.617a5.412 5.412 0 0 0 -.354-.552c-.115-.17-.253-.316-.368-.465-.129-.123-.237-.253-.35-.352s-.208-.184-.289-.251c-.174-.134-.279-.197-.279-.197z" transform="translate(-16.351 -80.706)"/><path d="m31.585 88.473a1.646 1.646 0 0 1 .229.012c.075.016.16.028.263.051a2.415 2.415 0 0 1 .332.1 3.024 3.024 0 0 1 .378.166 3.139 3.139 0 0 1 .4.237 3.3 3.3 0 0 1 .384.31c.129.113.235.249.352.374.1.142.2.275.293.419s.164.293.231.433.117.293.168.427.073.277.107.4a1.965 1.965 0 0 1 .067.342c.012.1.024.188.028.255.022.152.028.231.028.231s-.03-.079-.073-.219c-.022-.065-.049-.152-.079-.249a2.818 2.818 0 0 0 -.113-.316c-.047-.117-.1-.237-.148-.372s-.127-.257-.192-.393-.162-.267-.239-.4-.188-.257-.279-.39c-.111-.119-.208-.245-.326-.35a3.655 3.655 0 0 0 -.346-.314c-.117-.093-.239-.172-.356-.251s-.231-.146-.34-.2a4.465 4.465 0 0 0 -.548-.235 1.664 1.664 0 0 0 -.221-.068z" transform="translate(-14.915 -81.626)"/><path d="m34.071 87.738a1.224 1.224 0 0 1 .206.014 2.925 2.925 0 0 1 .528.138c.107.038.216.095.334.148a2.6 2.6 0 0 1 .348.225 2.66 2.66 0 0 1 .338.285c.113.1.2.227.3.342.085.13.168.259.245.388a4.335 4.335 0 0 1 .182.4c.044.129.085.263.123.389a3.363 3.363 0 0 1 .071.358 1.726 1.726 0 0 1 .034.3c.006.091.012.17.012.231.006.13 0 .21 0 .21s-.022-.071-.053-.2l-.055-.225c-.022-.085-.051-.186-.089-.289s-.067-.214-.107-.334-.1-.229-.15-.356-.13-.237-.19-.366q-.113-.178-.237-.356a3.139 3.139 0 0 0 -.269-.318c-.049-.053-.1-.1-.146-.152s-.1-.085-.154-.134a3.307 3.307 0 0 0 -.3-.235 3.055 3.055 0 0 0 -.3-.176 3.788 3.788 0 0 0 -.478-.229 1.761 1.761 0 0 0 -.193-.058z" transform="translate(-12.486 -82.344)"/><path d="m33.487 90.884a1.479 1.479 0 0 1 .421.389 2.75 2.75 0 0 1 .154.237 1.651 1.651 0 0 1 .136.285 2.286 2.286 0 0 1 .111.322c.022.113.049.223.069.342s.026.231.024.346a2.24 2.24 0 0 1 -.016.332c-.014.109-.028.214-.042.31s-.044.188-.067.273a2.9 2.9 0 0 1 -.134.391c-.043.087-.065.142-.065.142s0-.055.012-.154.034-.241.042-.4c0-.083.012-.178.018-.271s0-.2.006-.3-.01-.21-.01-.314-.02-.216-.028-.324-.036-.208-.051-.316c-.036-.1-.049-.206-.085-.3a2.177 2.177 0 0 0 -.1-.279 2.564 2.564 0 0 0 -.1-.243 2.914 2.914 0 0 0 -.295-.468z" transform="translate(-13.057 -79.27)"/><path d="m35.134 90.612a.956.956 0 0 1 .156.1 3.1 3.1 0 0 1 .356.362 2.914 2.914 0 0 1 .36.613c.047.123.091.247.136.382.024.134.069.269.083.4a3.287 3.287 0 0 1 .042.413 3.051 3.051 0 0 1 0 .4 3.979 3.979 0 0 1 -.087.7 3.9 3.9 0 0 1 -.13.477c-.034.111-.057.174-.057.174s0-.067.008-.182.028-.289.03-.488c0-.1.006-.208.014-.324s-.006-.233-.008-.354-.018-.257-.022-.388-.032-.255-.049-.386a3.167 3.167 0 0 0 -.073-.382 3.1 3.1 0 0 0 -.1-.362c-.045-.111-.079-.229-.129-.328s-.095-.2-.138-.287-.095-.17-.138-.233-.091-.125-.127-.17c-.082-.09-.127-.137-.127-.137z" transform="translate(-11.447 -79.536)"/><path d="m36.885 90.553a1.975 1.975 0 0 1 .162.142 3.032 3.032 0 0 1 .35.445 3.43 3.43 0 0 1 .19.332 3.648 3.648 0 0 1 .164.391 3.069 3.069 0 0 1 .123.443 4.075 4.075 0 0 1 .067.467c.008.154.006.312.006.471s-.028.306-.045.457-.059.279-.093.413a3.46 3.46 0 0 1 -.117.358 2.184 2.184 0 0 1 -.121.293c-.045.087-.079.162-.113.223-.059.117-.1.184-.1.184s.016-.073.053-.208c.018-.063.038-.136.061-.231a2.8 2.8 0 0 0 .071-.3c.02-.113.051-.227.073-.362s.03-.259.053-.4c.006-.138.014-.289.02-.435s0-.291-.014-.443-.024-.3-.057-.437a3.86 3.86 0 0 0 -.093-.421c-.034-.134-.083-.261-.125-.384s-.089-.233-.138-.334a3.484 3.484 0 0 0 -.262-.484 1.87 1.87 0 0 0 -.115-.18z" transform="translate(-9.736 -79.593)"/><path d="m26.209 91.395a2.558 2.558 0 0 1 .237-.55c.045-.081.095-.162.152-.251s.117-.18.194-.265a1.87 1.87 0 0 1 .241-.261 2.265 2.265 0 0 1 .273-.241 2.871 2.871 0 0 1 .31-.2 2.267 2.267 0 0 1 .332-.142 1.547 1.547 0 0 1 .328-.079 1.429 1.429 0 0 1 .3-.012c.093.006.178.018.249.028s.134.044.186.059c.1.03.156.051.156.051s-.063 0-.164 0a1.765 1.765 0 0 0 -.186-.006c-.069.006-.148.016-.237.026a1.928 1.928 0 0 0 -.267.053 1.423 1.423 0 0 0 -.285.1 2.6 2.6 0 0 0 -.289.142c-.089.063-.188.123-.275.188s-.184.14-.261.219a3.332 3.332 0 0 0 -.239.233c-.15.154-.281.312-.393.445-.22.268-.362.463-.362.463z" transform="translate(-20.169 -80.734)"/><path d="m25.444 90.463s.01-.073.038-.2a5.152 5.152 0 0 1 .158-.506 3.885 3.885 0 0 1 .332-.67 2.694 2.694 0 0 1 .239-.352c.083-.117.192-.217.289-.332.113-.1.221-.206.34-.291a2.306 2.306 0 0 1 .374-.216 1.506 1.506 0 0 1 .378-.146 1.425 1.425 0 0 1 .354-.063c.111-.008.21-.014.3-.014l.227.026c.127.018.2.034.2.034s-.075.012-.2.022l-.219.018c-.087.018-.182.04-.281.061a2.218 2.218 0 0 0 -.32.1 2.541 2.541 0 0 0 -.328.164 2.714 2.714 0 0 0 -.332.223c-.107.079-.206.174-.306.265s-.2.2-.277.308a3.215 3.215 0 0 0 -.247.32 6.942 6.942 0 0 0 -.384.607c-.1.184-.2.342-.247.453z" transform="translate(-20.916 -82.404)"/><path d="m27.726 89.957s.063.034.176.079.281.107.478.174c.1.03.208.063.322.093s.237.053.362.081.257.038.393.055a2.482 2.482 0 0 0 .4.01h.2c.069 0 .132-.014.2-.024a2.867 2.867 0 0 0 .38-.073 2.444 2.444 0 0 0 .363-.113 1.722 1.722 0 0 0 .3-.132c.089-.051.182-.079.255-.127s.134-.091.186-.119l.166-.1s-.045.053-.138.142c-.043.045-.095.1-.158.16a1.693 1.693 0 0 1 -.235.176c-.043.034-.089.067-.138.1s-.107.051-.162.085a1.639 1.639 0 0 1 -.362.15 2.076 2.076 0 0 1 -.413.1c-.073.014-.142.02-.217.032l-.219.008c-.15.008-.293-.02-.437-.024a4.165 4.165 0 0 1 -.409-.083 3.518 3.518 0 0 1 -.7-.261 2.687 2.687 0 0 1 -.593-.389z" transform="translate(-18.686 -80.371)"/><path d="m27.891 87.958.16.117a3.894 3.894 0 0 0 .431.265c.093.053.2.1.3.154s.227.091.344.136a2.817 2.817 0 0 0 .38.111c.065.014.13.034.2.047l.2.028a3.512 3.512 0 0 0 .405.026c.134 0 .263-.01.4-.014s.249-.036.366-.053a3.262 3.262 0 0 0 .323-.075c.1-.028.2-.044.279-.075s.15-.053.21-.071a1.817 1.817 0 0 1 .186-.063s-.055.034-.166.107c-.049.032-.119.071-.19.119a4.013 4.013 0 0 1 -.6.255c-.123.024-.251.071-.384.089s-.279.044-.427.044a4.05 4.05 0 0 1 -.437-.026l-.217-.032c-.073-.014-.144-.04-.214-.059a2.09 2.09 0 0 1 -.4-.138 3.013 3.013 0 0 1 -.641-.382 2.644 2.644 0 0 1 -.384-.35 1.534 1.534 0 0 1 -.124-.16z" transform="translate(-18.525 -82.129)"/><path d="m28.493 85.01.182.1c.113.057.281.134.482.227.1.04.208.095.33.134s.237.089.37.134.265.079.4.121.283.057.419.091c.144.014.285.045.427.045a2.652 2.652 0 0 0 .415 0 1.883 1.883 0 0 0 .384-.036c.123-.028.239-.038.342-.071s.2-.059.289-.087.152-.067.214-.093c.117-.049.19-.077.19-.077s-.059.049-.166.127c-.053.036-.121.079-.2.134s-.174.087-.279.132a1.571 1.571 0 0 1 -.352.123 1.6 1.6 0 0 1 -.409.079 2.764 2.764 0 0 1 -.445.018 3.218 3.218 0 0 1 -.453-.044 3.949 3.949 0 0 1 -.864-.251 4 4 0 0 1 -.37-.17c-.119-.057-.219-.127-.318-.184a4.255 4.255 0 0 1 -.441-.318 1.189 1.189 0 0 1 -.147-.134z" transform="translate(-17.937 -85.01)"/></g><path d="m39.3 89.257c-3.557.073-6.989 2.327-6.918 4.551 2.135-2.73 5.959-3.335 7.984-3.717 1.354-.253 1.556-.931.716-1.592-.182.428-.692.74-1.782.758z" fill="#e5880c" transform="translate(19.439 56.901)"/><path d="m54.9 91.569c-.028.354-.306.615-1.024.65-2.6.134-9.313-1.234-13.969.821a33.752 33.752 0 0 1 -11.363 3.013c-2.363.121-5.257 4.255-5.989 2.412-.455 1.69.565 2.118 2.044.874a10.618 10.618 0 0 1 7.272-2.021c2.185.057 3.28-.708 7-2.408s7.927-1.584 12.029-.817c3.556.665 4.807-.857 4-2.524z" fill="#e5880c" transform="translate(9.729 59.9)"/><path d="m54.392 98.7c-1.637-1.91-7.705-1.42-12.3 0 2.135-2.73 5.959-3.335 7.984-3.717s1.475-1.7-1.257-2.511c-4.7-1.479-6.89-.277-11.646 2.95.109-5.139 2.677-10.991 2.677-10.991-1.038-1.313-3.114-1.04-4.48-.49a27.471 27.471 0 0 0 -1.8 6.28h.014s1.074-4.937 2.976-4.68-.032 3.834-.524 7.65c-.536 4.111-2.839 5.613-3.154 2.624-.14 2.2-.631 2.776-2.325 3.543a16.28 16.28 0 0 0 -2.361 1.012 4.547 4.547 0 0 1 2.754-.591c1.157.435.142 1.5-2.7 2.895-2.594 1.275-4.745 3.988-5.182 2.418-.077.148-.152.3-.217.447-1.036 2.351.055 3.116 1.752 1.692a10.618 10.618 0 0 1 7.272-2.021c2.185.057 3.28-.708 7-2.408s7.927-1.584 12.029-.817 5.129-1.366 3.488-3.285z" fill="#fba31d" opacity=".5" transform="translate(9.728 52.004)"/><path d="m28.578 92.019a16.424 16.424 0 0 0 -5.478 4.415c-.572.755 1.369-3.49 5.478-4.415z" fill="#fba31d" transform="translate(10.278 60.339)"/><path d="m46.094 86.624a61.735 61.735 0 0 0 4.725 11.2c2.436 4.215 2.1 4.285-.2 5.93s-4.743 5.269-3.759 6.521c.86 1.119 3.691-2.369 7.579-2.638s4.348-.591 5.8-1.119 3.029.267 5.862.528a103.648 103.648 0 0 0 13.439-.194c3.1-.334 4.217-1.119 3.363-2.574s-1.321-1.447-5.273-1.511-10.21-.929-10.21-.929 3.426-2.171 5.663-1.839 5.669.987 5.934-.2-1.582-2.636-6.523-4.221-6.193 0-9.552 1.718c1.843-2.642 3.292-4.287 2.434-5.21s-3.16.6-5.86 2.9a22.222 22.222 0 0 1 -4.216 3.031s-2.507-8.561-3.1-12.185c-1.25-.263-4.376-1.371-6.106.792z" fill="#fba31d" transform="translate(32.84 53.787)"/><g fill="#ce7b0d" opacity=".5" transform="translate(79.511 141.826)"><path d="m47.472 95.553a1.552 1.552 0 0 1 .194-.032 2.215 2.215 0 0 1 .526.014 2 2 0 0 1 .344.081c.061.018.123.038.186.059a1.783 1.783 0 0 1 .186.091 2.711 2.711 0 0 1 .364.212c.113.1.231.182.336.289a2.817 2.817 0 0 1 .289.326 2.909 2.909 0 0 1 .233.35c.065.117.13.233.182.344s.093.225.132.328a2.091 2.091 0 0 1 .087.279c.02.087.038.162.051.219.032.123.044.188.044.188s-.036-.057-.091-.17-.125-.279-.229-.459c-.055-.087-.111-.186-.166-.295s-.136-.2-.206-.308a3.446 3.446 0 0 0 -.237-.314 2.635 2.635 0 0 0 -.273-.3 3.3 3.3 0 0 0 -.3-.273 3.411 3.411 0 0 0 -.324-.216c-.053-.03-.109-.063-.16-.1a1.784 1.784 0 0 1 -.166-.075c-.107-.043-.214-.079-.31-.111s-.19-.053-.273-.077-.158-.028-.219-.036c-.129-.01-.2-.014-.2-.014z" transform="translate(-45.325 -78.073)"/><path d="m48.787 94.363a1.486 1.486 0 0 1 .273.014 4.628 4.628 0 0 1 .716.138 4.561 4.561 0 0 1 .963.393 2.213 2.213 0 0 1 .247.154 1.747 1.747 0 0 1 .249.172 3.571 3.571 0 0 1 .449.419 1.872 1.872 0 0 1 .2.231c.059.085.117.172.172.255l.085.127c.024.044.044.089.065.134.04.091.083.178.121.265a3.69 3.69 0 0 1 .168.528 2.817 2.817 0 0 1 .075.482 2.229 2.229 0 0 1 .024.415l-.018.316c-.01.176-.022.279-.022.279s-.012-.1-.028-.279c-.012-.083-.02-.192-.032-.308a3.353 3.353 0 0 0 -.073-.4 3.208 3.208 0 0 0 -.119-.459c-.03-.077-.057-.158-.089-.237a1.265 1.265 0 0 0 -.1-.247 3.006 3.006 0 0 0 -.271-.478c-.053-.083-.109-.158-.164-.239s-.129-.138-.19-.216a3.26 3.26 0 0 0 -.415-.393c-.146-.117-.3-.223-.453-.324s-.3-.186-.461-.255a4.07 4.07 0 0 0 -.433-.194 5.534 5.534 0 0 0 -.676-.231c-.164-.043-.263-.062-.263-.062z" transform="translate(-44.04 -79.198)"/><path d="m48.783 92.68s.065.014.18.028a4.31 4.31 0 0 0 .463.026 4.381 4.381 0 0 0 .649-.026 2.812 2.812 0 0 0 .362-.057c.123-.014.245-.057.366-.081s.239-.077.362-.113.227-.091.338-.13c.107-.055.21-.1.308-.15s.188-.1.275-.15.162-.085.227-.125.123-.087.172-.119c.1-.057.152-.093.152-.093a1.623 1.623 0 0 1 -.123.134 2.62 2.62 0 0 1 -.346.326 2.91 2.91 0 0 1 -.257.2c-.1.057-.2.125-.308.182s-.229.119-.354.166a3.823 3.823 0 0 1 -.378.121c-.132.032-.259.067-.391.087a2.352 2.352 0 0 1 -.386.03 3.16 3.16 0 0 1 -.364 0 2.8 2.8 0 0 1 -.316-.049 2.251 2.251 0 0 1 -.463-.129 1.626 1.626 0 0 1 -.168-.078z" transform="translate(-44.044 -81.809)"/><path d="m47.867 91.046s.079.01.216.018.336.026.571.03.5-.01.793-.034c.142-.018.291-.028.443-.055a3.967 3.967 0 0 0 .451-.075c.152-.026.3-.071.445-.107s.289-.089.429-.134.263-.1.39-.148.237-.1.342-.15.206-.1.289-.14.154-.089.216-.123c.123-.067.192-.1.192-.1s-.059.059-.164.146c-.051.047-.117.1-.186.16a2.921 2.921 0 0 1 -.271.188 2.22 2.22 0 0 1 -.334.2 4.209 4.209 0 0 1 -.389.2 4.384 4.384 0 0 1 -.437.154c-.152.045-.308.091-.467.123s-.316.059-.473.075a4.113 4.113 0 0 1 -.465.026 4.951 4.951 0 0 1 -.817-.045 4.782 4.782 0 0 1 -.565-.125 1.54 1.54 0 0 1 -.209-.084z" transform="translate(-44.939 -83.436)"/><path d="m47.05 89.019s.091.014.243.044.378.063.641.1.571.071.9.091c.166.02.338.02.51.024s.348 0 .526-.01.346-.028.518-.042c.168-.036.338-.053.5-.089s.312-.073.453-.13.277-.1.393-.158.223-.111.322-.164a2.5 2.5 0 0 0 .227-.152c.129-.095.2-.142.2-.142s-.057.067-.17.176a2.532 2.532 0 0 1 -.206.2c-.089.067-.192.14-.3.219a3.885 3.885 0 0 1 -.4.206 3.548 3.548 0 0 1 -.465.17c-.166.049-.34.081-.518.117-.178.02-.36.045-.544.053s-.364.016-.542 0a4.127 4.127 0 0 1 -.526-.047c-.168-.01-.328-.049-.482-.073s-.3-.067-.429-.1c-.261-.071-.475-.148-.623-.2s-.228-.093-.228-.093z" transform="translate(-45.737 -85.031)"/><path d="m46.386 87.186s.091.038.255.095.4.123.69.192c.148.036.3.075.467.1s.342.057.524.083.372.032.563.049c.19 0 .386.018.577 0a5.09 5.09 0 0 0 .579-.053c.091-.018.186-.03.279-.047s.18-.047.269-.069.176-.04.261-.067.162-.061.239-.091.154-.057.227-.085.142-.065.206-.1c.129-.071.257-.121.362-.186s.188-.123.261-.166l.231-.15a2.6 2.6 0 0 1 -.2.184c-.065.063-.144.132-.237.217a3.527 3.527 0 0 1 -.342.231c-.065.042-.129.087-.2.13s-.152.067-.229.1-.162.077-.249.111-.176.059-.263.091-.186.059-.279.085l-.295.053a4.4 4.4 0 0 1 -.605.075c-.206.012-.405-.006-.611-.006-.2-.028-.393-.042-.581-.077a6.953 6.953 0 0 1 -1-.267 4.7 4.7 0 0 1 -.899-.432z" transform="translate(-46.386 -86.692)"/><path d="m49.373 93.9s.059.012.17.03.263.034.449.051.4.024.629.024c.117 0 .235-.014.356-.018a3.1 3.1 0 0 0 .354-.049 2.526 2.526 0 0 0 .352-.077 2.352 2.352 0 0 0 .334-.107 1.632 1.632 0 0 0 .3-.127 1.72 1.72 0 0 0 .263-.134c.077-.049.154-.081.219-.125a1.455 1.455 0 0 1 .16-.113c.089-.067.146-.1.146-.1s-.04.055-.113.14c-.036.04-.081.089-.132.152a2.568 2.568 0 0 1 -.194.176c-.038.032-.077.061-.121.1l-.134.087a2.361 2.361 0 0 1 -.306.166 2.025 2.025 0 0 1 -.352.134 2.506 2.506 0 0 1 -.378.093 3.225 3.225 0 0 1 -.386.04 2.636 2.636 0 0 1 -.376 0 3.429 3.429 0 0 1 -.649-.1 2.529 2.529 0 0 1 -.591-.243z" transform="translate(-43.467 -80.382)"/><path d="m50.9 93.463a2.689 2.689 0 0 1 .3.083c.1.032.2.079.334.127s.269.115.415.194.308.17.475.275a4.964 4.964 0 0 1 .5.352 5.619 5.619 0 0 1 .488.441l.235.241c.077.085.146.18.216.265a4.68 4.68 0 0 1 .386.565 5.1 5.1 0 0 1 .3.583 4.527 4.527 0 0 1 .206.577 5.571 5.571 0 0 1 .2.991c.01.14.012.257.02.356.008.2.012.308.012.308s-.022-.113-.063-.3c-.02-.1-.04-.214-.063-.346s-.081-.275-.121-.437a3.412 3.412 0 0 0 -.162-.508c-.04-.083-.077-.174-.115-.269-.018-.044-.036-.089-.055-.138l-.071-.132a5.382 5.382 0 0 0 -.3-.552 4.433 4.433 0 0 0 -.376-.536c-.065-.079-.129-.174-.2-.255s-.15-.158-.223-.237c-.144-.16-.31-.3-.455-.435-.162-.128-.31-.269-.467-.372a4.206 4.206 0 0 0 -.435-.306c-.283-.178-.522-.316-.7-.4a3.054 3.054 0 0 0 -.281-.135z" transform="translate(-41.971 -80.076)"/><path d="m53.349 92.019a2.723 2.723 0 0 1 .433.115c.138.047.3.109.486.19.089.038.188.083.293.127s.2.113.31.176c.221.117.435.283.672.439a6.133 6.133 0 0 1 .67.593c.1.115.225.223.324.35s.2.259.3.386a2.93 2.93 0 0 1 .273.419l.251.427c.131.312.277.611.38.919.047.152.093.31.136.469a3.429 3.429 0 0 1 .115.457c.047.308.091.605.134.886.01.285.018.55.028.795 0 .127.01.249.012.36s-.02.217-.028.316c-.016.2-.034.374-.045.516-.03.289-.047.449-.047.449v-.453-.518c0-.093 0-.2 0-.31s-.018-.229-.028-.352c-.028-.239-.045-.5-.075-.779-.051-.277-.111-.56-.17-.862s-.174-.585-.263-.892-.249-.581-.376-.88l-.239-.415a2.784 2.784 0 0 0 -.257-.4c-.093-.127-.188-.251-.275-.378s-.208-.233-.306-.34a7.2 7.2 0 0 0 -.625-.609 7.535 7.535 0 0 0 -.631-.465c-.2-.134-.393-.245-.567-.344s-.328-.164-.461-.225-.231-.1-.3-.125-.124-.042-.124-.042z" transform="translate(-39.582 -81.487)"/><path d="m52.149 90.821a1.934 1.934 0 0 1 .585.075 1.746 1.746 0 0 1 .275.087 1.651 1.651 0 0 1 .3.123c.1.057.206.107.3.174a2.288 2.288 0 0 1 .291.219 3.4 3.4 0 0 1 .257.249 2.911 2.911 0 0 1 .214.279 2.234 2.234 0 0 1 .164.279 1.861 1.861 0 0 1 .119.269 2.251 2.251 0 0 1 .069.229c.018.071.028.13.038.18.02.1.026.16.026.16s-.026-.053-.075-.144c-.022-.038-.049-.1-.081-.16s-.077-.127-.117-.208a2.3 2.3 0 0 0 -.146-.227c-.059-.077-.113-.166-.182-.243s-.136-.16-.214-.237a1.725 1.725 0 0 0 -.243-.223 3.677 3.677 0 0 0 -.532-.391c-.091-.047-.176-.111-.263-.15a2.326 2.326 0 0 0 -.245-.121 3.975 3.975 0 0 0 -.54-.219z" transform="translate(-40.754 -82.659)"/><path d="m53.3 89.836a1.051 1.051 0 0 1 .2-.045c.061-.012.138-.016.231-.024a1.2 1.2 0 0 1 .3 0 1.75 1.75 0 0 1 .362.047 1.556 1.556 0 0 1 .388.127c.067.03.134.061.2.095s.125.083.19.125a2.158 2.158 0 0 1 .338.308 2.87 2.87 0 0 1 .263.378 3.025 3.025 0 0 1 .174.4c.036.134.075.263.1.393s.034.247.043.356a1.277 1.277 0 0 1 0 .3c0 .093-.008.17-.008.233-.008.13-.016.206-.016.206s-.014-.075-.036-.2-.036-.31-.093-.516c-.024-.1-.055-.216-.081-.332s-.087-.233-.127-.358-.127-.233-.18-.36a2.587 2.587 0 0 0 -.235-.332 2.147 2.147 0 0 0 -.3-.273 1.439 1.439 0 0 0 -.162-.121 1.558 1.558 0 0 0 -.17-.093 2.409 2.409 0 0 0 -.342-.15c-.117-.036-.223-.065-.328-.089a2.727 2.727 0 0 0 -.289-.051c-.091-.006-.16-.022-.227-.022-.122-.002-.195-.002-.195-.002z" transform="translate(-39.626 -83.697)"/><path d="m54.66 88.963a.724.724 0 0 1 .125-.045 1.264 1.264 0 0 1 .368-.01 1.179 1.179 0 0 1 .241.063 1.2 1.2 0 0 1 .251.127 1.232 1.232 0 0 1 .229.19l.109.111.089.121a2.152 2.152 0 0 1 .158.267 1.238 1.238 0 0 1 .109.261 2.506 2.506 0 0 1 .129.494 1.438 1.438 0 0 1 .022.2c0 .057.006.107.012.152v.134l-.051-.127c-.014-.036-.036-.083-.055-.136s-.044-.117-.071-.184-.063-.134-.091-.212-.069-.15-.107-.229a1.936 1.936 0 0 0 -.127-.24 1.238 1.238 0 0 0 -.146-.227l-.075-.113-.089-.1a1.172 1.172 0 0 0 -.184-.174 1.225 1.225 0 0 0 -.2-.138 1.042 1.042 0 0 0 -.2-.095 1.377 1.377 0 0 0 -.446-.09z" transform="translate(-38.301 -84.536)"/><path d="m54.858 91.223a1.522 1.522 0 0 1 .3 0c.091 0 .208.022.34.034.132.028.279.042.437.087.081.018.162.042.251.063l.259.089a4.724 4.724 0 0 1 .552.221c.089.042.184.095.279.142a2.086 2.086 0 0 1 .273.17c.087.057.18.121.273.184s.166.144.253.21a3.6 3.6 0 0 1 .465.471l.107.119.1.134c.059.083.121.174.182.259.119.166.188.362.281.52a3.142 3.142 0 0 1 .194.494 2.2 2.2 0 0 1 .13.427c.026.129.047.247.065.338.034.186.051.293.051.293s-.036-.1-.1-.283c-.032-.091-.065-.2-.109-.322s-.115-.251-.174-.4a2.56 2.56 0 0 0 -.229-.461c-.047-.075-.1-.156-.146-.241a2.159 2.159 0 0 0 -.16-.245c-.125-.146-.231-.324-.378-.471a4.685 4.685 0 0 0 -.447-.439c-.081-.067-.158-.138-.239-.2s-.17-.121-.255-.18c-.164-.13-.352-.214-.516-.322-.18-.075-.346-.184-.516-.247-.083-.036-.166-.065-.245-.1s-.162-.053-.235-.081c-.15-.057-.293-.091-.415-.134-.127-.026-.237-.061-.332-.079-.187-.037-.296-.05-.296-.05z" transform="translate(-38.107 -82.27)"/><path d="m57.925 90.174a2.353 2.353 0 0 1 .253.1 6.938 6.938 0 0 1 .639.332c.123.085.267.166.4.273a4.9 4.9 0 0 1 .419.342 5.024 5.024 0 0 1 .409.411c.125.158.261.3.37.475a4.036 4.036 0 0 1 .293.526c.043.093.083.184.125.269s.057.184.087.277.061.178.077.269.026.18.04.267.026.17.038.245 0 .162 0 .237c0 .154 0 .289-.014.407s-.038.223-.055.31c-.03.174-.047.263-.047.263s-.006-.093 0-.267c0-.087 0-.188.006-.306s-.03-.253-.042-.4c-.008-.069-.01-.144-.022-.223s-.036-.15-.059-.233-.034-.162-.055-.247-.055-.164-.087-.249-.059-.166-.089-.253-.085-.168-.129-.253a3.619 3.619 0 0 0 -.287-.488 4.992 4.992 0 0 0 -.338-.459c-.134-.132-.245-.287-.38-.411s-.255-.249-.382-.358-.251-.2-.364-.3c-.233-.176-.431-.324-.577-.413z" transform="translate(-35.11 -83.289)"/><path d="m60.79 90.975a1.194 1.194 0 0 1 .17.081 2.1 2.1 0 0 1 .4.291 3.088 3.088 0 0 1 .229.245 2.473 2.473 0 0 1 .208.314 2.439 2.439 0 0 1 .166.374 2.857 2.857 0 0 1 .1.4 3.459 3.459 0 0 1 .036.419 2.729 2.729 0 0 1 -.026.4c-.018.125-.042.251-.067.368s-.067.214-.1.314a1.339 1.339 0 0 1 -.1.257c-.038.075-.067.136-.095.19-.051.1-.087.164-.087.164s.01-.065.038-.182a4.593 4.593 0 0 0 .1-.471c.016-.1.036-.208.055-.316s.018-.227.03-.348 0-.247 0-.372-.028-.257-.038-.382a2.824 2.824 0 0 0 -.091-.366 3.311 3.311 0 0 0 -.129-.348c-.047-.107-.111-.2-.162-.3s-.119-.186-.178-.255a3.2 3.2 0 0 0 -.322-.358 1.814 1.814 0 0 0 -.137-.119z" transform="translate(-32.311 -82.507)"/><path d="m57.324 93.751a1.11 1.11 0 0 1 .192.152 3.092 3.092 0 0 1 .433.475 4.044 4.044 0 0 1 .249.358 3.6 3.6 0 0 1 .217.437 2.507 2.507 0 0 1 .17.494 3.176 3.176 0 0 1 .111.522 5 5 0 0 1 .034.538c0 .18-.028.354-.042.522-.03.166-.065.326-.1.477s-.095.285-.134.411a2.353 2.353 0 0 1 -.142.336c-.049.093-.091.178-.132.245a2.195 2.195 0 0 1 -.113.212l.069-.227c.026-.077.051-.162.085-.267s.057-.219.087-.346.069-.257.087-.407.04-.3.061-.461c0-.156.012-.322.014-.494-.014-.164-.01-.336-.038-.5a3.435 3.435 0 0 0 -.093-.5c-.024-.081-.038-.162-.061-.243s-.055-.15-.079-.229c-.053-.152-.119-.291-.18-.429s-.125-.257-.2-.37a4.451 4.451 0 0 0 -.346-.518c-.088-.121-.149-.188-.149-.188z" transform="translate(-35.698 -79.794)"/><path d="m59.435 93.95s.069.042.182.127a3.538 3.538 0 0 1 .421.4c.081.095.156.2.237.314a2.934 2.934 0 0 1 .219.38 3.767 3.767 0 0 1 .186.437 3.214 3.214 0 0 1 .129.465c.032.166.047.328.067.484s.008.318.008.473c-.018.152-.036.3-.049.439s-.057.263-.081.38a1.854 1.854 0 0 1 -.095.314c-.034.095-.061.17-.087.237-.051.13-.083.2-.083.2s.008-.077.032-.217c.014-.065.026-.152.043-.245a2.743 2.743 0 0 0 .04-.318c.008-.121.03-.247.036-.378s.008-.273.01-.415-.022-.3-.026-.451c-.02-.148-.042-.3-.073-.453a3.017 3.017 0 0 0 -.115-.441c-.02-.069-.044-.14-.063-.212s-.059-.138-.085-.208c-.051-.129-.121-.255-.18-.374s-.125-.227-.19-.32a4.2 4.2 0 0 0 -.338-.463c-.09-.098-.145-.155-.145-.155z" transform="translate(-33.635 -79.6)"/><path d="m61.389 94.15s.065.036.168.107a2.759 2.759 0 0 1 .384.37 2.793 2.793 0 0 1 .21.285 2.646 2.646 0 0 1 .19.358 2.815 2.815 0 0 1 .148.4c.04.138.061.291.093.437.012.142.03.295.03.439s-.008.293-.028.425-.042.271-.063.39-.071.239-.1.34a1.543 1.543 0 0 1 -.1.281c-.036.081-.065.152-.093.206-.053.117-.085.184-.085.184s.012-.075.038-.2.075-.3.1-.508c.016-.1.034-.216.051-.336s.016-.251.03-.378-.006-.269 0-.4-.024-.273-.032-.411c-.028-.132-.045-.269-.075-.4a3.927 3.927 0 0 0 -.123-.382 3.428 3.428 0 0 0 -.146-.346 3.174 3.174 0 0 0 -.162-.3 3.731 3.731 0 0 0 -.295-.417c-.087-.094-.14-.144-.14-.144z" transform="translate(-31.725 -79.404)"/><path d="m63.5 94.173a.959.959 0 0 1 .14.107 2.628 2.628 0 0 1 .318.338 2.732 2.732 0 0 1 .356.56c.047.111.107.223.144.342s.075.249.109.376.034.259.053.386 0 .253.008.376a3.476 3.476 0 0 1 -.038.342 2.15 2.15 0 0 1 -.071.308 1.429 1.429 0 0 1 -.077.249c-.03.071-.057.136-.079.19a1.516 1.516 0 0 1 -.075.154s.01-.067.028-.174c.012-.055.02-.117.032-.192s.014-.162.028-.257.022-.188.018-.295.006-.217 0-.332-.014-.235-.03-.35a3 3 0 0 0 -.059-.354 4 4 0 0 0 -.2-.68 5.056 5.056 0 0 0 -.271-.573 3.854 3.854 0 0 0 -.231-.384c-.064-.086-.103-.137-.103-.137z" transform="translate(-29.663 -79.382)"/></g><path d="m56.982 91.4a2.977 2.977 0 0 1 -.593.6 4.383 4.383 0 0 1 -.732.482c-.142.075-.3.134-.455.2a3.908 3.908 0 0 1 -.488.156l-.471.121c-.158.042-.316.071-.467.1-.077.014-.148.034-.221.045s-.136.042-.2.063c-.131.036-.253.067-.376.095-.235.061-.425.138-.569.176a1.775 1.775 0 0 0 -.219.067.322.322 0 0 1 .042-.045c.032-.022.069-.073.127-.117s.129-.1.214-.162a1.974 1.974 0 0 1 .293-.192c.107-.063.231-.13.366-.2.065-.03.134-.067.208-.1s.144-.051.212-.077c.148-.051.3-.1.455-.15.081-.026.154-.047.237-.071l.243-.067c.148-.043.3-.071.447-.123s.3-.091.435-.15.273-.1.4-.152.249-.1.362-.156c.223-.1.411-.182.54-.247z" fill="#a55d07" transform="translate(38.8 59.73)"/><path d="m50.683 91.573a3.6 3.6 0 0 1 .34.467 6.287 6.287 0 0 1 .54 1.107 6.37 6.37 0 0 1 .334 1.19 3.174 3.174 0 0 1 .059.577 3.339 3.339 0 0 1 -.34-.471 6.351 6.351 0 0 1 -.544-1.107 6.9 6.9 0 0 1 -.334-1.186 3.133 3.133 0 0 1 -.055-.577z" fill="#a55d07" transform="translate(37.324 59.903)"/><path d="m66.56 92.686c-3.741-.9-7.895-1.165-9.68 2.5 0 0 3.426-2.171 5.663-1.839s5.669.987 5.934-.2a1.08 1.08 0 0 0 -.018-.508c-.273.231-.843.298-1.899.047z" fill="#e5880c" transform="translate(43.38 60.435)"/><path d="m52.719 95.5a10.937 10.937 0 0 0 3.774-1.481c1.833-2.608 3.262-4.243 2.408-5.162a.823.823 0 0 0 -.39-.235c.561.817-2.237 4.172-5.792 6.878z" fill="#e5880c" transform="translate(39.314 57.02)"/><path d="m63.087 95.38c-3.9-1.054-5.609 1.214-8.943 1.463s-6.179 3.417-7.157 2.847c-.273-.16-.34-.552-.3-1.038a2.129 2.129 0 0 0 -.095 2.056c.86 1.119 3.691-2.369 7.579-2.638s4.348-.591 5.8-1.119 3.029.267 5.862.528a103.648 103.648 0 0 0 13.439-.194c2.772-.3 3.95-.961 3.565-2.133-2.458 1.834-16.464 1.114-19.75.228z" fill="#e5880c" transform="translate(33.11 63.353)"/><path d="m82.9 104.277c-.858-1.447-1.321-1.447-5.273-1.511s-10.21-.929-10.21-.929 3.426-2.171 5.663-1.839 5.669.987 5.934-.2-1.582-2.636-6.523-4.221-6.193 0-9.552 1.718c1.843-2.642 3.292-4.287 2.434-5.21s-3.16.6-5.86 2.9a22.222 22.222 0 0 1 -4.213 3.032s-2.507-8.561-3.1-12.185c-1.252-.263-4.377-1.37-6.108.793a65.648 65.648 0 0 0 2.742 7.262c-.4-1.847-1.1-5.947.536-6.266 2.114-.4 2.681 4.72 4.065 9.109 1.319 4.184.275 5.56-1.234 3.715.728 1.742.1 2.106-1.582 3.308a9.619 9.619 0 0 0 -1.121.943 5.366 5.366 0 0 1 3.162-1.536c1.584.069-.131 1.777-1.647 2.766-1.337.872-3.958 2.665-3.782 1.712-.577 1.085-.8 2.088-.37 2.636.86 1.119 3.691-2.369 7.579-2.638s4.348-.591 5.8-1.119 3.029.267 5.862.528a103.648 103.648 0 0 0 13.439-.194c3.099-.334 4.216-1.119 3.359-2.574z" fill="#fba31d" opacity=".5" transform="translate(32.84 53.787)"/><path d="m50.267 94.773a25.02 25.02 0 0 0 -3.095 3.227c-1.057 1.453.72-2.371 3.095-3.227z" fill="#fba31d" transform="translate(33.589 63.03)"/><path d="m120.724 79.594c2.616-9.21-.941-13.811-.941-13.811a16.672 16.672 0 0 1 1.673 1.463c.107-6.489-4.5-9-4.5-9a18.512 18.512 0 0 1 2.721 1.568c-1.567-8.474-11.441-11.914-11.441-11.914s-40.184-6.151-49.671-4.965a24.99 24.99 0 0 0 -15.155 8.3c.991 7.242 1.289 15.837 4.4 24.729-4-6.517-4.451-6.671-5.19-5.928s-2.076 6.58.482 9.876a11.5 11.5 0 0 0 -3.294-.643s1.1 2.651 2.748 3.656c-4.484.19-6.22 1.835-6.311 2.473s3.383 4.024 9.146 4.115c-1.649 1.74-2.29 2.469-1.738 2.744s4.389-.913 4.389-.913-.732 5.4.366 5.576 3.567-3.842 3.567-3.842-.643 12.389-2.742 8.524c-.969 6.772-3.549 8.067-4.682 8.067s-2.9-3.391-2.9-8.393c-1.129 5.325-3.873 5.813-5.329 2.1-.8 5.166-4.354 7.424-4.354 4.2-1.94 2.9-9.844 2.418-7.747-1.455-.388.192-.832.407-1.313.637-3.233 3.094-2.938 4.816-2.938 4.816s1.744-1.493 2.863-1.43c-2.551 3.919-.314 8.581-.314 8.581a33.328 33.328 0 0 1 3.794-3.61c-.061 1.495 2.238 6.655 3.547 6.655s4.128-4.559 4.128-4.559a28.481 28.481 0 0 1 2.746 2.216c.534.6-1.677 3.43-1.677 3.43s2.744-.767 2.974-.534-.763 2.052-.763 2.052 2.972-1.139 3.735-.455 2.29 2.137 2.29 2.137.457-2.667 1.6-2.369c8.16 5.493 22.645 3.278 22.645 3.278s.686 2.444 1.066 2.371 1.6-1.451 1.6-1.451a19.384 19.384 0 0 0 2.286 1.524c.461.154.838-.838 1.068-2.056 5.186.991 6.711 0 6.711 0l-1.022-1.807c37.42-9.661 39.9-28.369 39.172-40.4a11.286 11.286 0 0 0 .941-7.853 3.84 3.84 0 0 1 1.364 2.3z" fill="#eb8c3c" transform="translate(7.308 12.227)"/><path d="m45.449 115.328c0 3.227 3.549.969 4.354-4.2 1.455 3.713 4.2 3.225 5.329-2.1 0 5 1.776 8.393 2.9 8.393s3.713-1.3 4.682-8.067c2.1 3.865 2.742-8.524 2.742-8.524s-2.47 4.026-3.567 3.842-.366-5.576-.366-5.576-3.84 1.186-4.389.913.089-1 1.738-2.744c-5.763-.091-9.239-3.476-9.146-4.115s1.827-2.284 6.311-2.473c-1.647-1-2.748-3.656-2.748-3.656a11.5 11.5 0 0 1 3.294.643c-2.558-3.3-1.224-9.135-.482-9.876s1.186-.589 5.19 5.928c-3.112-8.891-3.411-17.486-4.4-24.729 0 0-1.354-9.405-1.437-14.054s.666-7.887-2.572-9.3-6.394-.911-7.642 1.414-.828 9.631-.828 9.631-1.659-7.389-1.991-9.552-5.979-.991-7.64.419.832 9.631.832 9.631-2.908-9.214-5.9-10.3-8.472.995-10.878 4.561 2.9 12.458 2.9 12.458-3.652-5.232-6.141-8.967-6.894.828-7.725 4.49 4.4 11.12 4.4 11.12a19.821 19.821 0 0 1 -3.239-3.822c-.747-1.493-1.244-.83-2.408 3.077s-.415 7.221 5.811 13.285 18.779 14.837 18.779 14.837a26.189 26.189 0 0 0 -4.17.5c-.182.247 1.248 3.48 3.488 5.1-1.744.435-4.6 2.553-4.6 3.108s1.738 1.121 5.412 1c-2.553 2.236-4.3 7.9-4.356 8.581s3.173 1.368 5.6.809c-1.121 1.928-1.926 7.592-1.242 7.9s5.287-.625 5.287-.625c-.083.079-.16.15-.235.225.48-.229.925-.445 1.313-.637-2.104 3.87 5.801 4.355 7.74 1.452z" fill="#d36d22" transform="translate(-6.171 4.474)"/><path d="m110.346 97.98c-1.056 5.269-6.588 12.116-6.062 5.532-8.433 8.7-27.4 18.449-42.689 10.538s-7.118-29.25-7.907-28.2-4.215 5.273-4.476 3.689 1.315-5 .261-3.689-2.9 2.373-2.9.789 5.012-3.423-1.315-3.158-3.689-3.163 1.058-3.163c-2.642-1.054-3.165-2.375.789-1.315-3.691-3.691-3.162-8.172-1.054-5.8s5.271 5.008 3.163-.265c-4.668-14.121-4.445-22.451-2.946-27.3a21.8 21.8 0 0 0 -2.855 2.79c.991 7.242 1.289 15.837 4.4 24.729-4-6.517-4.451-6.671-5.19-5.928s-2.076 6.58.482 9.876a11.5 11.5 0 0 0 -3.294-.643s1.1 2.651 2.748 3.656c-4.484.19-6.22 1.835-6.311 2.473s3.383 4.024 9.146 4.115c-1.649 1.74-2.29 2.469-1.738 2.744s4.389-.913 4.389-.913-.732 5.4.366 5.576 3.567-3.842 3.567-3.842-.643 12.389-2.742 8.524c-.969 6.772-3.549 8.067-4.682 8.067s-2.9-3.391-2.9-8.393c-1.129 5.325-3.873 5.813-5.329 2.1-.8 5.166-4.354 7.424-4.354 4.2-1.94 2.9-9.844 2.418-7.747-1.455-.388.192-.832.407-1.313.637-3.233 3.094-2.938 4.816-2.938 4.816s1.744-1.493 2.863-1.43c-2.551 3.919-.314 8.581-.314 8.581a33.328 33.328 0 0 1 3.794-3.61c-.061 1.495 2.238 6.655 3.547 6.655s4.128-4.559 4.128-4.559a28.481 28.481 0 0 1 2.746 2.216c.534.6-1.677 3.43-1.677 3.43s2.744-.767 2.974-.534-.763 2.052-.763 2.052 2.972-1.139 3.735-.455 2.29 2.137 2.29 2.137.457-2.667 1.6-2.369c8.16 5.493 22.645 3.278 22.645 3.278s.686 2.444 1.066 2.371 1.6-1.451 1.6-1.451a19.384 19.384 0 0 0 2.286 1.524c.461.154.838-.838 1.068-2.056 5.186.991 6.711 0 6.711 0l-1.022-1.807c37.42-9.661 39.9-28.369 39.172-40.4-.354 10.191-5.178 19.326-8.076 15.64z" fill="#eb8c3c" opacity=".5" transform="translate(7.309 15.027)"/><g fill="#d36d22"><path d="m88.6 55.544s3.78-1.321 5.538 3.865.085 11.946-.791 10.892c-.091 2.28-2.286 8.346-3.6 8.6-1.934 12.47-9.135 16.256-9.487 16.165s-.7-.263 1.317-2.282c-6.238 5.443-11.8 6.3-13.316 6.3s-1.153-.716.435-2.592c-2.234 1.226-10.586 4.824-13.109 4.969s-2.665-.5.289-2.377c-2.523 1.23-9.579 3.606-10.875 1.586s2.657-7.94 2.657-7.94-3.84 1-4.506.668-.166-2.167 2-6.841c-5.338 1-.666-8.842 6.675-16.017 0 0-5.841 4.34-5.673 2.671 2.333-11.169 14.346-18.011 14.346-18.011s10.443-5.833 8.688-.563c13.659-6.398 20.776-5.823 19.412.907z" transform="translate(29.668 19.427)"/><path d="m53.674 58.717s-.423.5-1.076 1.242c-.32.372-.7.807-1.087 1.273-.2.231-.388.478-.581.732a6.633 6.633 0 0 0 -.532.781 1.262 1.262 0 0 0 -.257.73c.008.057.02.028.016.042l.03.034a.3.3 0 0 0 .119.071 1.178 1.178 0 0 0 .382.077 5.738 5.738 0 0 0 .846-.034c.271-.038.53-.075.769-.115.486-.091.884-.168 1.169-.231s.443-.095.443-.095-.146.075-.413.192a9.462 9.462 0 0 1 -1.123.427c-.239.071-.5.146-.781.212a4.1 4.1 0 0 1 -.925.1 1.577 1.577 0 0 1 -.538-.079.729.729 0 0 1 -.289-.16.7.7 0 0 1 -.127-.154.759.759 0 0 1 -.071-.184 1.058 1.058 0 0 1 .065-.619 2.962 2.962 0 0 1 .231-.484 9.183 9.183 0 0 1 1.22-1.554c.431-.453.854-.854 1.224-1.176a14.47 14.47 0 0 1 1.286-1.028z" transform="translate(36.29 27.797)"/><path d="m49.52 63.336s-.2.275-.486.66c-.14.192-.308.415-.463.658a2.515 2.515 0 0 0 -.19.37.512.512 0 0 0 -.047.293.135.135 0 0 0 .022.038l.012.018.01.008v.006.006c-.008-.006.024.012-.02-.02a1.067 1.067 0 0 0 .178.113 1.277 1.277 0 0 0 .158.061 1.575 1.575 0 0 0 .192.042 2.687 2.687 0 0 0 .4.012c.129 0 .257-.008.374-.02.237-.028.435-.055.579-.075l.225-.038s-.065.053-.186.132a3.309 3.309 0 0 1 -.548.275 2.411 2.411 0 0 1 -.874.176 1.4 1.4 0 0 1 -.558-.113 1.179 1.179 0 0 1 -.233-.134l-.026-.022-.01-.01-.016-.012-.034-.036a.571.571 0 0 1 -.063-.077.725.725 0 0 1 -.089-.18.931.931 0 0 1 .081-.649 2.091 2.091 0 0 1 .285-.441 3.991 3.991 0 0 1 .621-.6 3.815 3.815 0 0 1 .706-.441z" transform="translate(34.512 32.311)"/><path d="m50.971 66.983c-.281.441-.554.882-.8 1.329-.129.225-.247.453-.362.678s-.223.457-.32.694c-.055.111-.1.229-.146.348s-.1.231-.131.35l-.115.36-.087.364a2.664 2.664 0 0 0 -.071.358 2.125 2.125 0 0 0 -.036.368 1.934 1.934 0 0 0 -.006.354c.01.123.02.237.024.358v-.043l-.012-.014c0 .006 0 .008.022.014a.279.279 0 0 0 .044 0 .981.981 0 0 0 .275-.018 4.436 4.436 0 0 0 .631-.174c.429-.146.848-.338 1.269-.526s.834-.4 1.244-.617.821-.445 1.216-.69a8.626 8.626 0 0 1 -1.085.9 12.8 12.8 0 0 1 -1.192.757 9.887 9.887 0 0 1 -1.281.633 4.488 4.488 0 0 1 -.708.225 1.875 1.875 0 0 1 -.421.026c-.04-.006-.085-.014-.127-.024a.448.448 0 0 1 -.144-.057.406.406 0 0 1 -.134-.111.646.646 0 0 1 -.095-.164l-.008-.01v-.028c-.014-.14-.026-.279-.038-.423a4.083 4.083 0 0 1 .014-.411 2.392 2.392 0 0 1 .051-.4 3.548 3.548 0 0 1 .083-.4c.034-.127.071-.261.113-.388l.14-.376c.042-.125.107-.243.158-.368a3.434 3.434 0 0 1 .164-.357c.121-.241.255-.467.393-.688s.291-.441.447-.647.322-.411.49-.617.353-.383.541-.565z" transform="translate(35.06 35.874)"/><path d="m58.165 69.96s-.038.156-.109.429-.156.664-.216 1.131a2.955 2.955 0 0 0 -.024.354.88.88 0 0 0 .042.322.171.171 0 0 0 .036.057.818.818 0 0 0 .093-.012c.051-.016.1-.036.156-.049s.125-.049.188-.079a7.879 7.879 0 0 0 .789-.423c.269-.152.534-.322.8-.5s.526-.346.779-.532.5-.358.734-.538c.475-.362.9-.712 1.252-1.036a9.375 9.375 0 0 0 .807-.821c.087-.107.162-.188.206-.251s.069-.093.069-.093-.012.04-.04.109-.081.174-.15.3a5.663 5.663 0 0 1 -.672.963 10.477 10.477 0 0 1 -1.174 1.19c-.229.2-.471.4-.728.591s-.52.382-.793.563a9.55 9.55 0 0 1 -1.7.911 2.3 2.3 0 0 1 -.225.077.991.991 0 0 1 -.269.053.481.481 0 0 1 -.33-.073.5.5 0 0 1 -.194-.281 1.755 1.755 0 0 1 .059-.858 6.681 6.681 0 0 1 .417-1.1c.116-.264.197-.404.197-.404z" transform="translate(43.94 36.786)"/><path d="m64.163 63.363s-.012.647-.032 1.615v.775a4.628 4.628 0 0 0 .073.817.432.432 0 0 0 .047.142c-.008-.014-.02-.014-.04-.028a.112.112 0 0 0 -.032-.006h-.026a.168.168 0 0 0 .045-.008c0-.008-.014 0 0-.012l.038-.018a.618.618 0 0 0 .079-.053c.051-.042.115-.079.17-.127a5.556 5.556 0 0 0 .643-.65c.21-.233.4-.478.587-.73s.358-.5.512-.755a12.093 12.093 0 0 0 .763-1.43c.095-.216.178-.419.247-.6s.123-.342.162-.477c.089-.275.129-.431.129-.431s0 .04-.006.117a3.136 3.136 0 0 1 -.022.33 6.066 6.066 0 0 1 -.225 1.166 8.152 8.152 0 0 1 -.65 1.56 7.291 7.291 0 0 1 -.5.813 9.44 9.44 0 0 1 -.6.787 6.364 6.364 0 0 1 -.724.7 2 2 0 0 1 -.214.152c-.043.022-.077.049-.123.073l-.073.03a.442.442 0 0 1 -.1.034.514.514 0 0 1 -.081.012h-.014c-.061 0-.024 0-.042 0h-.022a.481.481 0 0 1 -.093-.018.5.5 0 0 1 -.134-.095.755.755 0 0 1 -.067-.093 1.05 1.05 0 0 1 -.089-.289 4.1 4.1 0 0 1 -.006-.919c.016-.289.051-.544.089-.791a12.421 12.421 0 0 1 .331-1.593z" transform="translate(50.063 30.405)"/><path d="m26.049 43.773s.455 1.41 1.137 3.543c.34 1.058.737 2.3 1.161 3.63.216.658.435 1.346.66 2.042s.457 1.4.692 2.1.467 1.414.7 2.11.473 1.37.7 2.031.457 1.285.67 1.89.431 1.163.623 1.687.388.991.552 1.418.314.785.445 1.085c.253.6.391.945.391.945s-.18-.326-.486-.9c-.15-.293-.338-.641-.53-1.05s-.425-.872-.649-1.384-.471-1.068-.714-1.661-.5-1.218-.741-1.874-.5-1.327-.741-2.023-.49-1.394-.72-2.1-.461-1.422-.676-2.122-.421-1.39-.619-2.058-.372-1.327-.542-1.942-.324-1.206-.465-1.746c-.277-1.078-.48-1.989-.633-2.626s-.215-.995-.215-.995z" transform="translate(13.253 13.194)"/><path d="m21.695 56.566s.544.554 1.311 1.422c.2.217.405.451.617.706s.451.51.682.787.477.562.718.854.49.585.737.888.478.6.72.89.477.589.7.874.441.556.645.809.4.508.579.741.338.439.488.617.277.342.38.475l.324.423s-.146-.119-.4-.35-.627-.548-1.024-.967-.876-.9-1.35-1.453c-.243-.271-.49-.552-.737-.844s-.492-.581-.741-.882-.48-.6-.72-.9-.463-.593-.684-.88c-.441-.579-.84-1.127-1.172-1.6-.668-.952-1.073-1.61-1.073-1.61z" transform="translate(8.998 25.695)"/><path d="m15.12 53.723s1.28 1.277 3.203 3.205c.967.955 2.088 2.072 3.3 3.264q.908.9 1.868 1.835c.629.627 1.289 1.248 1.938 1.878l1.953 1.864c.649.607 1.293 1.212 1.91 1.785s1.234 1.125 1.811 1.651 1.127 1 1.635 1.457c.514.441.987.844 1.406 1.2.413.374.791.664 1.1.915l.963.795-1.022-.714c-.322-.227-.722-.5-1.161-.836s-.941-.712-1.477-1.133-1.1-.9-1.7-1.388-1.218-1.042-1.861-1.6-1.285-1.155-1.946-1.76-1.313-1.226-1.969-1.859-1.3-1.256-1.936-1.9c-.631-.623-1.246-1.256-1.837-1.866s-1.157-1.206-1.694-1.772-1.028-1.111-1.489-1.613c-.915-1-1.659-1.864-2.181-2.462s-.814-.946-.814-.946z" transform="translate(2.573 22.917)"/><path d="m23.382 48.925a9.073 9.073 0 0 1 .627.809c.18.241.374.538.575.86s.411.662.609 1.012.386.712.554 1.046.32.662.433.941a9.2 9.2 0 0 1 .364.953s-.273-.312-.625-.8c-.176-.247-.374-.538-.575-.858s-.411-.664-.609-1.02-.384-.708-.554-1.046-.314-.662-.435-.941c-.246-.565-.364-.956-.364-.956z" transform="translate(10.646 18.228)"/><path d="m26.137 54.255s.447.512 1.06 1.321c.308.4.654.872 1.022 1.388.18.257.372.52.56.793s.376.558.563.836.37.56.554.836.344.556.52.826c.332.534.633 1.036.888 1.475.508.872.809 1.483.809 1.483s-.451-.506-1.064-1.313c-.3-.4-.654-.872-1.02-1.388-.18-.263-.372-.524-.56-.8s-.376-.55-.565-.832-.368-.562-.548-.834-.352-.562-.52-.824c-.334-.54-.639-1.044-.89-1.481-.508-.875-.809-1.486-.809-1.486z" transform="translate(13.339 23.437)"/><path d="m23.871 68.605a13.977 13.977 0 0 1 -1.212-1.129c-.17-.178-.354-.368-.542-.587s-.384-.441-.571-.7a7.081 7.081 0 0 1 -1.038-1.689 1.917 1.917 0 0 1 -.134-.548.807.807 0 0 1 -.006-.156.767.767 0 0 1 .022-.166.674.674 0 0 1 .059-.17l.045-.083.018-.022.006-.008.008-.008.02-.026.042-.045.069-.065a.692.692 0 0 1 .142-.1 1.274 1.274 0 0 1 .289-.109 1.763 1.763 0 0 1 .532-.04 3.976 3.976 0 0 1 .915.18 6.7 6.7 0 0 1 .761.287 9.092 9.092 0 0 1 1.072.556c.245.148.384.247.384.247s-.156-.059-.431-.154-.66-.227-1.129-.362a6.456 6.456 0 0 0 -1.588-.291.862.862 0 0 0 -.664.219c-.1.1-.055.407.059.682a5.382 5.382 0 0 0 .419.832c.16.267.328.534.5.785.34.5.678.961.973 1.354.588.792.98 1.316.98 1.316z" transform="translate(7.7 31.925)"/><path d="m29.071 65.629c-.2.038-.4.083-.591.136s-.384.117-.575.178-.378.138-.556.219-.368.16-.544.265-.35.174-.516.293-.342.2-.5.322l-.477.346-.445.393a4.843 4.843 0 0 0 -.419.411 5.555 5.555 0 0 0 -.4.439l-.37.463-.326.49-.162.245c-.055.087-.1.172-.144.263l-.283.518a5.717 5.717 0 0 0 -.241.538l-.231.542-.125-.322.522.241a4.612 4.612 0 0 0 .526.231l.54.2c.182.071.37.1.552.162s.372.113.556.142l.571.113c.186.034.38.045.569.073l.289.036.289.012a5.7 5.7 0 0 0 .579.024h.579l.581-.036c.2-.02.388-.047.581-.067a11.578 11.578 0 0 0 1.149-.208 11.381 11.381 0 0 0 1.131-.332 4.7 4.7 0 0 1 -.536.251c-.182.081-.37.148-.556.212a11.2 11.2 0 0 1 -1.143.328c-.2.04-.391.081-.589.109l-.593.083c-.2.018-.4.026-.6.04a5.082 5.082 0 0 1 -.6.01h-.3l-.3-.024c-.2-.012-.4-.026-.6-.053l-.6-.091c-.2-.03-.388-.093-.585-.132-.2-.055-.393-.089-.583-.16l-.569-.2c-.192-.063-.374-.154-.558-.233l-.548-.251-.223-.1.1-.227.243-.571c.089-.184.154-.388.259-.562l.3-.548c.051-.083.1-.178.156-.269l.174-.251.364-.51.4-.467a3.724 3.724 0 0 1 .433-.449 4.782 4.782 0 0 1 .459-.415l.49-.384.516-.336c.176-.111.364-.2.542-.3s.374-.17.56-.261.388-.138.577-.212.393-.113.589-.17.4-.093.6-.123.408-.054.612-.064z" transform="translate(9.001 34.551)"/><path d="m28.652 68.206c-.113.089-.219.194-.322.289s-.2.206-.291.312a3.149 3.149 0 0 0 -.257.33 1.731 1.731 0 0 0 -.115.172 1.787 1.787 0 0 0 -.107.174 2.018 2.018 0 0 0 -.095.184c-.024.063-.053.123-.083.184a3.429 3.429 0 0 0 -.121.382 2.825 2.825 0 0 0 -.075.386c-.024.13-.016.265-.028.4l-.227-.259c.295.02.585.057.88.083l.439.016c.15 0 .295.014.441 0s.291-.02.441-.028l.433-.063a10.177 10.177 0 0 0 .431-.1 1.874 1.874 0 0 0 .413-.174 1.083 1.083 0 0 1 -.16.17l-.19.14a1.293 1.293 0 0 1 -.2.117c-.071.036-.138.075-.212.107l-.449.152c-.154.038-.3.063-.465.1a1.518 1.518 0 0 1 -.229.03l-.237.014-.469.03c-.31-.026-.623-.043-.931-.069l-.249-.024.02-.237c.016-.156.01-.312.042-.471l.042-.229c.018-.081.047-.152.069-.233a3.89 3.89 0 0 1 .184-.429l.117-.2c.042-.065.089-.125.136-.188a1.743 1.743 0 0 1 .144-.18 1.362 1.362 0 0 1 .154-.168 3.781 3.781 0 0 1 .344-.293 2.92 2.92 0 0 1 .782-.427z" transform="translate(13.807 37.07)"/><path d="m24.966 71.58s-.182.413-.469 1.006c-.144.295-.314.639-.492 1.014-.1.178-.176.374-.277.565s-.182.384-.275.587-.188.39-.269.583-.182.384-.257.581-.164.362-.227.538-.14.336-.2.488-.109.291-.156.417-.087.241-.117.332l-.111.287s0-.111.006-.308c0-.095 0-.216.022-.356s.036-.287.067-.453.069-.344.111-.534.107-.38.17-.577a11 11 0 0 1 .482-1.22 12 12 0 0 1 .623-1.157 10.569 10.569 0 0 1 .641-.947 7.2 7.2 0 0 1 .728-.846z" transform="translate(9.412 40.367)"/><path d="m28.5 63.806s-.4.071-.991.158c-.295.047-.643.1-.975.182a1.015 1.015 0 0 0 -.223.081c-.024.014-.053.036-.053.036a.034.034 0 0 0 .018-.022l.006-.022h.006v-.009s.006-.085 0-.047v.04c0 .014 0 .061.01.061l.014.018.043.091c.036.071.085.152.134.231.1.158.214.31.328.463s.231.295.352.435.229.275.342.4.221.241.324.35c.2.21.384.376.514.494s.217.17.217.17a.532.532 0 0 1 -.071-.02c-.042-.014-.115-.028-.2-.061a2.968 2.968 0 0 1 -.295-.134c-.113-.059-.233-.13-.366-.216a6.108 6.108 0 0 1 -.811-.662c-.134-.14-.279-.281-.407-.437a4.379 4.379 0 0 1 -.376-.5 2.788 2.788 0 0 1 -.16-.287 1.1 1.1 0 0 1 -.073-.184 1.152 1.152 0 0 1 -.028-.125.252.252 0 0 1 -.006-.081v-.042c-.006.042 0-.057 0-.057v-.006l.008-.026a.181.181 0 0 1 .016-.049.354.354 0 0 1 .107-.136.545.545 0 0 1 .2-.119 1.579 1.579 0 0 1 .32-.085 3.616 3.616 0 0 1 .565-.047c.176 0 .342.006.5.014a5.425 5.425 0 0 1 1.011.15z" transform="translate(12.995 32.613)"/></g><path d="m43.3 49.972c-.643 4.028 2.9 3.705 5.637 1.613 0 8.213 5.637 4.348 7.571 3.059-1.125 5.477 3.541 3.537 4.992 2.414.482 5.151 6.28 3.7 9.018 1.285 2.58 1.938 5.155-.162 5.959-1.125 2.258 3.063 6.444 3.7 7.731.324 2.416 1.772 4.028-.484 4.83-1.772 1.776 1.287 4.992.162 4.992-.807 0 0 1.936.969 2.258-2.09.2-1.938 1.433-2.517 2.843-2.157a22.4 22.4 0 0 0 -5.185-2.816s-40.184-6.151-49.671-4.965a23.262 23.262 0 0 0 -9.686 3.595 28.361 28.361 0 0 1 4.36-.421c-1.932 4.025.969 5.791 4.351 3.863z" fill="#eb8c3c" opacity=".5" transform="translate(21.598 12.227)"/><path d="m39.656 65.033a9.236 9.236 0 0 1 -2.424 2.058c-.973.364-.783-6.784 2.665-11.883 5.578-8.247 16.854-24.614 23.038-30.8s16.128-6.308 19.885 3.64c2.276 4.767-5.277 18.469 3.156 31.908 5.534 6.5 7.553 10.014 6.849 14.319.089 2.634-.7 2.11-1.843.88.089 2.456-.613 2.727-1.58 2.1a12.364 12.364 0 0 1 -2.373-2.893s-.615 3.774-2.9 5.269a22.765 22.765 0 0 1 -2.195-3.341s-1.141 4.393-2.193 4.743-4.217-1.582-5.184-3.689a8.091 8.091 0 0 1 -4.126 3.076c-.267-1.669-.354-2.9-.354-2.9a10.584 10.584 0 0 1 -8.257 3.873 18.263 18.263 0 0 1 -1.406-4.573s-1.934 2.108-3.336 2.108.261-5.093.261-5.093-4.391 3.6-7.2 3.511-1.665-6.673-1.665-6.673-2.986 2.632-4.482 2.723-.348-3.6-.348-3.6-2.814 1.758-4.567 1.317.579-6.08.579-6.08z" fill="#fcedd8" transform="translate(23.684 -9.932)"/><path d="m72.044 36.125c.536 2.932 4.878 5.127-.081 10.309-5.665 5.928-6.195 10.752-3.424 15.545 1.975 3.43-.658 3.169-3.163.136s-1.845 2.242-4.741 4.215-.923-4.085-.791-6.588-3.824 4.215-6.193 4.615-.4-5.8.393-7.911-4.478 3.7-7.244 3.826-1.847-6.851-.53-10.279c-3.419 3.421-4.712.84-3.264-2.715-1.155 1.675-2.2 3.221-3.108 4.555-3.448 5.1-3.638 12.247-2.665 11.883a9.236 9.236 0 0 0 2.424-2.058s-2.345 5.641-.585 6.08 4.567-1.317 4.567-1.317-1.145 3.689.348 3.6 4.481-2.721 4.481-2.721-1.143 6.584 1.665 6.673 7.2-3.511 7.2-3.511-1.665 5.093-.261 5.093 3.336-2.108 3.336-2.108a18.263 18.263 0 0 0 1.406 4.573 10.583 10.583 0 0 0 8.257-3.873s.087 1.234.354 2.9a8.092 8.092 0 0 0 4.126-3.076c.967 2.108 4.126 4.047 5.184 3.689s2.193-4.743 2.193-4.743a22.765 22.765 0 0 0 2.195 3.341c2.288-1.495 2.9-5.269 2.9-5.269a12.364 12.364 0 0 0 2.377 2.894c.967.623 1.669.352 1.58-2.1 1.143 1.23 1.932 1.754 1.843-.88.7-4.3-1.315-7.816-6.849-14.319-8.431-13.442-.874-27.144-3.154-31.911-.146-.388-.3-.761-.469-1.113.164.8-.807 1.246-2.359 3.595-1.623 2.473-4.217 3.484-4.937 2.543-.649-.868-1.008-.868-1.008-.868s2.019-4.318.433-5.04c-1.515-.5-2.6 2.017-2.236 4.178-1.73-.436-3.244 1.223-3.244 1.223s4.182-1.874 5.7 1.95c.209.648-3.286 1.542-2.656 4.984z" fill="#fadbbf" transform="translate(23.684 -6.558)"/><path d="m56.776 26.122c-.249 1.17-.848 2.027-1.325 1.912s-.67-1.165-.423-2.333.844-2.027 1.331-1.912.668 1.161.417 2.333z" transform="translate(41.463 -6.344)"/><path d="m56.2 25.039c-.065.465-.3.811-.512.775s-.338-.439-.271-.906.3-.807.516-.777.331.444.267.908z" fill="#fff" transform="translate(41.931 -6)"/><path d="m57.982 38.61c4.083 2.986 5.884 1.841 7.331 1.4s2.594-1.495 3.25-1.141a15.04 15.04 0 0 0 3.523.587c1.028.13 3.163 1.289 3.211.259-1.112-12.115-8.04-16.015-10.361-15.415-1.639.427-2.825 4.028-4.407 4.731s-4.391 1.928-5.358 4.876c-.835 2.154 2.414 4.44 2.811 4.703z" fill="#fba31d" transform="translate(41.576 -5.889)"/><path d="m61.572 32.03s.4 3.428-4.611 7.383-5.073 9.552-.2 11.393a7.863 7.863 0 0 0 8.959-1.975c1.977 1.256 5.4-1.248 5.269-5.665s-4.348-6.457-4.279-10.538a5.965 5.965 0 0 1 -5.138-.598z" fill="#eb383b" transform="translate(39.741 1.719)"/><path d="m52.827 26.909s.089-.057.251-.144a6.265 6.265 0 0 1 .7-.312 5.857 5.857 0 0 1 1.056-.291 3.74 3.74 0 0 1 .623-.057 3.93 3.93 0 0 1 .645.02 3.8 3.8 0 0 1 .637.14 3.25 3.25 0 0 1 .579.253c.087.051.174.1.255.16s.152.121.225.178.13.127.2.188.113.127.162.184a2.455 2.455 0 0 1 .259.362c.063.109.129.2.168.289.077.17.119.265.119.265s-.063-.085-.168-.237c-.049-.077-.123-.162-.2-.259a4.1 4.1 0 0 0 -.289-.314c-.055-.055-.113-.109-.174-.168s-.134-.1-.2-.154-.148-.1-.225-.154-.16-.091-.247-.136a3.011 3.011 0 0 0 -.544-.208 3.125 3.125 0 0 0 -.593-.121 4.78 4.78 0 0 0 -1.2 0 8.057 8.057 0 0 0 -1.042.2 9.418 9.418 0 0 0 -.997.316z" fill="#e2ad6d" transform="translate(39.42 -4.078)"/><path d="m57.752 28.608a3.529 3.529 0 0 0 -.433.391c-.059.067-.115.134-.174.206a2.5 2.5 0 0 0 -.166.237c-.059.081-.1.176-.154.261s-.087.188-.127.287-.081.2-.1.306a2.55 2.55 0 0 0 -.079.3c-.026.1-.045.2-.069.3s-.032.186-.045.273c-.04.17-.045.32-.071.425a1.617 1.617 0 0 1 -.038.162s-.026-.053-.067-.15c-.02-.053-.043-.113-.063-.186a.938.938 0 0 1 -.065-.247c-.014-.091-.032-.186-.044-.295s0-.223 0-.34a1.87 1.87 0 0 1 .047-.364 2.222 2.222 0 0 1 .109-.372 2.529 2.529 0 0 1 .178-.35 1.651 1.651 0 0 1 .229-.291 1.812 1.812 0 0 1 .259-.239 1.765 1.765 0 0 1 .267-.16 1.583 1.583 0 0 1 .439-.14 1.008 1.008 0 0 1 .167-.014z" fill="#bf7008" transform="translate(42.567 -1.625)"/><path d="m56.356 29.117s.144.214.425.581c.136.18.312.4.522.637.1.127.21.249.332.378s.249.269.391.4a10.451 10.451 0 0 0 .941.813 6.047 6.047 0 0 0 1.178.68 2.724 2.724 0 0 0 .33.117l.17.059c.053.01.115.022.172.036.113.018.235.045.348.061s.255.024.384.038a10.023 10.023 0 0 0 1.52-.01c.512-.03 1.022-.1 1.532-.18a9.016 9.016 0 0 1 1.556-.129 2.251 2.251 0 0 1 .409.061.882.882 0 0 1 .2.071l.095.047.038.014.04.026c.21.109.415.221.611.328s.4.2.589.293.368.174.544.259c.35.168.686.31.975.443s.546.249.757.336l.662.289s-.253-.069-.7-.188c-.223-.059-.484-.15-.793-.249s-.65-.206-1.02-.354-.787-.281-1.19-.478c-.206-.095-.417-.2-.633-.293l-.04-.018a.12.12 0 0 0 -.044-.018l-.067-.03a.723.723 0 0 0 -.142-.042 1.877 1.877 0 0 0 -.312-.038 10.678 10.678 0 0 0 -1.461.174c-.508.083-1.036.162-1.574.206a11.183 11.183 0 0 1 -1.607-.022c-.132-.012-.257-.026-.384-.04-.144-.022-.267-.057-.405-.087-.067-.014-.13-.024-.2-.043l-.188-.071c-.121-.049-.247-.083-.364-.14a5.922 5.922 0 0 1 -1.234-.8c-.178-.152-.344-.3-.5-.459s-.3-.3-.427-.463a10.077 10.077 0 0 1 -.664-.854c-.184-.265-.328-.508-.447-.708a6.7 6.7 0 0 1 -.325-.633z" fill="#bf7008" transform="translate(42.868 -1.127)"/><path d="m58.594 34.484c.781-1.358 1.167-.712 1.878-.39a2.134 2.134 0 0 0 2.072-.322c.518-.39.908 2.009 2.849 3.946l.01.012c-1.054-1.558-2.072-3.08-2.036-5.1a5.965 5.965 0 0 1 -5.141-.6s.212 1.841-1.645 4.377a5.827 5.827 0 0 0 2.013-1.923z" fill="#d32932" transform="translate(43.088 1.719)"/><path d="m68.077 40.984c.225-2.04-1.817-5.329-1.817-5.329 1.475 7.6-6.218 11.428-9.823 8.108-2.284-2.1-1.58-4.909-.55-6.946-3.911 3.85-3.622 8.749.876 10.445a7.863 7.863 0 0 0 8.959-1.975c1.977 1.256 5.4-1.248 5.269-5.665a6.806 6.806 0 0 0 -.3-1.811c.974 4.1-2.83 5.094-2.614 3.173z" fill="#d32932" transform="translate(39.742 5.261)"/><path d="m61.114 36.365a4.965 4.965 0 0 1 .807 3.8c-.241 1.3 1.05-.162.807-1.861s-1.776-3.315-1.614-1.939z" fill="#eb383b" transform="translate(47.506 5.449)"/><path d="m61.968 36.489s-.33 5.928-5.2 5.928c-1.912.134 2.04 2.114 4.35-.722s1.376-6.458.85-5.206z" fill="#eb383b" transform="translate(42.772 5.828)"/><path d="m60.611 24.5a16.669 16.669 0 0 1 7.236 10.19c.396 2.374.408-7.955-7.236-10.19z" fill="#fba31d" transform="translate(47.026 -5.64)"/><path d="m52.92 26.969s3.511-1.323 5.653 1.321c-.591-1.596-2.555-2.96-5.653-1.321z" fill="#fff" transform="translate(39.51 -3.952)"/><path d="m91.155 47.361c1.663 4.122.852 6.566.312 6.129a20.888 20.888 0 0 1 -2.242-3.559s1.447 6.323.132 5.536-3.3-4.613-3.3-4.613-1.054 7.515-1.975 6.981-3.559-4.346-3.559-4.346.263 7.772-1.975 6.06a13.687 13.687 0 0 1 -3.548-4.875s-2.9 5.008-3.426 3.82-.134-4.085-.134-4.085-7.91 6.591-8.44 4.613a37.877 37.877 0 0 1 -.789-5.267s-3.956 5.528-4.087 3.428 1.449-5.673 1.449-5.673-4.083 3.43-8.7 3.822a14.331 14.331 0 0 1 -.524-6.72s-5.141 4.35-5.01 2.505a15.59 15.59 0 0 1 1.186-4.344s-6.321 4.344-6.455 2.5a15.99 15.99 0 0 1 1.451-6.06s-3.3 3.029-3.689 1.317a26.1 26.1 0 0 1 -.061-4.457c-1.346 4.028-1.256 7.772-.548 7.507a9.236 9.236 0 0 0 2.424-2.058s-2.345 5.641-.585 6.08 4.567-1.317 4.567-1.317-1.145 3.689.348 3.6 4.482-2.723 4.482-2.723-1.143 6.584 1.665 6.673 7.2-3.511 7.2-3.511-1.665 5.093-.261 5.093 3.336-2.108 3.336-2.108a18.263 18.263 0 0 0 1.406 4.573 10.584 10.584 0 0 0 8.257-3.873s.087 1.234.354 2.9a8.091 8.091 0 0 0 4.126-3.076c.967 2.108 4.126 4.047 5.184 3.689s2.193-4.743 2.193-4.743a22.765 22.765 0 0 0 2.195 3.341c2.288-1.495 2.9-5.269 2.9-5.269a12.364 12.364 0 0 0 2.386 2.896c.967.623 1.669.352 1.58-2.1 1.143 1.23 1.932 1.754 1.843-.88a10.482 10.482 0 0 0 -1.668-7.406z" fill="#eabc96" transform="translate(23.685 9.579)"/><path d="m69.363 25.632c.012-.494.1-.577.255-.718-4.457-6.9-12.743-5.941-18.245-.439-.85.852-1.8 1.9-2.816 3.09 2.776-2.73 12.259-10.698 20.806-1.933z" fill="#fadbbf" transform="translate(35.247 -9.998)"/><path d="m49.59 32.918s-3.4-1.526-2.288-4.789a1.891 1.891 0 0 1 2.357-1.176 4.576 4.576 0 0 1 1.11-4.853c1.874-1.453 3.33.623 3.33.623s.556-6.728 7.146-7.7c5.2-.627 5.2 3.533 4.921 4.714 4.577-2.77 8.045-3.051 9.087-.132s-.973 8.456-4.648 9.846c-1.597-.21-7.631-10.264-21.015 3.467z" fill="#eb383b" transform="translate(33.803 -14.961)"/><path d="m66.986 36.015c-2.505.265-5.35-.413-6.722-1.971-2.9-4.484 2.505-3.3 2.9-5.8.376-2.47 1.388-3.561 2.456-3.988a2.2 2.2 0 0 0 -.684.049c-1.639.427-2.825 4.028-4.407 4.731s-4.391 1.928-5.358 4.876c-.834 2.151 2.414 4.437 2.812 4.7a15.108 15.108 0 0 0 1.71 1.093c-1.679-1.872-.6-2.458.316-1.793a6.184 6.184 0 0 0 3.591 1.136c1.8.174 3.606-.989 3.838-.352a.514.514 0 0 1 -.069.388c.488-.239.89-.374 1.192-.212a15.04 15.04 0 0 0 3.523.587c.961.121 2.889 1.137 3.173.429-3.98-.933-6.416-4.065-8.271-3.873z" fill="#fba31d" opacity=".5" transform="translate(41.576 -5.888)"/><path d="m74.372 18.277a2.87 2.87 0 0 0 -2.072-1.957c1.19 1.062 1.841 2.93.455 5.7-3.076 5.538-7.029-2.991-15.853 1.922-6.481 3.612-7.138 5.459-8.927 7.207a4.41 4.41 0 0 0 .732.441c13.384-13.732 19.418-3.678 21.013-3.466 3.68-1.39 5.692-6.934 4.652-9.847z" fill="#d32932" transform="translate(34.682 -13.632)"/><path d="m52 20.794a11.234 11.234 0 0 1 -.051-1.38 2.384 2.384 0 0 0 -2.7-.945 4.141 4.141 0 0 1 2.751 2.325z" fill="#d32932" transform="translate(35.926 -11.686)"/><path d="m50.362 22.319a7.722 7.722 0 0 1 -.917-1.261 1.86 1.86 0 0 0 -2.185.925 2.866 2.866 0 0 1 3.102.336z" fill="#d32932" transform="translate(33.98 -9.075)"/><path d="m63.009 16.83s-2.564-.437-5.726 2.347c.947-1.963 4.717-3.608 5.726-2.347z" fill="#fff" transform="translate(43.774 -13.565)"/><path d="m57.323 15.365a8.889 8.889 0 0 0 -6.159 7.27c-.589-3.341 2.425-7.135 6.159-7.27z" fill="#fff" transform="translate(37.723 -14.566)"/><path d="m50.138 18.792a4.059 4.059 0 0 0 -.69 5.046c-1.119-1.169-1.594-4.091.69-5.046z" fill="#fff" transform="translate(35.206 -11.217)"/><path d="m57.627 23.868a204.6 204.6 0 0 0 -16.207 22.4c1.451-4.611 9.748-17.659 16.207-22.4z" fill="#fff" transform="translate(28.273 -6.257)"/><path d="m61.89 104.675c-1.1-.178-.366-5.576-.366-5.576s-3.84 1.186-4.389.913.089-1 1.738-2.744c-5.763-.091-9.239-3.476-9.146-4.115s1.827-2.284 6.311-2.473c-1.647-1-2.748-3.656-2.748-3.656a11.5 11.5 0 0 1 3.294.643c-2.558-3.3-1.224-9.135-.482-9.876s1.186-.589 5.19 5.928c-3.112-8.891-3.411-17.486-4.4-24.729 0 0-1.354-9.405-1.437-14.054s.666-7.887-2.572-9.3-6.394-.911-7.642 1.414-.828 9.631-.828 9.631-1.659-7.389-1.991-9.552-5.979-.991-7.64.419.832 9.631.832 9.631-2.908-9.214-5.9-10.3-8.472.995-10.878 4.561 2.9 12.458 2.9 12.458-3.652-5.232-6.141-8.967-6.894.828-7.725 4.49 4.4 11.12 4.4 11.12a19.821 19.821 0 0 1 -3.239-3.822c-.747-1.493-1.244-.83-2.408 3.077s-.415 7.221 5.811 13.285c0 0-4.534-8.01-3.856-11.572s2.713-.674 8.476 5.6-9.317-13.052-6.435-18.309 5.081 3.221 14.581 12.543-7.8-16.778-2.207-21.017 8.307 5.427 13.563 15.256.17-5.427-1.186-14.92c-.68-3.219 3.9-2.877 4.913-2.707s4.747 25.931 11.529 39.326c2.879 4.915-1.186.336-6.274-5.762s.34 3.385 5.253 10.845-5.91 4.2-12.616-3.156.751 3.664 3.974 8.073-3.4-2.369-11.786-8.646 5.176 7.458 11.108 12.377 6.612 7.8 10.341 7.964.473 4.439-2.054 4.336-1.5-.947-.488-2.636-1.866 1.182-7.12 1.352-3.051-2.883.678-5.089c2.375-1.35-3.053-1.69-6.442 2.885-2.207 3.053-1.866 4.235-6.612 5.6.846-4.407 2.2-7.458 4.405-8.816a44.92 44.92 0 0 1 -7.821-.608c-.269.271-.431.494-.431.625 0 .56 1.738 1.121 5.412 1-2.553 2.236-4.3 7.9-4.356 8.581s3.173 1.368 5.6.809c-1.121 1.928-1.926 7.592-1.242 7.9s5.287-.625 5.287-.625c-.083.079-.16.15-.235.225.48-.229.925-.445 1.313-.637-2.1 3.873 5.807 4.358 7.747 1.455 0 3.227 3.549.969 4.354-4.2 1.455 3.713 4.2 3.225 5.329-2.1 0 5 1.776 8.393 2.9 8.393s3.713-1.3 4.682-8.067c2.1 3.865 2.742-8.524 2.742-8.524s-2.473 4.024-3.57 3.84z" fill="#d36d22" opacity=".5" transform="translate(-6.171 4.474)"/><path d="m49.576 104.663c-1.1-.178-.366-5.576-.366-5.576s-3.84 1.186-4.389.913.089-1 1.738-2.744c-5.763-.091-9.239-3.476-9.146-4.115s1.827-2.284 6.311-2.473c-1.647-1-2.748-3.656-2.748-3.656a11.5 11.5 0 0 1 3.294.643c-2.558-3.3-1.224-9.135-.482-9.876s1.186-.589 5.19 5.928c-3.112-8.891-3.411-17.486-4.4-24.729 0 0-1.354-9.405-1.437-14.054s.666-7.887-2.572-9.3a9.16 9.16 0 0 0 -2.926-.763c.314 7.664 1.562 27.263 6.311 38.565-3.1-3.1-4.134 5.8-2.068 10.965-3.31-3.933 1.034 4.757-5.584 3.1s0 2.483 2.481 3.1-4.844 2.3-3.351 4.455 8.522 3.2 8.522 3.2-1.447 2.066-.621 3.927 3.723-.824 3.723-.824 1.238 7.238-.625 9.923-3.1-5.582-3.1-5.582-2.068 9.722-6.2 1.24c.826 7.238-2.483 8.277-2.483 2.481-1.653 9.1-10.6 6.339-7.369.073-1.91.747-5.669 3.5-8.494 3.877-.038.844.032 1.445.243 1.538.682.314 5.287-.625 5.287-.625-.083.079-.16.15-.235.225.48-.229.925-.445 1.313-.637-2.1 3.873 5.807 4.358 7.747 1.455 0 3.227 3.549.969 4.354-4.2 1.455 3.713 4.2 3.225 5.329-2.1 0 5 1.776 8.393 2.9 8.393s3.713-1.3 4.682-8.067c2.1 3.865 2.742-8.524 2.742-8.524s-2.473 4.028-3.571 3.844z" fill="#d36d22" opacity=".5" transform="translate(6.142 4.486)"/><path d="m9.507 51.307s4.348 8.534 19.811 18.682c5.153 3.704-17.718-5.639-19.811-18.682z" fill="#d36d22" transform="translate(-2.912 20.556)"/><path d="m10.565 45.2s9.342 14.168 17.555 22.059c5.637 5.805-12.24-7.246-17.555-22.059z" fill="#d36d22" transform="translate(-1.878 14.585)"/><path d="m16.225 40.668s5.623 19.125 16.553 31.825c6.43 7.394-14.787-9.969-16.553-31.825z" fill="#d36d22" transform="translate(3.653 10.16)"/><path d="m76.439 92.78c1.232 1.234 1.232 2.462-1.054 1.41a5.634 5.634 0 0 0 -3.863-.532s-2.462 2.993-2.638 1.76 3.689-3.162-.35-2.284c-11.944 3.691-22.486-1.4-24.246-4.389-.524 1.76-1.93 5.445-2.808 1.23-3.689 3.16-2.112 1.052-1.582-1.584-2.99 1.584-1.232-1.4-.176-2.46-4.039-2.46-3.863-4.389-3.863-4.389a33.794 33.794 0 0 1 -5.977 4.215s-2.812-3.162-1.4-6.147c-3.337.874-4.043-.174-5.273-1.934a12.1 12.1 0 0 0 -3.051 1.829 2.34 2.34 0 0 0 -.184 1.06s1.744-1.493 2.863-1.43c-2.551 3.919-.314 8.581-.314 8.581a33.328 33.328 0 0 1 3.794-3.61c-.061 1.495 2.238 6.655 3.547 6.655s4.127-4.561 4.127-4.561a28.48 28.48 0 0 1 2.746 2.216c.534.6-1.677 3.43-1.677 3.43s2.744-.767 2.974-.534-.763 2.052-.763 2.052 2.972-1.139 3.735-.455 2.294 2.141 2.294 2.141.457-2.667 1.6-2.369c8.16 5.493 22.645 3.278 22.645 3.278s.686 2.444 1.066 2.371 1.6-1.451 1.6-1.451a19.384 19.384 0 0 0 2.283 1.521c.461.154.838-.838 1.068-2.056 5.186.991 6.711 0 6.711 0l-1.023-1.804c19.28-4.981 29.28-12.355 34.352-19.989-.032-.008-.061-.026-.095-.036-10.366 15.636-38.3 17.035-37.068 18.265z" fill="#ce6719" transform="translate(7.308 43.235)"/><path d="m87.25 76.581c-1.928 4.729-7.707 9.809-8.583 5.079-7.357 9.285-10.687 4.028-6.305-2.8-6.833 6.479-12.614 9.455-8.059-.524-3.678 4.2-9.107 8.753-9.973 7.353s1.04-4.727 5.07-9.107c-4.376 2.1-9.285 2.1 2.454-8.231-2.978 1.576-7.885 1.926 1.576-6.483-3.682 2.106-10.509 6.655-9.983 1.926.362-3.272 5.174-8.47 8.1-11.367-.639.32-1.046.548-1.046.548s-12.014 6.844-14.351 18.025c-.168 1.669 5.673-2.671 5.673-2.671-7.342 7.171-12.014 17.013-6.675 16.015-2.167 4.674-2.669 6.5-2 6.841s4.506-.668 4.506-.668-3.954 5.925-2.654 7.94 8.352-.356 10.875-1.586c-2.954 1.876-2.81 2.525-.289 2.377s10.87-3.748 13.104-4.969c-1.588 1.876-1.946 2.592-.435 2.592s7.078-.86 13.316-6.3c-2.021 2.019-1.671 2.193-1.317 2.282s7.144-3.48 9.307-15.114c-1.305.849-2.311.272-2.311-1.158z" fill="#d36d22" opacity=".5" transform="translate(29.668 21.65)"/><path d="m66.21 54.124s5.271.526 1.845 12.381c-1.319 5.008 7.638-11.855-1.845-12.381z" fill="#d36d22" transform="translate(52.497 23.309)"/></svg>