<svg height="160.198" viewBox="0 0 126.759 160.198" width="126.759" xmlns="http://www.w3.org/2000/svg"><path d="m1426.344 3299.034a3.766 3.766 0 0 0 -4.692 2.789c-.124.416.185.708 1.085.313 1.12-.49 4.085.088 4.085.088z" fill="#f8e3b4" transform="translate(-1386.203 -3158.227)"/><path d="m1422.947 3339.122c.128.17.462.205 1.049-.052 1.12-.49 4.085.088 4.085.088l-.2-1.3a4.89 4.89 0 0 0 -4.934 1.264z" fill="#d8b56a" transform="translate(-1387.462 -3195.161)"/><path d="m1418.547 3299.143a.607.607 0 0 1 -.418-.136.543.543 0 0 1 -.124-.585 3.959 3.959 0 0 1 4.909-2.9l.1.032.53 3.539-.24-.047c-.029-.006-2.925-.562-3.983-.1a1.989 1.989 0 0 1 -.774.197zm3.268-3.427c-1.055 0-2.674.426-3.482 2.81-.013.044-.04.165.024.222.084.074.351.087.828-.122.977-.428 3.208-.095 3.948.033l-.426-2.84a3.837 3.837 0 0 0 -.891-.103z" fill="#a58141" transform="translate(-1382.722 -3154.875)"/><path d="m2138.146 3346.61c.066 0 2.326.94 2.171 2.884-.081.363-.746-.315-1.326-.149a2.625 2.625 0 0 1 -2.171-.348c-.348-.448 1.326-2.387 1.326-2.387z" fill="#f8e3b4" transform="translate(-2067.607 -3203.685)"/><path d="m2137.132 3375.614c-.266.431-.446.841-.308 1.018.348.448 1.591.514 2.171.348s1.245.511 1.326.149c0-.022 0-.042 0-.064-.761-.983-1.999-1.065-3.189-1.451z" fill="#d8b56a" transform="translate(-2067.61 -3231.32)"/><path d="m2136.828 3346.288a1.176 1.176 0 0 1 -.41-.121 1.226 1.226 0 0 0 -.741-.144c-.573.164-1.935.132-2.354-.408-.393-.5.8-1.99 1.332-2.605l.051-.06h.079a3.966 3.966 0 0 1 1.6 1.058 2.586 2.586 0 0 1 .748 2.012v.024a.3.3 0 0 1 -.152.21.308.308 0 0 1 -.153.034zm-1-.629a1.933 1.933 0 0 1 .724.19 2.084 2.084 0 0 0 .237.088c.1-1.565-1.55-2.423-1.952-2.607-.788.932-1.373 1.9-1.24 2.074.29.373 1.444.443 1.987.288a.875.875 0 0 1 .242-.033z" fill="#a58141" transform="translate(-2064.245 -3200.198)"/><path d="m2035.248 3079.278c3.275-.351 4.23-2.124 5.005-1.887s.964 5.6-5.184 5.835z" fill="#f8e3b4" transform="translate(-1970.702 -2947.146)"/><path d="m2040.35 3079.161c-.462 3.522-2.728 4.07-5.223 4.493-.017.373-.036.8-.058 1.279 5.879-.222 5.962-5.133 5.281-5.772z" fill="#d8b56a" transform="translate(-1970.702 -2948.854)"/><path d="m2031.232 3079.914.194-4.283.147-.016a7.946 7.946 0 0 0 3.806-1.418c.515-.336.888-.578 1.268-.462s.6.926.473 1.873c-.125.963-.907 4.118-5.7 4.3zm.526-3.973-.164 3.612c4.356-.244 5.069-3.108 5.184-3.99.118-.906-.109-1.461-.232-1.5-.226-.068-.542.136-.979.421a8.246 8.246 0 0 1 -3.809 1.457z" fill="#a58141" transform="translate(-1967.046 -2943.655)"/><path d="m1516.3 2838.427s2.225 2.225.691 8.056-2.022 10.243-1.241 11.393c1.011.882 7.067 2.332 5.653 5.87-.854 2.138-5.332 1.189-6.713-.691-1.918 1.228-7.711-.575-7.711-.575s-9.763.786-10.837 1.094-4.5 1.745-6.2-.5-.458-4.919 2.935-5.064c4.047-.173 10.875 1.669 16.933-3.375 1.116-.825 3.187-9.265 1.806-11.49s4.684-4.718 4.684-4.718z" fill="#fba419" transform="translate(-1450.583 -2719.479)"/><path d="m2102.652 3283.786a2.638 2.638 0 0 0 -1.134 2.59c-.558-.787.118-2.416.743-2.8.429.088.391.21.391.21z" fill="#8e4a00" transform="translate(-2033.818 -3143.623)"/><path d="m1522.594 3297.231a2.1 2.1 0 0 1 -.936 1.939c-1.841.921-4-.288-5.423-2.561-.212.993-.3 1.448-1.17 1.551-3.894.08-6.521-1.205-10.022-.744-6.876-.653-12.554 4.027-13.645-1.872a3.091 3.091 0 0 0 .554 3.079c1.7 2.244 5.121.805 6.2.5s10.837-1.093 10.837-1.093 5.793 1.8 7.711.575c1.381 1.88 6.291 2.954 6.713.691a2.617 2.617 0 0 0 -.819-2.065z" fill="#e47f05" transform="translate(-1452.493 -3155.028)"/><path d="m2016.248 2854.154a4.108 4.108 0 0 0 2.646 4.37 10.981 10.981 0 0 1 -.9-.649c-.781-1.151-.293-5.562 1.241-11.393s-.691-8.056-.691-8.056-.7.286-1.561.751c2.55 4.328-.062 9.837-.735 14.977z" fill="#e47f05" transform="translate(-1952.736 -2719.478)"/><path d="m1517.7 2861.088a6.641 6.641 0 0 1 -4.61-1.915c-2.017 1.07-7.181-.471-7.686-.625-.626.051-9.756.794-10.771 1.084-.113.032-.252.077-.413.129-1.421.458-4.377 1.412-5.967-.69a3.222 3.222 0 0 1 -.525-3.369 3.911 3.911 0 0 1 3.59-1.971c.873-.037 1.886.019 2.958.079 4.082.227 9.161.509 13.873-3.414 1-.74 3.154-9.037 1.77-11.267a1.454 1.454 0 0 1 -.151-1.265c.62-1.919 4.737-3.632 4.912-3.7l.106-.044.081.081c.094.094 2.277 2.363.735 8.222-1.5 5.71-2 10.11-1.277 11.235a3.275 3.275 0 0 0 1.1.785c4.745 1.661 4.94 3.348 4.589 5.231a1.689 1.689 0 0 1 -1.439 1.326 3.959 3.959 0 0 1 -.875.088zm-4.894-3 .467.761a6.122 6.122 0 0 0 5.228 1.814 1.352 1.352 0 0 0 1.177-1.053c.309-1.66.453-2.939-4.443-4.881a3.674 3.674 0 0 1 -1.153-.826l-.029-.033c-.808-1.191-.342-5.611 1.217-11.534 1.325-5.034-.208-7.345-.572-7.8-.671.292-4.083 1.842-4.6 3.442a1.109 1.109 0 0 0 .116.977c1.456 2.346-.711 10.877-1.85 11.72-4.808 4-10.181 3.7-14.1 3.487-1.063-.059-2.067-.115-2.924-.078a3.582 3.582 0 0 0 -3.292 1.773 2.889 2.889 0 0 0 .488 3.014c1.443 1.907 4.241 1 5.586.57.165-.053.309-.1.425-.133 1.078-.308 10.472-1.067 10.871-1.1h.033l.032.01c.057.018 5.646 1.82 7.474.649z" fill="#8e4a00" transform="translate(-1448.926 -2715.372)"/><path d="m1550.793 3253.488a3.113 3.113 0 0 1 1.675 3.293 2.661 2.661 0 0 0 -1.228-3.349c-.468-.1-.447.056-.447.056z" fill="#8e4a00" transform="translate(-1509.276 -3114.87)"/><path d="m1768.18 2621.672s5.65 6.1 7.212 6.138 8.31-1.842 7.876-8.516-4.42-8.516-4.42-8.516z" fill="#33190f" transform="translate(-1716.406 -2502.569)"/><path d="m1770.628 2623.789h-.054c-1.589-.036-6.751-5.563-7.335-6.193l-.112-.121.115-.117 10.758-10.983.111.051c.167.077 4.084 1.961 4.52 8.662a7.445 7.445 0 0 1 -2.038 5.875 9.707 9.707 0 0 1 -5.965 2.826zm-7.023-6.308c1.643 1.761 5.784 5.935 6.977 5.962h.038a9.315 9.315 0 0 0 5.72-2.719 7.113 7.113 0 0 0 1.943-5.614c-.382-5.875-3.587-7.961-4.214-8.315z" fill="#190907" transform="translate(-1711.592 -2498.375)"/><path d="m908.111 1681.115c-16.863-9.757-35.4-19.092-35.942-32.971h-38.439l-3.927 14.194s-5.816 30.536 32.7 40.97c36.482 7.871 46.722-15.859 45.608-22.193z" fill="#42251a" transform="translate(-822.007 -1585.356)"/><path d="m1037.247 2193.256c-4.383-2.536-8.878-5.043-13.142-7.61a24.651 24.651 0 0 1 -6.458 8.09c-4.143 3.452-6.521 11.379-11.124 13.22-12.553 4.564-32.1 3.467-41.5-8.115 4.726 6.563 12.832 12.873 26.617 16.608 36.48 7.871 46.721-15.859 45.607-22.193z" fill="#33190f" transform="translate(-951.143 -2097.497)"/><path d="m873.037 1701.587a65.953 65.953 0 0 1 -13.894-1.6c-8.82-2.389-16.029-6.037-21.436-10.844a34.272 34.272 0 0 1 -11.4-30.328l3.965-14.334h38.737l.007.166c.492 12.6 16.269 21.622 31.527 30.344 1.447.827 2.894 1.654 4.329 2.484l.07.041.014.079c.516 2.937-1.357 9.575-7.137 15.137-4.548 4.382-12.265 8.855-24.782 8.855zm-42.5-56.758-3.892 14.067a33.869 33.869 0 0 0 1.908 16.481c3.054 8.112 10.855 18.908 30.67 24.276 20.867 4.5 32.377-1.413 38.357-7.168 5.637-5.424 7.505-11.849 7.049-14.75-1.411-.816-2.834-1.629-4.257-2.443-7.656-4.377-15.572-8.9-21.48-13.834-6.589-5.5-9.931-10.942-10.213-16.63z" fill="#190907" transform="translate(-818.684 -1581.869)"/><path d="m1890.554 2131.98a114.222 114.222 0 0 1 2.356 11.634c1.54-2.786 2.735-10.485 2.735-10.485l-3.6-8.31z" fill="#b14024" transform="translate(-1833.006 -2039.54)"/><path d="m1891.426 2187.921-.872 4.185s1.8 7.189 2.272 10.854c.825-5.118.01-12.92-1.4-15.039z" fill="#992613" transform="translate(-1833.006 -2099.665)"/><path d="m1889.206 2132.726-.046-.571a114.619 114.619 0 0 0 -2.351-11.605l-.01-.038 1.611-7.734 3.836 8.855-.008.049c-.049.316-1.218 7.761-2.755 10.543zm-2.052-12.222c.146.584 1.876 7.575 2.29 11.025 1.32-2.931 2.347-9.229 2.446-9.851l-3.363-7.765z" fill="#4f0900" transform="translate(-1829.428 -2028.067)"/><path d="m1814.81 2029.74a114.207 114.207 0 0 1 2.356 11.634c1.54-2.786 2.735-10.485 2.735-10.485l-3.6-8.31z" fill="#992613" transform="translate(-1760.836 -1942.124)"/><path d="m1813.462 2030.486-.046-.571a114.617 114.617 0 0 0 -2.351-11.605l-.01-.038 1.611-7.734 3.836 8.855-.008.049c-.049.316-1.218 7.761-2.755 10.542zm-2.052-12.222c.146.585 1.876 7.575 2.29 11.025 1.32-2.931 2.347-9.229 2.446-9.851l-3.363-7.765z" fill="#4f0900" transform="translate(-1757.258 -1930.652)"/><path d="m1994.286 2441.79s1.837 9.36.763 12.889c1.918-.46 4.527-5.94 4.527-5.94l-2.6-10.325z" fill="#ce6c1b" transform="translate(-1931.843 -2338.339)"/><path d="m1996.344 2455.2-2.058 2.584s1.638 8.347.916 12.248a23.3 23.3 0 0 0 1.142-14.832z" fill="#ae4a0a" transform="translate(-1931.843 -2354.331)"/><path d="m1991.067 2447.239.088-.289c1.049-3.448-.749-12.713-.768-12.806l-.015-.078 2.956-3.711 2.7 10.724-.027.056c-.108.227-2.667 5.56-4.642 6.034zm-.326-13.083c.182.944 1.682 8.981.832 12.568 1.683-.827 3.827-5.14 4.091-5.682l-2.5-9.926z" fill="#681b00" transform="translate(-1928.114 -2330.66)"/><path d="m2171.467 1767.832c.229-.384 2.915-13.813 16.034-11.318s16.112 15.078 11.662 19.144c-5.984-7.365-11.892-11.125-15.958-8.823a79.925 79.925 0 0 0 -9.041 6.368z" fill="#002124" transform="translate(-2100.664 -1688.319)"/><path d="m2195.172 1772.466-.115-.142c-6.257-7.7-11.993-10.9-15.739-8.782a80.307 80.307 0 0 0 -9.017 6.352l-.167.136-2.836-5.648.046-.078c.015-.034.056-.172.1-.319 2.544-8.64 8.27-12.576 16.117-11.084 6.713 1.277 11.676 5.407 13.276 11.05.971 3.426.385 6.642-1.529 8.391zm-13.295-9.93c3.656 0 8.27 3.235 13.33 9.425 1.685-1.668 2.2-4.748 1.3-7.916-1.563-5.514-6.426-9.553-13.008-10.8-10.325-1.964-14.282 5.95-15.722 10.842-.044.149-.071.239-.091.3l2.566 5.11a78.905 78.905 0 0 1 8.9-6.249 5.452 5.452 0 0 1 2.725-.712z" fill="#001314" transform="translate(-2096.692 -1684.876)"/><path d="m2090.272 1287.825c-.3-.575.506-19.679 20.876-18.3 10.551 2.035 16.687 11.048 18.989 14.386 1.148 1.7 4.719.684 3.107-4.146a26.149 26.149 0 0 0 -7.6-12.081c-3.8-3.338-18.759-8.171-18.759-8.171l-18.255 11.739z" fill="#002124" transform="translate(-2021.741 -1215.064)"/><path d="m2086.856 1284.872-.413-.792a1.122 1.122 0 0 1 -.047-.351l-1.618-16.389 18.412-11.84.078.025c.612.2 15.039 4.883 18.82 8.206 3.513 3.087 5.871 6.836 7.646 12.156.945 2.833.14 4.4-.928 4.932a1.935 1.935 0 0 1 -2.486-.634l-.058-.084c-2.305-3.343-8.428-12.224-18.821-14.228-7.409-.5-13.036 1.65-16.707 6.395a20.274 20.274 0 0 0 -4 11.354zm-1.714-17.356 1.4 14.158a21.2 21.2 0 0 1 3.111-8.484c2.534-3.875 7.682-8.349 17.833-7.661 10.552 2.033 16.733 11 19.06 14.374l.059.086a1.594 1.594 0 0 0 2.048.519c.938-.463 1.628-1.891.753-4.513-1.754-5.258-4.081-8.961-7.546-12.006-3.588-3.153-17.451-7.729-18.62-8.111z" fill="#001314" transform="translate(-2018.066 -1211.239)"/><path d="m2091.065 1429.965s-5.467-9.437 0-18.414 25.261-11.547 34.353 1.995c6.79 10.319-.255 15.717-2.647 15.5s-7.941-9.9-7.941-9.9l-11.624-2.113s-10.194 7.1-10.218 9.611a8.944 8.944 0 0 1 -1.167 4.317z" fill="#0c3636" transform="translate(-2021.741 -1352.83)"/><path d="m2088.687 1427.775-.918-1.213c-.055-.1-5.455-9.629 0-18.59 2.692-4.42 8.847-7.374 15.68-7.525a21.717 21.717 0 0 1 18.964 9.513c4.234 6.436 2.909 10.662 1.741 12.609-1.255 2.093-3.337 3.268-4.548 3.158-2.371-.217-7.488-8.967-8.035-9.914l-11.474-2.086c-2.856 1.995-10.066 7.454-10.085 9.43a9.038 9.038 0 0 1 -1.194 4.408zm-.624-1.4.59.779a9 9 0 0 0 1.016-4.006c.025-2.574 9.873-9.459 10.292-9.751l.059-.041 11.773 2.14.04.07c1.531 2.67 5.918 9.638 7.807 9.811.927.086 2.911-.807 4.22-2.991 1.125-1.877 2.4-5.963-1.733-12.24a21.388 21.388 0 0 0 -18.668-9.359c-6.719.149-12.761 3.037-15.394 7.359-5.277 8.671-.191 17.899-.002 18.234z" fill="#001314" transform="translate(-2018.594 -1349.341)"/><path d="m2153.438 1508.638c-1.234-4.912.039-14 6.733-18.831a16.747 16.747 0 0 1 12.314-3.147 12.68 12.68 0 0 1 5.484 2.046 16.9 16.9 0 0 0 -17.6 1.381c-6.562 4.736-7.81 13.65-6.6 18.467z" fill="#001314" transform="translate(-2083.087 -1431.34)"/><path d="m2169.379 1604.982s-4.218-17.531 15.093-18.759c9.568-.307 17.624 10.356 16.319 20.331-.307 2-1.27 3.585-2.191 3.587-1.568 0-3.7-12.7-13.979-14.079-5.887-.633-12.548 4.161-12.819 12.2z" fill="#124a49" transform="translate(-2098.304 -1526.351)"/><path d="m2188.486 1687.829a14.323 14.323 0 0 0 -19.287 9.707 17.881 17.881 0 0 0 .38 3.3l2.424 3.28c.271-8.038 6.931-12.832 12.818-12.2 10.277 1.378 12.411 14.082 13.979 14.079.544 0 1.1-.559 1.531-1.424-1.306-7.317-4.514-14.091-11.845-16.742z" fill="#0c3636" transform="translate(-2098.504 -1622.203)"/><path d="m2195.322 1606.832c-.561 0-1.038-1.009-1.83-2.679-1.85-3.9-4.945-10.432-12.172-11.4a11.082 11.082 0 0 0 -8.358 2.789 12.62 12.62 0 0 0 -4.265 9.245l-.017.5-2.739-3.707-.008-.034c-.018-.075-1.758-7.567 2.318-13.092 2.6-3.521 6.948-5.5 12.932-5.879a14.938 14.938 0 0 1 11.5 5.335 19.289 19.289 0 0 1 5 15.191c-.327 2.13-1.342 3.735-2.362 3.738zm-15.043-14.481a10.143 10.143 0 0 1 1.083.058c7.417.995 10.686 7.891 12.442 11.6.6 1.276 1.176 2.482 1.518 2.482.823 0 1.729-1.546 2.021-3.441a18.938 18.938 0 0 0 -4.911-14.91 14.614 14.614 0 0 0 -11.232-5.222c-5.872.373-10.137 2.3-12.671 5.74-3.844 5.211-2.388 12.229-2.267 12.773l2.115 2.862a12.9 12.9 0 0 1 4.359-9.009 11.609 11.609 0 0 1 7.543-2.932z" fill="#001314" transform="translate(-2095.026 -1522.87)"/><path d="m2165.827 1695.306-.33-.1c2.082-6.662 6.536-9.134 9.907-10.034a17.646 17.646 0 0 1 9.073.1 8.366 8.366 0 0 1 4.124 2.388c-1.991-1.839-7.654-3.612-13.107-2.156-3.288.877-7.633 3.29-9.667 9.802z" fill="#001314" transform="translate(-2094.976 -1620.114)"/><path d="m2228.619 1907.77s4.9-11.585 16.483-6.291c8.67 4.066 10.994 13.35 10.445 18.49-.7 1.381-9.242-16.538-22.824-9.36z" fill="#124a49" transform="translate(-2155.12 -1825.419)"/><path d="m2274.563 2006.718c-3.884-7.341-15.644-7.416-21.033-2.1l2.929 2.026c9.144-4.832 16 1.708 19.722 6.078a16.878 16.878 0 0 0 -1.618-6.004z" fill="#0c3636" transform="translate(-2178.856 -1921.456)"/><path d="m2251.118 1916.725c-.317 0-.72-.477-1.771-1.779-3.168-3.922-10.587-13.106-20.86-7.678l-.093.049-4.306-2.978.055-.129c.022-.052 2.243-5.195 7.1-7.083 2.9-1.127 6.132-.891 9.618.7 8.76 4.108 11.105 13.413 10.545 18.666l-.018.06a.294.294 0 0 1 -.234.169zm-16.312-11.485c7.145 0 12.295 6.375 14.81 9.489a10.815 10.815 0 0 0 1.454 1.631c.51-5.171-1.816-14.213-10.357-18.218-3.4-1.552-6.542-1.785-9.348-.694-4.3 1.671-6.473 5.973-6.845 6.769l3.9 2.7a13.7 13.7 0 0 1 6.385-1.677z" fill="#001314" transform="translate(-2150.803 -1821.925)"/><path d="m2285.909 2004.891c-.025-.056-2.64-5.577-10.635-5.577a16.882 16.882 0 0 0 -9.624 2.8l-.211-.273a17.238 17.238 0 0 1 9.836-2.875 13.019 13.019 0 0 1 8.152 2.547 6.978 6.978 0 0 1 2.482 3.378z" fill="#001314" transform="translate(-2190.202 -1919.629)"/><path d="m2380.969 1031.407s12.087-.982 16.345 3.931 13.522 18.407 9.092 22.177c-2.532 1.784-11.491-7.694-11.491-7.694l-23.094-8.513z" fill="#002124" transform="translate(-2291.565 -997.643)"/><path d="m2399.548 1054.261c-3.233 0-10.24-7.3-10.832-7.926l-23.3-8.588 9.369-10.14.067-.005c.5-.04 12.223-.932 16.489 3.99 3.537 4.082 10.706 14.289 10.288 19.788a3.67 3.67 0 0 1 -1.214 2.633 1.473 1.473 0 0 1 -.867.248zm-33.526-16.659 22.889 8.438.028.029c2.463 2.606 9.291 9.064 11.266 7.672a3.335 3.335 0 0 0 1.082-2.387c.41-5.39-6.7-15.489-10.2-19.536-3.99-4.6-15.163-3.944-16.134-3.877z" fill="#001314" transform="translate(-2285.464 -994.01)"/><path d="m2051.28 889.448s1.6-23.244 27.152-26.18c16.112-1.44 29.231 10.644 32.109 22.5s2.8 16.5.575 17.109-7.825-19.345-20.715-25.565c-9.9-4.741-17.313-2.822-20.817 1.09-7.647 2.99-18.304 11.046-18.304 11.046z" fill="#124a49" transform="translate(-1986.149 -837.402)"/><path d="m2109.076 984.967c-17.685-1.1-26.892 7.218-32.64 19.582 2.986-2.167 11.011-7.785 17.117-10.174 3.5-3.913 10.92-5.831 20.817-1.09 12.891 6.22 18.49 26.179 20.715 25.565a.737.737 0 0 0 .585-.393c-2.733-14.99-11.163-31.887-26.594-33.49z" fill="#0c3636" transform="translate(-2010.118 -953.377)"/><path d="m2107.005 899.571c-.82 0-1.8-1.775-3.642-5.268-3.212-6.077-8.587-16.249-17.043-20.329-10.151-4.862-17.3-2.645-20.614 1.05l-.027.031-.038.015c-7.537 2.949-18.157 10.945-18.263 11.025l-.3.229.026-.378a31.1 31.1 0 0 1 4.018-12.064c3.3-5.671 10.018-12.751 23.286-14.276 16.21-1.449 29.381 10.618 32.3 22.628 2.781 11.458 2.917 16.637.454 17.316a.565.565 0 0 1 -.157.021zm-31.6-28.738a25.786 25.786 0 0 1 11.061 2.83c8.559 4.13 13.967 14.364 17.2 20.479 1.488 2.815 2.772 5.251 3.4 5.075 2.207-.609 1.992-5.822-.7-16.9-2.881-11.871-15.9-23.8-31.926-22.366-13.122 1.508-19.763 8.5-23.023 14.106a31.3 31.3 0 0 0 -3.933 11.53c1.822-1.349 11.147-8.132 17.992-10.821 2.014-2.232 5.386-3.933 9.933-3.933z" fill="#001314" transform="translate(-1982.143 -833.911)"/><path d="m2217.028 1014.577a54.7 54.7 0 0 0 -7.748-20.531c-4.838-7.431-11.018-11.849-17.87-12.775-12.218-1.261-19.483 2.561-23.425 5.99a20.2 20.2 0 0 0 -5.673 7.8l-.327-.11a20.593 20.593 0 0 1 5.775-7.951c3.993-3.474 11.343-7.347 23.692-6.072 6.96.941 13.223 5.412 18.118 12.93a55.063 55.063 0 0 1 7.8 20.667z" fill="#001314" transform="translate(-2091.631 -949.386)"/><path d="m2009.461 1171.27s-14.233-13.9-4.059-32.614c4.534-6.515 20.531-13.28 36.758 0 6.214 5.109 6.941 10.728 5.975 11.205-3.73 1.844-12.247-7.938-25.424-4.869-11.373 2.648-17.911 16.043-13.25 26.278z" fill="#124a49" transform="translate(-1938.943 -1092.638)"/><path d="m2061.824 1237.759c-11.653-3.68-26.805.52-30.028 13.64-.925 3.884-.442 7.576.2 11.632a28.655 28.655 0 0 0 5.613 8.719c-4.656-10.234 1.877-23.629 13.249-26.278 13.177-3.069 21.694 6.713 25.424 4.869a.627.627 0 0 0 .277-.417c-3.09-5.2-8.291-10.303-14.735-12.165z" fill="#0c3636" transform="translate(-1967.095 -1193.119)"/><path d="m2006.857 1168.536-.66-.644a29.276 29.276 0 0 1 -5.885-9.35c-2.1-5.339-3.493-13.745 1.794-23.47 1.976-2.841 6.781-6.49 13.851-7.475 5.495-.765 13.975-.1 23.168 7.424 5.055 4.156 6.59 8.737 6.37 10.648a1.007 1.007 0 0 1 -.428.845c-1.507.745-3.625-.251-6.556-1.63-4.578-2.153-10.846-5.1-18.906-3.225a18.928 18.928 0 0 0 -12.566 10.3 18.366 18.366 0 0 0 -.565 15.742zm12.643-40.836a25.275 25.275 0 0 0 -3.493.241c-6.959.97-11.678 4.546-13.6 7.314-5.213 9.592-3.839 17.892-1.766 23.163a29.961 29.961 0 0 0 5.145 8.515 18.861 18.861 0 0 1 .951-15.128 19.271 19.271 0 0 1 12.8-10.48c8.176-1.9 14.508 1.074 19.131 3.249 2.737 1.287 4.9 2.3 6.256 1.633.115-.057.2-.272.238-.575.211-1.839-1.3-6.274-6.246-10.342-7.332-5.995-14.191-7.59-19.416-7.59z" fill="#001314" transform="translate(-1935.8 -1089.137)"/><path d="m2028.892 1259.813-.065-.229c-3.644-12.905 1.128-22.366 13.439-26.641a26.7 26.7 0 0 1 30.976 12.412l-.3.175a26.452 26.452 0 0 0 -30.57-12.258c-12.106 4.2-16.8 13.516-13.214 26.219l.065.231z" fill="#001314" transform="translate(-1963.619 -1188.655)"/><path d="m2315.6 2088.436c.257-.288 12.915-1.744 16.138 8.268 2.072 7.25-1.994 11.239-3.221 11.853s-1-7.135-5.524-9.667c-2.842-4.144-7.393-10.454-7.393-10.454z" fill="#124a49" transform="translate(-2237.995 -2004.646)"/><path d="m2370.114 2169.208c1.5 2.109 3.382 4.764 4.82 6.864 4.527 2.532 4.3 10.281 5.524 9.667a6.663 6.663 0 0 0 .914-.685c-.108-7.87-4.75-16.142-11.258-15.846z" fill="#0c3636" transform="translate(-2289.939 -2081.828)"/><path d="m2323.913 2105.269a.418.418 0 0 1 -.172-.037c-.4-.179-.621-1-.957-2.254-.631-2.344-1.583-5.887-4.346-7.432l-.035-.02-.023-.033c-2.8-4.094-7.344-10.387-7.39-10.45l-.081-.112.093-.1c.228-.255 3.421-.572 6.715.127 3.464.734 7.962 2.754 9.716 8.2 2.14 7.486-2.136 11.474-3.309 12.06a.468.468 0 0 1 -.211.051zm-5.27-10c2.862 1.626 3.832 5.233 4.475 7.624.265.986.515 1.917.765 2.029a.09.09 0 0 0 .087-.009c1.122-.561 5.207-4.4 3.133-11.651a11.125 11.125 0 0 0 -6.576-7.074 18.465 18.465 0 0 0 -9.119-1.151c.781 1.079 4.702 6.533 7.234 10.227z" fill="#001314" transform="translate(-2233.527 -2001.152)"/><path d="m2403.313 2171.7c-.314-13.39-9.893-16.16-9.99-16.185l.084-.335c.1.025 9.931 2.866 10.251 16.512z" fill="#001314" transform="translate(-2312.053 -2068.468)"/><path d="m2210.169 2050.8s6.336 1.649 9.191 4.641c1.857-.69-.452-7.9-4.741-11.508s-6.625-4.07-8.491-3.876c2.209 6.571 4.041 10.743 4.041 10.743z" fill="#db9925" transform="translate(-2133.691 -1958.744)"/><path d="m2240.183 2137.623c1.424 3.874 2.435 6.176 2.435 6.176s6.336 1.649 9.191 4.641a.82.82 0 0 0 .428-.387c-1.813-5.022-6.647-9.914-12.054-10.43z" fill="#bf720f" transform="translate(-2166.139 -2051.741)"/><path d="m2214.62 2052.148-.078-.082c-2.788-2.923-9.047-4.577-9.109-4.593l-.081-.021-.033-.077c-.019-.042-1.861-4.256-4.047-10.758l-.069-.2.215-.022c1.746-.18 4.133.143 8.62 3.916 3.68 3.094 5.783 8.574 5.4 10.759a1.21 1.21 0 0 1 -.715 1.044zm-9.019-4.988c.776.209 6.357 1.789 9.1 4.577a1 1 0 0 0 .4-.732c.356-2.057-1.753-7.465-5.287-10.436-4.2-3.534-6.491-3.976-8.146-3.856 1.99 5.897 3.679 9.859 3.932 10.448z" fill="#843902" transform="translate(-2128.997 -1955.248)"/><path d="m2296.157 2202.7a29.739 29.739 0 0 1 5.908 6.905c2.148-3.836-1.841-10.938-4.833-13.6a12.726 12.726 0 0 0 -5.447-3.124z" fill="#db9925" transform="translate(-2215.304 -2104.387)"/><path d="m2323.751 2264.668 2.865 6.433a30.423 30.423 0 0 1 5.72 6.576c-.429-3.929-4.536-9.915-8.585-13.009z" fill="#bf720f" transform="translate(-2245.763 -2172.791)"/><path d="m2296.175 2205.3-.15-.271a29.753 29.753 0 0 0 -5.868-6.857l-.03-.026-.016-.036-4.507-10.121.323.061a12.79 12.79 0 0 1 5.53 3.165c2.966 2.64 7.067 9.89 4.869 13.815zm-5.765-7.366a30.581 30.581 0 0 1 5.758 6.647c1.777-3.833-2.117-10.6-4.94-13.109a13.691 13.691 0 0 0 -5.029-3z" fill="#843902" transform="translate(-2209.416 -2099.734)"/><path d="m2304.533 2267.038a36.834 36.834 0 0 1 5.355 10.287c1.918-2.877 1.029-14.122-5.355-18.244a75.421 75.421 0 0 0 0 7.957z" fill="#db9925" transform="translate(-2227.348 -2167.469)"/><path d="m2304.442 2344.506c.009 2.205.108 3.926.108 3.926a36.831 36.831 0 0 1 5.355 10.288 3.244 3.244 0 0 0 .21-.378 30.72 30.72 0 0 0 -5.673-13.836z" fill="#bf720f" transform="translate(-2227.365 -2248.862)"/><path d="m2306.357 2271.589-.1-.353a36.932 36.932 0 0 0 -5.327-10.231l-.032-.042v-.053a76.177 76.177 0 0 1 0-7.978l.019-.293.246.159c3.871 2.5 5.348 7.2 5.884 9.781.744 3.585.548 7.164-.479 8.7zm-5.125-10.752a37.7 37.7 0 0 1 5.233 9.919c.793-1.609.9-4.9.236-8.106-.513-2.472-1.9-6.927-5.485-9.4-.197 3.362-.009 7.104.016 7.587z" fill="#843902" transform="translate(-2223.878 -2161.33)"/><path d="m2265.954 2415.6c.908.435 3.208 6.215 3.669 11.048 1.611-1.458 1.3-12.506-2.148-15.882-2.149 1.309-1.521 4.834-1.521 4.834z" fill="#db9925" transform="translate(-2190.612 -2312.001)"/><path d="m2265.956 2454.118c.908.435 3.208 6.215 3.669 11.048a23.277 23.277 0 0 0 -3.52-13.975 7.242 7.242 0 0 0 -.149 2.927z" fill="#bf720f" transform="translate(-2190.614 -2350.515)"/><path d="m2265.918 2422.627-.033-.343c-.457-4.8-2.738-10.51-3.572-10.909l-.08-.038-.015-.087c-.027-.149-.623-3.661 1.6-5.011l.115-.07.1.094c2.266 2.216 3.213 7.613 3.134 11.69-.021 1.085-.16 3.69-.991 4.443zm-3.371-11.513c1.019.722 3.1 6.047 3.636 10.7a9.9 9.9 0 0 0 .636-3.864c.079-4.068-.9-9.226-2.934-11.339-1.728 1.171-1.409 4.004-1.338 4.503z" fill="#843902" transform="translate(-2187.047 -2307.616)"/><path d="m2228.619 2492.121a35.024 35.024 0 0 1 2.443 7.091c2.148-3.836 1.211-12.969-.537-15.268-1.305 1.535-1.906 8.177-1.906 8.177z" fill="#db9925" transform="translate(-2155.12 -2381.721)"/><path d="m2228.619 2586.274a35.043 35.043 0 0 1 2.439 7.071c-.027-3.667-.244-7.49-1.975-10.586-.313 1.853-.464 3.515-.464 3.515z" fill="#bf720f" transform="translate(-2155.12 -2475.873)"/><path d="m2227.425 2494.143-.092-.458a35.1 35.1 0 0 0 -2.429-7.05l-.021-.043v-.047c.025-.274.622-6.715 1.946-8.273l.139-.164.13.171c1.8 2.364 2.737 11.552.55 15.457zm-2.189-7.614a36.312 36.312 0 0 1 2.333 6.607c1.755-3.849.951-12.025-.608-14.458-1.109 1.684-1.671 7.28-1.726 7.851z" fill="#843902" transform="translate(-2151.56 -2376.16)"/><path d="m2156.157 2501.9s1.846 8.018 1.706 10.166c1.624.307 3.4-5.217 2.934-8.977l-2.077-6.138z" fill="#ce6c1b" transform="translate(-2086.077 -2394.115)"/><path d="m2157.134 2561.861-.977 1.886s1.846 8.018 1.706 10.166a.716.716 0 0 0 .161.011c.949-3.024.656-8.28-.89-12.063z" fill="#ae4a0a" transform="translate(-2086.077 -2455.962)"/><path d="m2154.308 2503.37a.9.9 0 0 1 -.165-.015l-.15-.029.01-.152c.137-2.1-1.684-10.036-1.7-10.116l-.014-.062 2.779-5.365 2.215 6.556c.374 3.012-.7 7.447-2.131 8.788a1.247 1.247 0 0 1 -.844.395zm-1.656-10.328c.179.784 1.745 7.7 1.7 9.98a.979.979 0 0 0 .558-.3c1.213-1.138 2.408-5.353 2.027-8.476l-1.941-5.737z" fill="#681b00" transform="translate(-2082.39 -2385.234)"/><path d="m2065.751 2392.671c.767 1.534 1.688 9.514 2.378 14.041 1.611 0 4.068-5.141 2.61-12.122l-3.3-8.209z" fill="#ce6c1b" transform="translate(-1999.936 -2288.76)"/><path d="m2066.236 2481.4-.485 1.808c.767 1.535 1.688 9.514 2.378 14.041a.847.847 0 0 0 .088-.009c1.228-4.898-.107-14.788-1.981-15.84z" fill="#ae4a0a" transform="translate(-1999.936 -2379.3)"/><path d="m2064.421 2395.894h-.148l-.022-.146c-.174-1.14-.361-2.488-.559-3.915-.582-4.2-1.241-8.951-1.8-10.074l-.029-.058.017-.063 1.822-6.791 3.5 8.719c1.108 5.3.01 9.686-1.478 11.517a1.815 1.815 0 0 1 -1.303.811zm-2.2-14.23c.58 1.27 1.232 5.968 1.808 10.121.188 1.358.367 2.645.533 3.747a1.791 1.791 0 0 0 .886-.668c1.2-1.476 2.564-5.679 1.411-11.214l-3.1-7.716z" fill="#681b00" transform="translate(-1996.228 -2277.77)"/><path d="m2141.327 2241.08s2.673 2.916 4.2 9.207c1.836-3.76 1.759-13.734 1.759-13.734l-2.371-7.9-4.784 4.449z" fill="#ce6c1b" transform="translate(-2070.808 -2138.474)"/><path d="m2150.4 2391.5.71 4.746s2.639 2.881 4.172 9.092a17.973 17.973 0 0 0 -4.882-13.838z" fill="#ae4a0a" transform="translate(-2080.587 -2293.638)"/><path d="m2141.757 2244.426-.113-.465c-1.5-6.168-4.135-9.1-4.161-9.131l-.036-.039-1.216-8.122 5.054-4.7 2.458 8.217c0 .409.056 10.058-1.776 13.811zm-3.983-9.788a22.58 22.58 0 0 1 4.083 8.753c1.552-3.875 1.543-12.648 1.542-13.178l-2.284-7.613-4.514 4.2z" fill="#681b00" transform="translate(-2067.092 -2132.107)"/><path d="m2087.959 2294.845c.64.775 2.5 4.373 3.218 9.974 1.949-2.609 2.578-10.971 0-14.731-2.654-3.529-2.808-3.146-2.808-3.146z" fill="#ce6c1b" transform="translate(-2021.097 -2194.003)"/><path d="m2088.119 2389.154-.16 3.091c.64.775 2.5 4.373 3.218 9.974l.012-.017c.556-4.087-.162-9.528-3.07-13.048z" fill="#ae4a0a" transform="translate(-2021.097 -2291.403)"/><path d="m2087.511 2301.763-.054-.423c-.689-5.352-2.472-9.03-3.179-9.886l-.043-.052v-.067l.411-7.931.01-.026a.2.2 0 0 1 .158-.119c.128-.016.474-.065 2.948 3.225 2.651 3.867 1.915 12.376 0 14.938zm-2.925-10.475c.758.97 2.421 4.424 3.151 9.551 1.672-2.862 2.209-10.566-.251-14.154a20.178 20.178 0 0 0 -2.506-2.984z" fill="#681b00" transform="translate(-2017.549 -2190.502)"/><path d="m2173.307 2013.483a25.849 25.849 0 0 1 3.836 11.087c2.378-4.834 1.381-14.117-.537-17.493a10.28 10.28 0 0 0 -5.139-4.45z" fill="#ce6c1b" transform="translate(-2100.665 -1923.114)"/><path d="m2195.6 2145.01.7 4.138a25.85 25.85 0 0 1 3.836 11.086 9.956 9.956 0 0 0 .4-.946c.827-4.962-1.712-10.545-4.936-14.278z" fill="#ae4a0a" transform="translate(-2123.663 -2058.779)"/><path d="m2172.61 2020.069-.048-.63a25.863 25.863 0 0 0 -3.807-11l-.021-.031-.006-.037-1.889-11.14.273.091a10.351 10.351 0 0 1 5.235 4.529c1.953 3.437 2.973 12.714.542 17.654zm-3.547-11.795a26.559 26.559 0 0 1 3.782 10.482c2-4.9 1-13.574-.8-16.739a10.294 10.294 0 0 0 -4.768-4.263z" fill="#681b00" transform="translate(-2096.256 -1917.97)"/><path d="m1969.773 2275.45c0 .307.641 6.445-.485 9.667 2.4-2.762 4.821-8.823 4.821-8.823l-1.958-7.787z" fill="#ce6c1b" transform="translate(-1908.025 -2176.449)"/><path d="m1972.1 2271.847-2.325 6.785c0 .307.641 6.445-.485 9.667.088-.1.175-.207.263-.316 2.132-5.032 2.559-10.344 2.547-16.136z" fill="#ae4a0a" transform="translate(-1908.024 -2179.632)"/><path d="m1959.555 2273.652.3-.848c.449-1.285.9-3.937.5-9.273-.014-.184-.022-.3-.022-.337l.009-.056 2.567-7.494 2.113 8.406-.021.052c-.024.061-2.457 6.12-4.852 8.872zm1.118-10.432c0 .05.01.147.02.285a29.937 29.937 0 0 1 -.273 8.573 44.13 44.13 0 0 0 4.234-8.053l-1.8-7.167z" fill="#681b00" transform="translate(-1898.751 -2164.194)"/><path d="m2010.465 2115.12c.077.614 2.01 7.365 1.926 12.045 2.524-1.918 3.831-12.045 3.831-12.045l-4.76-10.051z" fill="#ce6c1b" transform="translate(-1947.259 -2020.723)"/><path d="m2011.062 2190.533-.6 6.018c.074.591 1.87 6.878 1.927 11.522 1.038-5.832.171-11.867-1.327-17.54z" fill="#ae4a0a" transform="translate(-1947.259 -2102.154)"/><path d="m2008.7 2114.667.006-.356c.068-3.742-1.165-8.826-1.691-11-.135-.557-.217-.894-.233-1.023v-.019-.019l1.059-10.67 5.048 10.659-.007.05c-.054.417-1.346 10.221-3.9 12.161zm-1.573-12.4c.02.128.106.484.223.967a52.087 52.087 0 0 1 1.7 10.692c2.173-2.272 3.379-10.889 3.478-11.628l-4.471-9.442z" fill="#681b00" transform="translate(-1943.752 -2007.871)"/><path d="m1905.84 3183.542c3.021-.086 4.028-1.87 4.719-1.553s.46 5.984-5.179 5.7z" fill="#f8e3b4" transform="translate(-1847.131 -3046.793)"/><path d="m1910.559 3182.7h-.009c-.492 2.593-2.178 4.145-4.854 4-.016.145-.3 1.541-.317 1.7 5.64.285 5.87-5.383 5.18-5.7z" fill="#d8b56a" transform="translate(-1847.131 -3047.505)"/><path d="m1901.916 3184.361q-.2 0-.417-.01l-.183-.01.5-4.474h.15a6.589 6.589 0 0 0 3.572-1.16c.5-.314.868-.541 1.224-.378.392.179.5 1.205.231 2.286a4.863 4.863 0 0 1 -5.077 3.746zm-.216-.348c3.6.107 4.639-2.313 4.925-3.37a2.651 2.651 0 0 0 -.01-2c-.187-.085-.484.1-.9.357a6.9 6.9 0 0 1 -3.594 1.207z" fill="#a58141" transform="translate(-1843.259 -3043.287)"/><path d="m1295.846 3458.32s-3.673-1.141-5.083 3.021c-.134.451.2.766 1.175.34 1.213-.531 4.426.095 4.426.095z" fill="#f8e3b4" transform="translate(-1261.487 -3309.986)"/><path d="m1291.928 3498.192c-.489.288-.891.7-.876.856.075.268.445.375 1.188.05 1.213-.531 4.426.095 4.426.095l-.214-1.43a5.441 5.441 0 0 0 -4.524.429z" fill="#d8b56a" transform="translate(-1261.789 -3347.403)"/><path d="m1287.691 3458.716a.644.644 0 0 1 -.444-.143.575.575 0 0 1 -.13-.62 4.275 4.275 0 0 1 5.3-3.136l.1.032.57 3.8-.24-.047c-.031-.006-3.174-.609-4.324-.106a2.141 2.141 0 0 1 -.832.22zm3.539-3.712c-1.147 0-2.907.464-3.784 3.054-.019.064-.043.192.03.256.1.087.39.1.913-.13 1.064-.466 3.508-.1 4.289.04l-.466-3.105a4.165 4.165 0 0 0 -.981-.119z" fill="#a58141" transform="translate(-1258.007 -3306.647)"/><path d="m2012.105 3479.5c.077 0 2.692 1.088 2.513 3.337-.094.419-.863-.365-1.534-.173s-2.11.115-2.513-.4 1.534-2.764 1.534-2.764z" fill="#f8e3b4" transform="translate(-1947.307 -3330.307)"/><path d="m2013.88 3504.745c-.767-.815-1.784.211-2.6-1.256h-.055c-.449.64-.862 1.364-.655 1.63.4.518 1.841.594 2.513.4s1.277.611 1.371.192a2.964 2.964 0 0 0 -.574-.966z" fill="#d8b56a" transform="translate(-1947.307 -3353.16)"/><path d="m2011.141 3479.653a1.343 1.343 0 0 1 -.464-.138 1.427 1.427 0 0 0 -.876-.167c-.656.188-2.217.153-2.7-.463-.454-.584 1.064-2.429 1.54-2.981l.052-.06h.079a4.585 4.585 0 0 1 1.826 1.215 2.967 2.967 0 0 1 .859 2.309v.024a.318.318 0 0 1 -.161.225.327.327 0 0 1 -.155.036zm-1.16-.674a2.221 2.221 0 0 1 .829.218 1.826 1.826 0 0 0 .308.109c.136-1.888-1.847-2.887-2.291-3.084-.941 1.11-1.614 2.241-1.45 2.451a2.924 2.924 0 0 0 2.329.343 1 1 0 0 1 .275-.037z" fill="#a58141" transform="translate(-1943.977 -3326.819)"/><path d="m1404.688 2933.088a4.777 4.777 0 0 1 1.5 2.935c0 1.553-1.707 11.163-2.589 12.352-1.151 0-2.187 2.263-4.68 3.337s-8.708 1.381-11.47 1.074c-1.419-.23-2.493.69-2.225 2.724s1.266 3.03 3.913 2.915 9.341-.422 13.916-4.277c-.345.748-1.228 2.225-1.371 2.685-1.976.269-4.248 2.057-3.442 4.013s5.187 3.141 6.338 1.99.863-2.072 1.467-2.963 3.04-4.249 3.04-4.249a3.541 3.541 0 0 0 1.937 1.093c.326.748 2.82 2.263 5.179.134 1.323-1.18.576-5.121-2.877-4.8-1.525.086-3.251-2.5-3.855-2.733.4-1.093 4.959-20.312 2.019-20.6-3.288-.348-6.8 4.37-6.8 4.37z" fill="#fba419" transform="translate(-1351.475 -2805.489)"/><path d="m1957.894 3421.193a3.409 3.409 0 0 0 -1.507 3.1 3.29 3.29 0 0 1 .893-3.1c.165-.101.614 0 .614 0z" fill="#8e4a00" transform="translate(-1895.611 -3274.704)"/><path d="m1891.147 2940.088a31.03 31.03 0 0 0 -.672 9.633c.53-.892 5.18-20.413 2.24-20.7a14.566 14.566 0 0 0 -2.475.551c2.052 2.956 1.337 7.081.907 10.516z" fill="#e47f05" transform="translate(-1832.707 -2805.794)"/><path d="m1705.728 3470.781a3.723 3.723 0 0 1 -2.81-1.438c-.882 2.129-3.318 3.223-4.7 6.676-.292.729-1.208 1.8-4.431 1.3 1.316.375 2.187 1.707 4.833.652 1.151-1.15.863-2.071 1.467-2.963s3.04-4.249 3.04-4.249a3.54 3.54 0 0 0 1.937 1.093c.326.748 2.82 2.264 5.179.134a1.748 1.748 0 0 0 .472-.748c-3.289 1.662-4.598-.285-4.987-.457z" fill="#e47f05" transform="translate(-1645.524 -3320.624)"/><path d="m1387.67 3458.045a2.663 2.663 0 0 1 -2.356-1.688c.007.12.018.244.035.374.269 2.033 1.266 3.031 3.913 2.915 2.57-.112 8.955-.4 13.512-3.951a3.274 3.274 0 0 0 .886-.958c-3.389 2.328-10.236 3.768-15.99 3.308z" fill="#e47f05" transform="translate(-1351.604 -3306.707)"/><path d="m1399.553 2959.976a5.954 5.954 0 0 1 -1.161-.124c-1.527-.305-3.3-1.174-3.815-2.425a2.333 2.333 0 0 1 .168-2.118 4.86 4.86 0 0 1 3.306-2.116c.121-.3.4-.828.7-1.378.1-.176.192-.354.283-.525-4.606 3.441-10.943 3.717-13.4 3.824-2.57.113-3.793-.805-4.092-3.065a2.7 2.7 0 0 1 .6-2.432 2.066 2.066 0 0 1 1.821-.485c2.78.309 8.925-.007 11.374-1.062a9.469 9.469 0 0 0 2.895-2.138c.655-.643 1.18-1.158 1.759-1.209.859-1.4 2.511-10.607 2.511-12.184a4.633 4.633 0 0 0 -1.441-2.808l-.114-.105.093-.124c.146-.2 3.609-4.792 6.952-4.442a.893.893 0 0 1 .677.462c1.732 2.762-2 18.446-2.508 20.225a6.21 6.21 0 0 1 .826.772c.788.813 1.859 1.935 2.814 1.873a3.145 3.145 0 0 1 3.375 1.893 2.918 2.918 0 0 1 -.374 3.213 3.855 3.855 0 0 1 -3.506 1.051 3.085 3.085 0 0 1 -1.9-1.152 3.545 3.545 0 0 1 -1.807-.99c-.5.687-2.4 3.313-2.917 4.08a3.324 3.324 0 0 0 -.419 1.034 3.9 3.9 0 0 1 -1.069 1.955 2.323 2.323 0 0 1 -1.631.5zm.479-9.944-.325.7c-.151.328-.4.793-.649 1.244a13.025 13.025 0 0 0 -.715 1.421l-.033.1-.109.015a4.506 4.506 0 0 0 -3.157 1.962 1.975 1.975 0 0 0 -.148 1.814c.464 1.127 2.172 1.94 3.563 2.218a2.99 2.99 0 0 0 2.493-.284 3.563 3.563 0 0 0 .98-1.8 3.645 3.645 0 0 1 .466-1.135c.6-.884 3.019-4.22 3.043-4.253l.125-.172.143.157a3.387 3.387 0 0 0 1.822 1.037l.1.008.042.1a2.579 2.579 0 0 0 1.7 1.046 3.527 3.527 0 0 0 3.2-.971 2.606 2.606 0 0 0 .288-2.818 2.812 2.812 0 0 0 -3.034-1.687c-1.11.059-2.253-1.116-3.087-1.977a4.334 4.334 0 0 0 -.845-.767l-.16-.061.059-.16c.417-1.131 4.234-17.437 2.584-20.067a.562.562 0 0 0 -.419-.3c-2.868-.3-5.978 3.462-6.548 4.186a4.715 4.715 0 0 1 1.438 2.95c0 1.67-1.722 11.24-2.623 12.455l-.052.07h-.087c-.477 0-.978.492-1.612 1.115a9.763 9.763 0 0 1 -3 2.208c-2.5 1.076-8.733 1.4-11.557 1.087a1.74 1.74 0 0 0 -1.534.39 2.449 2.449 0 0 0 -.5 2.139c.277 2.1 1.324 2.87 3.734 2.766 2.533-.11 9.263-.4 13.812-4.237z" fill="#8e4a00" transform="translate(-1347.978 -2802.003)"/><path d="m1442.545 3439.059s.783 1.835.281 2.721c.7-.293.5-1.94.166-2.637-.025-.214-.447-.084-.447-.084z" fill="#8e4a00" transform="translate(-1406.135 -3291.733)"/><path d="m1672.671 3615.462c-.93-.1-2.561-2.129-1.276-4.354a2.3 2.3 0 0 1 3.3 1.41c.086.316-1.007.787-1.2 1.65-.154.694-.621 1.315-.824 1.294z" fill="#f8e3b4" transform="translate(-1623.734 -3455.437)"/><path d="m1693.908 3631.285c-1.52.307-1.209 2.125-2.05 3.177a.4.4 0 0 1 -.4.073 1.476 1.476 0 0 0 .781.416c.2.021.67-.6.825-1.295.192-.863 1.285-1.333 1.2-1.65a2.823 2.823 0 0 0 -.356-.721z" fill="#d8b56a" transform="translate(-1643.305 -3474.926)"/><path d="m1669.143 3612.162h-.025a2.346 2.346 0 0 1 -1.542-1.342 3.32 3.32 0 0 1 .135-3.27c.138-.246.808-.41 1.435-.351a2.461 2.461 0 0 1 2.177 1.792c.068.248-.15.446-.427.7a2.194 2.194 0 0 0 -.767 1.045c-.147.655-.624 1.426-.986 1.426zm-.266-4.632a1.57 1.57 0 0 0 -.871.2 2.982 2.982 0 0 0 -.123 2.935.98.98 0 1 0 1.909 0 2.5 2.5 0 0 1 .872-1.226c.134-.121.317-.288.327-.352a2.112 2.112 0 0 0 -1.636-1.5 2.427 2.427 0 0 0 -.479-.057z" fill="#a58141" transform="translate(-1620.199 -3451.963)"/><path d="m1397.6 2636.219a20.319 20.319 0 0 0 12.82 15.326c5.586 2.3 5.394 3.759 7.5 3.3s10.656-3.452 5.481-13.273-25.801-5.353-25.801-5.353z" fill="#432519" transform="translate(-1363.312 -2525.845)"/><path d="m1707.2 2646.828c-2.046-3.884-6.51-5.531-11.159-6.106-1.192 3.943 2.52 7.56 3.366 11.368.557 2.644-1.451 4.3-3.958 5.249 4.333 1.986 4.33 3.186 6.27 2.762 2.112-.46 10.658-3.453 5.481-13.273z" fill="#33190f" transform="translate(-1647.108 -2531.102)"/><path d="m1417.228 2675.587a3.652 3.652 0 0 1 -2.067-.867 25.856 25.856 0 0 0 -4.811-2.529 20.563 20.563 0 0 1 -11.716-11.136 11.193 11.193 0 0 1 -1.038-4.35 20.705 20.705 0 0 0 12.88 15.164 26.189 26.189 0 0 1 4.874 2.561c1.039.681 1.469.962 2.533.731.483-.105 4.76-1.129 6.38-4.61 1.064-2.286.722-5.117-1.014-8.414l.305-.161c1.79 3.4 2.134 6.331 1.022 8.72-1.69 3.632-6.12 4.693-6.619 4.8a3.414 3.414 0 0 1 -.729.091z" fill="#190907" transform="translate(-1363.307 -2546.332)"/><path d="m1734.375 3521.411-.049-.342c.762-.11.989.342.989.342a2.233 2.233 0 0 0 -.94 0z" fill="#8e4a00" transform="translate(-1684.149 -3369.895)"/><path d="m1231.485 2471.429s16.472 18.292 37.717 16.067c1.565-.345-14.73-8.478-14.73-8.478l-13.454-9.255z" fill="#662c16" transform="translate(-1205.034 -2368.21)"/><path d="m1235.26 2491.083-3.775.659s17.128 18.146 37.717 16.067a60.083 60.083 0 0 1 -33.942-16.726z" fill="#501a08" transform="translate(-1205.034 -2388.523)"/><path d="m1260.564 2484.325c-9.546 0-17.845-3.908-23.366-7.409a57.921 57.921 0 0 1 -10.927-8.9l-.209-.232 9.91-1.731.058.04 13.444 9.248c.226.113 3.87 1.936 7.454 3.844 7.551 4.02 7.495 4.475 7.465 4.72a.273.273 0 0 1 -.24.231 34.461 34.461 0 0 1 -3.589.189zm-33.822-16.308a58.875 58.875 0 0 0 10.649 8.612c6.138 3.891 15.731 8.287 26.614 7.178-.728-.964-9.289-5.463-14.7-8.162l-.021-.012-13.4-9.215z" fill="#210500" transform="translate(-1199.866 -2364.676)"/><path d="m1699.213 2251.2s15.864 17.186 17.321 17.186c.9-.1-1.079-12.3-10.838-24.51l-3.593 1.038z" fill="#652d16" transform="translate(-1650.692 -2152.981)"/><path d="m1699.213 2251.2s15.864 17.186 17.321 17.186c.9-.1-1.079-12.3-10.838-24.51l-3.593 1.038z" fill="#662c16" transform="translate(-1650.692 -2152.981)"/><path d="m1701.452 2295.9-2.239 4.87s15.864 17.186 17.321 17.186c-3.934-10.021-8.784-15.904-15.082-22.056z" fill="#501a08" transform="translate(-1650.692 -2202.546)"/><path d="m1711.847 2264.842c-1.509 0-15.838-15.476-17.467-17.24l-.078-.085 2.971-6.463 3.78-1.092.072.09c9.3 11.635 11.548 23.206 10.982 24.565a.321.321 0 0 1 -.26.225zm-17.135-17.39c6.047 6.547 15.873 16.795 17.076 17.041.547-.862-1.443-12.307-10.861-24.135l-3.406.984z" fill="#210500" transform="translate(-1646.013 -2149.25)"/><path d="m1590.076 2378.885s12.775 13.81 21.791 14.884c1.647-.255-9.963-15.976-16.12-19.281l-3.482.024z" fill="#662c16" transform="translate(-1546.705 -2277.429)"/><path d="m1591.583 2403.88-1.507 3.01s12.775 13.81 21.791 14.884c.093-.014.141-.08.153-.186-7.114-5.601-14.441-10.988-20.437-17.708z" fill="#501a08" transform="translate(-1546.705 -2305.434)"/><path d="m1607.673 2390.454h-.024c-8.975-1.069-21.769-14.8-21.9-14.938l-.081-.088 2.29-4.575 3.632-.025.039.021c5.957 3.2 16.661 17.544 16.361 19.3a.347.347 0 0 1 -.3.305zm-21.586-15.089c1.106 1.173 13.085 13.69 21.56 14.738a.5.5 0 0 0 -.021-.262c-.681-2.756-10.724-15.738-16.119-18.67l-3.332.023z" fill="#210500" transform="translate(-1542.508 -2273.94)"/><path d="m1434.331 2449.932c.173.307 14.156 15.1 28.973 15.127 1.838-.306-17.333-11.287-21.667-17.229z" fill="#652d16" transform="translate(-1398.309 -2347.311)"/><path d="m1437.317 2474.166-2.986.859c.173.307 14.156 15.1 28.973 15.127.069-.012.105-.04.117-.082-9.421-2.259-18.952-8.27-26.104-15.904z" fill="#501a08" transform="translate(-1398.309 -2372.404)"/><path d="m1459.029 2465.786h-.014c-7.726-.013-15.182-4.08-20.076-7.489a55.2 55.2 0 0 1 -9.046-7.726l-.107-.19 7.631-2.2.071.1c2.494 3.419 9.99 8.556 15.463 12.306 4.893 3.353 6.465 4.479 6.355 4.977a.286.286 0 0 1 -.262.217zm-28.674-15.21c1.613 1.708 14.633 14.791 28.581 14.864-.34-.563-3.307-2.6-6.181-4.566-5.443-3.729-12.878-8.825-15.475-12.29z" fill="#210500" transform="translate(-1393.977 -2347.65)"/><path d="m1680.373 1991.119s.057 3.625 4.143 2.59 4.058-10.648 3.049-14.136a15.936 15.936 0 0 0 -3.893-6.214l-2.489 10.268z" fill="#1e384d" transform="translate(-1632.741 -1895.226)"/><path d="m1682.6 2067.5-1.412 5.826-.81 7.493s.057 3.625 4.143 2.589c.042-.011.081-.027.122-.04.889-5.343-.717-10.668-2.043-15.868z" fill="#112630" transform="translate(-1632.741 -1984.928)"/><path d="m1679.675 1987.4a2.915 2.915 0 0 1 -1.822-.557 3.305 3.305 0 0 1 -1.141-2.388v-.021l.811-7.493 2.563-10.58.216.2a16.253 16.253 0 0 1 3.94 6.292c.729 2.522 1.067 9.011-.888 12.422a3.744 3.744 0 0 1 -2.284 1.929 5.714 5.714 0 0 1 -1.395.196zm-2.617-2.942a2.992 2.992 0 0 0 1.008 2.112 3.34 3.34 0 0 0 2.92.3 3.415 3.415 0 0 0 2.069-1.766c1.747-3.048 1.672-9.334.856-12.155a15.6 15.6 0 0 0 -3.631-5.922l-2.416 9.969z" fill="#040c0f" transform="translate(-1629.253 -1888.563)"/><path d="m1569.393 2216.179s3.74 7.365 7.481 5.5c2.759-1.685 0-9.7 0-9.7l-6.042-2.6z" fill="#1e384d" transform="translate(-1526.998 -2120.112)"/><path d="m1570.138 2278.857-.745 3.52s3.74 7.365 7.481 5.5c.021-.013.039-.03.059-.043-3.38-1.604-4.941-5.607-6.795-8.977z" fill="#112630" transform="translate(-1526.998 -2186.31)"/><path d="m1571.941 2217.268c-3.332 0-6.23-5.623-6.368-5.893l-.027-.054 1.495-7.063 6.306 2.71.025.073c.115.332 2.772 8.161-.073 9.9a3 3 0 0 1 -1.358.327zm-6.032-6c.347.656 3.842 7.056 7.222 5.366 2.463-1.505.2-8.617-.062-9.413l-5.777-2.483z" fill="#040c0f" transform="translate(-1523.333 -2115.23)"/><path d="m1452.316 2330.813c.921.192 5.38 7.413 9.495 4.22 2.128-2.014-3.51-9.242-3.51-9.242l-4.507-.306z" fill="#1e384d" transform="translate(-1415.445 -2230.738)"/><path d="m1453.061 2379.481-.745 2.688c.921.192 5.38 7.413 9.495 4.22.01-.01.017-.021.027-.031-4.084-.058-6.847-3.571-8.777-6.877z" fill="#112630" transform="translate(-1415.445 -2282.186)"/><path d="m1455.22 2332.343c-2.445 0-4.742-2.456-6.131-3.941a5.8 5.8 0 0 0 -1.16-1.093l-.18-.038 1.564-5.642 4.725.321.047.061c.234.3 5.709 7.376 3.493 9.473a3.769 3.769 0 0 1 -2.358.859zm-7.05-5.3a7.308 7.308 0 0 1 1.171 1.124c1.757 1.878 5.026 5.375 8.011 3.057 1.879-1.78-2.961-8.24-3.494-8.939l-4.289-.292z" fill="#040c0f" transform="translate(-1411.093 -2227.064)"/><path d="m1315.486 2389.881c.357.329 6.709 6.141 9.575 3.494 2.291-2.129-2.658-7.883-2.658-7.883l-4.458-.044z" fill="#1e384d" transform="translate(-1285.071 -2287.871)"/><path d="m1316.917 2424.709-1.432 2.581c.357.329 6.709 6.14 9.575 3.493a1.828 1.828 0 0 0 .228-.261c-3.605-.316-7.888-2.722-8.371-5.813z" fill="#112630" transform="translate(-1285.071 -2325.281)"/><path d="m1318.8 2390.731c-3.113 0-7.247-3.711-7.809-4.229l-.1-.092 2.575-4.642 4.639.046.051.059c.207.24 5.03 5.906 2.645 8.123a2.845 2.845 0 0 1 -2.001.735zm-7.474-4.392c.865.777 6.652 5.794 9.24 3.4 2.024-1.881-2.114-6.976-2.622-7.585l-4.275-.042z" fill="#040c0f" transform="translate(-1280.693 -2284.366)"/><path d="m1146.482 2389.123c.93 1.043 6.677 7.806 10.433 5.236 1.753-1.653-1.354-7.764-1.354-7.764l-6.675-.215z" fill="#1e384d" transform="translate(-1124.042 -2288.76)"/><path d="m1147.1 2412.281-1.28 1.461c.93 1.043 6.677 7.806 10.433 5.236a1.38 1.38 0 0 0 .2-.239c-4.602-.225-7.536-3.386-9.353-6.458z" fill="#112630" transform="translate(-1123.411 -2313.439)"/><path d="m1150.354 2391.574c-1.884 0-4.628-1.318-8.532-5.737l-.222-.25 2.558-2.919h.082l6.777.219.046.091c.129.254 3.145 6.246 1.319 7.968l-.021.017a3.479 3.479 0 0 1 -2.007.611zm-8.294-5.988.02.023c4.244 4.8 7.821 6.606 10.074 5.079 1.508-1.454-.983-6.7-1.354-7.46l-6.49-.209z" fill="#040c0f" transform="translate(-1119.39 -2285.223)"/><path d="m1233.2 2284.871c-.019.288 4 4.738 6.912 2.628s-2.558-8.44-2.558-8.44z" fill="#1e384d" transform="translate(-1206.669 -2186.503)"/><path d="m1234.17 2374.846-.968 1.292c-.019.288 4 4.738 6.912 2.628.044-.032.08-.068.121-.1-2.967-.376-4.463-1.841-6.065-3.82z" fill="#112630" transform="translate(-1206.669 -2277.77)"/><path d="m1234.884 2282.679a5.023 5.023 0 0 1 -2.4-.707c-1.5-.826-2.956-2.351-2.935-2.668v-.051l4.513-6.024.14.162c.153.177 3.75 4.378 3.433 7.116a2.178 2.178 0 0 1 -.9 1.576 3.087 3.087 0 0 1 -1.851.596zm-4.967-3.338a8.741 8.741 0 0 0 3.864 2.818 2.981 2.981 0 0 0 2.75-.356 1.822 1.822 0 0 0 .763-1.336c.266-2.3-2.55-5.877-3.213-6.685z" fill="#040c0f" transform="translate(-1203.187 -2180.947)"/><path d="m1332.766 2228.458s4.337 6.751 7.808 3.894c1.861-1.477-1.592-10.2-1.592-10.2l-5.351 2.685z" fill="#1e384d" transform="translate(-1301.536 -2132.276)"/><path d="m1333.47 2293.464-.7 2.946s4.254 6.621 7.708 3.971a11.4 11.4 0 0 1 -7.008-6.917z" fill="#112630" transform="translate(-1301.537 -2200.228)"/><path d="m1334.968 2228.4a3.221 3.221 0 0 1 -.505-.04c-2.857-.448-5.468-4.467-5.577-4.638l-.04-.062.9-3.775 5.592-2.806.069.175c.143.361 3.477 8.864 1.539 10.4a3.056 3.056 0 0 1 -1.978.746zm-5.752-4.8c.34.508 2.78 4.028 5.3 4.423a2.7 2.7 0 0 0 2.212-.63c1.412-1.121-.6-7.312-1.574-9.832l-5.11 2.564z" fill="#040c0f" transform="translate(-1297.801 -2127.449)"/><path d="m1436.335 2189.5s2.952 5.831 7 3.76c2.782-1.208-1.073-8.4-1.073-8.4l-7.02-.921z" fill="#1e384d" transform="translate(-1399.176 -2095.866)"/><path d="m1435.475 2185.118 1.082 5.507s2.952 5.831 7 3.759a1.5 1.5 0 0 0 .333-.2c-3.966-.078-6.533-4.977-8.415-9.066z" fill="#112630" transform="translate(-1399.398 -2096.994)"/><path d="m1437.232 2189.788a3.817 3.817 0 0 1 -1.188-.193c-2.531-.824-4.15-3.973-4.217-4.106l-.015-.045-1.14-5.8 7.346.963.042.078c.113.212 2.768 5.209 1.943 7.581a1.711 1.711 0 0 1 -.953 1.06 3.956 3.956 0 0 1 -1.818.462zm-5.086-4.435c.144.273 1.714 3.169 4.006 3.914a3.485 3.485 0 0 0 2.75-.251 1.369 1.369 0 0 0 .775-.861c.722-2.077-1.545-6.579-1.881-7.227l-6.693-.878z" fill="#040c0f" transform="translate(-1394.822 -2091.78)"/><path d="m1590.076 2099.04s3.493 6.379 6.639 5 0-10.2 0-10.2l-5.285-.556z" fill="#1e384d" transform="translate(-1546.705 -2009.487)"/><path d="m1590.805 2149.658-.729 3.1s3.493 6.379 6.639 5c.062-.027.6-.457.658-.489-2.696.257-5.62-4.178-6.568-7.611z" fill="#112630" transform="translate(-1546.705 -2063.207)"/><path d="m1592.081 2100.619c-2.925 0-5.726-5.047-5.856-5.286l-.032-.058 1.4-5.975 5.544.584.037.1c.131.366 3.162 8.991-.093 10.42a2.47 2.47 0 0 1 -1 .215zm-5.522-5.395c.355.624 3.575 6.1 6.386 4.866 2.788-1.224.276-8.906-.058-9.886l-5.024-.529z" fill="#040c0f" transform="translate(-1543.005 -2005.697)"/><path d="m1634.03 1927.384c0 .23 2.751 5.984 6.324 4.431 2.423-1.036-1.26-9.955-1.26-9.955l-3.756-.6z" fill="#1e384d" transform="translate(-1588.585 -1845.588)"/><path d="m1634.955 1959.184-.925 4.332c0 .23 2.751 5.984 6.324 4.431a1.053 1.053 0 0 0 .392-.293c-3.346-.054-4.421-5.171-5.791-8.47z" fill="#112630" transform="translate(-1588.585 -1881.72)"/><path d="m1635.632 1928.293a3.7 3.7 0 0 1 -2.034-.668 9.641 9.641 0 0 1 -3.226-4.2v-.036l1.342-6.282 4.013.638.037.09c.384.929 3.675 9.108 1.169 10.179a3.246 3.246 0 0 1 -1.301.279zm-4.911-4.872c.107.317 1.448 3.119 3.481 4.156a2.923 2.923 0 0 0 2.6.117c1.837-.786-.293-7.139-1.314-9.641l-3.5-.556z" fill="#040c0f" transform="translate(-1585.099 -1841.627)"/><path d="m1539.826 1991.81s3.4 4.6 5.812 3.28-1.381-11.163-1.381-11.163l-5.351 3.107z" fill="#1e384d" transform="translate(-1497.948 -1905.296)"/><path d="m1540.613 2028.77-1.708.991.921 4.776s3.32 4.5 5.731 3.318c-3.048-1.713-4.37-5.608-4.944-9.085z" fill="#112630" transform="translate(-1497.948 -1948.023)"/><path d="m1540.792 1990.438c-2.32 0-4.875-3.423-5-3.591l-.023-.032-.951-4.935 5.632-3.271.073.189c.157.407 3.823 10 1.3 11.377a2.123 2.123 0 0 1 -1.031.263zm-4.7-3.765c.3.393 3.41 4.382 5.567 3.2 1.831-1-.317-7.93-1.387-10.76l-5.07 2.944z" fill="#040c0f" transform="translate(-1494.055 -1900.231)"/><path d="m1427.45 1872.327s3.187 9.067 7.848 7.372c2.647-1.407-2.7-13.625-2.7-13.625l-4.776-6.541z" fill="#1e384d" transform="translate(-1391.752 -1786.772)"/><path d="m1427.634 1995.013-.184 6.4s3.187 9.067 7.848 7.372a1.009 1.009 0 0 0 .223-.161c-4.109-.796-6.365-8.466-7.887-13.611z" fill="#112630" transform="translate(-1391.752 -1915.859)"/><path d="m1430.633 1869.8a3.667 3.667 0 0 1 -1.58-.371c-3.2-1.512-5.187-7.09-5.27-7.327l-.011-.03v-.032l.382-13.3 5.092 6.981c.554 1.266 5.337 12.406 2.627 13.847l-.022.01a3.551 3.551 0 0 1 -1.218.222zm-6.513-7.783c.162.445 2.132 5.7 5.082 7.1a3.187 3.187 0 0 0 2.522.142c2.031-1.115-1.312-10.015-2.784-13.381l-4.467-6.118z" fill="#040c0f" transform="translate(-1388.249 -1776.488)"/><path d="m1518.408 1814.634c.392 1.517 4.477 5.43 6.146 3.876s-.575-8.114-.575-8.114l-2.532-6.963-2.82 3.7z" fill="#1e384d" transform="translate(-1478.419 -1733.319)"/><path d="m1518.553 1935.213-.146 4.982c.392 1.517 4.477 5.43 6.146 3.876a1.319 1.319 0 0 0 .1-.114c-3.587-.848-4.894-5.563-6.1-8.744z" fill="#112630" transform="translate(-1478.419 -1858.88)"/><path d="m1520.093 1811.852a2.665 2.665 0 0 1 -.744-.117c-1.958-.572-4.3-3.068-4.608-4.248l-.006-.024v-.024l.221-7.554 3.044-4 2.64 7.26c.094.275 2.261 6.687.531 8.3a1.526 1.526 0 0 1 -1.078.407zm-5.011-4.429a8.5 8.5 0 0 0 4.365 3.981 1.468 1.468 0 0 0 1.49-.21c1.568-1.46-.6-7.867-.621-7.931l-2.423-6.662-2.594 3.405z" fill="#040c0f" transform="translate(-1474.919 -1726.129)"/><path d="m1307.7 1987.284s2.591 4.494 5.89 2.994-1.688-12.116-1.688-12.116l-5.444-4.8v10.358z" fill="#1e384d" transform="translate(-1276.466 -1895.226)"/><path d="m1306.881 2097.255-.426 4.512 1.242 3.568s2.591 4.494 5.89 2.995a1.583 1.583 0 0 0 .427-.285c-3.614.16-5.865-6.623-7.133-10.79z" fill="#112630" transform="translate(-1276.466 -2013.276)"/><path d="m1308.747 1983.031c-2.7 0-4.662-3.345-4.685-3.385l-.014-.03-1.251-3.625v-10.74l5.757 5.081.015.032c.154.328 3.759 8.067 2.6 11.205a1.912 1.912 0 0 1 -1 1.142 3.417 3.417 0 0 1 -1.422.32zm-4.378-3.544c.158.265 2.63 4.287 5.661 2.91a1.559 1.559 0 0 0 .82-.947c1.069-2.906-2.322-10.353-2.578-10.907l-5.13-4.527v9.946z" fill="#040c0f" transform="translate(-1272.981 -1887.501)"/><path d="m1307.065 1940.889c0 .173 2.87 9.782 7.65 7.25 1.73-.921-2.551-9.445-2.551-9.445l-5.709-4.768z" fill="#1e384d" transform="translate(-1276.467 -1857.654)"/><path d="m1307.386 1944.544.566 6.462c0 .172 2.87 9.782 7.65 7.25a.6.6 0 0 0 .157-.125c-3.511.201-7.05-8.237-8.373-13.587z" fill="#112630" transform="translate(-1277.354 -1867.771)"/><path d="m1308.921 1940.684a3.388 3.388 0 0 1 -1.765-.522c-2.8-1.685-4.416-6.924-4.467-7.311l-.646-7.376 6.055 5.057.016.032c.446.888 4.3 8.7 2.478 9.676a3.548 3.548 0 0 1 -1.671.444zm-5.889-7.864c.084.478 1.793 5.823 4.579 7.2a2.95 2.95 0 0 0 2.818-.084c1.147-.611-.984-5.942-2.608-9.183l-5.362-4.478z" fill="#040c0f" transform="translate(-1272.262 -1849.602)"/><path d="m1127.267 1822.151s5.064 6.841 8.746 3.925c2.839-1.841-1.991-9.974-1.991-9.974l-3.84-11.2-4.7-5.762 1.4 13.025z" fill="#1e384d" transform="translate(-1104.033 -1729.223)"/><path d="m1156.265 2104.163.331 8.624s5.064 6.841 8.746 3.925a1.736 1.736 0 0 0 .255-.2c-4.397.749-7.697-7.041-9.332-12.349z" fill="#112630" transform="translate(-1133.363 -2019.859)"/><path d="m1129.259 1815.665a3.829 3.829 0 0 1 -.507-.034c-3.154-.419-6.216-4.51-6.345-4.684l-.032-.043-.385-10.044-1.461-13.591 5.1 6.266 3.834 11.188c.3.513 4.836 8.3 1.927 10.192a3.354 3.354 0 0 1 -2.131.75zm-6.542-4.882c.334.437 3.236 4.128 6.081 4.506a3.066 3.066 0 0 0 2.387-.655c2.682-1.74-1.985-9.671-2.032-9.751l-.015-.032-3.83-11.175-4.312-5.288 1.338 12.447z" fill="#040c0f" transform="translate(-1099.313 -1717.916)"/><path d="m1024.84 2204.327s4.077 15.191 10.829 11.585c2.072-1.535-1.381-11.432-2.378-12.468z" fill="#1e384d" transform="translate(-1008.139 -2114.455)"/><path d="m1027.344 2218.467c-.132-.4.233-1.288-.052-1.749l-2.453.256s4.077 15.191 10.829 11.585a1.049 1.049 0 0 0 .168-.158c-4.809.605-7.049-5.401-8.492-9.934z" fill="#162d38" transform="translate(-1008.139 -2127.103)"/><path d="m1029.185 2212.991a4.132 4.132 0 0 1 -1.657-.355c-4.569-1.98-7.172-11.506-7.281-11.911l-.052-.2 8.735-.913.058.061c.868.9 3.332 7.74 3.055 11.05a2.231 2.231 0 0 1 -.7 1.676l-.021.014a4.518 4.518 0 0 1 -2.137.578zm-8.549-12.161c.4 1.387 2.963 9.726 7.03 11.489a3.856 3.856 0 0 0 3.484-.2 1.947 1.947 0 0 0 .55-1.42c.258-3.088-2.041-9.648-2.906-10.721z" fill="#040c0f" transform="translate(-1003.713 -2110.809)"/><path d="m1937.291 1981.491c.949 1.643 1.485 10.281 1.51 15.191 2.557-2.839 4.321-12.56 3.766-16.727-4.278-6.213-4.935-6.6-4.935-6.6z" fill="#b14024" transform="translate(-1877.537 -1895.226)"/><path d="m1937.505 2037.318-.214 5.115c.9 1.558 1.428 9.4 1.5 14.395 1.416-5.128 2.49-10.789-1.286-19.51z" fill="#992613" transform="translate(-1877.537 -1956.168)"/><path d="m1935.1 1991.2v-.446c-.027-5.279-.6-13.579-1.486-15.106l-.025-.043v-.05l.353-8.419.248.145c.071.041.811.578 4.99 6.648l.023.034.005.041c.539 4.043-1.141 13.9-3.809 16.866zm-1.165-15.68c.972 1.813 1.451 10.322 1.5 14.753 2.432-3.265 3.926-12.329 3.432-16.185a70.519 70.519 0 0 0 -4.613-6.265z" fill="#4f0900" transform="translate(-1874.012 -1889.297)"/><path d="m2098.337 1987.629c.381.23 3.143 5.217 3.91 9.821 2.685-6.138.844-14.577.844-14.577l-6.445-9.514z" fill="#ce6c1b" transform="translate(-2029.374 -1895.226)"/><path d="m2119.894 2156.4a24.924 24.924 0 0 0 -1.909-2.934l.684 5.772c.381.23 3.143 5.217 3.91 9.821.008-7.366-1.534-11.279-2.685-12.659z" fill="#ae4a0a" transform="translate(-2049.706 -2066.835)"/><path d="m2097.023 1984.237-.1-.573a27.7 27.7 0 0 0 -3.832-9.7l-.06-.045-.019-.081-1.774-14.975 6.861 10.129.007.032c.019.085 1.823 8.565-.854 14.684zm-3.671-10.506a28.015 28.015 0 0 1 3.81 9.3c2.231-5.771.733-13.344.618-13.9l-6.028-8.9z" fill="#681b00" transform="translate(-2024.225 -1881.412)"/><path d="m2011.086 2010.223a44.852 44.852 0 0 1 5.517 14.347c2.3-4.987.7-14.884-.381-16.649s-5.757-5.294-5.757-5.294z" fill="#ce6c1b" transform="translate(-1947.259 -1923.114)"/><path d="m2014.376 2050.476a44.851 44.851 0 0 1 5.517 14.347c-.767-8.622-2.378-14.745-5.975-19.949z" fill="#ae4a0a" transform="translate(-1950.55 -1963.368)"/><path d="m2012.424 2017.674-.1-.537a45.035 45.035 0 0 0 -5.493-14.286l-.023-.036v-.042l-.652-7.979.307.232c.192.145 4.719 3.569 5.8 5.342 1.136 1.862 2.728 11.746.39 16.811zm-5.277-14.971a45.7 45.7 0 0 1 5.411 13.81c1.923-5.019.453-14.257-.591-15.966-.889-1.456-4.349-4.193-5.406-5.01z" fill="#681b00" transform="translate(-1943.153 -1915.651)"/><path d="m2015.3 1889.355s4.6 4.875 5.754 10.744c1.918-6.177.691-11.087-2.148-13.773s-6.722-4.517-8.44-4.47z" fill="#ce6c1b" transform="translate(-1947.259 -1808.04)"/><path d="m2073.929 1980.333 1.839 2.853s4.6 4.875 5.754 10.744v-.01c-.022-5.635-1.592-10.138-7.593-13.587z" fill="#ae4a0a" transform="translate(-2007.729 -1901.872)"/><path d="m2014.734 1897.315-.132-.671c-1.127-5.75-5.665-10.61-5.71-10.659l-.02-.025-5-7.757.306-.008c1.74-.052 5.686 1.8 8.563 4.517 3.158 2.988 3.979 8.2 2.195 13.949zm-5.58-11.554a26.009 26.009 0 0 1 5.642 10.156c1.491-5.361.652-10.168-2.292-12.953-2.649-2.506-6.193-4.252-8-4.412z" fill="#681b00" transform="translate(-1940.978 -1804.552)"/><path d="m1897.724 1858.393a26.231 26.231 0 0 1 4.987 7.059c2.148-1.918 0-10.2-2.148-13.273a9.233 9.233 0 0 0 -3.216-2.74 13.944 13.944 0 0 0 -6.253-1.65z" fill="#ce6c1b" transform="translate(-1833.52 -1775.581)"/><path d="m1952.775 1946.455 3.719 5.949a26.233 26.233 0 0 1 4.987 7.059l.01-.011c-.237-4.439-5.032-12.652-8.716-12.997z" fill="#ae4a0a" transform="translate(-1892.291 -1869.593)"/><path d="m1896.37 1862.244-.1-.218a26.265 26.265 0 0 0 -4.95-7l-.026-.032-6.794-10.868h.31a13.939 13.939 0 0 1 6.336 1.671 9.33 9.33 0 0 1 3.275 2.793c2.072 2.959 4.452 11.421 2.122 13.5zm-4.789-7.454a26.88 26.88 0 0 1 4.9 6.864c1.731-2.093-.164-9.759-2.342-12.871a8.991 8.991 0 0 0 -3.156-2.687 13.877 13.877 0 0 0 -5.856-1.625z" fill="#681b00" transform="translate(-1827.242 -1772.087)"/><path d="m1840.507 1903.027s1.395 9.083 1.656 13.763c2.1-1.841 4.4-12.616 3.484-16.5a16.851 16.851 0 0 0 -3.484-4.909l-2.423-.882z" fill="#b14024" transform="translate(-1784.59 -1820.091)"/><path d="m1844.62 1948.771.536 5.964s1.395 9.083 1.656 13.763c1.508-5.351 1.541-14.161-2.192-19.727z" fill="#992613" transform="translate(-1789.24 -1871.799)"/><path d="m1838.047 1912-.02-.353c-.258-4.618-1.641-13.656-1.655-13.746v-.011l-.791-8.8 2.729 1a16.884 16.884 0 0 1 3.527 4.963l.015.041c.914 3.891-1.4 14.794-3.538 16.666zm-1.332-14.147c.04.258 1.326 8.694 1.633 13.38 2-2.427 4.02-12.353 3.172-16.031a17.376 17.376 0 0 0 -3.409-4.819l-2.138-.778z" fill="#4f0900" transform="translate(-1780.626 -1814.939)"/><path d="m1650.8 1697.029a79.566 79.566 0 0 1 9.177 23.945c1.4-10.316 1.08-15.812-2.722-23.737-5.163-4.748-6.455-.208-6.455-.208z" fill="#1e384d" transform="translate(-1604.562 -1630.07)"/><path d="m1651.14 1709.023c-1.623.184-1.223 1.3-1.223 1.3.373.652 7.425 13.548 9.177 23.944-.934-14.234-4.444-18.787-7.954-25.244z" fill="#112630" transform="translate(-1603.681 -1643.363)"/><path d="m1656.258 1718.492-.205-.982a80.059 80.059 0 0 0 -9.059-23.727c-.046-.078-.079-.134-.1-.167l-.036-.063.02-.07a3.025 3.025 0 0 1 1.883-1.991c1.3-.365 2.929.348 4.855 2.118l.024.022.014.03c3.979 8.3 4.06 14.058 2.737 23.835zm-9.025-24.982.057.1a80.309 80.309 0 0 1 8.891 22.86c1.172-9.1.97-14.705-2.822-22.624-1.819-1.667-3.333-2.346-4.5-2.019a2.668 2.668 0 0 0 -1.626 1.683z" fill="#040c0f" transform="translate(-1600.809 -1626.571)"/><path d="m1642.566 1732.3s2.17 5.562 4.833 4.212-.4-8.889-.4-8.889l-2.353-4.68z" fill="#1e384d" transform="translate(-1596.719 -1656.627)"/><path d="m1643.273 1853.82-.707 3.182s2.17 5.562 4.833 4.212a1.6 1.6 0 0 0 .232-.144c-2.331-1.486-3.544-4.31-4.358-7.25z" fill="#112630" transform="translate(-1596.719 -1781.328)"/><path d="m1642.921 1726.586a2.07 2.07 0 0 1 -.742-.142c-1.968-.751-3.349-4.242-3.407-4.391l-.019-.049.011-.051 2.183-9.83 2.57 5.113c.133.326 3.1 7.714.327 9.12a2.024 2.024 0 0 1 -.923.23zm-3.808-4.61c.173.422 1.482 3.494 3.189 4.146a1.63 1.63 0 0 0 1.386-.073c2.492-1.264-.454-8.6-.484-8.67l-2.129-4.235z" fill="#040c0f" transform="translate(-1593.086 -1646.316)"/><path d="m1843.039 1811.452c.921.483 4.3 6.061 5.754 10.358 1.995-1.841.077-11.509-2.225-14.117s-6.828-4.258-6.828-4.258z" fill="#b14024" transform="translate(-1784.589 -1733.32)"/><path d="m1856.156 1843.335 2.524 6.135c.921.483 4.3 6.061 5.754 10.357.019-.017.035-.04.053-.058-.053-5.054-2.927-13.015-8.331-16.434z" fill="#992613" transform="translate(-1800.231 -1771.338)"/><path d="m1842.481 1816.135-.085-.251c-1.5-4.413-4.834-9.821-5.671-10.26l-.056-.029-3.471-8.437.368.134c.187.068 4.594 1.695 6.9 4.306 2.383 2.7 4.254 12.474 2.213 14.358zm-5.538-10.783c1.021.672 4.184 5.9 5.683 10.14 1.582-2.2-.246-11.2-2.421-13.667-1.864-2.113-5.26-3.608-6.385-4.064z" fill="#4f0900" transform="translate(-1778.356 -1727.339)"/><path d="m1750.294 1726.4s6.291 5.6 7.9 11.545c1-1.034 1.534-9.781-7.135-15z" fill="#1e384d" transform="translate(-1699.363 -1656.627)"/><path d="m1750.732 1754.234-.439 1.976s6.291 5.6 7.9 11.545a1.31 1.31 0 0 0 .248-.449 23.325 23.325 0 0 0 -7.709-13.072z" fill="#112630" transform="translate(-1699.363 -1686.441)"/><path d="m1754.263 1732.8-.08-.294c-1.579-5.829-7.788-11.406-7.851-11.461l-.076-.067.841-3.786.206.124a15.105 15.105 0 0 1 7.652 11.036c.281 2.132-.039 3.771-.481 4.23zm-7.625-11.944c.7.647 6.112 5.744 7.768 11.177a7.893 7.893 0 0 0 .207-3.637 14.723 14.723 0 0 0 -7.283-10.66z" fill="#040c0f" transform="translate(-1695.517 -1651.143)"/><path d="m976.576 1875.76c.851 2.33 5.217 5.87 8.9 7.711-1.688-9.9-4.45-12.909-4.45-12.909l-6.368-11.029v11.967z" fill="#972c16" transform="translate(-960.325 -1786.772)"/><path d="m988.973 1884.324c1.407 8.239 4.4 16.482 10.114 22.606-1.69-9.766-4.421-12.747-4.421-12.747z" fill="#812216" transform="translate(-973.965 -1810.393)"/><path d="m982.218 1870.769-.3-.152c-3.621-1.811-8.092-5.375-8.983-7.8l-1.935-4.287v-12.65l6.681 11.571c.235.265 2.844 3.392 4.48 12.982zm-10.873-12.313 1.908 4.236c.833 2.281 5 5.636 8.509 7.459-1.661-9.443-4.321-12.452-4.348-12.482l-.022-.03-6.046-10.471z" fill="#210500" transform="translate(-956.84 -1773.763)"/><path d="m796.848 712.413s-14.654 21.636-3.683 36.981a11.467 11.467 0 0 1 .23-5.754s1.573 7.327 9.744 14.117c-3.146-5.677-4.68-17.8-4.68-17.8s1.688 8.593 11.355 17.8c.921-8.9-3.069-18.72-3.069-18.72s5.6 8.977 6.445 15.5c2.992-2.3 1.074-14.117 1.074-14.117a16.919 16.919 0 0 0 5.447 10.895 61.611 61.611 0 0 1 1.074-9.284 18.609 18.609 0 0 1 2.532 8.363c3.3-2.916 3.453-12.659 3.453-12.659a13.882 13.882 0 0 0 3.606 7.212 109.433 109.433 0 0 1 1.228-11.2 13.256 13.256 0 0 1 2.148 4.68c2.992-2.685 2.681-13.753 1.841-17.723-1.995-9.437-8.977-19.948-9.284-22.94s-1.534-12.583-14.577-15.728-19.027 4.81-19.027 4.81l8.713 10.688z" fill="#972c16" transform="translate(-783.513 -664.126)"/><path d="m1053.151 1875.068s2.972 13.251 5.884 16.535c-4.186-4.503-7.34-11.645-5.884-16.535z" fill="#b04016" transform="translate(-1034.771 -1801.574)"/><path d="m884.5 1838.286s-1.862 7.136 4.7 16.309c-3.464-6.306-4.7-16.309-4.7-16.309z" fill="#b04016" transform="translate(-874.186 -1766.527)"/><path d="m805.982 1672.429s-6.611 5.394-2.565 16.232a49.816 49.816 0 0 1 2.565-16.232z" fill="#b04016" transform="translate(-795.915 -1608.496)"/><path d="m1175.124 1644.484s-2.669 6.581 0 12.234 3.16 7.24 3.43 8.993c.159-2.922-1.765-7.059-2.562-10.025a45.982 45.982 0 0 1 -.868-11.202z" fill="#b04016" transform="translate(-1150.203 -1581.869)"/><path d="m1322.637 1934.332a10.855 10.855 0 0 0 .229 1.679c-.123-1.027-.229-1.679-.229-1.679z" fill="#501a08" transform="translate(-1291.886 -1858.041)"/><path d="m1687.912 1787.3c.014-.092.024-.159.031-.2q-.049-.174-.1-.346c.022.176.044.36.069.546z" fill="#501a08" transform="translate(-1639.862 -1717.42)"/><g fill="#812216"><path d="m1009.279 720.7c-1.995-9.437-8.977-19.948-9.284-22.94s-1.534-12.583-14.577-15.728c-6.275-1.513-10.915-.457-14.042 1.046 3.938.214 7.045.109 10.988.237 5.927.192 13.293 3.851 14.409 10.072 2.255 12.583 4.528 11.72 9.444 26.3a45.945 45.945 0 0 1 1.313 18.4c-.806-1.8-1.838-4.375-2.528-5.757 0 .7.1.426.18 1.123q.05.173.1.346l.009-.058a13.256 13.256 0 0 1 2.148 4.68c2.991-2.683 2.679-13.751 1.84-17.721z" transform="translate(-957.198 -664.127)"/><path d="m1516.14 1738.09c2.915-2.743 3.32-10.769 3.369-12.254-.7-2.576-1.688-5.127-1.834-7.771-2.075 3.913 1.243 13.735-1.535 20.025z" transform="translate(-1476.259 -1651.978)"/><path d="m1405.767 1818.181a75.965 75.965 0 0 1 1.027-8.73 35.414 35.414 0 0 1 -1.507-8.456 29.292 29.292 0 0 0 .48 17.186z" transform="translate(-1369.626 -1730.996)"/><path d="m1268.3 1760.76c1.811-1.875 1.534-7.695 1.179-11.181a56.315 56.315 0 0 1 -2.109-12c-2.791 7.882 2.016 15.402.93 23.181z" transform="translate(-1238.384 -1670.571)"/><path d="m950.69 1805.542c.228.2.226.293.465.492-3.146-5.677-4.68-17.8-4.68-17.8s.08.4.3 1.13c-.473-2.627-.467-5.254-.992-7.881-3.393 8.217.129 17.299 4.907 24.059z" transform="translate(-931.529 -1712.403)"/><path d="m842.034 1825.414c-1.889 2.6-2.451 9.579.024 14.116a11.467 11.467 0 0 1 .23-5.754s-.993-6.493-.254-8.362z" transform="translate(-832.405 -1754.262)"/><path d="m1117.99 1847.795c.892-8.881-3.076-18.649-3.076-18.649s.145.232.39.647c-.668-1.469-1.22-2.937-1.771-4.406-2.991 4.719 1.285 15.288 4.457 22.408z" transform="translate(-1091.682 -1754.236)"/><path d="m1642 1688.8c-1.324 4-2.244 11.585-.3 15.872.048-3.107.98-9.359 1.185-10.7-.025-.183-.047-.367-.068-.55a12.565 12.565 0 0 1 -.817-4.622z" transform="translate(-1594.827 -1624.091)"/></g><path d="m800.61 755.139-.707-.587a29.734 29.734 0 0 1 -9.64-13.621 12.938 12.938 0 0 0 -.053 5.1l.122.735-.433-.606c-5.709-7.984-4.4-17.674-2.3-24.4a54.669 54.669 0 0 1 5.966-12.76l4.535-14.772-8.74-10.721.081-.108c.061-.08 6.2-8.01 19.206-4.874 5.607 1.352 9.7 4.043 12.171 8a18.052 18.052 0 0 1 2.538 7.88c.119 1.161 1.3 3.541 2.791 6.554 2.231 4.5 5.285 10.669 6.49 16.368.834 3.949 1.2 15.106-1.9 17.887l-.215.193-.068-.28a13.636 13.636 0 0 0 -1.874-4.275 101.885 101.885 0 0 0 -1.161 10.756v.431l-.3-.312a14.369 14.369 0 0 1 -3.365-5.993c-.17 2.793-.842 9.142-3.454 11.451l-.275.243-.012-.366a18.533 18.533 0 0 0 -2.276-7.881 60.242 60.242 0 0 0 -.985 8.8l-.007.39-.284-.268a17.936 17.936 0 0 1 -4.713-7.295c.313 3.705.377 9.018-1.585 10.528l-.238.183-.038-.3c-.618-4.778-3.851-10.956-5.48-13.829 1.088 3.24 3.132 10.43 2.447 17.047l-.036.35-.255-.243a41.9 41.9 0 0 1 -10.717-15.644c.613 3.793 2.052 11.348 4.319 15.44zm-5.11-18.553c.017.085 1.763 8.5 11.048 17.462.767-8.661-3.052-18.188-3.091-18.284l.306-.156c.055.089 5.448 8.789 6.424 15.245 1.956-2.037 1.375-9 .993-12.162a10.849 10.849 0 0 1 -.218-1.606l.343-.032c.017.105.116.725.229 1.655a17.442 17.442 0 0 0 4.885 8.871 63.557 63.557 0 0 1 1.068-8.921l.085-.423.231.365a19.093 19.093 0 0 1 2.54 8.065c2.946-3.115 3.124-12.178 3.125-12.272l.344-.018a13.837 13.837 0 0 0 3.268 6.8c.092-3.544 1.212-10.718 1.224-10.793l.061-.39.245.309a13.222 13.222 0 0 1 2.106 4.452c2.656-2.909 2.424-13.357 1.58-17.352-1.2-5.656-4.239-11.8-6.461-16.286-1.508-3.044-2.7-5.449-2.825-6.672-.844-8.229-5.7-13.47-14.446-15.578-11.968-2.886-17.995 3.721-18.765 4.642l8.683 10.651-4.619 15.019a54.155 54.155 0 0 0 -5.937 12.7c-2.024 6.476-3.307 15.731 1.834 23.478a10.951 10.951 0 0 1 .347-5.113l.211-.518.118.547c.015.071 1.568 6.945 9.019 13.453-2.855-5.9-4.28-16.961-4.3-17.077z" fill="#210500" transform="translate(-780.387 -660.789)"/><path d="m781.288 1074.142s1.5 2.474 0 3.165-7.193 1.5-7.078 6.675c.057 3.453 4.719 4.776 4.719 4.776l7.365-4.891 1.611-7.711z" fill="#cf2323" transform="translate(-769.334 -1038.438)"/><path d="m775.342 1230.916c-.568-.284-1.123-.891-.939-2.752a5.892 5.892 0 0 0 -.192 1.672c.058 3.453 4.719 4.776 4.719 4.776l4.8-3.188c-.547-1.39-.968-2.864-1.588-4.205-2.014 1.481-4.881 4.636-6.8 3.697z" fill="#ae0d10" transform="translate(-769.335 -1184.292)"/><path d="m775.472 1082.96-.077-.022c-.2-.055-4.785-1.4-4.844-4.939-.1-4.447 3.967-5.763 6.151-6.469a10.67 10.67 0 0 0 1.027-.365.89.89 0 0 0 .51-.57 3.823 3.823 0 0 0 -.585-2.349l-.233-.386 7.2 2.191-1.658 7.935zm2.679-14.517a3.462 3.462 0 0 1 .419 2.252 1.234 1.234 0 0 1 -.7.782 10.791 10.791 0 0 1 -1.065.38c-2.246.727-6.005 1.943-5.912 6.134.051 3.052 3.928 4.4 4.518 4.591l7.238-4.807 1.564-7.487z" fill="#4f0005" transform="translate(-765.847 -1032.452)"/><path d="m691.893 897.768s-5.754-1.084-8.056-4.912c-.46-.846-6.474 2.265-8.746 7.271-.921 1.841-.4 3.309-.23 3.4s1.649-1.292 2.81-1.88c1.554.288 5.16-.221 8.3.527.633 1.151 2.359.633 2.829-.24 1.337-1.557 3.093-4.166 3.093-4.166z" fill="#fba419" transform="translate(-674.386 -865.574)"/><path d="m684.2 893.667c-.064-.095-.29-.713-.349-.811-.46-.846-6.474 2.265-8.746 7.271a4.393 4.393 0 0 0 -.456 2.862c-.079-3.589 5.17-7.811 9.551-9.322z" fill="#ffc571" transform="translate(-674.397 -865.574)"/><path d="m746.2 1056.028c1.769.111 5.268-.053 8.027.605.633 1.151 2.359.633 2.829-.24.264-.305 1.327-1.078 1.606-1.437a35.833 35.833 0 0 0 -12.462 1.072z" fill="#e47f05" transform="translate(-742.643 -1020.038)"/><path d="m696.081 968.375a39.811 39.811 0 0 1 -3.922-1.554c-5.263.359-10.878 4.152-13.2 7.178a.313.313 0 0 0 .094.13c.173.086 1.649-1.292 2.81-1.88 4.464-2.397 8.989-3.366 14.218-3.874z" fill="#e47f05" transform="translate(-678.574 -936.181)"/><path d="m671.393 900.213a.21.21 0 0 1 -.1-.023c-.214-.107-.361-.69-.39-1.184a4.824 4.824 0 0 1 .543-2.443c2.032-4.475 6.973-7.448 8.515-7.5.334-.012.477.117.538.228 2.231 3.709 7.88 4.814 7.936 4.825l.257.049-.146.217c-.018.026-1.766 2.62-3.1 4.165a2.169 2.169 0 0 1 -1.79.978 1.441 1.441 0 0 1 -1.293-.686 24.486 24.486 0 0 0 -5.629-.41 16.776 16.776 0 0 1 -2.527-.088 14.136 14.136 0 0 0 -1.819 1.242c-.605.458-.837.63-.995.63zm8.617-10.81h-.032c-1.436.052-6.269 3.02-8.216 7.308a3.813 3.813 0 0 0 -.325 3.13c.147-.081.463-.322.747-.539a13.827 13.827 0 0 1 1.923-1.3l.052-.026.057.011a15.743 15.743 0 0 0 2.521.093 24.451 24.451 0 0 1 5.784.437l.074.018.037.067a1.109 1.109 0 0 0 1.029.575 1.82 1.82 0 0 0 1.5-.813l.021-.031c1.1-1.272 2.494-3.281 2.941-3.934-1.161-.261-5.852-1.506-7.916-4.939-.018-.027-.069-.06-.197-.06z" fill="#8e4a00" transform="translate(-670.9 -862.087)"/><path d="m738.853 1006.878-.172-.3c.064-.037 6.5-3.693 13.2-3.568l-.007.345c-6.601-.122-12.957 3.486-13.021 3.523z" fill="#8e4a00" transform="translate(-735.483 -970.66)"/><path d="m826.614 716.132c.062-.686-.014.4 1.295-2.136s4.321-6.758 13.083-6.33c6.625 2.2 11.861 3.568 12.9 9.083.518 3.4 1.439 9.273-4.488 12.495s-6.445 3.74-7.02 6.675-2.014 8.919-10.012 9.034c-3.8.057-8.459-4.143-7.423-9.552a7.306 7.306 0 0 1 6.1-6.013c1.406-.112 1.767-1.073.184-3.144a3.268 3.268 0 0 1 .912-2.726c.41-.414.937-.951.659-1.525-.288-.594-1.239-.864-2.445-1.323-1.818-.69-3.774-3.279-3.745-4.538z" fill="#cf2323" transform="translate(-817.537 -689.224)"/><path d="m854.02 757.45c-.71-3.781-3.394-5.611-7.146-7.1 6.756 3.846 5.841 10.156 4.384 12.976-3.011-1.5-6.876.164-9.177 2.005-4.143 3.683-1.9 8.521-3.737 12.894-1.381 3.453-5.6 4.506-8.939 3.336a5.9 5.9 0 0 1 -4.074-6.554c-1.9 6.33 3.452 10.7 7.168 10.645 8-.115 9.437-6.1 10.012-9.034s1.093-3.453 7.02-6.675 5.007-9.09 4.489-12.493z" fill="#ae0d10" transform="translate(-817.668 -729.925)"/><path d="m1159.343 1016.962a10.473 10.473 0 0 0 -7.594 2.322 6.445 6.445 0 0 0 -1.339 1.641 8.971 8.971 0 0 0 -.173 5.049c.54 1.98 1.814 3.882 1.733 5.578.082-.352.151-.683.209-.981.575-2.935 1.093-3.453 7.02-6.675a8.12 8.12 0 0 0 3.967-4.034c-.736-1.949-1.893-2.476-3.823-2.9z" fill="#cf2323" transform="translate(-1127.336 -983.876)"/><path d="m1160.281 1019.409c-2.279.977-3.777 2.931-5.926 4.233-.326.2-1.172.391-1.3-.2a3.315 3.315 0 0 1 .391-2.605 6.65 6.65 0 0 1 9.354-1.779c-.74-1.308-1.819-1.742-3.455-2.1a10.473 10.473 0 0 0 -7.594 2.322 6.445 6.445 0 0 0 -1.339 1.641 8.971 8.971 0 0 0 -.173 5.049c.54 1.98 1.814 3.882 1.733 5.578.082-.352.151-.683.209-.981.575-2.935 1.093-3.453 7.02-6.675a8.12 8.12 0 0 0 3.967-4.034 5.982 5.982 0 0 0 -.288-.65 4.151 4.151 0 0 0 -2.599.201z" fill="#ae0d10" transform="translate(-1127.336 -983.876)"/><path d="m828.8 741.622a7.814 7.814 0 0 1 -5.705-2.936 8.079 8.079 0 0 1 -1.809-6.821c.873-3.957 3.854-5.962 6.255-6.153.538-.043.875-.209 1-.494.147-.329.1-1.007-.942-2.373l-.02-.027-.009-.032a3.45 3.45 0 0 1 .956-2.893c.466-.471.835-.9.626-1.328s-.935-.712-1.845-1.048c-.163-.06-.332-.123-.506-.189-1.895-.722-3.882-3.378-3.851-4.7v-.012c.024-.265.031-.345.172-.441.088-.059.356-.241 1.141-1.759 2.4-4.641 6.732-6.741 13.245-6.423l.046.008q.64.213 1.263.417c6.013 1.977 10.762 3.538 11.75 8.8l.008.049c.533 3.5 1.425 9.363-4.583 12.629-5.849 3.18-6.367 3.67-6.933 6.557-.485 2.476-1.775 9.053-10.179 9.174zm-.9-18.958c.9 1.191 1.227 2.1.961 2.694a1.394 1.394 0 0 1 -1.29.7c-2.351.187-5.148 2.266-5.944 5.878a7.738 7.738 0 0 0 1.735 6.53 7.412 7.412 0 0 0 5.516 2.812c8.124-.117 9.375-6.494 9.846-8.895.589-3 1.187-3.574 7.107-6.793 5.8-3.151 4.926-8.862 4.407-12.274l-.007-.044c-.949-5.054-5.613-6.587-11.517-8.528l-1.241-.41c-6.35-.3-10.571 1.735-12.9 6.238-.825 1.6-1.115 1.793-1.254 1.887-.007.037-.014.116-.02.179-.021 1.2 1.882 3.7 3.629 4.368.173.066.342.128.5.188.983.363 1.76.65 2.036 1.222.332.687-.284 1.309-.692 1.721a3.146 3.146 0 0 0 -.872 2.527z" fill="#4f0005" transform="translate(-814.05 -685.72)"/><path d="m801.26 348.055c1.694.754 2.133-1.759 4.766-4.178a17.926 17.926 0 0 1 14.884-4.066c3.51.46 4.949 2.417 8.977.691s6.53-8.242 4.919-13.133c-.575-1.784-2.387.647-3.6-.274s1.072-3.415.173-4.22c-1.458-1.3-4.546 4.1-6.5 3.011s1.036-4.373-.633-4.776-4.2 3.625-5.064 5.121-2.417 2.532-3.395 1.669.947-5.107-.978-5.236c-3.414-.23-4.373 9.264-6.445 9.149s-.518-5.123-2.82-4.776c-3.05.46-.748 10.243-2.474 11.048-.989.462-1.5-1.956-3.165-1.554s1.093 4.028.69 6.33-1.023 4.439.665 5.194z" fill="#ce2323" transform="translate(-793.305 -320.909)"/><path d="m850.317 361.22c-.575-1.784-2.387.647-3.6-.274s1.072-3.415.173-4.22a.819.819 0 0 0 -.172-.116c.459.8-2.4 3.718-.663 5.2 1.367.834 2.374-.209 3.059.652.64.805.184 2.954-.038 4.066a5.471 5.471 0 0 1 -3.913 4.373c-6.215 1.841-13.81-.806-19.334 1.5-3.222 1.381-4.848 3.294-7.507 5.743-.983.906-2.249.731-2.362-.492-.633 2.23-.306 3.765.806 4.26 1.694.754 2.133-1.759 4.766-4.178a17.926 17.926 0 0 1 14.884-4.066c3.51.46 4.949 2.417 8.977.691s6.535-8.248 4.924-13.139z" fill="#ae0d10" transform="translate(-808.816 -354.761)"/><path d="m922.744 451.278a1.44 1.44 0 0 0 2.42.567c0-.07.048-.118.078-.225a.729.729 0 0 1 -.4.1c-2.072-.115-.518-5.123-2.82-4.776a1.3 1.3 0 0 0 -.412.134c1.29.23.532 2.994 1.134 4.2z" fill="#ae0d10" transform="translate(-909.783 -440.816)"/><path d="m1121.984 359.545c.159.794 1.412 1.04 2.1.588a1.235 1.235 0 0 1 -1.006-.3c-.978-.863.947-5.107-.978-5.236-.025 0-.049 0-.074 0 .589 1.584-.492 3.375-.042 4.948z" fill="#ae0d10" transform="translate(-1100.593 -352.842)"/><path d="m1307.063 325.23a1.71 1.71 0 0 0 1.917.97c-.1-.024-.289-.256-.382-.309-1.957-1.093 1.036-4.373-.633-4.776a1.127 1.127 0 0 0 -.5 0c.735.145-.632 2.964-.402 4.115z" fill="#ae0d10" transform="translate(-1277.021 -320.915)"/><path d="m798.367 344.885a1.585 1.585 0 0 1 -.646-.152c-1.629-.725-1.273-2.626-.9-4.64.046-.244.092-.492.136-.742a7.622 7.622 0 0 0 -.68-3.412c-.4-1.126-.74-2.1-.438-2.655a.816.816 0 0 1 .557-.4 2.139 2.139 0 0 1 2.129.986c.427.469.684.728 1 .579.641-.3.64-2.383.639-4.4 0-2.991 0-6.38 1.883-6.665a1.179 1.179 0 0 1 .918.194c.55.415.667 1.326.791 2.29.148 1.153.288 2.243 1.146 2.29.791.048 1.474-1.743 2.207-3.635 1.027-2.649 2.2-5.65 4.239-5.514a1 1 0 0 1 .73.348c.461.553.337 1.649.217 2.71-.106.94-.216 1.912.134 2.221a1.074 1.074 0 0 0 .925.253 3.652 3.652 0 0 0 2.206-1.878c.985-1.708 3.472-5.633 5.254-5.2a.815.815 0 0 1 .546.375c.246.426.058 1.057-.158 1.788-.309 1.041-.628 2.117.289 2.63.893.5 2.124-.584 3.316-1.63 1.229-1.08 2.39-2.1 3.218-1.359.508.455.215 1.251-.1 2.093s-.629 1.705-.087 2.118c.472.359 1.088.108 1.683-.136a1.873 1.873 0 0 1 1.431-.222 1.093 1.093 0 0 1 .541.716c1.631 4.951-.853 11.561-5.015 13.345a7.346 7.346 0 0 1 -6.175.059 14.775 14.775 0 0 0 -2.892-.737 17.823 17.823 0 0 0 -14.745 4.022 16.7 16.7 0 0 0 -2.233 2.609c-.712.984-1.271 1.751-2.066 1.751zm-.506-.467c.88.391 1.341-.173 2.3-1.488a17 17 0 0 1 2.279-2.66 18.173 18.173 0 0 1 15.029-4.11 15.048 15.048 0 0 1 2.951.751 7.063 7.063 0 0 0 5.93-.049c4.015-1.721 6.4-8.121 4.823-12.921a.781.781 0 0 0 -.358-.51c-.279-.13-.7.044-1.154.229-.653.267-1.394.57-2.023.091-.745-.567-.364-1.6-.027-2.512.269-.729.523-1.418.19-1.717-.6-.536-1.649.385-2.759 1.361-1.281 1.126-2.607 2.29-3.712 1.672-1.158-.647-.767-1.968-.452-3.029.186-.627.362-1.22.19-1.518a.481.481 0 0 0 -.328-.212c-1.273-.305-3.352 2.4-4.874 5.04a3.993 3.993 0 0 1 -2.449 2.046 1.423 1.423 0 0 1 -1.209-.334c-.485-.428-.37-1.444-.248-2.519.112-.989.228-2.011-.139-2.45a.655.655 0 0 0 -.488-.224c-1.8-.12-2.91 2.756-3.894 5.294-.814 2.1-1.518 3.917-2.548 3.855-1.145-.064-1.318-1.406-1.47-2.591-.109-.851-.222-1.731-.656-2.059a.837.837 0 0 0 -.658-.128c-1.593.24-1.591 3.472-1.589 6.323 0 2.317 0 4.318-.838 4.711-.565.263-.991-.206-1.4-.659-.483-.53-.981-1.078-1.793-.883a.474.474 0 0 0 -.334.23c-.229.422.105 1.371.46 2.376a7.835 7.835 0 0 1 .695 3.586c-.044.251-.09.5-.137.746-.366 1.957-.681 3.647.7 4.261z" fill="#4f0005" transform="translate(-789.836 -317.429)"/><path d="m1052.379 741.652c-.084.021-.316-1.18.14-1.289.671-.161 5.015-.871 6 2.791-1.233-2.013-4.577-1.898-6.14-1.502z" transform="translate(-1034.252 -720.253)"/><path d="m1233.453 902.876a2.419 2.419 0 1 0 2.419 2.419 2.422 2.422 0 0 0 -2.419-2.419z" fill="#501a08" transform="translate(-1204.605 -875.253)"/><path d="m1237.65 905.356a2.068 2.068 0 1 0 2.068 2.068 2.071 2.071 0 0 0 -2.068-2.068z" fill="#662c16" transform="translate(-1208.938 -877.616)"/><path d="m1230.011 904.324a2.589 2.589 0 1 1 2.589-2.589 2.592 2.592 0 0 1 -2.589 2.589zm0-4.834a2.244 2.244 0 1 0 2.244 2.244 2.247 2.247 0 0 0 -2.244-2.244z" fill="#210500" transform="translate(-1201.163 -871.698)"/><path d="m1148.9 1026.71-.344-.03a5.926 5.926 0 0 0 -.806-3.156 10.218 10.218 0 0 1 -1.2-4.81c.039-4.378 3.924-5.881 5.791-6.6a7.474 7.474 0 0 1 5.769.379 3.675 3.675 0 0 1 1.96 2.49l-.338.07a3.34 3.34 0 0 0 -1.787-2.256 7.209 7.209 0 0 0 -5.479-.361c-2.874 1.112-5.537 2.644-5.57 6.285a9.924 9.924 0 0 0 1.164 4.662 6.276 6.276 0 0 1 .84 3.327z" fill="#4f0005" transform="translate(-1124.107 -978.945)"/><path d="m865.056 1833.819a46.254 46.254 0 0 1 -.574-5.616 5.031 5.031 0 0 1 .487-2.79c-.492 2.08.319 7.929.421 8.318z" fill="#210500" transform="translate(-855.341 -1754.262)"/><path d="m907.136 1740.008s1.161 8.98 4.437 12.386a28.851 28.851 0 0 1 1.649-12c.69-1.494-6.086-.386-6.086-.386z" fill="#972c16" transform="translate(-895.989 -1672.508)"/><path d="m976.047 1756.185a6.181 6.181 0 0 0 -2.516 3.054c-1.326 4.016.621 8.69.867 8.947-.637-4.056.958-10.505 1.649-12.001z" fill="#812216" transform="translate(-958.814 -1688.3)"/><path d="m911.654 1760.9-.363-.377c-1.966-2.044-3.229-5.988-3.936-8.895a13.738 13.738 0 0 1 -.377-3.611c.013.086 1.261 8.281 4.205 11.865a29.694 29.694 0 0 1 .55-7.906 8.24 8.24 0 0 1 1.33-3.573 29.459 29.459 0 0 0 -1.477 11.978z" fill="#210500" transform="translate(-895.832 -1680.516)"/><path d="m1050.588 1632.354s-.521 7.434 7.228 13.649c-2.762-6.214-2.47-13.048-.965-16.347s-6.263 2.698-6.263 2.698z" fill="#972c16" transform="translate(-1032.666 -1566.797)"/><path d="m1127.157 1655.339c-4.36 4.264-2.885 11.466.895 15.925.063.051.121.1.185.154-2.69-6.052-2.483-12.689-1.08-16.079z" fill="#812216" transform="translate(-1103.086 -1592.212)"/><path d="m1055.738 1666.589-.554-.445a19.693 19.693 0 0 1 -6.938-10.2 7.42 7.42 0 0 1 -.183-3.585c0 .072-.237 7.074 6.791 13.063a25.476 25.476 0 0 1 -1.767-12.316 8.321 8.321 0 0 1 1.24-3.446c-1.5 3.289-1.618 10.112 1.123 16.277z" fill="#210500" transform="translate(-1030.141 -1586.804)"/><path d="m1371.288 1652.687a22.5 22.5 0 0 0 4.757 13.569c-1.611-5.9.165-15.283.7-17.048z" fill="#972c16" transform="translate(-1338.236 -1586.371)"/><path d="m1346.657 1480.857s3.3 7.739 3.238 12.605c1.638-4.84.682-10.542-3.238-12.605z" fill="#b04016" transform="translate(-1314.773 -1425.963)"/><path d="m1430.992 1670.809c-1.35-5.673.159-14.15.746-16.347-3.838 3.615-3.027 12.438-.746 16.347z" fill="#812216" transform="translate(-1393.297 -1591.377)"/><path d="m1372.993 1667.082-.542-.722a22.9 22.9 0 0 1 -4.791-13.683l.345.02a22.376 22.376 0 0 0 4.211 12.75c-.886-4.165-.413-9.653.117-13.147a12.807 12.807 0 0 1 .958-3.092c-.482 1.584-2.158 11.064-.536 17z" fill="#210500" transform="translate(-1334.779 -1586.371)"/><path d="m1229.751 1605.447s4.536 12.449 4.076 18.74c1.458-2.225 3.479-9.163 2.712-15.531z" fill="#972c16" transform="translate(-1203.383 -1544.674)"/><path d="m1070.839 1574.99a15.328 15.328 0 0 0 1.292 15.167 32.138 32.138 0 0 1 -1.292-15.167z" fill="#b04016" transform="translate(-1050.598 -1515.654)"/><path d="m945.133 1640.827s-2.65 6.133-1.854 11.557c-1.968-1.27-2.198-9.596 1.854-11.557z" fill="#b04016" transform="translate(-929.12 -1578.385)"/><path d="m1247.213 1574.99s4.344 11.383 3.559 15.512c1.035-4.787-.145-12.102-3.559-15.512z" fill="#b04016" transform="translate(-1220.021 -1515.654)"/><path d="m1318.845 1642.366-.454-1.539a75.838 75.838 0 0 1 -2.234 16.6c-.005.161-.013.319-.024.473 1.458-2.227 3.479-9.166 2.712-15.534z" fill="#812216" transform="translate(-1285.689 -1578.385)"/><path d="m1233.606 1624.839.049-.665c.452-6.184-3.86-18.6-3.9-18.728a10.794 10.794 0 0 1 1.257 2.763c1.194 3.881 3.1 10.819 3.022 15.281a29.543 29.543 0 0 0 2.464-14.935 6.573 6.573 0 0 1 .5 3.144c-.084 5.434-1.815 10.738-3.023 12.581z" fill="#210500" transform="translate(-1203.383 -1544.674)"/><path d="m1501.906 1605.833a33.077 33.077 0 0 0 3.935 13.738c1.724-5.751.555-14.94.555-14.94z" fill="#972c16" transform="translate(-1462.696 -1543.898)"/><path d="m1565.2 1604.632s-.711 8.617-1.577 12.9c.067.126.953 1.914 1.022 2.041 1.728-5.753.555-14.941.555-14.941z" fill="#812216" transform="translate(-1521.505 -1543.898)"/><path d="m1503.688 1620.016-.2-.361a35.809 35.809 0 0 1 -3.722-10.683 8.622 8.622 0 0 1 -.061-3.139 35.188 35.188 0 0 0 3.885 13.283c1.534-5.672.615-14.395.6-14.484a10.266 10.266 0 0 1 .557 3.006c.148 3.215.152 8.318-.947 11.983z" fill="#210500" transform="translate(-1460.496 -1543.898)"/><path d="m1631.981 1586s.6 7.843 3.051 11.257c1-2.263.365-7.773.365-7.773z" fill="#972c16" transform="translate(-1586.634 -1526.141)"/><path d="m1679.221 1683.614a8.979 8.979 0 0 0 .822 1.434c.753-1.709.577-5.268.445-6.909a28.691 28.691 0 0 1 -1.267 5.475z" fill="#812216" transform="translate(-1631.645 -1613.936)"/><path d="m1633.33 1597.6-.176-.245c-1.546-2.15-2.423-5.956-2.868-8.56a9.149 9.149 0 0 1 -.042-2.8c.007.076.751 7.426 3.009 10.89.815-2.354.411-7.354.407-7.406a10.157 10.157 0 0 1 .453 2.906 14.174 14.174 0 0 1 -.66 4.937z" fill="#210500" transform="translate(-1584.896 -1526.141)"/><path d="m1045.346 789.772c1.586.071 3.076 1.977 3.116 5l-6.525-.09c0-1.735.331-4.936 3.409-4.91z" fill="#ae0d10" transform="translate(-1024.431 -767.485)"/><path d="m1044.336 809.593c2.179.264 3.932 3.923 2.491 5.877a3.4 3.4 0 0 1 -5.768-.166c-1.059-2.631.251-6.077 3.277-5.711z" fill="#fff" transform="translate(-1023.248 -786.345)"/><path d="m1045.724 823.727c.908 1.593 1.313 3.548-.074 4.935a2.941 2.941 0 0 1 -4.4-.537 6.352 6.352 0 0 1 -.54-1.431 5.11 5.11 0 0 0 .359 2.1 3.4 3.4 0 0 0 5.768.166c1.112-1.509.314-4.042-1.113-5.233z" fill="#c6c6c6" transform="translate(-1023.255 -799.838)"/><path d="m1040.492 809.971a3.533 3.533 0 0 1 -.443-.028 3.442 3.442 0 0 1 -2.692-1.772 5.648 5.648 0 0 1 .458-5.067 3.118 3.118 0 0 1 3.011-1.052c1.087.132 2.146 1.28 2.733 2.639a3.713 3.713 0 0 1 -.153 3.682 3.594 3.594 0 0 1 -2.914 1.598zm-.151-7.437a2.723 2.723 0 0 0 -2.232 1.108 4.623 4.623 0 0 0 -.45 4.407 3.231 3.231 0 0 0 5.486.13 3.442 3.442 0 0 0 .116-3.359 2.971 2.971 0 0 0 -2.92-2.286z" transform="translate(-1019.697 -779.151)"/><path d="m1077.422 839.969c.929-.022 1.7 1.067 1.721 2.433s-.714 2.491-1.643 2.513-1.7-1.067-1.721-2.433.714-2.491 1.643-2.513z" transform="translate(-1056.675 -815.314)"/><path d="m1104.967 876.334a.449.449 0 0 1 .5.407.472.472 0 0 1 -.4.519.449.449 0 0 1 -.5-.407.472.472 0 0 1 .4-.519z" fill="#fff" transform="translate(-1084.1 -849.96)"/><path d="m1121.9 919.874a.207.207 0 0 1 .23.187.218.218 0 0 1 -.186.239.207.207 0 0 1 -.23-.187.217.217 0 0 1 .186-.239z" fill="#fff" transform="translate(-1100.442 -891.447)"/><path d="m785.86 1164.919c-.252-.971.235-4.345 5.725-5.409a7.31 7.31 0 0 0 -5.725 5.409z" fill="#ff7d7d" transform="translate(-780.387 -1119.778)"/><path d="m843 1183.255c-.448-.936.527-5.4 6.087-6.262a8.939 8.939 0 0 0 -6.087 6.262z" fill="#ff7d7d" transform="translate(-834.784 -1136.436)"/></svg>