<svg height="160.448" viewBox="0 0 122.398 160.448" width="122.398" xmlns="http://www.w3.org/2000/svg"><path d="m440.418 388.59a150.284 150.284 0 0 0 -10.575-13.5c-6.084-7.272-16.406-18.257-20.462-29.1a101.806 101.806 0 0 0 -5.472-12.116c-5.08-9.49-12.484-19.255-21.441-20.742-4.822-.8-8.167.159-10.47 1.692.136-.171 4.377-5.28 16.462-3.088a24.4 24.4 0 0 1 9.038 4.186c10.051 6.922 19.931 19.92 21.687 22.932 1.985 3.409 19.182 31.786 21.233 49.736z" fill="#517909" transform="translate(-367.167 -267.438)"/><path d="m546.947 408.357a150.3 150.3 0 0 0 -10.575-13.5c-6.084-7.272-16.406-18.257-20.462-29.1a101.8 101.8 0 0 0 -5.472-12.116 46.2 46.2 0 0 0 -6.411-17.952c10.051 6.922 19.931 19.92 21.687 22.932 1.986 3.41 19.186 31.786 21.233 49.736z" fill="#436307" transform="translate(-473.695 -287.205)"/><path d="m848.422 556.328a24.648 24.648 0 0 0 -5.153-5.827 15.751 15.751 0 0 0 -5.5-2.953 127.65 127.65 0 0 0 .231-15.469c-.031-.573-.065-1.142-.107-1.7a13.794 13.794 0 0 1 2 1.152c9.923 6.839 8.529 24.797 8.529 24.797z" fill="#436307" transform="translate(-742.983 -444.283)"/><path d="m570.478 91.564s-1.029-1.694.908-4.538c1.634-2.057 4.9-.908 4.9-.908a3.414 3.414 0 0 1 3.389-1.452c2.36.3 2.9 2.9 2.9 2.9s3.026-.545 4.3 1.513a6.937 6.937 0 0 1 .847 4.417 2.408 2.408 0 0 1 1.876 2.6 4.81 4.81 0 0 1 2.42 7.019c2.542 1.089 4.145 5.37 2.965 8.366a7.15 7.15 0 0 1 1.951 8.623c-.318.227 2.042.681 2.587 4.765.363 2.9-.681 4.084-.681 4.084a5.534 5.534 0 0 1 1.861 3.54 6.066 6.066 0 0 1 -2.088 5.31 7.316 7.316 0 0 1 1.5 9.258c2 1.951 3.9 6.853 1.316 9.077 2.587 2.224 4.871 7.851 2.148 12.148 2.844 4.478 2.057 8.411.847 9.591 2.542 1.906 2.451 9.53.454 12.8 3 4.538.272 9.893-.817 11.164 2.295 4.085-.06 8.925-1.573 10.2.787 2.9-4.145 11.316-10.5 10.226a9.332 9.332 0 0 1 -9.939 2.269c-2.814 2.088-8.124.908-9.077-.182-2.587 1.333-5.446-.681-6.218-2.405-3.131 1.861-6.717-1.725-6.172-5.4-4.357-1-7.034-7.942-4.221-11.073-2.95-1-3.676-5.113-3.616-6.021s-.182-4.3 1.513-4.78c-2.3-1.634-1.7-6.717-1.516-7.564s.73-2.6 2.242-2.723c-2.178-2.057-1.815-6.414-1.634-6.959s.605-2.783 2.239-3.146c-3.056-2-3.494-10.968-.318-12.828-2.738-3.676-2.814-8.214.136-9.53-1.77-2.315-2-9.848.59-10.393-2-2-1.815-9.8.862-10.711-2.178-3.767-.181-11.573 2.451-11.981-2.632-4.448-.045-8.4 3-8.986 0 0-3.328-7.276 3.177-10.514-.969-4.24 1.754-8.472 4.991-7.776z" fill="#f6920c" transform="translate(-512.836 -84.631)"/><path d="m654.514 97.97s-1.482-.575-2.3 1.452-.182 3.147 1.15 3.449a2.854 2.854 0 0 0 3.146-2.488 1.879 1.879 0 0 0 -1.996-2.413z" fill="#fabc18" transform="translate(-592.969 -95.332)"/><path d="m682.371 90.92a2.233 2.233 0 0 0 -1.906 2.269c-.151 2.118 1 4.175 2.42 4.508s1.6-2.209 1.634-3.116.557-3.698-2.148-3.661z" fill="#fabc18" transform="translate(-616.046 -89.705)"/><path d="m707.9 106.351a3.019 3.019 0 0 0 -1.694 2.542c-.06 1.815 1.18 2.753 3.147 2.723s1.876-2.6 1.543-3.419-1.002-2.451-2.996-1.846z" fill="#fabc18" transform="translate(-636.822 -102.049)"/><path d="m668.118 127.447a4.263 4.263 0 0 0 -3.3 3.812c-.182 3.147-.272 4.569 2 5.053s4.3-.151 4.448-3.9-1.091-5.238-3.148-4.965z" fill="#fabc18" transform="translate(-603.366 -119.152)"/><path d="m626.008 126.149a4.021 4.021 0 0 0 -3.933 2.391c-1.014 2.6-.182 4.689 2.572 4.75a3.947 3.947 0 0 0 4.266-3.873 3.414 3.414 0 0 0 -2.905-3.268z" fill="#fabc18" transform="translate(-568.608 -118.126)"/><path d="m707.494 137.447s-2.606-.034-2.967 1.39-1.238 5.417 1.787 6.022 4.326-.635 4.508-1.936.178-5.144-3.328-5.476z" fill="#fabc18" transform="translate(-635.148 -127.246)"/><path d="m743.547 152.9s.454 2.451-.151 3.691 1.755 1.069 2.057.383.363-4.622-1.906-4.074z" fill="#fabc18" transform="translate(-666.753 -139.67)"/><path d="m612.636 167.7s-5.31-1.271-6.762 2.042-1.316 5.9 1.361 6.717 5.537.772 6.308-1.5 1.408-7.021-.907-7.259z" fill="#fabc18" transform="translate(-555.13 -151.462)"/><path d="m660.789 176.836c-.182.128-2.178-.235-2.723 1.9s-1.529 5.128.733 6.535 5.394.953 5.8 0 1.749-5.174.739-6.989-4.549-1.446-4.549-1.446z" fill="#fabc18" transform="translate(-597.429 -159.002)"/><path d="m708.638 181.088s-2.411.681-2.439 3.948 1.333 4.01 3.285 4.388 3.493-.485 3.88-3.162-.444-6.4-4.726-5.174z" fill="#fabc18" transform="translate(-636.821 -162.264)"/><path d="m748.867 188.628s0 .055 0 .152c.021.774.159 4.252.938 4.628a3.254 3.254 0 0 0 2.723-.242c.212-.3-1.482-5.658-2.511-6.081s-1.457 0-1.15 1.543z" fill="#fabc18" transform="translate(-671.17 -167.172)"/><path d="m760.444 189.638c-.05.3.817 1.929 1.112 1.679s-.999-2.359-1.112-1.679z" fill="#fabc18" transform="translate(-680.587 -169.249)"/><path d="m588.836 222.971s-1.361 3.948 1.452 5.673 7.465.59 8.248-.772 1.1-5.4-.488-6.193-7.805-2.194-9.212 1.292z" fill="#fabc18" transform="translate(-541.86 -194.435)"/><path d="m655.177 232.007s-2.178 2.088-1.271 4.538 7.488 1.316 7.987 0 .318-4.584-1.089-5.083-4.129-.862-5.627.545z" fill="#fabc18" transform="translate(-594.449 -202.745)"/><path d="m707.19 231.32c.012.264-.318 5.2 2.042 5.8s4.538-.263 4.675-1.443.045-5.064-1.407-5.527-5.37-.184-5.31 1.17z" fill="#fabc18" transform="translate(-637.612 -201.877)"/><path d="m750.683 229.084a2.559 2.559 0 0 0 -2.254 2.511c-.015 2.239.847 3.51 2.375 4.024s3.434-.03 3.767-.7.24-6.856-3.888-5.835z" fill="#fabc18" transform="translate(-670.894 -201.093)"/><path d="m577.08 276.3s-1.6 6.081 2.935 7.292 6.928-.151 7.473-1.483.877-5.537-2.481-7.382-7.107-1.575-7.927 1.573z" fill="#fabc18" transform="translate(-532.418 -237.083)"/><path d="m646.415 277.462s-1.18 5.295-.3 7.352 8.26 1.815 8.925 0 .756-6.959-2.632-8.229-5.771-.271-5.993.877z" fill="#fabc18" transform="translate(-588.077 -239.033)"/><path d="m711.107 274.857s-2.95-.454-3.585 4.175.724 5.718 3.244 5.582a4.567 4.567 0 0 0 4.531-4.41c.076-2.488-1.513-5.347-4.19-5.347z" fill="#fabc18" transform="translate(-637.762 -238.107)"/><path d="m756.412 273.827s-2.767 1.01-2.358 4.89 3.131 3.336 4.084 2.882 2.859-1.193 2.632-3.728-1.77-5.1-4.358-4.044z" fill="#fabc18" transform="translate(-675.4 -237.089)"/><path d="m572.3 338.013c-.027.179-.454 4.493 1.225 5.4s5.037 1.815 6.354 1.362 2.632-4.039 2.269-6.444-9.208-4.493-9.848-.318z" fill="#fabc18" transform="translate(-528.732 -287.149)"/><path d="m639.912 351.606c-.04.372-1.044 3.177 1.906 3.994s6.127.59 6.444-.908.408-5.854-2-6.807-5.896-.5-6.35 3.721z" fill="#fabc18" transform="translate(-583.178 -296.702)"/><path d="m689.363 346.552s.084 5.809 1.2 6.49a2.92 2.92 0 0 0 3.974-2.768c.045-2.677.318-5.491-2.087-5.718s-3.136.718-3.087 1.996z" fill="#fabc18" transform="translate(-623.234 -294.326)"/><path d="m722.355 330.78s-.363 5.177 1.225 6.151 5.4.112 5.582-.977.9-5.854-1.8-6.58-4.973-.048-5.007 1.406z" fill="#fabc18" transform="translate(-649.827 -281.867)"/><path d="m760.98 323.2c-.028.312-.136 4.205 1.18 4.635s5.083-.659 5.537-3.11.181-4.4-1.5-4.493-5.036.948-5.217 2.968z" fill="#fabc18" transform="translate(-681.01 -274.727)"/><path d="m566.479 390.555s.273 4.13 1.112 5.219 7.375 1.588 8.509-.635-.318-6.192-1.18-6.386-8.305-2.464-8.441 1.802z" fill="#fabc18" transform="translate(-524.086 -329.388)"/><path d="m635.726 395.472s-.544 3.948 0 4.947 5.945 1.725 7.579 1.135 1.452-4.72 1.135-5.582-8.169-2.497-8.714-.5z" fill="#fabc18" transform="translate(-579.764 -334.669)"/><path d="m691.5 398.253s-1.141 5.345.473 5.781 3.4-.091 4.006-2.891-.486-3.934-1.3-4.025-2.955-.218-3.179 1.135z" fill="#fabc18" transform="translate(-624.641 -336.723)"/><path d="m723.24 384.58s-.454 3.954 1.407 4.362 5.735-.182 5.84-1.543.5-5.31-2.419-5.718-4.875.572-4.828 2.899z" fill="#fabc18" transform="translate(-650.531 -324.236)"/><path d="m767.1 373.209s-.227 5.886 1.407 6.12 3.994-1.866 4.538-3.131a3.4 3.4 0 0 0 -1.706-4.578c-2.239-.908-4.25-.32-4.239 1.589z" fill="#fabc18" transform="translate(-685.954 -315.854)"/><path d="m563.192 438.158s-.862 3.9 1.316 5.582 6.989 2.042 8.577 0 .772-6.626-1.452-7.034-8.124-1.316-8.441 1.452z" fill="#fabc18" transform="translate(-521.298 -368.323)"/><path d="m628.659 439.34s-1.543 4.175-.635 6.217 6.172 2.253 8.214 1.354 2.511-5.619 2.163-6.618-9.136-3.057-9.742-.953z" fill="#fabc18" transform="translate(-573.513 -370.096)"/><path d="m693.12 440.624c.01.307-.23 5.3 2.131 5.432s4.222-1.543 4.358-4.311-1.679-3.322-2.224-3.318-4.336.024-4.265 2.197z" fill="#fabc18" transform="translate(-626.266 -370.095)"/><path d="m734.773 428.315c-.02.413-.8 5.36 1.324 5.814a3.527 3.527 0 0 0 4.44-2.723c.272-2 .726-4.629 0-5.174s-5.627-.776-5.764 2.083z" fill="#fabc18" transform="translate(-659.75 -359.983)"/><path d="m772.528 424.5s-1 4.669.726 5.171a3.894 3.894 0 0 0 4.538-2.75c.59-2.058.227-3.919-1.225-4.645a2.833 2.833 0 0 0 -4.039 2.224z" fill="#fabc18" transform="translate(-690.107 -356.845)"/><path d="m563.862 491.142s-1.407 7.534 3.721 8.169 6.626-7.035 6.4-8.169-2.042-2.723-5.4-2.5-4.04.458-4.721 2.5z" fill="#fabc18" transform="translate(-521.832 -410.597)"/><path d="m629.942 494.417s-1.906 6.762 3.4 7.488 5.673-5.264 4.992-7.125-7.802-2.769-8.392-.363z" fill="#fabc18" transform="translate(-575.023 -414.099)"/><path d="m685.468 489.546s-.639 5.673 3.584 6.4 5.039-3 4.721-5.174-1.2-2.859-4.139-3.177-3.894.999-4.166 1.951z" fill="#fabc18" transform="translate(-620.066 -409.728)"/><path d="m736.713 480.833c0 .272-.635 5.4 1.589 5.446s3.812-1.407 3.812-4.9-1-4.584-2.133-4.629-3.221 1.37-3.268 4.083z" fill="#fabc18" transform="translate(-661.372 -401.014)"/><path d="m773.416 472.836s-.772 5.6.817 6.067 3.132-1.3 3.54-3.48.726-4.992-.544-5.4a3.17 3.17 0 0 0 -3.813 2.813z" fill="#fabc18" transform="translate(-690.904 -395.514)"/><path d="m803.322 472.112a21.111 21.111 0 0 1 .832 5.716.53.53 0 0 0 1.007.24c.948-1.944.72-6.141-1.209-6.618a.516.516 0 0 0 -.477.122.531.531 0 0 0 -.153.54z" fill="#fabc18" transform="translate(-715.169 -396.727)"/><path d="m566.608 551.45s-1.5.544-1.543 4.311 1.452 4.9 3.359 5.31 4.81.318 6.353-2.814-1.089-6.807-2.042-6.807-1.362.454-3 .318-2.667-.668-3.127-.318z" fill="#fabc18" transform="translate(-522.944 -461.193)"/><path d="m625.981 548.954c-.169.453-1.711 6.581 2.419 7.488s7.216-1.543 7.443-3.131.772-5.128-.908-6.081-7.335-2.63-8.954 1.724z" fill="#fabc18" transform="translate(-571.757 -456.973)"/><path d="m693.073 545.838c-.018.243-.315 8.169 4.042 7.67s4.13-4.856 3.449-7.352-.968-3.57-2.481-3.631-4.783.363-5.01 3.313z" fill="#fabc18" transform="translate(-626.221 -454.083)"/><path d="m739.168 542.262s-1 7.352 2.421 7.261 3.691-2.723 3.51-5.507-.817-4.477-3.147-4.447-2.421 1.15-2.784 2.693z" fill="#fabc18" transform="translate(-663.313 -451.702)"/><path d="m774.112 525.525c.033.3.514 6.444 3.328 6.6s4.569-1.573 4.538-4.478-1.526-4.69-2.246-4.962-6.014-.73-5.62 2.84z" fill="#fabc18" transform="translate(-691.6 -437.93)"/><path d="m560.513 607.387s-1.21 1.3-1.241 4.478 3.3 4.236 5.749 4.145 4.3-1.21 4.478-2.753-.181-4.3-1-4.962-1.664.242-3.812-.091-3.387-1.543-4.174-.817z" fill="#fabc18" transform="translate(-518.271 -506.238)"/><path d="m621.527 609.339s-1.588 5.4 3 6.036 5.628-2.814 5.582-4.81-1.634-3.406-4.765-3.405-3.594.962-3.817 2.179z" fill="#fabc18" transform="translate(-568.287 -506.238)"/><path d="m678.034 607.4c-.04.13-.817 7.007 3.948 6.748s4.72-3.39 4.584-4.751-.5-3.585-3.494-3.812-4.63.498-5.038 1.815z" fill="#fabc18" transform="translate(-614.038 -504.934)"/><path d="m731.825 599.512c-.031.152-1.7 5.31 1.3 6.944s6.176-1.377 6.469-3.026.021-5.416-.978-5.915-6.529.693-6.791 1.997z" fill="#fabc18" transform="translate(-657.103 -498.363)"/><path d="m781.248 581.9c0 .454.06 5.719 2.935 5.87s4.871-2.178 5.2-5.113-1.3-5.083-3.147-5.234a4.493 4.493 0 0 0 -4.988 4.477z" fill="#fabc18" transform="translate(-697.375 -482.236)"/><path d="m561.27 663.471c.009.276-.454 5.037 4.039 5.4s5.264-2.723 5.264-4.357-.5-3.54-4.652-3.54-4.691 1.317-4.651 2.497z" fill="#fabc18" transform="translate(-519.875 -549.66)"/><path d="m616.794 662.517c-.115.316-1.518 6.445 3.973 6.853s5.764-8.441 2.315-8.4-5.682-.132-6.288 1.547z" fill="#fabc18" transform="translate(-564.487 -549.66)"/><path d="m670.007 661.966c0 .136-1.533 5.5 4.067 5.748s5.872-4.2 5.736-5.748-2.9-2.587-6.263-2.451-3.54 2.451-3.54 2.451z" fill="#fabc18" transform="translate(-607.464 -548.473)"/><path d="m738.376 653.981c-.152.363-.852 4.311 2.7 4.9s4.366-3.086 4.411-4.448-.8-2.768-4.056-2.859a3.394 3.394 0 0 0 -3.055 2.407z" fill="#fabc18" transform="translate(-662.656 -542.077)"/><path d="m785.7 643.838c.02.5-.35 5.265 3.229 5.446s4.214-3.9 4.259-5.446-1.407-3.177-3.744-3.086-3.809 1.448-3.744 3.086z" fill="#fabc18" transform="translate(-700.967 -533.34)"/><path d="m574.4 712.345s-.817 5.022 3.9 5.6 4.992-4.568 4.811-6.051-2.057-2.511-4.569-2.511-4.112 1.551-4.142 2.962z" fill="#fabc18" transform="translate(-530.433 -588.716)"/><path d="m623.489 720.9c-.088.258-1.422 6.566 1.876 7.261s5.083-2.965 4.689-5.355-5.688-4.481-6.565-1.906z" fill="#fabc18" transform="translate(-569.81 -597.056)"/><path d="m671.153 716.5s-.014.063-.033.176c-.154.9-.643 5 3.028 5.278 4.13.318 4.72-4.538 4.175-6.49s-2.632-2.677-4.175-2.587-2.857 1.873-2.995 3.623z" fill="#fabc18" transform="translate(-608.428 -591.529)"/><path d="m728.064 704.117s-.484 5.295 3.449 5.446 4.266-3.842 4.206-5.446-1.3-2.874-4.206-3.116a2.916 2.916 0 0 0 -3.449 3.116z" fill="#fabc18" transform="translate(-654.448 -581.941)"/><path d="m777.19 696.878s-1.139 6.042 2.935 6.567 4.508-4.069 4.538-4.954.061-2.67-2.027-3.154-5.022-.578-5.446 1.541z" fill="#fabc18" transform="translate(-693.982 -577.154)"/><path d="m597.826 764.136s-.3 4.062 3.426 4.448 2.9-4.221 2.564-4.788-6.172-2.451-5.99.34z" fill="#fabc18" transform="translate(-549.374 -631.696)"/><path d="m635.056 771.069a4.958 4.958 0 0 0 -.477 3.381c.408 1.724 2.383 2.655 3.109 2.428a3.564 3.564 0 0 0 2.269-2.791c.068-1.452.045-2.927-1.679-3.7a2.418 2.418 0 0 0 -3.222.682z" fill="#fabc18" transform="translate(-578.934 -637.698)"/><path d="m667.526 766.957s-.739 4.227 3.177 4.975 3.966-3.72 3.665-4.975a3.8 3.8 0 0 0 -3.815-2.615 2.775 2.775 0 0 0 -3.027 2.615z" fill="#fabc18" transform="translate(-605.572 -633.063)"/><path d="m716.184 761.84s-1.891 4.906 1.134 5.634 4.844-2.508 4.895-4.715-1.563-3.737-3.512-3.247a3.009 3.009 0 0 0 -2.517 2.328z" fill="#fabc18" transform="translate(-644.406 -629.092)"/><path d="m761.241 745.858c-.076.171-2.258 5.265 0 6.263s6.374-2.867 6.989-6.535-5.63-2.814-6.989.272z" fill="#fabc18" transform="translate(-680.408 -615.982)"/><path d="m657.641 99.927c-.107-.008-1.83-.378-2.148.877s1.034.469 1.606.227 1.207-1.058.542-1.104z" fill="#ffe780" transform="translate(-595.869 -96.926)"/><path d="m683.216 94.129c-.136.1-1.331 1.286-.212 1.649s2.768-.211 2.738-1.089-2.057-.908-2.526-.56z" fill="#ffe780" transform="translate(-617.723 -92.127)"/><path d="m711.642 108.222c-.308.1-2.148.759-1.059 1.319s2.708 1.074 2.678.091a1.612 1.612 0 0 0 -1.619-1.41z" fill="#ffe780" transform="translate(-640.083 -103.651)"/><path d="m631.928 128.691c-.151.021-2.057.06-2.723.953s4.47 1.846 4.686 1.135a1.892 1.892 0 0 0 -1.963-2.088z" fill="#ffe780" transform="translate(-574.649 -120.169)"/><path d="m673.415 130.262c-.229.031-2.163.439-2.541 1.936s4.236 1.044 4.311.166-.544-2.264-1.77-2.102z" fill="#ffe780" transform="translate(-608.3 -121.437)"/><path d="m711.307 139.8c-.167 0-2.239 0-2.572.936s5.037 1.318 4.917.743a2.307 2.307 0 0 0 -2.345-1.679z" fill="#ffe780" transform="translate(-638.855 -129.141)"/><path d="m745.547 154.084s1.331.644 1.282.381a.91.91 0 0 0 -.719-.6c-.37-.084-.759.128-.563.219z" fill="#ffe780" transform="translate(-668.527 -140.479)"/><path d="m620.171 171.411s-3.4-.374-4.586.474 5.807 2.222 6.155 1.282-.831-1.7-1.569-1.756z" fill="#ffe780" transform="translate(-563.599 -154.584)"/><path d="m669.222 180.607c-.336-.031-3.177-.644-4.085.6s5.96 1.664 5.87.847-.427-1.319-1.785-1.447z" fill="#ffe780" transform="translate(-603.623 -161.926)"/><path d="m713.874 183.724c-.266.059-2.935.538-2.36 1.358s5.152.416 5.027-.29-1.502-1.326-2.667-1.068z" fill="#ffe780" transform="translate(-641.044 -164.536)"/><path d="m751.15 188.5s-.635-.038-.692.325 1.237.42 1.237.2a.53.53 0 0 0 -.545-.525z" fill="#ffe780" transform="translate(-672.53 -168.44)"/><path d="m760.646 189.711s-.165.176 0 .221.227-.1.167-.159-.101-.107-.167-.062z" fill="#ffe780" transform="translate(-680.693 -169.401)"/><path d="m602.707 224.539c-.407-.028-7.965-1.637-8.033.746s6.478 1.634 7.465 1.453 1.578-2.129.568-2.199z" fill="#ffe780" transform="translate(-546.836 -197.068)"/><path d="m667.572 235.321c-.227 0-4.175-.5-4.606.953s5.8.885 5.564 0a1.186 1.186 0 0 0 -.958-.953z" fill="#ffe780" transform="translate(-601.92 -206.15)"/><path d="m712.677 231.751c-.212.044-2.7.3-2.746 1.228s5.422.454 5.4-.386-2.522-.869-2.654-.842z" fill="#ffe780" transform="translate(-639.832 -203.331)"/><path d="m753.364 231.518c-.073.009-1.781.485-1.887 1.189s4.8.287 4.5-.219-.53-1.228-2.613-.97z" fill="#ffe780" transform="translate(-673.352 -203.105)"/><path d="m584.28 277.109c-.406.049-2.042.114-2.473 1.271s8.464 2.564 8.328 1.566-3.065-3.178-5.855-2.837z" fill="#ffe780" transform="translate(-536.441 -239.905)"/><path d="m656.039 279.364s-3.449-.091-3.752 1 7.259 1.639 7.153.908-1.906-1.972-3.401-1.908z" fill="#ffe780" transform="translate(-593.314 -241.751)"/><path d="m712.926 277.952c-.237.159-1.664 1.271-.756 1.588s5.173-.31 5.022-1.013-2.708-1.619-4.266-.575z" fill="#ffe780" transform="translate(-641.397 -240.233)"/><path d="m760.111 275.753c-.149.033-1.755.532-2.012 1.5s4.372.378 4.311-.333a1.814 1.814 0 0 0 -2.299-1.167z" fill="#ffe780" transform="translate(-678.688 -238.794)"/><path d="m767.909 322.457s-3.793.237-4.266 2.357 6.263-.431 6.081-1.178a1.812 1.812 0 0 0 -1.815-1.179z" fill="#ffe780" transform="translate(-683.151 -276.516)"/><path d="m725.788 332.6c.055.86 4.69 1.458 5.189.747s.666-1.3-.62-1.6-4.645-.336-4.569.853z" fill="#ffe780" transform="translate(-652.625 -283.872)"/><path d="m691.856 346.51s-1.029.363-1.165 1.15 4.389.284 4.281-.363-2.057-1.21-3.116-.787z" fill="#ffe780" transform="translate(-624.306 -295.812)"/><path d="m645.443 350.909c-.269.184-1.331 1.217.257 1.361s5.764-.234 5.643-.915a2.4 2.4 0 0 0 -2.511-1.462 5.042 5.042 0 0 0 -3.389 1.016z" fill="#ffe780" transform="translate(-587.317 -298.659)"/><path d="m576.976 339.008c-.454.186-1.5.7-.91 1.24s8.489 1.8 8.444.908-1.967-2.224-3.389-2.435a8.649 8.649 0 0 0 -4.145.287z" fill="#ffe780" transform="translate(-531.678 -289.551)"/><path d="m570.434 391.313c-.191.383-.34.817 2.224 1.021s6.1.272 5.786-.511-1.86-1.35-4.073-1.6-3.733.677-3.937 1.09z" fill="#ffe780" transform="translate(-527.201 -331.168)"/><path d="m639.087 397.08c.006.291.787.817 3 1.089s4.841.182 4.871-.3-1.815-1.407-3.827-1.588-4.059-.003-4.044.799z" fill="#ffe780" transform="translate(-582.67 -336.035)"/><path d="m696.664 399.4c-.159 0-2.261-.154-2.621.749s4.039.477 3.9 0-.518-.743-1.279-.749z" fill="#ffe780" transform="translate(-626.995 -338.6)"/><path d="m725.3 383.9s-1.053 1.351-.509 1.749 6.172-.859 6.013-1.388-.729-1.332-2.617-1.338a4.254 4.254 0 0 0 -2.887.977z" fill="#ffe780" transform="translate(-651.693 -325.307)"/><path d="m768.692 374.384c-.151.266-.272.938 1.422.726s3.192-.847 2.829-1.225a2.216 2.216 0 0 0 -2.129-.62 2.471 2.471 0 0 0 -2.122 1.119z" fill="#ffe780" transform="translate(-687.178 -317.499)"/><path d="m566.105 439.771c.24.1 9.054 1 8.872.295s-1.225-1.526-3.9-1.727-6.22.933-4.972 1.432z" fill="#ffe780" transform="translate(-523.576 -370.005)"/><path d="m633.927 442c.327.131 8.321 1.618 8.665.96s-1.245-1.613-3.287-1.986-4.311-.375-4.811 0c-.545.217-.987.86-.567 1.026z" fill="#ffe780" transform="translate(-578.372 -371.924)"/><path d="m698.068 441.021c-.285.1-2.6.351-3.018 1.083s1.441 1.4 2.462 1.129 3.347-1.248 2.836-1.77a2.678 2.678 0 0 0 -2.28-.442z" fill="#ffe780" transform="translate(-627.776 -372.117)"/><path d="m738.185 428.166c-.079.045-1.6.819-1.561 1.584s5.543-.449 5.589-.96-.261-.976-1.77-1.1a3.308 3.308 0 0 0 -2.258.476z" fill="#ffe780" transform="translate(-661.368 -361.417)"/><path d="m777.54 425.169c-.035.247.488.4 1.759.363s2.337-.431 2.122-.828a2.322 2.322 0 0 0 -3.88.465z" fill="#ffe780" transform="translate(-694.382 -358.341)"/><path d="m568.314 492.471s6.671 1.18 7.942.772-.5-2.307-2.768-2.5-6.444 1.32-5.174 1.728z" fill="#ffe780" transform="translate(-525.377 -412.289)"/><path d="m633.627 495.78a4.733 4.733 0 0 0 2.655 1.361c1.021-.023 5.688 0 4.932-.968a4.84 4.84 0 0 0 -3.615-1.679c-1.574-.094-4.388.484-3.972 1.286z" fill="#ffe780" transform="translate(-578.231 -415.325)"/><path d="m688.141 492.335c.018.009.019.04.045.061a10.675 10.675 0 0 0 4.722.733c1.541-.227 2.54-.885 2.063-1.361a5.1 5.1 0 0 0 -3.744-.983c-2.088.075-3.768 1.221-3.086 1.55z" fill="#ffe780" transform="translate(-622.126 -412.334)"/><path d="m739.922 479.9c-.218.215-1.716 1.44-1.255 1.955s4.16-.718 4.182-1.372-.454-1.38-.908-1.38a3.417 3.417 0 0 0 -2.019.797z" fill="#ffe780" transform="translate(-662.947 -402.915)"/><path d="m776.409 472.948c-.115.432 0 1.332 1.437.969s2.57-.946 2.48-1.808a1.338 1.338 0 0 0 -1.792-1.142 3.423 3.423 0 0 0 -2.125 1.981z" fill="#ffe780" transform="translate(-693.443 -396.291)"/><path d="m804.327 473.375a.588.588 0 0 0 .757.424c.537-.114.575-.514.174-.794s-1.098-.273-.931.37z" fill="#ffe780" transform="translate(-715.976 -397.852)"/><path d="m571.563 557.558c.429.166 5.65.364 5.923-.408s.227-1.793-1-1.884-1.43.635-3.358.2-2.451-.408-3.154.363.886 1.457 1.589 1.729z" fill="#ffe780" transform="translate(-526.765 -464.306)"/><path d="m632.849 551.076a3.664 3.664 0 0 0 -2 2.269c-.182 1.225 9.236.409 8.963-.658s-.885-1.554-2.7-1.889a9.749 9.749 0 0 0 -4.263.278z" fill="#ffe780" transform="translate(-576.024 -460.66)"/><path d="m696.55 545.53c-.18.136-1.21 1.271-.908 1.74s5.491-.318 5.885-.87a1.289 1.289 0 0 0 -.847-1.808 6.3 6.3 0 0 0 -4.13.938z" fill="#ffe780" transform="translate(-628.258 -455.711)"/><path d="m743.524 542.346c-.169.107-1.029 1.278-.454 1.438s3.812-.475 3.767-.975-.151-.832-1.1-.953a3.042 3.042 0 0 0 -2.213.49z" fill="#ffe780" transform="translate(-666.413 -453.52)"/><path d="m777.712 525.252a2.646 2.646 0 0 0 -1.165 1.781c-.03 1.033 5.4.374 5.991 0s.409-1.66-.666-2.038a7.39 7.39 0 0 0 -4.16.257z" fill="#ffe780" transform="translate(-693.582 -439.79)"/><path d="m567.165 612.177c.068.068 4.221.953 5.628.5s1.293-1.316.817-1.634-1.793.3-3.177 0a22.915 22.915 0 0 1 -3.268-1.067c-1.317-.454-1.543 1-1.293 1.52s1.293.681 1.293.681z" fill="#ffe780" transform="translate(-523.524 -508.441)"/><path d="m627.757 610.4s-2.07.02-2.2 1.281 7.173 1.352 7.173.489-2.862-2.246-4.973-1.77z" fill="#ffe780" transform="translate(-571.749 -508.775)"/><path d="m680.793 609.406s-.59.726-.272 1.271 7.211.132 7.148-.749-1.5-1.452-2.746-1.475-3.676.272-4.13.953z" fill="#ffe780" transform="translate(-616.026 -507.281)"/><path d="m738.2 600.835c-.416.157-2.065.7-2.2 1.585s4.9.363 5.786 0 1.355-1.309.723-1.823-3.417-.097-4.309.238z" fill="#ffe780" transform="translate(-660.867 -500.749)"/><path d="m786.434 580.732a4.178 4.178 0 0 0 -2.428 2.542c-.386 1.747 6.891-.84 6.656-1.407s-1.709-1.884-4.228-1.135z" fill="#ffe780" transform="translate(-699.588 -484.734)"/><path d="m567.625 664.458c-.159.008-2.135-.045-2.656 1.271s8.057 1.112 7.761.295-2.972-1.68-5.105-1.566z" fill="#ffe780" transform="translate(-522.849 -552.462)"/><path d="m623.478 663.852c-.455-.013-3.11-.179-3.741 1.067s4.6 1 5.737.908 1.566-.908 1.293-1.384-2.676-.573-3.289-.591z" fill="#ffe780" transform="translate(-567.015 -551.97)"/><path d="m678.443 664.295c-.211.007-2.814-.331-3.608.918s8.373 1.7 8.373.794-2.736-1.78-4.765-1.712z" fill="#ffe780" transform="translate(-611.475 -552.309)"/><path d="m743.873 654.855a3.758 3.758 0 0 0 -2.882 1.533c-.885 1.474 6.422.8 6.149 0s-1.928-1.68-3.267-1.533z" fill="#ffe780" transform="translate(-664.833 -544.709)"/><path d="m791.887 643.306a4.1 4.1 0 0 0 -3.108 2.173c-.771 1.888 7.08.845 6.49-.245s-2.144-2.295-3.382-1.928z" fill="#ffe780" transform="translate(-703.408 -535.35)"/><path d="m580.04 712.672s-2.927.325-3.631 1.618 7.738 1.211 7.829.379-2.631-2.326-4.198-1.997z" fill="#ffe780" transform="translate(-532.064 -591.335)"/><path d="m629.738 723.482s-1.585-.613-2.243.726 5.832 2.224 5.537 1.52a4.246 4.246 0 0 0 -3.294-2.246z" fill="#ffe780" transform="translate(-573.28 -599.981)"/><path d="m677.749 715.76s-2.428.71-2.609 2.454 6.059.609 5.922-.276a2.834 2.834 0 0 0 -3.313-2.178z" fill="#ffe780" transform="translate(-611.757 -593.825)"/><path d="m734.348 703.481s-2.887.266-2.93 1.794 6.379 1.392 6.334.643a2.966 2.966 0 0 0 -3.404-2.437z" fill="#ffe780" transform="translate(-657.169 -583.938)"/><path d="m784.424 697.349s-2.945-.1-3.484 1.2 6.359 1.64 6.449.761-1.589-2.047-2.965-1.961z" fill="#ffe780" transform="translate(-697.101 -579.006)"/><path d="m605.305 766.688s-3.562-.9-4.24.06 3 1.392 3.736 1.483 1.286-.348 1.241-.681-.415-.877-.737-.862z" fill="#ffe780" transform="translate(-551.926 -634.649)"/><path d="m639.828 772.659c-.107 0-1.528-.06-2.02.953s4.47 1.074 4.274.424a3.035 3.035 0 0 0 -2.254-1.377z" fill="#ffe780" transform="translate(-581.611 -639.772)"/><path d="m673.12 766.295s-2.677.275-2.98 1.728 6.263 1.059 5.96.4-1.407-2.207-2.98-2.128z" fill="#ffe780" transform="translate(-607.718 -634.636)"/><path d="m724.97 762a2.474 2.474 0 0 0 -2.448 1.376c-.653 1.483 4.7 1.2 4.763.5s-1.03-1.83-2.315-1.876z" fill="#ffe780" transform="translate(-649.946 -631.171)"/><path d="m772.312 745.312s-3.056.6-3.737 2.114 5.491.692 5.734-.184-.152-2.168-1.997-1.93z" fill="#ffe780" transform="translate(-687.107 -617.685)"/><g fill="#e16104"><path d="m678.2 125.523c.215.032.43.054.643.085.427.051.851.11 1.275.163s.847.116 1.273.175.853.12 1.292.175a5.27 5.27 0 0 0 -1.215-.522 8.3 8.3 0 0 0 -2.608-.347 6.113 6.113 0 0 0 -1.31.169c.214.048.43.068.65.102z" transform="translate(-613.701 -117.403)"/><path d="m703.391 102.465a5.794 5.794 0 0 0 .4-1.452 9.467 9.467 0 0 0 .093-1.5 10.72 10.72 0 0 0 -.127-1.494 7.092 7.092 0 0 0 -.366-1.456c0 .5 0 1 .012 1.488s.023.981.028 1.47.012.977.005 1.466-.025.975-.045 1.478z" transform="translate(-634.555 -94.257)"/><path d="m657.733 131.589a19.08 19.08 0 0 0 -.263 2.311 11.064 11.064 0 0 0 .114 2.323c.059-.774.141-1.533.239-2.291s.229-1.512.357-2.266.274-1.506.412-2.261.285-1.51.414-2.274a17.152 17.152 0 0 0 -.757 2.194 22.955 22.955 0 0 0 -.516 2.264z" transform="translate(-597.491 -118.923)"/><path d="m698.221 136.733c-.014.092-.027.184-.044.275l-.049.274-.06.273a10.111 10.111 0 0 1 -.316 1.081 5.4 5.4 0 0 0 .528-1.015 7.181 7.181 0 0 0 .327-1.1 8.572 8.572 0 0 0 .169-1.139 10.907 10.907 0 0 0 .038-1.149 13.086 13.086 0 0 0 -.242-2.275c-.07-.374-.16-.745-.263-1.111-.054-.183-.11-.364-.173-.544a3.69 3.69 0 0 0 -.22-.527 2.747 2.747 0 0 1 .055.278c.016.093.031.186.044.279.027.187.056.372.078.559.051.372.092.745.132 1.117.071.745.127 1.489.137 2.232a16.268 16.268 0 0 1 -.1 2.221c-.012.088-.027.179-.041.271z" transform="translate(-630.006 -121.053)"/><path d="m705.451 131.522c-.011-.007-.026-.013-.027-.028-.006.015.007.03.015.042a.417.417 0 0 0 .03.033c.021.021.043.041.066.06.046.037.094.071.143.1.1.066.2.123.3.18a4.978 4.978 0 0 0 .642.282 5.965 5.965 0 0 0 1.368.315 5.225 5.225 0 0 0 1.409-.032 3.645 3.645 0 0 0 1.319-.471 10.259 10.259 0 0 1 -1.352.115 10.684 10.684 0 0 1 -1.327-.064c-.441-.048-.881-.118-1.32-.206q-.33-.066-.659-.147c-.111-.025-.219-.056-.329-.087-.055-.015-.109-.032-.163-.051q-.041-.013-.08-.03z" transform="translate(-636.193 -122.443)"/><path d="m625.792 163.6c.561.1 1.121.209 1.682.32s1.115.242 1.685.371a7.876 7.876 0 0 0 -1.593-.715 13.429 13.429 0 0 0 -1.692-.422 15.583 15.583 0 0 0 -1.728-.209 10.927 10.927 0 0 0 -1.742.016c.569.129 1.134.232 1.7.337z" transform="translate(-569.209 -147.801)"/><path d="m659.652 171.061c-.144-.032-.288-.064-.435-.091a7.842 7.842 0 0 0 1.638.7 10.389 10.389 0 0 0 1.747.366 11.455 11.455 0 0 0 1.78.078 8.47 8.47 0 0 0 1.763-.234c-.593-.04-1.175-.074-1.756-.121s-1.157-.1-1.732-.173-1.146-.162-1.718-.262c-.143-.027-.285-.054-.429-.079s-.285-.061-.428-.09l-.216-.041c-.072-.019-.142-.039-.214-.053z" transform="translate(-598.912 -154.295)"/><path d="m704.247 176.1c-.621-.015-1.242-.068-1.864-.142s-1.243-.173-1.871-.291a7.779 7.779 0 0 0 1.809.641 9.733 9.733 0 0 0 1.913.245 8.331 8.331 0 0 0 1.927-.163 6.168 6.168 0 0 0 1.806-.662 14.3 14.3 0 0 1 -3.721.371z" transform="translate(-632.233 -158.087)"/><path d="m733.349 136.616a7.822 7.822 0 0 1 .395.844 8.634 8.634 0 0 1 .5 1.775c.015.075.025.152.036.228s.024.152.031.229l.027.23.018.231c.016.154.016.309.026.464s.009.31 0 .466c0 .623-.057 1.25-.121 1.888a6.915 6.915 0 0 0 .477-1.866c.022-.161.028-.323.04-.485 0-.081 0-.162.005-.244s0-.163 0-.244a6.679 6.679 0 0 0 -.095-.973 6.169 6.169 0 0 0 -.625-1.849 5.435 5.435 0 0 0 -.533-.816 3.543 3.543 0 0 0 -.69-.677 6.093 6.093 0 0 1 .509.799z" transform="translate(-658.318 -125.931)"/><path d="m743.737 178.6a1.707 1.707 0 0 0 .57.175 2.019 2.019 0 0 0 .584-.007 1.51 1.51 0 0 0 .561-.2 3.268 3.268 0 0 0 -.555-.16c-.18-.037-.356-.063-.53-.087s-.347-.04-.52-.064-.346-.044-.552-.082a.988.988 0 0 0 .442.425z" transform="translate(-666.753 -160.109)"/><path d="m650.271 183.65c-.06.377-.1.757-.14 1.136-.015.19-.03.38-.042.571l-.019.286-.007.286c0 .191-.013.381-.012.572l.013.572.012.286c.007.1.013.19.023.285.017.19.034.38.058.569.1-.758.161-1.51.259-2.258.042-.374.1-.747.143-1.121s.1-.746.161-1.118c.11-.745.231-1.488.356-2.233l.39-2.24a14.429 14.429 0 0 0 -.734 2.166 20.152 20.152 0 0 0 -.461 2.241z" transform="translate(-591.516 -160.97)"/><path d="m656.186 225.028c.729.087 1.456.174 2.178.286q.542.08 1.079.182c.18.031.357.071.536.1s.357.075.533.118a12.946 12.946 0 0 1 2.091.667 5.561 5.561 0 0 0 -.953-.586c-.168-.083-.34-.156-.513-.229s-.35-.134-.527-.193a10.508 10.508 0 0 0 -1.079-.3c-.182-.044-.365-.078-.548-.116s-.367-.065-.551-.093a17.188 17.188 0 0 0 -2.222-.189 14.012 14.012 0 0 0 -2.224.107z" transform="translate(-594.692 -197.624)"/><path d="m607.449 215.55q.517.085 1.031.2c.342.075.684.154 1.025.241.682.17 1.361.357 2.042.548l1.022.288c.341.1.684.189 1.025.295a8.079 8.079 0 0 0 -.948-.5c-.325-.148-.653-.29-.987-.417a17.716 17.716 0 0 0 -2.044-.65q-.521-.131-1.053-.223a10.2 10.2 0 0 0 -1.072-.132 7.252 7.252 0 0 0 -1.084 0 3.526 3.526 0 0 0 -1.052.244 7.308 7.308 0 0 1 2.095.106z" transform="translate(-555.452 -189.963)"/><path d="m699.924 188.417a7.365 7.365 0 0 0 .672-2.237 11.216 11.216 0 0 0 .122-1.166c.013-.2.017-.39.023-.585s0-.39 0-.585a17.921 17.921 0 0 0 -.2-2.325 14.694 14.694 0 0 0 -.5-2.274l.154 2.311c.042.767.083 1.532.095 2.3s.006 1.528-.042 2.289a14.259 14.259 0 0 1 -.324 2.272z" transform="translate(-631.757 -160.97)"/><path d="m742.13 185.821c.005-.213.014-.426.009-.639s-.014-.426-.025-.639-.036-.425-.065-.636a10.141 10.141 0 0 0 -.242-1.254 9.677 9.677 0 0 0 -.395-1.211 6.476 6.476 0 0 0 -.579-1.129 14.2 14.2 0 0 1 .629 2.414 15.738 15.738 0 0 1 .224 2.461q.009.618-.033 1.235c-.01.206-.033.411-.051.617-.008.1-.025.2-.036.308s-.021.206-.038.308a24.037 24.037 0 0 1 -.5 2.451 10.193 10.193 0 0 0 .847-2.388 10.37 10.37 0 0 0 .206-1.259c.025-.213.034-.426.049-.639z" transform="translate(-664.764 -161.833)"/><path d="m702.359 227.909c.149-.04.3-.075.449-.109s.3-.066.45-.1q.9-.194 1.806-.313a16.267 16.267 0 0 1 1.822-.129h.458s.305.016.459.022l.232.009c.077 0 .153.018.23.024.154.016.309.031.467.041-.145-.059-.293-.112-.442-.164-.075-.026-.149-.053-.225-.074l-.229-.056-.231-.052c-.077-.016-.154-.037-.233-.046-.156-.023-.313-.042-.471-.062a8.611 8.611 0 0 0 -1.895.035 10.04 10.04 0 0 0 -1.843.42 9.138 9.138 0 0 0 -.879.343 4.725 4.725 0 0 0 -.824.457c.298-.096.599-.172.899-.246z" transform="translate(-632.997 -199.395)"/><path d="m747.29 223.885a2.113 2.113 0 0 0 -.505.369 1.663 1.663 0 0 0 -.347.505 3 3 0 0 1 1-.548c.087-.031.178-.053.266-.079s.18-.044.272-.059c.183-.035.367-.063.555-.081.374-.039.755-.052 1.141-.055h1.179a4.1 4.1 0 0 0 -1.151-.355 4.64 4.64 0 0 0 -1.215-.042 3.626 3.626 0 0 0 -.608.113 2.688 2.688 0 0 0 -.587.232z" transform="translate(-669.287 -196.695)"/><path d="m646.218 230.73c-.041 1.111-.022 2.2-.061 3.282 0 .136-.009.271-.016.406s-.008.271-.02.405-.019.269-.026.4l-.038.4a11.709 11.709 0 0 1 -.269 1.612 4.774 4.774 0 0 0 .621-1.554c.029-.137.058-.274.083-.412s.038-.277.057-.415.026-.278.039-.417.02-.279.022-.418a11.346 11.346 0 0 0 -.069-1.664 9.023 9.023 0 0 0 -.323-1.625z" transform="translate(-588.077 -202.513)"/><path d="m595.172 267.126 2.6.386c.865.134 1.729.268 2.6.41a17.982 17.982 0 0 0 -2.534-.758c-.858-.2-1.727-.354-2.6-.487s-1.745-.231-2.622-.3-1.756-.121-2.639-.11c.865.176 1.731.322 2.6.46s1.729.268 2.595.399z" transform="translate(-543.045 -231.184)"/><path d="m647.115 271.149.166-.022.167-.017c.112-.01.222-.024.334-.03l.335-.025.335-.018c.895-.038 1.791-.029 2.688 0s1.795.089 2.694.152l2.7.206a20.486 20.486 0 0 0 -2.667-.557 24.55 24.55 0 0 0 -2.716-.255 17.511 17.511 0 0 0 -2.734.1 10.553 10.553 0 0 0 -1.35.246 6.238 6.238 0 0 0 -1.286.467 9.961 9.961 0 0 1 1.334-.247z" transform="translate(-588.077 -234.66)"/><path d="m700.4 241.673a12.041 12.041 0 0 0 .057-1.655 14.042 14.042 0 0 0 -.158-1.644 9.889 9.889 0 0 0 -.379-1.609c-.007.554.008 1.1.025 1.643l.059 1.626c.016.541.032 1.08.04 1.622s0 1.081-.01 1.636a6.983 6.983 0 0 0 .366-1.619z" transform="translate(-631.75 -207.381)"/><path d="m708.529 269.339a15.045 15.045 0 0 0 -2.347.175 7.129 7.129 0 0 0 -1.154.278 3.6 3.6 0 0 0 -.547.24 2.15 2.15 0 0 0 -.251.163 1.329 1.329 0 0 0 -.212.207 1.794 1.794 0 0 1 .514-.256 4.035 4.035 0 0 1 .554-.139c.187-.036.376-.065.566-.086s.38-.042.572-.055c.765-.054 1.536-.069 2.307-.073s1.545.005 2.321.009 1.552.014 2.334 0a18.913 18.913 0 0 0 -2.316-.349 23.2 23.2 0 0 0 -2.341-.114z" transform="translate(-635.061 -233.665)"/><path d="m742.447 236.3.235 1.554c.074.517.148 1.033.213 1.552s.112 1.038.157 1.573a6.341 6.341 0 0 0 .2-1.593 10.94 10.94 0 0 0 -.12-1.6 12.9 12.9 0 0 0 -.336-1.562 9.2 9.2 0 0 0 -.553-1.5c.057.536.128 1.058.204 1.576z" transform="translate(-665.902 -205.738)"/><path d="m756.364 266.881a2.741 2.741 0 0 0 -.963.616 10.2 10.2 0 0 1 1.068-.275c.353-.077.711-.134 1.068-.2l1.08-.185c.363-.066.726-.137 1.095-.234a4.936 4.936 0 0 0 -1.126-.12 6.519 6.519 0 0 0 -1.126.093 5.154 5.154 0 0 0 -1.096.305z" transform="translate(-676.52 -231.363)"/><path d="m634.488 284.834a12.223 12.223 0 0 1 -.584 2.455 7.388 7.388 0 0 0 .933-2.392 11.2 11.2 0 0 0 .21-1.274c.026-.213.041-.428.058-.642s.025-.429.029-.643a18.209 18.209 0 0 0 -.116-2.565 15.522 15.522 0 0 0 -.476-2.516c.05.852.095 1.7.125 2.542s.039 1.687.014 2.527a22.98 22.98 0 0 1 -.193 2.508z" transform="translate(-578.488 -240.054)"/><path d="m698.133 283.124c-.028.388-.069.774-.118 1.16s-.121.769-.208 1.15-.195.758-.314 1.138a6.592 6.592 0 0 0 .527-1.073 9.122 9.122 0 0 0 .343-1.151 11.031 11.031 0 0 0 .2-1.185c.043-.4.067-.8.076-1.2a15.186 15.186 0 0 0 -.149-2.385 12.657 12.657 0 0 0 -.527-2.323c.072.791.132 1.574.176 2.357s.06 1.564.046 2.343q-.013.587-.052 1.169z" transform="translate(-629.796 -240.054)"/><path d="m747.2 276.95a13.075 13.075 0 0 0 -.768-2.1c.145.733.289 1.459.424 2.185s.256 1.451.357 2.179.172 1.457.218 2.189a19.57 19.57 0 0 1 -.024 2.213 8.154 8.154 0 0 0 .378-2.215 13.616 13.616 0 0 0 -.122-2.249 16.634 16.634 0 0 0 -.463-2.202z" transform="translate(-669.287 -238.107)"/><path d="m584.26 329.244c.209.032.419.058.629.085s.421.045.633.059a12.194 12.194 0 0 0 1.272.036 7.9 7.9 0 0 0 2.5-.4 14.068 14.068 0 0 1 -2.5.049c-.207-.012-.414-.032-.62-.047s-.413-.038-.619-.064q-.618-.069-1.234-.164c-.822-.122-1.641-.275-2.461-.432s-1.638-.335-2.464-.506a16.684 16.684 0 0 0 2.382.849 20.1 20.1 0 0 0 2.482.535z" transform="translate(-534.514 -280.881)"/><path d="m639.145 332.75c.222.056.446.106.671.155s.449.1.676.133l.681.1.171.025.171.018.343.035a21.424 21.424 0 0 0 2.756.108l.69-.024.688-.048c.458-.041.916-.088 1.37-.16a15.011 15.011 0 0 0 2.683-.619c-.91.116-1.816.2-2.722.269s-1.812.114-2.72.129-1.814.021-2.723-.008c-.455-.007-.909-.033-1.365-.051-.229 0-.455-.024-.684-.036s-.456-.02-.686-.026z" transform="translate(-582.717 -284.609)"/><path d="m708.977 324.411c.738-.188 1.474-.389 2.2-.628-.765.055-1.522.16-2.275.283s-1.5.266-2.247.429-1.486.345-2.22.557a21 21 0 0 0 -2.175.728c.76-.107 1.509-.24 2.257-.384s1.493-.294 2.236-.458 1.486-.338 2.224-.527z" transform="translate(-633.645 -277.593)"/><path d="m755.551 316.16a6.134 6.134 0 0 0 -1.538.931c.552-.234 1.1-.422 1.664-.6s1.124-.328 1.69-.483 1.136-.3 1.707-.449 1.143-.3 1.715-.479a11.5 11.5 0 0 0 -1.786.13 14.883 14.883 0 0 0 -1.754.359 11.575 11.575 0 0 0 -1.698.591z" transform="translate(-675.4 -270.573)"/><path d="m625.6 337.647c-.043.82-.088 1.633-.145 2.443s-.133 1.616-.24 2.417a20.389 20.389 0 0 1 -.444 2.373 10.269 10.269 0 0 1 -.363 1.15 7.5 7.5 0 0 1 -.517 1.1 4.871 4.871 0 0 0 .719-1.008c.1-.182.187-.371.275-.56s.157-.385.225-.581a12.074 12.074 0 0 0 .555-2.417 17.246 17.246 0 0 0 .143-2.466 14.978 14.978 0 0 0 -.208-2.451z" transform="translate(-570.412 -288.78)"/><path d="m680.823 344.281c-.037-.461-.063-.924-.134-1.381a16.341 16.341 0 0 0 -.594-2.705 12.816 12.816 0 0 0 -1.062-2.548c.281.875.517 1.754.721 2.64l.144.665.13.667c.074.447.157.892.211 1.342l.048.336c.017.112.023.225.036.338l.071.675c.024.452.072.9.077 1.357.046.908 0 1.814-.031 2.735a12.883 12.883 0 0 0 .385-2.734l.016-.347c.005-.116 0-.231 0-.347z" transform="translate(-614.901 -288.78)"/><path d="m715.01 339.2c-.013-.2-.042-.392-.063-.588a14.248 14.248 0 0 0 -.486-2.309c-.06-.187-.116-.376-.18-.561s-.132-.37-.206-.552a9.114 9.114 0 0 0 -.5-1.066c.2.756.385 1.509.544 2.266s.282 1.517.378 2.279c.022.191.053.381.067.572l.052.574c.02.191.021.383.035.575s.025.384.024.577 0 .385.011.578l-.014.579v.291c-.007.1-.016.193-.021.29-.012.194-.024.389-.03.586.055-.188.105-.377.154-.568.026-.1.048-.191.071-.287l.05-.29.09-.584c.018-.2.031-.392.046-.589.006-.1.017-.2.019-.3v-.3c0-.2.006-.395-.005-.592z" transform="translate(-642.772 -285.936)"/><path d="m755 329.821a6.864 6.864 0 0 0 -.434-1.024c-.088-.163-.181-.323-.281-.477l-.153-.229c-.026-.037-.052-.075-.077-.113a.317.317 0 0 1 -.055-.122.3.3 0 0 0 .024.137c.015.044.031.087.048.13l.1.254c.066.169.133.337.189.508a10.6 10.6 0 0 1 .3 1.032 14.164 14.164 0 0 1 .312 2.118c.054.713.062 1.432.053 2.154s-.055 1.446-.082 2.179a12.41 12.41 0 0 0 .482-4.367 8.986 8.986 0 0 0 -.426-2.18z" transform="translate(-675.39 -280.881)"/><path d="m765.254 363.591c.1-.021.2-.039.306-.065l.3-.081a5.955 5.955 0 0 0 1.159-.476 4.384 4.384 0 0 0 .529-.34 2.637 2.637 0 0 0 .46-.428c-.381.17-.757.309-1.135.443s-.758.251-1.141.365c-.192.054-.383.112-.577.161s-.388.1-.583.156-.392.1-.589.156-.4.1-.6.172a5.71 5.71 0 0 0 .623.049c.207 0 .416 0 .623-.026a6.084 6.084 0 0 0 .625-.086z" transform="translate(-682.966 -308.592)"/><path d="m727.023 372.6a9.716 9.716 0 0 0 -1.663.3 10.88 10.88 0 0 0 -1.584.574c-.256.115-.507.242-.751.38a5.4 5.4 0 0 0 -.705.463c.532-.179 1.059-.345 1.584-.511s1.05-.324 1.577-.468 1.058-.272 1.593-.386 1.077-.192 1.635-.269a6.23 6.23 0 0 0 -1.686-.083z" transform="translate(-649.827 -316.968)"/><path d="m690.148 385.464c-.261.036-.523.07-.788.126.264.046.531.071.8.1.267.008.537.012.806 0 .134-.01.268-.021.4-.035l.2-.02c.067-.008.133-.022.2-.033l.4-.073c.132-.03.263-.069.394-.1a5.649 5.649 0 0 0 1.492-.656c.112-.079.227-.152.334-.237a3.787 3.787 0 0 0 .309-.269 2.468 2.468 0 0 0 .5-.641 4.145 4.145 0 0 1 -.634.466c-.108.071-.224.13-.335.195s-.231.115-.344.175a9.36 9.36 0 0 1 -1.444.53c-.124.034-.247.072-.372.1l-.378.087c-.063.015-.125.032-.189.044l-.191.035c-.128.024-.255.049-.383.076-.258.043-.517.081-.777.13z" transform="translate(-623.234 -325.876)"/><path d="m628.069 388.673q1.378.291 2.776.475.7.091 1.4.151c.469.039.939.068 1.411.075s.944 0 1.415-.032a6.675 6.675 0 0 0 1.394-.24 10.7 10.7 0 0 1 -1.4.017c-.464-.017-.928-.058-1.391-.1-.926-.089-1.85-.2-2.774-.323l-2.775-.372c-.926-.126-1.853-.25-2.788-.35.901.286 1.814.507 2.732.699z" transform="translate(-571.579 -329.388)"/><path d="m577.215 381.7a21.711 21.711 0 0 0 2.3.234 18.368 18.368 0 0 0 2.308-.01c-.76-.132-1.518-.235-2.274-.341s-1.51-.213-2.261-.332-1.5-.24-2.245-.392a21.525 21.525 0 0 1 -2.216-.561 8.775 8.775 0 0 0 2.13.9 16.509 16.509 0 0 0 2.258.502z" transform="translate(-529.205 -323.191)"/><path d="m622.131 398.316a14.962 14.962 0 0 1 -.432 2 6.8 6.8 0 0 0 .783-1.928 8.177 8.177 0 0 0 .18-1.034 9.08 9.08 0 0 0 -.216-3.124 7.5 7.5 0 0 0 -.748-1.94c.086.335.163.668.227 1s.123.669.171 1a15.918 15.918 0 0 1 .16 2.013c0 .336 0 .672-.024 1.007s-.052.672-.101 1.006z" transform="translate(-568.641 -332.865)"/><path d="m619.782 444.579a22.943 22.943 0 0 1 -.381 2.407 9.7 9.7 0 0 0 .732-2.357 16.344 16.344 0 0 0 .239-2.461 20.062 20.062 0 0 0 -.105-2.464 15.8 15.8 0 0 0 -.422-2.426c.026.821.051 1.635.07 2.448s.02 1.623 0 2.433-.059 1.615-.133 2.42z" transform="translate(-566.786 -369.167)"/><path d="m685.513 404.566-.027.484-.009.243c-.005.081-.014.161-.018.243-.011.162-.021.325-.025.49.054-.155.1-.311.149-.469.024-.078.046-.158.068-.237l.056-.239c.035-.16.07-.321.1-.482s.052-.324.076-.487a13.392 13.392 0 0 0 .121-1.964 15.262 15.262 0 0 0 -.142-1.961 11.025 11.025 0 0 0 -.43-1.917l.075 1.948q.035.968.043 1.933c.009.644 0 1.286-.023 1.93-.004.162-.01.319-.014.485z" transform="translate(-620.066 -337.695)"/><path d="m716.678 397a5.327 5.327 0 0 1 -.242 1 3.494 3.494 0 0 0 .458-.945 6.381 6.381 0 0 0 .234-1.031 10.475 10.475 0 0 0 .059-2.1 15.124 15.124 0 0 0 -.285-2.069 12.672 12.672 0 0 0 -.578-2l.226 2.058c.074.682.139 1.363.184 2.043a19.659 19.659 0 0 1 .038 2.037 9.217 9.217 0 0 1 -.094 1.007z" transform="translate(-644.991 -330.898)"/><path d="m758.183 377.62a8.006 8.006 0 0 0 -.962-1.907 20.344 20.344 0 0 1 .622 2.012c.04.17.086.338.124.507l.111.509.095.512c.035.17.053.343.081.514l.041.257.027.259c.018.172.043.344.057.517.022.346.058.693.059 1.041.037.7-.007 1.393-.025 2.107a8.736 8.736 0 0 0 .382-2.1 10.08 10.08 0 0 0 .013-1.075c-.006-.179-.027-.357-.041-.536l-.025-.268-.039-.266-.042-.266c-.014-.088-.027-.177-.047-.265l-.116-.525c-.047-.173-.095-.346-.145-.517s-.113-.341-.17-.51z" transform="translate(-677.988 -319.494)"/><path d="m574.125 434.123c.807.04 1.614.065 2.423.065s1.618-.013 2.428-.087c-.8-.116-1.608-.2-2.412-.267s-1.61-.123-2.416-.164-1.613-.068-2.421-.074-1.616 0-2.428.044c.8.139 1.6.232 2.409.308s1.61.134 2.417.175z" transform="translate(-526.361 -366.194)"/><path d="m628.035 433.87q.69.036 1.38.086c.92.067 1.839.15 2.761.233l1.384.126.695.056a6.845 6.845 0 0 0 .7.031c-.115-.016-.227-.048-.34-.074l-.339-.08c-.226-.053-.454-.1-.681-.151-.455-.094-.912-.182-1.372-.256q-1.376-.232-2.773-.336a21.339 21.339 0 0 0 -2.8-.035 13.144 13.144 0 0 0 -1.4.154 7.208 7.208 0 0 0 -1.356.354 12.315 12.315 0 0 1 1.38-.133c.46-.023.92-.026 1.38-.021s.921.023 1.381.046z" transform="translate(-570.412 -366.069)"/><path d="m687.476 434.892c.233.033.467.067.7.083q.177.009.354.014c.118.007.236 0 .355 0l.355-.016.354-.04a6.067 6.067 0 0 0 1.383-.346 4.513 4.513 0 0 0 .644-.311 2.562 2.562 0 0 0 .566-.433 5.776 5.776 0 0 1 -.656.23c-.218.067-.44.121-.66.174-.442.1-.888.175-1.337.235l-.337.044-.339.033c-.226.03-.454.035-.682.06s-.458.027-.69.051-.464.026-.7.059c.228.071.458.115.69.163z" transform="translate(-621.158 -366.395)"/><path d="m723.3 420.486a11.859 11.859 0 0 0 -2.005.823c-.161.084-.318.176-.473.27s-.306.2-.451.3a4.8 4.8 0 0 0 -.8.729 8.864 8.864 0 0 1 .919-.54c.312-.165.634-.307.959-.442.649-.271 1.316-.5 1.989-.712s1.354-.4 2.04-.591l2.068-.557a13.416 13.416 0 0 0 -2.145.21 16.342 16.342 0 0 0 -2.101.51z" transform="translate(-647.607 -355.042)"/><path d="m769.724 410.182c-.121.04-.245.07-.368.108-.244.079-.495.132-.743.2-.124.037-.25.06-.376.091s-.252.061-.378.093c-.253.058-.509.109-.765.184.263.026.527.034.792.037.132-.005.264-.012.4-.02s.265-.014.4-.035a7.474 7.474 0 0 0 .785-.136c.13-.031.26-.059.388-.095l.382-.119a6.725 6.725 0 0 0 1.445-.685 4.978 4.978 0 0 0 .639-.483 3.02 3.02 0 0 0 .529-.6 6.429 6.429 0 0 1 -.659.418c-.223.128-.452.242-.682.352a13.665 13.665 0 0 1 -1.418.566z" transform="translate(-685.954 -346.131)"/><path d="m685.042 449.395c-.059.342-.143.68-.226 1.024a6.135 6.135 0 0 0 .442-.966 8.109 8.109 0 0 0 .283-1.029 10.1 10.1 0 0 0 .19-2.124 12.376 12.376 0 0 0 -.21-2.115 10.126 10.126 0 0 0 -.586-2.035c.092.7.173 1.392.233 2.084s.1 1.382.109 2.072a17.855 17.855 0 0 1 -.089 2.064q-.052.513-.146 1.025z" transform="translate(-619.567 -373.098)"/><path d="m725.073 442.33a6.706 6.706 0 0 0 .537-1.975 8.1 8.1 0 0 0 .056-1.031 9.232 9.232 0 0 0 -.073-1.03 9.326 9.326 0 0 0 -.495-2 7.4 7.4 0 0 0 -.949-1.812c.12.319.232.636.331.956s.194.64.278.962a16.125 16.125 0 0 1 .384 1.949c.042.328.073.656.093.986s.027.661.019.992a15.14 15.14 0 0 1 -.181 2.003z" transform="translate(-651.304 -366.914)"/><path d="m765.286 422.919c-.024-.046-.046-.092-.072-.136l-.085-.13-.084-.129c-.03-.042-.065-.081-.1-.121a1.485 1.485 0 0 0 -.462-.4 1.329 1.329 0 0 1 .2.221l.085.121c.028.04.049.086.074.128s.049.085.071.128l.06.134.06.133c.018.045.032.093.048.139.03.093.068.183.093.277l.071.284c.011.048.025.094.035.142l.026.145.051.289a14.475 14.475 0 0 1 .1 2.354l-.034.593-.014.3c0 .1-.019.2-.027.3l-.054.594-.026.3-.036.3c-.023.2-.05.4-.07.594l-.031.3c-.009.1-.028.2-.041.3-.052.4-.106.795-.14 1.2.132-.381.245-.768.358-1.155.058-.193.1-.39.146-.587s.085-.395.127-.592l.063-.3c.017-.1.03-.2.046-.3l.085-.6c.013-.1.029-.2.037-.3l.023-.3.04-.608a9.742 9.742 0 0 0 -.208-2.437 4.954 4.954 0 0 0 -.415-1.181z" transform="translate(-683.848 -356.845)"/><path d="m573.61 483.375c.716.02 1.432.038 2.149.064l1.078.036c.361.006.72.027 1.085.02a15.635 15.635 0 0 0 -2.134-.409 20.964 20.964 0 0 0 -4.339-.1 13.147 13.147 0 0 0 -2.149.33l2.161.023c.717.009 1.433.017 2.149.036z" transform="translate(-526.361 -405.991)"/><path d="m626.658 486.754 2.761-.044c.921-.016 1.842-.036 2.764-.068s1.844-.069 2.769-.142c-.921-.115-1.844-.174-2.768-.211s-1.849-.047-2.773-.032-1.85.059-2.773.144a15.12 15.12 0 0 0 -2.744.454c.926-.067 1.843-.083 2.764-.101z" transform="translate(-570.412 -408.681)"/><path d="m689.074 480.589c.608-.077 1.212-.183 1.81-.314s1.191-.286 1.776-.47c.293-.092.582-.194.87-.3.143-.058.286-.113.427-.177.07-.032.141-.065.21-.1.034-.019.069-.036.1-.056a.346.346 0 0 0 .094-.069.975.975 0 0 1 -.219.06l-.225.044-.45.083-.9.171q-.9.177-1.785.371t-1.777.406c-.592.144-1.183.287-1.775.46a12.6 12.6 0 0 0 1.844-.109z" transform="translate(-621.519 -402.915)"/><path d="m735.8 469.939a8.611 8.611 0 0 0 -1.712.253 12.134 12.134 0 0 0 -1.636.529 9.812 9.812 0 0 0 -1.537.767c.559-.133 1.1-.284 1.65-.429s1.087-.292 1.63-.425 1.088-.252 1.637-.338c.274-.04.55-.077.828-.091a4.414 4.414 0 0 1 .843.022 2.7 2.7 0 0 0 -.833-.244 5.286 5.286 0 0 0 -.87-.044z" transform="translate(-656.767 -395.519)"/><path d="m775.876 461.693c-.513.109-1.031.193-1.56.29a6.487 6.487 0 0 0 1.609.063 8.855 8.855 0 0 0 1.591-.272 10.216 10.216 0 0 0 1.519-.533q.368-.162.722-.349l.351-.19c.058-.032.116-.064.175-.093a.836.836 0 0 1 .182-.078 1.4 1.4 0 0 0 -.4.055c-.131.03-.26.067-.389.1-.257.071-.51.147-.763.222-.5.15-1.007.3-1.512.427s-1.012.253-1.525.358z" transform="translate(-691.781 -387.928)"/><path d="m797.479 472.785-.051.306c-.016.1-.042.2-.06.3-.036.2-.092.4-.142.605a11.858 11.858 0 0 1 -.4 1.19 6.5 6.5 0 0 0 .608-1.118 8.239 8.239 0 0 0 .39-1.22 9.6 9.6 0 0 0 .206-1.266 12.257 12.257 0 0 0 .047-1.28 13.488 13.488 0 0 0 -.3-2.531 11.792 11.792 0 0 0 -.764-2.418q.255 1.24.416 2.477a23.66 23.66 0 0 1 .19 2.481c.007.414 0 .826-.023 1.239s-.062.825-.117 1.235z" transform="translate(-709.946 -391.824)"/><path d="m764.1 481.495c-.032.422-.076.843-.127 1.263l-.044.314-.052.313c-.015.105-.036.208-.057.312s-.041.208-.066.31a7.959 7.959 0 0 1 -.367 1.222 5.215 5.215 0 0 0 .58-1.159 9.258 9.258 0 0 0 .354-1.252c.092-.424.156-.853.207-1.282s.078-.861.1-1.292a21.884 21.884 0 0 0 -.057-2.582 18.358 18.358 0 0 0 -.363-2.553l.01 2.567c0 .853-.012 1.7-.044 2.551q-.026.634-.074 1.268z" transform="translate(-682.966 -399.692)"/><path d="m727.4 491.6c-.018.2-.07.4-.1.6s-.074.4-.105.606c.079-.189.153-.38.226-.573a5.98 5.98 0 0 0 .2-.585l.161-.6a2.466 2.466 0 0 0 .068-.3l.055-.305a11.444 11.444 0 0 0 -.194-4.932 8.43 8.43 0 0 0 -.934-2.285 16.564 16.564 0 0 1 .59 2.361 17.788 17.788 0 0 1 .188 4.808c-.034.405-.103.805-.155 1.205z" transform="translate(-653.419 -406.247)"/><path d="m676.915 490.812c.032.746.06 1.485.074 2.222s.008 1.471-.031 2.2a18.27 18.27 0 0 1 -.229 2.178 10.184 10.184 0 0 1 -.6 2.119 5.965 5.965 0 0 0 .942-2.042 10.469 10.469 0 0 0 .337-2.232 14.189 14.189 0 0 0 -.07-2.247 12.053 12.053 0 0 0 -.423-2.198z" transform="translate(-612.56 -412.363)"/><path d="m613.461 499.533c-.026.216-.068.429-.1.644s-.084.426-.138.637a8.039 8.039 0 0 1 -1 2.414 5.838 5.838 0 0 0 1.34-2.316 8.625 8.625 0 0 0 .325-1.312c.042-.222.067-.445.1-.668s.045-.447.057-.671a15.181 15.181 0 0 0 -.082-2.681c-.049-.443-.12-.884-.206-1.321a11.685 11.685 0 0 0 -.329-1.294c.085.885.148 1.765.183 2.643s.036 1.755-.019 2.626q-.041.652-.131 1.299z" transform="translate(-560.993 -414.099)"/><path d="m576.212 547.688c-.606.019-1.214 0-1.822-.027s-1.219-.071-1.832-.116-1.226-.09-1.849-.116a11.549 11.549 0 0 0 1.8.469 14.29 14.29 0 0 0 1.854.216 9.985 9.985 0 0 0 1.876-.071 6.065 6.065 0 0 0 .923-.206 2.97 2.97 0 0 0 .848-.409 4.674 4.674 0 0 1 -.9.191c-.292.042-.595.057-.898.069z" transform="translate(-527.499 -458.045)"/><path d="m620.06 539.734c.221.025.443.032.666.049l.167.009h.5.334l.333-.018a21.442 21.442 0 0 0 2.645-.307q1.311-.225 2.6-.57a23.1 23.1 0 0 0 2.53-.81c-.875.144-1.742.3-2.607.466s-1.73.321-2.595.467-1.73.291-2.6.4a24.013 24.013 0 0 1 -2.627.213c.213.036.433.067.654.101z" transform="translate(-566.786 -450.503)"/><path d="m678.915 533.848a10.679 10.679 0 0 0 2.338.329 15.983 15.983 0 0 0 2.363-.1 17.134 17.134 0 0 0 2.324-.423c.191-.047.381-.1.57-.155s.376-.118.564-.178.372-.132.553-.213c.091-.039.182-.077.27-.124.044-.023.088-.044.131-.069l.123-.082-.138.05c-.046.015-.095.025-.141.038-.093.027-.188.048-.284.068-.189.045-.381.079-.571.118-.383.072-.765.138-1.148.2-.767.121-1.534.233-2.3.317s-1.54.155-2.314.2-1.555.04-2.34.024z" transform="translate(-614.806 -446.269)"/><path d="m734.05 529.894a8.392 8.392 0 0 0 1.551-.308 5.5 5.5 0 0 0 1.431-.668c-.514.12-1.01.236-1.514.321s-1.007.153-1.515.2-1.017.092-1.53.127-1.028.065-1.553.1a7.287 7.287 0 0 0 1.554.251 9.894 9.894 0 0 0 1.576-.023z" transform="translate(-656.767 -443.109)"/><path d="m771.532 518.687c.462-.13.925-.264 1.393-.41a6.969 6.969 0 0 0 -1.466.062 9.177 9.177 0 0 0 -1.434.312 7.083 7.083 0 0 0 -1.366.56 3.876 3.876 0 0 0 -1.158.916 10.078 10.078 0 0 1 1.307-.592c.441-.171.895-.309 1.348-.45s.915-.268 1.376-.398z" transform="translate(-686.283 -434.51)"/><path d="m799.047 517.9a2.266 2.266 0 0 0 .718.274 3.449 3.449 0 0 0 .753.073 3.763 3.763 0 0 0 .749-.083 2.513 2.513 0 0 0 .718-.264 5.167 5.167 0 0 0 -.747-.091c-.244-.014-.485-.019-.725-.016s-.48.009-.722.025a6.406 6.406 0 0 0 -.744.082z" transform="translate(-711.736 -434.129)"/><path d="m616.131 559.138c-.016.1-.032.191-.045.288s-.033.192-.052.288-.035.193-.061.286a10.878 10.878 0 0 1 -.333 1.136 5.882 5.882 0 0 0 .546-1.07 6.765 6.765 0 0 0 .329-1.165 8.5 8.5 0 0 0 .1-2.418 10.8 10.8 0 0 0 -.5-2.359 9.693 9.693 0 0 0 -1-2.178c.258.754.475 1.511.656 2.273.087.382.168.764.233 1.149s.117.77.154 1.157a11.9 11.9 0 0 1 0 2.323z" transform="translate(-563.331 -461.689)"/><path d="m677.816 550.568-.008.175a13.017 13.017 0 0 1 -.434 2.788 8.359 8.359 0 0 0 .787-2.759 9.74 9.74 0 0 0 .067-1.446c0-.242-.022-.482-.037-.723s-.048-.48-.083-.719a13.757 13.757 0 0 0 -.709-2.792 12.231 12.231 0 0 0 -1.265-2.571 26.289 26.289 0 0 1 .93 2.68 20.759 20.759 0 0 1 .6 2.748c.069.463.114.928.139 1.394.017.233.017.466.024.7v.35z" transform="translate(-612.56 -454.084)"/><path d="m729.255 541.873q.079.746.112 1.494c.018.5.016 1 0 1.5s-.074 1-.15 1.492a13.807 13.807 0 0 1 -.326 1.476 8.26 8.26 0 0 0 .544-1.429 11.019 11.019 0 0 0 .285-1.51 13.336 13.336 0 0 0 .08-1.536c-.006-.513-.039-1.024-.092-1.533a18.447 18.447 0 0 0 -.589-3 16.3 16.3 0 0 0 -1.072-2.854q.417 1.464.729 2.938c.204.978.369 1.968.479 2.962z" transform="translate(-654.447 -448.796)"/><path d="m765.709 540.67.068-.719c.022-.24.044-.481.043-.722s.01-.483.011-.724v-.181c0-.06-.007-.121-.01-.181l-.021-.362-.023-.362-.012-.181c-.006-.06-.014-.12-.022-.18l-.1-.72a13.061 13.061 0 0 0 -.773-2.8c-.1-.223-.181-.449-.3-.664l-.163-.324-.179-.316a6.422 6.422 0 0 0 -.851-1.168 9.782 9.782 0 0 1 .654 1.269l.142.325.126.332c.088.219.161.444.236.668a19.023 19.023 0 0 1 .656 2.748l.1.7c.008.058.018.117.025.175l.016.177.032.353.034.353.017.177.008.177c.009.236.021.473.035.709 0 .118.018.237.013.356s0 .237 0 .356l.007.714c-.008.476-.034.952-.03 1.434.105-.469.191-.943.261-1.419z" transform="translate(-682.966 -444.844)"/><path d="m569.727 602.449a10.5 10.5 0 0 0 2.3.32 10.036 10.036 0 0 0 2.318-.2 8.546 8.546 0 0 0 2.184-.76 20.236 20.236 0 0 1 -2.24.41c-.375.038-.749.073-1.124.089-.188.006-.375.015-.563.014h-.281l-.281-.006a17.439 17.439 0 0 1 -2.244-.212 18.18 18.18 0 0 1 -2.222-.5 6.723 6.723 0 0 0 1.044.5 9.7 9.7 0 0 0 1.109.345z" transform="translate(-524.971 -501.756)"/><path d="m632.641 601.807a1.858 1.858 0 0 1 -.349.075c-.118.017-.236.031-.355.043-.237.023-.475.044-.713.059-.475.035-.952.055-1.427.075-.952.034-1.9.048-2.853.035s-1.9-.05-2.847-.125a28.584 28.584 0 0 1 -2.836-.366 12.747 12.747 0 0 0 2.8.718c.477.076.957.126 1.438.163s.963.058 1.444.063a23.7 23.7 0 0 0 2.885-.137q.718-.076 1.43-.207c.236-.047.473-.1.707-.156a2.94 2.94 0 0 0 .676-.24z" transform="translate(-568.287 -501.756)"/><path d="m689.075 601.5c.18.006.359 0 .539 0s.359-.01.538-.02a16.275 16.275 0 0 0 2.131-.263 13.2 13.2 0 0 0 2.069-.557l-2.12.2c-.7.065-1.4.125-2.106.162q-.526.031-1.051.04t-1.05 0a12.331 12.331 0 0 1 -2.1-.222 6.433 6.433 0 0 0 2.072.578 10.32 10.32 0 0 0 1.078.082z" transform="translate(-620.463 -500.996)"/><path d="m739.226 593.637a8.907 8.907 0 0 0 1.7-.2 13.309 13.309 0 0 0 1.638-.455q.4-.139.793-.3c.13-.056.261-.109.39-.166l.194-.084a1.454 1.454 0 0 1 .2-.076 2.235 2.235 0 0 0 -.426.041c-.14.021-.279.049-.418.074-.277.053-.552.111-.825.17-.547.119-1.091.241-1.634.353s-1.087.216-1.633.287a6.626 6.626 0 0 1 -1.659.049 2.8 2.8 0 0 0 .823.25 5.3 5.3 0 0 0 .857.057z" transform="translate(-662.11 -494.294)"/><path d="m781.614 571.67a8.765 8.765 0 0 0 -1.952 1.034 6.928 6.928 0 0 0 -.848.709 5.643 5.643 0 0 0 -.7.847c.278-.237.551-.47.844-.677.071-.054.146-.1.219-.154s.146-.1.223-.148l.225-.143.229-.136a13.823 13.823 0 0 1 1.922-.908 20.661 20.661 0 0 1 2.035-.655c.693-.183 1.394-.344 2.109-.482a9.407 9.407 0 0 0 -2.184.138 10.981 10.981 0 0 0 -2.122.575z" transform="translate(-694.847 -477.015)"/><path d="m775.37 598.916c0 .1-.013.2-.021.3l-.012.15-.018.149a7.147 7.147 0 0 1 -.227 1.186 4.689 4.689 0 0 0 .446-1.145 7.948 7.948 0 0 0 .208-1.217 13.285 13.285 0 0 0 -.009-2.459 19.14 19.14 0 0 0 -.38-2.42 16.1 16.1 0 0 0 -.688-2.345l.341 2.407c.106.8.2 1.6.276 2.4q.053.6.084 1.2c.019.4.025.8.024 1.2l-.007.3z" transform="translate(-692.065 -493.292)"/><path d="m726.177 610.565c.011.187.029.373.045.559.032.372.077.743.131 1.113s.12.738.186 1.1.159.731.257 1.092c0-.376-.021-.747-.036-1.119l-.025-.557c-.009-.185-.023-.37-.029-.555l-.106-2.217q-.046-1.108-.076-2.216c-.015-.74-.029-1.479-.026-2.228a9.14 9.14 0 0 0 -.215 1.1q-.076.556-.112 1.117a20.749 20.749 0 0 0 -.024 2.243z" transform="translate(-652.899 -504.934)"/><path d="m667.921 609.6c-.021.811-.046 1.619-.1 2.425s-.12 1.609-.234 2.406c-.059.4-.124.8-.215 1.189a11.75 11.75 0 0 1 -.319 1.175 6.277 6.277 0 0 0 .532-1.112c.073-.193.133-.391.195-.588s.109-.4.154-.6a12.181 12.181 0 0 0 .221-1.216c.03-.2.048-.409.071-.613s.035-.409.047-.615a20.06 20.06 0 0 0 0-2.459 16.5 16.5 0 0 0 -.311-2.436z" transform="translate(-605.238 -506.239)"/><path d="m611.526 613.638a12.606 12.606 0 0 1 -.558 2.316 7.151 7.151 0 0 0 .906-2.248 10.9 10.9 0 0 0 .22-1.2c.028-.2.047-.4.067-.6s.032-.4.041-.606a17.656 17.656 0 0 0 -.049-2.422 14.766 14.766 0 0 0 -.384-2.386c.014.806.028 1.6.031 2.4s-.01 1.592-.052 2.384-.106 1.579-.222 2.362z" transform="translate(-559.982 -505.698)"/><path d="m569.637 656.17c.172 0 .345 0 .517-.013s.345-.018.517-.033.344-.04.515-.062a6.782 6.782 0 0 0 1.986-.571 15.076 15.076 0 0 1 -2.019.215c-.168 0-.336.01-.5.018h-.505c-.168 0-.337 0-.505 0s-.337 0-.506-.011c-.674-.017-1.35-.058-2.027-.1s-1.356-.087-2.043-.122a12.747 12.747 0 0 0 2 .475 15.764 15.764 0 0 0 2.053.2c.172.007.345.004.517.004z" transform="translate(-522.944 -545.237)"/><path d="m623.229 655.831c-.773.034-1.543.064-2.313.076q-.577.008-1.153 0c-.384-.007-.767-.025-1.15-.047l-.287-.022-.286-.028c-.1-.007-.19-.021-.286-.032s-.19-.025-.285-.041a8.183 8.183 0 0 1 -1.133-.244 4.92 4.92 0 0 0 1.083.461 8.5 8.5 0 0 0 1.153.257 13.964 13.964 0 0 0 2.349.15 19.54 19.54 0 0 0 2.338-.178 16.024 16.024 0 0 0 2.3-.462c-.784.031-1.559.073-2.33.11z" transform="translate(-564.313 -545.237)"/><path d="m683.764 653.094c-.78.04-1.557.091-2.334.141l-2.329.153c-.777.044-1.552.091-2.338.1a12.048 12.048 0 0 0 2.344.25c.786.024 1.571 0 2.354-.054s1.562-.131 2.338-.243a22.473 22.473 0 0 0 2.313-.432c-.788.008-1.569.042-2.348.085z" transform="translate(-613.069 -543.236)"/><path d="m732.813 644 .263.029c.175.015.352.036.528.044s.353.006.53.007a11.205 11.205 0 0 0 2.1-.231 13.375 13.375 0 0 0 2.03-.585 10.348 10.348 0 0 0 1.892-.926c-.671.208-1.334.408-2 .588s-1.337.341-2.01.478-1.352.24-2.035.32c-.171.016-.342.032-.514.051s-.344.019-.517.031l-.26.018c-.087 0-.173 0-.26 0-.174 0-.349.006-.525.016.17.041.342.076.516.11.088.016.175.034.262.05z" transform="translate(-657.668 -534.619)"/><path d="m787.541 632.91c-.571.11-1.142.2-1.719.278s-1.156.1-1.754.109a6.136 6.136 0 0 0 1.775.248 10.163 10.163 0 0 0 1.786-.19 12.117 12.117 0 0 0 1.722-.486 9.13 9.13 0 0 0 1.615-.76l-1.719.42q-.853.206-1.706.381z" transform="translate(-699.65 -526.37)"/><path d="m610.335 663.1a18.451 18.451 0 0 0 .136 2.13 12.017 12.017 0 0 0 .439 2.1 6.017 6.017 0 0 0 .415 1 2.43 2.43 0 0 0 .682.832 3.054 3.054 0 0 1 -.479-.923 8.233 8.233 0 0 1 -.274-1c-.145-.68-.245-1.371-.334-2.065s-.16-1.392-.232-2.093-.142-1.4-.233-2.109a15.144 15.144 0 0 0 -.12 2.128z" transform="translate(-559.472 -549.661)"/><path d="m663.43 667.366a15.122 15.122 0 0 0 .24-2.131c.034-.713.029-1.426-.007-2.137a16.839 16.839 0 0 0 -.235-2.124c-.058.712-.088 1.419-.12 2.126l-.091 2.113c-.035.7-.073 1.4-.14 2.1-.035.348-.069.7-.129 1.043a6.074 6.074 0 0 1 -.246 1.027 3.853 3.853 0 0 0 .462-.973 8.426 8.426 0 0 0 .266-1.044z" transform="translate(-601.724 -549.66)"/><path d="m726.283 661.589c.026-.166.04-.332.057-.5s.024-.333.028-.5a11.415 11.415 0 0 0 -.113-1.988 9.827 9.827 0 0 0 -.463-1.928c.042.66.084 1.31.109 1.96s.036 1.3.013 1.94c-.009.322-.029.643-.06.962s-.069.638-.126.953a7.443 7.443 0 0 1 -.562 1.852 4.584 4.584 0 0 0 .909-1.772 7.061 7.061 0 0 0 .208-.979z" transform="translate(-652.125 -546.192)"/><path d="m777.7 652.538a10.335 10.335 0 0 1 -.179 1.032 5.073 5.073 0 0 0 .4-.988 7.183 7.183 0 0 0 .209-1.05 9.984 9.984 0 0 0 .015-2.134 13.329 13.329 0 0 0 -.371-2.093 11.142 11.142 0 0 0 -.712-2c.128.695.255 1.381.364 2.068s.2 1.374.267 2.062a17.483 17.483 0 0 1 .081 2.065c-.018.349-.033.694-.074 1.038z" transform="translate(-693.992 -537.021)"/><path d="m790.5 688.364c-.063 0-.126 0-.188.006l-.372.021c-.246.015-.49.029-.733.037-.486.018-.969.017-1.451-.006s-.963-.066-1.446-.129-.966-.144-1.463-.217a5.8 5.8 0 0 0 1.393.567 7.011 7.011 0 0 0 3 .138 6.589 6.589 0 0 0 .734-.172c.12-.037.239-.074.357-.116l.176-.061c.029-.01.058-.021.088-.029s.06-.021.088-.006c-.022-.027-.061-.025-.091-.029s-.056-.003-.092-.004z" transform="translate(-700.282 -571.527)"/><path d="m730.121 691.083c.19.023.38.04.57.058.381.031.763.055 1.145.062a17.292 17.292 0 0 0 2.3-.089c.191-.02.381-.046.572-.071s.38-.058.569-.1a10.792 10.792 0 0 0 1.124-.268 7.31 7.31 0 0 0 2.1-.945 14.447 14.447 0 0 1 -2.182.6c-.737.144-1.481.247-2.229.327s-1.5.136-2.255.187l-1.135.069-.57.038a5.153 5.153 0 0 0 -.571.061c.1 0 .19.018.284.03z" transform="translate(-655.664 -572.867)"/><path d="m669.513 700.458c.466.039.934.051 1.4.046.234 0 .468-.014.7-.025s.468-.034.7-.06.466-.059.7-.092.463-.079.692-.13a11.15 11.15 0 0 0 1.357-.374 9.576 9.576 0 0 0 2.5-1.252 17.049 17.049 0 0 1 -2.6.913c-.221.06-.445.106-.667.159s-.446.1-.672.132c-.449.083-.9.145-1.356.194a24.676 24.676 0 0 1 -2.743.137c-.919-.007-1.839-.05-2.764-.143a10.354 10.354 0 0 0 1.36.323c.463.078.926.138 1.393.172z" transform="translate(-605.001 -579.995)"/><path d="m627.838 707.825a11.007 11.007 0 0 1 -1.554.056c-.519-.015-1.039-.06-1.561-.125s-1.044-.145-1.576-.237a6.13 6.13 0 0 0 1.51.586 7.5 7.5 0 0 0 1.613.229 6.142 6.142 0 0 0 1.63-.159 4.264 4.264 0 0 0 1.488-.657c-.263.067-.517.139-.776.186s-.512.096-.774.121z" transform="translate(-569.81 -587.216)"/><path d="m581.5 704.188a9.67 9.67 0 0 0 -1.013-.081c-.339-.008-.677 0-1.014.025a12.571 12.571 0 0 0 -2 .309c-.327.077-.651.171-.97.273-.159.054-.318.107-.475.166l-.235.09c-.078.031-.155.065-.234.091.169-.008.334-.039.5-.061l.495-.072c.328-.051.657-.094.984-.138.655-.088 1.309-.159 1.963-.206q.491-.034.982-.047t.982.006c.327.015.655.034.982.071s.654.091.986.149a5.654 5.654 0 0 0 -.942-.368 8.111 8.111 0 0 0 -.991-.207z" transform="translate(-531.417 -584.461)"/><path d="m617.372 718.281a11.589 11.589 0 0 0 .438-2.146 8.418 8.418 0 0 0 -.031-2.2c-.031-.182-.065-.363-.1-.542l-.074-.266-.037-.133c-.015-.044-.029-.087-.045-.131a3.421 3.421 0 0 0 -.5-.977 4.923 4.923 0 0 1 .281 1.033l.025.13.018.132.036.263c.013.177.034.352.045.528l.017.529-.007.529c-.007.176-.021.353-.031.529s-.028.352-.048.528l-.027.264c-.008.088-.018.176-.034.263l-.08.526c-.02.177-.061.35-.093.525s-.066.35-.1.526l-.118.523-.114.526c-.087.348-.176.7-.246 1.055.165-.323.311-.655.458-.988.132-.337.255-.679.367-1.026z" transform="translate(-564.487 -590.74)"/><path d="m660.785 709.38c.123.859.225 1.713.3 2.566s.125 1.708.13 2.56c0 .426-.007.852-.03 1.277s-.063.848-.117 1.27c-.031.21-.061.421-.1.63s-.083.418-.13.627a12.3 12.3 0 0 1 -.371 1.235 6.767 6.767 0 0 0 .584-1.169 9.2 9.2 0 0 0 .368-1.261 12.122 12.122 0 0 0 .252-2.611 16.031 16.031 0 0 0 -.234-2.6 13.841 13.841 0 0 0 -.652-2.524z" transform="translate(-599.923 -588.717)"/><path d="m717.7 704.005.038-.307c.006-.051.01-.1.014-.155a.471.471 0 0 0 0-.155.534.534 0 0 1 -.03.149c-.015.049-.03.1-.046.147l-.094.294c-.063.2-.12.394-.18.591-.112.4-.216.8-.3 1.2a22.208 22.208 0 0 0 -.532 4.916 17.013 17.013 0 0 0 .178 2.468l.176-2.455c.066-.814.137-1.626.226-2.437s.19-1.619.3-2.429l.173-1.215z" transform="translate(-645.186 -583.882)"/><path d="m769.695 703.855c.019-.178.028-.356.04-.534s.014-.357.016-.535a15.58 15.58 0 0 0 -.122-2.129 12.784 12.784 0 0 0 -.426-2.086l.072 2.113c.02.7.033 1.4.023 2.1q0 .522-.032 1.043c-.006.174-.022.347-.031.52s-.028.347-.048.519a11.084 11.084 0 0 1 -.392 2.057 6.056 6.056 0 0 0 .745-2 9.783 9.783 0 0 0 .155-1.068z" transform="translate(-687.326 -579.995)"/><path d="m586.889 757.632-1.383-.054c-.463-.018-.929-.026-1.4-.028a4.64 4.64 0 0 0 .673.227c.228.061.458.112.69.154a9.733 9.733 0 0 0 1.406.154 7.8 7.8 0 0 0 1.419-.067 4.275 4.275 0 0 0 1.364-.408c-.474.041-.93.051-1.39.052s-.92-.016-1.379-.03z" transform="translate(-538.306 -627.583)"/><path d="m624.723 760.025c-.159.01-.316.029-.474.032a9.477 9.477 0 0 1 -1.885-.107 12.065 12.065 0 0 1 -1.845-.443 15.679 15.679 0 0 1 -1.8-.7 6.546 6.546 0 0 0 1.67 1.035 7.661 7.661 0 0 0 1.9.559 6.589 6.589 0 0 0 1.989.013 5.412 5.412 0 0 0 1.866-.629c-.322.065-.634.142-.952.182-.152.027-.311.039-.469.058z" transform="translate(-566.239 -628.595)"/><path d="m671.373 756.53c-.1.011-.189.027-.285.035l-.286.021-.286.024c-.1.008-.191.017-.286.018l-.574.02-.144.006h-.144-.288-.289-.144l-.144-.009-.578-.034c-.195 0-.385-.032-.579-.05s-.388-.038-.584-.05c.185.062.372.118.561.174a5.448 5.448 0 0 0 .57.147l.58.109c.049.009.1.019.146.026l.147.015.294.03.295.03.148.013h.148l.593.01c.1 0 .2 0 .3-.009l.3-.016.3-.019c.1-.008.2-.023.295-.034a10.81 10.81 0 0 0 2.308-.518 8.36 8.36 0 0 0 2.116-1.028 18.15 18.15 0 0 1 -2.215.689 17.809 17.809 0 0 1 -2.275.4z" transform="translate(-605.001 -625.877)"/><path d="m729.609 745.282-.245.132c-.079.047-.166.082-.249.122s-.166.081-.253.113-.173.066-.258.1l-.128.051c-.043.016-.088.028-.132.042a10.735 10.735 0 0 1 -2.164.462l-.275.037c-.092.011-.185.013-.278.021l-.556.044c-.185.015-.372.01-.559.02l-.28.009c-.093 0-.187.012-.281.01-.187 0-.374-.007-.562-.006s-.376.006-.565 0c-.376-.012-.754-.026-1.136-.02.368.094.741.167 1.116.242.376.059.755.1 1.135.139.19.016.382.02.573.027l.287.009c.1 0 .192.008.287 0l.575-.027c.1-.006.192-.008.288-.019l.287-.036a7.749 7.749 0 0 0 2.235-.583c.045-.019.09-.036.133-.057l.13-.066c.087-.044.173-.087.258-.133s.165-.1.248-.152a2.873 2.873 0 0 0 .241-.161l.229-.178c.072-.065.145-.129.214-.195a2.319 2.319 0 0 0 .361-.447 3.21 3.21 0 0 1 -.441.351c-.079.049-.157.1-.235.149z" transform="translate(-649.317 -617.282)"/><path d="m777.8 739.72a7.286 7.286 0 0 0 -.869-.184 8.856 8.856 0 0 0 -.882-.081 9.562 9.562 0 0 0 -1.76.1 7.724 7.724 0 0 0 -1.7.44c.584-.034 1.159-.068 1.732-.086s1.142-.022 1.71 0c.284.011.566.03.848.055s.562.063.843.105.559.1.836.168.552.154.832.243a4.37 4.37 0 0 0 -.757-.453 6.147 6.147 0 0 0 -.833-.307z" transform="translate(-690.387 -612.979)"/><path d="m752.056 757.357q-.115.957-.238 1.908t-.283 1.9c-.107.631-.234 1.257-.364 1.9a9.164 9.164 0 0 0 .712-1.819 15.006 15.006 0 0 0 .384-1.915 17.42 17.42 0 0 0 .144-1.944 12.506 12.506 0 0 0 -.107-1.946c-.095.639-.169 1.278-.248 1.916z" transform="translate(-673.107 -625.877)"/><path d="m706.582 762.015c.01.693.015 1.377 0 2.059s-.042 1.361-.093 2.038-.136 1.349-.24 2.02c-.03.167-.06.334-.087.5s-.072.332-.106.5l-.051.252c-.018.084-.045.165-.064.249-.043.166-.085.333-.122.5.084-.151.163-.306.241-.461.039-.078.079-.156.113-.236l.1-.242c.06-.163.128-.325.181-.491s.1-.334.148-.5a11.312 11.312 0 0 0 .344-2.06 13.524 13.524 0 0 0 0-2.084 10.389 10.389 0 0 0 -.364-2.044z" transform="translate(-636.515 -631.186)"/><path d="m662.734 768.165a7.343 7.343 0 0 0 -.635-1.767c.116.614.213 1.221.284 1.828a18.163 18.163 0 0 1 .13 1.821 13.31 13.31 0 0 1 -.414 3.628 5.855 5.855 0 0 0 .685-1.752 7.844 7.844 0 0 0 .183-1.884 9.159 9.159 0 0 0 -.233-1.874z" transform="translate(-601.238 -634.722)"/><path d="m629.277 768.594c-.025.427-.055.838-.1 1.246s-.106.809-.186 1.207c-.019.1-.036.2-.063.3l-.068.3c-.058.193-.1.394-.168.586-.111.4-.271.772-.412 1.179a3.866 3.866 0 0 0 .743-1.046l.072-.145c.024-.048.041-.1.062-.149.041-.1.077-.2.116-.3a5.747 5.747 0 0 0 .163-.626 5.162 5.162 0 0 0 .1-1.285 3.923 3.923 0 0 0 -.259-1.267z" transform="translate(-573.949 -636.494)"/><path d="m675.053 98.041a5.737 5.737 0 0 1 -.133.691 6.42 6.42 0 0 1 -.508 1.33 3.912 3.912 0 0 0 .711-1.269 4.877 4.877 0 0 0 .259-1.445 5.92 5.92 0 0 0 -.14-1.457 5.222 5.222 0 0 0 -.492-1.366 11.14 11.14 0 0 1 .284 1.4c.029.235.056.47.067.706a6.556 6.556 0 0 1 .009.705 5.755 5.755 0 0 1 -.057.705z" transform="translate(-611.173 -92.614)"/><path d="m649.778 122.525a4.5 4.5 0 0 0 1.257-.063 4.363 4.363 0 0 0 .608-.155 2.641 2.641 0 0 0 .291-.113c.1-.041.191-.083.284-.128-.1.016-.2.036-.306.055s-.2.048-.3.056c-.2.026-.4.065-.6.074a6.673 6.673 0 0 1 -1.2 0c-.1-.01-.2-.017-.3-.03s-.2-.034-.3-.048c-.2-.036-.394-.081-.589-.132a6.793 6.793 0 0 1 -1.148-.42 3.538 3.538 0 0 0 1.082.621 4.525 4.525 0 0 0 1.221.283z" transform="translate(-589.433 -114.48)"/></g><path d="m765.782 518.7c-1.552 9.278-3.578 16.975-5.237 20.389-4.234 8.712-8.865 10.777-9.008 10.84 1.721-1.742 1.6-5.141 1.148-14.258a24.159 24.159 0 0 0 -1.584-7.213 22.909 22.909 0 0 0 .842-3.878c.253-2.217-.218-10.77-.56-20.579 4.78-20.61 14.817-30.757 14.817-30.757a60.161 60.161 0 0 1 1.867 12.738c.551 10.433-.581 22.532-2.285 32.718z" fill="#83a716" transform="translate(-673.051 -398.19)"/><path d="m786.472 269.621c6.636-4.936 8.288-16.643 8.845-20.746 0 0-7.743 8.08-16.223 11.371s-25.071 18.882-27.284 31.964c-1.175 6.946-.949 19.655-.561 30.757 4.779-20.611 14.817-30.757 14.817-30.757 5.777-7.538 13.769-17.654 20.406-22.589z" fill="#83a716" transform="translate(-672.919 -217.153)"/><path d="m765.781 518.7c-1.552 9.278-3.578 16.975-5.237 20.389-4.234 8.712-8.865 10.777-9.008 10.84 1.721-1.742 1.6-5.141 1.148-14.258a24.159 24.159 0 0 0 -1.584-7.213 22.909 22.909 0 0 0 .842-3.878c.253-2.217-.218-10.77-.56-20.579 4.78-20.61 14.817-30.757 14.817-30.757a60.161 60.161 0 0 1 1.867 12.738 59.463 59.463 0 0 0 -12.616 29.868c-2.581 20.752 1.541 22.833 4.2 20.631s6.131-17.781 6.131-17.781z" fill="#517909" transform="translate(-673.051 -398.19)"/><path d="m812.832 547.6c-.031.585-.056 1.171-.081 1.756l-.1 1.755c-.076 1.169-.137 2.339-.241 3.506-.077 1.169-.2 2.334-.294 3.5l-.179 1.749-.091.875-.1.873-.2 1.748-.234 1.745-.111.874-.132.871c-.086.582-.17 1.164-.245 1.749.155-.57.3-1.142.446-1.715l.213-.86.187-.865.355-1.735c.108-.58.2-1.162.3-1.744l.146-.873c.043-.292.079-.584.119-.876l.232-1.753c.123-1.171.254-2.343.334-3.518s.148-2.35.2-3.526l.045-1.765c.012-.588.01-1.177.01-1.765a63.652 63.652 0 0 0 -.373-7.047q-.057 3.53-.206 7.041z" fill="#a4d60d" transform="translate(-721.236 -452.504)"/><path d="m792.2 582.731c-.076 1.287-.131 2.574-.2 3.861l-.186 3.861-.348 7.722-.367 7.726c.435-2.551.713-5.122.942-7.694.122-1.286.2-2.574.3-3.861.047-.644.074-1.288.112-1.932l.1-1.933c.054-1.289.106-2.578.145-3.867s.07-2.579.077-3.868c.03-2.579.024-5.159-.076-7.74-.212 2.577-.365 5.151-.499 7.725z" fill="#a4d60d" transform="translate(-705.32 -480.297)"/><path d="m835.681 368.393-1.831 2.238c-1.216 1.494-2.41 3-3.6 4.516s-2.369 3.033-3.52 4.579c1.39-1.368 2.7-2.8 3.977-4.256s2.521-2.933 3.735-4.432c.6-.753 1.206-1.5 1.8-2.262s1.185-1.519 1.758-2.291c1.158-1.536 2.29-3.09 3.355-4.687-1.312 1.432-2.573 2.9-3.817 4.374-.629.734-1.238 1.482-1.857 2.221z" fill="#a4d60d" transform="translate(-734.071 -308.266)"/><path d="m795.489 307.085q-2.778 2.338-5.409 4.823c-1.758 1.651-3.447 3.365-5.095 5.112-.824.874-1.622 1.768-2.412 2.668s-1.563 1.814-2.318 2.739-1.488 1.867-2.2 2.822-1.415 1.917-2.081 2.9-1.316 1.976-1.933 2.987-1.214 2.032-1.767 3.074a50.434 50.434 0 0 0 -2.914 6.413c-.4 1.1-.766 2.208-1.067 3.333-.079.28-.143.564-.216.845l-.1.423-.093.425c-.128.566-.225 1.138-.328 1.708a48.994 48.994 0 0 1 5.235-12.906q1.742-3.054 3.776-5.955t4.283-5.66c1.49-1.847 3.059-3.639 4.671-5.4s3.278-3.477 4.98-5.164 3.452-3.335 5.241-4.947 3.609-3.2 5.488-4.723c-1.989 1.414-3.882 2.932-5.741 4.483z" fill="#a4d60d" transform="translate(-686.323 -260.505)"/><path d="m785.767 378.5c.114-.214.219-.432.346-.641l.719-1.267c.12-.211.236-.423.353-.635s.252-.416.377-.624q.382-.621.754-1.245c.12-.21.257-.412.391-.615l.4-.609c.516-.822 1.093-1.609 1.648-2.408.282-.4.584-.781.875-1.172.149-.193.289-.393.445-.581s.311-.378.463-.569l.458-.572c.151-.192.319-.372.477-.559l.481-.556c.156-.189.324-.369.49-.55.332-.362.662-.728 1.01-1.078l.514-.532.533-.516a28.485 28.485 0 0 1 2.24-1.977 18.857 18.857 0 0 0 -2.489 1.736l-.583.482-.564.5c-.383.328-.731.686-1.092 1.034s-.7.714-1.04 1.079c-.168.184-.345.362-.5.552l-.486.566c-.163.188-.322.379-.482.57s-.305.39-.458.585c-.3.394-.611.781-.9 1.18l-.847 1.222c-.14.2-.28.406-.406.617l-.388.627-.384.629c-.128.209-.258.418-.372.634q-.357.642-.7 1.29c-.114.216-.235.429-.342.648s-.211.439-.312.661l-.613 1.324c-.1.22-.187.448-.278.673s-.179.45-.265.677c-.174.452-.346.9-.509 1.358.239-.426.469-.856.7-1.285.113-.217.223-.433.336-.653z" fill="#a4d60d" transform="translate(-700.186 -308.266)"/><path d="m346.987 328.665s2.212-10.8 15.3-8.625 22.858 22.019 26.913 32.86 14.378 21.825 20.461 29.1 16.406 18.684 16.959 29.827.609 13.745-2.586 15.22-29.864.454-35.518-23.942 4.179-27.74-10.447-55.8-27.14-21.138-31.082-18.64z" fill="#83a716" transform="translate(-346.987 -274.341)"/><path d="m584.325 665.417q-.894-1.059-1.671-2.2c-.521-.754-1.006-1.53-1.458-2.321a43.433 43.433 0 0 1 -2.393-4.892c-.346-.837-.683-1.677-.989-2.528s-.6-1.706-.868-2.567-.532-1.725-.775-2.595-.462-1.744-.68-2.619c-.436-1.751-.8-3.517-1.141-5.287s-.627-3.551-.878-5.336-.472-3.575-.638-5.373c0 1.8.124 3.608.28 5.408s.386 3.6.67 5.384.627 3.57 1.027 5.341.885 3.527 1.427 5.267c.559 1.736 1.185 3.456 1.915 5.14.365.842.763 1.672 1.181 2.493.208.411.428.817.651 1.222s.459.8.706 1.2a28.251 28.251 0 0 0 3.354 4.473 19.979 19.979 0 0 0 4.4 3.584 21.935 21.935 0 0 1 -4.12-3.794z" fill="#a4d60d" transform="translate(-529.215 -524.429)"/><path d="m592.7 640.445c-.583-.812-1.129-1.647-1.651-2.494s-1.027-1.7-1.506-2.571-.939-1.747-1.391-2.628-.879-1.774-1.3-2.669q-1.265-2.684-2.393-5.422c-.765-1.82-1.485-3.657-2.181-5.5s-1.364-3.7-2.019-5.558-1.279-3.728-1.883-5.6c-.307-.936-.6-1.876-.894-2.816q-.22-.705-.43-1.413l-.209-.708c-.067-.237-.138-.473-.188-.713.161.969.4 1.924.63 2.88s.488 1.907.744 2.857q.785 2.848 1.682 5.67c.593 1.882 1.239 3.75 1.908 5.61.335.931.689 1.855 1.047 2.778s.726 1.844 1.105 2.76c.767 1.829 1.574 3.646 2.442 5.438s1.8 3.561 2.82 5.285a47.317 47.317 0 0 0 3.368 5.007 29.951 29.951 0 0 0 1.994 2.3q.532.549 1.1 1.064c.189.173.39.333.584.5s.4.318.606.476a26.014 26.014 0 0 1 -3.985-4.533z" fill="#a4d60d" transform="translate(-532.295 -502.356)"/><path d="m617.6 658.146-.247-.329-.5-.656c-.168-.217-.318-.445-.478-.667l-.474-.669-.459-.678-.458-.679-.444-.687c-.3-.458-.6-.913-.881-1.378s-.582-.921-.86-1.389l-.847-1.4-.833-1.4c-1.095-1.879-2.185-3.761-3.24-5.66s-2.112-3.8-3.142-5.709-2.064-3.821-3.083-5.738-2.029-3.838-3.045-5.757l-6.048-11.54c1.743 3.961 3.606 7.876 5.529 11.765.956 1.947 1.947 3.879 2.937 5.812s2.021 3.847 3.051 5.763 2.1 3.812 3.183 5.7c.549.942 1.095 1.885 1.655 2.822s1.126 1.87 1.7 2.8q1.725 2.786 3.616 5.484l.477.671.492.663.493.661.512.649a32.612 32.612 0 0 0 2.176 2.5l-.524-.639z" fill="#a4d60d" transform="translate(-545.131 -511.605)"/><path d="m639.727 647.639-1.3-2.756q-.659-1.375-1.328-2.745c-.444-.914-.9-1.822-1.358-2.733l-.684-1.364-.7-1.357q-1.391-2.718-2.852-5.405c-.974-1.791-1.959-3.577-2.991-5.341l5.322 10.967 1.318 2.746c.438.916.881 1.829 1.309 2.749l1.3 2.75 1.283 2.758c.435.917.849 1.841 1.275 2.762l.634 1.382.62 1.387c.414.924.838 1.845 1.245 2.773s.807 1.857 1.216 2.784c1.6 3.721 3.141 7.459 4.567 11.246-1.132-3.871-2.531-7.673-4.029-11.437s-3.151-7.475-4.847-11.166z" fill="#a4d60d" transform="translate(-574.14 -521.389)"/><path d="m684.285 685.811a1.036 1.036 0 0 1 .071.09c.044.062.085.127.125.192.079.13.152.263.224.4.145.267.282.537.416.81.267.544.528 1.091.778 1.643.508 1.1.99 2.209 1.467 3.32s.941 2.226 1.384 3.348.893 2.242 1.311 3.372.839 2.259 1.234 3.4.774 2.278 1.145 3.422c.727 2.292 1.384 4.6 1.953 6.944a47.682 47.682 0 0 0 -1.4-7.083c-.307-1.168-.666-2.323-1.033-3.475s-.783-2.291-1.2-3.427-.882-2.26-1.357-3.378-.972-2.227-1.505-3.323-1.082-2.184-1.669-3.256c-.3-.534-.6-1.066-.923-1.588-.162-.261-.327-.52-.5-.774-.088-.127-.178-.252-.273-.375-.048-.061-.1-.121-.149-.179a1.082 1.082 0 0 0 -.083-.083.322.322 0 0 0 -.047-.037.074.074 0 0 0 -.057-.017c.036-.009.062.029.088.054z" fill="#a4d60d" transform="translate(-619.064 -569.648)"/><path d="m418.282 359.232c-.1-.222-.206-.446-.315-.666l-.338-.657-.676-1.314c-.234-.434-.482-.862-.723-1.293s-.483-.862-.751-1.279l-.786-1.263c-.268-.417-.555-.825-.831-1.238l-.418-.618-.444-.6a43.7 43.7 0 0 0 -3.866-4.608 37.791 37.791 0 0 0 -4.557-4.035 30.905 30.905 0 0 0 -5.266-3.206 25.709 25.709 0 0 0 -2.885-1.171 18.139 18.139 0 0 0 -3.036-.746 23.421 23.421 0 0 1 5.75 2.21 32.924 32.924 0 0 1 5.071 3.321 40.339 40.339 0 0 1 4.4 4.053c.687.718 1.331 1.47 1.97 2.224l.925 1.157c.158.19.3.392.446.589l.438.594.441.593.417.608c.275.407.561.807.828 1.219.518.832 1.06 1.651 1.539 2.5.246.423.5.842.739 1.269l.693 1.291.347.646c.112.217.215.437.325.655l.652 1.311a100.789 100.789 0 0 1 4.393 10.823 70.015 70.015 0 0 0 -3.864-11.032z" fill="#a4d60d" transform="translate(-384.429 -287.883)"/><path d="m494.391 392.181c-.121-.384-.265-.76-.4-1.14-.264-.761-.557-1.512-.845-2.265-.143-.377-.306-.747-.458-1.121l-.232-.559-.242-.556-.489-1.11-.51-1.1c-.7-1.46-1.439-2.906-2.225-4.328s-1.623-2.821-2.511-4.191-1.812-2.719-2.788-4.035a48.8 48.8 0 0 0 -3.125-3.813c.993 1.3 1.924 2.64 2.823 3.994s1.76 2.728 2.593 4.117c1.658 2.779 3.187 5.622 4.558 8.529a92.809 92.809 0 0 1 3.671 8.884 94.612 94.612 0 0 1 2.7 9.2 58.7 58.7 0 0 0 -2.15-9.353z" fill="#a4d60d" transform="translate(-454.768 -313.239)"/><path d="m683.423 860.326c-.43 1.248-3.441 4.539-8.05 5.276s-8.48.681-10.323-.284a3.661 3.661 0 0 1 -1.308-1.564 15.7 15.7 0 0 1 -1.523-5.324c7.528 2.853 14.614 2.724 16.165 2.008a4.786 4.786 0 0 0 1.454-.978l-.016.017a12.35 12.35 0 0 0 3.393-2.589 14.788 14.788 0 0 1 .283 1.619 4.552 4.552 0 0 1 -.075 1.819z" fill="#4d7607" transform="translate(-601.335 -707.736)"/><path d="m683.5 858.508c-1.476 1.434-4.331 3.237-9.446 3.406a34.644 34.644 0 0 0 -10.31 1.84 15.7 15.7 0 0 1 -1.523-5.324c7.528 2.853 14.614 2.724 16.165 2.008a4.786 4.786 0 0 0 1.454-.978l-.016.017a12.35 12.35 0 0 0 3.393-2.589 14.788 14.788 0 0 1 .283 1.62z" fill="#3c5e06" transform="translate(-601.335 -707.736)"/><path d="m706.729 882.212a4.336 4.336 0 0 1 -.943 1.438 9.07 9.07 0 0 1 -3.542 2.307c-2.519.908-6.329.17-7.927-.425a7.753 7.753 0 0 1 -2.451-1.3 31.142 31.142 0 0 0 7.428-.428 12.162 12.162 0 0 0 7.518-4.357c.027.318.054.7.063 1.094a5.53 5.53 0 0 1 -.146 1.671z" fill="#4d7607" transform="translate(-625.255 -725.934)"/><path d="m698.506 885.105c2.528.87 6.17-.755 7.278-1.456a9.07 9.07 0 0 1 -3.542 2.307c-2.519.908-6.329.17-7.927-.425a7.753 7.753 0 0 1 -2.451-1.3 31.142 31.142 0 0 0 7.428-.428 12.162 12.162 0 0 0 7.518-4.357c.027.318.054.7.063 1.094a15.467 15.467 0 0 1 -8.367 4.565z" fill="#3c5e06" transform="translate(-625.255 -725.934)"/></svg>