<svg xmlns="http://www.w3.org/2000/svg" width="170.091" height="120.983" viewBox="0 0 170.091 120.983"><defs><style>.a{fill:#ea6e52;}.b{fill:#ffc1a5;}.c{fill:#ff8069;}.c,.d{opacity:0.18;}.c,.d,.h{mix-blend-mode:multiply;}.c,.d,.f,.h{isolation:isolate;}.d{fill:#f66b4e;}.e{fill:#e58373;}.f,.i{fill:#ffdcd3;}.f{opacity:0.16;mix-blend-mode:screen;}.g,.h{fill:#882009;}.h{opacity:0.64;}.i{opacity:0.53;}</style></defs><g transform="translate(-1179.134 -1278.94)"><path class="a" d="M1333.818,1320.688a9.715,9.715,0,0,1-2.255,6.959,12.188,12.188,0,0,1-6.094,4.139,18.652,18.652,0,0,1-7.342.624,29.6,29.6,0,0,1-7.148-1.653,53.715,53.715,0,0,1-12.9-6.765,49.326,49.326,0,0,1-10.575-10.015,33.26,33.26,0,0,1-6.366-13.073,23.85,23.85,0,0,1,1.173-14.411,14.051,14.051,0,0,1,4.577-5.676,12.908,12.908,0,0,1,1.571-.961c.277-.133.571-.239.855-.359a3.8,3.8,0,0,1,.879-.29l.906-.2.926-.052a3.935,3.935,0,0,1,.923.041,5.3,5.3,0,0,1,.913.135,8.376,8.376,0,0,1,5.621,4.354,7.19,7.19,0,0,1,.79,3.521l-.064.907-.218.882c-.039.146-.067.3-.116.438l-.183.415-.365.828.345-.836.172-.417c.045-.143.069-.293.105-.439l.2-.88.042-.9a7.064,7.064,0,0,0-.855-3.442,8.124,8.124,0,0,0-5.54-4.1,8.3,8.3,0,0,0-6.63,1.739,13.525,13.525,0,0,0-4.323,5.533,16.158,16.158,0,0,0-1.06,3.389,24.746,24.746,0,0,0-.481,3.535,25.026,25.026,0,0,0,.59,7.083,32.436,32.436,0,0,0,6.32,12.692,50.155,50.155,0,0,0,10.437,9.762,52.734,52.734,0,0,0,12.667,6.634,29.868,29.868,0,0,0,6.912,1.65,17.757,17.757,0,0,0,6.992-.525,11.633,11.633,0,0,0,5.76-3.772,9.041,9.041,0,0,0,2.239-6.428Z" transform="translate(-76.455)"/><g transform="translate(1276.073 1347.49)"><path class="b" d="M1589.094,1583.955c-2.914,6.5-15.923,7.769-15.923,7.769s13.208-5.576,13.892-8.747Z" transform="translate(-1573.171 -1576.729)"/><path class="c" d="M1589.094,1583.955c-2.914,6.5-15.923,7.769-15.923,7.769s13.208-5.576,13.892-8.747Z" transform="translate(-1573.171 -1576.729)"/><path class="d" d="M1587.063,1582.977a4.848,4.848,0,0,1-1.863,2.244c.26,1.439-1.438,2.147-2.414,2.73a7.637,7.637,0,0,1-1.3.748,12.037,12.037,0,0,1-1.352.118c-.438.1-.753.337-1.234.218-3.026,1.545-5.734,2.689-5.734,2.689s13.009-1.267,15.923-7.769Z" transform="translate(-1573.171 -1576.729)"/><path class="e" d="M1589.094,1586.952a8.169,8.169,0,0,1-2.768,3.719,15.233,15.233,0,0,1-4.089,2.28,26.42,26.42,0,0,1-9.066,1.771c1.5-.333,2.98-.722,4.445-1.13a41.708,41.708,0,0,0,4.3-1.45,20.68,20.68,0,0,0,3.992-2.042A10.749,10.749,0,0,0,1589.094,1586.952Z" transform="translate(-1573.171 -1579.726)"/><path class="b" d="M1620.844,1558.12a1.2,1.2,0,0,0-1.358,1.74,6.393,6.393,0,0,1,1.01,2.693c.07.675.052,1.358.141,2.032.186,1.406,1.341,1.864,2.689,1.535,3-.73,0-6.055-.809-7.586A1.133,1.133,0,0,0,1620.844,1558.12Z" transform="translate(-1607.957 -1557.833)"/><path class="c" d="M1620.844,1558.12a1.2,1.2,0,0,0-1.358,1.74,6.393,6.393,0,0,1,1.01,2.693c.07.675.052,1.358.141,2.032.186,1.406,1.341,1.864,2.689,1.535,3-.73,0-6.055-.809-7.586A1.133,1.133,0,0,0,1620.844,1558.12Z" transform="translate(-1607.957 -1557.833)"/><path class="d" d="M1620.9,1558.12a1.209,1.209,0,0,0-1.426,1.573c.009.021.727.264.832.352a3.005,3.005,0,0,1,.6.909c.661,1.171,1.344,3.235-.047,4.228a2,2,0,0,0,2.52.938c3-.73,0-6.055-.809-7.586A1.133,1.133,0,0,0,1620.9,1558.12Z" transform="translate(-1608.009 -1557.833)"/><path class="e" d="M1624.672,1564.333a1.812,1.812,0,0,0,1.056,1.164,2.55,2.55,0,0,0,1.5-.032,1.224,1.224,0,0,0,.912-.846,3.513,3.513,0,0,0-.011-1.539,17.312,17.312,0,0,0-1.107-3.26l-.705-1.6a1.076,1.076,0,0,0-1.441-.356,1.285,1.285,0,0,1,.859-.284,1.186,1.186,0,0,1,.853.447c.37.518.646,1.007.952,1.532a13.583,13.583,0,0,1,1.408,3.342,4.138,4.138,0,0,1,.032,1.963,1.82,1.82,0,0,1-.583.944,2.361,2.361,0,0,1-.978.475,2.739,2.739,0,0,1-1.96-.267A1.746,1.746,0,0,1,1624.672,1564.333Z" transform="translate(-1611.993 -1557.581)"/></g><g transform="translate(1251.923 1344.194)"><path class="b" d="M1492.279,1563.725c-6.348,3.236-17.274-3.938-17.274-3.938s13.784,3.943,16.306,1.9Z" transform="translate(-1475.005 -1555.948)"/><path class="c" d="M1492.279,1563.725c-6.348,3.236-17.274-3.938-17.274-3.938s13.784,3.943,16.306,1.9Z" transform="translate(-1475.005 -1555.948)"/><path class="d" d="M1491.311,1561.689a4.85,4.85,0,0,1-2.859.579c-.7,1.284-2.467.771-3.592.612a8.845,8.845,0,0,1-1.574-.26c-.335-.111-.947-.761-1.159-.791-.02,0-.039,0-.06-.005a1.409,1.409,0,0,1-.909-.535c-3.326-.695-6.152-1.5-6.152-1.5s10.926,7.173,17.274,3.938Z" transform="translate(-1475.005 -1555.948)"/><path class="e" d="M1492.279,1563.725a8.163,8.163,0,0,1-4.489,1.16,15.222,15.222,0,0,1-4.614-.789,26.427,26.427,0,0,1-8.171-4.308c1.379.684,2.774,1.307,4.17,1.908a41.708,41.708,0,0,0,4.258,1.567,20.678,20.678,0,0,0,4.39.915A10.749,10.749,0,0,0,1492.279,1563.725Z" transform="translate(-1475.005 -1555.948)"/><path class="b" d="M1539.406,1544.651a1.2,1.2,0,0,0-2.149.5,6.392,6.392,0,0,1-.9,2.73c-.369.57-.811,1.09-1.165,1.671-.737,1.212-.125,2.293,1.131,2.883,2.793,1.313,3.8-4.716,4.128-6.416A1.133,1.133,0,0,0,1539.406,1544.651Z" transform="translate(-1520.143 -1544.182)"/><path class="c" d="M1539.406,1544.651a1.2,1.2,0,0,0-2.149.5,6.392,6.392,0,0,1-.9,2.73c-.369.57-.811,1.09-1.165,1.671-.737,1.212-.125,2.293,1.131,2.883,2.793,1.313,3.8-4.716,4.128-6.416A1.133,1.133,0,0,0,1539.406,1544.651Z" transform="translate(-1520.143 -1544.182)"/><path class="d" d="M1539.44,1544.667a1.209,1.209,0,0,0-2.1.33c-.006.022.4.661.427.8a3.006,3.006,0,0,1-.1,1.087c-.22,1.327-.983,3.363-2.689,3.263a2,2,0,0,0,1.374,2.311c2.793,1.313,3.8-4.716,4.128-6.416A1.133,1.133,0,0,0,1539.44,1544.667Z" transform="translate(-1520.177 -1544.198)"/><path class="e" d="M1534.521,1550.992a1.811,1.811,0,0,0,.093,1.569,2.548,2.548,0,0,0,1.191.918,1.223,1.223,0,0,0,1.241-.087,3.515,3.515,0,0,0,.957-1.205,17.3,17.3,0,0,0,1.183-3.234l.452-1.685a1.075,1.075,0,0,0-.9-1.181,1.284,1.284,0,0,1,.847.317,1.186,1.186,0,0,1,.384.884c-.037.635-.128,1.19-.219,1.79a13.59,13.59,0,0,1-1,3.486,4.137,4.137,0,0,1-1.206,1.549,1.821,1.821,0,0,1-1.046.369,2.366,2.366,0,0,1-1.06-.244,2.736,2.736,0,0,1-1.358-1.437A1.745,1.745,0,0,1,1534.521,1550.992Z" transform="translate(-1519.475 -1545.619)"/></g><g transform="translate(1260.685 1349.02)"><path class="b" d="M1528.315,1590.06c-5.687,4.292-17.7-.868-17.7-.868s14.26,1.481,16.388-.968Z" transform="translate(-1510.619 -1582.215)"/><path class="c" d="M1528.315,1590.06c-5.687,4.292-17.7-.868-17.7-.868s14.26,1.481,16.388-.968Z" transform="translate(-1510.619 -1582.215)"/><path class="d" d="M1527.007,1588.224a4.848,4.848,0,0,1-2.714,1.068c-.466,1.386-2.295,1.189-3.431,1.228a8.864,8.864,0,0,1-1.6.018c-.35-.051-1.066-.584-1.28-.577-.02,0-.039,0-.059,0a1.41,1.41,0,0,1-.989-.368c-3.4-.105-6.32-.408-6.32-.408s12.009,5.16,17.7.868Z" transform="translate(-1510.619 -1582.215)"/><path class="e" d="M1528.315,1593.025a8.164,8.164,0,0,1-4.218,1.924,15.237,15.237,0,0,1-4.682.027,26.426,26.426,0,0,1-8.8-2.819c1.477.433,2.959.8,4.439,1.152a41.633,41.633,0,0,0,4.465.8,20.683,20.683,0,0,0,4.482.135A10.751,10.751,0,0,0,1528.315,1593.025Z" transform="translate(-1510.619 -1585.18)"/><path class="b" d="M1574.741,1564.1a1.2,1.2,0,0,0-2.029.87,6.386,6.386,0,0,1-.414,2.846c-.264.625-.609,1.215-.856,1.848-.515,1.321.277,2.279,1.616,2.642,2.979.806,2.918-5.305,2.948-7.037A1.133,1.133,0,0,0,1574.741,1564.1Z" transform="translate(-1556.36 -1563.799)"/><path class="c" d="M1574.741,1564.1a1.2,1.2,0,0,0-2.029.87,6.386,6.386,0,0,1-.414,2.846c-.264.625-.609,1.215-.856,1.848-.515,1.321.277,2.279,1.616,2.642,2.979.806,2.918-5.305,2.948-7.037A1.133,1.133,0,0,0,1574.741,1564.1Z" transform="translate(-1556.36 -1563.799)"/><path class="d" d="M1574.775,1564.11a1.209,1.209,0,0,0-2.008.691c0,.023.51.581.559.709a3.015,3.015,0,0,1,.092,1.088c.014,1.344-.382,3.482-2.08,3.681-.1,1.005.631,1.733,1.755,2.037,2.979.806,2.918-5.305,2.948-7.037A1.133,1.133,0,0,0,1574.775,1564.11Z" transform="translate(-1556.394 -1563.807)"/><path class="e" d="M1570.908,1570.537a1.81,1.81,0,0,0,.364,1.529,2.547,2.547,0,0,0,1.332.7,1.223,1.223,0,0,0,1.207-.3,3.513,3.513,0,0,0,.733-1.354,17.333,17.333,0,0,0,.6-3.39l.151-1.738a1.076,1.076,0,0,0-1.091-1.006,1.283,1.283,0,0,1,.889.165,1.186,1.186,0,0,1,.532.8c.074.632.081,1.194.1,1.8a13.588,13.588,0,0,1-.377,3.607,4.135,4.135,0,0,1-.918,1.735,1.818,1.818,0,0,1-.966.546,2.363,2.363,0,0,1-1.086-.055,2.737,2.737,0,0,1-1.588-1.179A1.746,1.746,0,0,1,1570.908,1570.537Z" transform="translate(-1555.825 -1564.671)"/></g><g transform="translate(1286.714 1361.65)"><path class="b" d="M1630.286,1621.729l-6.058-6.243-.339-.35-.353.061-7.114,1.227,6.719.479,5.335,6.448Z" transform="translate(-1616.422 -1615.136)"/><path class="d" d="M1630.286,1621.729l-6.058-6.243-.339-.35-.353.061-7.114,1.227,6.719.479,5.335,6.448Z" transform="translate(-1616.422 -1615.136)"/><path class="c" d="M1628.317,1621.67a7.218,7.218,0,0,0-1.359-1.178,1.527,1.527,0,0,1-.345-.294c-.844-.954-2.34-2.573-3.767-2.232a1.541,1.541,0,0,1-.725.008,5.642,5.642,0,0,0-2.286-.167l-3.412.589,6.719.479,5.335,6.449,1.811-1.623Z" transform="translate(-1616.422 -1617.107)"/><path class="e" d="M1616.422,1620.373l6.745.112.156,0,.1.13,5.161,6.592-.219.182-5.508-6.3.257.132Z" transform="translate(-1616.422 -1619.085)"/></g><g transform="translate(1282.782 1364.98)"><path class="b" d="M1614.3,1635.264l-6.058-6.243-.339-.35-.353.061-7.114,1.227,6.719.479,5.335,6.448Z" transform="translate(-1600.438 -1628.671)"/><path class="d" d="M1614.3,1635.264l-6.058-6.243-.339-.35-.353.061-7.114,1.227,6.719.479,5.335,6.448Z" transform="translate(-1600.438 -1628.671)"/><path class="c" d="M1612.333,1635.205a7.232,7.232,0,0,0-1.359-1.178,1.519,1.519,0,0,1-.345-.294c-.844-.954-2.34-2.573-3.767-2.232a1.542,1.542,0,0,1-.725.008,5.641,5.641,0,0,0-2.286-.167l-3.412.589,6.719.479,5.335,6.448,1.811-1.623Z" transform="translate(-1600.438 -1630.642)"/><path class="e" d="M1600.438,1633.908l6.745.112.156,0,.1.13,5.161,6.592-.219.181-5.508-6.3.257.132Z" transform="translate(-1600.438 -1632.62)"/></g><g transform="translate(1279.165 1368.18)"><path class="b" d="M1599.6,1648.273l-6.059-6.243-.339-.35-.353.061-7.114,1.227,6.719.479,5.335,6.448Z" transform="translate(-1585.739 -1641.681)"/><path class="d" d="M1599.6,1648.273l-6.059-6.243-.339-.35-.353.061-7.114,1.227,6.719.479,5.335,6.448Z" transform="translate(-1585.739 -1641.681)"/><path class="c" d="M1597.634,1648.215a7.232,7.232,0,0,0-1.359-1.178,1.519,1.519,0,0,1-.345-.293c-.844-.955-2.34-2.573-3.768-2.232a1.544,1.544,0,0,1-.725.008,5.644,5.644,0,0,0-2.286-.167l-3.412.589,6.719.479,5.335,6.448,1.811-1.623Z" transform="translate(-1585.739 -1643.652)"/><path class="e" d="M1585.739,1646.918l6.745.112.156,0,.1.13,5.161,6.592-.219.182-5.508-6.3.257.132Z" transform="translate(-1585.739 -1645.63)"/></g><path class="b" d="M1412.943,1600.032c1.236,5.892,6.055,11.253,10.073,15.474,5.519,5.8,12.453,9.93,19.7,13.2,7.2,3.246,15.273,7.005,23.22,7.645,5.461.44,2.016-4.832.065-6.823C1466,1629.527,1442.563,1624.125,1412.943,1600.032Z" transform="translate(-176.288 -242.098)"/><path class="b" d="M1433.943,1571.129c.786,5.969,5.187,11.679,8.874,16.192,5.064,6.2,11.666,10.844,18.646,14.652,6.931,3.782,14.7,8.141,22.575,9.38,5.412.852,2.376-4.666.581-6.8C1484.618,1604.555,1461.655,1597.394,1433.943,1571.129Z" transform="translate(-192.122 -220.306)"/><path class="c" d="M1433.943,1571.129c.786,5.969,5.187,11.679,8.874,16.192,5.064,6.2,11.666,10.844,18.646,14.652,6.931,3.782,14.7,8.141,22.575,9.38,5.412.852,2.376-4.666.581-6.8C1484.618,1604.555,1461.655,1597.394,1433.943,1571.129Z" transform="translate(-192.122 -220.306)"/><path class="c" d="M1444.1,1584.7c4.3,3.826,9.522,6.083,14.055,9.556,2.186,1.675,4.185,3.58,6.389,5.232a36.218,36.218,0,0,0,8,4.27,147.968,147.968,0,0,0,14.51,5.458,11.588,11.588,0,0,0-2.435-4.658s-22.963-7.161-50.675-33.426l.006.042a11.631,11.631,0,0,0,2.926,6.176A91.605,91.605,0,0,0,1444.1,1584.7Z" transform="translate(-192.122 -220.306)"/><path class="d" d="M1445.836,1583.687c3.97,4.155,9.145,5.974,13.367,9.474a88.075,88.075,0,0,0,27.676,15.334,12.957,12.957,0,0,0-2.261-3.94s-22.963-7.161-50.675-33.426a8.37,8.37,0,0,0,2.721,5.049C1439.583,1578.837,1443.087,1580.809,1445.836,1583.687Z" transform="translate(-192.122 -220.306)"/><path class="e" d="M1484.466,1605.042a91.33,91.33,0,0,1-14.043-6.235c-4.512-2.414-8.853-5.126-13.1-7.971-2.082-1.482-4.186-2.933-6.2-4.507-1.01-.781-2.047-1.528-3.035-2.336l-2.946-2.447c-.992-.8-1.951-1.645-2.9-2.5l-2.856-2.546c-1.867-1.737-3.674-3.541-5.447-5.37,1.995,1.595,3.9,3.28,5.849,4.913l2.949,2.417c.976.814,1.963,1.614,2.98,2.375,4.009,3.12,8.1,6.127,12.312,8.956s8.54,5.478,12.989,7.905c2.225,1.211,4.476,2.377,6.775,3.439a72.788,72.788,0,0,0,6.974,2.932Z" transform="translate(-192.122 -220.306)"/><path class="c" d="M1412.943,1600.032c1.236,5.892,6.055,11.253,10.073,15.474,5.519,5.8,12.453,9.93,19.7,13.2,7.2,3.246,15.273,7.005,23.22,7.645,5.461.44,2.016-4.832.065-6.823C1466,1629.527,1442.563,1624.125,1412.943,1600.032Z" transform="translate(-176.288 -242.098)"/><path class="c" d="M1428.2,1615.935c1.013.514,2.043,1,3.032,1.559,4.012,2.261,7.45,5.389,11.43,7.692,3.856,2.231,8.192,3.505,12.223,5.366,4.432,2.045,9.146,2.522,13.857,3.279a11.937,11.937,0,0,0-2.741-4.3s-23.439-5.4-53.059-29.5q.079.378.178.753a15.339,15.339,0,0,0,6.238,8.652c1.988,1.367,3.686,3.1,5.6,4.558A20.84,20.84,0,0,0,1428.2,1615.935Z" transform="translate(-176.288 -242.098)"/><path class="d" d="M1425.009,1612.081c4.928,2.557,9.793,5.079,14.548,7.97,5,3.04,10.133,5.712,15.364,8.329,4.335,2.169,8.738,4.029,13.509,4.614a13.383,13.383,0,0,0-2.429-3.468s-23.439-5.4-53.059-29.5a6.259,6.259,0,0,0,1.5,2.881C1417.581,1606.4,1420.946,1609.973,1425.009,1612.081Z" transform="translate(-176.288 -242.098)"/><path class="e" d="M1465.915,1629.907a90.887,90.887,0,0,1-14.442-5.173,152.179,152.179,0,0,1-13.632-6.982c-2.19-1.312-4.391-2.606-6.515-4.021-1.065-.7-2.152-1.37-3.2-2.1l-3.136-2.192c-1.051-.722-2.073-1.484-3.085-2.26l-3.049-2.307c-2-1.583-3.943-3.231-5.914-4.841,2.046,1.519,4.065,3.069,6.127,4.557l3.115,2.2c1.033.742,2.076,1.469,3.146,2.155l3.176,2.109c1.057.705,2.152,1.351,3.226,2.029,2.138,1.375,4.364,2.6,6.551,3.891q6.637,3.739,13.581,6.875c2.315,1.036,4.654,2.022,7.029,2.906a72.7,72.7,0,0,0,7.195,2.389Z" transform="translate(-176.288 -242.098)"/><path class="b" d="M1398.7,1633.668c1.734,5.765,6.993,10.7,11.356,14.559,5.994,5.306,13.254,8.832,20.755,11.472,7.448,2.621,15.815,5.677,23.787,5.637,5.479-.028,1.6-4.986-.517-6.8C1454.077,1658.531,1430.263,1655.147,1398.7,1633.668Z" transform="translate(-165.546 -267.459)"/><path class="c" d="M1398.7,1633.668c1.734,5.765,6.993,10.7,11.356,14.559,5.994,5.306,13.254,8.832,20.755,11.472,7.448,2.621,15.815,5.677,23.787,5.637,5.479-.028,1.6-4.986-.517-6.8C1454.077,1658.531,1430.263,1655.147,1398.7,1633.668Z" transform="translate(-165.546 -267.459)"/><path class="c" d="M1454.077,1658.531s-23.814-3.384-55.381-24.863a11.3,11.3,0,0,0,2.822,4.656q3.161,3.194,6.524,6.167c13.45,9.924,29.3,16.887,46.089,17.994a1.6,1.6,0,0,1,.857,2.838C1459.874,1665.057,1456.137,1660.3,1454.077,1658.531Z" transform="translate(-165.546 -267.459)"/><path class="d" d="M1399.428,1635.594c8.828,7.537,19.492,11.769,29.962,16.544,4.853,2.213,9.43,5.2,14.6,6.608,4.139,1.129,8.37,1.859,12.583,2.668a13.812,13.812,0,0,0-2.5-2.882s-23.814-3.384-55.381-24.863a16.291,16.291,0,0,0,.721,1.917Z" transform="translate(-165.546 -267.459)"/><path class="e" d="M1453.919,1659.642c-2.6-.591-5.025-1.316-7.48-2.107-2.45-.761-4.856-1.641-7.242-2.557-1.206-.424-2.383-.921-3.571-1.389s-2.36-.972-3.53-1.483-2.342-1.011-3.492-1.563c-1.16-.529-2.328-1.039-3.48-1.584-4.586-2.223-9.178-4.443-13.612-6.966-1.12-.611-2.214-1.264-3.3-1.933s-2.187-1.311-3.26-2c-2.139-1.387-4.221-2.864-6.258-4.394,2.232,1.244,4.372,2.615,6.541,3.943,2.2,1.27,4.318,2.688,6.551,3.9l3.3,1.905c1.1.635,2.236,1.211,3.355,1.814,2.23,1.225,4.528,2.318,6.831,3.4a133.614,133.614,0,0,0,14.224,5.468c1.215.367,2.425.747,3.653,1.065,1.221.341,2.446.66,3.679.946a60.678,60.678,0,0,0,7.4,1.31Z" transform="translate(-165.546 -267.459)"/><path class="b" d="M1608.985,1689.665a43.994,43.994,0,0,1-7.631-6.071,19.138,19.138,0,0,1-2.863-3.85c-.873-1.58-1.707-3.562-3.215-4.631a10.78,10.78,0,0,0-5.614-1.463c-2.887-.133-9.432-1.3-11.031,2.056-1.021,2.14-1.04,5.407-1.014,7.745a14.576,14.576,0,0,0,1.84,7.483c2.416,3.953,6.985,4.747,11.186,5.559a40.479,40.479,0,0,0,6.713.8c4.419.1,8.957-.929,12.06-4.285A2.162,2.162,0,0,0,1608.985,1689.665Z" transform="translate(-300.446 -297.377)"/><path class="c" d="M1583.071,1690.81c-.651-3.468,3.139-3.27,5.468-4.1,3.375-1.2,6.979,1.469,9.818,3.5a27.787,27.787,0,0,0,4.253,2.813c.669.316,1.328.606,1.974.9a4.2,4.2,0,0,0,4.81-.9,2.169,2.169,0,0,0-.408-3.367,43.994,43.994,0,0,1-7.631-6.071,19.138,19.138,0,0,1-2.863-3.85c-.873-1.58-1.707-3.562-3.215-4.631a10.78,10.78,0,0,0-5.614-1.463c-2.887-.133-9.432-1.3-11.031,2.056-1.021,2.14-1.04,5.407-1.014,7.745a14.576,14.576,0,0,0,1.84,7.483,10.7,10.7,0,0,0,6.528,4.511A7.75,7.75,0,0,1,1583.071,1690.81Z" transform="translate(-300.446 -297.377)"/><path class="c" d="M1577.827,1686.171c1.065-3.045,4.691-2.986,7.181-4.793,3.708-2.691,8.821,1.708,11.846,4.5,2.137,1.973,5.566,5.173,8.987,6.01-.3-.315-.6-.633-.874-.973a2.323,2.323,0,0,1,.786-3.512,32.843,32.843,0,0,1-4.4-3.811,19.138,19.138,0,0,1-2.863-3.85c-.873-1.58-1.707-3.562-3.215-4.631a10.78,10.78,0,0,0-5.614-1.463c-2.887-.133-9.432-1.3-11.031,2.056-1.021,2.14-1.04,5.407-1.014,7.745A20.1,20.1,0,0,0,1577.827,1686.171Z" transform="translate(-300.446 -297.377)"/><path class="d" d="M1578.5,1678.994a8.924,8.924,0,0,1,8.536-2.846c3.916.7,7.185,3.363,10.645,5.155,1.162.6,2.343,1.166,3.534,1.706a18.509,18.509,0,0,1-2.338-3.264c-.873-1.58-1.707-3.562-3.215-4.631a10.78,10.78,0,0,0-5.614-1.463c-2.887-.133-9.432-1.3-11.031,2.056a11.509,11.509,0,0,0-.9,3.764C1578.239,1679.307,1578.365,1679.146,1578.5,1678.994Z" transform="translate(-300.827 -297.377)"/><path class="e" d="M1608,1688.626a46.641,46.641,0,0,1-7.272-5.573,20.524,20.524,0,0,1-2.912-3.56c-.828-1.3-1.416-2.729-2.317-3.933a5.6,5.6,0,0,0-1.6-1.511,7.419,7.419,0,0,0-2.067-.807,25.489,25.489,0,0,0-4.516-.454,36.029,36.029,0,0,0-4.537-.107,7.249,7.249,0,0,0-4.074,1.238,3.867,3.867,0,0,0-1.052,1.766,12.489,12.489,0,0,0-.478,2.169,33.124,33.124,0,0,0-.227,4.527,17.575,17.575,0,0,0,.528,4.465,10.315,10.315,0,0,0,1.965,3.982,9.632,9.632,0,0,0,3.571,2.649,22.214,22.214,0,0,0,4.33,1.364,50.139,50.139,0,0,0,9.033,1.411,50.278,50.278,0,0,1-9.095-1.126,22.383,22.383,0,0,1-4.421-1.306,10.052,10.052,0,0,1-3.769-2.7,10.818,10.818,0,0,1-2.135-4.134,18.146,18.146,0,0,1-.63-4.6,33.743,33.743,0,0,1,.15-4.623,13.193,13.193,0,0,1,.467-2.309,5.7,5.7,0,0,1,.464-1.122,5.16,5.16,0,0,1,.347-.54l.444-.462a7.437,7.437,0,0,1,4.55-1.356,35.909,35.909,0,0,1,4.615.263,28.826,28.826,0,0,1,4.578.574,7.819,7.819,0,0,1,2.168.9,5.976,5.976,0,0,1,1.681,1.641c.91,1.27,1.469,2.712,2.257,4a20.3,20.3,0,0,0,2.812,3.575A46.571,46.571,0,0,0,1608,1688.626Z" transform="translate(-299.462 -296.339)"/><path class="b" d="M1670.945,1651.846c-1.6-.806-3.5-.888-5.212-1.409a26.208,26.208,0,0,1-6.41-2.979,27.04,27.04,0,0,1-9.225-9.987,2.268,2.268,0,0,0-.311-.435,1.878,1.878,0,0,0-1.484-1.606c-3.325-.847-6.334.1-9.1,2.033-2.941,2.056-5.994,4.444-6.563,8.221-.709,4.709,2.34,7.682,5.838,10.243a30.169,30.169,0,0,1,4.93,4.008c1.375,1.543,2.349,3.492,4.149,4.615,2.934,1.83,7.048,1.1,10.178.25a27.875,27.875,0,0,0,8.957-4.049c2.022-1.45,4.859-3.886,5.227-6.5A2.208,2.208,0,0,0,1670.945,1651.846Z" transform="translate(-341.862 -268.554)"/><path class="c" d="M1648.871,1660.29c0-.935,1.355-1.657,1.9-2.337,1.559-1.936,3.522-4.27,6.317-3.569,2.209.554,3.339,2.189,5.777,2.312,2.164.109,6.2.7,8.087-.524a1.586,1.586,0,0,1,.369-.176,5.335,5.335,0,0,0,.6-1.747,2.208,2.208,0,0,0-.978-2.4c-1.6-.806-3.5-.888-5.211-1.409a26.206,26.206,0,0,1-6.41-2.979,27.04,27.04,0,0,1-9.225-9.987,2.268,2.268,0,0,0-.311-.435,1.878,1.878,0,0,0-1.484-1.606c-3.325-.847-6.334.1-9.1,2.033-2.941,2.056-5.994,4.444-6.563,8.221-.709,4.709,2.34,7.682,5.838,10.243a30.169,30.169,0,0,1,4.93,4.008c1.375,1.543,2.349,3.492,4.149,4.615a8.484,8.484,0,0,0,4.531,1.133A5.382,5.382,0,0,1,1648.871,1660.29Z" transform="translate(-341.862 -268.554)"/><path class="c" d="M1660.762,1653.486c1.129.09,2.257.274,3.453.46,2.065.321,5.733.946,7.737-.315a1.971,1.971,0,0,0-1.007-1.786c-1.6-.806-3.5-.888-5.211-1.409a26.206,26.206,0,0,1-6.41-2.979,27.04,27.04,0,0,1-9.225-9.987,2.268,2.268,0,0,0-.311-.435,1.878,1.878,0,0,0-1.484-1.606c-3.325-.847-6.334.1-9.1,2.033-2.941,2.056-5.994,4.444-6.563,8.221-.709,4.709,2.34,7.682,5.838,10.243a30.169,30.169,0,0,1,4.93,4.008c1.375,1.543,2.349,3.492,4.149,4.615a7.072,7.072,0,0,0,2.06.851,10.529,10.529,0,0,1-1.59-1.431,11.931,11.931,0,0,1-1.637-2.457,19.4,19.4,0,0,0-2.5-2.984c-1.416-1.706-2.606-5.448-.223-6.9,1.909-1.162,4.113.633,6.072.378a15.6,15.6,0,0,1,6.225-.031A37.182,37.182,0,0,1,1660.762,1653.486Z" transform="translate(-341.862 -268.554)"/><path class="d" d="M1642.408,1641.513c3.174-1.319,8.58,3.409,11.878,4.828-1.074-1.33-3.353-7.347-4.186-8.87a2.274,2.274,0,0,0-.311-.435,1.878,1.878,0,0,0-1.484-1.606c-3.325-.847-6.334.1-9.1,2.033-2.941,2.056-5.994,4.444-6.563,8.221a8.062,8.062,0,0,0,.352,3.988C1633.822,1645.56,1638.911,1642.967,1642.408,1641.513Z" transform="translate(-341.863 -268.554)"/><path class="e" d="M1647.084,1635.186a9.753,9.753,0,0,0-3.461-.138,11.136,11.136,0,0,0-3.276,1.038,17.233,17.233,0,0,0-2.9,1.866,26.458,26.458,0,0,0-2.652,2.216,9.1,9.1,0,0,0-3.018,5.846,7.588,7.588,0,0,0,.39,3.274,9.415,9.415,0,0,0,1.694,2.877,28.864,28.864,0,0,0,5.26,4.468,26.421,26.421,0,0,1,2.726,2.265,25.467,25.467,0,0,1,2.279,2.712,10.247,10.247,0,0,0,2.376,2.372,7.454,7.454,0,0,0,3.138,1.11,20.772,20.772,0,0,0,6.884-.537,17.759,17.759,0,0,1-6.947,1.09,8.053,8.053,0,0,1-3.457-1.062,9.349,9.349,0,0,1-2.543-2.559,20.358,20.358,0,0,0-2.144-2.709,20.781,20.781,0,0,0-2.682-2.175,29.474,29.474,0,0,1-5.467-4.483,10.129,10.129,0,0,1-1.892-3.093,8.412,8.412,0,0,1-.424-3.624,9.643,9.643,0,0,1,3.366-6.253,23.686,23.686,0,0,1,2.782-2.194,17.733,17.733,0,0,1,3.06-1.783A9.926,9.926,0,0,1,1647.084,1635.186Z" transform="translate(-340.642 -268.308)"/><path class="b" d="M1722.527,1591.994c-.687-2.65-4.794-1.526-4.1,1.132.014.052.025.1.038.157a1.955,1.955,0,0,0-.881.891c-2.177,4.177-7.861,3.808-11.974,3.993-4.87.22-8.348-1.674-12.277-4.326a1.948,1.948,0,0,0-1.092-.356,1.98,1.98,0,0,0-1.405-.525,2.282,2.282,0,0,0-.539.066c-7.641,1.829-12.237,13.213-5.223,18.432,3.437,2.558,7.816,3.079,11.514,5.125,2.025,1.12,3.684,2.778,5.709,3.913,11.212,6.285,21.3-10.951,21.381-20.206A32.076,32.076,0,0,0,1722.527,1591.994Z" transform="translate(-378.854 -234.898)"/><path class="f" d="M1624.092,1744.455a2.366,2.366,0,0,0-.829-1.272,5.1,5.1,0,0,0-2.22-.854,11.324,11.324,0,0,1-5.185-2.436c-1.947-1.465-6.8-.289-5.923,2.816a2.61,2.61,0,0,0,1.157,1.437,6.352,6.352,0,0,0,1.745.7c1.582.433,3.221.534,4.826.845,1.8.349,4.2,1.223,5.9.134A1.207,1.207,0,0,0,1624.092,1744.455Z" transform="translate(-324.737 -347.079)"/><path class="f" d="M1724.412,1727.144a1.75,1.75,0,0,0-.276.01,4.651,4.651,0,0,1-3.07-.581,8.521,8.521,0,0,0-1.9-.784,2.347,2.347,0,0,0-1.314-.071c-.893.279-.7,1.185-.883,1.9-.234.917-1.394.969-2.013,1.526-1.079.969-1.165,3.043.349,3.628,1.333.515,2.7-.152,3.858-.8a13.527,13.527,0,0,1,1.569-.965,19.244,19.244,0,0,1,2.2-.437,4.749,4.749,0,0,0,2.887-1.739C1726.316,1727.9,1725.235,1727.176,1724.412,1727.144Z" transform="translate(-403.399 -336.813)"/><path class="c" d="M1706.439,1619.351c-1.445-.989-3.182-1.751-4.137-3.3-2.074-3.364,1.258-5.979,4.311-6.562,2.712-.518,5.61-.254,7.143-3.049.938-1.709,1.031-3.461,2.688-4.74,2.1-1.623,5.388-1.48,6.976-3.694.055-.076.093-.161.143-.239a35.706,35.706,0,0,0-1.037-5.774c-.687-2.65-4.794-1.526-4.1,1.132.014.052.025.1.038.157a1.955,1.955,0,0,0-.881.89c-2.177,4.177-7.861,3.808-11.974,3.994-4.87.22-8.348-1.674-12.277-4.326a1.948,1.948,0,0,0-1.092-.356,1.98,1.98,0,0,0-1.405-.525,2.282,2.282,0,0,0-.539.066c-7.641,1.829-12.237,13.213-5.223,18.432,3.437,2.558,7.816,3.079,11.514,5.125,2.025,1.12,3.684,2.778,5.709,3.913a9.533,9.533,0,0,0,7.081,1.082C1708.374,1620.9,1707.466,1620.055,1706.439,1619.351Z" transform="translate(-378.854 -234.898)"/><path class="f" d="M1781.953,1657.5a6.433,6.433,0,0,0,2.284-.112c3.275-.848,4.753-3.612,5.927-6.528a41.663,41.663,0,0,1,1.865-4.174c.342-.637,1.2-1.779,1.056-2.538-.221-1.172-1.935-.85-2.7-.263-1.77,1.353-1.851,3.974-3.4,5.555-1.9,1.948-4.609,2.359-7.173,2.765-1.21.191-4.029.3-2.739,2.628C1777.919,1656.357,1780.014,1657.283,1781.953,1657.5Z" transform="translate(-450.589 -274.767)"/><path class="c" d="M1694.818,1616.381c.728-3.838,5.765-3.5,8.69-4.021,3.123-.558,12.356-2.758,13.737-5.9a12.236,12.236,0,0,0,.7-2.16c-2.057.344-10.457,1.373-12.344,1.458-4.87.22-8.348-1.674-12.277-4.326a1.948,1.948,0,0,0-1.092-.356,1.979,1.979,0,0,0-1.405-.525,2.288,2.288,0,0,0-.539.066c-7.641,1.829-12.237,13.213-5.223,18.432,3.437,2.558,7.816,3.079,11.514,5.125,2.025,1.12,3.684,2.778,5.709,3.913a10.53,10.53,0,0,0,3,1.14C1699.716,1627.045,1693.6,1622.825,1694.818,1616.381Z" transform="translate(-378.854 -242.49)"/><path class="d" d="M1687.941,1607.132c2-1.4,8.434-.531,10.83-.671-.567-.355-4.861-4.635-5.442-5.028a1.948,1.948,0,0,0-1.092-.356,1.979,1.979,0,0,0-1.405-.525,2.288,2.288,0,0,0-.539.066c-6.686,1.6-11.039,10.514-7.327,16.215C1682.612,1612.578,1684.387,1609.628,1687.941,1607.132Z" transform="translate(-378.855 -242.49)"/><path class="e" d="M1689.359,1600.552a10.056,10.056,0,0,0-3.15,1.363c-.442.367-.93.662-1.339,1.057a11.843,11.843,0,0,0-1.177,1.222,13.039,13.039,0,0,0-2.886,6,9.13,9.13,0,0,0,1.085,6.363,11.48,11.48,0,0,0,5.28,3.966c2.1.91,4.362,1.52,6.516,2.507a16.735,16.735,0,0,1,3.084,1.776c.958.691,1.85,1.438,2.781,2.112a10.714,10.714,0,0,0,6.295,2.329,11.361,11.361,0,0,0,6.444-2.2,11.16,11.16,0,0,1-6.438,2.562,9.618,9.618,0,0,1-3.51-.532,13.39,13.39,0,0,1-3.143-1.656c-.973-.664-1.887-1.387-2.836-2.031a15.944,15.944,0,0,0-3-1.618c-2.112-.882-4.356-1.509-6.545-2.416a17.377,17.377,0,0,1-3.156-1.687,14.158,14.158,0,0,1-1.405-1.168,14.6,14.6,0,0,1-1.178-1.415,9.769,9.769,0,0,1-1.241-7.069,12.687,12.687,0,0,1,3.32-6.3,11.771,11.771,0,0,1,2.831-2.165A9.016,9.016,0,0,1,1689.359,1600.552Z" transform="translate(-377.381 -242.49)"/><path class="b" d="M1743.352,1496.259c-.4-5.15-2.207-11.4-5.278-15.6-2.738-3.739-6.88-8.759-11.606-9.877-5.7-1.348-8,4.646-10.524,8.623a52.671,52.671,0,0,1-5.326,7.195c-1.839,2.033-4.285,3.794-5.9,6a2.065,2.065,0,0,0-.661.739c-2.941,5.376-3.856,13.217,3.788,14.629,7,1.293,13.722-.365,20.745.4,4.264.462,8.1,1.182,11.272-2.3A13.545,13.545,0,0,0,1743.352,1496.259Z" transform="translate(-394.161 -144.5)"/><path class="f" d="M1822.686,1543.553c2.572-1.457,1.125-5.975.5-8.105-.405-1.382-.966-2.717-1.367-4.1-.439-1.512-.375-3.623-1.65-4.73-1.5-1.3-2.6.416-3.941.951-2.45.979-4.019.826-3.947,4.071.046,2.065,1.4,3.431,2.8,4.77C1816.88,1538.136,1819.1,1545.583,1822.686,1543.553Z" transform="translate(-477.381 -186.387)"/><path class="c" d="M1733.788,1503.078a14.1,14.1,0,0,1-1.278-2.95,12.045,12.045,0,0,0-3.092-3.72,9.985,9.985,0,0,1-3.4-5.8c-.4-2.74.91-4.873,2.351-7.1,2.4-3.708,3.119-7.118,1.466-11.266a11.429,11.429,0,0,0-3.365-1.456c-5.7-1.348-8,4.646-10.524,8.623a52.654,52.654,0,0,1-5.326,7.194c-1.839,2.033-4.285,3.794-5.9,6a2.065,2.065,0,0,0-.661.739c-2.941,5.376-3.856,13.217,3.788,14.629,7,1.293,13.722-.365,20.745.4,4.264.462,8.1,1.182,11.272-2.3a13.053,13.053,0,0,0,1.014-1.274A5.806,5.806,0,0,1,1733.788,1503.078Z" transform="translate(-394.161 -144.5)"/><path class="c" d="M1730.424,1507.865c-2.526-.94-3.919-2.667-5.789-4.465-1.93-1.856-4.656-1.765-6.682-3.353-3.673-2.878-1.412-8.357.875-11.3,3.625-4.671,9.872-9.735,9.287-16.257a1.284,1.284,0,0,1,.3-1.008,10.214,10.214,0,0,0-1.95-.694c-5.7-1.348-8,4.646-10.524,8.623a52.654,52.654,0,0,1-5.326,7.194c-1.839,2.033-4.285,3.794-5.9,6a2.065,2.065,0,0,0-.661.739c-2.941,5.376-3.856,13.217,3.788,14.629,7,1.293,13.722-.365,20.745.4,2.536.275,4.92.634,7.1.151A11.838,11.838,0,0,1,1730.424,1507.865Z" transform="translate(-394.161 -144.5)"/><path class="d" d="M1713.206,1546.329c.363-.968-4.525-3.713-4.1-4.481a35.361,35.361,0,0,0-4.393,4.481,2.066,2.066,0,0,0-.661.739c-2.941,5.376-3.856,13.217,3.788,14.629a32.716,32.716,0,0,0,5.343.5,13.374,13.374,0,0,1-3.484-1.939C1705.482,1556.954,1710.375,1551.025,1713.206,1546.329Z" transform="translate(-394.161 -198.228)"/><path class="e" d="M1703.367,1560.064a3.084,3.084,0,0,0-.816,1.358c-.222.49-.372,1.01-.566,1.507a20.022,20.022,0,0,0-.779,3.085,12.061,12.061,0,0,0-.156,3.115,6.184,6.184,0,0,0,5.889,5.944,35.6,35.6,0,0,0,6.394.467c4.3-.028,8.649-.453,13-.053a51.513,51.513,0,0,0,6.441.557,8.686,8.686,0,0,0,3.116-.666,8.077,8.077,0,0,0,2.619-1.855,7.95,7.95,0,0,1-2.548,2.006,8.922,8.922,0,0,1-3.167.811,43.9,43.9,0,0,1-6.5-.335c-4.3-.309-8.6.278-12.953.331a36.377,36.377,0,0,1-6.544-.427c-.541-.064-1.093-.25-1.639-.372a7.77,7.77,0,0,1-.8-.305,4.156,4.156,0,0,1-.774-.366,6.428,6.428,0,0,1-2.471-2.389,7.213,7.213,0,0,1-.966-3.276,10.906,10.906,0,0,1,.278-3.34,14.923,14.923,0,0,1,1.869-4.568c.148-.233.269-.468.439-.7A1.985,1.985,0,0,1,1703.367,1560.064Z" transform="translate(-392.811 -211.963)"/><path class="b" d="M1692.282,1420.736c-.64-.422-1.259-.808-1.823-1.158a42.021,42.021,0,0,0-10.839-4.758c-3.293-.92-8.1-2.37-11.24-.32-3.19,2.083-2.222,7.977-2.336,11.17-.2,5.687.18,11.861-2.336,17.116a8.376,8.376,0,0,0-1.027,4.4,1.919,1.919,0,0,0-.3,1.774,3.367,3.367,0,0,0,.666.917c2.619,2.836,6.044,6.3,10.069,6.8,3.917.493,7.2-2.085,9.422-5.044,2.807-3.743,5.515-7.563,8.464-11.2,1.473-1.815,3-3.582,4.628-5.264,1.45-1.5,3.353-2.867,3.537-5.125C1699.494,1426.072,1695.6,1422.925,1692.282,1420.736Z" transform="translate(-364.28 -101.424)"/><path class="f" d="M1745.919,1451.31a3.2,3.2,0,0,1,.336-.191c1.281-.626,3.052-.7,2.179-2.54-.507-1.07-2.4-1.321-3.421-1.587a14.478,14.478,0,0,1-4.6-1.8c-1.18-.8-2.354-2.588-4-2.078a5.386,5.386,0,0,0-2.445,2.839c-.333,2.913-.615,7.071,2.625,7.985,2.027.571,4.226.09,6.231-.352C1744.141,1453.293,1744.836,1452.013,1745.919,1451.31Z" transform="translate(-418.193 -123.713)"/><path class="c" d="M1697.549,1432.682c-.179-.011-.359-.016-.539-.017a7.613,7.613,0,0,1-1.7,1.043c-2.229.989-4.6.514-6.86.707-.634.152-1.268.283-1.9.379a6.01,6.01,0,0,0-1.125.514c-2.219,1.315-4.022,3.379-6.783,2.061a7.393,7.393,0,0,1-3.78-5.762c-.731-5.629,3.721-11.963-.1-17.032a1.264,1.264,0,0,1-.279-.949,8.831,8.831,0,0,0-6.1.883c-3.19,2.083-2.222,7.977-2.336,11.17-.2,5.687.18,11.861-2.336,17.116a8.376,8.376,0,0,0-1.027,4.4,1.919,1.919,0,0,0-.3,1.774,3.362,3.362,0,0,0,.666.917c2.619,2.836,6.044,6.3,10.069,6.8,3.917.493,7.2-2.085,9.422-5.044,2.807-3.743,5.515-7.563,8.464-11.2,1.473-1.815,3-3.582,4.628-5.264a30,30,0,0,0,2.514-2.621A1.222,1.222,0,0,1,1697.549,1432.682Z" transform="translate(-364.28 -101.432)"/><path class="c" d="M1717.443,1439.4a17.279,17.279,0,0,0,.441-4.835A33.989,33.989,0,0,1,1717.443,1439.4Z" transform="translate(-405.876 -117.341)"/><path class="c" d="M1686.656,1440.823c-3.229.55-5.9,1.735-9,2.662-5.785,1.73-8.115-4-7.5-8.777.918-7.159,4.13-13.425,2.728-20.839a1.673,1.673,0,0,1-.025-.391,7.571,7.571,0,0,0-4.481,1.031c-3.19,2.083-2.222,7.977-2.336,11.17-.2,5.687.18,11.861-2.336,17.116a8.376,8.376,0,0,0-1.027,4.4,1.92,1.92,0,0,0-.3,1.775,3.361,3.361,0,0,0,.666.917c2.619,2.836,6.044,6.3,10.069,6.8,3.917.493,7.2-2.085,9.422-5.044,2.807-3.743,5.515-7.563,8.464-11.2.506-.623,1.03-1.231,1.55-1.842A16.613,16.613,0,0,1,1686.656,1440.823Z" transform="translate(-364.28 -101.433)"/><path class="d" d="M1673.3,1533.277c-3.072-1.354-9.429-4.394-9.131-8.138-.037-.059.495-2.039.459-2.1a18,18,0,0,1-.917,2.369,8.376,8.376,0,0,0-1.027,4.4,1.92,1.92,0,0,0-.3,1.775,3.361,3.361,0,0,0,.666.917c2.619,2.836,6.044,6.3,10.069,6.8,3.917.493,7.2-2.085,9.422-5.044q1.1-1.47,2.191-2.951C1681.066,1533.561,1677.81,1535.265,1673.3,1533.277Z" transform="translate(-364.28 -184.048)"/><path class="e" d="M1662.262,1481.709a1.864,1.864,0,0,0-.129,1.7,6.834,6.834,0,0,0,1.233,1.306c.907.854,1.828,1.682,2.773,2.463a20.734,20.734,0,0,0,2.98,2.068,10.045,10.045,0,0,0,3.274,1.222,8.026,8.026,0,0,0,6.457-1.844,15.374,15.374,0,0,0,2.521-2.543c.752-.96,1.506-1.976,2.255-2.967a144.657,144.657,0,0,1,9.439-11.682c.857-.918,1.712-1.832,2.643-2.69a10.727,10.727,0,0,0,2.408-2.723,4.942,4.942,0,0,0,.292-3.519,8.913,8.913,0,0,0-1.734-3.255,8.635,8.635,0,0,1,1.981,3.183,5.3,5.3,0,0,1-.124,3.791,11.2,11.2,0,0,1-2.361,3c-.872.869-1.7,1.8-2.513,2.74-3.257,3.757-6.106,7.844-9.052,11.877-.739,1.014-1.455,2.016-2.226,3.035a16.109,16.109,0,0,1-2.72,2.782,10.878,10.878,0,0,1-3.487,1.886,8.227,8.227,0,0,1-4.013.25,13.486,13.486,0,0,1-6.7-3.838,32.565,32.565,0,0,1-2.559-2.795,6.4,6.4,0,0,1-1.1-1.6A1.944,1.944,0,0,1,1662.262,1481.709Z" transform="translate(-363.861 -135.947)"/><path class="b" d="M1630.223,1397.168a9.177,9.177,0,0,0-1.38-5.186,13.624,13.624,0,0,0-3.5-3.254c-4.484-3.1-13.689-7.816-18.933-4.043-4.461,3.21-3.549,10.93-3.333,15.657.15,3.277.409,6.556.292,9.839-.124,3.474-1.356,6.307-1.919,9.633a4.545,4.545,0,0,0,.471,3.02,13.849,13.849,0,0,0-.506,1.351,1.883,1.883,0,0,0,.516,1.446c.815.812,2.663.938,3.746,1.344,5.583,2.092,11.029,4.756,15.887-.328,2.86-2.994,4.412-7.011,5.793-10.837A48.556,48.556,0,0,0,1630.223,1397.168Z" transform="translate(-318.359 -78.675)"/><path class="c" d="M1630.242,1401.633a6.557,6.557,0,0,1-3.638,4.05c-1.4.527-2.6.053-4.009.012-2.789-.08-2.413,1.2-3.009,3.122-1.88,6.074-8.168.714-9.284-3.106-.852-2.916-.458-6-.551-8.992a27.134,27.134,0,0,0-.465-5.181c-.009-.038-.017-.075-.025-.113a4.4,4.4,0,0,0-2.042-3.152,1.489,1.489,0,0,1-.433-.308c-.128.079-.255.159-.379.248-4.461,3.21-3.549,10.93-3.333,15.657.149,3.277.409,6.556.292,9.839-.124,3.474-1.356,6.307-1.919,9.633a4.545,4.545,0,0,0,.471,3.02,13.849,13.849,0,0,0-.506,1.351,1.883,1.883,0,0,0,.516,1.446c.815.812,2.663.938,3.746,1.344,5.583,2.092,11.029,4.756,15.887-.328,2.86-2.994,4.412-7.011,5.793-10.837A48.661,48.661,0,0,0,1630.242,1401.633Z" transform="translate(-318.359 -82.203)"/><path class="f" d="M1648.463,1396.019a4.971,4.971,0,0,0,.552-.091c1.273-.281,2.589-.778,3.9-.442,1.036.265,5.333,3.524,5.934,1.749a1.657,1.657,0,0,0-.114-1.129,5.754,5.754,0,0,0-2.844-2.855c-1.367-.688-2.9-.923-4.259-1.557-1.069-.5-2.074-1.134-3.146-1.632-.815-.379-4.241-2.1-4.157-.014a14.5,14.5,0,0,0,1.317,4.129A2.513,2.513,0,0,0,1648.463,1396.019Z" transform="translate(-350.749 -83.007)"/><path class="c" d="M1628.214,1422.668c-1.926,2.753-3.915,2.889-6.827,4-2.562.976-3.318,4.017-5.79,5.123a5.811,5.811,0,0,1-6.152-1.347c-1.867-1.783-2.031-4.391-1.929-6.822.3-7.073-.268-15.048-3.4-21.51a1.636,1.636,0,0,1-.138-.45c-1.624,3.748-1.07,8.986-.907,12.536.149,3.277.409,6.556.292,9.839-.124,3.474-1.356,6.307-1.919,9.633a4.545,4.545,0,0,0,.471,3.02,13.849,13.849,0,0,0-.506,1.351,1.883,1.883,0,0,0,.516,1.446c.815.812,2.663.938,3.746,1.344,5.583,2.092,11.029,4.756,15.887-.328,2.86-2.994,4.412-7.011,5.793-10.837a49.151,49.151,0,0,0,2.38-9.512A23.7,23.7,0,0,1,1628.214,1422.668Z" transform="translate(-318.359 -92.529)"/><path class="d" d="M1608.13,1513.807c-.323-1.395-5.046.673-5.612-.6-.381,1.492-.8,2.973-1.074,4.567a4.545,4.545,0,0,0,.471,3.02,13.849,13.849,0,0,0-.506,1.351,1.883,1.883,0,0,0,.516,1.446c.815.812,2.663.938,3.746,1.344,5.583,2.092,11.029,4.756,15.887-.328a16.507,16.507,0,0,0,1.082-1.263C1615.808,1523.9,1609.91,1521.5,1608.13,1513.807Z" transform="translate(-318.359 -176.633)"/><path class="e" d="M1601.421,1440.867a1.748,1.748,0,0,0,.99,1.5,6.652,6.652,0,0,0,1.854.448c.328.052.663.1,1.009.169a9.678,9.678,0,0,1,1.026.27l1.918.61c1.275.392,2.52.827,3.778,1.092a12.024,12.024,0,0,0,3.7.371,7.142,7.142,0,0,0,3.38-1.09,11.661,11.661,0,0,0,2.73-2.508,27.042,27.042,0,0,0,3.77-6.784,63.9,63.9,0,0,0,2.584-7.505,51.374,51.374,0,0,0,1.436-7.8c.139-1.319.209-2.645.241-3.973a27.736,27.736,0,0,0-.113-3.962,6.9,6.9,0,0,0-1.484-3.55,15.608,15.608,0,0,0-2.895-2.741,14.494,14.494,0,0,1,3.155,2.523,7.39,7.39,0,0,1,1.823,3.666,37.736,37.736,0,0,1,.345,8.121,50.181,50.181,0,0,1-3.592,15.82,26.939,26.939,0,0,1-3.912,7.281,13.39,13.39,0,0,1-3.152,2.919,8.939,8.939,0,0,1-4.187,1.381,17.769,17.769,0,0,1-8.113-1.929l-1.84-.821a8.673,8.673,0,0,0-.876-.378l-.945-.307a6.67,6.67,0,0,1-1.918-.893,1.949,1.949,0,0,1-.657-.887A2.138,2.138,0,0,1,1601.421,1440.867Z" transform="translate(-318.37 -95.355)"/><path class="b" d="M1386.986,1390.691a38.183,38.183,0,0,1,.24-5.452,33.365,33.365,0,0,0,.682-4.7,5.38,5.38,0,0,0-3.693-4.968c-2.131-.8-4.377-.472-6.551-.034a119.576,119.576,0,0,0-32.347,11.131c-5.078,2.646-10.039,5.507-15.079,8.223-4.085,2.2-10.245,6.737-14.915,7.17,1.871-.173,3.69-.349,5.439-.523a1.6,1.6,0,0,1,1.156,2.83q-.729.595-1.47,1.175c-1.188.929-2.314,1.934-3.427,2.952-1.844,1.688-4.246,2.9-6.019,4.656-.23.228-.908,1.286-1.213,1.36,12.409-3.6,25.272-2.136,38.009-1.646,6.417.246,12.211,1.067,17.583,4.807,4.689,3.265,9.171,5.583,14.985,3.773,5-1.556,8.073-4.963,8.286-10.288C1388.923,1404.326,1387.123,1397.515,1386.986,1390.691Z" transform="translate(-98.511 -72.488)"/><path class="f" d="M1434.383,1399.629c2.688-.413,5.726-.22,8.356-1.422,2.578-1.179,4.672-3.2,7.357-4.2,2.97-1.105,8.146-1.045,9.962-4.154,2.5-4.272-5.615-2.119-7.15-1.344-3.845,1.941-7,4.822-11.34,5.718-7.483,1.544-14.757.587-21.381,5.134-1.369.94-9.546,4-6.615,5.87a3.511,3.511,0,0,0,2.079.355c4.878-.242,8.98-2.07,13.313-4.117A19.793,19.793,0,0,1,1434.383,1399.629Z" transform="translate(-176.288 -81.682)"/><path class="c" d="M1386.986,1397.872a38.186,38.186,0,0,1,.24-5.452,33.361,33.361,0,0,0,.682-4.7,5.158,5.158,0,0,0-1.1-3.112c-.036.287-.077.573-.131.859-.555,2.926-2.226,6.18-5.1,7.373-2.154.893-4.219.844-6.135,2.443a8.261,8.261,0,0,0-2.826,5.615c-.371,3.107.628,6.063-1.469,8.722-1.842,2.335-4.883,3.7-7.719,4.365-8.3,1.934-14.722-4.417-22.366-6.289-6.934-1.7-15.672-2.131-22.282,1.217.667-.065,1.334-.13,1.983-.194a1.6,1.6,0,0,1,1.156,2.83q-.729.595-1.47,1.175c-1.188.929-2.314,1.934-3.427,2.953-1.844,1.688-4.246,2.9-6.019,4.656-.23.228-.908,1.286-1.213,1.36,12.409-3.6,25.272-2.136,38.009-1.646,6.417.246,12.211,1.067,17.583,4.807,4.689,3.265,9.171,5.583,14.985,3.773,5-1.556,8.073-4.963,8.286-10.288C1388.923,1411.506,1387.123,1404.7,1386.986,1397.872Z" transform="translate(-98.511 -79.669)"/><path class="c" d="M1387.138,1491.024c-2.619,6.072-10.475,6.882-16.256,6.641-8.242-.345-15.191-4.243-23.112-6.02a67.971,67.971,0,0,0-13.724-1.237c-4.664-.073-9.571.16-13.7,2.56a1.477,1.477,0,0,1-2.174-.877c-.387.344-.775.687-1.157,1.036-1.844,1.688-4.246,2.9-6.019,4.656-.23.228-.908,1.286-1.213,1.36,12.409-3.6,25.272-2.136,38.009-1.646,6.417.246,12.211,1.067,17.583,4.807,4.689,3.265,9.171,5.583,14.985,3.773,5-1.556,8.073-4.963,8.286-10.288a53.963,53.963,0,0,0-.462-8.455A16.326,16.326,0,0,1,1387.138,1491.024Z" transform="translate(-98.511 -157.125)"/><path class="d" d="M1385.133,1521.708c-5.3,3.887-12.679,2.521-18.415.5-3.925-1.385-7.68-3.224-11.656-4.472a37.563,37.563,0,0,0-13.455-1.277c-4.616.228-9.209.632-13.835.635-4.849,0-9.66.013-14.246,1.793a1.218,1.218,0,0,1-1.365-.229,14.17,14.17,0,0,0-1.16,1.014c-.23.228-.908,1.286-1.213,1.36,12.409-3.6,25.272-2.136,38.009-1.646,6.417.246,12.211,1.067,17.583,4.807,4.689,3.265,9.171,5.583,14.985,3.773,5-1.556,8.073-4.963,8.286-10.288,0-.093,0-.185.006-.278A11.147,11.147,0,0,1,1385.133,1521.708Z" transform="translate(-98.511 -179.013)"/><path class="e" d="M1332.279,1481.4a32.9,32.9,0,0,1,3.925-.853c.328-.058.657-.11.987-.153l.5-.068a2.377,2.377,0,0,1,.666.02,2.179,2.179,0,0,1,1.7,1.908,2.142,2.142,0,0,1-.306,1.322,2.339,2.339,0,0,1-.438.511,4.647,4.647,0,0,1-.415.325l-1.612,1.184a33.956,33.956,0,0,1-3.315,2.238,33.59,33.59,0,0,1,2.73-2.971c.47-.493.986-.892,1.48-1.337.113-.1.275-.226.354-.308a1.171,1.171,0,0,0,.2-.248.943.943,0,0,0,.116-.594,1.023,1.023,0,0,0-.746-.908,1.266,1.266,0,0,0-.326-.041l-.492.024c-.332.021-.665.032-1,.038A32.938,32.938,0,0,1,1332.279,1481.4Z" transform="translate(-115.469 -151.828)"/><path class="e" d="M1309.788,1414.25c5.129-2.02,10.7-2.515,16.159-2.727,5.483-.175,10.952.165,16.4.441l8.189.39a37.071,37.071,0,0,1,8.161,1.332,28.076,28.076,0,0,1,7.583,3.456,23.252,23.252,0,0,0,7.153,3.167,12.823,12.823,0,0,0,7.315-.615,10.037,10.037,0,0,0,5.565-4.439,9.839,9.839,0,0,0,1.148-3.452l.1-.936.05-.991c.026-.663.048-1.328.037-2,0-2.674-.269-5.376-.544-8.091-.538-5.414-1.14-11.012.04-16.467a10.243,10.243,0,0,0,.391-3.931,5,5,0,0,0-2.055-3.218,7.118,7.118,0,0,0-3.761-1.25,17.356,17.356,0,0,0-4.057.353,17.458,17.458,0,0,1,4.064-.535,7.393,7.393,0,0,1,3.96,1.132,5.462,5.462,0,0,1,2.384,3.412,10.785,10.785,0,0,1-.214,4.179,33.5,33.5,0,0,0-.289,8.059c.179,2.7.593,5.377,1.021,8.075s.854,5.42,1.047,8.205c.056.694.079,1.4.1,2.1l0,1.056-.063,1.1a12.177,12.177,0,0,1-1.22,4.337,10.456,10.456,0,0,1-2.906,3.524,14.11,14.11,0,0,1-3.908,2.182,14.83,14.83,0,0,1-4.343.934,13,13,0,0,1-4.424-.557,24.264,24.264,0,0,1-7.416-4.132,23.582,23.582,0,0,0-3.338-2.218,22.759,22.759,0,0,0-3.693-1.552,36.212,36.212,0,0,0-7.949-1.426c-2.7-.214-5.446-.261-8.17-.414-5.453-.282-10.9-.511-16.338-.385A98.322,98.322,0,0,0,1309.788,1414.25Z" transform="translate(-98.511 -72.232)"/><g transform="translate(1241.345 1319.306)"><path class="g" d="M1435.986,1444.8a1.717,1.717,0,0,1-1.7,1.728c-.9.068-2.281-.4-2.281-1.5a2.351,2.351,0,0,1,2.2-2.006A1.776,1.776,0,0,1,1435.986,1444.8Z" transform="translate(-1432.009 -1443.019)"/><path class="h" d="M1439.7,1443.018a1.669,1.669,0,0,0-.281.033,1.774,1.774,0,0,1,1.449,1.743,1.7,1.7,0,0,1-1.579,1.71,2.652,2.652,0,0,0,.491.018,1.717,1.717,0,0,0,1.7-1.728A1.776,1.776,0,0,0,1439.7,1443.018Z" transform="translate(-1437.495 -1443.018)"/><path class="i" d="M1439.212,1445.5a.359.359,0,0,1-.5.5.174.174,0,0,1-.045-.045.359.359,0,0,1,.5-.5A.172.172,0,0,1,1439.212,1445.5Z" transform="translate(-1436.969 -1444.795)"/></g><path class="a" d="M1241.03,1465.87a9.343,9.343,0,0,1,2.213,6.761,11.956,11.956,0,0,1-2.463,6.819,18.511,18.511,0,0,1-5.539,4.773,29.186,29.186,0,0,1-6.739,2.839,53.686,53.686,0,0,1-14.412,2.047,48.853,48.853,0,0,1-14.43-1.972,33.288,33.288,0,0,1-12.8-6.926,24.814,24.814,0,0,1-4.684-5.638,25.427,25.427,0,0,1-1.66-3.274,16.8,16.8,0,0,1-1.093-3.518,14.1,14.1,0,0,1,.43-7.3,13,13,0,0,1,.723-1.7c.149-.271.328-.529.49-.793a3.818,3.818,0,0,1,.55-.751l.624-.694.729-.583a3.969,3.969,0,0,1,.78-.5,5.324,5.324,0,0,1,.826-.421,8.409,8.409,0,0,1,7.134.287,7.155,7.155,0,0,1,2.693,2.421l.472.78.331.848c.052.142.115.28.158.425l.09.445.179.888-.21-.88-.1-.439c-.047-.142-.115-.278-.172-.417l-.356-.826-.491-.752a7.1,7.1,0,0,0-2.693-2.29,8.088,8.088,0,0,0-6.863-.109,8.272,8.272,0,0,0-4.36,5.245,13.482,13.482,0,0,0-.3,6.992,16.1,16.1,0,0,0,1.1,3.364,24.651,24.651,0,0,0,1.66,3.15,25.211,25.211,0,0,0,4.582,5.417,32.4,32.4,0,0,0,12.5,6.671,50.675,50.675,0,0,0,14.162,1.915,52.8,52.8,0,0,0,14.185-1.907,30.33,30.33,0,0,0,6.622-2.642,17.9,17.9,0,0,0,5.46-4.492,11.868,11.868,0,0,0,2.587-6.508A9.407,9.407,0,0,0,1241.03,1465.87Z" transform="translate(0 -132.274)"/></g></svg>