<svg xmlns="http://www.w3.org/2000/svg" width="165.036" height="147.902" viewBox="0 0 165.036 147.902"><defs><style>.a{fill:#197f12;}.a,.aa,.ab,.ac,.ad,.ae,.af,.ag,.ah,.ai,.aj,.ak,.al,.am,.an,.ao,.ap,.aq,.ar,.as,.at,.au,.av,.aw,.ax,.ay,.az,.b,.ba,.bb,.bc,.bd,.be,.bf,.bg,.bh,.bi,.bj,.bk,.bl,.bm,.bn,.bo,.bp,.bq,.br,.bs,.bt,.bu,.bv,.bw,.bx,.by,.bz,.c,.ca,.cb,.cc,.cd,.ce,.cf,.cg,.ch,.ci,.cj,.ck,.cl,.cm,.cn,.co,.cp,.cq,.cr,.cs,.ct,.cu,.cv,.cw,.cx,.cy,.cz,.d,.da,.db,.dc,.dd,.de,.df,.dg,.dh,.di,.dj,.dk,.dl,.dm,.dn,.do,.dp,.dq,.dr,.ds,.dt,.du,.dv,.dw,.dx,.dy,.dz,.e,.ea,.eb,.ec,.ed,.ee,.ef,.eg,.eh,.ei,.ej,.ek,.el,.em,.en,.eo,.ep,.eq,.er,.es,.et,.eu,.ev,.ew,.ex,.ey,.ez,.f,.fa,.fb,.fc,.fd,.fe,.ff,.fg,.fh,.fi,.fj,.fk,.fl,.fm,.fn,.fo,.fp,.fq,.fr,.fs,.ft,.fu,.fv,.fw,.fx,.fy,.fz,.g,.ga,.gb,.gc,.gd,.ge,.gf,.gg,.gh,.gi,.gj,.gk,.gl,.gm,.gn,.go,.gp,.gq,.gr,.gs,.gt,.gu,.gv,.gw,.gx,.gy,.gz,.h,.ha,.hb,.hc,.hd,.he,.hf,.hg,.hh,.hi,.hj,.hk,.hl,.hm,.hn,.ho,.hp,.hq,.hr,.i,.j,.k,.l,.m,.n,.o,.p,.q,.r,.s,.t,.u,.v,.w,.x,.y,.z{fill-rule:evenodd;}.aa,.ab,.ac,.ad,.ae,.af,.ag,.ah,.ai,.aj,.ak,.al,.b,.c,.d,.e,.f,.g,.h,.i,.j,.k,.l,.m,.n,.o,.p,.q,.r,.s,.t,.u,.v,.w,.x,.y,.z{fill:#10540b;}.b,.ca,.gh{opacity:0.01;}.c{opacity:0.038;}.d{opacity:0.065;}.e{opacity:0.093;}.f{opacity:0.12;}.g{opacity:0.147;}.h{opacity:0.175;}.i{opacity:0.203;}.j{opacity:0.23;}.k{opacity:0.257;}.l{opacity:0.285;}.m{opacity:0.313;}.n{opacity:0.34;}.o{opacity:0.368;}.p{opacity:0.395;}.q{opacity:0.423;}.r{opacity:0.45;}.s{opacity:0.477;}.t{opacity:0.505;}.u{opacity:0.533;}.v{opacity:0.56;}.w{opacity:0.587;}.x{opacity:0.615;}.y{opacity:0.642;}.z{opacity:0.67;}.aa{opacity:0.697;}.ab{opacity:0.725;}.ac{opacity:0.752;}.ad{opacity:0.78;}.ae{opacity:0.808;}.af{opacity:0.835;}.ag{opacity:0.863;}.ah,.bx,.er{opacity:0.89;}.ai{opacity:0.918;}.aj{opacity:0.945;}.ak{opacity:0.973;}.am{fill:#91a824;}.an,.ao,.ap,.aq,.ar,.as,.at,.au,.av,.aw,.ax,.ay,.az,.ba,.bb,.bc,.bd,.be,.bf,.bg,.bh,.bi,.bj,.bk,.bl,.bm,.bn,.bo,.bp,.bq,.br,.bs,.bt,.bu,.bv,.bw,.bx,.by,.bz{fill:#788a1c;}.an{opacity:0.1;}.ao{opacity:0.122;}.ao,.ap,.aq,.ar,.as,.at,.au,.av,.aw,.ax,.ay,.az,.ba,.bb,.bc,.bd,.be,.bf,.bg,.bh,.bi,.bj,.bk,.bl,.bm,.bn,.bo,.bp,.bq,.br,.bs,.bt,.bu,.bv,.bw,.bx,.bz{mix-blend-mode:multiply;isolation:isolate;}.ap{opacity:0.144;}.aq{opacity:0.166;}.ar{opacity:0.188;}.as{opacity:0.21;}.at{opacity:0.232;}.au{opacity:0.254;}.av{opacity:0.276;}.aw{opacity:0.298;}.ax{opacity:0.319;}.ay{opacity:0.341;}.az{opacity:0.363;}.ba,.fo{opacity:0.385;}.bb{opacity:0.407;}.bc{opacity:0.429;}.bd{opacity:0.451;}.be{opacity:0.473;}.bf{opacity:0.495;}.bg{opacity:0.517;}.bh{opacity:0.539;}.bi{opacity:0.561;}.bj{opacity:0.583;}.bk{opacity:0.605;}.bl{opacity:0.627;}.bm{opacity:0.649;}.bn{opacity:0.671;}.bo{opacity:0.692;}.bp{opacity:0.714;}.bq{opacity:0.736;}.br{opacity:0.758;}.bs{opacity:0.78;}.bt{opacity:0.802;}.bu{opacity:0.824;}.bv{opacity:0.846;}.bw{opacity:0.868;}.bz,.el,.gf{opacity:0.73;}.ca,.cb,.cc,.cd,.ce,.cf,.cg,.ch,.ci,.cj,.ck,.cl,.cm,.cn,.co,.cp,.cq,.cr,.cs,.ct,.cu,.cv,.cw,.cx,.cy,.cz,.da,.db,.dc,.dd,.de,.df,.dg,.dh,.di,.dj,.dk,.dl,.dm,.dn,.do,.dp,.dq,.dr,.ds,.dt,.du,.dv,.dw,.dx,.dy,.dz,.ea,.eb,.ec,.ed,.ee,.ef,.eg,.eh,.ei,.ej,.ek,.el,.em,.en,.eo,.ep,.eq,.er,.es,.et,.eu{fill:#3f9439;}.cb{opacity:0.037;}.cc{opacity:0.064;}.cd{opacity:0.092;}.ce{opacity:0.119;}.cf{opacity:0.146;}.cg{opacity:0.173;}.ch{opacity:0.201;}.ci{opacity:0.228;}.cj{opacity:0.255;}.ck{opacity:0.282;}.cl{opacity:0.309;}.cm{opacity:0.337;}.cn{opacity:0.364;}.co{opacity:0.391;}.cp{opacity:0.418;}.cq{opacity:0.446;}.cr{opacity:0.473;}.cs{opacity:0.5;}.ct,.fv{opacity:0.527;}.cu{opacity:0.554;}.cv{opacity:0.582;}.cw{opacity:0.609;}.cx{opacity:0.636;}.cy{opacity:0.663;}.cz{opacity:0.691;}.da{opacity:0.718;}.db{opacity:0.745;}.dc{opacity:0.772;}.dd{opacity:0.799;}.de{opacity:0.827;}.df{opacity:0.854;}.dg{opacity:0.881;}.dh{opacity:0.908;}.di{opacity:0.936;}.dj{opacity:0.963;}.dk{opacity:0.99;}.dl{opacity:0.037;}.dm{opacity:0.063;}.dn{opacity:0.09;}.do{opacity:0.117;}.dp{opacity:0.143;}.dq{opacity:0.17;}.dr{opacity:0.197;}.ds{opacity:0.223;}.dt{opacity:0.25;}.du{opacity:0.277;}.dv{opacity:0.303;}.dw{opacity:0.33;}.dx{opacity:0.357;}.dy{opacity:0.383;}.dz{opacity:0.41;}.ea{opacity:0.437;}.eb{opacity:0.463;}.ec{opacity:0.49;}.ed{opacity:0.517;}.ee{opacity:0.543;}.ef{opacity:0.57;}.eg{opacity:0.597;}.eh{opacity:0.623;}.ei{opacity:0.65;}.ej{opacity:0.677;}.ek{opacity:0.703;}.em{opacity:0.757;}.en{opacity:0.783;}.eo{opacity:0.81;}.ep{opacity:0.837;}.eq{opacity:0.863;}.es{opacity:0.917;}.et{opacity:0.943;}.eu{opacity:0.97;}.ev,.ew,.ex,.ey,.ez,.fa,.fb,.fc,.fd,.fe,.ff,.fg,.fh,.fi,.fj,.fk,.fl,.fm,.fn,.fo,.fp,.fq,.fr,.fs,.ft,.fu,.fv,.fw,.fx,.fy,.fz,.ga,.gb,.gc,.gd,.ge,.gf{fill:#eaf29f;}.ev{opacity:0;}.ew{opacity:0.02;}.ex{opacity:0.041;}.ey{opacity:0.061;}.ez{opacity:0.081;}.fa{opacity:0.101;}.fb{opacity:0.122;}.fc{opacity:0.142;}.fd{opacity:0.162;}.fe{opacity:0.183;}.ff{opacity:0.203;}.fg,.gu{opacity:0.223;}.fh{opacity:0.243;}.fi{opacity:0.264;}.fj{opacity:0.284;}.fk{opacity:0.304;}.fl{opacity:0.324;}.fm{opacity:0.345;}.fn{opacity:0.365;}.fp{opacity:0.406;}.fq{opacity:0.426;}.fr{opacity:0.446;}.fs{opacity:0.466;}.ft{opacity:0.487;}.fu{opacity:0.507;}.fw{opacity:0.548;}.fx{opacity:0.568;}.fy{opacity:0.588;}.fz{opacity:0.608;}.ga{opacity:0.629;}.gb{opacity:0.649;}.gc{opacity:0.669;}.gd{opacity:0.689;}.ge{opacity:0.71;}.gg{fill:#feffbd;opacity:0.46;}.gh,.gi,.gj,.gk,.gl,.gm,.gn,.go,.gp,.gq,.gr,.gs,.gt,.gu,.gv,.gw,.gx,.gy,.gz,.ha,.hb,.hc,.hd,.he,.hf,.hg,.hh,.hi,.hj,.hk,.hl,.hm,.hn,.ho,.hp,.hq,.hr{fill:#fefefe;}.gi{opacity:0.026;}.gj{opacity:0.043;}.gk{opacity:0.059;}.gl{opacity:0.076;}.gm{opacity:0.092;}.gn{opacity:0.108;}.go{opacity:0.125;}.gp{opacity:0.141;}.gq{opacity:0.157;}.gr{opacity:0.174;}.gs{opacity:0.19;}.gt{opacity:0.207;}.gv{opacity:0.239;}.gw{opacity:0.256;}.gx{opacity:0.272;}.gy{opacity:0.289;}.gz{opacity:0.305;}.ha{opacity:0.321;}.hb{opacity:0.338;}.hc{opacity:0.354;}.hd{opacity:0.371;}.he{opacity:0.387;}.hf{opacity:0.403;}.hg{opacity:0.42;}.hh{opacity:0.436;}.hi{opacity:0.452;}.hj{opacity:0.469;}.hk{opacity:0.485;}.hl{opacity:0.502;}.hm{opacity:0.518;}.hn{opacity:0.534;}.ho{opacity:0.551;}.hp{opacity:0.567;}.hq{opacity:0.584;}.hr{opacity:0.6;}</style></defs><g transform="matrix(0.819, 0.574, -0.574, 0.819, 11.763, -32.187)"><path class="a" d="M43.563,32.119c-2.4-1.867-3.6-3.122-4.131-4.383-1.022-2.434-3.866-4.03-7.316-6.464,1.236-2.365,1.949-6.218,4.446-6.849,1.633.675,4.011,1.545,5.7,1.425,4.238-.3,4.478-1.476,9.359.29L48.059,27.2Z" transform="translate(0 2.382)"/><g transform="translate(35.408 16.805)"><path class="b" d="M32.638,15.022a2.812,2.812,0,0,1,1.154-.6c1.633.675,4.011,1.545,5.7,1.425,4.238-.3,4.478-1.476,9.359.29L47.7,19.727c-2.491-.889-2.548-1.734-9.031-2.018C36.643,17.62,35.053,16.031,32.638,15.022Z" transform="translate(-32.638 -14.423)"/><path class="c" d="M32.64,15.01a2.939,2.939,0,0,1,1.142-.587c1.633.675,4.011,1.545,5.7,1.425,4.238-.3,4.478-1.476,9.359.29l-1.123,3.494c-2.535-.914-2.693-1.7-9.037-1.974C36.651,17.576,35.024,16,32.64,15.01Z" transform="translate(-32.627 -14.423)"/><path class="d" d="M32.642,15a2.876,2.876,0,0,1,1.129-.58c1.633.675,4.011,1.545,5.7,1.425,4.238-.3,4.478-1.476,9.359.29l-1.1,3.406c-2.579-.946-2.832-1.659-9.037-1.93C36.666,17.538,34.994,15.962,32.642,15Z" transform="translate(-32.617 -14.423)"/><path class="e" d="M32.644,14.991a2.927,2.927,0,0,1,1.116-.568c1.633.675,4.011,1.545,5.7,1.425,4.238-.3,4.478-1.476,9.359.29l-1.066,3.311c-2.63-.971-2.977-1.64-9.044-1.879C36.68,17.488,34.965,15.93,32.644,14.991Z" transform="translate(-32.606 -14.423)"/><path class="f" d="M32.646,14.984a2.82,2.82,0,0,1,1.1-.561c1.633.675,4.011,1.545,5.7,1.425,4.238-.3,4.478-1.476,9.359.29l-1.034,3.216c-2.68-1-3.122-1.6-9.05-1.829C36.695,17.45,34.935,15.892,32.646,14.984Z" transform="translate(-32.596 -14.423)"/><path class="g" d="M32.648,14.978a2.842,2.842,0,0,1,1.091-.555c1.633.675,4.011,1.545,5.7,1.425,4.238-.3,4.478-1.476,9.359.29L47.79,19.26c-2.718-1.015-3.261-1.57-9.05-1.778C36.709,17.406,34.906,15.861,32.648,14.978Z" transform="translate(-32.585 -14.423)"/><path class="h" d="M32.65,14.965a2.854,2.854,0,0,1,1.078-.542c1.633.675,4.011,1.545,5.7,1.425,4.238-.3,4.478-1.476,9.359.29l-.978,3.033c-2.769-1.047-3.406-1.539-9.056-1.741C36.724,17.362,34.876,15.823,32.65,14.965Z" transform="translate(-32.574 -14.423)"/><path class="i" d="M32.652,14.959a2.93,2.93,0,0,1,1.066-.536c1.633.675,4.011,1.545,5.7,1.425,4.238-.3,4.478-1.476,9.359.29l-.952,2.939c-2.813-1.066-3.544-1.507-9.056-1.69C36.739,17.324,34.847,15.792,32.652,14.959Z" transform="translate(-32.564 -14.423)"/><path class="j" d="M32.654,14.953a2.862,2.862,0,0,1,1.053-.53c1.633.675,4.011,1.545,5.7,1.425,4.238-.3,4.478-1.476,9.359.29l-.921,2.844c-2.857-1.091-3.683-1.469-9.063-1.64C36.753,17.28,34.817,15.76,32.654,14.953Z" transform="translate(-32.553 -14.423)"/><path class="k" d="M32.656,14.94a2.984,2.984,0,0,1,1.041-.517c1.633.675,4.011,1.545,5.7,1.425,4.238-.3,4.478-1.476,9.359.29l-.9,2.756c-2.9-1.123-3.822-1.438-9.069-1.6C36.768,17.236,34.788,15.722,32.656,14.94Z" transform="translate(-32.542 -14.423)"/><path class="l" d="M32.658,14.934a2.913,2.913,0,0,1,1.028-.511c1.633.675,4.011,1.545,5.7,1.425,4.238-.3,4.478-1.476,9.359.29L47.882,18.8c-2.945-1.148-3.973-1.406-9.075-1.545C36.783,17.2,34.758,15.691,32.658,14.934Z" transform="translate(-32.532 -14.423)"/><path class="m" d="M32.66,14.928a3.007,3.007,0,0,1,1.015-.5c1.633.675,4.011,1.545,5.7,1.425,4.238-.3,4.478-1.476,9.359.29L47.9,18.705c-3-1.167-4.112-1.369-9.082-1.5C36.8,17.154,34.729,15.659,32.66,14.928Z" transform="translate(-32.521 -14.423)"/><path class="n" d="M32.662,14.921a2.824,2.824,0,0,1,1-.5c1.633.675,4.011,1.545,5.7,1.425,4.238-.3,4.478-1.476,9.359.29l-.807,2.472c-3.04-1.192-4.251-1.331-9.082-1.451C36.805,17.11,34.7,15.621,32.662,14.921Z" transform="translate(-32.511 -14.423)"/><path class="o" d="M32.664,14.909a2.962,2.962,0,0,1,.99-.486c1.633.675,4.011,1.545,5.7,1.425,4.238-.3,4.478-1.476,9.359.29l-.776,2.384c-3.084-1.223-4.4-1.3-9.088-1.406C36.82,17.072,34.669,15.59,32.664,14.909Z" transform="translate(-32.5 -14.423)"/><path class="p" d="M32.666,14.9a2.887,2.887,0,0,1,.978-.479c1.633.675,4.011,1.545,5.7,1.425,4.238-.3,4.478-1.476,9.359.29l-.75,2.289c-3.128-1.249-4.534-1.261-9.088-1.356C36.835,17.028,34.64,15.552,32.666,14.9Z" transform="translate(-32.489 -14.423)"/><path class="q" d="M32.668,14.9a2.932,2.932,0,0,1,.965-.473c1.633.675,4.011,1.545,5.7,1.425,4.238-.3,4.478-1.476,9.359.29l-.719,2.195c-3.179-1.268-4.68-1.223-9.1-1.312C36.849,16.983,34.61,15.52,32.668,14.9Z" transform="translate(-32.479 -14.423)"/><path class="r" d="M32.67,14.883a2.97,2.97,0,0,1,.952-.46c1.633.675,4.011,1.545,5.7,1.425,4.238-.3,4.478-1.476,9.359.29L48,18.239c-3.223-1.293-4.825-1.186-9.107-1.261C36.864,16.946,34.581,15.483,32.67,14.883Z" transform="translate(-32.468 -14.423)"/><path class="s" d="M32.672,14.877a2.892,2.892,0,0,1,.94-.454c1.633.675,4.011,1.545,5.7,1.425,4.238-.3,4.478-1.476,9.359.29l-.656,2.012C44.743,16.832,43.046,17,38.9,16.933,36.872,16.9,34.551,15.451,32.672,14.877Z" transform="translate(-32.458 -14.423)"/><path class="t" d="M32.674,14.871a2.815,2.815,0,0,1,.927-.448c1.633.675,4.011,1.545,5.7,1.425,4.238-.3,4.478-1.476,9.359.29l-.631,1.917c-3.311-1.343-5.108-1.116-9.113-1.167C36.887,16.864,34.522,15.419,32.674,14.871Z" transform="translate(-32.447 -14.423)"/><path class="u" d="M32.676,14.858a2.92,2.92,0,0,1,.914-.435c1.633.675,4.011,1.545,5.7,1.425,4.238-.3,4.478-1.476,9.359.29l-.605,1.823c-3.355-1.369-5.247-1.072-9.113-1.116C36.9,16.82,34.486,15.382,32.676,14.858Z" transform="translate(-32.436 -14.423)"/><path class="v" d="M32.678,14.852a2.839,2.839,0,0,1,.9-.429c1.633.675,4.011,1.545,5.7,1.425,4.238-.3,4.478-1.476,9.359.29l-.574,1.734c-3.406-1.4-5.392-1.041-9.119-1.078C36.916,16.775,34.463,15.35,32.678,14.852Z" transform="translate(-32.426 -14.423)"/><path class="w" d="M32.68,14.846a2.9,2.9,0,0,1,.889-.423c1.633.675,4.011,1.545,5.7,1.425,4.238-.3,4.478-1.476,9.359.29l-.542,1.64c-3.45-1.425-5.537-1-9.126-1.028C36.931,16.738,34.433,15.312,32.68,14.846Z" transform="translate(-32.415 -14.423)"/><path class="x" d="M32.682,14.833a2.954,2.954,0,0,1,.877-.41c1.633.675,4.011,1.545,5.7,1.425,4.238-.3,4.478-1.476,9.359.29l-.511,1.545c-3.5-1.444-5.676-.959-9.132-.978C36.945,16.693,34.4,15.281,32.682,14.833Z" transform="translate(-32.405 -14.423)"/><path class="y" d="M32.684,14.827a3.112,3.112,0,0,1,.864-.4c1.633.675,4.011,1.545,5.7,1.425,4.238-.3,4.478-1.476,9.359.29l-.486,1.451c-3.544-1.469-5.815-.921-9.138-.927C36.96,16.656,34.368,15.249,32.684,14.827Z" transform="translate(-32.394 -14.423)"/><path class="z" d="M32.686,14.814a3.01,3.01,0,0,1,.851-.391c1.633.675,4.011,1.545,5.7,1.425,4.238-.3,4.478-1.476,9.359.29l-.46,1.362c-3.582-1.5-5.96-.883-9.138-.889C36.968,16.611,34.338,15.211,32.686,14.814Z" transform="translate(-32.383 -14.423)"/><path class="aa" d="M32.688,14.808a3.015,3.015,0,0,1,.839-.385c1.633.675,4.011,1.545,5.7,1.425,4.238-.3,4.478-1.476,9.359.29l-.429,1.268c-3.633-1.52-6.1-.845-9.145-.839C36.983,16.574,34.309,15.173,32.688,14.808Z" transform="translate(-32.373 -14.423)"/><path class="ab" d="M32.69,14.8a3.008,3.008,0,0,1,.826-.378c1.633.675,4.011,1.545,5.7,1.425,4.238-.3,4.478-1.476,9.359.29l-.4,1.173c-3.677-1.545-6.244-.8-9.151-.788C37,16.536,34.279,15.142,32.69,14.8Z" transform="translate(-32.362 -14.423)"/><path class="ac" d="M32.692,14.789a3.318,3.318,0,0,1,.814-.366c1.633.675,4.011,1.545,5.7,1.425,4.238-.3,4.478-1.476,9.359.29l-.372,1.078c-3.721-1.57-6.382-.757-9.151-.738C37.012,16.5,34.256,15.11,32.692,14.789Z" transform="translate(-32.351 -14.423)"/><path class="ad" d="M32.694,14.782a3.215,3.215,0,0,1,.8-.359c1.633.675,4.011,1.545,5.7,1.425,4.238-.3,4.478-1.476,9.359.29l-.341.99c-3.771-1.6-6.527-.725-9.157-.694C37.027,16.454,34.22,15.073,32.694,14.782Z" transform="translate(-32.341 -14.423)"/><path class="ae" d="M32.7,14.776a3.473,3.473,0,0,1,.788-.353c1.633.675,4.011,1.545,5.7,1.425,4.238-.3,4.478-1.476,9.359.29l-.309.9c-3.816-1.621-6.672-.681-9.164-.65C37.041,16.416,34.191,15.041,32.7,14.776Z" transform="translate(-32.33 -14.423)"/><path class="af" d="M32.7,14.764a3.644,3.644,0,0,1,.776-.341c1.633.675,4.011,1.545,5.7,1.425,4.238-.3,4.478-1.476,9.359.29l-.284.8c-3.86-1.646-6.811-.637-9.164-.6C37.056,16.378,34.161,15.01,32.7,14.764Z" transform="translate(-32.32 -14.423)"/><path class="ag" d="M32.7,14.757a3.863,3.863,0,0,1,.763-.334c1.633.675,4.011,1.545,5.7,1.425,4.238-.3,4.478-1.476,9.359.29l-.252.713c-3.91-1.678-6.956-.6-9.176-.555C37.071,16.34,34.132,14.972,32.7,14.757Z" transform="translate(-32.309 -14.423)"/><path class="ah" d="M32.7,14.751a3.284,3.284,0,0,1,.75-.328c1.633.675,4.011,1.545,5.7,1.425,4.238-.3,4.478-1.476,9.359.29l-.227.612c-3.954-1.69-7.095-.549-9.176-.5C37.085,16.3,34.1,14.94,32.7,14.751Z" transform="translate(-32.298 -14.423)"/><path class="ai" d="M32.7,14.745a3.466,3.466,0,0,1,.738-.322c1.633.675,4.011,1.545,5.7,1.425,4.238-.3,4.478-1.476,9.359.29l-.2.523c-4-1.722-7.24-.511-9.182-.454C37.093,16.265,34.073,14.9,32.7,14.745Z" transform="translate(-32.288 -14.423)"/><path class="aj" d="M32.706,14.732a4.322,4.322,0,0,1,.725-.309c1.633.675,4.011,1.545,5.7,1.425,4.238-.3,4.478-1.476,9.359.29l-.164.429c-4.049-1.747-7.385-.467-9.189-.41C37.108,16.227,34.043,14.871,32.706,14.732Z" transform="translate(-32.277 -14.423)"/><path class="ak" d="M32.708,14.726a4.174,4.174,0,0,1,.713-.3c1.633.675,4.011,1.545,5.7,1.425,4.238-.3,4.478-1.476,9.359.29l-.139.334c-4.087-1.766-7.524-.423-9.189-.359C37.123,16.2,34.013,14.833,32.708,14.726Z" transform="translate(-32.267 -14.423)"/><path class="al" d="M32.71,14.719a4.582,4.582,0,0,1,.7-.3c1.633.675,4.011,1.545,5.7,1.425,4.238-.3,4.478-1.476,9.359.29l-.107.246c-4.137-1.8-7.669-.385-9.2-.315C37.137,16.157,33.984,14.8,32.71,14.719Z" transform="translate(-32.256 -14.423)"/></g><path class="al" d="M46.744,25.417c-6.445-6.609-7.587-5.789-14.449-9.769l.265-.656c6.262,2.157,9.157,3.349,14.423,7.448Z" transform="translate(0.95 5.402)"/><path class="am" d="M38.683,27.571c-2.371,4.08-4.85,4.036-4.837,6.477.013,3,2.333,5.846,5.2,9.359C41.805,50.275,54.1,56.777,68.7,61.223,73.717,62.749,79.09,64.3,84.7,65.8c15.029,4.011,25,9.63,40.388,13.345,18.825,4.547,41.378,4.73,55.751-8.129,3.847-3.443,6.925-9.592,6.881-15.054-.139-17.614-13.963-27.617-23.038-31.186-18.762-7.372-43.327-.359-61.628-2.794-8.785-1.167-12.5-5.235-26.9-7.145C67.3,13.658,53.6,13.217,44.416,16.66,39.837,18.382,37.542,22.153,38.683,27.571Z" transform="translate(9.18 0)"/><g transform="translate(43.026 27.571)"><path class="an" d="M38.683,16.13c-2.371,4.08-4.85,4.036-4.837,6.477.013,3,2.333,5.846,5.2,9.359C41.805,38.834,54.1,45.336,68.7,49.782,73.717,51.308,79.09,52.86,84.7,54.355c15.029,4.011,25,9.63,40.388,13.345,18.825,4.547,41.378,4.73,55.751-8.129,4.15-3.715,6.969-10.6,6.912-16.328-23.921,5.764-58.444-5.235-95.281-15.622C74.927,22.676,53.226,25.628,38.683,16.13Z" transform="translate(-33.846 -16.13)"/><path class="ao" d="M38.683,16.13c-2.371,4.08-4.85,4.036-4.837,6.477.013,3,2.333,5.846,5.2,9.359C41.805,38.834,54.1,45.336,68.7,49.782,73.717,51.308,79.09,52.86,84.7,54.355c15.029,4.011,25,9.63,40.388,13.345,18.825,4.547,41.378,4.73,55.751-8.129,4.15-3.715,6.969-10.6,6.912-16.328-23.568,6.767-58.721-4.484-95.508-14.922C74.713,23.345,52.488,25.842,38.683,16.13Z" transform="translate(-33.846 -16.13)"/><path class="ap" d="M38.683,16.13c-2.371,4.08-4.85,4.036-4.837,6.477.013,3,2.333,5.846,5.2,9.359C41.805,38.834,54.1,45.336,68.7,49.782,73.717,51.308,79.09,52.86,84.7,54.355c15.029,4.011,25,9.63,40.388,13.345,18.825,4.547,41.378,4.73,55.751-8.129,4.15-3.715,6.969-10.6,6.912-16.328-23.208,7.763-59-3.721-95.735-14.221C74.492,24.013,51.757,26.069,38.683,16.13Z" transform="translate(-33.846 -16.13)"/><path class="aq" d="M38.683,16.13c-2.371,4.08-4.85,4.036-4.837,6.477.013,3,2.333,5.846,5.2,9.359C41.805,38.834,54.1,45.336,68.7,49.782,73.717,51.308,79.09,52.86,84.7,54.355c15.029,4.011,25,9.63,40.388,13.345,18.825,4.547,41.378,4.73,55.751-8.129,4.15-3.715,6.969-10.6,6.912-16.328-22.849,8.766-59.27-2.964-95.955-13.521C74.278,24.682,51.019,26.29,38.683,16.13Z" transform="translate(-33.846 -16.13)"/><path class="ar" d="M38.683,16.13c-2.371,4.08-4.85,4.036-4.837,6.477.013,3,2.333,5.846,5.2,9.359C41.805,38.834,54.1,45.336,68.7,49.782,73.717,51.308,79.09,52.86,84.7,54.355c15.029,4.011,25,9.63,40.388,13.345,18.825,4.547,41.378,4.73,55.751-8.129,4.15-3.715,6.969-10.6,6.912-16.328C165.251,53,128.2,41.035,91.571,30.421,74.063,25.35,50.287,26.511,38.683,16.13Z" transform="translate(-33.846 -16.13)"/><path class="as" d="M38.683,16.13c-2.371,4.08-4.85,4.036-4.837,6.477.013,3,2.333,5.846,5.2,9.359C41.805,38.834,54.1,45.336,68.7,49.782,73.717,51.308,79.09,52.86,84.7,54.355c15.029,4.011,25,9.63,40.388,13.345,18.825,4.547,41.378,4.73,55.751-8.129,4.15-3.715,6.969-10.6,6.912-16.328-22.136,10.765-59.825-1.451-96.4-12.115C73.849,26.019,49.556,26.725,38.683,16.13Z" transform="translate(-33.846 -16.13)"/><path class="at" d="M38.683,16.13c-2.371,4.08-4.85,4.036-4.837,6.477.013,3,2.333,5.846,5.2,9.359C41.805,38.834,54.1,45.336,68.7,49.782,73.717,51.308,79.09,52.86,84.7,54.355c15.029,4.011,25,9.63,40.388,13.345,18.825,4.547,41.378,4.73,55.751-8.129,4.15-3.715,6.969-10.6,6.912-16.328-21.777,11.768-60.1-.694-96.63-11.415C73.628,26.687,48.818,26.952,38.683,16.13Z" transform="translate(-33.846 -16.13)"/><path class="au" d="M38.683,16.13c-2.371,4.08-4.85,4.036-4.837,6.477.013,3,2.333,5.846,5.2,9.359C41.805,38.834,54.1,45.336,68.7,49.782,73.717,51.308,79.09,52.86,84.7,54.355c15.029,4.011,25,9.63,40.388,13.345,18.825,4.547,41.378,4.73,55.751-8.129,4.15-3.715,6.969-10.6,6.912-16.328-21.417,12.771-60.373.063-96.851-10.715C73.414,27.356,48.086,27.173,38.683,16.13Z" transform="translate(-33.846 -16.13)"/><path class="av" d="M38.683,16.13c-2.371,4.08-4.85,4.036-4.837,6.477.013,3,2.333,5.846,5.2,9.359C41.805,38.834,54.1,45.336,68.7,49.782,73.717,51.308,79.09,52.86,84.7,54.355c15.029,4.011,25,9.63,40.388,13.345,18.825,4.547,41.378,4.73,55.751-8.129,4.15-3.715,6.969-10.6,6.912-16.328-21.064,13.767-60.651.826-97.078-10.015C73.2,28.024,47.349,27.394,38.683,16.13Z" transform="translate(-33.846 -16.13)"/><path class="aw" d="M38.683,16.13c-2.371,4.08-4.85,4.036-4.837,6.477.013,3,2.333,5.846,5.2,9.359C41.805,38.834,54.1,45.336,68.7,49.782,73.717,51.308,79.09,52.86,84.7,54.355c15.029,4.011,25,9.63,40.388,13.345,18.825,4.547,41.378,4.73,55.751-8.129,4.15-3.715,6.969-10.6,6.912-16.328-20.7,14.764-60.928,1.583-97.305-9.315C72.979,28.693,46.617,27.614,38.683,16.13Z" transform="translate(-33.846 -16.13)"/><path class="ax" d="M38.683,16.13c-2.371,4.08-4.85,4.036-4.837,6.477.013,3,2.333,5.846,5.2,9.359C41.805,38.834,54.1,45.336,68.7,49.782,73.717,51.308,79.09,52.86,84.7,54.355c15.029,4.011,25,9.63,40.388,13.345,18.825,4.547,41.378,4.73,55.751-8.129,4.15-3.715,6.969-10.6,6.912-16.328-20.345,15.767-61.2,2.34-97.526-8.615C72.764,29.355,45.879,27.835,38.683,16.13Z" transform="translate(-33.846 -16.13)"/><path class="ay" d="M38.683,16.13c-2.371,4.08-4.85,4.036-4.837,6.477.013,3,2.333,5.846,5.2,9.359C41.805,38.834,54.1,45.336,68.7,49.782,73.717,51.308,79.09,52.86,84.7,54.355c15.029,4.011,25,9.63,40.388,13.345,18.825,4.547,41.378,4.73,55.751-8.129,4.15-3.715,6.969-10.6,6.912-16.328C167.755,60.012,126.27,46.339,90,35.327,72.55,30.024,45.148,28.056,38.683,16.13Z" transform="translate(-33.846 -16.13)"/><path class="az" d="M38.683,16.13c-2.371,4.08-4.85,4.036-4.837,6.477.013,3,2.333,5.846,5.2,9.359C41.805,38.834,54.1,45.336,68.7,49.782,73.717,51.308,79.09,52.86,84.7,54.355c15.029,4.011,25,9.63,40.388,13.345,18.825,4.547,41.378,4.73,55.751-8.129,4.15-3.715,6.969-10.6,6.912-16.328-19.633,17.772-61.755,3.853-97.974-7.209C72.329,30.692,44.416,28.277,38.683,16.13Z" transform="translate(-33.846 -16.13)"/><path class="ba" d="M38.683,16.13c-2.371,4.08-4.85,4.036-4.837,6.477.013,3,2.333,5.846,5.2,9.359C41.805,38.834,54.1,45.336,68.7,49.782,73.717,51.308,79.09,52.86,84.7,54.355c15.029,4.011,25,9.63,40.388,13.345,18.825,4.547,41.378,4.73,55.751-8.129,4.15-3.715,6.969-10.6,6.912-16.328-19.279,18.769-62.026,4.61-98.2-6.515C72.115,31.361,43.678,28.5,38.683,16.13Z" transform="translate(-33.846 -16.13)"/><path class="bb" d="M38.683,16.13c-2.371,4.08-4.85,4.036-4.837,6.477.013,3,2.333,5.846,5.2,9.359C41.805,38.834,54.1,45.336,68.7,49.782,73.717,51.308,79.09,52.86,84.7,54.355c15.029,4.011,25,9.63,40.388,13.345,18.825,4.547,41.378,4.73,55.751-8.129,4.15-3.715,6.969-10.6,6.912-16.328-18.92,19.771-62.3,5.367-98.421-5.808C71.9,32.029,42.947,28.718,38.683,16.13Z" transform="translate(-33.846 -16.13)"/><path class="bc" d="M38.683,16.13c-2.371,4.08-4.85,4.036-4.837,6.477.013,3,2.333,5.846,5.2,9.359C41.805,38.834,54.1,45.336,68.7,49.782,73.717,51.308,79.09,52.86,84.7,54.355c15.029,4.011,25,9.63,40.388,13.345,18.825,4.547,41.378,4.73,55.751-8.129,4.15-3.715,6.969-10.6,6.912-16.328-18.56,20.774-62.581,6.124-98.642-5.108C71.686,32.7,42.209,28.939,38.683,16.13Z" transform="translate(-33.846 -16.13)"/><path class="bd" d="M38.683,16.13c-2.371,4.08-4.85,4.036-4.837,6.477.013,3,2.333,5.846,5.2,9.359C41.805,38.834,54.1,45.336,68.7,49.782,73.717,51.308,79.09,52.86,84.7,54.355c15.029,4.011,25,9.63,40.388,13.345,18.825,4.547,41.378,4.73,55.751-8.129,4.15-3.715,6.969-10.6,6.912-16.328-18.207,21.771-62.852,6.881-98.869-4.408C71.471,33.366,41.477,29.16,38.683,16.13Z" transform="translate(-33.846 -16.13)"/><path class="be" d="M38.683,16.13c-2.371,4.08-4.85,4.036-4.837,6.477.013,3,2.333,5.846,5.2,9.359C41.805,38.834,54.1,45.336,68.7,49.782,73.717,51.308,79.09,52.86,84.7,54.355c15.029,4.011,25,9.63,40.388,13.345,18.825,4.547,41.378,4.73,55.751-8.129,4.15-3.715,6.969-10.6,6.912-16.328-17.848,22.773-63.129,7.644-99.1-3.708C71.251,34.035,40.745,29.38,38.683,16.13Z" transform="translate(-33.846 -16.13)"/><path class="bf" d="M38.683,16.13c-2.371,4.08-4.85,4.036-4.837,6.477.013,3,2.333,5.846,5.2,9.359C41.805,38.834,54.1,45.336,68.7,49.782,73.717,51.308,79.09,52.86,84.7,54.355c15.029,4.011,25,9.63,40.388,13.345,18.825,4.547,41.378,4.73,55.751-8.129,4.15-3.715,6.969-10.6,6.912-16.328-17.488,23.776-63.407,8.4-99.317-3.008C71.036,34.7,40.008,29.6,38.683,16.13Z" transform="translate(-33.846 -16.13)"/><path class="bg" d="M38.683,16.13c-2.371,4.08-4.85,4.036-4.837,6.477.013,3,2.333,5.846,5.2,9.359C41.805,38.834,54.1,45.336,68.7,49.782,73.717,51.308,79.09,52.86,84.7,54.355c15.029,4.011,25,9.63,40.388,13.345,18.825,4.547,41.378,4.73,55.751-8.129,4.15-3.715,6.969-10.6,6.912-16.328C170.612,68.015,124.062,52.4,88.2,40.94,70.822,35.372,39.276,29.822,38.683,16.13Z" transform="translate(-33.846 -16.13)"/><path class="bh" d="M38.683,16.13c-2.371,4.08-4.85,4.036-4.837,6.477.013,3,2.333,5.846,5.2,9.359C41.805,38.834,54.1,45.336,68.7,49.782,73.717,51.308,79.09,52.86,84.7,54.355c15.029,4.011,25,9.63,40.388,13.345,18.825,4.547,41.378,4.73,55.751-8.129,4.15-3.715,6.969-10.6,6.912-16.328-16.776,25.775-63.956,9.914-99.765-1.608C70.6,36.04,38.538,30.042,38.683,16.13Z" transform="translate(-33.846 -16.13)"/><path class="bi" d="M38.683,16.13c-2.371,4.08-4.85,4.036-4.837,6.477.013,3,2.333,5.846,5.2,9.359C41.805,38.834,54.1,45.336,68.7,49.782,73.717,51.308,79.09,52.86,84.7,54.355c15.029,4.011,25,9.63,40.388,13.345,18.825,4.547,41.378,4.73,55.751-8.129,4.15-3.715,6.969-10.6,6.912-16.328-16.416,26.772-64.233,10.671-99.992-.9C70.387,36.709,37.807,30.269,38.683,16.13Z" transform="translate(-33.846 -16.13)"/><path class="bj" d="M38.683,16.13c-2.371,4.08-4.85,4.036-4.837,6.477.013,3,2.333,5.846,5.2,9.359C41.805,38.834,54.1,45.336,68.7,49.782,73.717,51.308,79.09,52.86,84.7,54.355c15.029,4.011,25,9.63,40.388,13.345,18.825,4.547,41.378,4.73,55.751-8.129,4.15-3.715,6.969-10.6,6.912-16.328-16.063,27.774-64.5,11.428-100.219-.2C70.172,37.371,37.069,30.484,38.683,16.13Z" transform="translate(-33.846 -16.13)"/><path class="bk" d="M38.683,16.13c-2.371,4.08-4.85,4.036-4.837,6.477.013,3,2.333,5.846,5.2,9.359C41.805,38.834,54.1,45.336,68.7,49.782,73.717,51.308,79.09,52.86,84.7,54.355c15.029,4.011,25,9.63,40.388,13.345,18.825,4.547,41.378,4.73,55.751-8.129,4.15-3.715,6.969-10.6,6.912-16.328-15.7,28.777-64.782,12.184-100.439.5C69.952,38.039,36.337,30.7,38.683,16.13Z" transform="translate(-33.846 -16.13)"/><path class="bl" d="M38.683,16.13c-2.371,4.08-4.85,4.036-4.837,6.477.013,3,2.333,5.846,5.2,9.359C41.805,38.834,54.1,45.336,68.7,49.782,73.717,51.308,79.09,52.86,84.7,54.355c15.029,4.011,25,9.63,40.388,13.345,18.825,4.547,41.378,4.73,55.751-8.129,4.15-3.715,6.969-10.6,6.912-16.328C172.4,73.016,122.688,56.183,87.08,44.44,69.737,38.708,35.6,30.932,38.683,16.13Z" transform="translate(-33.846 -16.13)"/><path class="bm" d="M38.683,16.13c-2.371,4.08-4.85,4.036-4.837,6.477.013,3,2.333,5.846,5.2,9.359C41.805,38.834,54.1,45.336,68.7,49.782,73.717,51.308,79.09,52.86,84.7,54.355c15.029,4.011,25,9.63,40.388,13.345,18.825,4.547,41.378,4.73,55.751-8.129,4.15-3.715,6.969-10.6,6.912-16.328-14.985,30.776-65.33,13.7-100.887,1.9C69.523,39.376,34.868,31.152,38.683,16.13Z" transform="translate(-33.846 -16.13)"/><path class="bn" d="M38.683,16.13c-2.371,4.08-4.85,4.036-4.837,6.477.013,3,2.333,5.846,5.2,9.359C41.805,38.834,54.1,45.336,68.7,49.782,73.717,51.308,79.09,52.86,84.7,54.355c15.029,4.011,25,9.63,40.388,13.345,18.825,4.547,41.378,4.73,55.751-8.129,4.15-3.715,6.969-10.6,6.912-16.328-14.631,31.779-65.608,14.461-101.114,2.6C69.308,40.045,34.136,31.367,38.683,16.13Z" transform="translate(-33.846 -16.13)"/><path class="bo" d="M38.683,16.13c-2.371,4.08-4.85,4.036-4.837,6.477.013,3,2.333,5.846,5.2,9.359C41.805,38.834,54.1,45.336,68.7,49.782,73.717,51.308,79.09,52.86,84.7,54.355c15.029,4.011,25,9.63,40.388,13.345,18.825,4.547,41.378,4.73,55.751-8.129,4.15-3.715,6.969-10.6,6.912-16.328-14.272,32.782-65.885,15.218-101.335,3.3C69.094,40.713,33.4,31.594,38.683,16.13Z" transform="translate(-33.846 -16.13)"/><path class="bp" d="M38.683,16.13c-2.371,4.08-4.85,4.036-4.837,6.477.013,3,2.333,5.846,5.2,9.359C41.805,38.834,54.1,45.336,68.7,49.782,73.717,51.308,79.09,52.86,84.7,54.355c15.029,4.011,25,9.63,40.388,13.345,18.825,4.547,41.378,4.73,55.751-8.129,4.15-3.715,6.969-10.6,6.912-16.328-13.912,33.778-66.163,15.975-101.562,4C68.873,41.382,32.667,31.815,38.683,16.13Z" transform="translate(-33.846 -16.13)"/><path class="bq" d="M38.683,16.13c-2.371,4.08-4.85,4.036-4.837,6.477.013,3,2.333,5.846,5.2,9.359C41.805,38.834,54.1,45.336,68.7,49.782,73.717,51.308,79.09,52.86,84.7,54.355c15.029,4.011,25,9.63,40.388,13.345,18.825,4.547,41.378,4.73,55.751-8.129,4.15-3.715,6.969-10.6,6.912-16.328-13.559,34.775-66.434,16.732-101.789,4.7C68.659,42.05,31.929,32.035,38.683,16.13Z" transform="translate(-33.846 -16.13)"/><path class="br" d="M38.683,16.13c-2.371,4.08-4.85,4.036-4.837,6.477.013,3,2.333,5.846,5.2,9.359C41.805,38.834,54.1,45.336,68.7,49.782,73.717,51.308,79.09,52.86,84.7,54.355c15.029,4.011,25,9.63,40.388,13.345,18.825,4.547,41.378,4.73,55.751-8.129,4.15-3.715,6.969-10.6,6.912-16.328-13.2,35.778-66.712,17.488-102.01,5.4C68.444,42.719,31.2,32.256,38.683,16.13Z" transform="translate(-33.846 -16.13)"/><path class="bs" d="M38.683,16.13c-2.371,4.08-4.85,4.036-4.837,6.477.013,3,2.333,5.846,5.2,9.359C41.805,38.834,54.1,45.336,68.7,49.782,73.717,51.308,79.09,52.86,84.7,54.355c15.029,4.011,25,9.63,40.388,13.345,18.825,4.547,41.378,4.73,55.751-8.129,4.15-3.715,6.969-10.6,6.912-16.328-12.847,36.78-66.983,18.245-102.231,6.1C68.224,43.387,30.466,32.477,38.683,16.13Z" transform="translate(-33.846 -16.13)"/><path class="bt" d="M38.683,16.13c-2.371,4.08-4.85,4.036-4.837,6.477.013,3,2.333,5.846,5.2,9.359C41.805,38.834,54.1,45.336,68.7,49.782,73.717,51.308,79.09,52.86,84.7,54.355c15.029,4.011,25,9.63,40.388,13.345,18.825,4.547,41.378,4.73,55.751-8.129,4.15-3.715,6.969-10.6,6.912-16.328-12.487,37.777-67.26,19-102.458,6.8C68.009,44.056,29.728,32.7,38.683,16.13Z" transform="translate(-33.846 -16.13)"/><path class="bu" d="M38.683,16.13c-2.371,4.08-4.85,4.036-4.837,6.477.013,3,2.333,5.846,5.2,9.359C41.805,38.834,54.1,45.336,68.7,49.782,73.717,51.308,79.09,52.86,84.7,54.355c15.029,4.011,25,9.63,40.388,13.345,18.825,4.547,41.378,4.73,55.751-8.129,4.15-3.715,6.969-10.6,6.912-16.328-12.128,38.779-67.538,19.765-102.685,7.5C67.795,44.724,29,32.918,38.683,16.13Z" transform="translate(-33.846 -16.13)"/><path class="bv" d="M38.683,16.13c-2.371,4.08-4.85,4.036-4.837,6.477.013,3,2.333,5.846,5.2,9.359C41.805,38.834,54.1,45.336,68.7,49.782,73.717,51.308,79.09,52.86,84.7,54.355c15.029,4.011,25,9.63,40.388,13.345,18.825,4.547,41.378,4.73,55.751-8.129,4.15-3.715,6.969-10.6,6.912-16.328-11.775,39.782-67.809,20.522-102.905,8.2C67.574,45.386,28.258,33.139,38.683,16.13Z" transform="translate(-33.846 -16.13)"/><path class="bw" d="M38.683,16.13c-2.371,4.08-4.85,4.036-4.837,6.477.013,3,2.333,5.846,5.2,9.359C41.805,38.834,54.1,45.336,68.7,49.782,73.717,51.308,79.09,52.86,84.7,54.355c15.029,4.011,25,9.63,40.388,13.345,18.825,4.547,41.378,4.73,55.751-8.129,4.15-3.715,6.969-10.6,6.912-16.328-11.415,40.779-68.086,21.279-103.132,8.9C67.359,46.061,27.527,33.36,38.683,16.13Z" transform="translate(-33.846 -16.13)"/><path class="bx" d="M38.683,16.13c-2.371,4.08-4.85,4.036-4.837,6.477.013,3,2.333,5.846,5.2,9.359C41.805,38.834,54.1,45.336,68.7,49.782,73.717,51.308,79.09,52.86,84.7,54.355c15.029,4.011,25,9.63,40.388,13.345,18.825,4.547,41.378,4.73,55.751-8.129,4.15-3.715,6.969-10.6,6.912-16.328-11.056,41.781-68.364,22.035-103.359,9.611C67.145,46.724,26.789,33.58,38.683,16.13Z" transform="translate(-33.846 -16.13)"/></g><g transform="translate(32.116 22.456)"><path class="b" d="M43.563,27.365c-2.4-1.867-3.6-3.122-4.131-4.383-1.022-2.434-3.866-4.03-7.316-6.464a10.135,10.135,0,0,0,.561-1.2c6.735,4.44,9.939,6.029,13.421,9.189Z" transform="translate(-32.116 -15.319)"/><path class="c" d="M43.563,27.343c-2.4-1.867-3.6-3.122-4.131-4.383-1.022-2.434-3.866-4.03-7.316-6.464a10.7,10.7,0,0,0,.549-1.173c6.792,4.465,9.851,6.067,13.37,9.233Z" transform="translate(-32.116 -15.298)"/><path class="d" d="M43.563,27.328c-2.4-1.867-3.6-3.122-4.131-4.383-1.022-2.434-3.866-4.03-7.316-6.464a9.4,9.4,0,0,0,.542-1.154c6.849,4.5,9.756,6.1,13.32,9.277Z" transform="translate(-32.116 -15.282)"/><path class="e" d="M43.563,27.312c-2.4-1.867-3.6-3.122-4.131-4.383-1.022-2.434-3.866-4.03-7.316-6.464a10.628,10.628,0,0,0,.536-1.135c6.9,4.522,9.662,6.149,13.263,9.328Z" transform="translate(-32.116 -15.266)"/><path class="f" d="M43.563,27.3c-2.4-1.867-3.6-3.122-4.131-4.383-1.022-2.434-3.866-4.03-7.316-6.464a9.754,9.754,0,0,0,.523-1.116c6.956,4.553,9.567,6.193,13.219,9.378Z" transform="translate(-32.116 -15.25)"/><path class="g" d="M43.563,27.274c-2.4-1.867-3.6-3.122-4.131-4.383-1.022-2.434-3.866-4.03-7.316-6.464a9.815,9.815,0,0,0,.517-1.091c7.013,4.579,9.473,6.225,13.162,9.422Z" transform="translate(-32.116 -15.229)"/><path class="h" d="M43.563,27.259c-2.4-1.867-3.6-3.122-4.131-4.383-1.022-2.434-3.866-4.03-7.316-6.464a8.938,8.938,0,0,0,.5-1.072c7.07,4.61,9.384,6.269,13.118,9.466Z" transform="translate(-32.116 -15.213)"/><path class="i" d="M43.563,27.243c-2.4-1.867-3.6-3.122-4.131-4.383-1.022-2.434-3.866-4.03-7.316-6.464a9.148,9.148,0,0,0,.5-1.053,104.067,104.067,0,0,1,13.061,9.517Z" transform="translate(-32.116 -15.197)"/><path class="j" d="M43.563,27.227c-2.4-1.867-3.6-3.122-4.131-4.383-1.022-2.434-3.866-4.03-7.316-6.464a9.958,9.958,0,0,0,.492-1.034,103.4,103.4,0,0,1,13.011,9.567Z" transform="translate(-32.116 -15.181)"/><path class="k" d="M43.563,27.205c-2.4-1.867-3.6-3.122-4.131-4.383-1.022-2.434-3.866-4.03-7.316-6.464a10.106,10.106,0,0,0,.479-1.009,101.872,101.872,0,0,1,12.96,9.611Z" transform="translate(-32.116 -15.16)"/><path class="l" d="M43.563,27.19c-2.4-1.867-3.6-3.122-4.131-4.383-1.022-2.434-3.866-4.03-7.316-6.464a9.721,9.721,0,0,0,.473-.99A101.889,101.889,0,0,1,45.5,25.007Z" transform="translate(-32.116 -15.144)"/><path class="m" d="M43.563,27.174c-2.4-1.867-3.6-3.122-4.131-4.383-1.022-2.434-3.866-4.03-7.316-6.464a10.054,10.054,0,0,0,.467-.971,101.328,101.328,0,0,1,12.859,9.706Z" transform="translate(-32.116 -15.128)"/><path class="n" d="M43.563,27.158c-2.4-1.867-3.6-3.122-4.131-4.383-1.022-2.434-3.866-4.03-7.316-6.464.151-.29.309-.593.46-.952,7.391,4.787,8.817,6.515,12.8,9.756Z" transform="translate(-32.116 -15.112)"/><path class="o" d="M43.563,27.142c-2.4-1.867-3.6-3.122-4.131-4.383-1.022-2.434-3.866-4.03-7.316-6.464.145-.277.3-.58.448-.933,7.448,4.812,8.728,6.553,12.758,9.807Z" transform="translate(-32.116 -15.096)"/><path class="p" d="M43.563,27.121c-2.4-1.867-3.6-3.122-4.131-4.383-1.022-2.434-3.866-4.03-7.316-6.464a9.431,9.431,0,0,0,.441-.908c7.5,4.837,8.634,6.59,12.7,9.845Z" transform="translate(-32.116 -15.075)"/><path class="q" d="M43.563,27.1c-2.4-1.867-3.6-3.122-4.131-4.383-1.022-2.434-3.866-4.03-7.316-6.464a9.818,9.818,0,0,0,.429-.889C40.107,20.237,41.09,22,45.2,25.263Z" transform="translate(-32.116 -15.059)"/><path class="r" d="M43.563,27.089c-2.4-1.867-3.6-3.122-4.131-4.383-1.022-2.434-3.866-4.03-7.316-6.464.132-.252.29-.549.423-.87,7.612,4.9,8.451,6.672,12.6,9.946Z" transform="translate(-32.116 -15.043)"/><path class="s" d="M43.563,27.073c-2.4-1.867-3.6-3.122-4.131-4.383-1.022-2.434-3.866-4.03-7.316-6.464.126-.246.284-.536.41-.851,7.675,4.925,8.356,6.717,12.55,9.99Z" transform="translate(-32.116 -15.027)"/><path class="t" d="M43.563,27.052c-2.4-1.867-3.6-3.122-4.131-4.383-1.022-2.434-3.866-4.03-7.316-6.464.126-.24.277-.523.4-.826,7.726,4.951,8.262,6.748,12.5,10.034Z" transform="translate(-32.116 -15.006)"/><path class="u" d="M43.563,27.036c-2.4-1.867-3.6-3.122-4.131-4.383-1.022-2.434-3.866-4.03-7.316-6.464.12-.227.271-.511.4-.807,7.776,4.982,8.167,6.792,12.449,10.084Z" transform="translate(-32.116 -14.99)"/><path class="v" d="M43.563,27.02c-2.4-1.867-3.6-3.122-4.131-4.383-1.022-2.434-3.866-4.03-7.316-6.464.113-.221.265-.5.385-.788C40.334,20.4,40.58,22.22,44.9,25.519Z" transform="translate(-32.116 -14.974)"/><path class="w" d="M43.563,27c-2.4-1.867-3.6-3.122-4.131-4.383-1.022-2.434-3.866-4.03-7.316-6.464.113-.214.259-.492.378-.769,7.883,5.039,7.978,6.874,12.348,10.179Z" transform="translate(-32.116 -14.958)"/><path class="x" d="M43.563,26.983c-2.4-1.867-3.6-3.122-4.131-4.383-1.022-2.434-3.866-4.03-7.316-6.464.107-.2.252-.479.372-.744,7.94,5.064,7.883,6.912,12.292,10.223Z" transform="translate(-32.116 -14.937)"/><path class="y" d="M43.563,26.967c-2.4-1.867-3.6-3.122-4.131-4.383-1.022-2.434-3.866-4.03-7.316-6.464.1-.2.246-.467.359-.725,8,5.1,7.795,6.956,12.247,10.274Z" transform="translate(-32.116 -14.921)"/><path class="z" d="M43.563,26.951c-2.4-1.867-3.6-3.122-4.131-4.383-1.022-2.434-3.866-4.03-7.316-6.464.095-.189.24-.46.353-.706,8.047,5.127,7.7,6.994,12.2,10.318Z" transform="translate(-32.116 -14.905)"/><path class="aa" d="M43.563,26.935c-2.4-1.867-3.6-3.122-4.131-4.383-1.022-2.434-3.866-4.03-7.316-6.464.095-.183.233-.441.341-.687,8.11,5.159,7.612,7.038,12.147,10.368Z" transform="translate(-32.116 -14.889)"/><path class="ab" d="M43.563,26.919c-2.4-1.867-3.6-3.122-4.131-4.383-1.022-2.434-3.866-4.03-7.316-6.464.088-.17.227-.435.334-.669,8.161,5.19,7.518,7.076,12.1,10.419Z" transform="translate(-32.116 -14.873)"/><path class="ac" d="M43.563,26.9c-2.4-1.867-3.6-3.122-4.131-4.383-1.022-2.434-3.866-4.03-7.316-6.464.082-.164.221-.423.328-.643,8.211,5.209,7.423,7.114,12.039,10.456Z" transform="translate(-32.116 -14.852)"/><path class="ad" d="M43.563,26.882c-2.4-1.867-3.6-3.122-4.131-4.383-1.022-2.434-3.866-4.03-7.316-6.464.082-.151.214-.41.315-.624,8.274,5.241,7.328,7.158,11.989,10.507Z" transform="translate(-32.116 -14.836)"/><path class="ae" d="M43.563,26.866c-2.4-1.867-3.6-3.122-4.131-4.383-1.022-2.434-3.866-4.03-7.316-6.464.076-.145.208-.4.309-.605,8.325,5.272,7.234,7.2,11.938,10.557Z" transform="translate(-32.116 -14.82)"/><path class="af" d="M43.563,26.845c-2.4-1.867-3.6-3.122-4.131-4.383-1.022-2.434-3.866-4.03-7.316-6.464.069-.139.208-.391.3-.58,8.375,5.3,7.139,7.234,11.888,10.6Z" transform="translate(-32.116 -14.799)"/><path class="ag" d="M43.563,26.829c-2.4-1.867-3.6-3.122-4.131-4.383-1.022-2.434-3.866-4.03-7.316-6.464.069-.126.2-.378.29-.561,8.438,5.329,7.051,7.278,11.838,10.646Z" transform="translate(-32.116 -14.783)"/><path class="ah" d="M43.563,26.813c-2.4-1.867-3.6-3.122-4.131-4.383C38.41,20,35.566,18.4,32.116,15.965c.063-.12.2-.366.284-.542,8.489,5.361,6.956,7.316,11.787,10.7Z" transform="translate(-32.116 -14.767)"/><path class="ai" d="M43.563,26.8c-2.4-1.867-3.6-3.122-4.131-4.383-1.022-2.434-3.866-4.03-7.316-6.464.057-.107.189-.353.277-.523,8.539,5.386,6.862,7.36,11.737,10.747Z" transform="translate(-32.116 -14.751)"/><path class="aj" d="M43.563,26.781c-2.4-1.867-3.6-3.122-4.131-4.383-1.022-2.434-3.866-4.03-7.316-6.464.05-.1.183-.341.265-.5,8.6,5.417,6.773,7.4,11.686,10.8Z" transform="translate(-32.116 -14.735)"/><path class="ak" d="M43.563,26.76c-2.4-1.867-3.6-3.122-4.131-4.383-1.022-2.434-3.866-4.03-7.316-6.464.05-.095.177-.328.259-.479,8.653,5.436,6.672,7.436,11.636,10.835Z" transform="translate(-32.116 -14.714)"/><path class="al" d="M43.563,26.749c-2.4-1.867-3.6-3.122-4.131-4.383-1.022-2.434-3.866-4.03-7.316-6.464.044-.082.17-.322.246-.467,8.709,5.474,6.584,7.486,11.585,10.892Z" transform="translate(-32.116 -14.703)"/></g><path class="by" d="M37.215,27.438c-2.371,4.08-2.914,3.134-3.3,5.544-1.028,6.464,6.363,13.414,9.611,15C37.594,42,35.109,34.35,36.767,33.227c.87-.6,6.408,4.251,12.72,4.5-7.675-6.01-8.382-18.258.032-23.568a35.8,35.8,0,0,0-5.026,1.438C39.914,17.316,36.067,22.02,37.215,27.438Z" transform="translate(9.04 0.965)"/><path class="bz" d="M37.221,27.448c-2.371,4.08-2.914,3.134-3.292,5.544-1.034,6.471,6.357,13.421,9.6,15.01C37.6,42.01,35.121,34.361,36.773,33.238c.87-.593,6.414,4.251,12.727,4.5-7.681-6.01-8.388-18.264.025-23.568A35.437,35.437,0,0,0,44.5,15.6C39.926,17.326,36.079,22.031,37.221,27.448Z" transform="translate(9.098 1.056)"/><g transform="translate(34.046 17.877)"><path class="ca" d="M46.877,16.737c-1.589,1.69-1.678,1.993-2.724,5.581-4.932-2.775-6.767-4.352-11.73-5.966l.921-1.76C39.025,16.075,40.848,17.2,46.877,16.737Z" transform="translate(-32.422 -14.593)"/><path class="cb" d="M46.807,16.82c-1.539,1.652-1.633,1.968-2.655,5.462-4.932-2.775-6.735-4.364-11.73-5.966L33.33,14.6C39,16.076,40.848,17.224,46.807,16.82Z" transform="translate(-32.422 -14.556)"/><path class="cc" d="M46.738,16.92c-1.5,1.608-1.589,1.93-2.586,5.335-4.932-2.775-6.7-4.377-11.73-5.966l.883-1.684C38.981,16.093,40.848,17.254,46.738,16.92Z" transform="translate(-32.422 -14.529)"/><path class="cd" d="M46.669,17c-1.457,1.577-1.551,1.9-2.516,5.216-4.932-2.775-6.666-4.383-11.73-5.966l.864-1.64C38.962,16.094,40.854,17.273,46.669,17Z" transform="translate(-32.422 -14.492)"/><path class="ce" d="M46.6,17.09c-1.413,1.539-1.514,1.879-2.447,5.1-4.932-2.775-6.628-4.389-11.73-5.966l.839-1.6C38.943,16.1,40.854,17.3,46.6,17.09Z" transform="translate(-32.422 -14.46)"/><path class="cf" d="M46.53,17.178c-1.369,1.507-1.469,1.848-2.378,4.976-4.932-2.775-6.6-4.4-11.73-5.966l.82-1.564C38.918,16.106,40.854,17.323,46.53,17.178Z" transform="translate(-32.422 -14.429)"/><path class="cg" d="M46.461,17.272c-1.324,1.463-1.432,1.81-2.308,4.85-4.932-2.775-6.559-4.415-11.73-5.966l.795-1.526C38.9,16.118,40.854,17.348,46.461,17.272Z" transform="translate(-32.422 -14.397)"/><path class="ch" d="M46.385,17.355c-1.274,1.432-1.381,1.785-2.233,4.73-4.932-2.775-6.521-4.421-11.73-5.966l.776-1.482C38.874,16.119,40.854,17.368,46.385,17.355Z" transform="translate(-32.422 -14.36)"/><path class="ci" d="M46.316,17.443c-1.236,1.4-1.343,1.76-2.163,4.61-4.932-2.775-6.49-4.434-11.73-5.966l.757-1.444C38.855,16.125,40.86,17.393,46.316,17.443Z" transform="translate(-32.422 -14.328)"/><path class="cj" d="M46.246,17.531c-1.192,1.362-1.305,1.728-2.094,4.49-4.932-2.775-6.452-4.44-11.73-5.966l.738-1.406C38.836,16.131,40.86,17.418,46.246,17.531Z" transform="translate(-32.422 -14.296)"/><path class="ck" d="M46.177,17.625c-1.148,1.318-1.261,1.7-2.024,4.364-4.932-2.775-6.42-4.452-11.73-5.966l.713-1.369C38.817,16.137,40.86,17.449,46.177,17.625Z" transform="translate(-32.422 -14.264)"/><path class="cl" d="M46.107,17.708c-1.1,1.287-1.217,1.665-1.955,4.244-4.932-2.775-6.382-4.465-11.73-5.966l.694-1.324C38.792,16.138,40.86,17.462,46.107,17.708Z" transform="translate(-32.422 -14.227)"/><path class="cm" d="M46.038,17.8c-1.06,1.249-1.179,1.64-1.886,4.125-4.932-2.775-6.351-4.471-11.73-5.966l.669-1.293C38.773,16.155,40.86,17.5,46.038,17.8Z" transform="translate(-32.422 -14.2)"/><path class="cn" d="M45.969,17.89c-1.022,1.211-1.141,1.608-1.816,4-4.932-2.775-6.313-4.484-11.73-5.966l.65-1.249C38.748,16.156,40.867,17.512,45.969,17.89Z" transform="translate(-32.422 -14.163)"/><path class="co" d="M45.9,17.978c-.978,1.173-1.1,1.577-1.747,3.879-4.932-2.775-6.275-4.49-11.73-5.966l.631-1.211C38.729,16.162,40.867,17.543,45.9,17.978Z" transform="translate(-32.422 -14.131)"/><path class="cp" d="M45.824,18.066c-.927,1.142-1.053,1.551-1.671,3.759-4.932-2.775-6.244-4.5-11.73-5.966l.612-1.173C38.71,16.168,40.867,17.568,45.824,18.066Z" transform="translate(-32.422 -14.099)"/><path class="cq" d="M45.761,18.154c-.889,1.1-1.015,1.52-1.608,3.639-4.932-2.775-6.212-4.509-11.73-5.966l.587-1.135C38.691,16.18,40.867,17.593,45.761,18.154Z" transform="translate(-32.422 -14.068)"/><path class="cr" d="M45.685,18.243c-.839,1.066-.971,1.488-1.533,3.513-4.932-2.775-6.174-4.522-11.73-5.966L32.99,14.7C38.666,16.181,40.867,17.613,45.685,18.243Z" transform="translate(-32.422 -14.03)"/><path class="cs" d="M45.615,18.331a7.6,7.6,0,0,0-1.463,3.393c-4.932-2.775-6.136-4.528-11.73-5.966l.542-1.053C38.647,16.187,40.873,17.638,45.615,18.331Z" transform="translate(-32.422 -13.999)"/><path class="ct" d="M45.546,18.419a7.447,7.447,0,0,0-1.394,3.273c-4.932-2.775-6.1-4.541-11.73-5.966l.523-1.015C38.621,16.193,40.873,17.663,45.546,18.419Z" transform="translate(-32.422 -13.967)"/><path class="cu" d="M45.477,18.507a7.448,7.448,0,0,0-1.324,3.153c-4.932-2.775-6.067-4.547-11.73-5.966l.5-.978C38.6,16.2,40.873,17.694,45.477,18.507Z" transform="translate(-32.422 -13.935)"/><path class="cv" d="M45.407,18.6a7.278,7.278,0,0,0-1.255,3.027c-4.932-2.775-6.029-4.56-11.73-5.966l.486-.933C38.584,16.2,40.873,17.707,45.407,18.6Z" transform="translate(-32.422 -13.898)"/><path class="cw" d="M45.338,18.69A7.264,7.264,0,0,0,44.152,21.6c-4.932-2.775-6-4.572-11.73-5.966l.46-.9C38.565,16.217,40.879,17.744,45.338,18.69Z" transform="translate(-32.422 -13.871)"/><path class="cx" d="M45.269,18.779a7.252,7.252,0,0,0-1.116,2.781c-4.932-2.775-5.96-4.579-11.73-5.966l.441-.858C38.539,16.218,40.879,17.763,45.269,18.779Z" transform="translate(-32.422 -13.834)"/><path class="cy" d="M45.2,18.86a7.217,7.217,0,0,0-1.047,2.668c-4.932-2.775-5.928-4.591-11.73-5.966l.416-.82C38.521,16.224,40.879,17.788,45.2,18.86Z" transform="translate(-32.422 -13.802)"/><path class="cz" d="M45.13,18.955a7.264,7.264,0,0,0-.978,2.542c-4.932-2.775-5.89-4.6-11.73-5.966l.4-.782C38.5,16.23,40.879,17.813,45.13,18.955Z" transform="translate(-32.422 -13.77)"/><path class="da" d="M45.06,19.043a7.32,7.32,0,0,0-.908,2.422c-4.932-2.775-5.859-4.61-11.73-5.966l.378-.744C38.476,16.242,40.879,17.838,45.06,19.043Z" transform="translate(-32.422 -13.739)"/><path class="db" d="M44.991,19.132a7.48,7.48,0,0,0-.839,2.3c-4.932-2.775-5.821-4.623-11.73-5.966l.359-.7C38.457,16.243,40.885,17.858,44.991,19.132Z" transform="translate(-32.422 -13.701)"/><path class="dc" d="M44.915,19.219a7.881,7.881,0,0,0-.763,2.176c-4.932-2.775-5.79-4.629-11.73-5.966l.334-.662C38.439,16.249,40.885,17.882,44.915,19.219Z" transform="translate(-32.422 -13.67)"/><path class="dd" d="M44.846,19.307a8.22,8.22,0,0,0-.694,2.056c-4.932-2.775-5.752-4.642-11.73-5.966l.315-.624C38.413,16.255,40.885,17.907,44.846,19.307Z" transform="translate(-32.422 -13.638)"/><path class="de" d="M44.777,19.4a8.735,8.735,0,0,0-.624,1.936c-4.932-2.775-5.714-4.648-11.73-5.966l.29-.587C38.394,16.267,40.885,17.932,44.777,19.4Z" transform="translate(-32.422 -13.606)"/><path class="df" d="M44.707,19.49a9.947,9.947,0,0,0-.555,1.81c-4.932-2.775-5.682-4.654-11.73-5.966l.271-.549C38.369,16.267,40.885,17.957,44.707,19.49Z" transform="translate(-32.422 -13.574)"/><path class="dg" d="M44.638,19.572a11.526,11.526,0,0,0-.486,1.69c-4.932-2.775-5.644-4.667-11.73-5.966l.252-.5C38.35,16.274,40.892,17.977,44.638,19.572Z" transform="translate(-32.422 -13.537)"/><path class="dh" d="M44.569,19.66a14.176,14.176,0,0,0-.416,1.57c-4.932-2.775-5.613-4.68-11.73-5.966l.233-.467C38.325,16.28,40.892,18.008,44.569,19.66Z" transform="translate(-32.422 -13.505)"/><path class="di" d="M44.5,19.748c-.1.448-.271.99-.347,1.451-4.932-2.775-5.575-4.686-11.73-5.966l.208-.429C38.306,16.286,40.892,18.027,44.5,19.748Z" transform="translate(-32.422 -13.473)"/><path class="dj" d="M44.43,19.843c-.063.4-.233.952-.277,1.324-4.932-2.775-5.544-4.7-11.73-5.966l.189-.391C38.287,16.292,40.892,18.058,44.43,19.843Z" transform="translate(-32.422 -13.441)"/><path class="dk" d="M44.36,19.931c-.013.372-.189.927-.208,1.2-4.932-2.775-5.506-4.7-11.73-5.966l.164-.353C38.268,16.3,40.892,18.077,44.36,19.931Z" transform="translate(-32.422 -13.41)"/></g><g transform="translate(32.892 21.535)"><path class="ca" d="M44.928,22.81c-.851,1.413-1.539,1.413-2.081,2.781-2.586-2.34-3.425-5.865-10.608-9.662l.347-.757C35.254,17.21,40.778,18.333,44.928,22.81Z" transform="translate(-32.239 -15.173)"/><path class="dl" d="M44.923,22.81c-.832,1.375-1.507,1.387-2.037,2.718-2.586-2.34-3.519-5.834-10.646-9.611l.341-.744C35.248,17.21,40.779,18.37,44.923,22.81Z" transform="translate(-32.234 -15.173)"/><path class="dm" d="M44.917,22.81c-.807,1.343-1.469,1.369-1.987,2.661-2.6-2.34-3.614-5.808-10.69-9.573l.334-.725C35.243,17.21,40.78,18.4,44.917,22.81Z" transform="translate(-32.228 -15.173)"/><path class="dn" d="M44.907,22.81c-.788,1.312-1.438,1.343-1.949,2.6-2.586-2.34-3.689-5.79-10.715-9.536l.322-.706C35.232,17.21,40.776,18.44,44.907,22.81Z" transform="translate(-32.218 -15.173)"/><path class="do" d="M44.9,22.81c-.769,1.28-1.406,1.318-1.9,2.548-2.586-2.34-3.784-5.764-10.753-9.5l.315-.687C35.227,17.21,40.777,18.471,44.9,22.81Z" transform="translate(-32.212 -15.173)"/><path class="dp" d="M44.9,22.81c-.75,1.249-1.369,1.293-1.854,2.485-2.592-2.34-3.879-5.733-10.8-9.454l.309-.669C35.222,17.21,40.778,18.509,44.9,22.81Z" transform="translate(-32.207 -15.173)"/><path class="dq" d="M44.885,22.81c-.732,1.217-1.337,1.261-1.816,2.428-2.586-2.34-3.954-5.708-10.822-9.416l.3-.65C35.211,17.21,40.774,18.541,44.885,22.81Z" transform="translate(-32.197 -15.173)"/><path class="dr" d="M44.88,22.81c-.713,1.179-1.305,1.242-1.766,2.371-2.592-2.34-4.055-5.689-10.866-9.378l.29-.631C35.206,17.21,40.775,18.572,44.88,22.81Z" transform="translate(-32.191 -15.173)"/><path class="ds" d="M44.875,22.81c-.694,1.148-1.274,1.217-1.722,2.315-2.592-2.346-4.143-5.657-10.9-9.34l.284-.612C35.2,17.21,40.776,18.61,44.875,22.81Z" transform="translate(-32.186 -15.173)"/><path class="dt" d="M44.864,22.81c-.675,1.11-1.236,1.192-1.684,2.251-2.586-2.333-4.219-5.632-10.929-9.3l.271-.593C35.19,17.21,40.771,18.648,44.864,22.81Z" transform="translate(-32.175 -15.173)"/><path class="du" d="M44.859,22.81c-.656,1.085-1.2,1.167-1.633,2.195-2.592-2.34-4.32-5.607-10.974-9.252l.265-.58C35.185,17.21,40.772,18.679,44.859,22.81Z" transform="translate(-32.17 -15.173)"/><path class="dv" d="M44.854,22.81c-.637,1.047-1.173,1.142-1.589,2.138-2.592-2.34-4.408-5.581-11.011-9.214l.259-.561C35.179,17.21,40.767,18.711,44.854,22.81Z" transform="translate(-32.165 -15.173)"/><path class="dw" d="M44.848,22.81c-.618,1.015-1.142,1.116-1.545,2.075-2.592-2.333-4.49-5.556-11.049-9.17l.252-.542C35.174,17.21,40.768,18.749,44.848,22.81Z" transform="translate(-32.159 -15.173)"/><path class="dx" d="M44.838,22.81c-.6.984-1.1,1.091-1.5,2.024C40.745,22.489,38.752,19.3,32.256,15.7l.24-.523C35.163,17.21,40.764,18.78,44.838,22.81Z" transform="translate(-32.149 -15.173)"/><path class="dy" d="M44.832,22.81c-.574.952-1.072,1.066-1.457,1.961-2.592-2.34-4.673-5.506-11.119-9.094l.233-.5C35.158,17.21,40.765,18.818,44.832,22.81Z" transform="translate(-32.143 -15.173)"/><path class="dz" d="M44.827,22.81c-.555.921-1.041,1.041-1.413,1.9-2.592-2.34-4.755-5.48-11.156-9.056l.227-.486C35.153,17.21,40.766,18.85,44.827,22.81Z" transform="translate(-32.138 -15.173)"/><path class="ea" d="M44.817,22.81c-.536.883-1.009,1.015-1.369,1.848C40.856,22.318,38.6,19.2,32.26,15.64l.214-.467C35.142,17.21,40.761,18.888,44.817,22.81Z" transform="translate(-32.128 -15.173)"/><path class="eb" d="M44.811,22.81c-.517.851-.971,1-1.324,1.785-2.592-2.34-4.938-5.424-11.226-8.974l.208-.448C35.137,17.21,40.762,18.919,44.811,22.81Z" transform="translate(-32.122 -15.173)"/><path class="ec" d="M44.8,22.81c-.5.82-.94.971-1.28,1.728-2.592-2.34-5.02-5.4-11.257-8.937l.2-.429C35.126,17.21,40.758,18.957,44.8,22.81Z" transform="translate(-32.112 -15.173)"/><path class="ed" d="M44.8,22.81c-.479.788-.9.946-1.236,1.671-2.592-2.34-5.115-5.38-11.3-8.9l.189-.41C35.121,17.21,40.753,18.989,44.8,22.81Z" transform="translate(-32.106 -15.173)"/><path class="ee" d="M44.79,22.81c-.46.75-.87.921-1.192,1.614-2.592-2.34-5.2-5.354-11.333-8.861l.183-.391C35.116,17.21,40.754,19.02,44.79,22.81Z" transform="translate(-32.101 -15.173)"/><path class="ef" d="M44.779,22.81c-.441.719-.839.9-1.148,1.551-2.592-2.34-5.285-5.323-11.365-8.81l.17-.378C35.1,17.21,40.749,19.058,44.779,22.81Z" transform="translate(-32.09 -15.173)"/><path class="eg" d="M44.774,22.81c-.423.687-.807.87-1.1,1.495a56.272,56.272,0,0,0-11.4-8.773l.164-.359C35.1,17.21,40.75,19.089,44.774,22.81Z" transform="translate(-32.085 -15.173)"/><path class="eh" d="M44.769,22.81c-.4.656-.769.845-1.06,1.438a57.731,57.731,0,0,0-11.44-8.735l.158-.341C35.094,17.21,40.751,19.127,44.769,22.81Z" transform="translate(-32.08 -15.173)"/><path class="ei" d="M44.758,22.81c-.378.624-.738.82-1.015,1.375a59.7,59.7,0,0,0-11.472-8.691l.145-.322C35.084,17.21,40.747,19.159,44.758,22.81Z" transform="translate(-32.069 -15.173)"/><path class="ej" d="M44.753,22.81c-.366.587-.706.795-.971,1.318a61.575,61.575,0,0,0-11.51-8.653l.139-.3C35.078,17.21,40.748,19.19,44.753,22.81Z" transform="translate(-32.064 -15.173)"/><path class="ek" d="M44.748,22.81c-.341.555-.675.769-.927,1.261a63.478,63.478,0,0,0-11.547-8.615l.132-.284C35.073,17.21,40.749,19.228,44.748,22.81Z" transform="translate(-32.059 -15.173)"/><path class="el" d="M44.742,22.81c-.322.523-.643.744-.883,1.2a65.3,65.3,0,0,0-11.585-8.577l.126-.265C35.068,17.21,40.75,19.26,44.742,22.81Z" transform="translate(-32.053 -15.173)"/><path class="em" d="M44.732,22.81c-.3.492-.605.719-.839,1.148a67.28,67.28,0,0,0-11.617-8.539l.114-.246C35.057,17.21,40.746,19.3,44.732,22.81Z" transform="translate(-32.043 -15.173)"/><path class="en" d="M44.726,22.81c-.284.46-.574.7-.795,1.091a69.818,69.818,0,0,0-11.655-8.5l.107-.227C35.052,17.21,40.747,19.329,44.726,22.81Z" transform="translate(-32.037 -15.173)"/><path class="eo" d="M44.721,22.81c-.265.429-.542.675-.75,1.028a71.358,71.358,0,0,0-11.693-8.451l.1-.214C35.047,17.21,40.748,19.367,44.721,22.81Z" transform="translate(-32.032 -15.173)"/><path class="ep" d="M44.71,22.81c-.246.391-.511.65-.706.971A74.33,74.33,0,0,0,32.28,15.369l.088-.2C35.036,17.21,40.744,19.4,44.71,22.81Z" transform="translate(-32.021 -15.173)"/><path class="eq" d="M44.705,22.81c-.227.359-.473.624-.656.914A77.765,77.765,0,0,0,32.281,15.35l.082-.177C35.031,17.21,40.745,19.436,44.705,22.81Z" transform="translate(-32.016 -15.173)"/><path class="er" d="M44.7,22.81c-.208.322-.441.6-.618.851a79.518,79.518,0,0,0-11.8-8.331l.076-.158C35.025,17.21,40.739,19.468,44.7,22.81Z" transform="translate(-32.011 -15.173)"/><path class="es" d="M44.689,22.81c-.189.3-.4.574-.574.795a82.573,82.573,0,0,0-11.831-8.293l.063-.139C35.015,17.21,40.735,19.5,44.689,22.81Z" transform="translate(-32 -15.173)"/><path class="et" d="M44.684,22.81c-.164.259-.372.549-.523.738a86.256,86.256,0,0,0-11.875-8.255l.057-.12C35.009,17.21,40.736,19.537,44.684,22.81Z" transform="translate(-31.995 -15.173)"/><path class="eu" d="M44.679,22.81a5.787,5.787,0,0,1-.486.681c-2.586-2.34-6.609-4.944-11.907-8.218l.05-.1C35,17.21,40.737,19.569,44.679,22.81Z" transform="translate(-31.99 -15.173)"/></g><path class="am" d="M183.173,42.8c-16.826,22.168-49.015,18.466-68.332,9.523-5.178-2.4-10.2-4.44-15.142-6.244C65.422,33.565,50.147,44.2,34.374,17.6,52.928,40.4,65.447,31.269,99.85,40.414a124.885,124.885,0,0,1,15.571,5.077C147.3,58.76,166.561,48.48,183.173,42.8Z" transform="translate(11.982 19.257)"/><g transform="translate(55.129 14.651)"><path class="ev" d="M176.523,49.314c5.644,25.435-100.566-.542-130.478-14.045C24.893,25.715,40.829,12.824,54.2,14.18c20.3,2.062,35.033,9.145,42.683,9.845C106.652,24.92,167.5,8.643,176.523,49.314Z" transform="translate(-35.765 -14.081)"/><path class="ew" d="M173.9,48.655c5.474,24.861-98.112-.334-127.438-13.521C25.674,25.8,40.91,13.123,54.072,14.271,73.894,16.006,88.273,23,95.923,23.7,105.7,24.6,165.145,8.9,173.9,48.655Z" transform="translate(-33.248 -13.46)"/><path class="ex" d="M171.286,47.987C176.6,72.287,75.621,47.861,46.894,35c-20.434-9.126-5.909-21.581,7.051-20.635,19.336,1.406,33.375,8.306,41.025,9.006C104.745,24.262,162.791,9.158,171.286,47.987Z" transform="translate(-30.73 -12.836)"/><path class="ey" d="M168.668,47.328c5.146,23.732-93.212.082-121.34-12.456-20.08-8.9-6.269-21.146,6.5-20.408,18.851,1.085,32.542,7.89,40.192,8.59C103.792,23.943,160.438,9.418,168.668,47.328Z" transform="translate(-28.219 -12.221)"/><path class="ez" d="M166.057,46.678c4.982,23.158-90.759.29-118.3-11.926C28.043,26.061,41.135,14.034,53.7,14.564c18.352.776,31.716,7.473,39.366,8.173C102.846,23.627,158.092,9.683,166.057,46.678Z" transform="translate(-25.709 -11.609)"/><path class="fa" d="M163.455,46.02c4.812,22.59-88.312.5-115.26-11.4-19.355-8.476-6.988-20.282,5.4-19.954,17.854.46,30.89,7.051,38.534,7.751C101.9,23.31,155.748,9.952,163.455,46.02Z" transform="translate(-23.208 -10.995)"/><path class="fb" d="M160.846,45.371c4.648,22.029-85.859.706-112.208-10.86-19-8.262-7.36-19.847,4.844-19.733,17.356.158,30.057,6.635,37.707,7.328C100.964,23,153.41,10.224,160.846,45.371Z" transform="translate(-20.706 -10.39)"/><path class="fc" d="M158.243,44.729c4.484,21.461-83.386.864-109.168-10.33C30.458,26.32,41.35,14.993,53.364,14.892,70.222,14.753,82.6,21.11,90.252,21.8,100.021,22.7,151.073,10.5,158.243,44.729Z" transform="translate(-18.204 -9.792)"/><path class="fd" d="M155.651,44.1c4.314,20.894-80.933,1.066-106.122-9.8-18.258-7.864-8.11-18.964,3.734-19.279,16.347-.429,28.405,5.8,36.055,6.5C99.093,22.412,148.739,10.8,155.651,44.1Z" transform="translate(-15.713 -9.208)"/><path class="fe" d="M153.067,43.49c4.143,20.326-78.48,1.268-103.082-9.271C32.087,26.556,41.5,15.69,53.17,15.167,69.006,14.448,80.749,20.54,88.4,21.24,98.174,22.135,146.42,11.1,153.067,43.49Z" transform="translate(-13.229 -8.635)"/><path class="ff" d="M150.48,42.89c3.986,19.759-76.027,1.463-100.03-8.735-17.539-7.454-8.886-18.087,2.63-18.832,15.319-.99,26.753,4.957,34.4,5.657C97.259,21.876,144.1,11.426,150.48,42.89Z" transform="translate(-10.75 -8.079)"/><path class="fg" d="M147.907,42.3c3.816,19.191-73.573,1.671-96.99-8.2-17.173-7.24-9.277-17.64,2.081-18.6,14.8-1.255,25.92,4.541,33.57,5.241C96.344,21.622,141.79,11.759,147.907,42.3Z" transform="translate(-8.278 -7.535)"/><path class="fh" d="M145.342,41.723c3.652,18.624-71.12,1.873-93.944-7.669-16.82-7.032-9.681-17.2,1.526-18.384C67.2,14.163,78.019,19.8,85.669,20.5,95.444,21.385,139.49,12.1,145.342,41.723Z" transform="translate(-5.814 -7.001)"/><path class="fi" d="M142.778,41.16c3.488,18.05-68.667,2.075-90.9-7.145C35.427,27.2,41.8,17.27,52.858,15.858,66.6,14.111,77.126,19.566,84.77,20.266,94.545,21.155,137.19,12.452,142.778,41.16Z" transform="translate(-3.357 -6.476)"/><path class="fj" d="M140.227,40.6c3.317,17.488-66.213,2.277-87.858-6.609-16.088-6.609-10.488-16.29.429-17.93,13.212-1.987,23.435,3.286,31.085,3.979C93.659,20.932,134.9,12.809,140.227,40.6Z" transform="translate(-0.907 -5.956)"/><path class="fk" d="M137.681,40.043c3.16,16.921-63.754,2.485-84.805-6.073-15.729-6.4-10.91-15.836-.126-17.709,12.676-2.207,22.609,2.87,30.259,3.563C92.778,20.719,132.629,13.183,137.681,40.043Z" transform="translate(1.532 -5.447)"/><path class="fl" d="M135.152,39.494c2.989,16.353-61.307,2.687-81.766-5.544-15.369-6.187-11.327-15.363-.675-17.482,12.14-2.409,21.777,2.447,29.427,3.147C91.914,20.511,130.359,13.555,135.152,39.494Z" transform="translate(3.96 -4.942)"/><path class="fm" d="M132.632,38.955c2.819,15.786-58.854,2.888-78.719-5.02-15.01-5.972-11.756-14.89-1.23-17.249,11.6-2.6,20.951,2.024,28.6,2.724C91.052,20.306,128.1,13.93,132.632,38.955Z" transform="translate(6.379 -4.441)"/><path class="fn" d="M130.127,38.417c2.655,15.212-56.407,3.1-75.68-4.484C39.8,28.169,42.263,19.522,52.668,16.9c11.062-2.781,20.118,1.608,27.774,2.308C90.212,20.109,125.857,14.319,130.127,38.417Z" transform="translate(8.784 -3.947)"/><path class="fo" d="M127.623,37.884c2.5,14.65-53.953,3.3-72.627-3.948-14.291-5.556-12.62-13.925-2.333-16.807,10.526-2.945,19.292,1.192,26.942,1.892C89.38,19.91,123.625,14.707,127.623,37.884Z" transform="translate(11.18 -3.458)"/><path class="fp" d="M124.9,36.691c2.327,14.083-51.5,3.513-69.587-3.418C41.384,27.931,43,21.625,52.433,16.693c10.381-1.236,18.46.776,26.116,1.476C88.324,19.058,121.169,14.435,124.9,36.691Z" transform="translate(13.8 -2.309)"/><path class="fq" d="M122.4,36.159c2.157,13.515-49.053,3.721-66.541-2.888C42.285,28.15,43.181,22.165,52.42,16.924c9.883-1.413,17.633.353,25.283,1.053C87.479,18.867,118.924,14.824,122.4,36.159Z" transform="translate(16.203 -1.822)"/><path class="fr" d="M119.909,35.654C121.9,48.6,73.3,39.577,56.407,33.3c-13.206-4.913-13.03-10.57-3.992-16.126,9.391-1.57,16.814-.063,24.463.631C86.654,18.7,116.7,15.233,119.909,35.654Z" transform="translate(18.592 -1.354)"/><path class="fs" d="M117.426,35.168c1.829,12.38-44.146,4.131-60.449-1.823-12.853-4.7-13.389-10.034-4.547-15.905,8.9-1.734,15.987-.479,23.631.214C85.836,18.55,114.481,15.668,117.426,35.168Z" transform="translate(20.967 -0.913)"/><path class="ft" d="M114.964,34.709c1.659,11.812-41.7,4.345-57.409-1.293-12.493-4.484-13.742-9.491-5.1-15.678,8.4-1.9,15.155-.9,22.8-.2C85.039,18.432,112.284,16.13,114.964,34.709Z" transform="translate(23.328 -0.498)"/><path class="fu" d="M112.51,34.274c1.5,11.245-39.246,4.553-54.357-.763-12.14-4.263-14.1-8.943-5.651-15.445,7.9-2.069,14.329-1.324,21.979-.624C84.25,18.337,110.1,16.621,112.51,34.274Z" transform="translate(25.675 -0.107)"/><path class="fv" d="M110.075,33.871c1.331,10.671-36.8,4.762-51.317-.233-11.774-4.049-14.448-8.407-6.2-15.224,7.4-2.233,13.5-1.741,21.146-1.041C83.48,18.268,107.924,17.133,110.075,33.871Z" transform="translate(28.009 0.258)"/><path class="fw" d="M107.659,33.485c1.186,10.1-34.352,4.976-48.277.3-11.415-3.834-14.8-7.871-6.748-15,6.912-2.4,12.67-2.157,20.32-1.457C82.728,18.217,105.8,17.668,107.659,33.485Z" transform="translate(30.325 0.6)"/><path class="fx" d="M105.258,33.12c1.015,9.542-31.912,5.19-45.231.832-11.062-3.614-15.161-7.328-7.3-14.77C59.138,16.616,64.561,16.6,72.211,17.3,81.993,18.192,103.669,18.224,105.258,33.12Z" transform="translate(32.624 0.921)"/><path class="fy" d="M102.868,32.771c.851,8.974-29.452,5.4-42.185,1.369-10.7-3.4-15.514-6.792-7.852-14.549,5.916-2.731,11.011-3,18.661-2.3C81.268,18.184,101.544,18.8,102.868,32.771Z" transform="translate(34.907 1.226)"/><path class="fz" d="M100.965,32.583c.681,8.4-27.011,5.613-39.139,1.892C51.476,31.3,44.709,26.869,53.419,20.152c4.862-3.759,10.179-3.412,17.835-2.718C81.029,18.33,99.9,19.528,100.965,32.583Z" transform="translate(36.71 1.376)"/><path class="ga" d="M98.586,32.206c.517,7.839-24.564,5.834-36.1,2.428-9.983-2.952-17.406-6.893-8.955-14.1,4.408-3.765,9.353-3.828,17-3.134C80.31,18.293,97.785,20.072,98.586,32.206Z" transform="translate(38.987 1.709)"/><path class="gb" d="M96.206,31.853c.347,7.272-22.124,6.061-33.053,2.958-9.637-2.731-17.652-6.155-9.51-13.868,3.973-3.778,8.527-4.257,16.177-3.557C79.594,18.282,95.664,20.64,96.206,31.853Z" transform="translate(41.266 2.017)"/><path class="gc" d="M93.814,31.516c.17,6.7-19.67,6.281-30.007,3.494-9.277-2.5-17.835-5.4-10.065-13.648,3.563-3.784,7.707-4.673,15.357-3.973C78.867,18.285,93.518,21.23,93.814,31.516Z" transform="translate(43.551 2.311)"/><path class="gd" d="M91.422,31.2c0,6.136-17.23,6.5-26.967,4.017-8.918-2.27-17.961-4.61-10.614-13.421C57.013,18,60.715,16.7,68.365,17.4,78.14,18.3,91.384,21.826,91.422,31.2Z" transform="translate(45.842 2.591)"/><path class="ge" d="M89.015,30.882c-.164,5.569-14.776,6.729-23.915,4.553-8.564-2.043-18.024-3.816-11.169-13.2,2.8-3.828,6.048-5.506,13.7-4.806C77.4,18.319,89.248,22.431,89.015,30.882Z" transform="translate(48.142 2.863)"/><path class="gf" d="M86.605,30.572c-.328,5-12.336,6.963-20.869,5.083-8.218-1.8-18.005-3.008-11.724-12.966,2.447-3.885,5.216-5.928,12.866-5.228C76.653,18.35,87.1,23.042,86.605,30.572Z" transform="translate(50.451 3.129)"/></g><path class="gg" d="M160.124,47.669c-18.453-27.6-38.18-19-80.807-20.08-11.037-.277-22.962-11.737-40.791-13.421C57.749,13.9,75.1,23.5,80.125,23.962,89.894,24.851,150.317,9.438,160.124,47.669Z" transform="translate(34.016 0.998)"/><g transform="translate(125.633 21.193)"><path class="gh" d="M47.087,25.634c-1.766,8.93,13.042,19.387,33.078,23.36s37.714-.05,39.486-8.987S106.609,20.62,86.573,16.647,48.859,16.7,47.087,25.634Z" transform="translate(-46.944 -15.119)"/><path class="gi" d="M47.229,25.44C45.5,34.149,59.943,44.347,79.481,48.22s36.768-.05,38.5-8.76S105.263,20.552,85.725,16.68,48.951,16.737,47.229,25.44Z" transform="translate(-46.178 -14.748)"/><path class="gj" d="M47.37,25.248C45.686,33.737,59.756,43.67,78.79,47.441s35.834-.05,37.512-8.533-12.386-18.428-31.42-22.2S49.048,16.766,47.37,25.248Z" transform="translate(-45.411 -14.374)"/><path class="gk" d="M47.511,25.053C45.871,33.321,59.569,42.989,78.1,46.666s34.888-.05,36.528-8.312-12.065-17.936-30.6-21.607S49.144,16.791,47.511,25.053Z" transform="translate(-44.644 -14.002)"/><path class="gl" d="M47.65,24.863C46.061,32.9,59.387,42.314,77.424,45.89s33.942-.05,35.538-8.085S101.225,20.348,83.188,16.778,49.246,16.822,47.65,24.863Z" transform="translate(-43.881 -13.629)"/><path class="gm" d="M47.791,24.667C46.246,32.481,59.2,41.638,76.732,45.113s33-.044,34.554-7.864S99.878,20.278,82.345,16.809,49.336,16.853,47.791,24.667Z" transform="translate(-43.114 -13.257)"/><path class="gn" d="M47.933,24.477c-1.507,7.593,11.081,16.479,28.115,19.853s32.063-.038,33.564-7.637S98.531,20.214,81.5,16.84,49.434,16.884,47.933,24.477Z" transform="translate(-42.347 -12.884)"/><path class="go" d="M48.072,24.282c-1.457,7.372,10.759,16,27.3,19.279s31.117-.044,32.574-7.417-10.753-16-27.289-19.273S49.535,16.915,48.072,24.282Z" transform="translate(-41.585 -12.512)"/><path class="gp" d="M48.213,24.095C46.8,31.24,58.651,39.609,74.682,42.781s30.171-.038,31.59-7.183S95.841,20.078,79.809,16.905,49.632,16.943,48.213,24.095Z" transform="translate(-40.818 -12.142)"/><path class="gq" d="M48.354,23.9c-1.369,6.925,10.1,15.029,25.636,18.113s29.238-.044,30.606-6.969S94.487,20.014,78.96,16.936,49.723,16.974,48.354,23.9Z" transform="translate(-40.051 -11.77)"/><path class="gr" d="M48.494,23.709c-1.324,6.7,9.788,14.543,24.817,17.52s28.292-.038,29.616-6.735-9.782-14.549-24.81-17.526S49.825,17.005,48.494,23.709Z" transform="translate(-39.289 -11.397)"/><path class="gs" d="M48.635,23.513c-1.28,6.477,9.454,14.064,23.99,16.94s27.346-.038,28.632-6.515S91.8,19.881,77.267,17,49.922,17.036,48.635,23.513Z" transform="translate(-38.521 -11.024)"/><path class="gt" d="M48.776,23.32C47.54,29.576,57.908,36.9,71.934,39.679s26.406-.038,27.648-6.288S90.45,19.813,76.424,17.032,50.019,17.07,48.776,23.32Z" transform="translate(-37.754 -10.654)"/><path class="gu" d="M48.917,23.13c-1.192,6.029,8.8,13.093,22.332,15.773s25.466-.038,26.658-6.067S89.1,19.743,75.575,17.063,50.109,17.1,48.917,23.13Z" transform="translate(-36.987 -10.281)"/><path class="gv" d="M49.059,22.94c-1.154,5.8,8.476,12.607,21.506,15.186s24.52-.032,25.674-5.84S87.756,19.673,74.727,17.094,50.207,17.132,49.059,22.94Z" transform="translate(-36.221 -9.909)"/><path class="gw" d="M49.2,22.744c-1.1,5.588,8.154,12.121,20.679,14.606s23.581-.032,24.684-5.619S86.414,19.61,73.889,17.125,50.3,17.163,49.2,22.744Z" transform="translate(-35.458 -9.536)"/><path class="gx" d="M49.339,22.552c-1.06,5.361,7.827,11.636,19.853,14.02s22.635-.032,23.7-5.392S85.066,19.544,73.039,17.16,50.4,17.192,49.339,22.552Z" transform="translate(-34.691 -9.162)"/><path class="gy" d="M49.481,22.359c-1.022,5.134,7.5,11.156,19.027,13.439s21.695-.032,22.71-5.165-7.5-11.156-19.027-13.439S50.5,17.219,49.481,22.359Z" transform="translate(-33.925 -8.792)"/><path class="gz" d="M49.62,22.163c-.971,4.919,7.177,10.671,18.207,12.859s20.749-.032,21.72-4.944S82.377,19.407,71.353,17.225,50.6,17.251,49.62,22.163Z" transform="translate(-33.162 -8.42)"/><path class="ha" d="M49.761,21.974c-.927,4.692,6.849,10.185,17.375,12.273s19.809-.032,20.743-4.724S81.029,19.338,70.5,17.256,50.694,17.282,49.761,21.974Z" transform="translate(-32.395 -8.047)"/><path class="hb" d="M49.9,21.778c-.883,4.471,6.521,9.706,16.549,11.686s18.869-.019,19.752-4.49-6.521-9.706-16.549-11.686S50.791,17.313,49.9,21.778Z" transform="translate(-31.628 -7.674)"/><path class="hc" d="M50.042,21.588c-.839,4.244,6.2,9.214,15.729,11.1s17.923-.019,18.762-4.27S78.34,19.2,68.817,17.318,50.887,17.344,50.042,21.588Z" transform="translate(-30.866 -7.302)"/><path class="hd" d="M50.183,21.4c-.795,4.017,5.878,8.728,14.9,10.519s16.984-.025,17.785-4.049-5.878-8.735-14.9-10.519S50.984,17.371,50.183,21.4Z" transform="translate(-30.099 -6.932)"/><path class="he" d="M50.324,21.205c-.75,3.8,5.544,8.243,14.07,9.939s16.038-.025,16.795-3.822-5.544-8.249-14.07-9.939S51.081,17.4,50.324,21.205Z" transform="translate(-29.331 -6.56)"/><path class="hf" d="M50.465,21.009c-.706,3.576,5.222,7.763,13.244,9.353s15.1-.019,15.8-3.595S74.292,19,66.27,17.415,51.171,17.434,50.465,21.009Z" transform="translate(-28.564 -6.187)"/><path class="hg" d="M50.607,20.82c-.669,3.349,4.894,7.278,12.411,8.766s14.158-.019,14.821-3.368-4.894-7.284-12.411-8.773S51.269,17.465,50.607,20.82Z" transform="translate(-27.798 -5.814)"/><path class="hh" d="M50.746,20.624c-.618,3.134,4.572,6.8,11.592,8.186s13.212-.019,13.83-3.147S71.6,18.871,64.583,17.477,51.37,17.5,50.746,20.624Z" transform="translate(-27.035 -5.442)"/><path class="hi" d="M50.887,20.434c-.574,2.907,4.244,6.307,10.765,7.6s12.273-.019,12.847-2.926-4.244-6.307-10.765-7.6S51.467,17.527,50.887,20.434Z" transform="translate(-26.268 -5.069)"/><path class="hj" d="M51.029,20.24c-.536,2.687,3.916,5.827,9.933,7.019s11.333-.019,11.863-2.7-3.916-5.821-9.933-7.019S51.559,17.56,51.029,20.24Z" transform="translate(-25.502 -4.699)"/><path class="hk" d="M51.168,20.051c-.486,2.46,3.595,5.335,9.113,6.433s10.387-.013,10.873-2.472-3.589-5.342-9.107-6.439S51.66,17.591,51.168,20.051Z" transform="translate(-24.739 -4.326)"/><path class="hl" d="M51.309,19.853c-.441,2.239,3.267,4.856,8.287,5.853s9.441-.013,9.889-2.251S66.218,18.6,61.2,17.607,51.757,17.62,51.309,19.853Z" transform="translate(-23.972 -3.952)"/><path class="hm" d="M51.45,19.663c-.4,2.012,2.939,4.37,7.461,5.266s8.5-.013,8.9-2.024-2.939-4.377-7.454-5.266S51.847,17.651,51.45,19.663Z" transform="translate(-23.205 -3.579)"/><path class="hn" d="M51.592,19.47c-.359,1.791,2.611,3.891,6.628,4.68s7.562-.006,7.915-1.8-2.611-3.885-6.628-4.68S51.945,17.679,51.592,19.47Z" transform="translate(-22.438 -3.21)"/><path class="ho" d="M51.733,19.28c-.315,1.564,2.283,3.4,5.8,4.1s6.616-.013,6.931-1.577-2.289-3.406-5.808-4.1S52.042,17.71,51.733,19.28Z" transform="translate(-21.671 -2.837)"/><path class="hp" d="M51.872,19.084c-.265,1.343,1.961,2.92,4.982,3.513s5.676-.006,5.941-1.35-1.968-2.92-4.982-3.513S52.143,17.741,51.872,19.084Z" transform="translate(-20.909 -2.464)"/><path class="hq" d="M52.013,18.894c-.221,1.116,1.633,2.428,4.15,2.933S60.9,21.821,61.12,20.7s-1.64-2.434-4.15-2.933S52.234,17.772,52.013,18.894Z" transform="translate(-20.141 -2.092)"/><path class="hr" d="M52.155,18.7c-.183.9,1.312,1.949,3.324,2.352s3.79-.006,3.967-.9S58.133,18.2,56.122,17.8,52.331,17.805,52.155,18.7Z" transform="translate(-19.375 -1.722)"/></g></g></svg>