<svg height="127.657" viewBox="0 0 76.247 127.657" width="76.247" xmlns="http://www.w3.org/2000/svg"><path d="m290.163 246.367-73.342 3.006s3.319 21.071 6.914 30.058c3.033 7.583 8.616 17.5 11.031 20.467l-1.412 42.655s4.236 10.118 25.249 8.717c18.035-1.2 20.44-8.416 20.44-8.416l-4.23-43.147a69.736 69.736 0 0 0 9.941-21.178 165.352 165.352 0 0 0 5.409-32.162z" fill="#ba7536" transform="translate(-215.095 -223.747)"/><path d="m472.669 246.921-.915.037c-.1 1.214-.231 2.658-.4 4.289l.49-.02a165.335 165.335 0 0 1 -5.411 32.162 70.73 70.73 0 0 1 -9.582 20.676c3.226 36.667 3.685 42.065 4 45.112 6.9-2.534 8.084-6.072 8.084-6.072l-4.23-43.147a69.737 69.737 0 0 0 9.941-21.178 165.248 165.248 0 0 0 5.407-32.1z" fill="#aa6933" transform="translate(-404.992 -223.998)"/><path d="m287.239 313.773-19.239-1.804a170.879 170.879 0 0 0 3.607 19.84c1.631 6.652 9.218 21.242 9.218 21.242l-.857 47.089a30.578 30.578 0 0 0 13.111 3.118l.972-48.6s-4.816-15.874-5.611-21.443a166.142 166.142 0 0 1 -1.201-19.442z" fill="#d38240" transform="translate(-255.585 -275.647)"/><path d="m279.174 186.012-68.224 4.507s-4.1 6.3-1.569 12.307 10.52 14.127 33.365 14.729c31.586.831 40.711-11.816 41.781-17.434a14.239 14.239 0 0 0 -5.353-14.109z" fill="#ceb58d" transform="translate(-208.557 -175.998)"/><path d="m255.488 138.142c-30.077-1.228-42.082 12.625-40.579 19.839s9.018 12.624 33.665 14.127 37.273-7.214 39.076-12.625-2.704-20.138-32.162-21.341z" fill="#eed2a0" transform="translate(-213.484 -138.066)"/><path d="m264.678 323.2c-6.775 0-11.351-.94-14.432-2.138a.471.471 0 0 1 -.3-.118c-4.951-2.012-5.848-4.67-5.9-4.853a.4.4 0 0 1 .148-.442c-2.223-4.522-7.831-16.143-9.633-21.866-.848-2.693-2.129-8.145-3.047-12.964-1.749-9.185-1.081-9.706-.8-9.928a.59.59 0 0 1 .694-.015c1.236.761 3.326 7.808 6.143 17.682.952 3.336 1.774 6.218 2.309 7.78 1.743 5.094 7.892 19.575 10 23.165-.129-.857-.367-2.159-.626-3.581-.711-3.893-1.786-9.775-2.4-15.806-1.05-10.312-1.1-22.272.5-23.641a.725.725 0 0 1 .67-.167c2.153.562 2.652 5.466 3.288 13.421.287 3.6.584 7.313 1.147 10.409 1.533 8.435 6.089 20.741 8.124 21.945a.416.416 0 0 0 .14.058c.744-.937 1.847-10.051 2.821-18.1 1.858-15.367 3.207-25.518 4.945-26.574a.773.773 0 0 1 .684-.073c1.7.637 1.829 8.16 1.71 23.981-.039 5.19-.076 10.092.046 13.919.168 5.289.611 6.358.8 6.57.3-.211 1.095-1.455 2.617-7.934 1.087-4.627 2.267-10.666 3.407-16.506 2.885-14.77 4.284-21.292 5.574-21.767a.576.576 0 0 1 .565.087c.427.333.829 1.373.18 9.537-.4 5.1-1.1 11.493-1.764 17.678-.757 7-1.6 14.822-1.572 17.259 5.262-8.214 9.414-27.082 12.186-39.676 2.063-9.373 2.663-11.786 3.371-12.1a.512.512 0 0 1 .468.025c.27.157.561.522.6 2.866.029 1.554-.063 3.627-.266 5.995a123.176 123.176 0 0 1 -2.823 17.5c-1.7 7.119-4.791 14.111-6.837 18.738-.39.882-.759 1.716-1.066 2.435a8.872 8.872 0 0 1 -5.506 5.424.485.485 0 0 1 -.382.137c-2.961 1.017-7.393 1.5-14.379 1.629-.482.009-.949.009-1.404.009zm-3.191-.88c1.4.07 2.924.1 4.575.065 1.815-.033 3.452-.09 4.931-.174-.965-1.687-1.03-8.271-.935-20.849.042-5.59.085-11.372-.084-15.779-.254-6.6-.927-7.354-1.092-7.439-.235.1-1.028 1.046-2.244 8.519-.812 4.992-1.579 11.334-2.321 17.468-1.434 11.847-2.104 16.657-2.83 18.191zm-10.726-1.936a33.109 33.109 0 0 0 8.74 1.8c-2.538-2.964-6.489-14.4-7.853-21.9-.57-3.136-.869-6.874-1.158-10.488-.478-5.984-.972-12.17-2.653-12.7-.3.255-.844 2.1-.933 7.508a138.075 138.075 0 0 0 .727 15.432c.611 6 1.682 11.863 2.391 15.744.27 1.478.483 2.645.611 3.48a8.921 8.921 0 0 1 .128 1.126zm32.677-43.828c-.284.424-.89 1.868-1.98 6.618-.9 3.938-1.9 9.018-2.946 14.4-2.64 13.513-4.448 22.318-6 24.54a32.03 32.03 0 0 0 7.46-1.247c-.2-1.353.152-5.416 1.512-18 .656-6.07 1.334-12.347 1.741-17.392.514-6.392.37-8.335.213-8.917zm12.978-7.024c-.591 1.416-1.639 6.174-2.739 11.176-2.731 12.409-6.8 30.881-11.986 39.444a8.182 8.182 0 0 0 3.917-4.471c.31-.723.679-1.559 1.071-2.444 2.035-4.6 5.109-11.553 6.79-18.6 2.708-11.355 3.402-22.676 2.946-25.103zm-50.551 47.857a10.434 10.434 0 0 0 2.4 1.835q.35.2.76.407c-.249-.442-.549-1.016-.917-1.757-.86-1.732-1.994-4.206-3.277-7.153-2.328-5.344-4.842-11.549-5.723-14.125-.541-1.582-1.366-4.473-2.321-7.82-1.678-5.881-4.43-15.523-5.616-17.046-.367 2.246 2.343 16.047 4.157 21.81 2.236 7.1 10.422 23.44 10.5 23.6a.4.4 0 0 1 .036.252z" fill="#282828" transform="translate(-225.798 -241.177)"/><path d="m227.287 278.659a1.87 1.87 0 1 1 -1.87-1.87 1.87 1.87 0 0 1 1.87 1.87z" fill="#7c4028" transform="translate(-220.415 -247.815)"/><path d="m309.8 302.965a1.87 1.87 0 1 1 -1.87-1.87 1.87 1.87 0 0 1 1.87 1.87z" fill="#7c4028" transform="translate(-285.695 -267.044)"/><circle cx="1.87" cy="1.87" fill="#7c4028" r="1.87" transform="matrix(.92300887 -.38477866 .38477866 .92300887 40.637 35.964)"/><circle cx="1.87" cy="1.87" fill="#7c4028" r="1.87" transform="matrix(.92300887 -.38477866 .38477866 .92300887 55.065 34.36)"/><circle cx="70.616" cy="28.358" fill="#7c4028" r="1.87"/><path d="m296.494 602.693s7.081 5.477 19.773 4.943a56.344 56.344 0 0 0 23.113-6.546l1.336 15.9s-8.55 7.882-23.38 7.348-21.509-6.813-21.509-6.813z" fill="#7c4028" transform="translate(-277.599 -504.381)"/><g fill="#d38240"><path d="m300.216 622.913c1.787.362 2.722 2.246 4.585 2.488a29.405 29.405 0 0 1 3.049.076 19.962 19.962 0 0 1 2.7 1.244c2.085.843 4.27-.5 6.4-.034a22.844 22.844 0 0 0 3.242.96 5.319 5.319 0 0 0 2.932-.695 4.712 4.712 0 0 1 2.6-.815c1.066.041 2.068.534 3.135.63a3.1 3.1 0 0 0 2.321-.916c.939-.833 1.461-1.572 2.857-1.237a5.288 5.288 0 0 0 2.62.278 2.655 2.655 0 0 0 1.645-1.412c.472-.847.749-2.07 1.982-1.5.468.215 1.028.5 1.425.005s-.3-1.211-.708-.709c.127-.157-1.472-.527-1.683-.465a2.35 2.35 0 0 0 -1.394 1.18c-.457.776-.6 1.585-1.533 1.938-.908.345-2.091-.343-3.018-.431a2.776 2.776 0 0 0 -2.016.767c-.985.818-1.493 1.682-2.956 1.446a24.872 24.872 0 0 0 -2.677-.574 4.464 4.464 0 0 0 -2.49.6 4.917 4.917 0 0 1 -3.211.888c-1.2-.174-2.268-.835-3.471-1.023-2.046-.32-4.04.931-6.03.034a24.227 24.227 0 0 0 -2.414-1.12 8.578 8.578 0 0 0 -2.746-.058c-1.961.01-3.018-2.127-4.888-2.505-.631-.128-.9.838-.266.966z" transform="translate(-280.786 -519.976)"/><path d="m300.823 666.371c1.223-2.656 3.619 1.2 4.742 2.09 1.56 1.236 3.514-.271 4.944-1.006 2.075-1.066 3.2 2.282 4.791 2.954a3.149 3.149 0 0 0 2.595-.057c.865-.447 1.442-1.365 2.516-1.162.99.187 1.557.971 2.317 1.542a2.793 2.793 0 0 0 2.452.5 2.848 2.848 0 0 0 1.6-1.364c.472-.711.963-1.9 2.03-1.39.575.276.928.891 1.484 1.21a1.639 1.639 0 0 0 1.831-.311 2.068 2.068 0 0 0 .735-.975c.205-.567-.16-1.2.635-1.488.347-.126.75.487.981.672a2.138 2.138 0 0 0 1.173.4 2.347 2.347 0 0 0 2.164-1.023c.31-.4.905-2.094 1.607-1.95.729.15 1.257.9 2.04 1.023.969.156 1.3-.723 1.381-1.519.062-.643-.941-.637-1 0-.06.621-.233.59-.716.341-.3-.155-.582-.354-.869-.533a1.449 1.449 0 0 0 -1.632-.05c-1.453.71-1.265 3.092-3.308 2.652-.344-.074-.606-.534-.876-.737a1.424 1.424 0 0 0 -.867-.293 1.673 1.673 0 0 0 -1.606 1.539c-.058.643-.176 1.13-.854 1.4-.317.124-.593-.2-.8-.389a3.108 3.108 0 0 0 -1.747-1.068c-1.974-.213-2.085 1.951-3.4 2.792-1.013.645-1.955-.322-2.641-.941a4.077 4.077 0 0 0 -2.478-1.085 2.8 2.8 0 0 0 -1.9.856 2.236 2.236 0 0 1 -3.2-.078c-1.208-1.231-2.424-3.184-4.443-2.537-1.151.369-2.088 1.212-3.274 1.529-1.107.3-2.005-1.24-2.629-1.917-1.378-1.493-3.566-2.446-4.634-.125-.268.583.6 1.092.865.506z" transform="translate(-280.827 -554.179)"/><path d="m303.165 644.81c.345.77.706 2.141 1.619 2.451s2.052-.521 2.807-.935c.566-.311.061-1.177-.506-.865-.361.2-1.527 1.071-1.985.852-.218-.1-.347-.45-.449-.649-.227-.443-.417-.905-.62-1.359-.264-.589-1.127-.079-.865.506z" transform="translate(-283.366 -538.363)"/><path d="m330.614 655.253c.676.6 1.347 1.527 2.244 1.8.982.294 1.989-.821 2.606-1.4.474-.441-.236-1.148-.708-.708-.315.293-1.191 1.34-1.719 1.112a8.056 8.056 0 0 1 -1.714-1.513c-.483-.426-1.194.28-.709.708z" transform="translate(-304.991 -546.567)"/><path d="m364.642 659.606c.908 1.05 1.1 2.483 2.812 2.453 1.27-.023 1.917-1.618 2.384-2.554.288-.576-.576-1.084-.865-.506-.335.671-.8 2.045-1.7 2.061-.986.018-1.389-1.544-1.923-2.162-.424-.49-1.129.222-.708.708z" transform="translate(-331.939 -549.985)"/><path d="m398.934 659.093a17.294 17.294 0 0 0 2.617 2.773.508.508 0 0 0 .708 0 10.854 10.854 0 0 0 1.466-2.046c.263-.45.76-1.232.533-1.781-.242-.589-1.212-.331-.966.266.122.3-.487 1.106-.641 1.359a8.6 8.6 0 0 1 -1.1 1.493h.708a16.212 16.212 0 0 1 -2.46-2.57c-.379-.514-1.249-.015-.865.506z" transform="translate(-359.095 -549.172)"/><path d="m434.919 657.489a3.458 3.458 0 0 0 2.892 1.315c1.111-.187 1.648-1.554 1.953-2.471.2-.615-.763-.876-.966-.266-.216.648-.514 1.561-1.253 1.771-.688.2-1.495-.646-1.917-1.057-.463-.45-1.173.258-.708.708z" transform="translate(-387.52 -547.601)"/><path d="m468.888 645.917c.917.407 2.341 1.8 3.389 1.082.993-.68 1.3-2.424 1.488-3.519.111-.632-.855-.9-.966-.266a7.717 7.717 0 0 1 -.915 2.768c-.394.628-1.959-.694-2.49-.93-.585-.26-1.1.6-.506.865z" transform="translate(-414.307 -537.42)"/><path d="m328.331 669.048v-.134a.5.5 0 0 0 -1 0v.134a.5.5 0 1 0 1 0z" transform="translate(-302.522 -557.643)"/><path d="m327.19 646.387h.133a.5.5 0 1 0 0-1h-.133a.5.5 0 1 0 0 1z" transform="translate(-302.015 -539.425)"/><path d="m377.145 682.208a.5.5 0 0 0 0-1 .5.5 0 0 0 0 1z" transform="translate(-341.549 -567.764)"/><path d="m357.893 653.423h.134a.5.5 0 0 0 0-1h-.134a.5.5 0 1 0 0 1z" transform="translate(-326.306 -544.991)"/><path d="m415.461 683.754a.648.648 0 0 0 .537-.3.843.843 0 0 0 .1-.464.5.5 0 1 0 -1 0v.1c.015-.093.018-.114.007-.064a.393.393 0 0 1 .363-.274.509.509 0 0 0 -.5.5.5.5 0 0 0 .5.5z" transform="translate(-371.85 -568.776)"/><path d="m428.956 652.784a.5.5 0 0 0 0-1 .5.5 0 0 0 0 1z" transform="translate(-382.539 -544.486)"/><path d="m469.693 668.541v-.267a.5.5 0 1 0 -1 0v.267a.5.5 0 1 0 1 0z" transform="translate(-414.358 -557.137)"/><path d="m461.516 644.468h.133a.5.5 0 1 0 0-1h-.133a.5.5 0 1 0 0 1z" transform="translate(-408.285 -537.906)"/><path d="m498.477 655.615v-.134a.5.5 0 1 0 -1 0v.134a.5.5 0 0 0 1 0z" transform="translate(-437.13 -547.016)"/><path d="m495.479 634.234a.5.5 0 0 0 0-1 .5.5 0 0 0 0 1z" transform="translate(-435.168 -529.81)"/><path d="m319.375 628.891c0-.022 0-.044 0-.066l-.014.1q.019-.07-.035.078c.034-.067-.092.108-.03.041.021-.023.043-.044.065-.066a.5.5 0 0 0 -.708-.708 1 1 0 0 0 -.2.242.815.815 0 0 0 -.082.38.5.5 0 0 0 1 0z" transform="translate(-295.436 -525.769)"/><path d="m355.192 636.426a.393.393 0 0 1 -.193.328q-.135.05-.06.03c-.169.039-.037.009.019.009a.5.5 0 0 0 0-1 1.008 1.008 0 0 0 -.446.089.62.62 0 0 0 -.322.546.5.5 0 0 0 .5.5.509.509 0 0 0 .5-.5z" transform="translate(-323.771 -531.834)"/><path d="m397.551 639.351h.133a.5.5 0 1 0 0-1h-.133a.5.5 0 1 0 0 1z" transform="translate(-357.68 -533.858)"/><path d="m433.372 634.234h.134a.5.5 0 1 0 0-1h-.134a.5.5 0 0 0 0 1z" transform="translate(-386.02 -529.81)"/><path d="m471.812 622.081a.5.5 0 0 0 0-1 .5.5 0 0 0 0 1z" transform="translate(-416.444 -520.195)"/><path d="m497.976 611.846h.134a.5.5 0 1 0 0-1h-.134a.5.5 0 0 0 0 1z" transform="translate(-437.13 -512.098)"/><path d="m307.361 678.37h.133a.5.5 0 1 0 0-1h-.133a.5.5 0 1 0 0 1z" transform="translate(-286.328 -564.728)"/><path d="m350.919 691.8a.5.5 0 0 0 0-1 .5.5 0 0 0 0 1z" transform="translate(-320.802 -575.354)"/><path d="m396.773 701.03c0-.056.022-.15-.013.039a.453.453 0 0 1 -.42.329h.065a.5.5 0 1 0 0-1 .572.572 0 0 0 -.635.635.5.5 0 0 0 1 0z" transform="translate(-356.669 -582.945)"/><path d="m439.768 698.333a.572.572 0 0 0 .635-.635.5.5 0 1 0 -1 0c0 .056-.022.15.013-.039a.453.453 0 0 1 .42-.329c-.022 0-.044 0-.065 0a.5.5 0 0 0 0 1z" transform="translate(-391.08 -580.415)"/><path d="m464.714 690.158a1.166 1.166 0 0 0 .755-.414.5.5 0 0 0 -.708-.708c-.052.052-.1.1-.16.152.1-.083.023-.019-.005 0l.066-.026c-.053.014-.035.014.053 0a.509.509 0 0 0 -.5.5.5.5 0 0 0 .5.5z" transform="translate(-410.816 -573.844)"/><path d="m492.219 680.289h.133a.5.5 0 1 0 0-1h-.133a.5.5 0 1 0 0 1z" transform="translate(-432.576 -566.246)"/></g><path d="m279.722 151.531c-9.9-.935-23.229-.418-31.512 5.761-4.992 3.724-6.672 15.253 1.3 16.539 0 0 5.211 1.6 7.565-.647 1.648-1.575.292-4.41 1.1-6.311 2.89-6.782 17.415-5.859 23.3-5.566 2.9.145 7.779.142 7.815-4.008.038-4.179-6.439-5.473-9.568-5.768z" fill="#fff" opacity=".4" transform="translate(-236.595 -148.431)"/></svg>