<svg height="101.742" viewBox="0 0 97.251 101.742" width="97.251" xmlns="http://www.w3.org/2000/svg"><path d="m3117.42 622.468 15.3-7.42 4.053 14.606z" fill="#e0a839" transform="translate(-3116.487 -557.031)"/><path d="m3151.661 497.027v-10.311l-40.581-26.044v10.61a6.687 6.687 0 0 0 2.787 5.638 8.521 8.521 0 0 1 3.551 7.184v4.224c0 1.974-1.73 3.24-3.169 2.317s-3.168.342-3.168 2.317v5.606a7.827 7.827 0 0 0 3.261 6.6l33.279 21.552c1.83 1.185 4.041-.424 4.041-2.941v-5.441a6.388 6.388 0 0 0 -2.682-5.4l-2.292-1.471a8.475 8.475 0 0 1 -3.558-7.167v-1.06c0-3.336 2.93-5.468 5.354-3.9 1.439.931 3.177-.334 3.177-2.313z" fill="#ffd356" transform="translate(-3111.08 -425.373)"/><path d="m3332.573 521.352c-.682-1.643-2.946-3.191-5.066-4.339-2.573-1.393-4.209-4.52-4.209-7.94v-1.2l-49.089 28.085s-17.749.37-17.445.924 7.46 13.488 8.374 14.412a114.519 114.519 0 0 0 10.765 7.3c1.11.462 49.983-27.807 49.983-27.807z" fill="#e0a839" transform="translate(-3235.322 -465.626)"/><path d="m3433.693 412.389v6.071a8.807 8.807 0 0 1 -3.922 7.626l-54.442 32.319 1.695-12.867z" fill="#efbd4b" transform="translate(-3336.442 -384.195)"/><path d="m3433.693 599.478v7.105a7.089 7.089 0 0 1 -3.156 6.138l-55.208 32.773.761-12.321z" fill="#efbd4b" transform="translate(-3336.442 -543.753)"/><path d="m3658.6 505.616a.562.562 0 0 1 .149.39.477.477 0 0 1 -.425.516.4.4 0 0 1 -.321-.181.531.531 0 0 0 .486.471.56.56 0 0 0 .5-.606.592.592 0 0 0 -.389-.59z" fill="#600" opacity=".07" transform="translate(-3577.518 -463.703)"/><path d="m3667.505 626.54a.669.669 0 0 1 .178.464.568.568 0 0 1 -.506.615.473.473 0 0 1 -.382-.216.633.633 0 0 0 .579.562.668.668 0 0 0 .6-.722.705.705 0 0 0 -.469-.703z" fill="#600" opacity=".07" transform="translate(-3585.017 -566.832)"/><path d="m3394.157 680.837a1.052 1.052 0 0 1 .279.728.891.891 0 0 1 -.794.963.742.742 0 0 1 -.6-.338.992.992 0 0 0 .908.881 1.046 1.046 0 0 0 .932-1.132 1.105 1.105 0 0 0 -.725-1.102z" fill="#600" opacity=".07" transform="translate(-3351.549 -613.139)"/><path d="m3432.7 642.451a.439.439 0 0 1 .117.3.372.372 0 0 1 -.332.4.312.312 0 0 1 -.251-.141.416.416 0 0 0 .38.368.438.438 0 0 0 .39-.473.462.462 0 0 0 -.304-.454z" fill="#600" opacity=".07" transform="translate(-3384.977 -580.401)"/><path d="m3358.014 802.295a.643.643 0 0 1 .17.445.545.545 0 0 1 -.485.589.455.455 0 0 1 -.367-.207.608.608 0 0 0 .555.539.64.64 0 0 0 .571-.692.676.676 0 0 0 -.444-.674z" fill="#600" opacity=".07" transform="translate(-3321.094 -716.723)"/><path d="m3490.951 792.968a1.261 1.261 0 0 1 .334.873 1.069 1.069 0 0 1 -.953 1.156.891.891 0 0 1 -.72-.406 1.192 1.192 0 0 0 1.089 1.057 1.256 1.256 0 0 0 1.12-1.358 1.326 1.326 0 0 0 -.87-1.322z" fill="#600" opacity=".07" transform="translate(-3433.909 -708.768)"/><path d="m3452.287 616.553a1.027 1.027 0 0 1 .274.713.874.874 0 0 1 -.778.944.728.728 0 0 1 -.588-.332.973.973 0 0 0 .89.863 1.026 1.026 0 0 0 .914-1.109 1.083 1.083 0 0 0 -.712-1.079z" fill="#600" opacity=".07" transform="translate(-3401.144 -558.314)"/><path d="m3611.961 736.2a1.017 1.017 0 0 1 .27.7.862.862 0 0 1 -.768.932.718.718 0 0 1 -.58-.327.96.96 0 0 0 .878.852 1.013 1.013 0 0 0 .9-1.095 1.069 1.069 0 0 0 -.7-1.062z" fill="#600" opacity=".07" transform="translate(-3537.333 -660.354)"/><path d="m3681.462 477.1a1.36 1.36 0 0 1 .361.942 1.154 1.154 0 0 1 -1.028 1.247.962.962 0 0 1 -.776-.438 1.286 1.286 0 0 0 1.176 1.14 1.356 1.356 0 0 0 1.208-1.465 1.431 1.431 0 0 0 -.941-1.426z" fill="#600" opacity=".07" transform="translate(-3596.295 -439.381)"/><path d="m3624.336 526.295a.61.61 0 0 1 .162.423.518.518 0 0 1 -.462.56.43.43 0 0 1 -.348-.2.577.577 0 0 0 .528.512.609.609 0 0 0 .542-.658.643.643 0 0 0 -.422-.637z" fill="#600" opacity=".07" transform="translate(-3548.254 -481.339)"/><path d="m3662.961 708.256a.575.575 0 0 1 .153.4.489.489 0 0 1 -.436.529.408.408 0 0 1 -.329-.186.545.545 0 0 0 .5.483.574.574 0 0 0 .511-.621.606.606 0 0 0 -.399-.605z" fill="#600" opacity=".07" transform="translate(-3581.225 -636.523)"/><path d="m3286.943 722.581a1.177 1.177 0 0 1 .312.815 1 1 0 0 1 -.889 1.079.831.831 0 0 1 -.672-.379 1.112 1.112 0 0 0 1.017.986 1.172 1.172 0 0 0 1.044-1.267 1.238 1.238 0 0 0 -.812-1.234z" fill="#600" opacity=".07" transform="translate(-3259.999 -648.74)"/><path d="m3385.305 732.556a.815.815 0 0 1 .217.566.693.693 0 0 1 -.617.749.578.578 0 0 1 -.466-.263.772.772 0 0 0 .706.685.814.814 0 0 0 .725-.88.859.859 0 0 0 -.565-.857z" fill="#600" opacity=".07" transform="translate(-3344.212 -657.247)"/><path d="m3553.044 607.719a.729.729 0 0 1 .193.5.618.618 0 0 1 -.551.668.515.515 0 0 1 -.416-.235.688.688 0 0 0 .629.611.726.726 0 0 0 .646-.784.766.766 0 0 0 -.501-.76z" fill="#600" opacity=".07" transform="translate(-3487.346 -550.78)"/><path d="m3581.288 683.815a.5.5 0 0 1 .135.35.429.429 0 0 1 -.383.464.357.357 0 0 1 -.289-.163.478.478 0 0 0 .438.424.5.5 0 0 0 .449-.545.532.532 0 0 0 -.35-.53z" fill="#600" opacity=".07" transform="translate(-3511.635 -615.678)"/><path d="m3627.3 640.629a1.524 1.524 0 0 1 .406 1.058 1.3 1.3 0 0 1 -1.154 1.4 1.079 1.079 0 0 1 -.872-.492 1.443 1.443 0 0 0 1.319 1.28 1.521 1.521 0 0 0 1.355-1.645 1.606 1.606 0 0 0 -1.054-1.601z" fill="#600" opacity=".07" transform="translate(-3549.952 -578.847)"/><path d="m3598.394 561.6a.573.573 0 0 1 .151.4.485.485 0 0 1 -.432.524.405.405 0 0 1 -.327-.184.541.541 0 0 0 .494.479.57.57 0 0 0 .508-.616.6.6 0 0 0 -.394-.603z" fill="#600" opacity=".07" transform="translate(-3526.164 -511.452)"/><path d="m3554.629 732.585a.649.649 0 0 1 .172.449.55.55 0 0 1 -.49.595.458.458 0 0 1 -.37-.209.613.613 0 0 0 .561.544.646.646 0 0 0 .575-.7.682.682 0 0 0 -.448-.679z" fill="#600" opacity=".07" transform="translate(-3488.77 -657.271)"/><path d="m3492.435 608.5a1.433 1.433 0 0 1 .38.992 1.215 1.215 0 0 1 -1.083 1.314 1.012 1.012 0 0 1 -.818-.462 1.354 1.354 0 0 0 1.238 1.2 1.428 1.428 0 0 0 1.272-1.544 1.507 1.507 0 0 0 -.989-1.5z" fill="#600" opacity=".07" transform="translate(-3435.018 -551.448)"/><path d="m3750.477 628.37a.485.485 0 0 1 .129.336.411.411 0 0 1 -.367.445.342.342 0 0 1 -.276-.156.458.458 0 0 0 .419.407.483.483 0 0 0 .43-.522.51.51 0 0 0 -.335-.51z" fill="#600" opacity=".07" transform="translate(-3655.946 -568.392)"/><path d="m3465.632 713a.822.822 0 0 1 .219.57.7.7 0 0 1 -.623.755.582.582 0 0 1 -.47-.265.778.778 0 0 0 .711.69.82.82 0 0 0 .73-.887.865.865 0 0 0 -.567-.863z" fill="#600" opacity=".07" transform="translate(-3412.712 -640.57)"/><path d="m3526.308 682.011a.592.592 0 0 1 .157.41.5.5 0 0 1 -.447.542.417.417 0 0 1 -.337-.191.558.558 0 0 0 .511.5.589.589 0 0 0 .524-.637.621.621 0 0 0 -.408-.624z" fill="#600" opacity=".07" transform="translate(-3464.669 -614.14)"/><path d="m3424.331 864.713a.6.6 0 0 1 .158.413.505.505 0 0 1 -.45.546.421.421 0 0 1 -.34-.192.562.562 0 0 0 .515.5.593.593 0 0 0 .528-.642.626.626 0 0 0 -.411-.625z" fill="#600" opacity=".07" transform="translate(-3377.695 -769.956)"/><path d="m3734.02 455.267a1.394 1.394 0 0 1 .37.965 1.181 1.181 0 0 1 -1.053 1.277.983.983 0 0 1 -.794-.449 1.315 1.315 0 0 0 1.2 1.167 1.388 1.388 0 0 0 1.236-1.5 1.465 1.465 0 0 0 -.959-1.46z" fill="#600" opacity=".07" transform="translate(-3641.089 -420.763)"/><path d="m3682.813 682.15a.757.757 0 0 1 .2.526.643.643 0 0 1 -.573.7.536.536 0 0 1 -.433-.245.717.717 0 0 0 .656.636.756.756 0 0 0 .674-.818.8.8 0 0 0 -.524-.799z" fill="#600" opacity=".07" transform="translate(-3597.991 -614.258)"/><path d="m3597 625.108a.512.512 0 0 1 .136.355.434.434 0 0 1 -.387.469.362.362 0 0 1 -.292-.165.483.483 0 0 0 .442.429.51.51 0 0 0 .454-.551.538.538 0 0 0 -.353-.537z" fill="#600" opacity=".07" transform="translate(-3525.03 -565.61)"/><path d="m3411.621 838.389a.988.988 0 0 1 .262.685.839.839 0 0 1 -.747.907.7.7 0 0 1 -.564-.318.934.934 0 0 0 .854.829.985.985 0 0 0 .877-1.065 1.039 1.039 0 0 0 -.682-1.038z" fill="#600" opacity=".07" transform="translate(-3366.499 -747.505)"/><path d="m3428.831 772.391a.451.451 0 0 1 .12.313.383.383 0 0 1 -.341.414.32.32 0 0 1 -.258-.145.427.427 0 0 0 .391.379.45.45 0 0 0 .4-.487.475.475 0 0 0 -.312-.474z" fill="#600" opacity=".07" transform="translate(-3381.663 -691.22)"/><path d="m3661.753 555.086a.763.763 0 0 1 .2.53.649.649 0 0 1 -.578.7.54.54 0 0 1 -.437-.246.722.722 0 0 0 .661.641.762.762 0 0 0 .679-.824.8.8 0 0 0 -.525-.801z" fill="#600" opacity=".07" transform="translate(-3580.025 -505.893)"/><path d="m3151.661 497.027v-10.311l-40.581-26.044v10.61a6.687 6.687 0 0 0 2.787 5.638 8.521 8.521 0 0 1 3.551 7.184v4.224c0 1.974-1.73 3.24-3.169 2.317s-3.168.342-3.168 2.317v5.606a7.827 7.827 0 0 0 3.261 6.6l33.279 21.552c1.83 1.185 4.041-.424 4.041-2.941v-5.441a6.388 6.388 0 0 0 -2.682-5.4l-2.292-1.471a8.475 8.475 0 0 1 -3.558-7.167v-1.06c0-3.336 2.93-5.468 5.354-3.9 1.439.931 3.177-.334 3.177-2.313z" fill="#ffd356" transform="translate(-3111.08 -425.373)"/><path d="m3307.333 662.882a1.058 1.058 0 0 1 .281.734.9.9 0 0 1 -.8.972.748.748 0 0 1 -.6-.342 1 1 0 0 0 .916.889 1.056 1.056 0 0 0 .941-1.142 1.115 1.115 0 0 0 -.738-1.111z" fill="#efbd4b" transform="translate(-3277.494 -597.826)"/><path d="m3352.2 876.684a.746.746 0 0 1 .2.517.633.633 0 0 1 -.563.684.527.527 0 0 1 -.426-.24.7.7 0 0 0 .645.625.744.744 0 0 0 .663-.8.785.785 0 0 0 -.519-.786z" fill="#efbd4b" transform="translate(-3316.043 -780.165)"/><path d="m3216.164 573.243a1.268 1.268 0 0 1 .336.878 1.075 1.075 0 0 1 -.958 1.163.9.9 0 0 1 -.724-.409 1.2 1.2 0 0 0 1.1 1.063 1.263 1.263 0 0 0 1.125-1.366 1.334 1.334 0 0 0 -.879-1.329z" fill="#efbd4b" transform="translate(-3199.553 -521.378)"/><path d="m3214.846 782.36a.458.458 0 0 1 .122.317.388.388 0 0 1 -.346.42.323.323 0 0 1 -.261-.148.432.432 0 0 0 .4.384.456.456 0 0 0 .406-.493.482.482 0 0 0 -.321-.48z" fill="#efbd4b" transform="translate(-3199.162 -699.722)"/><path d="m3196.079 643.689a.706.706 0 0 1 .188.489.6.6 0 0 1 -.534.648.5.5 0 0 1 -.4-.228.668.668 0 0 0 .61.592.7.7 0 0 0 .627-.761.743.743 0 0 0 -.491-.74z" fill="#efbd4b" transform="translate(-3182.932 -581.457)"/><path d="m3305 727.4a1.276 1.276 0 0 1 .338.883 1.082 1.082 0 0 1 -.964 1.169.9.9 0 0 1 -.728-.411 1.2 1.2 0 0 0 1.1 1.069 1.27 1.27 0 0 0 1.132-1.374 1.341 1.341 0 0 0 -.878-1.336z" fill="#efbd4b" transform="translate(-3275.312 -652.854)"/><path d="m3184.037 520.053a.909.909 0 0 1 .241.63.771.771 0 0 1 -.687.833.642.642 0 0 1 -.519-.293.859.859 0 0 0 .785.762.906.906 0 0 0 .807-.979.956.956 0 0 0 -.627-.953z" fill="#efbd4b" transform="translate(-3172.479 -476.015)"/><path d="m3366.709 670.331a.66.66 0 0 1 .175.457.56.56 0 0 1 -.5.605.467.467 0 0 1 -.377-.213.624.624 0 0 0 .571.553.657.657 0 0 0 .585-.711.694.694 0 0 0 -.454-.691z" fill="#efbd4b" transform="translate(-3328.495 -604.179)"/><path d="m3128.719 493.3a.514.514 0 0 1 .137.356.436.436 0 0 1 -.389.472.364.364 0 0 1 -.293-.166.486.486 0 0 0 .444.431.512.512 0 0 0 .457-.554.541.541 0 0 0 -.356-.539z" fill="#efbd4b" transform="translate(-3125.659 -453.196)"/><path d="m3332.834 807.6a1.022 1.022 0 0 1 .272.709.868.868 0 0 1 -.773.938.723.723 0 0 1 -.584-.33.967.967 0 0 0 .884.858 1.02 1.02 0 0 0 .908-1.1 1.076 1.076 0 0 0 -.707-1.075z" fill="#efbd4b" transform="translate(-3299.275 -721.248)"/><path d="m3159.279 576.761a.544.544 0 0 1 .145.377.462.462 0 0 1 -.412.5.385.385 0 0 1 -.311-.176.515.515 0 0 0 .471.457.543.543 0 0 0 .484-.587.573.573 0 0 0 -.377-.571z" fill="#efbd4b" transform="translate(-3151.694 -524.378)"/><path d="m3151.7 714.072a.58.58 0 0 1 .154.4.491.491 0 0 1 -.438.531.409.409 0 0 1 -.331-.187.547.547 0 0 0 .5.486.577.577 0 0 0 .514-.624.61.61 0 0 0 -.399-.606z" fill="#efbd4b" transform="translate(-3145.198 -641.483)"/><path d="m3142.56 745.824a1.215 1.215 0 0 1 .323.843 1.032 1.032 0 0 1 -.92 1.116.859.859 0 0 1 -.695-.392 1.15 1.15 0 0 0 1.052 1.02 1.213 1.213 0 0 0 1.081-1.311 1.28 1.28 0 0 0 -.841-1.276z" fill="#efbd4b" transform="translate(-3136.827 -668.562)"/><path d="m3252.792 641.1a1.325 1.325 0 0 1 .352.918 1.124 1.124 0 0 1 -1 1.216.936.936 0 0 1 -.757-.427 1.253 1.253 0 0 0 1.146 1.112 1.321 1.321 0 0 0 1.177-1.428 1.4 1.4 0 0 0 -.918-1.391z" fill="#efbd4b" transform="translate(-3230.738 -579.248)"/><path d="m3309.5 856.935a.7.7 0 0 1 .184.481.589.589 0 0 1 -.524.636.491.491 0 0 1 -.4-.224.656.656 0 0 0 .6.582.691.691 0 0 0 .616-.748.73.73 0 0 0 -.476-.727z" fill="#efbd4b" transform="translate(-3279.673 -763.323)"/><path d="m3266.853 714.625a.866.866 0 0 1 .229.6.733.733 0 0 1 -.653.792.61.61 0 0 1 -.493-.278.816.816 0 0 0 .746.724.86.86 0 0 0 .767-.93.908.908 0 0 0 -.596-.908z" fill="#efbd4b" transform="translate(-3243.148 -641.955)"/><path d="m3252.191 577.764a.539.539 0 0 1 .144.374.458.458 0 0 1 -.408.5.382.382 0 0 1 -.309-.174.51.51 0 0 0 .467.453.538.538 0 0 0 .479-.582.568.568 0 0 0 -.373-.571z" fill="#efbd4b" transform="translate(-3230.937 -525.234)"/><path d="m3153.14 679.368a1.172 1.172 0 0 1 .312.813 1 1 0 0 1 -.887 1.076.829.829 0 0 1 -.67-.378 1.109 1.109 0 0 0 1.014.984 1.169 1.169 0 0 0 1.042-1.265 1.234 1.234 0 0 0 -.811-1.23z" fill="#efbd4b" transform="translate(-3145.889 -611.886)"/><path d="m3308.573 609.62a.707.707 0 0 1 .188.49.6.6 0 0 1 -.535.649.5.5 0 0 1 -.4-.228.668.668 0 0 0 .611.593.705.705 0 0 0 .628-.762.744.744 0 0 0 -.492-.742z" fill="#efbd4b" transform="translate(-3278.87 -552.402)"/><path d="m3285.748 800.906a1.179 1.179 0 0 1 .314.818 1 1 0 0 1 -.893 1.083.834.834 0 0 1 -.674-.38 1.116 1.116 0 0 0 1.02.99 1.177 1.177 0 0 0 1.049-1.272 1.242 1.242 0 0 0 -.816-1.239z" fill="#efbd4b" transform="translate(-3258.976 -715.539)"/><path d="m3233.188 722.134a.69.69 0 0 1 .184.478.586.586 0 0 1 -.522.633.487.487 0 0 1 -.394-.222.652.652 0 0 0 .6.579.688.688 0 0 0 .613-.744.726.726 0 0 0 -.481-.724z" fill="#efbd4b" transform="translate(-3214.595 -648.359)"/><path d="m3111.08 280.308 40.581 26.044 56.67-33.15-39.212-24.017z" fill="#65b28b" transform="translate(-3111.08 -245.009)"/><path d="m3111.08 257.7 40.581 26.044 56.67-33.15-39.212-24.017z" fill="#65b28b" transform="translate(-3111.08 -225.729)"/><path d="m3151.661 467.437v-3.327l-40.581-26.044v3.327z" fill="#569b77" transform="translate(-3111.08 -406.093)"/><path d="m3386.845 422.932 56.669-33.15v3.327l-56.669 33.15z" fill="#4c8967" transform="translate(-3346.264 -364.915)"/><path d="m3388.149 425.282s.245-.135.69-.4a4.113 4.113 0 0 0 .749-.574 10.6 10.6 0 0 0 .782-1.026 1.411 1.411 0 0 1 .7-.5 1.122 1.122 0 0 1 .238-.038 1.588 1.588 0 0 1 .244.011c.152.018.293.046.419.055a.523.523 0 0 0 .3-.048.938.938 0 0 0 .091-.057.468.468 0 0 1 .048-.045 1.53 1.53 0 0 0 .126-.149c.173-.224.3-.517.554-.831a1.113 1.113 0 0 1 .255-.23.95.95 0 0 1 .19-.089.861.861 0 0 1 .226-.028l.112.012a.411.411 0 0 1 .062.012l.039.011a1.042 1.042 0 0 1 .183.082c.1.054.167.1.215.122.031.018.1.017.086.011a.272.272 0 0 0 .1-.047 1.082 1.082 0 0 0 .26-.312c.157-.255.259-.651.51-1.056a1.347 1.347 0 0 1 .634-.568l.1-.035a1.185 1.185 0 0 1 .132-.028 1.3 1.3 0 0 1 .237-.013 2.518 2.518 0 0 1 .377.048 1.069 1.069 0 0 0 .436.039c.024-.008-.039.015 0 0l.073-.033c.022-.02 0 0 .031-.03a.924.924 0 0 0 .145-.159c.107-.137.218-.325.371-.53a2.2 2.2 0 0 1 .288-.319 1.437 1.437 0 0 1 .206-.153l.029-.018c.006 0 .057-.03.044-.023l.037-.019a1.24 1.24 0 0 1 .131-.055 2.5 2.5 0 0 1 .844-.1 1.291 1.291 0 0 0 .248-.021c.01 0 .065-.016 0 0l.1-.034c.073-.02.058-.031.086-.042a2.279 2.279 0 0 0 .427-.335c.16-.149.327-.323.534-.5a2.151 2.151 0 0 1 .839-.483 1.268 1.268 0 0 1 .292-.049 1.42 1.42 0 0 1 .167-.005c.034 0 .049 0 .113.009a3.6 3.6 0 0 1 .446.089.988.988 0 0 0 .226.038c-.111.071-.037.016-.052.026a.779.779 0 0 0 .062-.054.065.065 0 0 0 -.035.027c0-.008.014-.023.024-.053a1.559 1.559 0 0 0 .076-.247 5.211 5.211 0 0 1 .227-.822 1.49 1.49 0 0 1 .376-.544l.118-.092a1.566 1.566 0 0 1 .218-.121 1.41 1.41 0 0 1 .36-.1 5.27 5.27 0 0 1 .866.039c.072 0 .1-.012.091-.011l.044-.02c.017-.007.032-.014.02-.012s.008-.015.029-.044a3.118 3.118 0 0 0 .334-.526 3.779 3.779 0 0 1 .55-.8 1.77 1.77 0 0 1 .545-.378 2.982 2.982 0 0 1 .5-.152.918.918 0 0 0 .25-.085 1.266 1.266 0 0 0 .191-.131c.154-.122.329-.3.538-.507.107-.1.223-.209.359-.316a3.363 3.363 0 0 1 .43-.279 7.159 7.159 0 0 1 1.713-.646c.148-.036.3-.067.455-.093l.409-.06a.872.872 0 0 0 .215-.055c.016-.006.039-.022.035-.019a.24.24 0 0 0 .035-.028l.046-.043a3.854 3.854 0 0 1 .37-.342 2.055 2.055 0 0 1 .594-.3c.375-.115.659-.137.808-.191a.353.353 0 0 0 .117-.054c.016-.018.011 0 .06-.092a3.061 3.061 0 0 1 .264-.465l.031-.041.046-.054.035-.039c.013-.017.064-.069.115-.117a2.011 2.011 0 0 1 .264-.208c.343-.224.622-.318.768-.414a.674.674 0 0 0 .157-.124c-.017.024.015-.016.012-.013l.016-.02a.813.813 0 0 0 .052-.069l.067-.106c.113-.187.229-.442.417-.741a2.169 2.169 0 0 1 .929-.854l.047-.021.1-.038a1.528 1.528 0 0 1 .188-.054 2.142 2.142 0 0 1 .32-.047 4.142 4.142 0 0 1 .5 0c.139.007.251.01.333.005a.983.983 0 0 0 .1-.012c-.039.006.147-.036.118-.038.022-.009.078-.037.078-.037.037-.015.081-.046.122-.069.087-.057.179-.121.279-.2.2-.154.419-.344.7-.533a3.034 3.034 0 0 1 .485-.266 2.31 2.31 0 0 1 .3-.1 1.943 1.943 0 0 1 .295-.054 2.6 2.6 0 0 1 .31-.012l.238.01c.143.009.259.016.34.013a.385.385 0 0 0 .134-.02c.005 0 .03-.016 0 0l.042-.029c-.014.008.019-.016.047-.046l.261-.292a1.755 1.755 0 0 1 .55-.422l.047-.021.114-.042a1.484 1.484 0 0 1 .2-.052 2.09 2.09 0 0 1 .309-.033h.391c.083 0 .094-.013.08-.005.029-.019-.046.034-.029.022l.041-.03s.019-.02.04-.049c.091-.119.192-.369.386-.675a1.822 1.822 0 0 1 .43-.47 1.482 1.482 0 0 1 .683-.279c.207-.03.351-.026.435-.035a.319.319 0 0 0 .129-.026 3.7 3.7 0 0 0 .487-.408 1.966 1.966 0 0 1 .507-.312 1.414 1.414 0 0 1 .161-.055l.06-.017.071-.015.138-.025.124-.016a4.306 4.306 0 0 0 .636-.074.249.249 0 0 0 .095-.046c.015-.012-.034.041-.005.01a.612.612 0 0 0 .063-.076l.037-.061c.084-.146.165-.374.285-.644a2.232 2.232 0 0 1 .263-.454 1.244 1.244 0 0 1 .611-.437 1.061 1.061 0 0 1 .149-.035c.043-.007.087-.012.13-.016h.095a1.369 1.369 0 0 1 .327.052 3.089 3.089 0 0 1 .42.162 1.421 1.421 0 0 0 .221.085l.023.006c.01 0-.112.025-.049.012l.044-.01c.019-.005.086-.018.053-.016a.049.049 0 0 0 -.033.014.539.539 0 0 0 .08-.063 1.726 1.726 0 0 0 .166-.207c.121-.169.245-.384.421-.612a2.152 2.152 0 0 1 .333-.347 1.428 1.428 0 0 1 .244-.156 1.5 1.5 0 0 1 .147-.066c.013 0 .085-.028.139-.04a5.107 5.107 0 0 1 .754-.04.885.885 0 0 0 .373-.148 1.069 1.069 0 0 0 .172-.149c.025-.026.056-.062.073-.084l.1-.134c.1-.141.209-.329.312-.511a5.464 5.464 0 0 1 .774-1.161 1.576 1.576 0 0 1 .719-.433c.075-.015.134-.028.221-.041.015 0 .071-.006.109-.005h.105c.134.01.236.03.314.039l.053.005h.123l.038-.006a.751.751 0 0 0 .19-.045 1.679 1.679 0 0 0 .41-.221 5.177 5.177 0 0 0 .756-.709 5 5 0 0 1 .8-.781 1.211 1.211 0 0 1 .6-.223 1.282 1.282 0 0 1 .3.016 1.863 1.863 0 0 1 .268.067 5.55 5.55 0 0 0 .82.274.434.434 0 0 0 .283-.05l.031-.019s.024-.017.024-.017a.626.626 0 0 0 .067-.065.893.893 0 0 0 .092-.126 5.829 5.829 0 0 0 .292-.683 1.166 1.166 0 0 1 .468-.613.787.787 0 0 1 .676 0 3.567 3.567 0 0 0 .867.381.572.572 0 0 0 .527-.152.608.608 0 0 0 .1-.172.555.555 0 0 1 -.638.408 1.222 1.222 0 0 1 -.441-.1 4.553 4.553 0 0 0 -.479-.187.574.574 0 0 0 -.5.039.938.938 0 0 0 -.3.5 5.823 5.823 0 0 1 -.251.752 1.194 1.194 0 0 1 -.133.214.823.823 0 0 1 -.074.085l-.018.019a.46.46 0 0 1 -.038.031l-.055.042a.862.862 0 0 1 -.535.155 4.6 4.6 0 0 1 -.936-.22 1.352 1.352 0 0 0 -.2-.035.633.633 0 0 0 -.181 0 .66.66 0 0 0 -.31.151 4.658 4.658 0 0 0 -.64.734 5.87 5.87 0 0 1 -.8.865 2.312 2.312 0 0 1 -.582.362 1.525 1.525 0 0 1 -.376.109l-.109.016h-.074-.038-.063-.1a.971.971 0 0 0 -.452.009.728.728 0 0 0 -.31.225 4.938 4.938 0 0 0 -.57 1c-.1.2-.2.4-.34.629l-.09.14c-.047.069-.086.12-.134.178a2.089 2.089 0 0 1 -.317.309 1.841 1.841 0 0 1 -.865.38c-.314.041-.564.012-.622.045l-.027.011c-.021.011-.041.035-.059.045a1.119 1.119 0 0 0 -.143.169c-.107.148-.215.349-.361.576a2.807 2.807 0 0 1 -.271.362 1.634 1.634 0 0 1 -.206.19c-.043.032-.081.06-.13.091a1.735 1.735 0 0 1 -.2.093.829.829 0 0 1 -.12.039l-.044.012a.944.944 0 0 1 -.093.018h-.046a1.21 1.21 0 0 1 -.34-.013 2.337 2.337 0 0 1 -.475-.144 1.948 1.948 0 0 0 -.27-.1c-.024 0-.042-.006-.038 0a.14.14 0 0 0 .04 0c.048-.015 0 0-.031.009.069-.018.044-.023.029.01a1.1 1.1 0 0 0 -.1.2c-.079.191-.15.446-.3.75l-.064.117c-.028.045-.064.1-.1.146s-.047.059-.072.091-.062.07-.062.07l-.061.059a1.564 1.564 0 0 1 -.564.332 4.465 4.465 0 0 1 -.887.149l-.068.011-.054.011-.047.011a.234.234 0 0 0 -.033.013.66.66 0 0 0 -.148.1 3.779 3.779 0 0 1 -.721.588 1.682 1.682 0 0 1 -.626.186c-.178.018-.3.022-.354.034s-.062.026-.047.014a.4.4 0 0 0 -.1.122c-.094.143-.184.4-.4.724a1.882 1.882 0 0 1 -.208.258l-.088.082-.046.039-.023.018-.04.031s-.086.059-.07.047l-.045.027a1.591 1.591 0 0 1 -.693.2 1.878 1.878 0 0 0 -.54.039c.038-.021-.02.013-.08.084s-.154.185-.281.319a2.05 2.05 0 0 1 -.256.229l-.042.03c-.057.04-.063.04-.1.061a1.258 1.258 0 0 1 -.172.088 1.838 1.838 0 0 1 -.665.144c-.192.007-.35-.005-.48-.011l-.173-.006h-.1a.477.477 0 0 0 -.109.02.86.86 0 0 0 -.093.031 1.6 1.6 0 0 0 -.235.135c-.175.116-.375.289-.609.474a3.333 3.333 0 0 1 -.932.555 2.217 2.217 0 0 1 -.279.083 2.388 2.388 0 0 1 -.31.042 4.615 4.615 0 0 1 -.5 0 1.061 1.061 0 0 0 -.476.034.707.707 0 0 0 -.257.28c-.11.171-.223.425-.395.715-.044.072-.092.148-.161.242-.037.052-.05.066-.074.1l-.051.063-.057.062a2.223 2.223 0 0 1 -.494.391c-.331.19-.584.28-.7.366a.689.689 0 0 0 -.065.047s0-.006-.032.03l-.035.039c-.026.03.014-.018.012-.014a2.454 2.454 0 0 0 -.14.261 1.768 1.768 0 0 1 -.446.56 1.854 1.854 0 0 1 -.619.321c-.381.112-.656.131-.808.184a.473.473 0 0 0 -.145.064c-.031.02-.111.1-.234.223l-.105.1c-.03.027-.114.092-.126.1a1.751 1.751 0 0 1 -.324.184 2.326 2.326 0 0 1 -.579.159l-.406.057c-.115.018-.233.041-.351.069a6.015 6.015 0 0 0 -1.344.486 1.851 1.851 0 0 0 -.256.154c-.079.059-.164.132-.254.214-.184.166-.384.373-.654.58a2.48 2.48 0 0 1 -.487.3 2.348 2.348 0 0 1 -.509.162 1.98 1.98 0 0 0 -.271.069.36.36 0 0 0 -.106.07 2.614 2.614 0 0 0 -.349.5 4.078 4.078 0 0 1 -.542.771 1.8 1.8 0 0 1 -.239.209c-.06.041-.122.079-.185.113a.493.493 0 0 1 -.066.032l-.045.019a1.513 1.513 0 0 1 -.667.113c-.362-.024-.605-.081-.67-.067a.222.222 0 0 0 .038-.035l-.039.028c-.007 0-.075.057 0-.006a.309.309 0 0 0 -.05.08 4.616 4.616 0 0 0 -.191.63 2.683 2.683 0 0 1 -.17.46 1.61 1.61 0 0 1 -.166.269 1.719 1.719 0 0 1 -.157.168c-.041.035-.054.042-.082.065l-.066.049-.043.025-.088.047a1.189 1.189 0 0 1 -.553.108 2.143 2.143 0 0 1 -.5-.092c-.12-.036-.234-.065-.269-.072a.375.375 0 0 0 -.068-.008c.02 0-.012 0-.016 0a.175.175 0 0 0 -.066.006 1.027 1.027 0 0 0 -.4.227 6.7 6.7 0 0 1 -1.225.939 1.7 1.7 0 0 1 -.234.092l-.083.024a.592.592 0 0 1 -.088.022l-.063.011a2.359 2.359 0 0 1 -.438.023 2.146 2.146 0 0 0 -.5.009c-.008 0 .011-.011-.026.007l-.039.017c-.026.013.013-.008.007 0a.464.464 0 0 0 -.073.046 1.175 1.175 0 0 0 -.166.166c-.122.142-.243.326-.413.524a1.8 1.8 0 0 1 -.314.3 1.3 1.3 0 0 1 -.241.14l-.075.029c.024-.008-.051.019-.057.02l-.033.009-.066.016a1.842 1.842 0 0 1 -.812-.073 1.769 1.769 0 0 0 -.237-.047.68.68 0 0 0 -.071 0 .3.3 0 0 0 -.057.009c-.031.008.02-.008 0 0a.531.531 0 0 0 -.253.224c-.193.261-.306.633-.568 1.015a1.737 1.737 0 0 1 -.507.5.929.929 0 0 1 -.417.133.81.81 0 0 1 -.438-.1c-.112-.062-.186-.122-.242-.158-.023-.017-.058-.033-.055-.034a.152.152 0 0 0 -.025-.009c-.051-.023-.129.014-.227.113-.192.2-.36.5-.59.766a2 2 0 0 1 -.194.195c-.042.034-.089.067-.135.1a.955.955 0 0 1 -.687.12c-.164-.027-.3-.069-.429-.094a1.307 1.307 0 0 0 -.17-.024.756.756 0 0 0 -.166.01 1.077 1.077 0 0 0 -.559.34 8.535 8.535 0 0 1 -.887.958 4.244 4.244 0 0 1 -.83.51c-.455.226-.706.334-.706.334z" fill="#76c199" transform="translate(-3347.376 -367.398)"/><path d="m3152.3 463.522a.83.83 0 0 1 -.5.3 1.172 1.172 0 0 1 -.717-.11 1.93 1.93 0 0 1 -.722-.674 3.583 3.583 0 0 0 -.7-.846 1.25 1.25 0 0 0 -.506-.212 4.519 4.519 0 0 0 -.669-.032 1.828 1.828 0 0 1 -.869-.216 2.024 2.024 0 0 1 -.618-.763 3.413 3.413 0 0 0 -.2-.316l-.024-.032c-.011-.015.019.025 0 0l-.018-.02-.072-.079c-.053-.062-.074-.057-.108-.092a1.9 1.9 0 0 0 -.66-.267c-.272-.067-.587-.118-.935-.236a2.478 2.478 0 0 1 -.531-.255 2.169 2.169 0 0 1 -.266-.2l-.093-.088c-.037-.039-.083-.087-.112-.122-.255-.3-.423-.594-.6-.791a1.1 1.1 0 0 0 -.123-.124.567.567 0 0 0 -.056-.043.161.161 0 0 0 -.027-.016c-.049-.029.017.008 0 0l-.113-.052a.037.037 0 0 1 -.025 0 1.142 1.142 0 0 0 -.151-.019c-.239-.019-.585.064-1.071.025a1.7 1.7 0 0 1 -.779-.27c-.022-.015-.03-.018-.064-.044l-.1-.076c-.059-.05-.1-.09-.145-.135a3.145 3.145 0 0 1 -.225-.26 3.741 3.741 0 0 0 -.565-.69 2.1 2.1 0 0 0 -.81-.232 3.081 3.081 0 0 1 -.693-.2 1.838 1.838 0 0 1 -.713-.561 4.248 4.248 0 0 1 -.564-1.256 2.33 2.33 0 0 0 -.171-.408c-.057-.095-.081-.091-.056-.076.042.015-.01-.007-.172.028l-.31.054-.146.024c-.05.008-.125.012-.187.018a3.107 3.107 0 0 1 -.783-.018 2.518 2.518 0 0 1 -.8-.259 4.675 4.675 0 0 1 -1.1-.911 5.6 5.6 0 0 0 -.8-.7l-.1-.073c-.027-.018.067.039.019.01l-.033-.018-.066-.037c0 .013.046.023.028.02a.181.181 0 0 0 -.039-.006 2.742 2.742 0 0 0 -.452.022 2.087 2.087 0 0 1 -.929-.109 1.541 1.541 0 0 1 -.262-.135l-.061-.041-.03-.021c-.032-.025.028.027-.079-.062l-.055-.051a1.73 1.73 0 0 1 -.193-.217 2 2 0 0 1 -.145-.23 3.284 3.284 0 0 1 -.26-.737c-.052-.209-.093-.391-.138-.527a.714.714 0 0 0 -.1-.217c.083.066-.087-.074-.025-.02.031.021.029.017.034.02s.01 0-.033 0c-.085-.008-.295.039-.617.032a2.8 2.8 0 0 1 -.412-.053 2.478 2.478 0 0 1 -.409-.117 2.534 2.534 0 0 1 -.7-.429c-.178-.148-.323-.281-.477-.428-.3-.3-.557-.571-.812-.795a2.134 2.134 0 0 0 -.725-.462 6.128 6.128 0 0 1 -.616-.192 1.5 1.5 0 0 1 -.435-.281 1.168 1.168 0 0 1 -.1-.1l-.054-.066-.022-.03a1.627 1.627 0 0 1 -.127-.205l-.119-.236-.013-.024c.008.008-.032-.042.023.025l-.057-.067c-.019-.022 0 .009 0 .008a.44.44 0 0 0 -.169-.05c-.135-.025-.333-.038-.577-.089a1.845 1.845 0 0 1 -.4-.134l-.052-.025-.026-.013-.05-.029-.057-.037a2.119 2.119 0 0 1 -.176-.13 3.106 3.106 0 0 1 -.456-.5c-.115-.15-.213-.285-.3-.382a.729.729 0 0 0 -.163-.147c.035-.007 0-.008 0-.008h-.031c-.041 0-.122.015-.241.03a1.168 1.168 0 0 1 -.5-.038.944.944 0 0 1 -.147-.061c-.007 0-.086-.049-.058-.033l-.04-.027a1.273 1.273 0 0 1 -.142-.116c-.032-.034-.061-.067-.089-.1a1.876 1.876 0 0 1 -.289-.645 1.85 1.85 0 0 0 -.116-.343.884.884 0 0 0 -.057-.091.559.559 0 0 0 -.105-.093 2.866 2.866 0 0 0 -.763-.279 2.039 2.039 0 0 1 -1.013-.58 1.927 1.927 0 0 1 -.29-.466 1.6 1.6 0 0 0 -.08-.147c-.008-.012.019.021 0 0l-.017-.021-.034-.043c-.021-.025-.021-.02-.031-.034a.931.931 0 0 0 -.548-.2c-.122-.015-.252-.023-.388-.032l-.1-.007-.08-.007-.049-.008a1.815 1.815 0 0 1 -.208-.04 1.475 1.475 0 0 1 -.8-.53c-.34-.44-.5-.84-.794-1.032a.991.991 0 0 0 -.474-.172 2.874 2.874 0 0 1 -.586-.08 1.043 1.043 0 0 1 -.445-.35l-.285-.337-.448-.533-.371-.446.434.385.518.465.328.3a.781.781 0 0 0 .355.228 2.933 2.933 0 0 0 .519 0 1.4 1.4 0 0 1 .684.163c.466.242.7.728 1 1.021a.872.872 0 0 0 .465.267 1.362 1.362 0 0 0 .181.017h.05-.016.132c.131 0 .273-.01.426-.006a1.642 1.642 0 0 1 1.028.325c.042.036.1.088.126.117l.037.04.018.02.036.045a2.305 2.305 0 0 1 .152.228 1.079 1.079 0 0 0 .2.28 1.19 1.19 0 0 0 .6.253 3.592 3.592 0 0 1 1.05.32 1.565 1.565 0 0 1 .3.216c.052.053.1.11.15.168s.052.075.081.115a2.486 2.486 0 0 1 .257.58.941.941 0 0 0 .124.277.129.129 0 0 0 -.048-.04l.028.016-.016-.009a.2.2 0 0 0 -.028-.014c-.041-.013-.042-.006.012-.017s.141-.032.275-.049c.028 0 .081-.008.128-.009h.075.032a1.173 1.173 0 0 1 .25.044 1.635 1.635 0 0 1 .7.441c.159.16.278.31.389.438a1.928 1.928 0 0 0 .285.287c.018.008-.011 0 .045.03l.059.034-.02-.011a.754.754 0 0 0 .143.035c.115.022.287.029.518.06a1.612 1.612 0 0 1 .855.355c.036.031.1.089.109.1l.047.052c.012.013.06.072.06.072l.037.051.062.1.145.263c.011.021.036.055.022.035l.021.027c-.006-.012.039.007.039.007.068.03.236.055.483.124a3.483 3.483 0 0 1 1.253.7c.337.278.624.57.891.812.131.122.279.254.4.356a1.059 1.059 0 0 0 .3.188.974.974 0 0 0 .162.043c.037.008.179.023.179.023.076.008.26-.033.574-.04a1.578 1.578 0 0 1 .553.095 1.386 1.386 0 0 1 .3.155 1.283 1.283 0 0 1 .208.168 2.018 2.018 0 0 1 .487.817c.082.244.129.454.176.634a1.957 1.957 0 0 0 .135.4c.007.005.025.042.016.025s-.057-.044.006.008l.056.051c-.1-.082-.026-.023-.047-.041a.77.77 0 0 0 .269.006 3.668 3.668 0 0 1 .752-.008 1.7 1.7 0 0 1 .568.172l.065.037.033.019.064.039.16.114a7.1 7.1 0 0 1 1 .893 3.52 3.52 0 0 0 .718.643 1.02 1.02 0 0 0 .329.107 1.634 1.634 0 0 0 .4.014c.037 0 .061 0 .108-.006l.146-.022.146-.022.128-.022a1.727 1.727 0 0 1 .991.068 1.572 1.572 0 0 1 .765.731 3.7 3.7 0 0 1 .264.673 3.316 3.316 0 0 0 .323.869c.065.1.211.191.564.267.169.039.37.076.6.143a2.564 2.564 0 0 1 .352.133 1.968 1.968 0 0 1 .346.207 3.761 3.761 0 0 1 .818 1.008 1.985 1.985 0 0 0 .12.159l.049.053a.248.248 0 0 0 .052.045.46.46 0 0 0 .219.087c.221.044.576-.013 1.028.029a2.164 2.164 0 0 1 .358.071c.071.023.146.053.217.083l.116.062s.072.04.05.029l.02.014.041.028c.026.019.055.037.078.057a1.722 1.722 0 0 1 .137.121 2.145 2.145 0 0 1 .219.248c.246.327.391.618.547.828l.046.063c.017.022.052.057.077.085.02.012.068.071.111.1a1.5 1.5 0 0 0 .311.18c.241.1.531.179.839.279a2.681 2.681 0 0 1 .931.485 2.051 2.051 0 0 1 .2.207l.065.084.017.021.025.032.045.069a3.306 3.306 0 0 1 .209.412c.057.126.108.242.161.336a1.212 1.212 0 0 0 .141.2 1.194 1.194 0 0 0 .574.2 4.789 4.789 0 0 1 .744.114 1.637 1.637 0 0 1 .668.372 3.826 3.826 0 0 1 .674 1.024 1.835 1.835 0 0 0 .555.678 1.041 1.041 0 0 0 .616.187.8.8 0 0 0 .545-.239z" fill="#76c199" transform="translate(-3111.89 -406.046)"/><path d="m3112.667 458.606a.972.972 0 0 0 .3.148c.49.134 1.056-.128 1.478.2.4.316.489 1.047.914 1.311s1.045-.054 1.384.362c.386.473.422.813.987 1.057.317.137.708 0 1 .214.407.29.455.941.849 1.231s.921.057 1.349.235c.687.286.947 1.458 1.657 1.641.25.065.513-.012.765.042.7.15 1.01 1.178 1.638 1.571.6.377 1.422.127 1.925.677.376.411.436 1.143.833 1.524.351.336.856.295 1.258.533.373.221.636.671 1.024.847a2.765 2.765 0 0 0 .914.122c.836.079 1.292.72 1.965 1.2.729.522 1.679.353 2.348.909.405.337.591.986 1.021 1.273.766.511 1.709.577 2.515 1.147.7.494 1.5 2.117 2.315 2.133.192 0 .38-.078.572-.067a1.354 1.354 0 0 1 .739.413l2.256 1.964a3.445 3.445 0 0 0 1.175.773 2.833 2.833 0 0 1 1.02.323c.511.4.7 1.449 1.3 1.434a4.99 4.99 0 0 0 .5-.127c.512-.068.884.537 1.262.962s1.133.6 1.293 0c.184.493.628 1.077.976.739a.757.757 0 0 0 .164-.294 2.368 2.368 0 0 0 -.268-2.064c-.519-.728-2.022-1.111-2.775-1.529l-3.62-2.01a92.248 92.248 0 0 1 -9.179-5.576 20.612 20.612 0 0 0 -2.946-1.924c-.821-.4-1.688-.641-2.508-1.04a25 25 0 0 1 -4.388-3.244c-1.208-.97-2.477-1.824-3.744-2.676l-7.742-5.211c-.721-.486-1.681-1.571-2.563-1.479-1.219.128-.716 1.722.037 2.256z" fill="#569b77" transform="translate(-3111.775 -421.683)"/><path d="m3392.035 441.4.069-.017a9.76 9.76 0 0 1 1.392.038c1.348-.1 2.238-1.838 3.543-2.261a5.733 5.733 0 0 0 1.2-.348c.627-.365.946-1.245 1.538-1.687.815-.609 1.93-.245 2.769-.805.505-.338.839-.968 1.328-1.341.879-.672 2.085-.4 2.969-1.059.692-.518 1.069-1.529 1.786-2s1.657-.282 2.4-.725c1.038-.617.874-1.584 2.116-1.634a1.414 1.414 0 0 0 1.137-.763 1.209 1.209 0 0 1 .306-.443.829.829 0 0 1 .418-.083c1.185-.089 1.9-1.831 3-2.263.621-.246 1.347-.048 1.91-.452.49-.353.744-1.095 1.266-1.374.6-.324 1.333.1 1.959-.162.691-.285 1.037-1.3 1.726-1.594.646-.276 1.066-.254 1.61-.824.5-.522.642-1.143 1.374-1.33a8.921 8.921 0 0 0 1.7-.337 3.55 3.55 0 0 0 .692-.475 6.43 6.43 0 0 1 2.424-1.586c.834-.143 1.43.4 2.167-.558.3-.39.526-.932.951-1.067.286-.09.588.035.881 0 .835-.1 1.252-1.367 2.049-1.685.523-.209 1.136.028 1.622-.285.6-.383.734-1.415 1.319-1.822.555-.386 1.27-.056 1.886-.265a1.776 1.776 0 0 0 .94-2.015c-.394-.9-2.023.179-2.647.542l-25.354 14.736-6.711 3.9c-1.71.994-3.421 1.989-5.085 3.094a47.983 47.983 0 0 1 -5.271 3.331c-1.369.669-2.8 1.119-4.181 1.768a31.728 31.728 0 0 0 -5.319 3.4c-.5.371-1.668.959-1.46 1.9.241 1.091 1.429.458 1.9-.009.528-.54 1.008-1.257 1.681-1.44z" fill="#4c8967" transform="translate(-3347.609 -382.008)"/><path d="m3117.041 253.545c-.494.217-.934-.624-.749-1.221a2.277 2.277 0 0 1 1.171-1.205 12.046 12.046 0 0 1 4.441-1.876 3.2 3.2 0 0 0 1.431-.344c.6-.393.9-1.227 1.377-1.82 1.033-1.283 2.744-1.282 3.99-2.249.6-.464 1.067-1.136 1.637-1.65 1.173-1.057 2.65-.337 3.868-1.376.628-.536 1.071-1.479 1.827-1.635.254-.053.519-.005.771-.074.939-.255 1.205-1.877 2.1-2.294.7-.324 1.5.2 2.213-.063.778-.293 1.181-1.433 1.962-1.712.524-.187 1.112.06 1.624-.171.671-.3 1.008-1.328 1.7-1.529a3.767 3.767 0 0 1 .94-.006 1.881 1.881 0 0 0 1.62-1.474c.078-.294 3.324-.3 3.836-.838.447-.474.857-1.086 1.441-1.219a4.428 4.428 0 0 0 .778-.122c.48-.2.708-.875 1.135-1.208.725-.567 1.849-.05 2.448-.8.293-.37.38-.975.754-1.216.352-.227.783-.019 1.178-.077 1.027-.15 1.483-1.974 2.516-2.037.335-.021.69.158 1-.007.417-.225.5-.954.907-1.208a1.262 1.262 0 0 1 .682-.11c1.654-.024 2.6-1.584 4.052-1.851.3-.056.617.042.923-.006 1.611-.255 2.721-2.36 4.359-.724.673.672.828 1.93 1.723 2.233.367.125.625-.373 1.057-.164.3.145.493.746.728 1.008.608.676 1.649.289 2.335.844.405.328.543.975.923 1.3.6.517 1.117.419 1.823.562a4.658 4.658 0 0 1 3.19 1.688 8.278 8.278 0 0 0 .611.979 2.829 2.829 0 0 0 1.3.74l2.983 1.031a1.9 1.9 0 0 1 .762.406c.39.387.516 1.088.937 1.424.631.5 1.464 0 2.144.341a10.046 10.046 0 0 1 1.609 1.428c.4.381.741 1.275 1.116 1.536.709.492 1.488-.015 2.259.761a7.377 7.377 0 0 0 1.626 1.282c.6.359.981.816 1.558 1.215.387.269.891.014 1.316.18.7.275.857 1.518 1.539 1.859.572.286 1.325-.172 1.8.308.253.256.348.723.648.887.322.177.73-.085 1.041.118.269.176.334.612.555.868.323.375.934.321 1.132.807a.861.861 0 0 1 -.443 1.032c-.527.232-1.263-.037-1.83.033-1.111.137-1.8.78-2.855 1.076-2.673.748-5.388-.649-8.014-1.614-2.53-.93-7.691-2.927-10.088-1.15a47.992 47.992 0 0 1 -16.286 8.126c-12.42 3.235-25.406-.1-38 1.882a20.263 20.263 0 0 1 -5.884.471z" fill="#65b28b" transform="translate(-3115.488 -220.801)"/><g fill="#569b77"><path d="m3588.636 321.7a.557.557 0 0 1 .013-.076.483.483 0 0 1 .083-.174.405.405 0 0 1 .217-.155.337.337 0 0 1 .16-.007l.037.008a.3.3 0 0 1 .042.015c.024.011.047.022.068.034a1.2 1.2 0 0 1 .172.136c0 .011.024.02.027.023a.16.16 0 0 0 .067.042.126.126 0 0 0 .1-.007.123.123 0 0 0 .04-.048.152.152 0 0 1 .028.076.268.268 0 0 1 -.092.212.29.29 0 0 1 -.124.07.309.309 0 0 1 -.038.007h-.048a.076.076 0 0 1 -.036 0l-.036-.008a.923.923 0 0 1 -.22-.107l-.035-.021a.4.4 0 0 0 -.083-.037.505.505 0 0 0 -.146-.012 1.507 1.507 0 0 0 -.196.029z" opacity=".66" transform="translate(-3518.359 -306.493)"/><path d="m3582.414 367.145a1.074 1.074 0 0 1 .026-.158 1.03 1.03 0 0 1 .174-.363.848.848 0 0 1 .453-.323.705.705 0 0 1 .333-.014l.077.017a.632.632 0 0 1 .088.031 1.533 1.533 0 0 1 .142.071 2.5 2.5 0 0 1 .359.283l.028.026c-.026 0 .021.015.028.023a.088.088 0 0 0 .026.033.422.422 0 0 0 .112.055.261.261 0 0 0 .21-.014.244.244 0 0 0 .083-.1l.021.034a.282.282 0 0 1 .038.124.559.559 0 0 1 -.192.441.606.606 0 0 1 -.257.145.657.657 0 0 1 -.08.015h-.1a.163.163 0 0 1 -.076-.008l-.075-.017a1.915 1.915 0 0 1 -.458-.223l-.073-.043c-.011 0-.008-.006-.022-.014l-.027-.012a.588.588 0 0 0 -.125-.051 1.044 1.044 0 0 0 -.3-.025 3.109 3.109 0 0 0 -.413.067z" opacity=".66" transform="translate(-3513.053 -344.866)"/><path d="m3466.822 254.575a1.155 1.155 0 0 1 .026-.157 1.028 1.028 0 0 1 .174-.362.838.838 0 0 1 .451-.322.7.7 0 0 1 .331-.014l.077.017a.59.59 0 0 1 .087.031 1.472 1.472 0 0 1 .142.071 2.456 2.456 0 0 1 .357.281l.028.026c-.026 0 .021.015.028.023a.083.083 0 0 0 .026.033.426.426 0 0 0 .112.054.258.258 0 0 0 .209-.014.247.247 0 0 0 .083-.1l.021.034a.274.274 0 0 1 .038.124.556.556 0 0 1 -.191.439.6.6 0 0 1 -.256.145.637.637 0 0 1 -.079.015h-.1a.16.16 0 0 1 -.075-.008l-.074-.017a1.916 1.916 0 0 1 -.457-.222l-.072-.043c-.011 0-.008-.006-.022-.014l-.027-.012a.587.587 0 0 0 -.125-.051 1.031 1.031 0 0 0 -.3-.025 3.107 3.107 0 0 0 -.412.068z" opacity=".66" transform="translate(-3414.471 -248.865)"/><path d="m3455.074 303.393a.782.782 0 0 1 .017-.1.7.7 0 0 1 .115-.24.562.562 0 0 1 .3-.213.466.466 0 0 1 .22-.009l.051.012a.433.433 0 0 1 .058.021.969.969 0 0 1 .093.047 1.628 1.628 0 0 1 .237.187l.019.017c-.017 0 .014.01.019.015a.219.219 0 0 0 .091.058.171.171 0 0 0 .139-.009.163.163 0 0 0 .055-.065l.014.022a.185.185 0 0 1 .024.082.368.368 0 0 1 -.126.291.4.4 0 0 1 -.17.1.464.464 0 0 1 -.053.01h-.066a.1.1 0 0 1 -.05-.005l-.049-.011a1.267 1.267 0 0 1 -.3-.147l-.047-.029a.54.54 0 0 0 -.116-.051.687.687 0 0 0 -.2-.017 2.08 2.08 0 0 0 -.275.034z" opacity=".66" transform="translate(-3404.452 -290.747)"/><path d="m3492.051 361.6a1.018 1.018 0 0 1 .025-.157 1.042 1.042 0 0 1 .174-.362.843.843 0 0 1 .452-.322.7.7 0 0 1 .331-.014l.077.018a.615.615 0 0 1 .088.031 1.523 1.523 0 0 1 .142.071 2.471 2.471 0 0 1 .358.282l.028.026c-.026 0 .021.015.028.023a.089.089 0 0 0 .026.033.413.413 0 0 0 .112.054.26.26 0 0 0 .209-.014.244.244 0 0 0 .082-.1l.021.034a.264.264 0 0 1 .038.124.555.555 0 0 1 -.191.44.605.605 0 0 1 -.256.145.645.645 0 0 1 -.08.015h-.1a.162.162 0 0 1 -.076-.008l-.074-.017a1.914 1.914 0 0 1 -.458-.222l-.072-.043c-.011 0-.008-.006-.023-.014l-.027-.012a.587.587 0 0 0 -.125-.051 1.04 1.04 0 0 0 -.3-.025 3.119 3.119 0 0 0 -.409.065z" opacity=".66" transform="translate(-3435.987 -340.135)"/><path d="m3525.641 276.323a1.344 1.344 0 0 1 .03-.185 1.227 1.227 0 0 1 .205-.427 1 1 0 0 1 .533-.38.827.827 0 0 1 .391-.016l.091.02a.742.742 0 0 1 .1.037 1.766 1.766 0 0 1 .167.084 2.926 2.926 0 0 1 .422.332l.034.03c-.031 0 .025.018.033.027s0 .01 0 .019l.026.02a.5.5 0 0 0 .132.064.3.3 0 0 0 .247-.016.289.289 0 0 0 .1-.116l.025.04a.322.322 0 0 1 .044.146.655.655 0 0 1 -.226.519.711.711 0 0 1 -.3.171.769.769 0 0 1 -.094.018h-.117a.19.19 0 0 1 -.089-.01l-.088-.02a2.24 2.24 0 0 1 -.54-.262l-.085-.051c-.013-.006-.009-.007-.027-.017l-.032-.015a.716.716 0 0 0 -.146-.06 1.23 1.23 0 0 0 -.357-.03 3.682 3.682 0 0 0 -.479.078z" opacity=".66" transform="translate(-3464.634 -267.279)"/><path d="m3391.885 323.239a1.34 1.34 0 0 1 .034-.207 1.374 1.374 0 0 1 .229-.478 1.115 1.115 0 0 1 .6-.425.927.927 0 0 1 .438-.018l.1.023a.846.846 0 0 1 .115.041 1.948 1.948 0 0 1 .187.094 3.232 3.232 0 0 1 .473.372l.038.034c-.034 0 .029.02.037.03s0 .011.005.021l.029.023a.553.553 0 0 0 .148.072.34.34 0 0 0 .276-.018.328.328 0 0 0 .109-.13l.028.045a.354.354 0 0 1 .049.163.733.733 0 0 1 -.252.581.8.8 0 0 1 -.338.191.887.887 0 0 1 -.1.02h-.131a.211.211 0 0 1 -.1-.011l-.1-.022a2.519 2.519 0 0 1 -.6-.294l-.1-.057c-.015-.006-.01-.008-.03-.019l-.036-.016a.781.781 0 0 0 -.164-.067 1.367 1.367 0 0 0 -.4-.033 4.115 4.115 0 0 0 -.544.085z" opacity=".66" transform="translate(-3350.562 -307.186)"/><path d="m3256.187 478.764a.373.373 0 0 1 .011-.065.417.417 0 0 1 .071-.149.35.35 0 0 1 .187-.133.291.291 0 0 1 .137-.006l.031.007a.235.235 0 0 1 .036.013.639.639 0 0 1 .059.029 1 1 0 0 1 .147.116c0 .009.021.017.023.02a.137.137 0 0 0 .057.036.107.107 0 0 0 .086-.006.1.1 0 0 0 .034-.041.133.133 0 0 1 .024.065.229.229 0 0 1 -.079.181.252.252 0 0 1 -.105.06l-.033.006h-.041a.067.067 0 0 1 -.031 0l-.031-.007a.79.79 0 0 1 -.188-.092l-.03-.018a.317.317 0 0 0 -.072-.032.426.426 0 0 0 -.125-.01 1.28 1.28 0 0 0 -.168.026z" opacity=".66" transform="translate(-3234.833 -440.496)"/><path d="m3297.669 446.989a.942.942 0 0 1 .192-.5.812.812 0 0 1 .435-.31.674.674 0 0 1 .319-.013l.074.017a.558.558 0 0 1 .084.03 1.441 1.441 0 0 1 .137.068 2.406 2.406 0 0 1 .344.271l.027.025c-.025 0 .021.015.027.022a.077.077 0 0 0 .025.032.4.4 0 0 0 .108.052.249.249 0 0 0 .2-.013.234.234 0 0 0 .079-.095l.021.033a.259.259 0 0 1 .036.119.534.534 0 0 1 -.184.423.578.578 0 0 1 -.247.14.615.615 0 0 1 -.077.014h-.1a.158.158 0 0 1 -.073-.008l-.071-.016a1.843 1.843 0 0 1 -.44-.214l-.07-.042c-.01 0-.007-.006-.021-.013l-.026-.012a.565.565 0 0 0 -.12-.049 1 1 0 0 0 -.292-.024 3.016 3.016 0 0 0 -.387.063z" opacity=".66" transform="translate(-3270.21 -412.991)"/><path d="m3521.24 478.255a1.631 1.631 0 0 1 .038-.229 1.507 1.507 0 0 1 .253-.527 1.23 1.23 0 0 1 .658-.469 1.024 1.024 0 0 1 .482-.02l.112.025a.869.869 0 0 1 .127.045 2.175 2.175 0 0 1 .206.1 3.627 3.627 0 0 1 .521.41l.042.037c-.038 0 .031.022.04.034s0 .012.006.023l.032.025a.614.614 0 0 0 .163.079.376.376 0 0 0 .3-.02.36.36 0 0 0 .12-.143l.031.049a.4.4 0 0 1 .054.18.806.806 0 0 1 -.278.64.877.877 0 0 1 -.373.211.946.946 0 0 1 -.116.022h-.145a.232.232 0 0 1 -.11-.012l-.108-.024a2.778 2.778 0 0 1 -.666-.324l-.105-.063c-.016-.007-.011-.009-.032-.02l-.04-.018a.845.845 0 0 0 -.181-.074 1.508 1.508 0 0 0 -.44-.037 4.544 4.544 0 0 0 -.591.1z" opacity=".66" transform="translate(-3460.881 -439.289)"/><path d="m3391.664 530.3a.383.383 0 0 1 .01-.062.409.409 0 0 1 .068-.142.334.334 0 0 1 .177-.127.277.277 0 0 1 .13-.005l.03.007a.227.227 0 0 1 .035.012.623.623 0 0 1 .056.028.961.961 0 0 1 .141.111.2.2 0 0 0 .077.054.1.1 0 0 0 .082-.005.1.1 0 0 0 .032-.039.121.121 0 0 1 .023.062.215.215 0 0 1 -.075.173.233.233 0 0 1 -.1.057.244.244 0 0 1 -.031.006h-.039a.061.061 0 0 1 -.029 0l-.03-.007a.76.76 0 0 1 -.18-.087l-.028-.017a.313.313 0 0 0 -.068-.03.4.4 0 0 0 -.119-.01 1.21 1.21 0 0 0 -.162.021z" opacity=".66" transform="translate(-3350.373 -484.467)"/><path d="m3345.255 377.167a.523.523 0 0 1 .014-.086.567.567 0 0 1 .095-.2.464.464 0 0 1 .248-.176.385.385 0 0 1 .182-.008l.042.01a.337.337 0 0 1 .048.017.822.822 0 0 1 .078.039 1.374 1.374 0 0 1 .2.154c0 .013.027.022.031.027a.177.177 0 0 0 .075.048.142.142 0 0 0 .115-.008.135.135 0 0 0 .045-.054.175.175 0 0 1 .032.086.305.305 0 0 1 -.1.241.33.33 0 0 1 -.141.079.32.32 0 0 1 -.043.008h-.055a.089.089 0 0 1 -.042 0l-.041-.009a1.05 1.05 0 0 1 -.25-.122l-.04-.024a.454.454 0 0 0 -.1-.042.569.569 0 0 0 -.166-.014 1.721 1.721 0 0 0 -.227.034z" opacity=".66" transform="translate(-3310.794 -353.751)"/><path d="m3353.239 546.725a.39.39 0 0 1 .011-.066.432.432 0 0 1 .073-.153.355.355 0 0 1 .19-.136.3.3 0 0 1 .14-.006l.032.007a.25.25 0 0 1 .037.013.626.626 0 0 1 .06.03 1.02 1.02 0 0 1 .151.119c0 .01.021.017.024.02a.137.137 0 0 0 .058.037.11.11 0 0 0 .088-.006.1.1 0 0 0 .035-.042.129.129 0 0 1 .024.067.231.231 0 0 1 -.081.185.25.25 0 0 1 -.108.061.261.261 0 0 1 -.034.006h-.042a.068.068 0 0 1 -.032 0l-.031-.007a.8.8 0 0 1 -.193-.094l-.031-.018a.343.343 0 0 0 -.073-.033.445.445 0 0 0 -.128-.011 1.312 1.312 0 0 0 -.17.027z" opacity=".66" transform="translate(-3317.603 -498.45)"/><path d="m3483.1 466.672a1.094 1.094 0 0 1 .026-.162 1.056 1.056 0 0 1 .179-.372.867.867 0 0 1 .464-.331.723.723 0 0 1 .341-.014l.079.018a.614.614 0 0 1 .09.032 1.5 1.5 0 0 1 .146.073 2.521 2.521 0 0 1 .368.29l.029.026c-.027 0 .022.016.029.024a.086.086 0 0 0 .027.034.431.431 0 0 0 .115.056.266.266 0 0 0 .215-.014.253.253 0 0 0 .084-.1l.022.035a.274.274 0 0 1 .039.127.572.572 0 0 1 -.2.452.595.595 0 0 1 -.346.164h-.1a.168.168 0 0 1 -.078-.008l-.077-.017a1.956 1.956 0 0 1 -.47-.229l-.074-.044c-.012 0-.008-.006-.023-.014l-.028-.013a.61.61 0 0 0 -.127-.052 1.062 1.062 0 0 0 -.312-.026 3.19 3.19 0 0 0 -.418.065z" opacity=".66" transform="translate(-3428.35 -429.728)"/><path d="m3494.635 436.579a.493.493 0 0 1 .012-.073.479.479 0 0 1 .081-.168.391.391 0 0 1 .209-.149.328.328 0 0 1 .154-.006l.035.008a.271.271 0 0 1 .041.014.726.726 0 0 1 .065.033 1.136 1.136 0 0 1 .166.131c0 .011.023.019.026.023a.154.154 0 0 0 .064.041.12.12 0 0 0 .1-.007.112.112 0 0 0 .038-.046.146.146 0 0 1 .027.073.258.258 0 0 1 -.089.2.28.28 0 0 1 -.119.067.3.3 0 0 1 -.037.007h-.046a.073.073 0 0 1 -.035 0l-.035-.008a.878.878 0 0 1 -.212-.1l-.034-.02a.367.367 0 0 0 -.081-.036.482.482 0 0 0 -.141-.012 1.443 1.443 0 0 0 -.189.028z" opacity=".66" transform="translate(-3438.191 -404.482)"/><path d="m3586.25 465.279a.581.581 0 0 1 .016-.1.644.644 0 0 1 .107-.223.525.525 0 0 1 .279-.2.436.436 0 0 1 .2-.009l.048.011a.4.4 0 0 1 .054.019.926.926 0 0 1 .087.044 1.535 1.535 0 0 1 .221.174c0 .014.031.025.035.03a.2.2 0 0 0 .085.054.159.159 0 0 0 .129-.009.15.15 0 0 0 .051-.061l.013.021a.166.166 0 0 1 .023.076.343.343 0 0 1 -.118.271.374.374 0 0 1 -.158.089.412.412 0 0 1 -.049.009h-.061a.1.1 0 0 1 -.047 0l-.046-.01a1.155 1.155 0 0 1 -.282-.137l-.045-.027a.5.5 0 0 0 -.107-.047.642.642 0 0 0 -.187-.016 1.94 1.94 0 0 0 -.248.041z" opacity=".66" transform="translate(-3516.324 -428.844)"/><path d="m3138.863 432.316a1.461 1.461 0 0 1 .035-.215 1.413 1.413 0 0 1 .238-.5 1.156 1.156 0 0 1 .619-.441.961.961 0 0 1 .454-.019l.106.024a.886.886 0 0 1 .12.043 2.043 2.043 0 0 1 .194.1 3.4 3.4 0 0 1 .491.386l.039.035c-.036 0 .029.021.038.031s0 .012.006.022l.03.024a.569.569 0 0 0 .154.074.355.355 0 0 0 .287-.019.339.339 0 0 0 .113-.135l.029.046a.374.374 0 0 1 .051.17.758.758 0 0 1 -.262.6.825.825 0 0 1 -.351.2.9.9 0 0 1 -.109.02h-.136a.223.223 0 0 1 -.1-.011l-.1-.023a2.61 2.61 0 0 1 -.626-.3l-.1-.059c-.015-.006-.011-.008-.031-.019l-.037-.017a.812.812 0 0 0 -.17-.07 1.422 1.422 0 0 0 -.415-.034 4.285 4.285 0 0 0 -.567.087z" opacity=".66" transform="translate(-3134.774 -400.174)"/><path d="m3494.871 263.112a1.384 1.384 0 0 1 .033-.2 1.325 1.325 0 0 1 .224-.467 1.086 1.086 0 0 1 .582-.415.906.906 0 0 1 .428-.018l.1.022a.86.86 0 0 1 .113.04 1.947 1.947 0 0 1 .182.092 3.156 3.156 0 0 1 .461.363l.037.033c-.034 0 .027.02.036.03s0 .011 0 .02l.029.022a.534.534 0 0 0 .144.07.334.334 0 0 0 .27-.018.314.314 0 0 0 .106-.127l.027.044a.355.355 0 0 1 .048.16.715.715 0 0 1 -.247.567.778.778 0 0 1 -.331.187.835.835 0 0 1 -.1.019h-.128a.205.205 0 0 1 -.1-.01l-.1-.021a2.458 2.458 0 0 1 -.589-.287l-.093-.056c-.014-.006-.01-.008-.029-.018l-.035-.016a.759.759 0 0 0 -.16-.065 1.334 1.334 0 0 0 -.39-.032 4.014 4.014 0 0 0 -.518.081z" opacity=".66" transform="translate(-3438.392 -255.93)"/><path d="m3197.071 420.4a.877.877 0 0 1 .021-.129.856.856 0 0 1 .143-.3.693.693 0 0 1 .372-.265.578.578 0 0 1 .273-.011l.063.014a.527.527 0 0 1 .072.026 1.2 1.2 0 0 1 .116.058 2.02 2.02 0 0 1 .295.232l.024.021c-.021 0 .017.012.023.019a.271.271 0 0 0 .113.072.213.213 0 0 0 .172-.011.2.2 0 0 0 .068-.081l.017.028a.22.22 0 0 1 .031.1.457.457 0 0 1 -.157.362.5.5 0 0 1 -.211.119.537.537 0 0 1 -.066.012h-.082a.131.131 0 0 1 -.062-.007l-.062-.014a1.574 1.574 0 0 1 -.376-.183l-.06-.036a.666.666 0 0 0 -.143-.063.856.856 0 0 0 -.25-.021 2.564 2.564 0 0 0 -.334.058z" opacity=".66" transform="translate(-3184.416 -390.415)"/><path d="m3612.29 449.751a.6.6 0 0 1 .014-.086.572.572 0 0 1 .1-.2.465.465 0 0 1 .248-.177.383.383 0 0 1 .182-.008l.042.01a.359.359 0 0 1 .048.017.822.822 0 0 1 .078.039 1.354 1.354 0 0 1 .2.155c0 .013.027.022.031.027a.176.176 0 0 0 .076.048.141.141 0 0 0 .114-.008.135.135 0 0 0 .045-.054.18.18 0 0 1 .032.087.305.305 0 0 1 -.1.241.33.33 0 0 1 -.141.079.324.324 0 0 1 -.043.008h-.055a.087.087 0 0 1 -.042 0l-.041-.009a1.04 1.04 0 0 1 -.251-.122l-.04-.024a.451.451 0 0 0 -.1-.042.568.568 0 0 0 -.166-.014 1.72 1.72 0 0 0 -.231.033z" opacity=".66" transform="translate(-3538.532 -415.652)"/><path d="m3529.609 318.537a.549.549 0 0 1 .015-.09.6.6 0 0 1 .1-.208.488.488 0 0 1 .259-.185.4.4 0 0 1 .19-.008l.044.01a.358.358 0 0 1 .05.018.843.843 0 0 1 .081.041 1.462 1.462 0 0 1 .206.162c0 .013.028.023.032.028a.188.188 0 0 0 .08.05.147.147 0 0 0 .12-.008.14.14 0 0 0 .047-.056.18.18 0 0 1 .033.09.317.317 0 0 1 -.109.252.344.344 0 0 1 -.147.083.362.362 0 0 1 -.046.009h-.057a.091.091 0 0 1 -.043 0l-.043-.01a1.1 1.1 0 0 1 -.262-.128l-.041-.025a.475.475 0 0 0 -.1-.044.6.6 0 0 0 -.174-.014 1.8 1.8 0 0 0 -.235.033z" opacity=".66" transform="translate(-3468.019 -303.728)"/><path d="m3582.736 405a1.069 1.069 0 0 1 .216-.562.913.913 0 0 1 .488-.348.76.76 0 0 1 .358-.015l.083.019a.656.656 0 0 1 .095.034 1.511 1.511 0 0 1 .153.077 2.685 2.685 0 0 1 .388.3l.031.028c-.028 0 .023.016.03.025a.091.091 0 0 0 .028.036.448.448 0 0 0 .121.059.28.28 0 0 0 .227-.015.267.267 0 0 0 .089-.107l.023.037a.3.3 0 0 1 .041.134.6.6 0 0 1 -.207.475.652.652 0 0 1 -.277.157.7.7 0 0 1 -.086.016h-.107a.173.173 0 0 1 -.082-.009l-.081-.018a2.057 2.057 0 0 1 -.495-.24l-.078-.047c-.012-.005-.008-.007-.024-.015l-.029-.013a.638.638 0 0 0 -.134-.055 1.119 1.119 0 0 0 -.328-.027 3.357 3.357 0 0 0 -.443.074z" opacity=".66" transform="translate(-3513.327 -377.094)"/><path d="m3521.051 403.5a.567.567 0 0 1 .012-.074.481.481 0 0 1 .082-.17.4.4 0 0 1 .212-.151.328.328 0 0 1 .155-.007l.037.008a.344.344 0 0 1 .041.015.713.713 0 0 1 .066.033 1.131 1.131 0 0 1 .168.132c0 .011.023.019.027.023a.151.151 0 0 0 .064.041.121.121 0 0 0 .1-.006.117.117 0 0 0 .039-.046.149.149 0 0 1 .027.074.259.259 0 0 1 -.089.206.285.285 0 0 1 -.12.068.313.313 0 0 1 -.038.007h-.046a.075.075 0 0 1 -.036 0l-.035-.008a.894.894 0 0 1 -.214-.1l-.034-.02a.375.375 0 0 0 -.081-.036.488.488 0 0 0 -.142-.012 1.447 1.447 0 0 0 -.195.023z" opacity=".66" transform="translate(-3460.72 -376.267)"/><path d="m3379.009 314.474a1.336 1.336 0 0 1 .029-.18 1.188 1.188 0 0 1 .2-.414.966.966 0 0 1 .517-.368.8.8 0 0 1 .379-.016l.088.02a.7.7 0 0 1 .1.036 1.767 1.767 0 0 1 .162.081 2.836 2.836 0 0 1 .41.323l.033.029c-.03 0 .024.017.032.026a.1.1 0 0 0 .03.038.483.483 0 0 0 .128.062.3.3 0 0 0 .239-.016.28.28 0 0 0 .094-.113l.024.039a.315.315 0 0 1 .042.142.633.633 0 0 1 -.219.5.689.689 0 0 1 -.293.166.722.722 0 0 1 -.091.017h-.114a.183.183 0 0 1 -.086-.009l-.085-.019a2.186 2.186 0 0 1 -.523-.254l-.082-.049c-.013-.005-.009-.007-.026-.016l-.031-.014a.678.678 0 0 0 -.142-.058 1.18 1.18 0 0 0 -.347-.029 3.577 3.577 0 0 0 -.468.076z" opacity=".66" transform="translate(-3339.581 -299.841)"/><path d="m3526.627 429.776a.552.552 0 0 1 .014-.089.589.589 0 0 1 .1-.2.478.478 0 0 1 .255-.182.4.4 0 0 1 .187-.008l.043.01a.358.358 0 0 1 .049.018.833.833 0 0 1 .08.04 1.371 1.371 0 0 1 .2.159c0 .013.028.023.032.028a.184.184 0 0 0 .078.049.146.146 0 0 0 .118-.008.14.14 0 0 0 .046-.055.175.175 0 0 1 .033.089.312.312 0 0 1 -.108.248.337.337 0 0 1 -.144.082.407.407 0 0 1 -.045.008h-.056a.091.091 0 0 1 -.042 0l-.042-.009a1.074 1.074 0 0 1 -.258-.125l-.041-.024a.446.446 0 0 0 -.1-.043.58.58 0 0 0 -.171-.014 1.756 1.756 0 0 0 -.228.026z" opacity=".66" transform="translate(-3465.475 -398.605)"/><path d="m3456.529 542.1a.521.521 0 0 1 .014-.086.566.566 0 0 1 .095-.2.462.462 0 0 1 .247-.176.383.383 0 0 1 .181-.008l.042.01a.311.311 0 0 1 .047.017.793.793 0 0 1 .078.039 1.347 1.347 0 0 1 .2.154c0 .013.027.022.031.026a.181.181 0 0 0 .076.048.141.141 0 0 0 .114-.008.136.136 0 0 0 .045-.054.174.174 0 0 1 .032.086.3.3 0 0 1 -.1.24.333.333 0 0 1 -.14.079.357.357 0 0 1 -.043.008h-.055a.091.091 0 0 1 -.041 0l-.041-.009a1.046 1.046 0 0 1 -.25-.122l-.04-.024a.442.442 0 0 0 -.095-.042.561.561 0 0 0 -.166-.014 1.692 1.692 0 0 0 -.231.036z" opacity=".66" transform="translate(-3405.693 -494.412)"/><path d="m3417.4 300.8a.363.363 0 0 1 .01-.062.4.4 0 0 1 .068-.142.331.331 0 0 1 .178-.127.279.279 0 0 1 .13-.005l.03.007.034.012a.535.535 0 0 1 .056.028.959.959 0 0 1 .141.111.2.2 0 0 0 .077.054.1.1 0 0 0 .082-.005.1.1 0 0 0 .033-.039.127.127 0 0 1 .023.062.219.219 0 0 1 -.075.173.237.237 0 0 1 -.1.057l-.031.006h-.039a.064.064 0 0 1 -.03 0l-.029-.007a.735.735 0 0 1 -.18-.088l-.028-.017a.326.326 0 0 0 -.069-.03.4.4 0 0 0 -.119-.01 1.211 1.211 0 0 0 -.162.022z" opacity=".66" transform="translate(-3372.319 -288.731)"/><path d="m3564.145 450.81a.9.9 0 0 1 .022-.132.862.862 0 0 1 .146-.305.71.71 0 0 1 .381-.271.592.592 0 0 1 .279-.012l.065.015a.5.5 0 0 1 .074.026 1.2 1.2 0 0 1 .12.06 2.056 2.056 0 0 1 .3.238l.024.022c-.022 0 .018.013.023.019a.28.28 0 0 0 .116.074.219.219 0 0 0 .177-.012.21.21 0 0 0 .069-.083l.018.029a.231.231 0 0 1 .032.1.469.469 0 0 1 -.161.371.514.514 0 0 1 -.216.122.585.585 0 0 1 -.067.013h-.084a.136.136 0 0 1 -.064-.007l-.062-.014a1.6 1.6 0 0 1 -.386-.187l-.061-.036c-.009 0-.006 0-.019-.012l-.023-.01a.518.518 0 0 0 -.1-.043.873.873 0 0 0 -.255-.021 2.635 2.635 0 0 0 -.348.056z" opacity=".66" transform="translate(-3497.472 -416.338)"/><path d="m3482.963 286.231a.455.455 0 0 1 .093-.243.4.4 0 0 1 .211-.151.331.331 0 0 1 .155-.006l.036.008a.259.259 0 0 1 .041.015c.023.01.046.022.066.033a1.205 1.205 0 0 1 .167.132c0 .011.023.019.026.023a.155.155 0 0 0 .065.041.121.121 0 0 0 .1-.006.112.112 0 0 0 .039-.046.143.143 0 0 1 .027.074.258.258 0 0 1 -.089.206.278.278 0 0 1 -.12.068.317.317 0 0 1 -.037.007h-.046a.075.075 0 0 1 -.035 0l-.035-.008a.9.9 0 0 1 -.214-.1l-.034-.02a.381.381 0 0 0 -.082-.036.49.49 0 0 0 -.142-.012 1.449 1.449 0 0 0 -.192.021z" opacity=".66" transform="translate(-3428.237 -276.255)"/><path d="m3500.314 317.367a.466.466 0 0 1 .095-.246.4.4 0 0 1 .213-.153.335.335 0 0 1 .157-.006l.036.008a.305.305 0 0 1 .042.015.745.745 0 0 1 .067.034 1.227 1.227 0 0 1 .169.134c0 .011.023.019.026.023a.157.157 0 0 0 .065.042.123.123 0 0 0 .1-.007.116.116 0 0 0 .039-.047.152.152 0 0 1 .028.075.264.264 0 0 1 -.09.208.292.292 0 0 1 -.122.069.315.315 0 0 1 -.038.007h-.047a.074.074 0 0 1 -.036 0l-.035-.008a.889.889 0 0 1 -.216-.105l-.034-.02a.384.384 0 0 0 -.083-.037.487.487 0 0 0 -.144-.012 1.479 1.479 0 0 0 -.192.026z" opacity=".66" transform="translate(-3443.035 -302.805)"/><path d="m3693.292 404.034a1.04 1.04 0 0 1 .024-.146.954.954 0 0 1 .161-.335.779.779 0 0 1 .418-.3.649.649 0 0 1 .307-.013l.071.016a.58.58 0 0 1 .081.029 1.32 1.32 0 0 1 .131.066 2.29 2.29 0 0 1 .332.261l.026.024c-.024 0 .02.014.026.021a.076.076 0 0 0 .024.031.383.383 0 0 0 .1.05.239.239 0 0 0 .194-.013.229.229 0 0 0 .076-.091l.02.031a.251.251 0 0 1 .035.114.514.514 0 0 1 -.177.407.561.561 0 0 1 -.237.134.62.62 0 0 1 -.074.014h-.092a.153.153 0 0 1 -.07-.008l-.069-.015a1.776 1.776 0 0 1 -.423-.206l-.067-.04c-.01 0-.007-.005-.021-.013l-.025-.011a.535.535 0 0 0 -.115-.047.962.962 0 0 0 -.28-.023 2.893 2.893 0 0 0 -.376.063z" opacity=".66" transform="translate(-3607.614 -376.384)"/><path d="m3650.666 413.464a.475.475 0 0 1 .012-.071.464.464 0 0 1 .079-.164.385.385 0 0 1 .205-.146.318.318 0 0 1 .15-.006l.035.008a.282.282 0 0 1 .04.014.644.644 0 0 1 .064.032 1.079 1.079 0 0 1 .163.128c0 .01.023.019.026.022a.15.15 0 0 0 .063.04.118.118 0 0 0 .1-.006.112.112 0 0 0 .038-.045.144.144 0 0 1 .026.072.252.252 0 0 1 -.087.2.272.272 0 0 1 -.116.066.278.278 0 0 1 -.036.007h-.045a.072.072 0 0 1 -.034 0l-.034-.008a.864.864 0 0 1 -.208-.1l-.033-.02a.376.376 0 0 0 -.079-.035.472.472 0 0 0 -.138-.011 1.419 1.419 0 0 0 -.191.023z" opacity=".66" transform="translate(-3571.261 -384.776)"/><path d="m3509.851 509.62a.406.406 0 0 1 .011-.07.471.471 0 0 1 .077-.16.376.376 0 0 1 .2-.143.311.311 0 0 1 .147-.006l.034.008a.253.253 0 0 1 .039.014c.022.01.043.021.063.031a1.081 1.081 0 0 1 .159.125c0 .01.022.018.025.021a.148.148 0 0 0 .061.039.115.115 0 0 0 .093-.006.113.113 0 0 0 .037-.044.142.142 0 0 1 .026.07.245.245 0 0 1 -.085.195.271.271 0 0 1 -.113.064l-.035.006h-.044a.072.072 0 0 1 -.034 0l-.033-.007a.842.842 0 0 1 -.2-.1l-.032-.019a.366.366 0 0 0 -.077-.034.46.46 0 0 0 -.134-.011 1.386 1.386 0 0 0 -.185.027z" opacity=".66" transform="translate(-3451.168 -466.789)"/><path d="m3434.32 277.415a1.518 1.518 0 0 1 .035-.215 1.412 1.412 0 0 1 .238-.5 1.154 1.154 0 0 1 .619-.441.962.962 0 0 1 .454-.019l.105.024a.841.841 0 0 1 .12.043 2.079 2.079 0 0 1 .194.1 3.424 3.424 0 0 1 .49.386l.039.035c-.036 0 .029.021.038.031s0 .012.006.022l.03.024a.575.575 0 0 0 .153.074.354.354 0 0 0 .287-.019.337.337 0 0 0 .113-.135l.029.046a.373.373 0 0 1 .051.169.759.759 0 0 1 -.262.6.822.822 0 0 1 -.351.2.929.929 0 0 1 -.109.02h-.136a.222.222 0 0 1 -.1-.011l-.1-.023a2.612 2.612 0 0 1 -.626-.3l-.1-.059c-.015-.006-.01-.008-.031-.019l-.037-.017a.8.8 0 0 0 -.17-.069 1.417 1.417 0 0 0 -.415-.034 4.278 4.278 0 0 0 -.564.087z" opacity=".66" transform="translate(-3386.752 -268.069)"/><path d="m3312.143 419.786a1.337 1.337 0 0 1 .034-.207 1.36 1.36 0 0 1 .229-.477 1.112 1.112 0 0 1 .595-.425.927.927 0 0 1 .437-.018l.1.023a.842.842 0 0 1 .116.041 2 2 0 0 1 .187.094 3.247 3.247 0 0 1 .472.371l.038.034c-.034 0 .028.02.037.03s0 .011.005.021l.029.023a.559.559 0 0 0 .148.072.34.34 0 0 0 .275-.018.323.323 0 0 0 .108-.13l.028.045a.36.36 0 0 1 .049.163.73.73 0 0 1 -.252.58.792.792 0 0 1 -.338.191.85.85 0 0 1 -.1.02h-.131a.215.215 0 0 1 -.1-.011l-.1-.022a2.518 2.518 0 0 1 -.6-.293l-.1-.057c-.015-.006-.011-.008-.03-.019l-.036-.016a.775.775 0 0 0 -.164-.067 1.374 1.374 0 0 0 -.4-.033 4.1 4.1 0 0 0 -.536.085z" opacity=".66" transform="translate(-3282.554 -389.527)"/><path d="m3176.059 447.146a.876.876 0 0 1 .021-.125.822.822 0 0 1 .138-.288.673.673 0 0 1 .36-.257.56.56 0 0 1 .264-.011l.062.014a.5.5 0 0 1 .07.025 1.17 1.17 0 0 1 .113.057 2 2 0 0 1 .285.224l.023.02c-.021 0 .017.012.022.018a.262.262 0 0 0 .11.07.207.207 0 0 0 .167-.011.2.2 0 0 0 .065-.078l.017.027a.21.21 0 0 1 .03.1.441.441 0 0 1 -.152.35.48.48 0 0 1 -.2.116.51.51 0 0 1 -.063.012h-.079a.13.13 0 0 1 -.061-.006l-.059-.013a1.527 1.527 0 0 1 -.365-.177l-.057-.034a.654.654 0 0 0 -.138-.061.835.835 0 0 0 -.241-.02 2.477 2.477 0 0 0 -.332.048z" opacity=".66" transform="translate(-3166.496 -413.247)"/><path d="m3413.265 558.316a1.2 1.2 0 0 1 .243-.634 1.031 1.031 0 0 1 .551-.393.857.857 0 0 1 .4-.017l.094.021a.76.76 0 0 1 .107.038 1.844 1.844 0 0 1 .172.086 2.982 2.982 0 0 1 .437.344l.035.031c-.032 0 .026.018.034.028s0 .01 0 .019l.027.021a.513.513 0 0 0 .137.066.317.317 0 0 0 .255-.017.3.3 0 0 0 .1-.12l.025.041a.331.331 0 0 1 .046.151.676.676 0 0 1 -.233.537.737.737 0 0 1 -.312.177.776.776 0 0 1 -.1.018h-.122a.2.2 0 0 1 -.092-.01l-.09-.021a2.323 2.323 0 0 1 -.558-.271l-.088-.053c-.013-.006-.01-.007-.027-.017l-.033-.015a.736.736 0 0 0 -.151-.062 1.271 1.271 0 0 0 -.37-.031 3.818 3.818 0 0 0 -.487.083z" opacity=".66" transform="translate(-3368.795 -507.743)"/><path d="m3421.672 373.22a1.059 1.059 0 0 1 .027-.169 1.112 1.112 0 0 1 .187-.39.909.909 0 0 1 .486-.346.753.753 0 0 1 .356-.015l.083.019a.647.647 0 0 1 .094.034 1.54 1.54 0 0 1 .152.076 2.663 2.663 0 0 1 .385.3l.031.028c-.028 0 .023.016.03.025a.092.092 0 0 0 .028.036.451.451 0 0 0 .12.058.278.278 0 0 0 .225-.015.261.261 0 0 0 .089-.106l.022.036a.286.286 0 0 1 .041.133.6.6 0 0 1 -.206.473.653.653 0 0 1 -.276.156.712.712 0 0 1 -.085.016h-.107a.173.173 0 0 1 -.081-.009l-.081-.018a2.056 2.056 0 0 1 -.492-.239l-.078-.046c-.012-.005-.009-.007-.024-.015l-.029-.013a.635.635 0 0 0 -.133-.055 1.112 1.112 0 0 0 -.326-.027 3.353 3.353 0 0 0 -.438.073z" opacity=".66" transform="translate(-3375.965 -349.993)"/><path d="m3468.125 377.265a.455.455 0 0 1 .013-.082.525.525 0 0 1 .091-.188.436.436 0 0 1 .234-.167.366.366 0 0 1 .172-.007l.04.009a.324.324 0 0 1 .046.016.8.8 0 0 1 .073.037 1.3 1.3 0 0 1 .187.147c0 .012.026.021.029.025a.173.173 0 0 0 .072.045.133.133 0 0 0 .108-.007.127.127 0 0 0 .043-.051.166.166 0 0 1 .03.082.287.287 0 0 1 -.1.229.315.315 0 0 1 -.133.075.367.367 0 0 1 -.042.008h-.052a.083.083 0 0 1 -.039 0l-.039-.009a1 1 0 0 1 -.238-.116l-.037-.023a.433.433 0 0 0 -.09-.04.538.538 0 0 0 -.158-.013 1.612 1.612 0 0 0 -.21.03z" opacity=".66" transform="translate(-3415.582 -353.854)"/><path d="m3383.976 346.987a.377.377 0 0 1 .01-.061.414.414 0 0 1 .067-.141.33.33 0 0 1 .176-.125.272.272 0 0 1 .129-.005l.03.007a.231.231 0 0 1 .034.012.537.537 0 0 1 .055.028.971.971 0 0 1 .14.11.2.2 0 0 0 .076.053.1.1 0 0 0 .082-.005.1.1 0 0 0 .032-.038.123.123 0 0 1 .023.061.218.218 0 0 1 -.075.171.231.231 0 0 1 -.1.056l-.031.006h-.039a.063.063 0 0 1 -.029 0l-.029-.007a.737.737 0 0 1 -.178-.086l-.028-.017a.307.307 0 0 0 -.067-.03.411.411 0 0 0 -.118-.01 1.22 1.22 0 0 0 -.16.021z" opacity=".66" transform="translate(-3343.817 -328.129)"/><path d="m3367.766 408.125a1.256 1.256 0 0 1 .255-.664 1.078 1.078 0 0 1 .577-.412.9.9 0 0 1 .424-.018l.1.022a.756.756 0 0 1 .112.04 1.859 1.859 0 0 1 .181.091 3.136 3.136 0 0 1 .458.36l.036.033c-.033 0 .028.019.036.029s0 .011.005.02l.028.022a.537.537 0 0 0 .143.069.33.33 0 0 0 .267-.018.313.313 0 0 0 .105-.126l.027.043a.337.337 0 0 1 .048.158.709.709 0 0 1 -.244.562.769.769 0 0 1 -.328.185.808.808 0 0 1 -.1.019h-.127a.205.205 0 0 1 -.1-.01l-.1-.021a2.441 2.441 0 0 1 -.584-.284l-.093-.055c-.014-.006-.01-.007-.028-.018l-.035-.016a.761.761 0 0 0 -.159-.065 1.329 1.329 0 0 0 -.387-.032 3.987 3.987 0 0 0 -.517.086z" opacity=".66" transform="translate(-3329.992 -379.611)"/><path d="m3430.459 336.122a1.091 1.091 0 0 1 .027-.164 1.072 1.072 0 0 1 .181-.377.878.878 0 0 1 .471-.335.727.727 0 0 1 .345-.014l.08.018a.649.649 0 0 1 .091.033 1.544 1.544 0 0 1 .147.074 2.6 2.6 0 0 1 .373.293l.029.027c-.027 0 .022.016.029.024a.09.09 0 0 0 .027.035.439.439 0 0 0 .117.057.269.269 0 0 0 .218-.014.253.253 0 0 0 .085-.1l.022.035a.28.28 0 0 1 .039.129.578.578 0 0 1 -.2.458.632.632 0 0 1 -.267.151.68.68 0 0 1 -.083.016h-.1a.166.166 0 0 1 -.079-.008l-.078-.017a1.991 1.991 0 0 1 -.476-.231l-.075-.045c-.011 0-.008-.006-.023-.015l-.028-.013a.6.6 0 0 0 -.129-.053 1.072 1.072 0 0 0 -.315-.026 3.233 3.233 0 0 0 -.428.062z" opacity=".66" transform="translate(-3383.459 -318.38)"/><path d="m3267.078 432.31a1.443 1.443 0 0 1 .033-.2 1.3 1.3 0 0 1 .22-.459 1.069 1.069 0 0 1 .572-.408.888.888 0 0 1 .419-.018l.1.022a.781.781 0 0 1 .111.04 1.866 1.866 0 0 1 .179.09 3.118 3.118 0 0 1 .454.357l.036.032c-.033 0 .027.019.035.029s0 .011.005.02l.028.022a.531.531 0 0 0 .142.069.328.328 0 0 0 .265-.018.312.312 0 0 0 .1-.125l.027.043a.342.342 0 0 1 .047.157.7.7 0 0 1 -.242.557.763.763 0 0 1 -.324.183.856.856 0 0 1 -.1.019h-.125a.206.206 0 0 1 -.1-.01l-.094-.021a2.427 2.427 0 0 1 -.579-.281l-.091-.055c-.014-.006-.01-.007-.029-.018l-.034-.016a.758.758 0 0 0 -.157-.064 1.311 1.311 0 0 0 -.384-.032 3.959 3.959 0 0 0 -.514.085z" opacity=".66" transform="translate(-3244.121 -400.245)"/><path d="m3555.373 409.05a1.378 1.378 0 0 1 .033-.2 1.307 1.307 0 0 1 .221-.46 1.07 1.07 0 0 1 .574-.409.893.893 0 0 1 .421-.018l.1.022a.784.784 0 0 1 .111.04 1.972 1.972 0 0 1 .18.09 3.167 3.167 0 0 1 .455.358l.036.033c-.033 0 .027.019.036.029s0 .011.005.02l.028.022a.532.532 0 0 0 .143.069.329.329 0 0 0 .266-.018.314.314 0 0 0 .1-.125l.027.043a.347.347 0 0 1 .047.157.7.7 0 0 1 -.243.559.768.768 0 0 1 -.325.184.867.867 0 0 1 -.1.019h-.126a.207.207 0 0 1 -.1-.01l-.094-.021a2.418 2.418 0 0 1 -.581-.282l-.092-.055c-.014-.006-.01-.008-.028-.018l-.035-.016a.754.754 0 0 0 -.158-.064 1.313 1.313 0 0 0 -.385-.032 3.937 3.937 0 0 0 -.516.083z" opacity=".66" transform="translate(-3489.991 -380.407)"/><path d="m3273.065 367.252a.521.521 0 0 1 .012-.077.511.511 0 0 1 .086-.178.415.415 0 0 1 .222-.158.346.346 0 0 1 .163-.007l.038.009a.3.3 0 0 1 .043.015c.025.011.048.023.07.035a1.213 1.213 0 0 1 .176.139.252.252 0 0 0 .1.067.128.128 0 0 0 .1-.007.121.121 0 0 0 .041-.049.159.159 0 0 1 .029.078.273.273 0 0 1 -.094.216.3.3 0 0 1 -.126.071.3.3 0 0 1 -.039.007h-.049a.08.08 0 0 1 -.037 0l-.037-.008a.952.952 0 0 1 -.225-.109l-.036-.021a.4.4 0 0 0 -.085-.038.515.515 0 0 0 -.149-.012 1.539 1.539 0 0 0 -.203.027z" opacity=".66" transform="translate(-3249.227 -345.336)"/><path d="m3543.287 356.467a1.043 1.043 0 0 1 .024-.146.966.966 0 0 1 .162-.337.785.785 0 0 1 .42-.3.653.653 0 0 1 .309-.013l.072.016a.615.615 0 0 1 .082.029 1.463 1.463 0 0 1 .131.066 2.319 2.319 0 0 1 .333.262l.026.024c-.024 0 .02.014.026.021a.08.08 0 0 0 .024.031.386.386 0 0 0 .1.051.241.241 0 0 0 .195-.013.23.23 0 0 0 .077-.092l.02.032a.254.254 0 0 1 .035.115.515.515 0 0 1 -.178.409.563.563 0 0 1 -.239.135.61.61 0 0 1 -.074.014h-.092a.154.154 0 0 1 -.07-.008l-.069-.016a1.791 1.791 0 0 1 -.426-.207l-.067-.04c-.01 0-.007-.006-.021-.013l-.025-.012a.543.543 0 0 0 -.116-.047.961.961 0 0 0 -.282-.023 2.892 2.892 0 0 0 -.377.062z" opacity=".66" transform="translate(-3479.684 -335.812)"/><path d="m3621.07 352.148a.519.519 0 0 1 .013-.082.532.532 0 0 1 .09-.188.437.437 0 0 1 .235-.167.364.364 0 0 1 .172-.007l.04.009a.324.324 0 0 1 .046.016c.026.012.051.024.074.037a1.266 1.266 0 0 1 .186.147c0 .012.026.021.029.025a.168.168 0 0 0 .072.045.135.135 0 0 0 .109-.007.133.133 0 0 0 .042-.051.166.166 0 0 1 .03.082.29.29 0 0 1 -.1.229.316.316 0 0 1 -.133.075.361.361 0 0 1 -.042.008h-.052a.08.08 0 0 1 -.039 0l-.039-.009a1 1 0 0 1 -.238-.116l-.037-.023a.43.43 0 0 0 -.09-.04.543.543 0 0 0 -.157-.013 1.618 1.618 0 0 0 -.211.03z" opacity=".66" transform="translate(-3546.02 -332.433)"/><path d="m3223.342 432.785a1.085 1.085 0 0 1 .027-.162 1.055 1.055 0 0 1 .179-.373.87.87 0 0 1 .466-.332.723.723 0 0 1 .341-.014l.079.018a.645.645 0 0 1 .09.032 1.544 1.544 0 0 1 .146.073 2.531 2.531 0 0 1 .369.29l.03.026c-.027 0 .022.016.029.024a.088.088 0 0 0 .027.034.428.428 0 0 0 .115.056.266.266 0 0 0 .216-.014.25.25 0 0 0 .085-.1l.022.035a.276.276 0 0 1 .038.127.571.571 0 0 1 -.2.453.629.629 0 0 1 -.264.149.7.7 0 0 1 -.082.015h-.1a.163.163 0 0 1 -.078-.008l-.077-.017a1.958 1.958 0 0 1 -.471-.229l-.075-.045c-.011 0-.008-.006-.023-.014l-.028-.013a.6.6 0 0 0 -.128-.052 1.071 1.071 0 0 0 -.312-.026 3.228 3.228 0 0 0 -.421.067z" opacity=".66" transform="translate(-3206.821 -400.826)"/><path d="m3358.3 489.271a.625.625 0 0 1 .015-.09.6.6 0 0 1 .1-.208.485.485 0 0 1 .259-.185.4.4 0 0 1 .19-.008l.044.01a.378.378 0 0 1 .05.018.864.864 0 0 1 .081.041 1.386 1.386 0 0 1 .206.162c0 .013.029.023.033.028a.188.188 0 0 0 .079.05.149.149 0 0 0 .121-.008.144.144 0 0 0 .047-.057.186.186 0 0 1 .034.091.317.317 0 0 1 -.11.253.341.341 0 0 1 -.147.083.4.4 0 0 1 -.045.009h-.058a.09.09 0 0 1 -.043 0l-.043-.01a1.1 1.1 0 0 1 -.263-.128l-.042-.025a.471.471 0 0 0 -.1-.044.593.593 0 0 0 -.174-.014 1.765 1.765 0 0 0 -.234.032z" opacity=".66" transform="translate(-3321.922 -449.337)"/><path d="m3339.6 406.612a1.5 1.5 0 0 1 .033-.2 1.343 1.343 0 0 1 .226-.471 1.1 1.1 0 0 1 .587-.419.912.912 0 0 1 .431-.018l.1.023a.8.8 0 0 1 .113.041 1.955 1.955 0 0 1 .185.092 3.242 3.242 0 0 1 .465.366l.037.033c-.034 0 .028.02.037.03s0 .011 0 .021l.029.023a.542.542 0 0 0 .146.071.336.336 0 0 0 .272-.018.318.318 0 0 0 .107-.128l.027.044a.351.351 0 0 1 .049.161.721.721 0 0 1 -.249.571.784.784 0 0 1 -.333.188.869.869 0 0 1 -.1.019h-.129a.208.208 0 0 1 -.1-.01l-.1-.022a2.476 2.476 0 0 1 -.594-.289l-.094-.056c-.015-.006-.01-.008-.029-.018l-.035-.016a.766.766 0 0 0 -.162-.066 1.341 1.341 0 0 0 -.394-.033 4.068 4.068 0 0 0 -.525.081z" opacity=".66" transform="translate(-3305.97 -378.305)"/><path d="m3307.4 356.2a.631.631 0 0 1 .015-.091.6.6 0 0 1 .1-.209.489.489 0 0 1 .261-.186.407.407 0 0 1 .191-.008l.044.01a.362.362 0 0 1 .051.018.8.8 0 0 1 .081.041 1.383 1.383 0 0 1 .207.163c0 .013.029.024.033.028a.189.189 0 0 0 .08.051.15.15 0 0 0 .121-.008.142.142 0 0 0 .047-.057.184.184 0 0 1 .034.091.321.321 0 0 1 -.111.254.348.348 0 0 1 -.148.084.382.382 0 0 1 -.046.009h-.057a.1.1 0 0 1 -.043 0l-.043-.01a1.1 1.1 0 0 1 -.264-.128l-.042-.025a.477.477 0 0 0 -.1-.045.6.6 0 0 0 -.175-.014 1.774 1.774 0 0 0 -.236.032z" opacity=".66" transform="translate(-3278.513 -335.851)"/><path d="m3675.256 366.444a1.331 1.331 0 0 1 .032-.194 1.262 1.262 0 0 1 .214-.447 1.041 1.041 0 0 1 .557-.4.867.867 0 0 1 .409-.017l.1.021a.787.787 0 0 1 .108.038 1.833 1.833 0 0 1 .174.088 3.032 3.032 0 0 1 .442.348l.035.031c-.032 0 .026.019.035.028s0 .011 0 .02l.027.021a.516.516 0 0 0 .139.067.319.319 0 0 0 .258-.017.3.3 0 0 0 .1-.121l.026.042a.331.331 0 0 1 .046.153.683.683 0 0 1 -.236.542.742.742 0 0 1 -.316.179.776.776 0 0 1 -.1.018h-.123a.2.2 0 0 1 -.093-.01l-.092-.021a2.349 2.349 0 0 1 -.564-.274l-.089-.053c-.014-.006-.01-.007-.027-.017l-.034-.015a.733.733 0 0 0 -.153-.063 1.278 1.278 0 0 0 -.374-.031 3.863 3.863 0 0 0 -.501.084z" opacity=".66" transform="translate(-3592.232 -344.098)"/><path d="m3568.945 322.784a.534.534 0 0 1 .011-.064.429.429 0 0 1 .07-.147.344.344 0 0 1 .184-.131.285.285 0 0 1 .134-.006l.031.007.036.013c.02.009.04.019.057.029a1.047 1.047 0 0 1 .146.114c0 .009.02.017.023.02a.129.129 0 0 0 .056.036.1.1 0 0 0 .085-.006.1.1 0 0 0 .033-.04.129.129 0 0 1 .024.064.227.227 0 0 1 -.078.178.247.247 0 0 1 -.1.059l-.032.006h-.04a.067.067 0 0 1 -.031 0l-.03-.007a.775.775 0 0 1 -.186-.09l-.029-.018a.333.333 0 0 0 -.07-.031.425.425 0 0 0 -.123-.01 1.275 1.275 0 0 0 -.171.024z" opacity=".66" transform="translate(-3501.566 -307.476)"/><path d="m3263.927 396.337a.942.942 0 0 1 .022-.133.865.865 0 0 1 .147-.306.712.712 0 0 1 .381-.272.593.593 0 0 1 .28-.012l.065.015a.5.5 0 0 1 .074.026 1.248 1.248 0 0 1 .12.06 2.076 2.076 0 0 1 .3.238l.024.022c-.022 0 .018.013.024.02a.279.279 0 0 0 .116.074.219.219 0 0 0 .177-.012.209.209 0 0 0 .07-.083l.018.029a.229.229 0 0 1 .031.1.468.468 0 0 1 -.162.371.509.509 0 0 1 -.216.122.552.552 0 0 1 -.067.013h-.084a.136.136 0 0 1 -.064-.007l-.063-.014a1.616 1.616 0 0 1 -.386-.188l-.061-.037c-.009 0-.007 0-.019-.012l-.023-.01a.492.492 0 0 0 -.1-.043.875.875 0 0 0 -.256-.021 2.657 2.657 0 0 0 -.348.06z" opacity=".66" transform="translate(-3241.434 -369.879)"/><path d="m3418.475 499.574a1.113 1.113 0 0 1 .027-.167 1.1 1.1 0 0 1 .185-.386.9.9 0 0 1 .481-.343.748.748 0 0 1 .353-.015l.082.018a.647.647 0 0 1 .093.033 1.579 1.579 0 0 1 .151.076 2.648 2.648 0 0 1 .381.3l.03.027c-.028 0 .022.016.03.025a.092.092 0 0 0 .028.035.44.44 0 0 0 .119.058.275.275 0 0 0 .223-.015.262.262 0 0 0 .088-.1l.022.036a.288.288 0 0 1 .04.132.592.592 0 0 1 -.2.468.644.644 0 0 1 -.273.154.7.7 0 0 1 -.085.016h-.105a.171.171 0 0 1 -.081-.009l-.08-.018a2.031 2.031 0 0 1 -.487-.237l-.077-.046c-.012-.005-.008-.006-.024-.015l-.029-.013a.6.6 0 0 0 -.132-.054 1.1 1.1 0 0 0 -.322-.027 3.323 3.323 0 0 0 -.438.067z" opacity=".66" transform="translate(-3373.239 -457.761)"/><path d="m3360.324 349.671a.556.556 0 0 1 .01-.059.391.391 0 0 1 .066-.137.319.319 0 0 1 .171-.122.265.265 0 0 1 .125-.005l.029.007.033.012a.561.561 0 0 1 .053.027.934.934 0 0 1 .135.106.2.2 0 0 0 .073.051.1.1 0 0 0 .079-.005.092.092 0 0 0 .031-.037.121.121 0 0 1 .022.06.208.208 0 0 1 -.072.166.222.222 0 0 1 -.1.055.2.2 0 0 1 -.03.006h-.037a.06.06 0 0 1 -.029 0l-.028-.006a.712.712 0 0 1 -.173-.084l-.027-.016a.29.29 0 0 0 -.066-.029.391.391 0 0 0 -.114-.01 1.184 1.184 0 0 0 -.151.02z" opacity=".66" transform="translate(-3323.645 -330.426)"/><path d="m3283.4 514.758a1.12 1.12 0 0 1 .026-.164 1.083 1.083 0 0 1 .181-.377.878.878 0 0 1 .47-.335.732.732 0 0 1 .345-.014l.08.018a.637.637 0 0 1 .091.033 1.523 1.523 0 0 1 .147.074 2.537 2.537 0 0 1 .373.293l.03.027c-.027 0 .022.016.029.024a.09.09 0 0 0 .027.035.436.436 0 0 0 .117.056.269.269 0 0 0 .218-.014.257.257 0 0 0 .085-.1l.022.035a.287.287 0 0 1 .039.129.578.578 0 0 1 -.2.458.63.63 0 0 1 -.267.151.676.676 0 0 1 -.083.016h-.1a.172.172 0 0 1 -.079-.009l-.077-.017a1.99 1.99 0 0 1 -.476-.231l-.075-.045c-.011 0-.008-.006-.023-.015l-.028-.013a.61.61 0 0 0 -.129-.053 1.089 1.089 0 0 0 -.315-.026 3.229 3.229 0 0 0 -.428.064z" opacity=".66" transform="translate(-3258.038 -470.728)"/><path d="m3412.22 464.07a.47.47 0 0 1 .011-.069.445.445 0 0 1 .076-.159.37.37 0 0 1 .2-.141.306.306 0 0 1 .145-.006l.034.008a.293.293 0 0 1 .038.014.6.6 0 0 1 .062.031 1.075 1.075 0 0 1 .157.123c0 .01.022.018.025.021a.143.143 0 0 0 .061.038.114.114 0 0 0 .092-.006.112.112 0 0 0 .036-.043.143.143 0 0 1 .025.069.241.241 0 0 1 -.084.193.265.265 0 0 1 -.112.063l-.035.006h-.043a.073.073 0 0 1 -.033 0l-.032-.007a.842.842 0 0 1 -.2-.1l-.032-.019a.354.354 0 0 0 -.076-.034.459.459 0 0 0 -.132-.011 1.343 1.343 0 0 0 -.183.029z" opacity=".66" transform="translate(-3367.904 -427.946)"/><path d="m3331.686 337.978a1.359 1.359 0 0 1 .035-.215 1.4 1.4 0 0 1 .238-.5 1.154 1.154 0 0 1 .619-.441.961.961 0 0 1 .454-.019l.105.024a.839.839 0 0 1 .12.043 2.056 2.056 0 0 1 .194.1 3.344 3.344 0 0 1 .491.386l.039.035c-.036 0 .029.021.038.032s0 .012.006.022l.03.024a.584.584 0 0 0 .154.075.356.356 0 0 0 .287-.019.338.338 0 0 0 .113-.135l.029.046a.374.374 0 0 1 .051.17.762.762 0 0 1 -.262.6.828.828 0 0 1 -.351.2.912.912 0 0 1 -.109.02h-.136a.219.219 0 0 1 -.1-.011l-.1-.023a2.618 2.618 0 0 1 -.627-.3l-.1-.059c-.015-.006-.011-.008-.031-.019l-.038-.017a.794.794 0 0 0 -.17-.069 1.416 1.416 0 0 0 -.415-.034 4.25 4.25 0 0 0 -.564.084z" opacity=".66" transform="translate(-3299.221 -319.718)"/><path d="m3446.733 428.9a1.125 1.125 0 0 1 .027-.166 1.092 1.092 0 0 1 .184-.383.891.891 0 0 1 .477-.34.744.744 0 0 1 .351-.015l.082.018a.671.671 0 0 1 .092.033 1.578 1.578 0 0 1 .149.075 2.6 2.6 0 0 1 .378.3l.03.027c-.027 0 .022.016.029.024a.09.09 0 0 0 .028.035.442.442 0 0 0 .118.057.274.274 0 0 0 .221-.015.258.258 0 0 0 .087-.1l.022.036a.291.291 0 0 1 .04.131.587.587 0 0 1 -.2.464.638.638 0 0 1 -.271.153.694.694 0 0 1 -.084.016h-.105a.166.166 0 0 1 -.08-.008l-.079-.018a2.01 2.01 0 0 1 -.483-.235l-.077-.046c-.012 0-.008-.006-.023-.015l-.029-.013a.633.633 0 0 0 -.131-.054 1.1 1.1 0 0 0 -.32-.026 3.275 3.275 0 0 0 -.433.065z" opacity=".66" transform="translate(-3397.338 -397.497)"/><path d="m3481.7 400.714a1.343 1.343 0 0 1 .032-.192 1.258 1.258 0 0 1 .212-.443 1.034 1.034 0 0 1 .553-.394.858.858 0 0 1 .406-.017l.095.021a.785.785 0 0 1 .107.038 1.768 1.768 0 0 1 .173.087 2.965 2.965 0 0 1 .438.345l.035.031c-.032 0 .026.019.034.028s0 .011 0 .019l.027.021a.516.516 0 0 0 .137.066.317.317 0 0 0 .256-.017.3.3 0 0 0 .1-.121l.026.042a.328.328 0 0 1 .046.152.678.678 0 0 1 -.234.538.738.738 0 0 1 -.313.177.809.809 0 0 1 -.1.018h-.122a.2.2 0 0 1 -.092-.01l-.091-.02a2.337 2.337 0 0 1 -.56-.272l-.089-.053a.274.274 0 0 1 -.027-.017l-.033-.015a.713.713 0 0 0 -.152-.062 1.267 1.267 0 0 0 -.371-.031 3.8 3.8 0 0 0 -.493.081z" opacity=".66" transform="translate(-3427.158 -373.33)"/><path d="m3454.792 499.744a1.362 1.362 0 0 1 .032-.194 1.275 1.275 0 0 1 .215-.447 1.038 1.038 0 0 1 .557-.4.868.868 0 0 1 .409-.017l.1.021a.777.777 0 0 1 .107.038 1.78 1.78 0 0 1 .175.088 3.038 3.038 0 0 1 .441.348l.035.032c-.032 0 .026.019.035.028s0 .011 0 .02l.027.021a.508.508 0 0 0 .138.067.318.318 0 0 0 .258-.017.3.3 0 0 0 .1-.122l.026.042a.339.339 0 0 1 .046.153.684.684 0 0 1 -.236.542.744.744 0 0 1 -.316.179.8.8 0 0 1 -.1.018h-.123a.2.2 0 0 1 -.094-.01l-.091-.021a2.36 2.36 0 0 1 -.564-.274l-.089-.053c-.014-.006-.01-.007-.028-.017l-.034-.015a.72.72 0 0 0 -.153-.063 1.285 1.285 0 0 0 -.374-.031 3.854 3.854 0 0 0 -.499.084z" opacity=".66" transform="translate(-3404.211 -457.781)"/><path d="m3398.777 393.3a.425.425 0 0 1 .01-.059.387.387 0 0 1 .065-.135.313.313 0 0 1 .168-.12.266.266 0 0 1 .124-.005l.029.006.032.012a.505.505 0 0 1 .053.026.93.93 0 0 1 .134.105.187.187 0 0 0 .073.051.1.1 0 0 0 .078-.005.093.093 0 0 0 .031-.037.118.118 0 0 1 .022.059.208.208 0 0 1 -.071.164.224.224 0 0 1 -.1.054l-.029.006h-.038a.057.057 0 0 1 -.028 0l-.028-.006a.708.708 0 0 1 -.17-.083l-.027-.016a.3.3 0 0 0 -.064-.029.383.383 0 0 0 -.113-.009 1.16 1.16 0 0 0 -.151.021z" opacity=".66" transform="translate(-3356.439 -367.639)"/><path d="m3413.683 425.826a.955.955 0 0 1 .193-.5.814.814 0 0 1 .436-.311.679.679 0 0 1 .32-.013l.075.017a.607.607 0 0 1 .084.03 1.5 1.5 0 0 1 .137.068 2.372 2.372 0 0 1 .346.272l.028.025c-.025 0 .021.015.027.022a.083.083 0 0 0 .025.032.413.413 0 0 0 .108.053.249.249 0 0 0 .2-.013.233.233 0 0 0 .08-.1l.021.033a.261.261 0 0 1 .036.119.536.536 0 0 1 -.185.425.582.582 0 0 1 -.248.14.615.615 0 0 1 -.077.014h-.1a.154.154 0 0 1 -.073-.008l-.072-.016a1.844 1.844 0 0 1 -.442-.215l-.07-.042c-.01 0-.007-.006-.021-.014l-.026-.012a.586.586 0 0 0 -.12-.049 1.006 1.006 0 0 0 -.292-.024 3 3 0 0 0 -.39.067z" opacity=".66" transform="translate(-3369.152 -394.939)"/><path d="m3351.713 450.415a.595.595 0 0 1 .118-.307.5.5 0 0 1 .267-.19.417.417 0 0 1 .2-.008l.045.01a.369.369 0 0 1 .052.019.9.9 0 0 1 .083.042 1.427 1.427 0 0 1 .211.167c0 .014.03.024.034.029a.192.192 0 0 0 .082.052.152.152 0 0 0 .124-.008.145.145 0 0 0 .049-.058.192.192 0 0 1 .035.093.327.327 0 0 1 -.113.26.355.355 0 0 1 -.151.086.372.372 0 0 1 -.047.009h-.059a.093.093 0 0 1 -.044 0l-.044-.01a1.112 1.112 0 0 1 -.27-.131l-.043-.026a.482.482 0 0 0 -.1-.045.608.608 0 0 0 -.179-.015 1.828 1.828 0 0 0 -.25.031z" opacity=".66" transform="translate(-3316.301 -416.187)"/><path d="m3319.986 516.027a.979.979 0 0 1 .021-.126.823.823 0 0 1 .14-.291.678.678 0 0 1 .363-.259.565.565 0 0 1 .267-.011l.062.014a.533.533 0 0 1 .07.025c.04.018.079.037.114.057a1.949 1.949 0 0 1 .288.227l.023.021c-.021 0 .017.012.022.018a.266.266 0 0 0 .111.07.207.207 0 0 0 .168-.011.2.2 0 0 0 .066-.079l.017.027a.216.216 0 0 1 .03.1.447.447 0 0 1 -.154.354.481.481 0 0 1 -.206.117.531.531 0 0 1 -.064.012h-.08a.13.13 0 0 1 -.061-.007l-.06-.013a1.528 1.528 0 0 1 -.368-.179l-.059-.035a.64.64 0 0 0 -.14-.062.829.829 0 0 0 -.243-.02 2.529 2.529 0 0 0 -.327.051z" opacity=".66" transform="translate(-3289.243 -471.985)"/><path d="m3316.647 477.241a.348.348 0 0 1 .01-.062.409.409 0 0 1 .069-.143.334.334 0 0 1 .179-.127.28.28 0 0 1 .131-.006l.031.007a.247.247 0 0 1 .035.012.617.617 0 0 1 .056.028 1 1 0 0 1 .142.112.2.2 0 0 0 .077.054.1.1 0 0 0 .083-.006.1.1 0 0 0 .033-.039.128.128 0 0 1 .023.062.219.219 0 0 1 -.075.174.241.241 0 0 1 -.1.057l-.031.006h-.039a.066.066 0 0 1 -.03 0l-.03-.007a.763.763 0 0 1 -.181-.088l-.029-.017a.318.318 0 0 0 -.069-.031.412.412 0 0 0 -.12-.01 1.22 1.22 0 0 0 -.165.024z" opacity=".66" transform="translate(-3286.396 -439.21)"/><path d="m3542.911 305.826a1.49 1.49 0 0 1 .035-.213 1.393 1.393 0 0 1 .236-.491 1.141 1.141 0 0 1 .612-.436.95.95 0 0 1 .449-.019l.1.024a.848.848 0 0 1 .119.042 2.064 2.064 0 0 1 .191.1 3.356 3.356 0 0 1 .485.382l.039.035c-.035 0 .029.021.038.031s0 .012.005.021l.03.024a.562.562 0 0 0 .152.074.349.349 0 0 0 .283-.019.331.331 0 0 0 .112-.133l.029.046a.368.368 0 0 1 .05.168.75.75 0 0 1 -.259.6.821.821 0 0 1 -.347.2.867.867 0 0 1 -.108.02h-.135a.216.216 0 0 1 -.1-.011l-.1-.023a2.584 2.584 0 0 1 -.62-.3l-.1-.059c-.015-.006-.01-.008-.03-.019l-.037-.017a.813.813 0 0 0 -.168-.069 1.4 1.4 0 0 0 -.41-.034 4.235 4.235 0 0 0 -.551.076z" opacity=".66" transform="translate(-3479.363 -292.309)"/><path d="m3224.355 381.247a1.169 1.169 0 0 1 .028-.173 1.14 1.14 0 0 1 .192-.4.932.932 0 0 1 .5-.355.777.777 0 0 1 .366-.015l.085.019a.679.679 0 0 1 .1.034 1.624 1.624 0 0 1 .156.078 2.723 2.723 0 0 1 .4.311l.031.028c-.029 0 .023.017.031.025a.094.094 0 0 0 .029.037.462.462 0 0 0 .124.06.286.286 0 0 0 .231-.015.272.272 0 0 0 .091-.109l.023.037a.3.3 0 0 1 .041.136.611.611 0 0 1 -.21.485.666.666 0 0 1 -.283.16.744.744 0 0 1 -.088.016h-.11a.179.179 0 0 1 -.083-.009l-.082-.018a2.1 2.1 0 0 1 -.5-.245l-.08-.048c-.012-.005-.009-.007-.025-.015l-.03-.014a.643.643 0 0 0 -.137-.056 1.135 1.135 0 0 0 -.334-.028 3.423 3.423 0 0 0 -.466.074z" opacity=".66" transform="translate(-3207.685 -356.819)"/><path d="m3610.831 402.841a1.037 1.037 0 0 1 .024-.148.972.972 0 0 1 .164-.341.8.8 0 0 1 .426-.3.661.661 0 0 1 .312-.013l.073.016a.6.6 0 0 1 .083.029 1.435 1.435 0 0 1 .133.067 2.344 2.344 0 0 1 .337.265l.027.024c-.024 0 .02.014.026.022a.078.078 0 0 0 .024.031.406.406 0 0 0 .105.051.244.244 0 0 0 .2-.013.23.23 0 0 0 .077-.093l.02.032a.247.247 0 0 1 .035.117.522.522 0 0 1 -.18.414.573.573 0 0 1 -.241.137.62.62 0 0 1 -.075.014h-.094a.152.152 0 0 1 -.071-.008l-.07-.016a1.786 1.786 0 0 1 -.431-.209l-.068-.041c-.011 0-.007-.005-.021-.013l-.025-.012a.559.559 0 0 0 -.117-.048.974.974 0 0 0 -.285-.024 2.938 2.938 0 0 0 -.388.06z" opacity=".66" transform="translate(-3537.288 -375.353)"/></g><path d="m3229.889 249.27c-1.473-.643-2.654-2.246-3.954-3.236-.984-.75-1.914-2.346-3.081-2.654a2.879 2.879 0 0 0 -2.108.512 45.834 45.834 0 0 0 -5.657 4.144c-1.984 1.618-4.456 2.191-6.337 3.992-.976.935-1.849 2.146-3.049 2.54-1.086.357-2.283-.021-3.343.438-1.451.629-2.189 2.6-3.47 3.636a6.827 6.827 0 0 1 -2.347 1.093l-5.057 1.6a9.433 9.433 0 0 0 -2.555 1.1c-1.339.914-2.331 2.52-3.762 3.195-1.3.613-2.77.364-4.122.777-1.4.426-5.07 2.96-5.019 5.032.07 2.839 4.534 2.873 5.978 3.8 1.209.774 2.133 2.207 3.456 2.628 1.09.347 2.26-.066 3.366.2 2.208.529 3.528 3.535 5.708 4.208.993.307 2.087.095 3.023.6 1.474.8 1.975 3 3.014 4.5 1.369 1.979 3.6 2.649 5.685 3.2a2.806 2.806 0 0 0 1.619.1 5.161 5.161 0 0 0 1.561-1.252c1.513-1.377 3.55-1.6 5.156-2.818 1.03-.779 1.846-1.937 2.911-2.643 1.9-1.26 4.421-.973 6.032-2.728a8.161 8.161 0 0 1 1.558-1.7c.7-.4 1.518-.24 2.271-.435 1.93-.5 2.958-3.141 4.739-4.173 1.229-.712 2.727-.6 3.88-1.48.819-.626 1.406-1.715 2.331-2.061a4.692 4.692 0 0 1 2.145.025 6.088 6.088 0 0 0 4.708-1.649 8 8 0 0 1 2.374-1.946c1-.344 2.048.085 3.083.13a2.133 2.133 0 0 0 2.341-1.854 3.348 3.348 0 0 0 -.43-1.56c-1.277-2.681-3.2-5.334-5.743-5.564-1.583-.143-2.656.1-4.04-.992-1.439-1.135-2.693-2.47-4.358-3.132a10.387 10.387 0 0 1 -1.929-.807 8.62 8.62 0 0 1 -1.28-1.142 17.6 17.6 0 0 0 -5.298-3.624z" fill="#fff" opacity=".1" transform="translate(-3166.468 -240.01)"/></svg>