<svg height="128.413" viewBox="0 0 151.574 128.413" width="151.574" xmlns="http://www.w3.org/2000/svg"><g transform="translate(-20.666 -23.168)"><path d="m94.512 88.454c-3.673-2.295 40.3-26.578 41.871-23.758s-1.576 2.778-1.576 5.614 8.555-2.611 8.78 0-4.428 3.852-4.277 6.169 8.584-2.682 8.1 0-6.3 1.778-5.628 5.188 9.043-3.119 5.648 3.635-42.33 9.769-52.918 3.152z" fill="#d9ddfd" transform="translate(7.337 4.115)"/><path d="m75.374 119.039c-.161 1.366-2.409 4.347-2.611 5.252s2.008 3.381 1.305 3.717-1.707-1.741-2.509-1.205-2.878 5.756-4.016 5.287 2.074-4.581 1.461-4.934-3.068 3.8-4.072 3.262 2.549-4.141 2.174-4.358-2.307 2.216-3.311 1.346 1.874-1.607 2.811-2.811 2.945-2.41 3.815-4.083a33.245 33.245 0 0 0 1.607-3.815s3.52.861 3.346 2.342z" fill="#e3ab51" transform="translate(4.277 9.32)"/><path d="m82.133 126.1c.443.683.564 4.173-.736 5.293s-6.288 6.006-5.982 6.618 4.315-3.4 4.813-3.115-3.591 5.151-2.675 5.761 4.383-4.775 5.106-4.358-1.746 5.275-.729 5.275 2.341-4.581 3.359-5.905 2.24 1.527 2.749.509-1.833-.916-2.138-2.341-.611-6.922-.1-8.754-5.906-2.444-3.667 1.017z" fill="#e3ab51" transform="translate(5.454 10.008)"/><path d="m65.554 106.934c2 1.708 3.431 4.7 3.288 6.777s-2.43 3.937-.572 6.082 4.717-.525 5.718.952 5.256 1.954 6.774 0 1.379-9.959.591-10.817-8.77-2.228-9.08-3.025-6.719.031-6.719.031z" fill="#3b2b28" transform="translate(4.473 8.309)"/><path d="m75.415 108.49c-.277 1.134 3.608 5.357 1.89 7.762s-.911 11.853.575 13.228 7.843-2.748 9.046-1.546 3.092-.515 3.951-.172-.516-7.216 0-11.167 3.672-6.6.29-8.626-15.408-.885-15.752.521z" fill="#57423a" transform="translate(5.454 8.341)"/><path d="m81.257 95.077c-12.7 5.081-18.841 12.8-27.748 6.394-4.924-3.54-31.872-23.581-32.815-31.959s22.78-42.407 31.559-45.476c8.778-3.054 5.253 2.769 2.969 4.739-.3.256-.4.428-.371.542.17.771 6.323-.957 2.64 3.626-4.253 5.253 3.325 2.783-.728 6.979s-1.456 6.31-3.5 10.064c-2.027 3.739 7.922 3.624 5.752 7.065s6.137 3.025 3.867 6.451 11.8 4.368 9.136 8.522 6.736 3.654 3.039 7.379c-3.7 3.74 9.735 3.527 5.153 7.809a3.479 3.479 0 0 0 -.456.514c-2.593 3.654 13.664 2.474 1.503 7.351z" fill="#57423a"/><path d="m80.1 85.541a3.517 3.517 0 0 1 -.857 1.114 3.479 3.479 0 0 0 -.456.514c-3.626 2.413-7.494 2.826-14.159 6.181-10.249 5.166.313-2.741-7.108-1.114s3.054-4.053-3.94-2.47 2.726-5.18-4.025-4.538c-6.766.642-1.813-6.267-6.981-4.468s0-6.081-4.939-4.953.885-9.907-5.395-7.78 5.824-10.233 0-10 8.307-10.805 4.025-10.577c-2.9.143 9.378-11.3 17.614-18.684.17.771 6.323-.957 2.64 3.626-1.613 2-1.527 2.869-1.014 3.425.842.914 2.8.957.286 3.554-4.053 4.2-1.456 6.31-3.5 10.064-2.027 3.739 7.922 3.624 5.752 7.065s6.137 3.025 3.867 6.451 11.8 4.368 9.136 8.522 6.736 3.654 3.039 7.379c-3.331 3.378 7.332 3.521 6.015 6.689z" fill="#3b2b28" transform="translate(.968 .557)"/><path d="m79.034 84.9a28.005 28.005 0 0 1 -5.595 2.727c-8.578 3.24 2.74-3.241-4.239-1.885s0-3.826-7.437-2.926.457-5.4-6.523-3.939.671-6.866-5.824-5.653-.256-8.421-5.809-9.092 1.728-8.108-1.655-8.108 4.724-7.65 1.655-7.879c-1.927-.142 5.21-7.493 10.834-12.975.842.914 2.8.957.286 3.554-4.053 4.2-1.456 6.31-3.5 10.064-2.027 3.739 7.922 3.624 5.752 7.065s6.137 3.025 3.867 6.451 11.8 4.368 9.136 8.522 6.736 3.654 3.039 7.379c-3.336 3.386 7.326 3.529 6.013 6.695z" fill="#57423a" transform="translate(2.038 1.196)"/><path d="m122.5 95.926a11.576 11.576 0 0 1 -.685 2.512 10.965 10.965 0 0 1 -.485 1.17 30.408 30.408 0 0 1 -10.748 12.048 27.582 27.582 0 0 1 -10.306 4.168c-12.19 2.112-21.038-2.812-29.3-3.4-8.108-.572-14.631-.014-18.684 2.1-.071.029-.143.071-.214.1-1.156.628-2.354-.586-3.5-2.641-2.812-5.153-5.2-15.586-5.2-15.586l.029-.029c.728-.528 12.333-8.992 21.667-11.276 9.635-2.355 28.319-7.08 37.954-3.94 9.637 3.155 20.457 8.108 19.472 14.774z" fill="#846e63" transform="translate(2.263 5.674)"/><path d="m121.007 96.777a10.965 10.965 0 0 1 -.485 1.17 30.408 30.408 0 0 1 -10.748 12.048 27.582 27.582 0 0 1 -10.306 4.168c-12.19 2.112-21.038-2.812-29.3-3.4-8.108-.572-14.631-.014-18.684 2.1a6.744 6.744 0 0 0 2.84-2.413 10.589 10.589 0 0 0 .942-2.94 32.919 32.919 0 0 1 8.151-1.984c6.352-.386 24.778 6.808 35.841 3.968 7.361-1.883 16.497-8.394 21.749-12.717z" fill="#57423a" transform="translate(3.071 7.335)"/><path d="m57.806 107.738c-2.47.857-5.024 1.87-7.494 2.812a64.715 64.715 0 0 1 -7.351 2.441c-3.154.771-6.151 1.556-8.877 2.313a4.047 4.047 0 0 1 -.243 2.655 2.985 2.985 0 0 1 -1.156 1.256 8.636 8.636 0 0 1 -1.856-.156 5.7 5.7 0 0 1 -3.168-1.813 7.091 7.091 0 0 1 -1.685-3.626 9.456 9.456 0 0 1 1.184-3.854 24.544 24.544 0 0 1 2.042-3.5 37.663 37.663 0 0 1 7.221-6.394 62.177 62.177 0 0 1 8.721-4.939 5.808 5.808 0 0 1 1.713-.442c2.355-.086-.428 2.883 1.769 2.6 2.214-.3-.3 2.783 2.3 2.783s.785 2.513 2.84 2.212c2.071-.3 1.627 1.912 3.1 1.613 1.012-.199 1.325 1.827.94 4.039z" fill="#d9ddfd" transform="translate(.528 7.107)"/><path d="m168.328 80.243c-1.085 7.594-46.318 30.346-57.966 32.044-11.647 1.713-52.2-7.593-51.456-10.362 3.583-13.417 12.86-13.474 18.9-15.715q.6-.214 1.114-.386c5.024-1.655 5.881-.428 11.947-4.239 6.509-4.082 3.8 2.727 10.834 0s5.867 1.627 10.206 0 4.068 3.954 8.936 1.527 4.153 2.826 9.306-1.527 7.037.286 11.646-2.955 3.783 2.969 9.478 0c3.911-2.055 3.94-1.284 4.754-1.227a3.817 3.817 0 0 0 2.012-.671c3.58-1.898 11.373-4.068 10.289 3.511z" fill="#57423a" transform="translate(3.81 5.156)"/><path d="m34.612 113.924c-2.355.656-4.525 1.313-6.423 1.941-.586.2-1.157.385-1.7.585a10.4 10.4 0 0 0 -5.809 5.738.044.044 0 0 0 -.014.029s0-4.411 1.585-7.28a36.315 36.315 0 0 1 5.438-6.552c3.596-.442 6.381 2.684 6.923 5.539z" fill="#e3ab51" transform="translate(0 8.487)"/><path d="m34.367 116.073a2.985 2.985 0 0 1 -1.156 1.256c-2.127 1.342-5.952.614-8.208 1.384a10.182 10.182 0 0 0 -4.325 2.969 10.4 10.4 0 0 1 5.809-5.738c.542-.2 1.113-.385 1.7-.585 1.9-.628 4.068-1.284 6.423-1.941a4.047 4.047 0 0 1 -.243 2.655z" fill="#d5932e" transform="translate(.001 8.993)"/><path d="m57.2 106.538a10.589 10.589 0 0 1 -.942 2.94 6.744 6.744 0 0 1 -2.84 2.413c-.071.029-.143.071-.214.1a56.841 56.841 0 0 1 -10.204 3.583c-3.083.856-7.494 2.4-10.919 2.44a2.985 2.985 0 0 0 1.156-1.256 4.047 4.047 0 0 0 .243-2.655c2.726-.757 5.724-1.542 8.877-2.313a64.715 64.715 0 0 0 7.343-2.44c2.473-.942 5.028-1.955 7.5-2.812z" fill="#b0b5f1" transform="translate(1.137 8.307)"/><path d="m34.264 110.534s.606-2.977 3.144-3.476 2.975.244 2.814 1.428-2.699 3.241-5.958 2.048z" fill="#b0b5f1" transform="translate(1.355 8.344)"/><path d="m38.822 108.163a3.043 3.043 0 0 1 -1.376 2.384c-.76.439-1.377.082-1.377-.8a3.042 3.042 0 0 1 1.377-2.383c.761-.434 1.376-.079 1.376.799z" fill="#57423a" transform="translate(1.535 8.372)"/><path d="m38.563 108.273a2.519 2.519 0 0 1 -1.138 1.973c-.629.363-1.139.068-1.139-.658a2.517 2.517 0 0 1 1.139-1.973c.629-.363 1.138-.068 1.138.658z" fill="#e3ab51" transform="translate(1.557 8.4)"/><path d="m37.813 108.59a.992.992 0 0 1 -.45.779c-.249.144-.45.027-.45-.26a1 1 0 0 1 .45-.78c.248-.142.45-.029.45.261z" fill="#57423a" transform="translate(1.619 8.48)"/><path d="m26.78 113.757s.8-1.814 2.149-1.366-.359 2.134-2.149 1.366z" fill="#d5932e" transform="translate(.609 8.884)"/><path d="m154.75 77.194c-1.77 3.155-4.625 5.5-8.008 7.765-5.41 3.6-6.523 1.128-11.263 4.954-4.724 3.825-9.221 0-14.173 4.953s-7.665-.686-13.288 1.841-5.625-2.527-10.349 0-10.591-.728-17.514 1.828.4-6.823-7.022-6.153c-3.511.315-.086-3.083 4.511-6.766 4-1.313 5.352-.813 8.778-2.454a33.842 33.842 0 0 0 3.168-1.785c6.509-4.082 3.8 2.727 10.834 0s5.867 1.627 10.206 0 4.068 3.954 8.936 1.527 4.153 2.826 9.306-1.527 7.037.286 11.646-2.955c2.556-1.812 3.441-.685 4.7.157 1 .671 2.255 1.157 4.781-.157 3.908-2.056 3.937-1.285 4.751-1.228z" fill="#3b2b28" transform="translate(5.084 5.365)"/><path d="m143.93 78.538a12.652 12.652 0 0 1 -1.17 1.842c-4.582 5.994-5.224-1.085-10.363 2.469s-6.894-.086-11.476 2.741-6.309-1.128-10.805.671-6.081-.9-11.261.514-7.208-1.184-12.6-.057c-2.012.413-1.969-1.284-1.113-3.6a33.842 33.842 0 0 0 3.168-1.785c6.509-4.082 3.8 2.727 10.834 0s5.867 1.627 10.206 0 4.068 3.954 8.936 1.527 4.153 2.826 9.306-1.527 7.037.286 11.646-2.955c2.551-1.809 3.436-.678 4.692.16z" fill="#57423a" transform="translate(6.369 5.405)"/></g></svg>