<svg height="134.404" viewBox="0 0 58.611 134.404" width="58.611" xmlns="http://www.w3.org/2000/svg"><g transform="translate(-228.226 -28.307)"><path d="m285.792 66.871a17.148 17.148 0 0 1 -.563 4.5 32.866 32.866 0 0 1 -1.279 3.782c-.374.946-.785 1.886-1.212 2.819a.115.115 0 0 0 -.19.02c-8.42 16.944-11.578 35.973-10.723 54.463.416 8.987.943 20.482-8.021 26.474a15.952 15.952 0 0 1 -3.432 1.737 13.167 13.167 0 0 1 -10.621-.393c-4.406-2.307-6.94-6.512-8.342-10.821-1.669-5.134-2.278-10.567-3.227-15.836-.818-4.541-1.64-9.1-2.673-13.6 0-.014 0-.026-.008-.037-1.295-8.115-2.837-16.207-4.276-24.294-.568-3.168-1.2-6.411-1.64-9.665a39.621 39.621 0 0 1 .094-13.585c.469-1.318.9-2.643 1.291-3.977a37.787 37.787 0 0 0 1.5-7.077c.135-1.46.192-2.925.221-4.388.012-.926.017-1.846.017-2.771 0-1.906.25-3.976 1.879-5.35a3.8 3.8 0 0 1 5.02.1 4.72 4.72 0 0 1 .711.708 4.888 4.888 0 0 1 .567.857 6.757 6.757 0 0 1 .7 3.036 14.078 14.078 0 0 1 -.073 1.67c-.065.682-.161 1.363-.251 2.045a20.486 20.486 0 0 0 -.238 2.748c0 .207.008.416.025.622a.143.143 0 0 0 .065-.034c.062-.045.123-.093.181-.141a4.523 4.523 0 0 0 1.041-4.722c-.1-.386-.219-.761-.35-1.131a12.168 12.168 0 0 0 .065-1.505 6.3 6.3 0 0 0 -1.187-3.834 4.774 4.774 0 0 0 -.638-.7 6.708 6.708 0 0 1 .1-1.191 7.5 7.5 0 0 1 2.4-4.5 3.422 3.422 0 0 1 4.2-.389 3.083 3.083 0 0 1 .431.34 5.066 5.066 0 0 1 1.3 2.681 21.167 21.167 0 0 1 .576 4.512c.052 1.538.02 3.086.062 4.617a.114.114 0 0 0 .062.089.1.1 0 0 0 .16-.071 38.537 38.537 0 0 0 .177-4.654c-.069-2.816-.494-6.036-1.875-7.7a5.146 5.146 0 0 1 .826-4.5 4.372 4.372 0 0 1 5.8-.872 4.61 4.61 0 0 1 .452.37c.038.034.075.068.107.1 1.266 1.274 1.738 3.277 2.134 4.917a22.15 22.15 0 0 1 .584 4.879 29.688 29.688 0 0 1 -.568 6.01c-.029.135.223.191.259.056a30.531 30.531 0 0 0 .77-6.457c.073-4.05-.568-8.607-3.067-10.5.9-2.434 4.287-3.231 6.836-1.437 2.8 1.969 3.125 5.314 3.109 8.291-.013 1.659-.136 3.317-.029 4.976 0 .048 0 .1.008.149a11.989 11.989 0 0 0 .436 2.584 7.276 7.276 0 0 0 .978 2.134 1.369 1.369 0 0 0 1.333.263 1.085 1.085 0 0 0 .893-.974 11.448 11.448 0 0 0 .044-1.839 6.594 6.594 0 0 0 -.115-.693 18.232 18.232 0 0 0 -1.212-3.231 16.408 16.408 0 0 1 -1.2-9.776c.555-2.816 2.142-7.389 5.8-7.988 3.5-.572 6.442 3.367 8.23 5.591a16.024 16.024 0 0 1 2.71 4.692 13.117 13.117 0 0 1 .753 4.89c-.09 2.963-.584 5.875-.209 8.838.597 4.818 2.295 9.353 2.312 14.073z" fill="#f0a771" transform="translate(.253 .136)"/><path d="m286.182 61.054c-.818-3.669-2.036-7.272-2.011-11.05.025-3.516.876-7.04-.2-10.5a20.715 20.715 0 0 0 -4.806-7.462c-1.617-1.771-3.7-3.895-6.492-3.726-2.591.157-4.333 2.3-5.324 4.276a16.181 16.181 0 0 0 -1.7 6.942 7.9 7.9 0 0 0 -2.287-4.456 6.037 6.037 0 0 0 -6.129-1.433 4.253 4.253 0 0 0 -2.406 2.49 5.1 5.1 0 0 0 -3.548-.419c-3.025.594-4.272 3.565-3.914 6.111-.92-.626-2.15-.693-3.8.109-2.363 1.156-3.515 3.9-3.692 6.324a4.606 4.606 0 0 0 -5.929.606c-2.885 2.959-1.492 7.808-1.825 11.391a33.241 33.241 0 0 1 -1.344 7.156c-.35 1.087-.88 2.091-1.258 3.164a21.291 21.291 0 0 0 -.851 3.21 40.111 40.111 0 0 0 .313 13.494c.344 2.18.755 4.344 1.147 6.517 1.809 10.072 3.465 20.2 5.566 30.236.564 3.3 1.21 6.578 1.859 9.859.991 5.04 1.727 10.227 3.235 15.165 2.208 7.238 8.2 14.747 17.482 13.522 9.555-1.262 14.144-10.466 15.052-18.254.621-5.332-.021-10.706-.14-16.046a114.842 114.842 0 0 1 .588-15.446 122.767 122.767 0 0 1 5.913-25.72c2.52-5.273 5.558-10.493 6.713-16.106a23.411 23.411 0 0 0 -.212-9.954zm-20.282-18.022c0-.075 0-.151 0-.225a20.918 20.918 0 0 0 1.559 4.658 11.734 11.734 0 0 1 1.172 3.476c.062.648-.115 2.669-1.386 1.872-.336-.213-.378-.618-.509-.944a10.18 10.18 0 0 1 -.407-1.194 13.38 13.38 0 0 1 -.415-2.449c-.137-1.734-.014-3.461-.014-5.194zm19.579 28.477a42.049 42.049 0 0 1 -2.491 6.6.115.115 0 0 0 -.19.02c-8.42 16.944-11.578 35.973-10.723 54.463.416 8.987.943 20.482-8.021 26.474-4.033 2.7-9.559 3.692-14.053 1.344-4.406-2.307-6.94-6.512-8.342-10.821-1.669-5.134-2.278-10.567-3.227-15.836-.818-4.541-1.64-9.1-2.673-13.6 0-.014 0-.026-.008-.037-1.295-8.115-2.837-16.207-4.276-24.294-1.361-7.62-3.154-15.69-1.546-23.25.469-1.318.9-2.643 1.291-3.977a37.787 37.787 0 0 0 1.5-7.077c.221-2.381.238-4.77.238-7.16 0-1.906.25-3.976 1.879-5.35a3.8 3.8 0 0 1 5.02.1 4.72 4.72 0 0 1 .711.708 4.888 4.888 0 0 1 .567.857 6.757 6.757 0 0 1 .7 3.036 14.078 14.078 0 0 1 -.073 1.67c-.152 1.606-.49 3.239-.49 4.8 0 .207.008.416.025.622a.143.143 0 0 0 .065-.034c.062-.045.123-.093.181-.141a4.523 4.523 0 0 0 1.041-4.722c-.1-.386-.219-.761-.35-1.131a7.289 7.289 0 0 0 -1.122-5.34 4.774 4.774 0 0 0 -.638-.7 6.708 6.708 0 0 1 .1-1.191 7.5 7.5 0 0 1 2.4-4.5 3.422 3.422 0 0 1 4.2-.389 3.083 3.083 0 0 1 .431.34 5.066 5.066 0 0 1 1.3 2.681c.761 2.985.559 6.089.638 9.13a.114.114 0 0 0 .062.089.1.1 0 0 0 .16-.071c.226-2.176.655-9.526-1.7-12.357a5.146 5.146 0 0 1 .826-4.5 4.372 4.372 0 0 1 5.8-.872 4.611 4.611 0 0 1 .452.37c.038.034.075.068.107.1 1.266 1.274 1.738 3.277 2.134 4.917a25.919 25.919 0 0 1 .016 10.889c-.029.135.223.191.259.056.876-3.3 1.859-13.814-2.3-16.956.9-2.434 4.287-3.231 6.836-1.437 2.8 1.969 3.125 5.314 3.109 8.291-.013 1.707-.144 3.418-.021 5.125a11.989 11.989 0 0 0 .436 2.584 7.276 7.276 0 0 0 .978 2.134 1.369 1.369 0 0 0 1.333.263 1.085 1.085 0 0 0 .893-.974 11.448 11.448 0 0 0 .044-1.839 14.062 14.062 0 0 0 -1.327-3.923 16.408 16.408 0 0 1 -1.2-9.776c.555-2.816 2.142-7.389 5.8-7.988 3.5-.572 6.442 3.367 8.23 5.591a14.057 14.057 0 0 1 3.463 9.581c-.09 2.963-.584 5.875-.209 8.838.8 6.318 3.476 12.161 1.759 18.57zm-43.453-15.1a4.745 4.745 0 0 1 -.449 3.287c.082-1.057.283-2.17.452-3.289z" fill="#c47b4e"/><g fill="#fff"><path d="m280.7 58.693c.829 4.434-2.261 11.982-7.195 14.229s-18.5 5.056-22.818 9.736-8.224 25.463 3.083 36.51 14.184 22.093 7.195 28.645-13.979 5.056-19.94-19.659-8.017-49.24-9.25-54.483 1.233-11.982 19.324-17.224 27.961-6.554 29.601 2.246z" opacity=".1" transform="translate(1.016 7.416)"/><path d="m261.262 31.455a11.015 11.015 0 0 0 -2.424 7.292 19.485 19.485 0 0 0 1.885 7.525c.7 1.574 1.741 3.27 3.55 3.681a4.438 4.438 0 0 0 3.891-1.211 8.128 8.128 0 0 0 1.976-3.442 15.07 15.07 0 0 0 .424-8.771 11.564 11.564 0 0 0 -3.587-5.658 3.48 3.48 0 0 0 -2.64-1.22 4.757 4.757 0 0 0 -3.075 1.804z" opacity=".1" transform="translate(9.462 .41)"/><path d="m251.562 34.808a3.976 3.976 0 0 0 -.211 1.8 19.363 19.363 0 0 0 1.623 5.7 2.5 2.5 0 0 0 1.329 1.635 1.837 1.837 0 0 0 1.676-.37 3.271 3.271 0 0 0 .931-1.393 7.45 7.45 0 0 0 -.6-6.506 4.264 4.264 0 0 0 -1.893-1.944 2.077 2.077 0 0 0 -2.855 1.078z" opacity=".1" transform="translate(7.143 1.614)"/><path d="m250.949 39.168a4.519 4.519 0 0 0 -2.3-3.317 1.98 1.98 0 0 0 -3.116 1.7 8.617 8.617 0 0 0 .793 5.083 4.406 4.406 0 0 0 1.2 1.587 2.538 2.538 0 0 0 1.973.541c1.155-.215 1.278-1.087 1.331-1.962a15.023 15.023 0 0 0 .119-3.632z" opacity=".1" transform="translate(5.321 2.236)"/><path d="m244.741 43.122a3.366 3.366 0 0 0 -1.028-2.779 2.57 2.57 0 0 0 -3.029-.266 2.907 2.907 0 0 0 -.988 1.672 8.563 8.563 0 0 0 .062 4.68 3.716 3.716 0 0 0 .8 1.529 2.054 2.054 0 0 0 1.647.665 2.451 2.451 0 0 0 1.937-2.257c.124-1.09.528-2.147.599-3.244z" opacity=".1" transform="translate(3.454 3.521)"/><path d="m233.683 46.941a5.432 5.432 0 0 0 .631 2.887 2.855 2.855 0 0 0 2.24 1.881 2.107 2.107 0 0 0 1.53-.648 3.228 3.228 0 0 0 .763-1.41c.343-1.22.4-4.029-.839-4.968-1.869-1.416-4.136.507-4.325 2.258z" opacity=".1" transform="translate(1.68 4.91)"/></g><path d="m285.792 64.43a17.127 17.127 0 0 0 -1.488-3.6 13.6 13.6 0 0 0 -7.268-6.242 19.041 19.041 0 0 0 -7.976-.618c-7.118.689-13.827 3.22-20.545 5.467-4.658 1.562-9.542 3.09-13.053 6.284a18.369 18.369 0 0 0 -5.435 10.252 32.264 32.264 0 0 0 -.44 7.609 39.621 39.621 0 0 1 .093-13.582c.469-1.318.9-2.643 1.291-3.977a37.787 37.787 0 0 0 1.5-7.077c.135-1.46.192-2.925.221-4.388a4.233 4.233 0 0 0 2.261 2.633 4.953 4.953 0 0 0 4.416-.139 4.231 4.231 0 0 0 1.9-2.194 20.486 20.486 0 0 0 -.238 2.748c0 .207.008.416.025.622a.143.143 0 0 0 .065-.034c.062-.045.123-.093.181-.141a4.523 4.523 0 0 0 1.041-4.722c-.1-.386-.219-.761-.35-1.131a12.168 12.168 0 0 0 .065-1.505 1.763 1.763 0 0 0 .017-.262 3.122 3.122 0 0 0 2.877 1.232 4.6 4.6 0 0 0 3.048-1.549 5.451 5.451 0 0 0 1.225-2.5c.037-.165.065-.33.086-.5a2.434 2.434 0 0 0 .373.48 4.736 4.736 0 0 0 3.071 1.138 4.915 4.915 0 0 0 3.66-1.381 4.6 4.6 0 0 0 1.295-2.562 4.365 4.365 0 0 0 .048-.865c.149.154.28.315.412.475a5.857 5.857 0 0 0 1.8 1.8 5 5 0 0 0 3.33.528 3.277 3.277 0 0 0 1.723-1c0 .048 0 .1.008.149a11.989 11.989 0 0 0 .436 2.584 7.276 7.276 0 0 0 .978 2.134 1.369 1.369 0 0 0 1.333.263 1.085 1.085 0 0 0 .893-.974 11.448 11.448 0 0 0 .044-1.839 6.594 6.594 0 0 0 -.115-.693 14.666 14.666 0 0 0 6.254 2.15 7.119 7.119 0 0 0 4.325-.64 6.6 6.6 0 0 0 2.606-3.426 17.609 17.609 0 0 0 1.143-8.8 13.117 13.117 0 0 1 .753 4.89c-.09 2.963-.584 5.875-.209 8.838.605 4.81 2.303 9.345 2.32 14.065z" opacity=".05" transform="translate(.253 2.577)"/><path d="m276.568 64.2c-.374.946-.785 1.886-1.212 2.819a.115.115 0 0 0 -.19.02c-8.42 16.944-11.578 35.973-10.723 54.463.416 8.987.943 20.482-8.021 26.474a15.952 15.952 0 0 1 -3.432 1.737 14.761 14.761 0 0 0 3.1-2.194c3.885-3.613 5.583-8.806 5.756-13.862.263-7.65-2.2-14.563-5.168-21.572-2.529-5.984-4.679-12.439-3.342-18.735 1.677-7.9 8.428-13.947 14.607-19.7a61.079 61.079 0 0 0 8.625-9.45z" opacity=".05" transform="translate(7.636 11.094)"/></g></svg>