<svg height="189.924" viewBox="0 0 135.476 189.924" width="135.476" xmlns="http://www.w3.org/2000/svg"><g transform="translate(-118.521 -59.823)"><path d="m245.967 171.749a.476.476 0 0 0 -.638-.2.432.432 0 0 0 -.115.092.5.5 0 0 0 -.582.581c1.024 5.006-1.377 9.867-4.9 13.326a12.8 12.8 0 0 1 -7.435 3.347c3.674-8.329 3.994-18.677 3.638-27.4a44.78 44.78 0 0 0 -3.377-16.149 74.963 74.963 0 0 0 -9.106-15.346.478.478 0 0 0 -.883.239c.152 6.322-.217 12.171-3.169 17.884-1.237 2.393-2.819 5.586-5.568 6.453 1.518-3.259 2.141-7.193 2.637-10.6a92.571 92.571 0 0 0 .705-13.533c-.019-9.826-.821-19.44-3.439-28.945a77.67 77.67 0 0 0 -11.4-24.4c-2.32-3.26-4.841-6.43-7.312-9.578a27.421 27.421 0 0 0 -8.432-7.637c-.538-.289-1.017.529-.478.818.026.015.051.032.077.046a.466.466 0 0 0 .036.311c2.464 4.967 3.287 10.418 3.943 15.868a84.3 84.3 0 0 1 .565 16.27 56.858 56.858 0 0 1 -3.673 15.883 40.672 40.672 0 0 1 -3.59 7.154 9.664 9.664 0 0 1 -3.334 3.526c-.5.281-.975.531-1.43.833a35.9 35.9 0 0 0 -3.564-14.969 19.287 19.287 0 0 0 -4.274-5.775c-1.859-1.7-4.429-2.515-6.723-3.44-.459-.185-.7.377-.479.719a.5.5 0 0 0 .059.207c3.314 6.156.239 13.3-2.383 19.105-2.651 5.87-5.463 11.715-8.29 17.5-2.59 5.3-5.22 10.563-6.321 16.41a24.659 24.659 0 0 0 1.727 14c-1.08-.245-2.671-1.8-3.253-2.3a18.7 18.7 0 0 1 -4.206-5.749 29.843 29.843 0 0 1 -2.286-7.423c-.116-.562-.2-1.123-.263-1.685-.005-.5 0-1 .015-1.5.044-1.342-.16-3.493.407-4.741.251-.551-.565-1.033-.818-.478l-.007.022a.5.5 0 0 0 -.161.146c-.031.046-.051.1-.079.147l-.015.009c-2.884 2.775-4.788 7.082-5.917 10.862a54.666 54.666 0 0 0 -1.9 15.45 57.291 57.291 0 0 0 6.994 27.327c-4.074-2.043-6.816-6.327-8.649-10.315a34.782 34.782 0 0 1 -3.251-16.014.45.45 0 0 0 -.695-.39.4.4 0 0 0 -.076-.049.474.474 0 0 0 -.616.263c-.134.334-13.224 33.708 2.8 57.4 10.658 15.759 31.516 23.749 61.994 23.749 30.581 0 50.754-7.662 59.958-22.773 13.751-22.581-2.304-54.24-2.468-54.558z" fill="#e64f1e"/><path d="m234.19 210.688a.478.478 0 0 0 -.744-.1c-5.161 5.3-12.8 11.971-20.788 10.1.971-2.715 2.339-5.266 3.181-8.032.935-3.075 1.2-6.348 1.859-9.487a123.655 123.655 0 0 0 2.323-19.477.477.477 0 0 0 -.883-.239c-2.277 4.89-9.159 11.25-15.061 10.6 2-4.136 1.852-8.919 1.688-13.417-.207-5.672-.292-11.188-1.581-16.749-1.446-6.243-4.375-11.926-6.646-17.877-2.453-6.429-2.5-12.813-2.319-19.59a.476.476 0 0 0 -.882-.24 70.209 70.209 0 0 1 -13.192 17.292c-5.528 5.274-10.981 10.613-15.093 17.1a47.323 47.323 0 0 0 -7.245 20.695 83.47 83.47 0 0 1 -1.652 11.637c-.834 3.292-6.705-3.677-7.471-4.961a.48.48 0 0 0 -.818 0c-3.8 5.985-4.049 14.191-2.7 20.967.749 3.769 2.4 7.288 3.233 11.016.417 1.86-1.726 1.033-2.812.809a12.8 12.8 0 0 1 -3.68-1.41c-1.788-1-3.29-2.326-5.242-3.034a.475.475 0 0 0 -.6.457c1.129 11 9.195 20.124 18.039 26.083a35.066 35.066 0 0 0 14.446 5.408c.216-.011.435-.015.663-.007 7.922.305 15.658 1.182 23.6.7 2.548-.155 5.673-.792 8.633-.91 1.9-.431 3.811-.86 5.734-1.2 6.607-1.157 13.161-2.228 18.127-7.089 3.845-3.764 5.894-9.089 7.381-14.152 1.28-4.37 2.981-10.643.502-14.893z" fill="#f4a615"/><path d="m219.518 233.471a40.254 40.254 0 0 1 -11.518 2.785c-1.871.2-3.755.257-5.635.274-.12 0-1.853.087-1.847-.113a11.124 11.124 0 0 1 .775-3.029 53.414 53.414 0 0 0 2.473-22.636.478.478 0 0 0 -.808-.335 19.561 19.561 0 0 1 -5.607 3.545c-.361-3.554-.427-7.062-1.257-10.566a92.8 92.8 0 0 0 -4.248-12.579c-3.058-7.744-5.795-15.253-6.276-23.649-.022-.377-.521-.673-.809-.335-3.129 3.68-5.244 8.047-8.516 11.627a30.162 30.162 0 0 0 -6.017 10.715 75.38 75.38 0 0 0 -3.063 14.785c-.577 4.421-1.328 9.01-.449 13.418-2.046-2.139-3.948-4.42-6.429-6.083a.478.478 0 0 0 -.713.409c-.205 8.363 1.585 16.459 6.6 23.2-4.206-.613-8.648-.712-12.541-2.487-.1-.136-.207-.262-.3-.4-.346-.5-1.168-.025-.818.478.054.078.116.149.171.226a.384.384 0 0 0 .235.418c.039.018.079.03.117.048 8.042 10.931 22.131 15.387 35.169 16.448 11.711.953 26.544-4.164 31.854-15.468.144-.323-.115-.876-.543-.696z" fill="#f4cf6f"/></g></svg>