<svg height="114.774" viewBox="0 0 105.13 114.774" width="105.13" xmlns="http://www.w3.org/2000/svg"><g transform="translate(-138.561 -133.847)"><path d="m238.5 201.235c-2.257 1.565-4.623 2.986-6.763 4.714a21.058 21.058 0 0 0 -1.852 1.679 20.48 20.48 0 0 0 -3.373 4.534c-1.4 2.541-2.538 5.514-3.99 8.235-1.221 1.838-2.552 3.6-3.953 5.312-.3.371-.61.742-.924 1.108-3.672 4.345-7.747 8.4-11.545 12.629q-.49.546-.975 1.094c-.085.383-.17.765-.251 1.147-.23 1.081-.442 2.163-.652 3.244a33.883 33.883 0 0 1 -13.552 3.022 31.631 31.631 0 0 1 -7.425-1.03 32.927 32.927 0 0 1 -3.584-1.172 13.849 13.849 0 0 0 -1.62-3.529c-.2-.316-.414-.627-.64-.926a27.778 27.778 0 0 1 -2.594-1.926 21.053 21.053 0 0 1 -1.792-1.68l-.012-.009c-.113-.117-.223-.237-.329-.357-.345-.378-.674-.772-.992-1.182a31.542 31.542 0 0 1 -4.866-9.488c-1.674-5.091-2.854-12.3-4.353-17.437a.176.176 0 0 1 -.012-.039c-2.29-10.195-11.633-17.558-18.114-25.174-.974-1.142-1.912-2.32-2.787-3.543-.942-1.317-2.354-2.983-2.414-4.681a2.528 2.528 0 0 1 .136-.935 1.821 1.821 0 0 1 1.831-1.276c.049 0 .1 0 .148.007a5.1 5.1 0 0 1 2.066.785 21.545 21.545 0 0 1 3.571 2.684c3.927 3.568 6.947 8.049 11.191 11.286 2.17 1.656 5.022 3.354 7.874 2.761a4.118 4.118 0 0 0 .654-.191 4.551 4.551 0 0 0 .511-.225 4.124 4.124 0 0 0 .152-.484c.03-.113.055-.231.076-.348a8.056 8.056 0 0 0 -.26-3.527c-1.12-3.865-2.5-7.673-3.767-11.495-2.513-7.618-5.208-15.211-7.5-22.9-.552-1.859-.9-4.428.986-5.7s3.615.685 4.637 2.113a45.79 45.79 0 0 1 4.79 8.931c2.624 6.183 4.4 12.688 7.081 18.851a25.4 25.4 0 0 0 2.509 4.86c.156.214.325.436.509.647a4.533 4.533 0 0 0 1.074.957 2.574 2.574 0 0 0 .967-.1 1.985 1.985 0 0 0 .942-.606c1.011-1.165.712-3.278.68-4.683a52.708 52.708 0 0 0 -.473-5.943c-.3-2.177-.681-4.343-1.119-6.5-1.216-6.017-2.84-11.967-4.117-17.959-.44-2.069-.838-4.154-1.158-6.243-.3-1.958-.466-4.67 1.619-5.752 2.64-1.371 4.313 2.112 5.052 4q1.158 2.944 2.071 5.98c1.2 3.983 2.085 8.049 3.124 12.076s2.043 8.079 3.017 12.138c.56 2.333 1.136 4.667 1.793 6.975a6.667 6.667 0 0 0 1.248 2.753 2.424 2.424 0 0 0 1.067.677 2.5 2.5 0 0 0 .592.108 3.085 3.085 0 0 0 1.036-.327c1.654-.854 2.293-2.547 2.555-4.367a36.334 36.334 0 0 0 .235-3.942c.18-4.644.29-9.3.452-13.958.133-3.729.3-7.456.557-11.17.141-2.022.73-4.568 2.838-5.264.092-.03.185-.055.274-.076 2.083-.463 3.474 1.786 3.891 3.652a43.5 43.5 0 0 1 .6 6.3c.152 2.127.3 4.253.429 6.381.251 4.182.43 8.365.467 12.553.035 4.23-.147 8.459-.149 12.688 0 7.248.417 14.661 3.519 21.143.178.371.364.74.56 1.1a5.19 5.19 0 0 0 .675.516 4.781 4.781 0 0 0 .491.288 4.108 4.108 0 0 0 .818.318c1.955.548 3.787-.505 5.388-1.742.735-.567 1.451-1.177 2.158-1.813 4.034-3.61 7.771-7.971 13.087-9.443 2.527-.7 5.628-.838 8 .5a6.476 6.476 0 0 1 1.173.843c3.107 2.826-1.007 5.985-3.264 7.553z" fill="#f0a771"/><path d="m240.421 191.924c-5.653-2.446-11.663 1.007-15.87 4.637-1.808 1.56-3.495 3.334-5.3 4.944a26.173 26.173 0 0 1 -3.425 2.647 4.444 4.444 0 0 1 -5.524-.132c-2.944-6.295-3.771-13.527-3.822-20.465-.03-4.225.189-8.447.189-12.672 0-4.188-.164-8.374-.4-12.555-.233-4.135-.468-8.284-.825-12.412-.217-2.516-1.147-5.934-4.089-6.114-2.856-.173-4.073 3.1-4.3 5.533-.362 3.824-.329 7.72-.454 11.565-.009.258-.018.513-.027.769q-.273 7.056-.558 14.112c-.011.3-.021.613-.032.926a.048.048 0 0 0 -.042.046c.005.15.012.3.017.463-.093 1.839-.355 3.744-1.71 5.018a3.37 3.37 0 0 1 -.626.472c-1.91.691-2.765-1.465-3.242-3.117-1.08-3.732-1.992-7.514-2.828-11.309s-1.777-7.625-2.726-11.407a102.84 102.84 0 0 0 -3.082-11.12c-.958-2.577-2-6.777-4.973-7.735-2.832-.91-4.6 2-4.67 4.443a24.715 24.715 0 0 0 .654 5.241c.371 1.949.79 3.884 1.306 5.8 1.016 3.764 2.007 7.54 2.919 11.329q.484 2.012.9 4.032a77.7 77.7 0 0 1 1.313 8.979 32.644 32.644 0 0 1 .124 6.358 1.791 1.791 0 0 1 -1.907 1.765 2.959 2.959 0 0 1 -.286-.286 5.108 5.108 0 0 1 -.728-1.357c-1.366-3-2.78-5.934-3.932-9.028-2.226-5.989-4.011-12.2-6.971-17.885a46.219 46.219 0 0 0 -2.377-4.077 15.048 15.048 0 0 0 -2.677-3.366 3.347 3.347 0 0 0 -5.434 1.269 6.278 6.278 0 0 0 -.123 4.064c.44 1.808 1.12 3.573 1.707 5.337q1.855 5.574 3.725 11.143c1.385 4.149 2.733 8.314 4.1 12.467.686 2.081 1.426 4.147 2.062 6.241a8.065 8.065 0 0 1 .364 3.607 6.468 6.468 0 0 1 -5.248-.4 23.541 23.541 0 0 1 -6.694-5.19c-3.585-3.681-6.78-8.017-11.3-10.638a5.862 5.862 0 0 0 -2.325-.786 2.238 2.238 0 0 0 -2.6 1.7c-.668 2.362 1.56 4.875 2.845 6.607 3.594 4.843 8.044 8.943 12.011 13.46a57.045 57.045 0 0 1 3.863 4.868 33.968 33.968 0 0 1 5.483 13.838c1.974 8.005 3.094 16.469 8.134 23.03a17.567 17.567 0 0 0 5.732 5.082c.226.306.435.622.636.944a17.552 17.552 0 0 1 1.38 2.79c.129.325.251.657.364.988.253.12.511.235.771.341a28.486 28.486 0 0 0 10.763 1.889 27.385 27.385 0 0 0 13.453-3.183c.131-.074.263-.152.392-.233.016-.058.035-.115.051-.173l.083-.283c.38-1.292.76-2.592 1.1-3.9 3.561-3.428 6.952-7.07 10.189-10.786a68.851 68.851 0 0 0 4.3-5.441 23.893 23.893 0 0 0 3.633-5.8c.495-1.034.956-2.078 1.41-3.092.039-.087.078-.172.117-.26a25.013 25.013 0 0 1 4.792-7.542c.069-.069.138-.138.209-.207a51.847 51.847 0 0 1 7.4-5.471c1.91-1.288 4.939-2.862 5.713-5.207s-1.068-4.246-3.077-5.115zm-1.924 9.311c-2.257 1.565-4.623 2.986-6.763 4.714a21.058 21.058 0 0 0 -1.852 1.679 20.48 20.48 0 0 0 -3.373 4.534c-1.4 2.541-2.538 5.514-3.99 8.235-1.221 1.838-2.552 3.6-3.953 5.312-.3.371-.61.742-.924 1.108-3.672 4.345-7.747 8.4-11.545 12.629q-.49.546-.975 1.094c-.085.383-.17.765-.251 1.147-.23 1.081-.442 2.163-.652 3.244a33.883 33.883 0 0 1 -13.552 3.022 31.631 31.631 0 0 1 -7.425-1.03 32.927 32.927 0 0 1 -3.584-1.172 13.849 13.849 0 0 0 -1.62-3.529c-.2-.316-.414-.627-.64-.926a27.778 27.778 0 0 1 -2.594-1.926 21.053 21.053 0 0 1 -1.792-1.68l-.012-.009c-.113-.117-.223-.237-.329-.357-.345-.378-.674-.772-.992-1.182a31.542 31.542 0 0 1 -4.866-9.488c-1.674-5.091-2.854-12.3-4.353-17.437a.176.176 0 0 1 -.012-.039c-2.29-10.195-11.633-17.558-18.114-25.174-.974-1.142-1.912-2.32-2.787-3.543-.942-1.317-2.354-2.983-2.414-4.681a1.956 1.956 0 0 1 1.967-2.211c.049 0 .1 0 .148.007a5.1 5.1 0 0 1 2.066.785 21.545 21.545 0 0 1 3.571 2.684c3.927 3.568 6.947 8.049 11.191 11.286 2.17 1.656 5.022 3.354 7.874 2.761a4.118 4.118 0 0 0 .654-.191 4.551 4.551 0 0 0 .511-.225 4.124 4.124 0 0 0 .152-.484c.03-.113.055-.231.076-.348a8.056 8.056 0 0 0 -.26-3.527c-1.12-3.865-2.5-7.673-3.767-11.495-2.513-7.618-5.208-15.211-7.5-22.9-.552-1.859-.9-4.428.986-5.7s3.615.685 4.637 2.113a45.79 45.79 0 0 1 4.79 8.931c2.624 6.183 4.4 12.688 7.081 18.851a25.4 25.4 0 0 0 2.509 4.86c.156.214.325.436.509.647a4.533 4.533 0 0 0 1.074.957 2.574 2.574 0 0 0 .967-.1 1.985 1.985 0 0 0 .942-.606c1.011-1.165.712-3.278.68-4.683a52.708 52.708 0 0 0 -.473-5.943c-.3-2.177-.681-4.343-1.119-6.5-1.216-6.017-2.84-11.967-4.117-17.959-.44-2.069-.838-4.154-1.158-6.243-.3-1.958-.466-4.67 1.619-5.752 2.64-1.371 4.313 2.112 5.052 4q1.158 2.944 2.071 5.98c1.2 3.983 2.085 8.049 3.124 12.076s2.043 8.079 3.017 12.138c.56 2.333 1.136 4.667 1.793 6.975a6.667 6.667 0 0 0 1.248 2.753 2.424 2.424 0 0 0 1.067.677 2.5 2.5 0 0 0 .592.108 3.085 3.085 0 0 0 1.036-.327c1.654-.854 2.293-2.547 2.555-4.367a36.334 36.334 0 0 0 .235-3.942c.18-4.644.29-9.3.452-13.958.133-3.729.3-7.456.557-11.17.141-2.022.73-4.568 2.838-5.264 2.235-.735 3.73 1.629 4.165 3.576a43.5 43.5 0 0 1 .6 6.3c.152 2.127.3 4.253.429 6.381.251 4.182.43 8.365.467 12.553.035 4.23-.147 8.459-.149 12.688 0 7.248.417 14.661 3.519 21.143.178.371.364.74.56 1.1a5.19 5.19 0 0 0 .675.516 4.781 4.781 0 0 0 .491.288c2.264 1.154 4.384-.016 6.206-1.424.735-.567 1.451-1.177 2.158-1.813 4.034-3.61 7.771-7.971 13.087-9.443 2.97-.822 6.732-.87 9.174 1.343 3.109 2.826-1.005 5.985-3.262 7.553z" fill="#c47b4e"/><g fill="#fff" opacity=".1"><path d="m191.626 233.539c2.871 4.512 14.59 1.228 19.2-3.993s9.674-17.969 13.204-21.346 15.2-12.133 14.436-13.976-8.6-.921-14.9 6.6c-2.739 3.273-9.368 7.986-14.744 8.754-2.413.345-11.085-.379-15.818 2.611-5.804 3.671-5.678 14.592-1.378 21.35z"/><path d="m140.946 175.794c-.6.666 16.279 19.965 18.89 19.043s-17.508-20.579-18.89-19.043z"/><path d="m172.122 184.548c-4.19 2.88-16.279-34.708-14.59-35.937s17.047 34.248 14.59 35.937z"/><path d="m185.176 178.558c-3.268 1.154-12.594-37.011-10.6-40.236s13.211 39.315 10.6 40.236z"/><path d="m200.533 142.161c-1.62-.477-4.761 33.787-1.382 34.862s3.993-34.094 1.382-34.862z"/><path d="m162.447 199.137c-1.931 3.022 1.382 9.983 4.146 9.676s6.3-5.989 15.972-10.136 17.815-2.15 19.5-4.607 2.457-7.986-.614-10.136-31.94 4.146-39.004 15.203z"/><path d="m178.726 211.27c6.235 2.9 8.293 20.579 6.143 24.265s-12.9-1.843-15.051-10.75 2.304-16.585 8.908-13.515z"/></g><path d="m238.5 201.235c-2.257 1.565-4.623 2.986-6.763 4.714a21.058 21.058 0 0 0 -1.852 1.679 20.48 20.48 0 0 0 -3.373 4.534c-1.4 2.541-2.538 5.514-3.99 8.235-1.221 1.838-2.552 3.6-3.953 5.312-.3.371-.61.742-.924 1.108-3.672 4.345-7.747 8.4-11.545 12.629q-.49.546-.975 1.094c-.085.383-.17.765-.251 1.147-.23 1.081-.442 2.163-.652 3.244a33.883 33.883 0 0 1 -13.552 3.022 31.631 31.631 0 0 1 -7.425-1.03 32.927 32.927 0 0 1 -3.584-1.172 13.849 13.849 0 0 0 -1.62-3.529c-.2-.316-.414-.627-.64-.926a27.778 27.778 0 0 1 -2.594-1.926 21.053 21.053 0 0 1 -1.792-1.68l-.012-.009c-.113-.117-.223-.237-.329-.357-.345-.378-.674-.772-.992-1.182a31.542 31.542 0 0 1 -4.866-9.488c-1.674-5.091-2.854-12.3-4.353-17.437a.176.176 0 0 1 -.012-.039c-2.29-10.195-11.633-17.558-18.114-25.174-.974-1.142-1.912-2.32-2.787-3.543-.942-1.317-2.354-2.983-2.414-4.681a2.528 2.528 0 0 1 .136-.935 5.872 5.872 0 0 0 .82 1.656 80 80 0 0 0 20.551 21.638 19.971 19.971 0 0 0 5.349 13.433c-1.069 10.323 3.812 21.1 12.011 27.471 1.718 1.334 3.8 2.536 5.948 2.2 2.34-.364 4.008-2.41 5.335-4.37 1 2.88 4.227 4.732 7.261 5.038a12.939 12.939 0 0 0 8.574-2.578 31.393 31.393 0 0 0 6.384-6.5 76.748 76.748 0 0 0 8.613-13.345c1.852-3.759 3.352-7.8 6.194-10.882 2.767-2.995 6.55-4.8 10.021-6.934 2.242-1.38 4.573-3.218 4.935-5.826a4.589 4.589 0 0 0 -.673-3 6.476 6.476 0 0 1 1.173.843c3.103 2.819-1.011 5.978-3.268 7.546z" opacity=".05"/><path d="m211.955 205.341c-.185.03-.367.055-.551.076a5.791 5.791 0 0 1 -6.45-3.607 12.516 12.516 0 0 1 -.572-6.022c.208-2.07.611-4.132.843-6.183.233-2.071-1.007-4.245-1.444-6.25-1.239-5.686.546-11.892.715-17.648a150.191 150.191 0 0 0 -.374-18.964c-.179-1.855-.472-3.824-1.7-5.225a3.844 3.844 0 0 0 -1.767-1.115c2.083-.463 3.474 1.786 3.891 3.652a43.5 43.5 0 0 1 .6 6.3c.152 2.127.3 4.253.429 6.381.251 4.182.43 8.365.467 12.553.035 4.23-.147 8.459-.149 12.688 0 7.248.417 14.661 3.519 21.143.178.371.364.74.56 1.1a5.19 5.19 0 0 0 .675.516 4.781 4.781 0 0 0 .491.288 4.108 4.108 0 0 0 .817.317z" opacity=".05"/></g></svg>