<svg xmlns="http://www.w3.org/2000/svg" xmlns:xlink="http://www.w3.org/1999/xlink" width="113.042" height="239.963" viewBox="0 0 113.042 239.963"><defs><style>.a{fill:#f49a72;}.b{fill:#dbcec8;}.c{fill:#c4b6b1;}.d{fill:#f2ebe9;}.e{fill:#ffb080;}.f{fill:#c97557;}.g{fill:#ffbb91;}.h{clip-path:url(#a);}.i{fill:#ffcba9;}.j{fill:rgba(230,230,230,0.36);}.k{fill:rgba(255,255,255,0.55);}.l{fill:rgba(0,0,0,0);}.m{fill:gray;}.n{fill:#a8a8a8;}.o{fill:#636363;}.p{fill:#eee;}.q{fill:#d0d0d0;}.r{fill:#0c0c0c;}.ac,.s{fill:#212121;}.t{fill:#2d2d2d;}.u{fill:#3a3a3a;}.v{fill:#b5aa96;}.w{fill:#ddd4c7;}.x{fill:#db8a67;}.y{fill:#998f7e;}.z{fill:#efefef;}.aa{fill:#f2ede9;}.ab{fill:#fff;}.ac{opacity:0.7;}</style><clipPath id="a"><path class="a" d="M800.231,257.058s-7.046,34.537-1.149,41.464c5.108,6,16.488,7.9,25.648,4.866s10.706-10.076,11.107-15.744c.28-3.954-5.338-30.147-5.338-30.147s8.135,30.413,8.281,41.113-21.253,15.17-32.759,11.652S793.709,300,794.295,289.157,800.231,257.058,800.231,257.058Z" transform="translate(-794.156 -257.058)"/></clipPath></defs><g transform="translate(-482.443 -151.738)"><g transform="translate(498.806 365.177)"><path d="M671.125,2200.411s1.505,10,1.075,10.861-4.516,2.581-5.591,2.581-1.935-1.29-3.441-.645-1.505,2.15-4.516,3.871-10.885,4.756-15.054,4.3c-2.6-.283-6.022-8.6-2.8-8.817s12.013-3,14.624-5.592c0,0,2.581-3.441,2.8-5.376S671.125,2200.411,671.125,2200.411Z" transform="translate(-639.49 -2200.267)"/><path d="M1137.1,2205.309a37.366,37.366,0,0,0,.386,6.943,2.214,2.214,0,0,0,1.853,1.212s4.419,8.623,5.844,13.042,7.609,4,9.229,3.421a17.984,17.984,0,0,0,3.644-1.869,2.636,2.636,0,0,0,1.181-2.4,20.472,20.472,0,0,0-.513-3.708c-.427-1.283-6.129-6.984-8.124-9.692s-2.993-4.418-2.993-4.418l-.25-3.67Z" transform="translate(-1085.227 -2203.757)"/></g><g transform="translate(482.443 151.738)"><path class="b" d="M774.142,174.187l.248.033a4.265,4.265,0,0,1,2.666,2.353l-1.633,16.088a7.156,7.156,0,0,1-7.116-3.42c-.706-1.248-1.187-2.872-.321-4.17.077-.116.174-.218.261-.327a6.018,6.018,0,0,1-.233-1.923,4.526,4.526,0,0,1,1.538-3.37l.01-.088c.586-4.394,4.939-4.1,4.939-4.1s-2.972-.461-.921-1A2.558,2.558,0,0,1,774.142,174.187Z" transform="translate(-737.819 -171.848)"/><path class="b" d="M1134.613,173.171a2.375,2.375,0,0,1,1.817.756c.186.24.5.68.165.937a1.835,1.835,0,0,1-1.2.168,4.453,4.453,0,0,1,3.7,3.422,2.454,2.454,0,0,1,.006,1.183.864.864,0,0,1-.106.173,5.142,5.142,0,0,1,1.729,4.09,3.735,3.735,0,0,1-1.061,2.927c.435.4.853.978.666,1.516-1.454,4.184-7.356,1.827-7.356,1.827s-4.663-13.324-1.986-15.943a7,7,0,0,1,2.747-.989C1134.026,173.195,1134.321,173.193,1134.613,173.171Z" transform="translate(-1062.673 -170.938)"/><path class="c" d="M772.336,174.826c1.711-.068,2.246,1.582,2.531,1.816a4.192,4.192,0,0,0-4.5.259,4.1,4.1,0,0,0-1.263,2.791c1.269-.83,4.119-.949,4.119-.949a9.039,9.039,0,0,0-5.011,2.378c-1.724,1.429-1.883,4.677-.162,3.415a4.734,4.734,0,0,1,3.583-.835A5.317,5.317,0,0,0,767,187.046c-1.185,3.238,3.948,4.272,5.054,2.911a13.9,13.9,0,0,0,3.109-8.226c.019.28.059.558.1.836l-1.081,10.658-.012.007a7.434,7.434,0,0,1-7.466-3.245,4.3,4.3,0,0,1,.041-4.346c.077-.116.174-.218.261-.327a6.02,6.02,0,0,1-.233-1.923,4.526,4.526,0,0,1,1.538-3.37l.01-.088c.586-4.394,4.939-4.1,4.939-4.1S770.285,175.37,772.336,174.826Z" transform="translate(-736.573 -172.419)"/><path class="d" d="M788.483,193.248s-3.767-.36-4.587.328.259-3.158,4.286-2.381,1.155,5.5,1.05,5.944c-1.1,4.688-4.125,7.71-6.209,6.635s.472-5.561,4.056-5.06a4.136,4.136,0,0,0-4.311-.662C780.249,199.089,782.368,194.3,788.483,193.248Z" transform="translate(-750.546 -186.99)"/><path class="c" d="M1144.749,173.39a2.373,2.373,0,0,1,1.516.733c.186.24.5.68.165.937a1.835,1.835,0,0,1-1.2.168,4.452,4.452,0,0,1,3.7,3.422,2.452,2.452,0,0,1,.006,1.183.87.87,0,0,1-.106.173,5.142,5.142,0,0,1,1.729,4.09,3.734,3.734,0,0,1-1.061,2.927,1.81,1.81,0,0,1,.734,1.9c-1.454,4.184-7.425,1.443-7.425,1.443-.542-1.57-1.006-3.165-1.444-4.767-.089-1.133-.167-2.268-.227-3.4,0,0,1.78,7.056,4.206,8.01,3.574,1.406,6.024-2.954,1.879-4.2,0,0,2.911.4,3.007-2.383.1-2.91-5.66-4.523-5.66-4.523s3.781.94,3.924-.449c.147-1.434-2.94-3.742-5.72-3.415,0,0,5.361-.9,2.4-1.695A2.133,2.133,0,0,1,1144.749,173.39Z" transform="translate(-1072.508 -171.134)"/><path class="d" d="M1136.172,188.4s2.816,6.681,5.4,6.857,2.121-2.368-.6-4.136c0,0,4.494.005,3.676-2.58-.566-1.789-5.161-4.171-6.151-4.456,0,0,4.14.56,3.994-.952-.177-1.839-5.125-2.464-5.125-2.464s4.065-1.212,1.7-1.212a4.763,4.763,0,0,0-3.464,1.212Z" transform="translate(-1067.541 -176.565)"/><path class="a" d="M762.678,343.738c-2.761.342-5.342-2.151-5.764-5.567s1.473-6.462,4.234-6.8,5.342,2.151,5.764,5.567S765.439,343.4,762.678,343.738Z" transform="translate(-728.263 -312.624)"/><path class="e" d="M761.406,331.389a4.621,4.621,0,0,1,3.347,1.259,4.333,4.333,0,0,0-2.535-.49c-2.761.342-4.657,3.388-4.234,6.8a7.117,7.117,0,0,0,2.159,4.332,6.611,6.611,0,0,1-3.228-5.077c-.422-3.416,1.473-6.462,4.234-6.8Z" transform="translate(-728.263 -312.669)"/><path class="f" d="M794.156,355.127s2.716.828,2.755,2.94a23.31,23.31,0,0,1-.666,4.939s-3.018-1.98-1.568-3.558S795.451,355.443,794.156,355.127Z" transform="translate(-761.678 -333.936)"/><path class="a" d="M1139.895,341.259c-2.761-.337-4.661-3.381-4.244-6.8s2.995-5.913,5.756-5.575,4.662,3.381,4.244,6.8S1142.656,341.6,1139.895,341.259Z" transform="translate(-1067.541 -310.402)"/><path class="e" d="M1159.977,328.925l.258.023c2.761.337,4.662,3.381,4.244,6.8a6.729,6.729,0,0,1-2.712,4.775,7.087,7.087,0,0,0,2.132-4.316c.418-3.417-1.483-6.46-4.244-6.8a4.5,4.5,0,0,0-3.044.8A4.591,4.591,0,0,1,1159.977,328.925Z" transform="translate(-1086.37 -310.464)"/><path class="f" d="M1182.623,355.127a2.877,2.877,0,0,0-1.515,2.688,35.792,35.792,0,0,0,.39,4.542s2.814-1.762,1.645-3.369S1181.974,356.075,1182.623,355.127Z" transform="translate(-1108.313 -333.936)"/><path class="e" d="M800.231,162.712s-5.35,21.253-5.936,32.1.22,17.589,11.726,21.106,32.905-.953,32.759-11.652-8.281-41.113-8.281-41.113.261-7.22-.5-8.125-7.654-3.1-13.047-3.27-14.319.892-15.865,3.375C799.934,156.976,799.83,158.82,800.231,162.712Z" transform="translate(-761.678 -151.739)"/><path class="a" d="M965.844,545.137s2.715-4.143,6.858-2.972C975.683,543.008,968.3,542.794,965.844,545.137Z" transform="translate(-915.478 -501.299)"/><path class="a" d="M942.511,411.483s-3.37-.119-3.115,2.315c.269,2.562,3.161,1.687,4.058,1.715a4.273,4.273,0,0,0,3.743,1.4,2.644,2.644,0,0,0,1.972-1.143s3.606-.25,3.515-2.372c-.075-1.748-2-1.915-2-1.915s2.2,1.126.744,2.417a2.927,2.927,0,0,1-3.155.424,1.776,1.776,0,0,1-1.66,1.661,2.233,2.233,0,0,1-2.731-1.734s-2.675,1.125-3.395.129S940.2,411.741,942.511,411.483Z" transform="translate(-891.773 -384.419)"/><path class="a" d="M994.351,478.957s-.3,2.14.074,2.177S994.849,477.185,994.351,478.957Z" transform="translate(-940.914 -444.457)"/><path class="a" d="M1011.091,469.36s-.388,3.764.221,3.69S1011.515,467.663,1011.091,469.36Z" transform="translate(-955.901 -435.967)"/><path class="a" d="M886.942,269.377s2.852-12.466-3.929-11.4-6.741,8.023-4.5,11.741S886.108,271.782,886.942,269.377Z" transform="translate(-836.038 -246.846)"/><path class="a" d="M1028.965,249.892s-2.523.582-2.846,6.178.938,9.782,5.887,9.025,6.451-9.995,1.964-13.456S1028.965,249.892,1028.965,249.892Z" transform="translate(-969.43 -239.285)"/><path class="f" d="M901.719,314.683s.623-4.91,2.968-4.874c1.987.031,2.455,4.764,2.455,4.764s-2.308-2.125-3.554-1.649A3.89,3.89,0,0,0,901.719,314.683Z" transform="translate(-858.034 -293.339)"/><path class="f" d="M1053.648,314.683s.623-4.91,2.968-4.874c1.987.031,2.455,4.764,2.455,4.764s-2.308-2.125-3.554-1.649A3.889,3.889,0,0,0,1053.648,314.683Z" transform="translate(-994.133 -293.339)"/><path class="g" d="M925.36,513.658s6.25-1.932,7.177-1.74a12.129,12.129,0,0,1,1.743.512s.243-.671,1.983-.512c2.1.192,6.337.966,6.337.966s-6.181.026-6.747.122a10.2,10.2,0,0,0-1.573.512s-2.563-.576-2.563-.608S925.36,513.658,925.36,513.658Z" transform="translate(-879.212 -474.368)"/><path class="f" d="M925.36,518.27s6.622-1.472,7.424-1.192a8.28,8.28,0,0,1,1.454.684,1.158,1.158,0,0,1,.921-.684c.672-.062,3.956,0,5.013.1a20.776,20.776,0,0,1,2.429.32c.572.124-4.64.328-5.836.359s-1.874.591-2.526.591-1.752-.4-2.4-.4S926.126,518.3,925.36,518.27Z" transform="translate(-879.212 -478.981)"/><path class="f" d="M939.934,413.3s-1,2.037.679,2.881a3.41,3.41,0,0,0,3.053-.228,2.864,2.864,0,0,0,2.558,1.888c1.891,0,2.183-1.018,2.33-1.714,0,0,2.839.683,3.669-1.018a1.813,1.813,0,0,0-1.058-2.451,1.907,1.907,0,0,1,1.272,2.745c-.737,1.661-3.269,1.419-3.269,1.419a3.657,3.657,0,0,1-2.985,1.366,3.531,3.531,0,0,1-2.73-1.623s-3.336.82-3.952-1.162A1.965,1.965,0,0,1,939.934,413.3Z" transform="translate(-891.773 -385.474)"/><g transform="translate(32.478 10.973)"><path class="a" d="M800.231,257.058s-7.046,34.537-1.149,41.464c5.108,6,16.488,7.9,25.648,4.866s10.706-10.076,11.107-15.744c.28-3.954-5.338-30.147-5.338-30.147s8.135,30.413,8.281,41.113-21.253,15.17-32.759,11.652S793.709,300,794.295,289.157,800.231,257.058,800.231,257.058Z" transform="translate(-794.156 -257.058)"/><g class="h"><g transform="translate(0 27.151)"><path class="f" d="M794.783,517.648c-.6,7.455.426,14.96,7.062,19.678,8.846,6.01,24.323,5.374,30.56.147,4.738-3.971,5.514-8.785,5.3-14.753a67.245,67.245,0,0,1,1.077,9.33c.147,10.7-21.253,15.17-32.759,11.652s-12.312-10.26-11.726-21.106C794.376,520.939,794.578,519.293,794.783,517.648Z" transform="translate(-794.156 -517.648)"/></g></g></g><path class="f" d="M935.117,686.143c-.133-.052,12.373,2.972,17.374-1.486C952.491,684.657,949.51,691.715,935.117,686.143Z" transform="translate(-887.951 -629.131)"/><path class="g" d="M888.116,151.738c1.257,0,.724-.005,1.6.016,5.393.174,12.281,2.366,13.047,3.27a3.4,3.4,0,0,1,.38,1.481c-2.186,1.751-5.784,2.282-8.494,2.527a57.494,57.494,0,0,1-7.438.173,39.18,39.18,0,0,1-6.168-.691,10.628,10.628,0,0,1-3.954-1.41c-1.007-.751-2.056-1.99-1.449-3.318C879.375,152.151,884.119,151.854,888.116,151.738Z" transform="translate(-834.513 -151.738)"/><path class="i" d="M933.608,156.958c-4.8,0-8.688-1.168-8.688-2.61s3.89-2.61,8.688-2.61,8.687,1.169,8.687,2.61S938.406,156.958,933.608,156.958Z" transform="translate(-878.818 -151.738)"/><path class="a" d="M955.953,190.205c-.06.025,2.239-1.767,8.586-.065C964.539,190.141,958.125,189.279,955.953,190.205Z" transform="translate(-906.617 -185.481)"/><path class="a" d="M958.978,207.033c-.361.079,2.133-1.164,7.37-.151A70.148,70.148,0,0,0,958.978,207.033Z" transform="translate(-909.297 -200.779)"/><path class="g" d="M978.292,403.73s-2.531-.195-3.568.794,1.623,1.418,3.568,1.352S980.72,404.1,978.292,403.73Z" transform="translate(-923.224 -377.461)"/><path class="i" d="M988.173,403.617s-1.354-.054-1.755.378,1.88,1.04,2.67.664S989.339,403.5,988.173,403.617Z" transform="translate(-933.866 -377.363)"/><path class="g" d="M996.865,616c-2.854,1.094-4.7,4.748-4.826,6.811s7.813,1.644,9.074.227S999.836,614.861,996.865,616Z" transform="translate(-938.943 -567.512)"/><path class="i" d="M1013.824,617.1s-2.854,1.318-2.854,2.685S1016.679,617.577,1013.824,617.1Z" transform="translate(-955.902 -568.618)"/><g transform="translate(59.517 19.12)"><path d="M1058.766,337.761a.366.366,0,0,1-.309-.169c-.291-.453-1.235-1.626-2.1-1.608-1.273.028-1.981,1.547-1.988,1.563a.366.366,0,0,1-.668-.3,3.367,3.367,0,0,1,2.64-1.993h.036c1.438,0,2.646,1.867,2.7,1.947a.366.366,0,0,1-.308.564Z" transform="translate(-1053.669 -335.25)"/></g><g transform="translate(43.655 19.12)"><path d="M906.529,337.761a.366.366,0,0,1-.309-.169c-.291-.454-1.242-1.629-2.1-1.608-1.273.028-1.981,1.547-1.988,1.563a.366.366,0,0,1-.668-.3,3.366,3.366,0,0,1,2.64-1.993h.036c1.437,0,2.646,1.867,2.7,1.947a.367.367,0,0,1-.308.564Z" transform="translate(-901.432 -335.25)"/></g><path class="b" d="M886.151,241.691a1.479,1.479,0,0,1-.332,1.564c-.7.7-8.666,4.274-8.907,3.232s.984-3.988,4.294-5.03c2.14-.674,4.4-.259,4.483.532S886.151,241.691,886.151,241.691Z" transform="translate(-835.785 -231.805)"/><path class="b" d="M1038.4,237.884s-.316.9.871,1.89c1.468,1.225,7.266,3.023,7.88,1.642.521-1.173-2.421-3.338-4.222-3.909-1.642-.521-3.936-.377-3.988.377S1038.4,238.209,1038.4,237.884Z" transform="translate(-980.444 -228.293)"/><path class="j" d="M876.7,308.827a5.146,5.146,0,1,1,5.18-5.2A5.188,5.188,0,0,1,876.7,308.827Z" transform="translate(-830.894 -283.241)"/><path class="k" d="M906.316,324.615Z" transform="translate(-862.152 -306.603)"/><path class="k" d="M884.638,315.148c-.583.9-1.466,1.356-1.973,1.026s-.445-1.324.138-2.22,1.466-1.356,1.973-1.026S885.221,314.252,884.638,315.148Z" transform="translate(-840.658 -296.038)"/><path class="k" d="M898.294,352.266a.392.392,0,1,1,.441-.388A.417.417,0,0,1,898.294,352.266Z" transform="translate(-854.571 -330.677)"/><path class="j" d="M1035.619,308.827a5.146,5.146,0,1,1,5.18-5.2A5.188,5.188,0,0,1,1035.619,308.827Z" transform="translate(-973.254 -283.241)"/><g transform="translate(56.83 15.039)"><path class="l" d="M1035.619,308.827a5.146,5.146,0,1,1,5.18-5.2A5.188,5.188,0,0,1,1035.619,308.827Z" transform="translate(-1030.083 -298.28)"/><path class="m" d="M1033.362,306.879a5.4,5.4,0,1,1-.049-10.8,5.519,5.519,0,0,1,3.893,1.543,5.325,5.325,0,0,1,1.645,3.805,5.451,5.451,0,0,1-5.434,5.454Zm.05-.513,0,.257,0-.257a4.937,4.937,0,0,0,4.926-4.936,4.815,4.815,0,0,0-1.489-3.441,4.983,4.983,0,0,0-3.482-1.4h-.05a4.889,4.889,0,1,0,.045,9.777Z" transform="translate(-1027.878 -296.076)"/><g transform="translate(0.082)"><path class="n" d="M1033.966,296.32a5.519,5.519,0,0,1,3.893,1.543,5.327,5.327,0,0,1,1.564,4.779,5.33,5.33,0,0,0-1.515-5.023,5.517,5.517,0,0,0-9.246,2.938A5.477,5.477,0,0,1,1033.966,296.32Z" transform="translate(-1028.662 -296.076)"/><path class="o" d="M1032.332,341.158A4.937,4.937,0,0,0,1037.3,346h.049a4.958,4.958,0,0,0,4.854-4.068,4.964,4.964,0,0,1-4.805,3.824h-.05a4.937,4.937,0,0,1-4.971-4.841,4.821,4.821,0,0,1,.072-.868A4.81,4.81,0,0,0,1032.332,341.158Z" transform="translate(-1031.95 -335.464)"/></g></g><path class="k" d="M1042.53,315.148c-.583.9-1.467,1.356-1.973,1.026s-.445-1.324.138-2.22,1.466-1.356,1.973-1.026S1043.113,314.252,1042.53,315.148Z" transform="translate(-982.099 -296.038)"/><path class="k" d="M1053.457,352.266a.392.392,0,1,1,.441-.388A.417.417,0,0,1,1053.457,352.266Z" transform="translate(-993.567 -330.677)"/><path class="c" d="M885.038,243.444a.934.934,0,0,1,.705.628c.078.791.463-.3.463-.3a1.479,1.479,0,0,1-.332,1.564c-.7.7-8.666,4.274-8.907,3.232a3.433,3.433,0,0,1,.712-2.335h0s-.676,1.652.568,1.742a15.833,15.833,0,0,0,6.38-3.2C884.962,244.474,885.586,243.842,885.038,243.444Z" transform="translate(-835.84 -233.889)"/><path class="c" d="M1040.193,237.586c-.41.186-.966.556-.887,1.086a1.059,1.059,0,0,0,.277.558,13.452,13.452,0,0,0,5.646,2.269c.438.068,1.651.228,1.952-.249a.754.754,0,0,1-.028.515c-.613,1.381-6.411-.417-7.879-1.642-1.187-.991-.872-1.89-.872-1.89,0,.325.489.754.541,0C1039.067,237.73,1039.762,237.622,1040.193,237.586Z" transform="translate(-980.443 -228.641)"/><path class="p" d="M970.919,761.529s-9.27-.437-10.4.306-2.764,5.154-.232,6.814,12.121.568,12.121.568Z" transform="translate(-909.296 -697.879)"/><path class="q" d="M980.427,760.036s.025,5.161,1.294,5.592a6.553,6.553,0,0,0,7.3-5.188s.944-1.1.874-.516,1.132,5.213,1.132,5.529.1,2.068-.605,2.209-10.175-1.021-10.588-1.021S980.427,760.036,980.427,760.036Z" transform="translate(-927.922 -696.403)"/><path class="r" d="M631.847,1182.906s.452,2.6,4.3,30.287c4.834,34.764,7.248,79.278,7.248,79.278l-2.069.419.18,2.533s-5.248,3.077-13.924,2.474c-5.208-.369-10.408-.866-15.6-1.438a6.471,6.471,0,0,1-4.662,3.173c-10.717,2.183-32.73-1.228-32.73-1.228l.1-.63c-1.634-.049-2.144-.075-3.84-.075-6.662,0-13.329.292-19.98.745l.138-1.233a7.715,7.715,0,0,1-5.172-1.308c-3.3-2.355-.46-21.5,1.939-51.887s7.674-59.256,7.674-59.256Z" transform="translate(-537.891 -1075.467)"/><path class="r" d="M1042.375,719.481c14.756,1.614,31.425,41.418,30.816,42.241a6.3,6.3,0,0,1-1.731,1.268c.418,1.729.813,3.465,1.122,5.218a110.214,110.214,0,0,1-19.995,6.486c-9.541,1.853-30.725,3.6-32.613,1.441s-.911-45.57-.911-45.57C1030.981,729.976,1042.375,719.481,1042.375,719.481Z" transform="translate(-962.926 -660.327)"/><path d="M782.112,645.842a6.924,6.924,0,0,0-.29,5.237s-1.967,2.171-1.295,4.564,15.006,7.668,21.322,8.375v-6.024c0-.83-9.223-2.022-18.475-8.659A7.666,7.666,0,0,1,782.112,645.842Z" transform="translate(-749.344 -594.361)"/><path d="M1084.871,645.842a4.867,4.867,0,0,1,1.706,4.044s1.724,2.77,1.494,5.169c-.191,1.992-4.347,6.842-18.827,9.544,0,0-.928-7.08.139-7.205,1.775-.208,11.078-3.742,13.823-5.8C1085.038,650.226,1084.871,645.842,1084.871,645.842Z" transform="translate(-1007.769 -594.361)"/><path class="r" d="M514.921,729.538l-.433.7c.21.052.3.262.433.414,4.439,5.305,24.235,8.92,24.235,8.92s1.21,43.351,1.21,44.772-2.328,1.725-2.328,1.725c-21.507,5.075-53.362-6.8-53.362-6.8.491-1.332.273-.774.637-1.681l-.186.3-.147-.041c-2.131-.812-2.537-.3-2.537-.3,1.319-6.5,7.206-24.156,14.616-34.813A33.729,33.729,0,0,1,514.921,729.538Z" transform="translate(-482.443 -669.336)"/><path class="s" d="M888.237,871.916s2.328-.3,2.328-1.725-1.21-44.772-1.21-44.772l-.275-.052c.012.23.04.5.086.823,0,0,1.319,37.814-3.078,43.529-1.781,2.315-7.061,3.188-12.714,3.406A56.536,56.536,0,0,0,888.237,871.916Z" transform="translate(-832.642 -755.181)"/><path class="s" d="M1073.191,856.736c-2.675.476-4.947-8.782-6.315-10.052s4.886,11.53,4.2,15.146-11.823,4.983-14.755,4.3-2.834-9.283-3.909-10.358,1.954,13-1.857,13.778-24.135,2.15-26.774-.2-4.146-43.775-4.146-43.775-.029-.022-.043-.033q-.266.02-.532.033s-.976,43.408.911,45.57,23.072.412,32.613-1.441a110.214,110.214,0,0,0,19.995-6.486c-.309-1.753-.7-3.489-1.122-5.218A6.294,6.294,0,0,0,1073.191,856.736Z" transform="translate(-962.926 -755.341)"/><g transform="translate(3.583 60.202)"><path class="t" d="M516.833,1046.484c.37-.851.783-1.953,1.242-3.336C517.637,1044.281,517.222,1045.4,516.833,1046.484Z" transform="translate(-516.833 -1010.473)"/><path class="u" d="M577.842,730.654c-.128-.153-.223-.362-.433-.414l.433-.7a33.729,33.729,0,0,0-17.862,13.194,83.125,83.125,0,0,0-7.3,13.451c8.6-17.08,26.121-24.412,26.121-24.412.019-.045.034-.089.052-.134A7.5,7.5,0,0,1,577.842,730.654Z" transform="translate(-548.948 -729.538)"/></g><path class="u" d="M1240.539,719.481s-.179.165-.516.455a21.528,21.528,0,0,0,.625,2.726s10.809,1.844,24.147,24.416c.591,1,1.132,1.888,1.628,2.674C1260.479,737.63,1250.107,720.527,1240.539,719.481Z" transform="translate(-1161.09 -660.327)"/><path class="a" d="M800.988,1351.575s15.215-1.816,18.216,1.338-2.21,15.473-3.216,15.652-9.228,1.972-16.015-2.867S800.988,1351.575,800.988,1351.575Z" transform="translate(-764.405 -1226.097)"/><path class="v" d="M875.463,1182.906h23.59v5.778h-23.59Z" transform="translate(-834.514 -1075.467)"/><path class="w" d="M898.949,1195.714c-14.01,1.05-14.171.5-18.859,0a2.145,2.145,0,0,1-2.052-2.052h0a2.058,2.058,0,0,1,2.052-2.052h18.859a2.058,2.058,0,0,1,2.052,2.052h0A2.117,2.117,0,0,1,898.949,1195.714Z" transform="translate(-836.82 -1083.264)"/><path class="x" d="M813.777,1368.955c-4.815.157-10.285-2.726-10.011-8.71a11.172,11.172,0,0,1,5.179-9.087l.032-.041c-4.181.06-7.988.514-7.988.514s-7.8,9.283-1.014,14.122C804.934,1369.29,810.661,1369.285,813.777,1368.955Z" transform="translate(-764.405 -1226.152)"/><path class="e" d="M949.4,1354.1s-.286-2.184.969-2.41,5.733-.981,7.4-.453,7.852,2.566,8.719,3.924S950.912,1354.1,949.4,1354.1Z" transform="translate(-900.721 -1226.097)"/><path class="a" d="M948.789,1373.737s7.768-.916,9.857-.11-8.648.037-9.784.476S948.459,1373.7,948.789,1373.737Z" transform="translate(-899.718 -1246.02)"/><path class="v" d="M958.944,1079.643h5.421v31.58h-5.421Z" transform="translate(-909.297 -982.963)"/><path class="y" d="M964.365,1281.952c-.675,2.23-2.042,6.247-3.1,6.176-1.319-.088-2.163-7.931-2.319-9.5v10.847h5.421Z" transform="translate(-909.297 -1161.217)"/><path class="e" d="M938.5,1377.815c-.527-.032-7.829-.331-8.43.438s-.946,3.524,0,4.052c0,0-.817,3.132.833,3.924,0,0-1.008,2.6.681,3.7,0,0,.208,2.3,1.688,2.792s7.145,1.359,10.083.151a70.135,70.135,0,0,0,7.037-3.623l-1.716-10.188S939.756,1377.89,938.5,1377.815Z" transform="translate(-882.903 -1249.993)"/><path class="a" d="M979.311,1403.447c2.314.429,6.352.775,8.68-.181a70.149,70.149,0,0,0,7.037-3.622l-1.716-10.188-.919-.12C989.548,1403.464,981.349,1403.633,979.311,1403.447Z" transform="translate(-927.542 -1260.388)"/><path class="z" d="M1109.233,1351.055s-2.277.311-2.9,1.806.582,12.647,1.319,14.411,3.664,3.107,5.35,1.764S1109.233,1351.055,1109.233,1351.055Z" transform="translate(-1041.18 -1226.097)"/><path class="q" d="M1106.367,1352.861a4.9,4.9,0,0,0-.168,1.46c.165-.314,1.055-1.844,2.024-.434s.985,12.8.02,14.245c1.15,1.286,3.4,2.016,4.792.9,1.685-1.343-3.774-17.982-3.774-17.982S1106.984,1351.366,1106.367,1352.861Z" transform="translate(-1041.209 -1226.097)"/><path class="r" d="M1173.183,1185.454c-.207,0-1.4-3.612-2.338-6.154.052.272.106.545.154.818A112.679,112.679,0,0,1,1152,1186.4c0,.015,0,.031,0,.046-.1,1.384.811,1.793.782,3.127a15.389,15.389,0,0,0,.593,3.339,1.483,1.483,0,0,0-1.522.694c-.66,1.586-22.592,1.563-23.183,3.736,0,0,.831-.216.831,1.49s.212,14.665,2.968,17.72c0,0,21.121-2.068,28.523-4.369s10.721-5.924,10.721-5.924,2.418-4.91,2.638-7.329S1173.476,1185.454,1173.183,1185.454Z" transform="translate(-1061.342 -1072.237)"/><path class="z" d="M795.574,1324.4c.282.093,2.943.222,3.473.789s-.275,15.873-.305,17.2-.061,1.7-.061,1.7-.214.6-1.378.6-3.919-.378-3.919-.378S790.6,1322.763,795.574,1324.4Z" transform="translate(-760.29 -1202.141)"/><path class="q" d="M793.383,1344.309s2.756.378,3.919.378,1.378-.6,1.378-.6.014-.173.032-.691a2.089,2.089,0,0,1-2.97-.665c-1.062-1.763-1.27-8.306-1.075-12.117s4.379-5.424,4.379-5.424c-.53-.567-3.191-.7-3.473-.789C790.6,1322.763,793.383,1344.309,793.383,1344.309Z" transform="translate(-760.29 -1202.141)"/><path class="r" d="M495.31,1190.438s19.155,4.993,21.868,4.993a1.365,1.365,0,0,1,.616.118c1.131.531-2.377,2.941-2.7,3.609.357.059,1.695,1.481,2.052,1.539,1.354.219,3.637.656,4.544.806a10.185,10.185,0,0,1,3.518,1.1c2.44.313,2.665,1.872,2.665,1.872-3.452-1.148-1.248,20.822-1.248,20.822-6.007.1-22.6-7.018-25.625-8.375s-2.922-.417-5.949-5.258S495.31,1190.438,495.31,1190.438Z" transform="translate(-492.592 -1082.215)"/><path class="u" d="M615.859,1248.4a10.186,10.186,0,0,0-3.518-1.1c-.907-.151-3.19-.588-4.544-.806-.357-.058-1.7-1.48-2.052-1.539.289-.6,3.152-2.609,2.9-3.394a10.733,10.733,0,0,1-4,2.148c-2.712.879-9.967-1.612-9.674-.513s12.605,2.492,9.82,3.151-8.648,1.026-8.5,2.711,8.648-2.052,10.7-1.759,8.208.806,7.255,2.272-.44,4.177.22,1.612,4.057-.912,4.057-.912S618.3,1248.715,615.859,1248.4Z" transform="translate(-583.24 -1128.013)"/><g transform="translate(40.272 15.039)"><path class="l" d="M876.7,308.827a5.146,5.146,0,1,1,5.18-5.2A5.188,5.188,0,0,1,876.7,308.827Z" transform="translate(-871.165 -298.28)"/><path class="m" d="M874.443,306.878a5.492,5.492,0,0,1-3.838-1.544,5.343,5.343,0,0,1-.074-7.642,5.494,5.494,0,0,1,3.862-1.618h.055a5.45,5.45,0,0,1,5.484,5.349,5.325,5.325,0,0,1-1.571,3.837,5.5,5.5,0,0,1-3.863,1.618l0-.257,0,.257Zm.006-10.291h-.05a4.984,4.984,0,0,0-3.5,1.467,4.83,4.83,0,0,0,.067,6.91A5.034,5.034,0,0,0,878,304.9a4.815,4.815,0,0,0,1.422-3.469A4.936,4.936,0,0,0,874.448,296.587Z" transform="translate(-868.96 -296.074)"/><g transform="translate(0.171)"><path class="n" d="M871.927,297.949a5.494,5.494,0,0,1,3.863-1.618h.055a5.45,5.45,0,0,1,5.484,5.349,5.353,5.353,0,0,1-.171,1.393,5.339,5.339,0,0,0,.244-1.649,5.45,5.45,0,0,0-5.484-5.349h-.055A5.494,5.494,0,0,0,872,297.692a5.349,5.349,0,0,0-1.4,2.444A5.363,5.363,0,0,1,871.927,297.949Z" transform="translate(-870.599 -296.074)"/><path class="o" d="M873.18,337.969a4.815,4.815,0,0,0,1.489,3.441,5.034,5.034,0,0,0,7.036-.068,4.839,4.839,0,0,0,1.272-2.229,4.852,4.852,0,0,1-1.2,1.972,5.035,5.035,0,0,1-7.036.068,4.833,4.833,0,0,1-1.339-4.682A4.826,4.826,0,0,0,873.18,337.969Z" transform="translate(-872.911 -332.263)"/></g></g><path class="m" d="M971.07,344.392s2.257-1,6.009.07l.034,1.026a12.637,12.637,0,0,0-6.229,0Z" transform="translate(-919.993 -323.937)"/><path class="o" d="M980.216,352.431v-.043l-.145-.055c-3.376-1.239-5.294-.273-5.722-.012A13.07,13.07,0,0,1,980.216,352.431Z" transform="translate(-923.096 -330.88)"/><path class="n" d="M989.2,345.068a8.375,8.375,0,0,1,2.51.064C993.25,345.37,989.2,345.068,989.2,345.068Z" transform="translate(-936.401 -324.87)"/><path class="d" d="M886.3,244.649c1.35-.329,5.568-2.552,5.241-3.478a7.134,7.134,0,0,0-2.993.286,6.733,6.733,0,0,0-2.674,1.572,4.349,4.349,0,0,0-.77,1.057S884.794,245.016,886.3,244.649Z" transform="translate(-843.124 -231.807)"/><path class="d" d="M1062.246,240.9h.006c-.278-1.206-2.694-2.9-4.255-3.393a7.08,7.08,0,0,0-2.734-.276l0,.007s-.456.526.863,1.589A12.9,12.9,0,0,0,1062.246,240.9Z" transform="translate(-995.508 -228.293)"/><path class="w" d="M961.556,1107.041c1.759-1.368,2.809-27.4,2.809-27.4h-5.421S959.8,1108.409,961.556,1107.041Z" transform="translate(-909.297 -982.963)"/><path class="aa" d="M958.944,1079.643s2.123,19.092,3,17.138,2.418-17.138,2.418-17.138Z" transform="translate(-909.297 -982.963)"/><path class="ab" d="M961.505,1081.649h4.886S962.751,1082.626,961.505,1081.649Z" transform="translate(-911.591 -984.76)"/><path class="i" d="M932.524,1389.913c.256-.476-1.173.4-1.466-1.649s1.612-1.869.843-2.015a2.351,2.351,0,0,1-1.576-2.455c0-1.392.66-1.209.769-1.576s-.659,0-.953-.586a3.546,3.546,0,0,1,.147-2.712c.336-.729,4.641-1.05,6.645-1.161-2.326-.059-6.422-.074-6.866.494-.6.769-.946,3.524,0,4.052,0,0-.817,3.132.833,3.924,0,0-1.008,2.6.681,3.7,0,0,.208,2.3,1.688,2.792.088.029.192.06.308.091a3.226,3.226,0,0,1-.357-.26A2.326,2.326,0,0,1,932.524,1389.913Z" transform="translate(-882.903 -1249.994)"/><path class="t" d="M1136.269,665.617a.8.8,0,0,0,.024.206,2.988,2.988,0,0,1-.708,2.712s1.96.918.757,3.322c-1.539,3.078-11.652,7.817-11.652,7.817l12.642-5.264a3.5,3.5,0,0,0,.743-1.641c.23-2.4-1.494-5.169-1.494-5.169A6.106,6.106,0,0,0,1136.269,665.617Z" transform="translate(-1057.773 -612.075)"/><path class="t" d="M794.724,678.818c-9.234-3.884-13.118-7.4-12.165-9.161a1.877,1.877,0,0,1,2.638-.806,6.928,6.928,0,0,1-3.644-5.526,7.625,7.625,0,0,0,.278,3.415,5.914,5.914,0,0,0-1.433,3.625C782.045,674.787,794.724,678.818,794.724,678.818Z" transform="translate(-749.354 -610.022)"/><path class="s" d="M513.87,1046.4c-1.27-4.3,2.443-19.738,1.661-21.5s-6.254,21.986-9.771,21.79-16.22-3.909-17.491-4.4,5.765-17.1,5.863-18.859-5.277,13.191-5.765,14.462c-.407,1.059-2.77,2.294-3.545,2.676a4.19,4.19,0,0,1,2.29.424l.147.041.186-.3c-.364.907-.146.349-.637,1.681,0,0,17.918,6.68,35.95,7.879a.121.121,0,0,0,0-.088C522.469,1049.335,515.141,1050.7,513.87,1046.4Z" transform="translate(-484.574 -932.489)"/><path class="u" d="M499.27,1294.705c-1.466-2.125-1.1-2.785-2.785-4.1-1.626-1.272-2.474-9.158-2.491-9.784-.389,4.541-.385,9.5,1.062,11.81,3.026,4.841,2.922,3.9,5.949,5.258s19.618,8.479,25.625,8.375C515.588,1304.4,500.736,1296.83,499.27,1294.705Z" transform="translate(-492.594 -1163.177)"/><path class="ac" d="M658.629,1803.982c-3.957-3.517-3.957-34.076-5.5-41.331s.22,33.636.22,37.813,4.483,4.833,2.2,6.6-21.325,2.858-23.963-.879-3.518-27.481-5.5-31.438-.22,30.559-1.539,33.417-24.4,5.056-28.8,1.319-1.979-52.763-4.177-54.522-.44,48.586-1.979,52.1-16.488,2.858-17.808,1.759.22-21.984-.66-27.481-1.759,14.51-3.517,22.2c-1.386,6.065-3.859,5.531-4.844,5.033a7.692,7.692,0,0,0,4.749,1.043l-.138,1.233c6.651-.453,13.319-.746,19.98-.745,1.7,0,2.206.026,3.84.075q-.051.315-.1.63s22.013,3.411,32.73,1.228a6.471,6.471,0,0,0,4.662-3.173c5.193.572,10.393,1.068,15.6,1.438,8.676.6,13.924-2.474,13.924-2.474l-.18-2.533,2.026-.411A8.487,8.487,0,0,1,658.629,1803.982Z" transform="translate(-554.4 -1587.874)"/><path class="u" d="M1160.065,1251.192c2.785.953-4.764-2.712-5.863-3.444s.733-1.832,6.962-1.026-.513-.806-4.031-1.246c-3.439-.43-2.675-5.831-1.406-6.688-1.233.332-2.482.638-3.722.9,0,.015,0,.031,0,.046-.1,1.385.811,1.793.782,3.127a15.389,15.389,0,0,0,.593,3.339,1.483,1.483,0,0,0-1.522.694c-.66,1.586-22.592,1.563-23.183,3.736,0,0,4.275-1.637,15.781-1.71S1157.28,1250.239,1160.065,1251.192Z" transform="translate(-1061.342 -1125.527)"/><path class="u" d="M1196.193,1250.225c.44,3.371-1.759,2.858-3,5.35s-1.686,6.962-6.3,9.087-16.416,4.25-22.938,4.324c-5.939.067-9.629-.231-10.241-.285a6.7,6.7,0,0,0,1.191,2.3s21.121-2.068,28.523-4.369,10.721-5.924,10.721-5.924,2.418-4.91,2.638-7.329a92.728,92.728,0,0,0-1.094-13.3C1195.708,1241.649,1195.816,1247.336,1196.193,1250.225Z" transform="translate(-1083.766 -1126.685)"/><g transform="translate(12.981 198.056)"><path class="u" d="M1439.672,2066.2c-.293,5.179,3.59,5.793,3.59,5.793l.654-.133c-3.673-3-3.868-17.449-4.245-19.048C1439.281,2051.156,1439.965,2061.025,1439.672,2066.2Z" transform="translate(-1352.807 -2052.631)"/><path class="u" d="M610.693,2160.859c-1.905-1.832-.049-20.154-1.392-12.9-1.617,8.734-2.269,13.473-2.269,13.473l1-.065q1.58-.1,3.161-.194A1.807,1.807,0,0,1,610.693,2160.859Z" transform="translate(-607.032 -2136.513)"/><path class="u" d="M1047.227,2126.6q4.987.549,9.982.991c-2.913-.411-7.134-1.211-8.436-2.513-2.052-2.052-2.736-13.753-3.249-15.365s-.049,14.413-.855,16.831-3.738,2.785-10.626,3.664a36.647,36.647,0,0,1-3.835.247,57.658,57.658,0,0,0,12.357-.682A6.471,6.471,0,0,0,1047.227,2126.6Z" transform="translate(-986.116 -2103.66)"/><path class="u" d="M828.734,2117.12c-1.635-.336-2.749-.707-3-1.072-1.026-1.466-.489-17.759-1.075-19.738s-.1,16.88-1.27,19.152a1.119,1.119,0,0,1-.357.377l1.316.04q-.051.315-.1.63S825.986,2116.78,828.734,2117.12Z" transform="translate(-800.521 -2091.629)"/></g><path class="u" d="M651.573,1152.062c-.684-1.172,1.466-10.846,1.173-12.312s-2.834,8.892-3.811,10.749-8.4.391-8.4.391l-.027,0a136.845,136.845,0,0,0,16.08,3.061C655.085,1153.646,652.083,1152.935,651.573,1152.062Z" transform="translate(-624.035 -1036.681)"/><path class="u" d="M1342.287,1193.765c-3.615.684-5.472-2.736-5.863-4.1s.391,1.759-.2,3.713-1.466,2.248-1.466,2.248S1345.9,1193.081,1342.287,1193.765Z" transform="translate(-1245.959 -1081.217)"/></g><path class="ac" d="M651.945,2325.823a13.51,13.51,0,0,0,2.345,4.2c1.368,1.368,5.863.977,14.853-3.127,0,0-9.967,2.638-12.117,2.247S651.75,2324.064,651.945,2325.823Z" transform="translate(-151.834 -1947.212)"/><path class="s" d="M1203.411,2327.406c-1.023,1.534-3.713,2.638-5.57,3.42a4.351,4.351,0,0,1-4.69-1.173c-.879-.977-4.69-8.892-4.69-8.892s6.156,9.283,8.6,8.6S1204.634,2325.572,1203.411,2327.406Z" transform="translate(-632.457 -1943.031)"/></g></svg>