<svg height="152.579" viewBox="0 0 140.213 152.579" width="140.213" xmlns="http://www.w3.org/2000/svg"><path d="m80.248 79.275a9.468 9.468 0 0 0 -1.878-1.814 5.724 5.724 0 0 0 -6.023-3.218 11.344 11.344 0 0 0 -5.416 3.006 11.571 11.571 0 0 1 -5.661.262c-1.557-.234-3.009-.652-4.483.123-2.794 1.474.908 4.3 2.257 5.282.794 1.488 1.825 3.3 3.588 3.46 1.864.167 3.75-1.042 5.592-1.259 1.488-.173 2.282.671 3.391 1.5a14.059 14.059 0 0 0 3.2 1.917 2.25 2.25 0 0 0 1.858-.145.2.2 0 0 0 .226-.1 2.375 2.375 0 0 0 .3-1.8 2.061 2.061 0 0 0 2.226.844c1.1-.362 1.156-1.552.97-2.544.85.212 1.348-.435 1.5-1.329.275-1.58-.708-3.032-1.647-4.185z" fill="#e38687" transform="translate(30.409 63.91)"/><path d="m80.248 78.322a9.468 9.468 0 0 0 -1.878-1.814 5.79 5.79 0 0 0 -.658-1.067 6.8 6.8 0 0 0 -7.787 1.153c2.767-.688 5.792-1.683 8.291.123 1.507 1.095 3.588 3.268 2.964 5.327a.233.233 0 0 1 -.343.134c-.777-.465-.933-1.362-1.376-2.1-.819-1.379-1.856-2.931-3.572-3.243-2.159-.4-4.363.964-6.174 2.145 2.285-.758 5.363-1.925 7.093-.312a14.166 14.166 0 0 1 2.154 2.923c.348.554 1.014 1.5.61 2.182-.85 1.449-2.87-1.39-3.282-1.92a4.622 4.622 0 0 0 -4.636-2.062 10.475 10.475 0 0 0 -2.954 1.233 4.966 4.966 0 0 1 3.006-.156 8.447 8.447 0 0 1 2.842 1.766 3.563 3.563 0 0 1 1.4 2.187c.033.482-.518.535-.853.407-2.162-.853-4.24-3.917-6.784-3-.582.212-2.048.847-2.41-.084-.488-1.248-.24-3.079-1.429-3.956-.117-.092-.4-.184-.248-.231a2.2 2.2 0 0 0 1.114-.591 3.817 3.817 0 0 0 .5-.78 13.382 13.382 0 0 1 -4.566-.033c-1.557-.234-3.009-.652-4.483.123-2.794 1.474.908 4.3 2.257 5.282.794 1.488 1.825 3.3 3.588 3.46 1.864.167 3.75-1.042 5.592-1.259 1.488-.173 2.282.671 3.391 1.5a14.059 14.059 0 0 0 3.2 1.917 2.25 2.25 0 0 0 1.858-.145.2.2 0 0 0 .226-.1 2.375 2.375 0 0 0 .3-1.8 2.061 2.061 0 0 0 2.226.844c1.1-.362 1.156-1.552.97-2.544.85.212 1.348-.435 1.5-1.329.273-1.575-.71-3.027-1.649-4.18z" fill="#bb3645" opacity=".4" transform="translate(30.409 64.863)"/><path d="m80.078 79.275a9.468 9.468 0 0 0 -1.878-1.814 5.724 5.724 0 0 0 -6.023-3.218 9.353 9.353 0 0 0 -1.644.507 5.479 5.479 0 0 1 3.747.153 4.3 4.3 0 0 1 1.265.56 7.228 7.228 0 0 1 1.41 1.309 6.133 6.133 0 0 0 -.861-.293 10.346 10.346 0 0 0 -5.714.758c-.059.014-.045.114.017.1 2.627-.549 5.335-1.1 7.659.646a11.109 11.109 0 0 1 2.388 2.689c.423.627 1.6 4.065-.368 3.5l-.011-.006a11.918 11.918 0 0 0 -1.379-2.65 8.413 8.413 0 0 0 -2.154-2.468c-1.822-1.3-4.419-.12-6.294.46a.06.06 0 0 0 .025.117c1.649-.3 3.85-1.009 5.475-.357 1.563.63 2.611 2.694 3.332 4.1.429.833 1.187 2.546.24 3.293-1.2.944-2.591-1.518-3.307-2.134a.134.134 0 0 0 -.1-.022 12.922 12.922 0 0 0 -1.541-1.452 7.336 7.336 0 0 0 -2.978-1.627c-1.167-.256-2.524.41-3.558.864a.034.034 0 0 0 .025.064 9.828 9.828 0 0 1 3.1-.507 5.227 5.227 0 0 1 2.538 1.24c1.385 1 3.157 2.574 2.987 4.408a.7.7 0 0 1 -.359.418 2.282 2.282 0 0 1 -1.75-.3 17.132 17.132 0 0 1 -2.755-1.786 7.139 7.139 0 0 0 -1.986-1.3 4.369 4.369 0 0 0 -1.936-.059c-1.513.2-2.886.931-4.369 1.226-2.254.446-3.3-1.914-4.583-3.307a.057.057 0 0 0 -.081-.014c-.588-.582-1.265-1.078-1.811-1.691-.334-.237-.66-.49-.983-.752a10.682 10.682 0 0 0 3.009 2.978c.794 1.488 1.825 3.3 3.588 3.46 1.864.167 3.75-1.042 5.592-1.259 1.488-.173 2.282.671 3.391 1.5a14.059 14.059 0 0 0 3.2 1.917 2.25 2.25 0 0 0 1.858-.145.2.2 0 0 0 .226-.1 2.375 2.375 0 0 0 .3-1.8 2.061 2.061 0 0 0 2.226.844c1.1-.362 1.156-1.552.97-2.544.85.212 1.348-.435 1.5-1.329.277-1.572-.706-3.024-1.645-4.177z" fill="#bb3645" opacity=".6" transform="translate(30.579 63.91)"/><path d="m68.125 75.219c-2.928-2.037-5.92-.529-8.18 1.716-.031.036.022.086.059.061a13.73 13.73 0 0 1 3.46-1.953 6.039 6.039 0 0 1 4.552.354c.103.042.209-.103.109-.178z" fill="#f7b9bb" transform="translate(37.852 64.098)"/><path d="m69.523 76.7c-2.282-2.455-5.873-1.594-8.589-.423-.047.017-.025.075.014.061 2.661-.9 6.11-1.326 8.534.412a.033.033 0 0 0 .041-.05z" fill="#f7b9bb" transform="translate(39.586 65.646)"/><path d="m66.313 76.358c-1.569-.655-3.655-.2-5.235.176-.042.008-.022.067.011.064a11.77 11.77 0 0 1 4.784.159c1.886.621 2.931 2.5 3.714 4.182.042.078.156.045.131-.045-.56-1.917-1.471-3.731-3.405-4.536z" fill="#f7b9bb" transform="translate(39.85 67.255)"/><path d="m64.413 77.722a4.208 4.208 0 0 0 -1.435-.716 8.272 8.272 0 0 0 -2.271.059c-.031 0-.031.05 0 .053.524.059 1.042 0 1.571.028a4.159 4.159 0 0 1 2.145 1 8.921 8.921 0 0 1 2.463 2.563c.033.05.1 0 .086-.05a5.581 5.581 0 0 0 -2.559-2.937z" fill="#f7b9bb" transform="translate(39.19 68.873)"/><path d="m66.773 33.046a16.013 16.013 0 0 0 -12.44-8.383c-5.115-.552-8.428 2.56-11.066 6.391a16.19 16.19 0 0 1 3.168-2.56 11.6 11.6 0 0 1 13.187.245 17.769 17.769 0 0 1 6.848 12.32c.911 8.517-3.68 17.761-10.974 22.4a44.644 44.644 0 0 1 -11.738 6.436 42.7 42.7 0 0 0 -11.777 6.33c-7.405 6.015-9.058 16.385-4.934 24.849a25.176 25.176 0 0 0 11.178 10.877 26.434 26.434 0 0 0 7.43 2.663c2.251.345 4.477-.894 6.581-1.3a48.107 48.107 0 0 0 -7.124-3.577 31.311 31.311 0 0 1 -6.948-4.218 17.792 17.792 0 0 1 -6.139-13.619c-.29-14.1 13.73-16.391 23.03-22.506a32.9 32.9 0 0 0 10.373-10.9c4.301-7.416 5.546-17.722 1.345-25.448z" fill="#934445" transform="translate(-24.837 -24.599)"/><path d="m63.708 29.633a14.515 14.515 0 0 0 -10.565-4.892 8.949 8.949 0 0 0 -5.377 1.359.1.1 0 0 0 .089.17c5.229-2.365 11.275.543 14.886 4.488s4.137 9.868 3.569 14.908c-1.3 11.434-10.047 18.695-20.029 23.03-8.205 3.564-17.581 7.117-20.425 16.469-2.8 9.186 3.315 20.026 12.1 23.609a12.143 12.143 0 0 0 2.591.908c.568.1 1.817-.917 1.329-1.176a24.139 24.139 0 0 1 -10.91-10.915c-2.471-4.814-1.895-11.036.833-15.744 3.588-6.216 13.83-9.453 21.963-14.365 8.428-5.093 14.212-13.942 14.5-23.9.138-4.59-1.556-10.408-4.554-13.949z" fill="#e38687" transform="translate(-24.241 -24.363)"/><g fill="#bb3645" opacity=".7" transform="translate(.002 .114)"><path d="m40.169 26.254c-.85-.114-1.858-.031-2.031.961a4.637 4.637 0 0 0 -.059.524 16.115 16.115 0 0 1 1.167 1.361.157.157 0 0 1 .05-.02 2.794 2.794 0 0 1 1.959-1.652 15.035 15.035 0 0 0 -1.086-1.174z" transform="translate(-1.189 -21.827)"/><path d="m36.567 26.562a5.586 5.586 0 0 1 .872-1.613c-.549-.131-1.112-.231-1.686-.309a4.05 4.05 0 0 0 -.276 1.953c.345.05.685.1 1.025.181a2.038 2.038 0 0 1 .065-.212z" transform="translate(-5.879 -24.64)"/><path d="m39.968 32.914a2.8 2.8 0 0 1 2.708-.566c-.059-.794-.162-1.574-.3-2.354a3.676 3.676 0 0 0 -.365-.078 2.585 2.585 0 0 0 -2.287.666c.061.348.111.7.15 1.056.044.424.075.847.094 1.276z" transform="translate(1.753 -15.292)"/><path d="m37.119 39.621a3.789 3.789 0 0 1 1.613 2.923c.666-.582 1.321-1.184 1.942-1.817v-.008c-.276-2.159-1.644-2.627-3.388-2.594-.435.34-.878.658-1.332.97a3.591 3.591 0 0 1 1.165.526z" transform="translate(-4.984 -.558)"/><path d="m31.909 41.232a3.745 3.745 0 0 1 1.791 3.243 5.754 5.754 0 0 1 -.287 1.34q.773-.393 1.552-.772a3.506 3.506 0 0 0 .287-2.761c-.343-.964-1.162-1.3-1.931-1.719-.5.22-1.011.421-1.518.621.031.016.07.031.106.048z" transform="translate(-12.407 3.8)"/><path d="m30.686 45.591a5.4 5.4 0 0 1 .967 2.92 19.876 19.876 0 0 1 1.6-1.413 8.668 8.668 0 0 0 -.128-1.022 5 5 0 0 0 -1.27-2.981 3.567 3.567 0 0 0 -2.053-.68c-.755.476-1.477.995-2.19 1.535a3.914 3.914 0 0 1 3.074 1.641z" transform="translate(-19.882 7.108)"/><path d="m28.037 54.455a5.48 5.48 0 0 1 4.795-1c-.148-.251-.293-.5-.423-.763-1.6-.986-3.243-1.911-5.06-.889a3 3 0 0 0 -1.549 2.397 21.174 21.174 0 0 0 1.218 1.931 3.452 3.452 0 0 1 1.019-1.676z" transform="translate(-23.114 23.079)"/><path d="m33.386 55.611a5.321 5.321 0 0 1 .646-.262 24.667 24.667 0 0 1 -2.246-1.571 5.523 5.523 0 0 0 -1.354.577 3.937 3.937 0 0 0 -1.741 3.914 28.343 28.343 0 0 0 2.644 1.552 3.9 3.9 0 0 1 2.051-4.21z" transform="translate(-17.984 27.403)"/><path d="m27.209 50.829a4.7 4.7 0 0 1 4.912 1.41c-.05-.543-.089-1.092-.1-1.649v-.09a5.721 5.721 0 0 0 -2.39-2.393c-2.265-1.089-3.948.351-4.795 2.307.011.691.05 1.376.123 2.062a4.426 4.426 0 0 1 2.25-1.647z" transform="translate(-24.838 16.599)"/><path d="m39.258 36.715a3.339 3.339 0 0 1 2.009 2.126c.351-.635.68-1.284.983-1.961a3.1 3.1 0 0 0 -.29-.435 2.634 2.634 0 0 0 -2.769-1.064c-.212.4-.435.78-.666 1.162a4.05 4.05 0 0 1 .733.172z" transform="translate(-.392 -5.583)"/></g><path d="m48.884 40.168c-8.213 3.772-17.148 6.971-21.692 15.39-4.213 7.812.242 16.842 6.673 21.854.05.039.109-.031.061-.07-6.113-5.9-9.62-14.552-5.118-22.411a25.6 25.6 0 0 1 9.478-8.952c3.48-2.045 7.341-3.349 10.779-5.461.192-.118.028-.445-.181-.35z" fill="#f7b9bb" opacity=".6" transform="translate(-23.575 3.177)"/><path d="m49.253 38.118c-.7-6.843-6.982-12.989-13.875-13.278-.047 0-.047.072 0 .081 7.578 1.549 12.813 6.971 13.5 14.738.794 9.116-2.917 16.937-9.314 23.247-.045.045.028.109.072.064 3.341-3.432 6.291-6.623 8.1-11.13a28.889 28.889 0 0 0 1.517-13.722z" fill="#f7b9bb" opacity=".6" transform="translate(-6.072 -24.171)"/><path d="m37.51 38.686c-.421.4-.953.641-1.382 1.022a.045.045 0 0 0 .053.072 6.369 6.369 0 0 0 1.385-1.05c.034-.03-.026-.075-.056-.044z" fill="#f7b9bb" opacity=".6" transform="translate(-4.701 .542)"/><path d="m80.611 62.391c2.382 5.594 3.937 15.229-.212 22.071s-4.143 8.907-3.413 9.84-8.812 6.422-11.5 2.588-.621-6.628 1.452-13.468-4.1-17.706 4.661-21.339c6.73-2.798 9.012.308 9.012.308z" fill="#857f76" transform="translate(45.47 40.264)"/><path d="m74.637 63.583a.2.2 0 0 0 -.376.081 25.663 25.663 0 0 1 .351 5.951 29.016 29.016 0 0 1 -1.257 5.625 34.48 34.48 0 0 1 -5.216 9.735.13.13 0 0 0 .2.17c5.097-5.381 9.361-14.112 6.298-21.562z" fill="#f9f5e8" transform="translate(52.453 44.809)"/><path d="m80.611 62.391c2.382 5.594 3.937 15.229-.212 22.071s-4.143 8.907-3.413 9.84-8.812 6.422-11.5 2.588-.621-6.628 1.452-13.468-4.1-17.706 4.661-21.339c6.73-2.798 9.012.308 9.012.308z" fill="#8d8c86" opacity=".6" transform="translate(45.47 40.264)"/><path d="m78.3 88.2a12.317 12.317 0 0 1 -3.251 2.117c-1.2.535-3.466 1.181-3.878-.68-.482-2.2 1.571-4.176 2.58-5.9a17.141 17.141 0 0 0 2.006-5.971c.437-2.257 1.031-4.759 2.742-6.444 1.346-1.326 3.051-1.477 4.343.045a31.09 31.09 0 0 0 -2.226-8.971s-2.282-3.106-9.016-.306c-8.759 3.633-2.588 14.5-4.661 21.339s-4.143 9.637-1.452 13.468 12.228-1.658 11.5-2.588c-.572-.739-.695-2.185 1.313-6.109z" fill="#8d8c86" opacity=".6" transform="translate(45.47 40.264)"/><path d="m76.632 92.836c-.758.284-1.535.535-2.343.761-1.677.471-5.165 1.719-6.556-.047-1.19-1.5-.552-3.87.164-5.438.613-1.337 1.418-2.577 2.07-3.889a27.585 27.585 0 0 0 1.744-4.909c.889-3.2 1.123-6.514 1.939-9.723.744-2.953 2.513-6.514 5.243-8.311-1.385-.5-3.708-.688-7.3.808-8.759 3.633-2.588 14.5-4.661 21.339s-4.143 9.637-1.452 13.468 12.228-1.658 11.5-2.588a2.014 2.014 0 0 1 -.348-1.471z" fill="#8d8c86" transform="translate(45.47 40.263)"/><path d="m80.886 47.883c-21-10.634-48.639 2.9-50.144 33.018-.415 8.289 3.452 23.211 12.986 31.77s28.521 12.777 34.806 14.919 35.367 4.973 45.382-7.461 10.431-24.033 2.967-36.052-45.997-36.194-45.997-36.194z" fill="#857f76" transform="translate(-14.344 10.568)"/><path d="m74.812 47.105a38.751 38.751 0 0 0 -13.54-2.56 34.068 34.068 0 0 0 -13.372 3.271c-7.492 3.46-13.805 10.668-14.8 19.046a.082.082 0 0 0 .162.031c1.758-8.2 8.291-14.616 15.75-17.99a36.323 36.323 0 0 1 11.707-2.895c4.817-.44 9.269.83 13.969 1.493.227.028.352-.309.124-.396z" fill="#f9f5e8" transform="translate(-10.083 11.018)"/><path d="m126.884 79.71c-3.366-5.427-13.064-13.329-22.7-20.363-.368.343-.733.7-1.089 1.056-6.514 6.427-12.108 14.6-12.7 24a31.161 31.161 0 0 0 .535 8.562 15.115 15.115 0 0 0 4.775 7.639c4.224 4.043 10.069 6.8 16.017 6.656 4.263-.109 11.71 3.873 3.045 8.851a13.8 13.8 0 0 1 -12.549.326c-5.168-2.494-6.921-8.085-8.968-13.036a97.859 97.859 0 0 0 -4.775-9.601c-1.3-2.379-2.36-4.878-3.633-7.269-1.616-3.04-5.516-9.631-9.782-7.035a.2.2 0 0 1 -.17.022c-2.123 1.454-2.939 3.611-3.945 5.987-.674 1.591-1.521 4.029-3.483 4.346s-3.215-2.037-4-3.413a42.857 42.857 0 0 0 -4.09-6.085c-1.661-2-3.8-3.806-6.5-4.02a8.808 8.808 0 0 0 -4.742.811 20.544 20.544 0 0 0 -3.43 2.466c-1.6 1.307-3.772 1.819-5.477.373a9.982 9.982 0 0 1 -2.786-5.38c-1.312-5.441-1.591-11.337.568-16.611a26.133 26.133 0 0 1 4.778-7.731c1.134-1.212 2.566-2.29 3.761-3.527-8.213 6.157-14.131 16.313-14.8 29.8-.415 8.289 3.452 23.211 12.986 31.77s28.521 12.777 34.806 14.919 35.367 4.973 45.382-7.461 10.43-24.033 2.966-36.052z" fill="#8d8c86" transform="translate(-14.344 14.936)"/><path d="m131.42 82.262c.011 7.69 1.752 13.239-7.782 24.016-3.92 4.43-7.581 6.862-13.468 7.665-3.237.443-13.056-3.109-16.783-14.3-.858-2.577-.412 11.61-3.084 11.108a26.8 26.8 0 0 1 -12-5.015 23.413 23.413 0 0 1 -6.333-8.264 32.476 32.476 0 0 1 .507 7.971.233.233 0 0 1 -.393.164c-5.215-5.172-3.784-12.934-6.084-19.356.382 3.809.808 7.7.206 11.481-.3 1.881-.864 4.1-2.4 5.374a4.225 4.225 0 0 1 -4.839.426 34.157 34.157 0 0 1 -5.825-4.232 34.151 34.151 0 0 1 -5.759-5.639 20.892 20.892 0 0 1 -3.566-6.91 75.089 75.089 0 0 1 -1.538-7.7 17.785 17.785 0 0 0 -1.649 2.931 5.666 5.666 0 0 1 -1.2 1.984c-1.24 1.014-2.407-.733-3-1.666a27.619 27.619 0 0 1 -3.168-8.957 34.5 34.5 0 0 1 -.744-9.4 43.023 43.023 0 0 1 2.491-12.632 42.839 42.839 0 0 0 -4.271 17.048c-.415 8.289 3.452 23.211 12.986 31.77s28.521 12.777 34.806 14.919 35.367 4.973 45.382-7.461c7.02-8.704 9.319-17.003 7.508-25.325z" fill="#8d8c86" transform="translate(-14.344 23.11)"/><path d="m70.246 81.7c-.733-1.148-2.151-1.488-3.393-1.739a15.962 15.962 0 0 0 -1.992-.256 27.734 27.734 0 0 1 -4.291-1.117c-1.686-.658-3.341-1.418-4.987-2.173-3.318-1.527-6.363-3.354-9.526-5.151-2.6-1.477-6.026-2.842-9.052-2.129a4.326 4.326 0 0 0 -3.435 2.978c-.017 0-.022.017-.028.031-.995 2.588 1.137 4.784 3.187 5.926a50.436 50.436 0 0 1 9.046 5.737c2.552 2.237 5.087 4.391 8.392 5.4a13.878 13.878 0 0 0 6.932.627 4.216 4.216 0 0 0 2.853-1.17 2.585 2.585 0 0 0 .348-.464.387.387 0 0 0 .148.053 3.659 3.659 0 0 0 3.68-1.669.511.511 0 0 0 .117.058c1.109.3 1.97-.582 2.485-1.463a3.452 3.452 0 0 0 -.484-3.479z" fill="#e38687" transform="translate(-9.739 54.596)"/><path d="m70.386 81.925a2.308 2.308 0 0 1 .111.571c.022.46-.006 2.215-.894 2-.563-.128-.334-1.627-1.4-2.457a6.935 6.935 0 0 0 -3.683-1.284 3.484 3.484 0 0 1 -1.619-.379c-.117-.067-.365-.234-.056-.58.265-.3.488-.312 1.059-.3a21.586 21.586 0 0 1 -3.332-.917c-1.686-.658-3.341-1.418-4.987-2.173-3.318-1.527-6.363-3.354-9.526-5.151-2.6-1.477-6.026-2.842-9.052-2.129a4.326 4.326 0 0 0 -3.435 2.978c-.017 0-.022.017-.028.031-.995 2.588 1.137 4.784 3.187 5.926a50.436 50.436 0 0 1 9.046 5.737c2.552 2.237 5.087 4.391 8.392 5.4a13.878 13.878 0 0 0 6.932.627 4.216 4.216 0 0 0 2.853-1.17 2.585 2.585 0 0 0 .346-.455.387.387 0 0 0 .148.053 3.659 3.659 0 0 0 3.68-1.669.511.511 0 0 0 .117.058c1.109.3 1.97-.582 2.485-1.463a3.309 3.309 0 0 0 -.344-3.254zm-13.112 5.332a15.554 15.554 0 0 1 -4.031-1.429c-.724-.4-6.394-3.842-8.2-5.831-.563-.621-.747-1.1-.3-1.3.15-.067.5.053.981.293 1.44.71 4.048 2.494 5.959 3.441 3.753 1.85 5.592.621 8.564 1.2 1.179.231 2.594.488 3.226 1.635 1.572 2.834-5.026 2.256-6.199 1.991zm9.026-1.872a2.123 2.123 0 0 1 -1.836-.752 3.838 3.838 0 0 0 -1.426-1.46c-.655-.318-1.92-.646-1.594-1.159.2.1 2.382-.287 3.371-.109a3.511 3.511 0 0 1 2.725 1.549 1.287 1.287 0 0 1 -1.24 1.931z" fill="#bb3645" opacity=".4" transform="translate(-9.739 54.596)"/><path d="m70.246 81.526c-.733-1.148-2.151-1.488-3.393-1.739a15.962 15.962 0 0 0 -1.992-.256c-.518-.111-1.042-.217-1.557-.334 1.856.476 4.029.7 5.352 1.761a3.378 3.378 0 0 1 1.566 1.953c.379 1.084-.332 3.235-1.805 2.872a3.29 3.29 0 0 0 .111-1.574c-.451-2.591-3.218-3.042-5.372-2.641-.025.008-.033.047 0 .047 1.85.111 3.594.033 4.541 1.953 1.073 2.187-1.048 4-3.129 3.831l-.039.011a3.681 3.681 0 0 0 -1.059-3.048c-1.259-1.421-3.2-1.672-4.993-1.686-1.2-.011-2.4.07-3.6.028a9.61 9.61 0 0 1 -4.137-1.279c-.031-.014-.061.033-.031.053a8.583 8.583 0 0 0 4.143 1.752c1.85.184 3.708-.095 5.558.212 1.752.287 3.8 1.811 3.527 3.8-.273 1.959-3.881 1.947-5.288 1.861a18.881 18.881 0 0 1 -4.605-.844c-3.081-.983-5.511-2.964-7.968-4.981a53.128 53.128 0 0 0 -7.287-4.978 18.79 18.79 0 0 1 -3.658-2.251 5 5 0 0 1 -1.393-3.268 4.506 4.506 0 0 1 .153-.607 2.561 2.561 0 0 1 .368-.928 6.3 6.3 0 0 1 2.5-2.212 4.238 4.238 0 0 0 -3.187 2.9c-.017 0-.022.017-.028.031-.995 2.588 1.137 4.784 3.187 5.926a50.436 50.436 0 0 1 9.046 5.737c2.552 2.237 5.087 4.391 8.392 5.4a13.878 13.878 0 0 0 6.932.627 4.216 4.216 0 0 0 2.853-1.17 2.585 2.585 0 0 0 .343-.471.387.387 0 0 0 .148.053 3.659 3.659 0 0 0 3.68-1.669.511.511 0 0 0 .117.058c1.109.3 1.97-.582 2.485-1.463a3.452 3.452 0 0 0 -.481-3.467z" fill="#bb3645" opacity=".6" transform="translate(-9.739 54.769)"/><path d="m44.5 57.372c8.1-1.83 13.989 9.116 16.168 21.756s3.552 25-6.634 23.726c-2.482-.312-5.179-1.137-8.907-4.143s-9.127-5.184-10.884-5.388l2.591-1.248a23.956 23.956 0 0 1 -1.97-3.2 8.072 8.072 0 0 1 3.522 1.449s-6.628-12.129-1.346-23.836c1.619-3.588 4.249-8.388 7.46-9.116z" fill="#857f76" transform="translate(-8.037 33.577)"/><path d="m58.716 95.884c-2.3 1.034-5.012.373-7.23-.546a18.047 18.047 0 0 1 -6.584-5.09c-7.029-8.183-10.662-19.569-7.57-29.962-.1.215-.2.426-.293.638-5.282 11.707 1.346 23.832 1.346 23.832a8.072 8.072 0 0 0 -3.522-1.449 23.956 23.956 0 0 0 1.97 3.2l-2.59 1.253c1.755.2 7.146 2.382 10.88 5.388s6.425 3.831 8.907 4.143c3.524.44 5.661-.749 6.865-3.017a6.524 6.524 0 0 1 -2.179 1.61z" fill="#8d8c86" transform="translate(-8.037 39.141)"/><path d="m45.472 67.535c-2.354 8.907-.1 22.378 5.388 28.7s15.44 11.085 20.929 12.949a25.636 25.636 0 0 1 8.183 4.246 6.093 6.093 0 0 0 -.931-3.212s3.622 1.557 6.113 1.039l-1.761-3.834a4.879 4.879 0 0 0 2.694-1.867s-3.733 1.348-8.394-3.006-7.873-6.834-9.219-15.644-4.767-24.963-12.434-28.075c-6.687-2.711-9.116 3.212-10.568 8.704z" fill="#857f76" transform="translate(10.363 35.33)"/><path d="m86.088 104.675a6.477 6.477 0 0 1 -3.845-.187c.008.031.025.056.033.089.4 1.454-1.145 1.847-2.276 2.009a13.165 13.165 0 0 1 -4.6-.29 32.692 32.692 0 0 1 -4.6-1.179 36.893 36.893 0 0 1 -8.3-4.461 33.637 33.637 0 0 1 -10.678-11.814 47.894 47.894 0 0 1 -4.712-15.923c-.671-4.94-.315-10.019 2.26-14.273-1.978 1.764-3.09 4.951-3.9 8.007-2.354 8.907-.1 22.378 5.388 28.7s15.442 11.085 20.931 12.947a25.636 25.636 0 0 1 8.183 4.246 6.093 6.093 0 0 0 -.931-3.212s3.622 1.557 6.113 1.039l-1.761-3.834a4.879 4.879 0 0 0 2.695-1.864z" fill="#8d8c86" opacity=".6" transform="translate(10.363 36.211)"/><path d="m65.87 94.586c-5.728-4.55-7.748-11.749-9.308-18.578-1-4.366-1.9-10.3-5.745-13.192a.128.128 0 0 0 -.164.2c4.162 3.8 4.179 11.016 5.433 16.165 1.382 5.667 4.338 12.6 9.651 15.627.13.068.25-.135.133-.222z" fill="#f9f5e8" transform="translate(21.195 43.611)"/><path d="m49.556 72.244c-1.516-5.711-4.433-11.417-9.729-14.446-.12-.07-.24.117-.131.2 4.859 3.555 7.18 9 8.709 14.658.811 2.992 1.457 6.043 1.986 9.1.685 3.912.641 7.876 1.092 11.81.022.181.326.212.334.017a71.009 71.009 0 0 0 -2.261-21.339z" fill="#f9f5e8" transform="translate(1.627 34.669)"/><path d="m129.069 65a29.63 29.63 0 0 0 -.922-8.745 30.294 30.294 0 0 0 -2.942-6.993 11.727 11.727 0 0 0 -4.756-5c-4.363-2.14-8.537 1.959-10.974 5.14a34.159 34.159 0 0 0 -5.514 11.7 28.237 28.237 0 0 0 -15.669-4.179 39.03 39.03 0 0 0 -15.622 3.003 47.079 47.079 0 0 0 -4.023-9.264c-1.727-2.895-4.614-6.6-8.333-6.695-3.962-.1-6.932 3.444-9.122 6.313a28.434 28.434 0 0 0 -4.948 9.679 16.067 16.067 0 0 0 -1.276 5.608 7.029 7.029 0 0 0 3.711 6.633c2.268 1.212 5.046 1.34 7.564 1.293a35.343 35.343 0 0 0 9.177-1.463c-.407.864-.814 1.727-1.2 2.6a42.663 42.663 0 0 0 -2.371 6.455c-2.691-.549-5.561.081-6.283 3.207-.471 2.037.6 4.257 1.566 5.984a38.511 38.511 0 0 0 4.82 6.628c8.358 9.523 19.645 15.58 32.53 12.961a30.492 30.492 0 0 0 8.186-3.218c5.082-2.711 10.155-6.149 13.9-10.59a24.572 24.572 0 0 0 3.552-5.547c.783-1.705 1.326-3.8.421-5.55-1.491-2.909-5.238-2.73-8.333-1.791a52.037 52.037 0 0 0 -1.677-5.062 62.941 62.941 0 0 0 -2.627-5.957c.44.323.889.638 1.354.933a19.408 19.408 0 0 0 4.845 2.031 28.05 28.05 0 0 0 8.573 1.407c2.187-.047 4.3-.8 5.413-2.783a11.542 11.542 0 0 0 .97-4.9c.057-1.278.052-2.56.01-3.838z" fill="#857f76" transform="translate(11.112 9.461)"/><path d="m56.8 60.918c3.622-1.8 13.443-5.993 24.1-2.115 2.207.8 2.388 1.772.187 3.6s-1.956.685-4.285.228-12.54.287-15.232 1.429-2.934.515-4.218-.056-3.43-1.654-.552-3.086z" fill="#f9f5e8" opacity=".4" transform="translate(29.694 33.646)"/><path d="m53.9 68.034s6.288-5.664 18.444-6.216 16.1 2.137 17.889 3.313a22.212 22.212 0 0 0 -6.633-3.868s.621-.276-.279-3.246-2.9-5.316-3.179-1.1.281 3.934.281 3.934a31.491 31.491 0 0 0 -16.438.97s.412-6.152-.763-6.7-4.9 5.8-2.964 7.6c.004-.006-4.696 2.894-6.358 5.313z" fill="#aea897" opacity=".4" transform="translate(27.073 29.03)"/><path d="m120.4 84.727c-1.245 2.549-4.683 4.082-7.1 5.221a35.765 35.765 0 0 1 -8.57 3.157 3.006 3.006 0 0 1 -3.4-1.435c-1.142-2.176-2.168-3.959-4.683-4.8-3.965-1.312-8.69-.964-12.71-.072a18.039 18.039 0 0 0 -6.007 2.176c-1.641 1.07-1.942 2.786-3.023 4.285-1.775 2.452-4.285 1.237-6.441-.092-2.588-1.6-5.118-3.424-7.536-5.271-1.6-1.22-5.282-3.839-4.575-6.336 1.087-3.831 7.762-.061 11.172.981-1.516-1.075-3.485-1.984-3.627-3.948-.184-2.624 1.591-5.28 2.563-7.623 1.964-4.747 3.393-9.021 6.508-13.025-.02 0-.267.2-.279.206-1.4 1.089-1.825 2.1-2.97 3.522-.215.262-.011-.329-.02-.616a24.817 24.817 0 0 0 -3.678-11.791c-.961-1.535-2.449-3.889-4.338-4.4a8.273 8.273 0 0 0 -6.113 1.039c-7.044 4.06-10.162 17.495-9.323 19.389.142.326-.591.351-.7 0a9.553 9.553 0 0 1 -.4-3.3 13.586 13.586 0 0 0 -.178 1.825 7.029 7.029 0 0 0 3.711 6.631c2.268 1.212 5.046 1.34 7.564 1.293a35.343 35.343 0 0 0 9.177-1.463c-.407.864-.814 1.727-1.2 2.6a42.663 42.663 0 0 0 -2.371 6.455c-2.691-.549-5.561.081-6.283 3.207-.471 2.037.6 4.257 1.566 5.984a38.511 38.511 0 0 0 4.82 6.628c8.358 9.523 19.645 15.58 32.53 12.961a30.492 30.492 0 0 0 8.186-3.218c5.082-2.711 10.155-6.149 13.9-10.59a24.572 24.572 0 0 0 3.552-5.547c.752-1.647 1.282-3.653.507-5.372a2.036 2.036 0 0 1 -.231 1.339z" fill="#8d8c86" transform="translate(11.112 11.214)"/><path d="m96.916 78.426c-5.764 2.974-12.897 4.914-19.341 4.074-6.258-.814-12.078-4.363-16.925-8.294a57.225 57.225 0 0 1 -9.05-9.806 18.472 18.472 0 0 1 -2.87-5.695 11.21 11.21 0 0 0 1.67 4.715 38.511 38.511 0 0 0 4.82 6.628c8.358 9.523 19.645 15.58 32.53 12.961a30.492 30.492 0 0 0 8.186-3.218c5.082-2.711 10.155-6.149 13.9-10.59a24.572 24.572 0 0 0 3.552-5.547 10.661 10.661 0 0 0 .7-2c-2.988 7.416-10.418 13.286-17.172 16.772z" fill="#8d8c86" transform="translate(17.839 36.318)"/><path d="m72.015 78.533a4.865 4.865 0 0 0 1.172-3.533.374.374 0 0 1 .365-.368c2.145-.245 4.447-1.017 5.533-3.054.616-1.167 1.218-2.686.677-4.012-.117-.3-.254-.577-.393-.855-.231 3.94-4.823 7.625-8.665 5.4-1.532-.894-3.4-3.04-.733-3.686 3.268-.8 7.18-3.4 7.194-7.1a17.09 17.09 0 0 1 -5.291 3.229 23.778 23.778 0 0 1 -6.592 1.27 25.867 25.867 0 0 1 -5.84-.563c-.1-.022-.209-.042-.315-.067a10.582 10.582 0 0 0 2.3 2.265 11.849 11.849 0 0 0 4.9 1.591.365.365 0 0 1 .265.348c.178 2.652-1.41 3.99-4.026 3.346a10.263 10.263 0 0 1 -3.859-1.407c-.638-.5-.468-1.218-.164-1.861-1.2.744-2.151 2.212-1.259 3.544a4.126 4.126 0 0 0 2.3 1.58 15.411 15.411 0 0 0 4.3.582.375.375 0 0 1 .362.362 3.933 3.933 0 0 0 2.034 3.385 30.09 30.09 0 0 0 5.735-.396z" fill="#8d8c86" transform="translate(32.496 40.992)"/><path d="m92.92 63.482a29.63 29.63 0 0 0 -.92-8.745c-.228-.822-.493-1.635-.794-2.435a24.443 24.443 0 0 1 1.243 11.061c-.3 3.179-.655.515-.719.095a78.611 78.611 0 0 0 -1.73-9.891c-.9-3.237-4.068-7.542-6-8.573-4.054-2.151-8.219 3.477-10.2 6.765-1.822 3.023-2.234 3.731-3.686 8.7-.064.209-.995 2.025-1.8.139-.613-1.457.014-1.959.226-3.377-.262.777-.51 1.563-.733 2.36a23.016 23.016 0 0 0 -2.607-1.459c.153.148.251.371.44.468a5.691 5.691 0 0 1 2.95 3.6c.839 2.129.646 3.229 2.076 6.219.908 1.914 1.881 4.3 2.588 6.3.582 1.641 1.761 3.9 1.588 5.689a3.425 3.425 0 0 1 -1.134 2.237 20.241 20.241 0 0 1 6.533-1.184 6.278 6.278 0 0 1 3.572 1.153c-1.739-2.017-5.009-1.786-7.765-.95a52.037 52.037 0 0 0 -1.677-5.062 62.941 62.941 0 0 0 -2.627-5.957c.44.323.889.638 1.354.933a19.408 19.408 0 0 0 4.85 2.032 28.05 28.05 0 0 0 8.573 1.407c2.187-.047 4.3-.8 5.413-2.783a11.542 11.542 0 0 0 .97-4.9c.063-1.278.058-2.56.016-3.842z" fill="#8d8c86" transform="translate(47.261 10.975)"/><path d="m66.357 64.324c.279-1.794-.07-9.119-2.624-13.4s-4.349-8.216-9.6-4.488-7.873 11.741-8.149 15.128.137 6.9 6.979 7.11a41.7 41.7 0 0 0 11.327-1.034z" fill="#bf5f62" transform="translate(12.823 11.741)"/><path d="m62.487 50.923c-2.552-4.279-4.349-8.216-9.6-4.488a20.16 20.16 0 0 0 -6.266 8.428 19.209 19.209 0 0 1 1.627-1.945c1.309-1.357 2.959-3.028 4.987-2.928 1.574.078 2.716 1.83 3.455 3.017a19.284 19.284 0 0 1 2.521 6.926c.382 2.17 1.048 4.731.844 6.943-.072.78-1.187 1.29-2.117 1.6a33.077 33.077 0 0 0 5.107-.839l2.067-3.315c.278-1.792-.07-9.117-2.625-13.399z" fill="#bb3645" opacity=".4" transform="translate(14.069 11.741)"/><path d="m66.967 64.555a27.906 27.906 0 0 1 2.97-9.673c2.555-4.767 6.837-10.289 9.462-9.668s5.388 4.486 6.701 10.086 1.864 11.465.415 13.543-2.624 2.134-6.079 1.516-10.084-2.974-13.469-5.804z" fill="#bf5f62" transform="translate(50.41 12.134)"/><path d="m74.013 67.313c-.727-.621-.106-3 1.022-6.168a23.058 23.058 0 0 1 3.382-7.035c.841-1.045 2.134-2.572 3.683-2.285a4.328 4.328 0 0 1 2.65 2.062 18.618 18.618 0 0 1 1.856 3.8c-.153-.794-.32-1.6-.507-2.393-1.312-5.594-4.076-9.462-6.7-10.083s-6.907 4.9-9.462 9.668a27.906 27.906 0 0 0 -2.97 9.673c2.914 2.441 8.233 4.516 11.858 5.448a19.692 19.692 0 0 1 -4.812-2.687z" fill="#bb3645" opacity=".4" transform="translate(50.41 12.134)"/><path d="m79.234 64.094c-.006-.036-.064-.053-.075-.011-.167.515-.215 1.059-.423 1.563a5.561 5.561 0 0 1 -1.145 1.554c-.991 1.11-1.848 2.383-3.391 2.7-1.329.276-3.051-.46-4.3-.931a4 4 0 0 1 -2.363-2.246c-.162-1.073-.164-2.151-.384-3.226a.334.334 0 1 0 -.649.142c.332 1.4 1.045 3.3.518 4.7a3.93 3.93 0 0 1 -3.159 2.468 8.531 8.531 0 0 1 -3.819-.807 7.683 7.683 0 0 1 -1.66-.986 3.035 3.035 0 0 1 -.822-1.025c-.382-.733.348-1.557.736-2.092a.043.043 0 0 0 -.064-.058c-1.348 1.3-1.5 2.544-.011 3.809 1.346 1.145 3.343 1.257 5.007 1.477a3.934 3.934 0 0 0 4.065-1.939 2.413 2.413 0 0 0 .418-1.376c1.064 1.967 4.082 2.6 6.143 2.5a5.593 5.593 0 0 0 3.764-2.3c1.01-1.143 1.832-2.31 1.614-3.916z" fill="#aea897" transform="translate(32.899 44.359)"/><path d="m65.057 63.432c-.014 0-.011.017.006.017s.008-.017-.006-.017z" fill="#2f4745" transform="translate(46.982 44.759)"/><g fill="#3d3829"><path d="m74.563 66.478a36.162 36.162 0 0 0 -11.866-3.2 34.419 34.419 0 0 0 -12.139 1.122c-.039.011-.028.089.022.081a50.817 50.817 0 0 1 11.994-.51 34.144 34.144 0 0 1 11.674 3.187.374.374 0 0 0 .315-.68z" transform="translate(21.06 44.282)"/><path d="m72.1 65.507a29.08 29.08 0 0 0 -21.082 1.031c-.031.011-.014.053.011.036a30.37 30.37 0 0 1 9.879-1.817 30.226 30.226 0 0 1 10.891 1.4c.44.143.743-.5.301-.65z" transform="translate(21.902 45.785)"/><path d="m70.611 65.123c-1.488-.4-3.349-.017-4.859.12a54.712 54.712 0 0 0 -5.639.847c-2.884.585-6.1 1.552-8.372 3.516a.045.045 0 0 0 .053.072 24.293 24.293 0 0 1 8.673-2.953c1.775-.315 3.547-.593 5.344-.766a28.421 28.421 0 0 0 4.834-.415c.23-.064.155-.365-.034-.421z" transform="translate(23.182 47.467)"/><path d="m82.227 61.417c-3.728-.24-7.617 1.014-11.058 2.354a25.781 25.781 0 0 0 -4.8 2.519 10.131 10.131 0 0 0 -3.527 3.11c-.167.306.276.543.493.309a25.218 25.218 0 0 1 8.333-5.592 38.548 38.548 0 0 1 4.929-1.6 25.993 25.993 0 0 1 5.631-1.045.028.028 0 0 0 -.001-.055z" transform="translate(42.976 41.107)"/><path d="m80.891 63.26a37.936 37.936 0 0 0 -9.47.217c-2.75.437-6.021 1.145-8.16 3.04a.2.2 0 0 0 .223.326 25.867 25.867 0 0 1 8.361-2.867 38.8 38.8 0 0 1 4.243-.535c1.6-.084 3.2-.008 4.795-.064.064-.006.07-.115.008-.117z" transform="translate(43.646 44.107)"/><path d="m82.8 65.417c-1.663-.387-3.349-.694-5.043-.928s-3.419-.209-5.129-.276a27.1 27.1 0 0 0 -4.984.167 20.417 20.417 0 0 0 -4.547 1.39.192.192 0 0 0 .084.371c1.538-.181 2.992-.822 4.516-1.109a24.454 24.454 0 0 1 4.987-.189c1.791.039 3.6-.025 5.385.134 1.583.148 3.137.465 4.731.471.016-.001.014-.023 0-.031z" transform="translate(43.284 46.081)"/></g><path d="m67.035 68.593c-.045-.457-.081-.917-.109-1.374-.234-.045-.471-.1-.7-.159a5.393 5.393 0 0 1 -3.093-1.872 3.129 3.129 0 0 1 -.206-.332 2.308 2.308 0 0 1 -.276 1.128c-.045.081-.086.162-.142.248a4.226 4.226 0 0 1 -2.232 1.811 4.022 4.022 0 0 1 -.429.1c.067 1.789.44 3.639 1.989 4.714.791.549 2.276.109 2.346-.627a1.47 1.47 0 0 0 .989.187c.944.128 1.616-.6 1.875-1.563a6.3 6.3 0 0 0 -.012-2.261z" fill="#f8f2e2" transform="translate(37.688 47.304)"/><path d="m67.035 68.593c-.045-.457-.081-.917-.109-1.374-.234-.045-.471-.1-.7-.159.075.8.167 1.594.234 2.39a7.2 7.2 0 0 1 -.042 1.661c-.117.736-.669.931-1.268 1.023-1.362-.24-1.424-3.009-1.616-4.07-.17-.944-.3-1.911-.4-2.875a3.129 3.129 0 0 1 -.206-.332 2.308 2.308 0 0 1 -.276 1.128 28.365 28.365 0 0 0 .624 4.486 4.453 4.453 0 0 0 .334 1.223c.011.841-.694 1.048-1.5.73a2.749 2.749 0 0 1 -1.488-1.833 9.553 9.553 0 0 1 -.267-2.017c-.025-.176-.053-.351-.078-.529a4.022 4.022 0 0 1 -.429.1c.067 1.789.44 3.639 1.989 4.714.791.549 2.276.109 2.346-.627a1.47 1.47 0 0 0 .989.187c.944.128 1.616-.6 1.875-1.563a6.3 6.3 0 0 0 -.012-2.263z" fill="#aea897" transform="translate(37.688 47.304)"/><path d="m71.176 57.1a40.6 40.6 0 0 0 -8.915 1.725 25.609 25.609 0 0 0 -7.982 4.3c-.031.02 0 .056.028.039a43.29 43.29 0 0 1 3.778-2.126c1.293-.585 2.677-1.017 4.015-1.474a42.982 42.982 0 0 1 9.353-1.772 34.809 34.809 0 0 1 8.392.1 30.692 30.692 0 0 1 9.019 2.694c.129.068-6.04-4.721-17.688-3.486z" fill="#aea897" transform="translate(27.724 33.088)"/><path d="m58.584 59.017c.106-2.24.072-3.831-.719-3.419s-1.694 3.97-1.282 4.94.933.9 1.382.655.591-1.412.619-2.176z" fill="#14120c" transform="translate(31.679 30.652)"/><path d="m57.038 56.069a1.567 1.567 0 0 0 -.189 1.557c.173.259.449-.192.588-.95s.15-1.552-.399-.607z" fill="#fff" transform="translate(32.107 30.837)"/><path d="m60.251 55.369s-.905-2.976-2.3-2.716-2.039 3.945-2.012 4.36.621.822 1.036 0 1.173-2.134 2-1.173 2.418 2.485 1.276-.471z" fill="#aea897" opacity=".6" transform="translate(30.705 25.477)"/><path d="m59.991 55.369s-.905-2.976-2.3-2.716-1.633 2.744-1.6 3.157.259.34.671-.49 1.062-1.917 1.889-.958 1.649 1.918 1.34 1.007z" fill="#aea897" transform="translate(30.965 25.477)"/><path d="m63.542 58.594c-.1-2.243-.07-3.828.722-3.416s1.7 3.973 1.282 4.94-.933.894-1.382.655-.586-1.419-.622-2.179z" fill="#14120c" transform="translate(44.22 29.9)"/><path d="m64.227 55.651a1.575 1.575 0 0 1 .192 1.549c-.176.262-.451-.184-.593-.944s-.151-1.556.401-.605z" fill="#fff" transform="translate(44.658 30.084)"/><path d="m63.445 54.949s.908-2.978 2.31-2.719 1.947 3.53 1.989 3.948c.209 2.14-1.245-.139-1.658-.97s-1.518.215-2.349 1.173-.595-.523-.292-1.432z" fill="#aea897" opacity=".6" transform="translate(43.623 24.723)"/><path d="m63.308 54.949s.908-2.978 2.31-2.719 1.633 2.747 1.6 3.162-.259.334-.671-.5-1.064-1.914-1.892-.958-1.655 1.924-1.347 1.015z" fill="#aea897" transform="translate(43.76 24.723)"/><path d="m57.547 62.557a28.633 28.633 0 0 1 17.962-2.9c7.113 1.382 4.9 6.007.619 9.462a13.877 13.877 0 0 1 -15.471.833c-4.764-2.843-6.01-5.671-3.11-7.395z" fill="#bf5f62" transform="translate(30.818 37.271)"/><path d="m79.679 60.155c-.273.967-1.507 1.641-2.683 2.009a48.186 48.186 0 0 1 -9.3 1.856c-2.9.293-7.224.911-9.913-.649a2.531 2.531 0 0 1 -1.3-1.552c-1.354 1.727.162 4.107 4.174 6.494a13.877 13.877 0 0 0 15.471-.833c2.936-2.366 4.894-5.28 3.551-7.325z" fill="#bb3645" opacity=".4" transform="translate(30.819 38.906)"/><path d="m70.617 59.594c-2.407-.471-4.931.184-7.28.71-2.326.518-4.931.794-6.584 2.677a.2.2 0 0 0 .215.312 32.634 32.634 0 0 1 6.642-1.713c2.324-.485 4.65-.379 6.951-.755a.624.624 0 0 0 .056-1.231z" fill="#f7b9bb" opacity=".6" transform="translate(32.086 37.615)"/><path d="m66.574 60.522c-.658-1.073-2.647-1.128-3.725-.85a.289.289 0 0 0 -.137.061.753.753 0 0 0 -.543 1.045c.178.646 1.187.747 1.719.775a14.151 14.151 0 0 0 2.251-.1.6.6 0 0 0 .435-.931z" fill="#f7b9bb" opacity=".6" transform="translate(41.754 37.79)"/><path d="m67.035 68.593c-.045-.457-.081-.917-.109-1.374-.234-.045-.471-.1-.7-.159a5.393 5.393 0 0 1 -3.093-1.872 3.129 3.129 0 0 1 -.206-.332 2.308 2.308 0 0 1 -.276 1.128c-.045.081-.086.162-.142.248a4.226 4.226 0 0 1 -2.232 1.811 4.022 4.022 0 0 1 -.429.1 6.961 6.961 0 0 0 .964 3.669 3.815 3.815 0 0 1 .159-2.881 1.207 1.207 0 0 1 1.783-.382 3.788 3.788 0 0 1 .632.922c.039-.685.2-1.376.78-1.5.788-.17 2.156-.017 2.53.822a5.118 5.118 0 0 1 .351 2.078v-.014a6.3 6.3 0 0 0 -.012-2.264z" fill="#aea897" transform="translate(37.688 47.304)"/><path d="m80.344 44.517c-3.145-1.435-5.937.747-8.029 2.928a20.527 20.527 0 0 0 -5.5 10.746.109.109 0 0 0 .215.039 29.172 29.172 0 0 1 4.8-8.723c2.1-2.794 4.683-5.4 8.431-4.739a.133.133 0 0 0 .083-.251z" fill="#f9f5e8" transform="translate(50.141 10.153)"/><path d="m56.762 44.7c-2.889-1.953-5.828-.075-8.2 1.764a.088.088 0 0 0 .1.142c2.976-1.989 6-2.75 8.843-.167a24.366 24.366 0 0 1 4.416 6.141c.039.064.131.006.114-.056a14.277 14.277 0 0 0 -5.273-7.824z" fill="#f9f5e8" transform="translate(17.478 9.816)"/><path d="m81.932 51.709a24.976 24.976 0 0 0 -14.44-3.045c-4.121.309-9.021 1.229-12.161 4.093-.075.067 0 .192.092.131 3.533-2.471 7.985-2.778 12.161-3.09 5.076-.379 9.47.763 14.3 2.073.101.029.134-.117.048-.162z" fill="#f9f5e8" transform="translate(29.572 18.235)"/><path d="m80.262 59.244c-3.616-3.616-10.339.744-13.512 2.976-.042.028-.011.089.031.072 4-2.006 8.824-3.717 13.317-2.689.214.048.302-.222.164-.359z" fill="#f9f5e8" transform="translate(49.986 34.808)"/><path d="m60.118 61.308a10.678 10.678 0 0 0 -5.2-3.129c-1.4-.4-4.578-1.491-5.575.086a.455.455 0 0 0 .384.736c3.524-.3 7.375.215 10.275 2.407.066.05.172-.033.116-.1z" fill="#f9f5e8" transform="translate(18.783 34.053)"/><path d="m46.575 74.4c-1.663-.41-3.485-.072-5.177-.1-.078 0-.072.109-.006.128 2.407.683 6.361-.527 7.614 2.413a.125.125 0 0 0 .237-.019c.171-1.36-1.595-2.157-2.668-2.422z" fill="#f7b9bb" transform="translate(4.641 63.984)"/><path d="m47.494 73.994a6.419 6.419 0 0 0 -3.36-.215.038.038 0 0 0 .008.075 8.843 8.843 0 0 1 2.683.426 1.962 1.962 0 0 1 1.527 2.031.087.087 0 0 0 .164.028c.616-.986-.125-1.927-1.022-2.345z" fill="#f7b9bb" transform="translate(9.573 63.028)"/><path d="m48.389 73.926c-.964-.688-2.215-.655-3.313-.975-.02-.006-.025.022-.006.022a17.5 17.5 0 0 1 2.507 1 3.778 3.778 0 0 1 1.934 2.8c.014.067.131.056.142-.014a2.884 2.884 0 0 0 -1.264-2.833z" fill="#f7b9bb" transform="translate(11.28 61.759)"/><path d="m86.119 74.105c-1.011-1.647-3.3-1.883-5.09-1.778a2.516 2.516 0 0 0 -.493-.215 3.925 3.925 0 0 0 -3.756 1.209 4.345 4.345 0 0 0 -1.633-.922c-1.68-.488-3.282 1.24-4.385 2.207a28.581 28.581 0 0 1 -3.179 2.5 7.362 7.362 0 0 1 -2.34.861 2.508 2.508 0 0 0 -1.655.747c-1.146 1.286 1.418 2.936 2.312 3.326 1.335.588 3.318.8 4.385-.379.5-.543.649-1.321 1.145-1.886.939-1.062 2.549.212 3.7.29.02 0 .033-.008.053-.008a13.27 13.27 0 0 0 .669 1.583c.518.9 1.716 1.878 2.655.933v-.008a3.325 3.325 0 0 0 .357-.3 2.335 2.335 0 0 0 .329-.382c.964 1.059 2.232-.128 2.808-1.106a6.011 6.011 0 0 0 .535-1.226 2.379 2.379 0 0 0 1.148 1.725c1.468.738 2.569-.554 3.07-1.83a6.392 6.392 0 0 0 -.635-5.341z" fill="#e38687" transform="translate(43.858 60.061)"/><path d="m86.692 75.128a5.48 5.48 0 0 1 .047 1.382c-.086.83-.443 2.694-1.658 2.457-.905-.178-.833-2.694-1-3.346-.371-1.44-1.02-3.07-2.485-3.51-.2 0-.384.008-.571.017l-.039-.017a5.588 5.588 0 0 1 1.176 2.221c.357 1.348.351 3.951-.649 5.073-.975 1.1-1.335-1.028-1.36-1.649a8.814 8.814 0 0 0 -.708-3.689 2.093 2.093 0 0 0 -2.438-1.162c-.078.07-.159.142-.231.217-.028-.02-.056-.042-.084-.059a14.415 14.415 0 0 1 1.555 2.262c.588 1.117 1.415 2.948.855 4.226-.471 1.07-1.577 1.031-2.159 0-.619-1.095-.685-2.449-1.36-3.5-1.282-1.986-3.714-.816-4.89.61a7.351 7.351 0 0 1 -2.744 2.585c-1.05.41-2.686.808-3.608-.109a.922.922 0 0 1 -.228-1.045 2.013 2.013 0 0 0 -.529.415c-1.145 1.29 1.418 2.939 2.31 3.329 1.335.588 3.318.8 4.385-.379.5-.543.649-1.321 1.145-1.886.939-1.062 2.549.212 3.7.29.02 0 .033-.008.053-.008a13.27 13.27 0 0 0 .669 1.583c.518.9 1.716 1.878 2.655.933v-.008a3.325 3.325 0 0 0 .357-.3 2.335 2.335 0 0 0 .329-.382c.964 1.059 2.232-.128 2.808-1.106a6.011 6.011 0 0 0 .535-1.226 2.379 2.379 0 0 0 1.148 1.725c1.468.738 2.569-.554 3.07-1.83a6.059 6.059 0 0 0 -.056-4.114z" fill="#bb3645" opacity=".4" transform="translate(43.858 60.261)"/><path d="m86.119 74.1a3.331 3.331 0 0 0 -1.46-1.254c2.541 1.19 2.552 8.968-.527 7.974-.925-.3-1.148-1.63-1.309-2.6a9.571 9.571 0 0 0 -.053-2.739 5.375 5.375 0 0 0 -1.906-3.235 2.257 2.257 0 0 0 -.329-.134 3.194 3.194 0 0 0 -1.312-.075c1.739-.248 2.7 2.059 2.917 3.4.32 1.995-.095 6.965-2.672 5.965a2.015 2.015 0 0 0 .2-1.134 7.654 7.654 0 0 0 -1.025-4.435 10.115 10.115 0 0 0 -1.479-2.129 3 3 0 0 1 -.616-.571 4.062 4.062 0 0 0 -1.4-.738c-.081-.022-.15-.036-.228-.05 2.68.811 5.018 6.021 4.118 8.573a3.313 3.313 0 0 1 -.351.722 6.34 6.34 0 0 1 -.449.627c-2.117.465-2.318-2.516-3.413-3.728-.727-.794-2.168-.518-3.006-.1-.047.025-.025.081.022.067 1.137-.293 2.2-.293 2.931.772.028.039.053.081.081.125-1.106-.17-2.2-.685-3.3-.256-1.128.443-1.234 2.039-2.3 2.572a4.35 4.35 0 0 1 -3.106-.22c-.582-.215-3.1-1.713-1.839-2.661a2.087 2.087 0 0 1 .546-.273c.443-.29.978-.393 1.432-.666.382-.228.758-.476 1.131-.716a6.969 6.969 0 0 1 -2.179.78 2.508 2.508 0 0 0 -1.655.747c-1.145 1.29 1.418 2.939 2.31 3.329 1.335.588 3.318.8 4.385-.379.5-.543.649-1.321 1.145-1.886.939-1.062 2.549.212 3.7.29.02 0 .033-.008.053-.008a13.27 13.27 0 0 0 .669 1.583c.518.9 1.716 1.878 2.658.925a3.325 3.325 0 0 0 .357-.3 2.335 2.335 0 0 0 .329-.382c.964 1.059 2.232-.128 2.808-1.106a6.011 6.011 0 0 0 .535-1.226 2.379 2.379 0 0 0 1.148 1.725c1.468.738 2.569-.554 3.07-1.83a6.392 6.392 0 0 0 -.631-5.345z" fill="#bb3645" opacity=".6" transform="translate(43.858 60.063)"/><path d="m71.807 72.533c-2.315-1.4-4.3 1.354-5.954 2.627a.06.06 0 0 0 .072.095c1.613-1.011 3.708-3.494 5.728-2.031 1.649 1.2 2.293 3.382 2.948 5.19.022.058.137.042.125-.036-.326-1.942-1.083-4.731-2.919-5.845z" fill="#f7b9bb" transform="translate(48.379 60.324)"/><path d="m72.3 73.94a2.925 2.925 0 0 0 -1.048-1.527c-.7-.524-1.608-.173-2.377-.05a.039.039 0 0 0 .006.078 3.232 3.232 0 0 1 2.257.51 3.121 3.121 0 0 1 .782 1.849 16.737 16.737 0 0 1 .159 3.658.11.11 0 0 0 .217.033 8.741 8.741 0 0 0 .004-4.551z" fill="#f7b9bb" transform="translate(53.752 60.302)"/><path d="m73.177 73.746a3.817 3.817 0 0 0 -2.906-1.53c-.053-.008-.064.061-.011.078 2.683.71 3.226 2.95 3.519 5.424.011.078.142.095.148 0a6.334 6.334 0 0 0 -.75-3.972z" fill="#f7b9bb" transform="translate(56.231 60.448)"/></svg>