<svg xmlns="http://www.w3.org/2000/svg" width="23" height="23" viewBox="0 0 23 23">
  <g id="about" transform="translate(0 0)">
    <path id="Path_2350" data-name="Path 2350" d="M11.5,23A11.5,11.5,0,0,1,3.368,3.368,11.5,11.5,0,0,1,19.632,19.632,11.425,11.425,0,0,1,11.5,23Zm0-21.563A10.063,10.063,0,1,0,21.563,11.5,10.074,10.074,0,0,0,11.5,1.437Z"/>
    <path id="Path_2351" data-name="Path 2351" d="M179.594,108.219a.719.719,0,0,1-.719-.719,6.747,6.747,0,0,1,1.989-4.8,4.223,4.223,0,0,0,1.245-3.006,2.257,2.257,0,0,0-2.254-2.254h-.164a2.257,2.257,0,0,0-2.254,2.254v.262a.719.719,0,0,1-1.437,0v-.262A3.7,3.7,0,0,1,179.692,96h.164a3.7,3.7,0,0,1,3.692,3.692,5.651,5.651,0,0,1-1.666,4.022,5.319,5.319,0,0,0-1.568,3.786A.719.719,0,0,1,179.594,108.219Z" transform="translate(-168.094 -91.688)"/>
    <path id="Path_2352" data-name="Path 2352" d="M240.734,401.438a.719.719,0,0,1,0-1.437h0a.719.719,0,0,1,0,1.438Z" transform="translate(-229.233 -382.031)"/>
  </g>
</svg>
