<svg id="Group_2" data-name="Group 2" xmlns="http://www.w3.org/2000/svg" xmlns:xlink="http://www.w3.org/1999/xlink" width="39.803" height="50.412" viewBox="0 0 39.803 50.412">
  <defs>
    <linearGradient id="linear-gradient" x1="-0.16" y1="-0.166" x2="0.73" y2="0.872" gradientUnits="objectBoundingBox">
      <stop offset="0" stop-color="#f85656"/>
      <stop offset="1" stop-color="#ef2b2b"/>
    </linearGradient>
  </defs>
  <path id="Fill_365" data-name="Fill 365" d="M37.452,5.43C32.01-2.733,20.011.73,20.011.73s-12-3.463-17.44,4.7c-4.01,6.015-4.368,25.135,6.585,32.5a7.649,7.649,0,0,0,7.738.228,7.277,7.277,0,0,1,2.047-.666,4.109,4.109,0,0,1,2.919.572,7.443,7.443,0,0,0,7.808.055C41.17,30.9,41.5,11.5,37.452,5.43" transform="translate(0 11.212)" fill="url(#linear-gradient)"/>
  <path id="Fill_366" data-name="Fill 366" d="M33.844,2.932A11.282,11.282,0,0,0,31.018,0c3.023,7.409,1.894,24.318-8.674,30.955a7.442,7.442,0,0,1-7.808-.055,4.113,4.113,0,0,0-2.919-.572A7.277,7.277,0,0,0,9.569,31a7.651,7.651,0,0,1-7.738-.228A16.468,16.468,0,0,1,0,29.332a18.084,18.084,0,0,0,5.548,6.1,7.649,7.649,0,0,0,7.738.228A7.277,7.277,0,0,1,15.334,35a4.109,4.109,0,0,1,2.919.572,7.443,7.443,0,0,0,7.808.055C37.562,28.4,37.888,9,33.844,2.932" transform="translate(3.608 13.71)" fill="#cc2b2b"/>
  <path id="Fill_367" data-name="Fill 367" d="M.786,17.872S-2.32,8.46,3.815,2.819C9.506-2.413,14.371.524,10.975,4.471S1.7,7.408.786,17.872" transform="translate(2.459 13.602)" fill="#f55"/>
  <path id="Fill_368" data-name="Fill 368" d="M.085.317c.49.6,2.289.8,4.064,1.592s2.3-.49,4.712-1.5S6.1.544,4.914.81C3.3,1.174-.624-.548.085.317" transform="translate(15.307 12.792)" fill="#cc2b2b"/>
  <path id="Fill_369" data-name="Fill 369" d="M.556,13.892S-1.557,5.931,2.455.036A2.16,2.16,0,0,1,5,1.849a17.367,17.367,0,0,0-3.523,11.7s-.289,1.268-.923.346" transform="translate(19.51)" fill="#754c29"/>
  <path id="Fill_370" data-name="Fill 370" d="M5,0S1.895,1.766.932,6.806C.535,8.879,0,7.548,0,7.086a21.258,21.258,0,0,0,.556,4.957c.634.922.923-.346.923-.346A17.367,17.367,0,0,1,5,0" transform="translate(19.51 1.849)" fill="#603913"/>
  <path id="Fill_371" data-name="Fill 371" d="M0,4.407S1.175.5,2.047.045,2.222,2.657,0,4.407" transform="translate(20.08 0.552)" fill="#8b5e3c"/>
</svg>
