<svg id="Group_3" data-name="Group 3" xmlns="http://www.w3.org/2000/svg" width="71.392" height="28.377" viewBox="0 0 71.392 28.377">
  <path id="Fill_315" data-name="Fill 315" d="M24.372,2.877A47.293,47.293,0,0,1,12.186,5.7C-.221,6.424-2.332,10.71,2.173,18.218c3.58,5.965,19.984,11.727,48.664,9.77S72.379,9.074,63.885,7.878s-16.7-13.275-39.513-5" transform="translate(0 0)" fill="#fff2e9"/>
  <path id="Fill_316" data-name="Fill 316" d="M64.493,0c2.954,5.529.175,13.975-19.555,15.32C22.032,16.884,6.966,13.522,0,9.067c.084.148.167.294.257.443,3.58,5.965,19.984,11.727,48.664,9.77C74.671,17.523,71.548,3.678,64.493,0" transform="translate(1.916 8.708)" fill="#f9d6bd"/>
  <path id="Fill_317" data-name="Fill 317" d="M26.545,7.464c-.067,4-6.04,5.767-13.37,5.644S-.066,11.017,0,7.019,6.064-.119,13.394,0,26.613,3.467,26.545,7.464" transform="translate(23.737 5.329)" fill="#ffc920"/>
  <path id="Fill_318" data-name="Fill 318" d="M15.314,7.351C7.983,7.228,2.072,5.259,2.139,1.262A4.076,4.076,0,0,1,2.367,0,5.326,5.326,0,0,0,0,4.032c-.067,4,5.843,5.966,13.174,6.089,6.863.116,12.536-1.429,13.287-4.908-2.4,1.531-6.5,2.217-11.148,2.138" transform="translate(23.737 8.316)" fill="#ffb200"/>
  <path id="Fill_319" data-name="Fill 319" d="M4.294,1.386c-.012.744-.983,1.333-2.17,1.313S-.012,2.058,0,1.313.984-.02,2.171,0,4.307.64,4.294,1.386" transform="translate(42.402 9.553)" fill="#ffd766"/>
  <path id="Fill_320" data-name="Fill 320" d="M46.74,2.571A29.861,29.861,0,0,0,27.508.8C16.4,3.324,8.277,7.921,2.454,7.385s-.766,5.363,9.731,1.072S32.526-1.151,46.74,2.571" transform="translate(3.838 1.776)" fill="#fff"/>
</svg>
