<svg xmlns="http://www.w3.org/2000/svg" xmlns:xlink="http://www.w3.org/1999/xlink" width="27" height="26" viewBox="0 0 27 26">
  <defs>
    <clipPath id="clip-path">
      <rect width="27" height="26" fill="none"/>
    </clipPath>
    <clipPath id="clip-path-2">
      <rect width="26" height="26" fill="none"/>
    </clipPath>
  </defs>
  <g id="ic_email" clip-path="url(#clip-path)">
    <g id="ic_email-2" data-name="ic_email">
      <path id="ic" d="M23.679,21H2.321a2.217,2.217,0,0,1-1.64-.7A2.342,2.342,0,0,1,0,18.614V2.386A2.338,2.338,0,0,1,.682.7,2.217,2.217,0,0,1,2.321,0H23.679a2.213,2.213,0,0,1,1.639.7A2.336,2.336,0,0,1,26,2.386V18.614a2.339,2.339,0,0,1-.682,1.685A2.213,2.213,0,0,1,23.679,21ZM1.857,7.159V18.614a.467.467,0,0,0,.137.335.441.441,0,0,0,.327.141H23.679A.44.44,0,0,0,24,18.949a.465.465,0,0,0,.138-.335V7.159a8.555,8.555,0,0,1-1,.984c-2.563,2.026-4.643,3.722-6.18,5.041-.491.426-.9.763-1.2,1a6.673,6.673,0,0,1-1.256.723,3.561,3.561,0,0,1-1.487.365h-.029a3.568,3.568,0,0,1-1.487-.365,6.618,6.618,0,0,1-1.255-.723c-.308-.237-.713-.574-1.2-1-1.524-1.308-3.6-3-6.18-5.041A8.482,8.482,0,0,1,1.857,7.159Zm.464-5.25a.445.445,0,0,0-.327.142.464.464,0,0,0-.137.335A5.289,5.289,0,0,0,3.99,6.622c1.87,1.514,3.827,3.1,5.819,4.728l.043.037.465.4c.273.238.5.426.667.56s.371.279.645.47a3.834,3.834,0,0,0,.733.41,1.682,1.682,0,0,0,.623.134h.029a1.684,1.684,0,0,0,.624-.134,3.818,3.818,0,0,0,.732-.41c.272-.188.484-.342.646-.47s.394-.322.667-.56l.465-.4.043-.037c1.991-1.623,3.949-3.214,5.819-4.728A6.992,6.992,0,0,0,23.468,4.9a3.809,3.809,0,0,0,.675-1.961V2.573s0-.07-.007-.195-.019-.186-.041-.186h-.006c-.023,0-.049-.045-.076-.135s-.057-.117-.1-.117a.089.089,0,0,0-.03.006.177.177,0,0,1-.055.009.3.3,0,0,1-.148-.046Z" transform="translate(0 3)" fill="#1d1e2c"/>
      <g id="bound_24" clip-path="url(#clip-path-2)">
      </g>
    </g>
  </g>
</svg>
