<svg xmlns="http://www.w3.org/2000/svg" width="19.001" height="19.001" viewBox="0 0 19.001 19.001"><defs><style>.a{fill:#1976d2;}.b{fill:#fafafa;}</style></defs><path class="a" d="M16.626,0H2.375A2.378,2.378,0,0,0,0,2.375V16.626A2.378,2.378,0,0,0,2.375,19H16.626A2.378,2.378,0,0,0,19,16.626V2.375A2.378,2.378,0,0,0,16.626,0Z"/><path class="b" d="M200.907,101.938h-2.969V99.563c0-.656.532-.594,1.188-.594h1.188V96h-2.375a3.562,3.562,0,0,0-3.563,3.563v2.375H192v2.969h2.375v6.532h3.563v-6.532h1.781Z" transform="translate(-184.875 -92.437)"/></svg>