<svg xmlns="http://www.w3.org/2000/svg" width="18.139" height="18.139" viewBox="0 0 18.139 18.139"><defs><style>.a{fill:#fbbd00;}.b{fill:#0f9d58;}.c{fill:#31aa52;}.d{fill:#3c79e6;}.e{fill:#cf2d48;}.f{fill:#eb4132;}</style></defs><path class="a" d="M4.251,105.734a4.788,4.788,0,0,1,.678-2.461v-3.058H1.871a9.074,9.074,0,0,0,0,11.038H4.929V108.2A4.788,4.788,0,0,1,4.251,105.734Z" transform="translate(0 -96.665)"/><path class="b" d="M198.126,373.635,196,375.761l2.126,2.126a9,9,0,0,0,5.519-1.871v-3.054H200.59A4.818,4.818,0,0,1,198.126,373.635Z" transform="translate(-189.056 -359.748)"/><path class="c" d="M55.881,325.477l-3.058,3.058a9.214,9.214,0,0,0,.785.894,9.01,9.01,0,0,0,6.413,2.656v-4.251A4.82,4.82,0,0,1,55.881,325.477Z" transform="translate(-50.952 -313.946)"/><path class="d" d="M265.069,199.4a9.147,9.147,0,0,0-.149-1.643l-.08-.436H256v4.251h4.3a4.8,4.8,0,0,1-1.838,1.971l3.054,3.054a9.2,9.2,0,0,0,.894-.785A9.01,9.01,0,0,0,265.069,199.4Z" transform="translate(-246.931 -190.333)"/><path class="e" d="M201.533,5.662l.376.376,3.006-3.006-.376-.376A9.01,9.01,0,0,0,198.126,0L196,2.126l2.126,2.126A4.787,4.787,0,0,1,201.533,5.662Z" transform="translate(-189.056 0)"/><path class="f" d="M60.02,4.251V0a9.01,9.01,0,0,0-6.413,2.656,9.207,9.207,0,0,0-.785.894L55.88,6.608A4.82,4.82,0,0,1,60.02,4.251Z" transform="translate(-50.951 0)"/></svg>