<svg xmlns="http://www.w3.org/2000/svg" width="25.76" height="23.184" viewBox="0 0 25.76 23.184"><defs><style>.a{fill:#9d1000;}</style></defs><path class="a" d="M24.043,23.184h0c-.07-.1-1.716-2.5-1.716-3.433a1.7,1.7,0,0,1,.859-1.48V10.607L24.9,9.749V18.27a1.7,1.7,0,0,1,.859,1.48c0,.928-1.646,3.331-1.716,3.433ZM12.88,19.75c-4.261,0-7.728-1.926-7.728-4.294V11.893l6.557,3.278a1.66,1.66,0,0,0,.221.092,2.45,2.45,0,0,0,1.9,0,1.745,1.745,0,0,0,.219-.091l6.556-3.279v3.562C20.608,17.823,17.141,19.75,12.88,19.75Zm0-6.011a.859.859,0,0,1-.41-.105l-12.009-6a.859.859,0,0,1,0-1.522L12.474.1a.855.855,0,0,1,.817,0l12.008,6a.858.858,0,0,1,0,1.521.017.017,0,0,1-.009,0L22.5,9.027a.909.909,0,0,0-.092-.053L15.163,5.279a.9.9,0,0,0-1.211.393l-.085.167a.9.9,0,0,0,.393,1.211L20.3,10.129l-7.016,3.508A.867.867,0,0,1,12.88,13.738Z"/></svg>