<svg xmlns="http://www.w3.org/2000/svg" xmlns:xlink="http://www.w3.org/1999/xlink" width="68.601" height="56.632" viewBox="0 0 68.601 56.632">
  <defs>
    <linearGradient id="linear-gradient" x1="1.14" y1="0.134" x2="0.395" y2="0.5" gradientUnits="objectBoundingBox">
      <stop offset="0" stop-color="#df8e4c"/>
      <stop offset="1" stop-color="#bb5525"/>
    </linearGradient>
  </defs>
  <g id="Group_6" data-name="Group 6" transform="translate(0 20.167) rotate(-40)">
    <path id="Fill_294" data-name="Fill 294" d="M4.148,1.885s1.483,8.96,2.632,11.176a3.877,3.877,0,0,1,4.273,2.618c1.125,3.168-2.089,5.851-4.6,2.789,0,0-1.437,3.241-3.093,2.552-3.686-1.535-5.16-5.9.108-7.365,0,0-3.079-11.621-3.444-12.943s3.792-.73,4.126,1.173" transform="translate(24.588 42.856)" fill="#ffcdae"/>
    <path id="Fill_295" data-name="Fill 295" d="M27.12,47.086a2.244,2.244,0,0,1-3.566-1.04,10.6,10.6,0,0,0-2.43-4.258C18.41,39.121-3.767,23.036.557,9.124S39.833-9.6,29.458,45.633a3.662,3.662,0,0,1-2.338,1.453" transform="translate(0 0)" fill="url(#linear-gradient)"/>
    <path id="Fill_296" data-name="Fill 296" d="M.317.329.306.293.317.329" transform="translate(30.161 13.269)" fill="#8f331c"/>
    <path id="Fill_297" data-name="Fill 297" d="M.319.586c0-.184,0-.369,0-.55a2.53,2.53,0,0,0,0,.55" transform="translate(31.846 26.395)" fill="#7e2915"/>
    <path id="Fill_298" data-name="Fill 298" d="M6.03,2.356a6.256,6.256,0,0,1-3.8.674C.247,2.666.094.244.094.237-.39,2,1.043,4.029,3.323,4.977c1.655.689,3.093-2.552,3.093-2.552A8.711,8.711,0,0,1,4.576,0,2.232,2.232,0,0,0,6.03,2.356" transform="translate(24.624 58.899)" fill="#ee9f76"/>
    <path id="Fill_299" data-name="Fill 299" d="M27.12,46.851A3.662,3.662,0,0,0,29.458,45.4,105.911,105.911,0,0,0,31.33,29.493c-.027.205-1.113,8.03-9.027,5.277-8.02-2.788-14.452-14.12-15.913-18.6C2.743,4.988,9.975.9,11.628,0,6.461.918,1.942,4.438.557,8.889c-4.324,13.912,17.852,30,20.567,32.664a10.6,10.6,0,0,1,2.43,4.258,2.244,2.244,0,0,0,3.566,1.04" transform="translate(0 0.235)" fill="#a83f16"/>
    <path id="Fill_300" data-name="Fill 300" d="M14.987,18.318S11.3-.478,2.554.009,9.934,6.23,14.987,18.318" transform="translate(14.03 2.821)" fill="#d36235"/>
  </g>
</svg>
