<svg xmlns="http://www.w3.org/2000/svg" xmlns:xlink="http://www.w3.org/1999/xlink" width="125.267" height="80.95" viewBox="0 0 125.267 80.95"><defs><style>.a{fill:#fff;}.b,.d,.e,.f{isolation:isolate;}.c{clip-path:url(#a);}.d,.e,.f{mix-blend-mode:multiply;}.d{fill:url(#b);}.e{fill:url(#c);}.f{fill:url(#d);}.g{fill:#650900;}</style><clipPath id="a"><path class="a" d="M-57.65-25.786l8.487-2.08q3.938,5.173,8.848,12.828-.277-4.882-.125-12.176a36.655,36.655,0,0,1,9.555.055q.444,16.489,0,29.095A20.323,20.323,0,0,1-38.041,3.7q-3.966-5.991-10.318-14.215l.014,14.2q-7.516.347-9.319-.111Q-57.927-9.353-57.65-25.786ZM-8.987-12.917q2.274,2.538,7.267,8.529A64.219,64.219,0,0,1-8.5,3.253Q-8.89,3.1-15.492-5.067l-2.787,3.342q-.055,2.524.042,4.673a69.964,69.964,0,0,1-9.555.8q-.291-15.352.055-30.066a47.784,47.784,0,0,1,9.527-.832q.055,5.284.055,9.943,3.7-4.535,8.9-10.859a37.487,37.487,0,0,1,7.6,5.963Q-2.234-21.127-8.987-12.917ZM27-28.56a99.71,99.71,0,0,1,.139,15.685q-.818,11.4-9.07,15.241a14.724,14.724,0,0,1-7.863.985q-6.8-1.72-8.64-12.509a69.278,69.278,0,0,1,.444-17.21,79.971,79.971,0,0,1,8.473-.971q-.25,13.7.957,17.515.985,2.857,2.885,2.579,2.163-.305,3.176-3.19,1.068-4.147.79-17.515A55.709,55.709,0,0,1,27-28.56ZM30.286,3.572a73.689,73.689,0,0,1-.111-7.392q6.657-8.557,12.384-14.742-7.6.79-12.037.957a64.71,64.71,0,0,1-.042-8.889Q44.4-28.061,54.805-28.615a51.976,51.976,0,0,1,.055,8.723q-4.687,6.2-11.3,14.1,9.222-.943,11-.846a56.517,56.517,0,0,1-.1,8.043Q42.7,2.837,30.286,3.572Zm37-31.466q.347,14.645.055,30.052a79.549,79.549,0,0,1-9.375.9Q57.551-7.7,57.759-27.007A47.185,47.185,0,0,1,67.286-27.894ZM-36.557,16.893q.347,14.645.055,30.052a79.548,79.548,0,0,1-9.375.9q-.416-10.762-.208-30.066A47.185,47.185,0,0,1-36.557,16.893Zm12.842,31.078q-6.241-1.22-9.1-8.14a19.856,19.856,0,0,1-.472-8.1,17.285,17.285,0,0,1,2.7-7.322,19.71,19.71,0,0,1,6.338-5.949q9.68-5.062,17.931,1.4l-5.09,8.085a20.4,20.4,0,0,0-4.535-1.29,6.558,6.558,0,0,0-6.352,2.815A6.417,6.417,0,0,0-23.646,33.1,5.139,5.139,0,0,0-20.4,38.638q4.923.693,5.769-2.441-5.464.5-5.741.416a55.3,55.3,0,0,1,.042-6.976Q-5.548,28.07-4.9,28.251q.139,3.98.069,7.045A9.409,9.409,0,0,1-5.3,38.527Q-9.473,49.524-23.715,47.971Zm21.689-28.5a31.3,31.3,0,0,1,9.763-2.441q10.29-1.068,13.48,4.937,1.955,4.757-3,9.278,5.117,2.358,5.1,6.081a7.276,7.276,0,0,1-2.094,5.623,10.2,10.2,0,0,1-2.385,1.872A28.232,28.232,0,0,1,5.754,48.387Q3.591,48.6-2,48.623-2.4,34.658-2.026,19.472Zm7.891,9.735q6.13,0,5.783-2.8a1.71,1.71,0,0,0-1.5-1.595,11.844,11.844,0,0,0-4.452.4A35.51,35.51,0,0,0,5.865,29.208ZM5.81,40.593q7.364.263,7.211-3.259a2.079,2.079,0,0,0-1.983-1.65,13.27,13.27,0,0,0-5.353.735A39.584,39.584,0,0,0,5.81,40.593Zm25.364,5.422a12.723,12.723,0,0,1-4.743-6.754,19.316,19.316,0,0,1-.666-5.506q1.512-16.42,17.058-17.4a11.694,11.694,0,0,1,10.5,4.368,14.521,14.521,0,0,1,2.3,6.629,21.322,21.322,0,0,1-.957,8.321,19.268,19.268,0,0,1-4.521,7.461Q41.214,51.521,31.174,46.016Zm14.908-16.2a4.11,4.11,0,0,0-4.66-3.079,6.307,6.307,0,0,0-4.965,2.5,6.516,6.516,0,0,0-1.068,6.046q1.65,3.3,4.826,2.926a7.152,7.152,0,0,0,5.492-4.576A6.264,6.264,0,0,0,46.082,29.818Z" transform="translate(57.792 28.615)"/></clipPath><linearGradient id="b" x1="0.59" y1="-0.304" x2="0.719" y2="0.672" gradientUnits="objectBoundingBox"><stop offset="0" stop-color="#ffe7ab"/><stop offset="1" stop-color="#f48c02"/></linearGradient><linearGradient id="c" x1="0.5" y1="0.111" x2="0.738" y2="0.709" gradientUnits="objectBoundingBox"><stop offset="0" stop-color="#ffe7ab"/><stop offset="1" stop-color="#d38012"/></linearGradient><linearGradient id="d" x1="0.5" x2="0.833" y2="1" gradientUnits="objectBoundingBox"><stop offset="0" stop-color="#ff3700"/><stop offset="1" stop-color="#2e1711"/></linearGradient></defs><g class="b" transform="translate(-130.208 -345.385)"><g class="c" transform="translate(130.208 345.385)"><path class="d" d="M541.951,235.519c-2.365.062-4.128.146-4.641.25a43.019,43.019,0,0,0-23.469,13.213c-12.155,13.6-17.334,31.359-34.291,40.621a17.085,17.085,0,0,1-8.015,2.464,8.1,8.1,0,0,1-7.147-3.761c-1.543-2.8-.752-6.258.076-9.346l2.578-9.608c.867-3.229,1.732-6.67.737-9.862-4.177-13.395-23.193-.994-29.072,3.779-11.5,9.337-21.752,20.489-34.832,27.444-3.833,2.039-8.071,3.725-12.4,3.351s-8.676-3.351-9.373-7.636c-3.895,2.259-7.763,4.538-11.658,6.8,15.048,11.857-12.673,31.161-21.113,36.8-9.541,6.38-19.639,12.129-27.847,20.152-3.087,3.019-5.949,6.459-7.235,10.58s-.7,9.049,2.372,12.082c2.856,2.818,7.178,3.489,11.189,3.519,5.6.042,11.641-2.346,17.143-.947,2.98.757,4.859,3.926,5.025,7s-1.026,6.043-2.372,8.806c-5.471,11.241-15.989,20.135-16.9,33.28l231.308-.112s-.091-188.838-.091-188.885C561.925,235.324,549.15,235.327,541.951,235.519Z" transform="translate(-410.774 -310.073)"/><path class="e" d="M570.947,296.626c-1.675,1.218-3.211,2.657-4.854,3.932a32.673,32.673,0,0,1-29.951,5.054c-4.269-1.443-8.364-3.811-12.87-3.9-8.622-.161-15.141,8.054-17.858,16.238s-3.17,17.144-7.131,24.8c-4.1,7.924-11.636,13.664-19.851,17.141-10.65,4.508-23.8,5.247-33.109-1.623-6.052-4.468-9.684-11.534-11.9-18.722-1.885-6.113-3.026-12.737-7.1-17.673a18.036,18.036,0,0,0-30.721,4.924c-4.4,11.3,3.181,23.5,4.115,35.587.974,12.583-5.406,24.6-13.1,34.607s-16.924,18.907-23.237,29.836a14.716,14.716,0,0,0-2.177,9.253l209.806-.1S570.975,352.59,570.947,296.626Z" transform="translate(-419.772 -321.676)"/><path class="f" d="M545.863,341.349c-8.5,2.594-17.041,8.351-18.773,17.071-1.3,6.551,1.521,13.234,1.283,19.909-.328,9.248-6.8,17.619-15.125,21.664s-18.158,4.175-27.129,1.9-17.213-6.781-25.026-11.74c-4.182-2.653-8.322-5.473-12.972-7.175s-9.974-2.187-14.481-.134-7.824,7.086-6.844,11.941c1.742,8.621,14.517,11.446,16.151,20.089,1.106,5.847-3.533,11.088-7.961,15.061-5.049,4.53-10.324,8.831-14.968,13.775q-.187.2-.374.4l162.457-.079s-.025-51.694-.049-101A56.166,56.166,0,0,0,545.863,341.349Z" transform="translate(-430.859 -329.729)"/></g><circle class="g" cx="2.5" cy="2.5" r="2.5" transform="translate(232.245 421.335)"/></g></svg>