<svg xmlns="http://www.w3.org/2000/svg" xmlns:xlink="http://www.w3.org/1999/xlink" width="26" height="26" viewBox="0 0 26 26">
  <defs>
    <clipPath id="clip-path">
      <rect width="26" height="26" fill="none"/>
    </clipPath>
  </defs>
  <g id="ic_tab_notification" transform="translate(0 0)">
    <path id="ic" d="M11,26a2.435,2.435,0,0,1-1.813-.782,2.588,2.588,0,0,1-.75-1.844h5.126a2.585,2.585,0,0,1-.75,1.844A2.432,2.432,0,0,1,11,26Zm11-3.876H0V20.812l2.563-2.626V11.062A8.114,8.114,0,0,1,4.407,5.843,8.449,8.449,0,0,1,9.063,2.874V1.937A1.925,1.925,0,0,1,9.594.564,1.845,1.845,0,0,1,11,0a1.845,1.845,0,0,1,1.406.564,1.929,1.929,0,0,1,.532,1.374v.937a8.45,8.45,0,0,1,4.656,2.969,8.114,8.114,0,0,1,1.843,5.219v7.124L22,20.812v1.311ZM11,3.9A2.207,2.207,0,0,1,9.594,4.978,6.209,6.209,0,0,0,6.127,7.193a5.928,5.928,0,0,0-1.364,3.869v7.124a2.133,2.133,0,0,1-.615,1.5l-.263.27h14.23l-.263-.27a2.133,2.133,0,0,1-.615-1.5V11.062a5.932,5.932,0,0,0-1.365-3.87,6.2,6.2,0,0,0-3.466-2.214A2.207,2.207,0,0,1,11,3.9Z" transform="translate(2)" fill="#1d1e2c"/>
    <g id="bound_24" clip-path="url(#clip-path)">
    </g>
  </g>
</svg>
