<svg xmlns="http://www.w3.org/2000/svg" width="20.442" height="27.256" viewBox="0 0 20.442 27.256">
  <g id="padlock" transform="translate(-3)">
    <path id="Path_2353" data-name="Path 2353" d="M20.886,26.035H5.555A2.558,2.558,0,0,1,3,23.48V11.555A2.558,2.558,0,0,1,5.555,9H20.886a2.558,2.558,0,0,1,2.555,2.555V23.48A2.558,2.558,0,0,1,20.886,26.035ZM5.555,10.7a.853.853,0,0,0-.852.852V23.48a.853.853,0,0,0,.852.852H20.886a.853.853,0,0,0,.852-.852V11.555a.853.853,0,0,0-.852-.852Z" transform="translate(0 1.221)"/>
    <path id="Path_2354" data-name="Path 2354" d="M18.776,11.924a.852.852,0,0,1-.852-.852V6.814a5.11,5.11,0,0,0-10.221,0v4.259a.852.852,0,0,1-1.7,0V6.814a6.814,6.814,0,1,1,13.628,0v4.259A.852.852,0,0,1,18.776,11.924Z" transform="translate(0.407)"/>
    <path id="Path_2355" data-name="Path 2355" d="M12.271,17.543a2.271,2.271,0,1,1,2.271-2.271A2.274,2.274,0,0,1,12.271,17.543Zm0-2.839a.568.568,0,1,0,.568.568A.569.569,0,0,0,12.271,14.7Z" transform="translate(0.95 1.763)"/>
    <path id="Path_2356" data-name="Path 2356" d="M12.1,20.576a.852.852,0,0,1-.852-.852V16.6a.852.852,0,1,1,1.7,0v3.123A.852.852,0,0,1,12.1,20.576Z" transform="translate(1.119 2.136)"/>
  </g>
</svg>
