<svg xmlns="http://www.w3.org/2000/svg" width="13.989" height="18.652" viewBox="0 0 13.989 18.652">
  <g id="padlock" transform="translate(-3)" opacity="0.335">
    <path id="Path_2346" data-name="Path 2346" d="M15.24,20.657H4.749A1.751,1.751,0,0,1,3,18.909v-8.16A1.751,1.751,0,0,1,4.749,9H15.24a1.751,1.751,0,0,1,1.749,1.749v8.16A1.751,1.751,0,0,1,15.24,20.657ZM4.749,10.166a.584.584,0,0,0-.583.583v8.16a.584.584,0,0,0,.583.583H15.24a.584.584,0,0,0,.583-.583v-8.16a.584.584,0,0,0-.583-.583Z" transform="translate(0 -2.006)"/>
    <path id="Path_2347" data-name="Path 2347" d="M14.743,8.16a.583.583,0,0,1-.583-.583V4.663a3.5,3.5,0,0,0-6.994,0V7.577A.583.583,0,1,1,6,7.577V4.663a4.663,4.663,0,1,1,9.326,0V7.577A.583.583,0,0,1,14.743,8.16Z" transform="translate(-0.669)"/>
    <path id="Path_2348" data-name="Path 2348" d="M11.554,16.109a1.554,1.554,0,1,1,1.554-1.554A1.556,1.556,0,0,1,11.554,16.109Zm0-1.943a.389.389,0,1,0,.389.389A.389.389,0,0,0,11.554,14.166Z" transform="translate(-1.56 -2.897)"/>
    <path id="Path_2349" data-name="Path 2349" d="M11.833,19.053a.583.583,0,0,1-.583-.583V16.333a.583.583,0,0,1,1.166,0V18.47A.583.583,0,0,1,11.833,19.053Z" transform="translate(-1.838 -3.51)"/>
  </g>
</svg>
