<svg xmlns="http://www.w3.org/2000/svg" xmlns:xlink="http://www.w3.org/1999/xlink" width="39.744" height="39.744" viewBox="0 0 39.744 39.744">
  <defs>
    <linearGradient id="linear-gradient" x1="0.5" x2="0.5" y2="1" gradientUnits="objectBoundingBox">
      <stop offset="0" stop-color="#f7b500"/>
      <stop offset="1" stop-color="#f48c02"/>
    </linearGradient>
  </defs>
  <g id="Group_27048" data-name="Group 27048" transform="translate(-354.384 -238.964)">
    <rect id="bg_copy" data-name="bg copy" width="39.744" height="39.744" rx="19.872" transform="translate(354.384 238.964)" fill="url(#linear-gradient)"/>
    <path id="Path_39504" data-name="Path 39504" d="M-.287,34.554,16.82-.705" transform="translate(365.5 241.5)" fill="#fff" stroke="#fff" stroke-width="1"/>
    <path id="Shape" d="M9.2,18.768a1.151,1.151,0,0,1-.787-.411L4.061,13.3H.764A.776.776,0,0,1,0,12.516V6.234a.776.776,0,0,1,.764-.786h3.3L8.432.369A1.076,1.076,0,0,1,9.2,0a.656.656,0,0,1,.537.264,1.123,1.123,0,0,1,.2.693V17.67C9.936,18.327,9.638,18.768,9.2,18.768Zm5.621-1.558a.751.751,0,0,1-.4-.113.8.8,0,0,1-.361-.758.784.784,0,0,1,.51-.657,7.048,7.048,0,0,0,3.775-6.307,7.05,7.05,0,0,0-3.775-6.307.786.786,0,0,1-.462-.813.778.778,0,0,1,.63-.684h.072l.062,0a.729.729,0,0,1,.368.1,8.557,8.557,0,0,1,3.345,3.123,8.8,8.8,0,0,1,0,9.165,8.562,8.562,0,0,1-3.345,3.124A.759.759,0,0,1,14.816,17.21Zm-1.873-3.041a.748.748,0,0,1-.338-.081.795.795,0,0,1-.018-1.4,3.909,3.909,0,0,0,1.935-3.314,3.89,3.89,0,0,0-1.911-3.288.8.8,0,0,1-.379-.856.771.771,0,0,1,.69-.616h.091a.764.764,0,0,1,.411.122,5.525,5.525,0,0,1,2.627,4.638A5.506,5.506,0,0,1,13.4,14.014.751.751,0,0,1,12.943,14.169Z" transform="translate(364.32 250.004)" fill="#fff"/>
  </g>
</svg>
