<svg xmlns="http://www.w3.org/2000/svg" width="21.015" height="22.045" viewBox="0 0 21.015 22.045">
  <path id="Shape" d="M12.193,22.045H8.821a.937.937,0,0,1-.836-.688l-.5-2.518a8.485,8.485,0,0,1-2.2-1.3l-2.468.847a.716.716,0,0,1-.219.033A.943.943,0,0,1,1.8,18L.1,15.077l-.012-.022a.916.916,0,0,1,.171-1.039l1.911-1.669c-.012-.076-.025-.152-.038-.229a6.586,6.586,0,0,1-.121-1.1,6.572,6.572,0,0,1,.121-1.1c.013-.079.026-.154.038-.228L.263,8.029A.914.914,0,0,1,.093,6.99L.1,6.969,1.8,4.054a.945.945,0,0,1,.79-.43.719.719,0,0,1,.218.032L5.279,4.5a8.461,8.461,0,0,1,2.2-1.3l.5-2.518A.924.924,0,0,1,8.821,0h3.371a.924.924,0,0,1,.836.688l.5,2.518a8.471,8.471,0,0,1,2.2,1.3L18.2,3.657a.716.716,0,0,1,.218-.032.942.942,0,0,1,.788.426l1.7,2.919.012.021a.914.914,0,0,1-.171,1.039L18.841,9.7c.012.075.025.151.037.226a6.584,6.584,0,0,1,.122,1.1,6.577,6.577,0,0,1-.121,1.1c-.013.079-.026.154-.038.23l1.911,1.669a.916.916,0,0,1,.171,1.039l-.012.022-1.7,2.915a.945.945,0,0,1-.789.429.712.712,0,0,1-.219-.033l-2.468-.847a8.5,8.5,0,0,1-2.2,1.3l-.5,2.518A.937.937,0,0,1,12.193,22.045ZM5.744,15.521a.847.847,0,0,1,.564.209,6.506,6.506,0,0,0,2.436,1.406.876.876,0,0,1,.549.615l0,.011.4,2.079h1.907l.4-2.079,0-.011a.879.879,0,0,1,.55-.615,6.421,6.421,0,0,0,2.433-1.4.85.85,0,0,1,.567-.212.743.743,0,0,1,.236.037l2.033.7.953-1.629L17.175,13.2a.825.825,0,0,1-.256-.753l.006-.024a6.633,6.633,0,0,0,0-2.806l0-.011a.791.791,0,0,1,.253-.766l1.606-1.428-.953-1.629-2.033.7a.746.746,0,0,1-.237.037.847.847,0,0,1-.564-.209A6.415,6.415,0,0,0,12.559,4.91a.866.866,0,0,1-.55-.615l0-.011-.4-2.079H9.7L9.3,4.284l0,.011a.875.875,0,0,1-.549.615,6.489,6.489,0,0,0-2.433,1.4.851.851,0,0,1-.566.211.745.745,0,0,1-.237-.037l-2.033-.7L2.523,7.416,4.129,8.843a.791.791,0,0,1,.253.766l0,.011a6.632,6.632,0,0,0,0,2.806l0,.011a.791.791,0,0,1-.253.766L2.523,14.63l.953,1.629,2.033-.7A.743.743,0,0,1,5.744,15.521Zm4.763-.258a4.24,4.24,0,1,1,4.246-4.24A4.248,4.248,0,0,1,10.507,15.263Zm.019-6.444a2.2,2.2,0,1,0,0,4.409,2.183,2.183,0,0,0,2.208-2.2A2.209,2.209,0,0,0,10.526,8.818Z"/>
</svg>
