<svg id="Group" xmlns="http://www.w3.org/2000/svg" xmlns:xlink="http://www.w3.org/1999/xlink" width="55.45" height="54.936" viewBox="0 0 55.45 54.936">
  <defs>
    <linearGradient id="linear-gradient" x1="0.081" y1="0.369" x2="0.755" y2="0.622" gradientUnits="objectBoundingBox">
      <stop offset="0" stop-color="#77ea91"/>
      <stop offset="0" stop-color="#6ee687"/>
      <stop offset="1" stop-color="#42d158"/>
    </linearGradient>
  </defs>
  <path id="Fill_338" data-name="Fill 338" d="M0,12.073s10.208,3.86,14.647,7.167,3.031,7.324,4.415,8.85,9.781.095,11.964-2.818-1.478-2.717-2.056-7.4,3.584-9.24,1.237-15.075-2.954-.719-2.954-.719,1.207,3.557.021,5.9S26.19,5.536,24.817,3.519L23.531,5.133a23.168,23.168,0,0,1,.8,4.447c.162,2.313.118,4.079.846,5.092S22.39,14.5,21.025,6.028l-1.516.525s-.079,3.449-.671,4.1c-3.234,3.572-7.648-3.472-7.648-3.472L9.4,8.507s5.725,5.4,6.349,6.446S3.5,10.352,2.094,9.512,0,12.073,0,12.073" transform="translate(13.636 26.227)" fill="#8bc53f"/>
  <path id="Fill_339" data-name="Fill 339" d="M1.839,5.874c.027,2.153.845,3.8,2.148,1.657a7.974,7.974,0,0,0,.98-5.09C4.87,1.89,6.337.863,6.34.861h0L4.807,0S4.4.215,3.788.537c-.045.235-.065.4-.065.4s1.207,3.557.021,5.9S2.66,4.4,1.287,2.378L0,3.993s.043.14.108.387h0l.067.109s1.637-.77,1.663,1.383" transform="translate(37.167 27.368)" fill="#79aa39"/>
  <path id="Fill_340" data-name="Fill 340" d="M.354.354h0" transform="translate(23.682 37.168)" fill="#79aa39"/>
  <path id="Fill_341" data-name="Fill 341" d="M14.425,4.954h0C13.889,5.288,5.277,1.584,1.949,0a6.53,6.53,0,0,0-.914.213A14.647,14.647,0,0,0,0,1.88L1.075,2.918a11.391,11.391,0,0,0,4.284.306c1.752-.386,8.3,2.689,9.066,1.731" transform="translate(14.957 36.334)" fill="#79aa39"/>
  <path id="Fill_342" data-name="Fill 342" d="M10.533,4.131A10.974,10.974,0,0,1,10.967,0,7.346,7.346,0,0,0,9.115,4.987c.028,1.485.761,2.473.323,3.591A8.346,8.346,0,0,1,0,12.91a3.068,3.068,0,0,0,.625,1.442c1.385,1.527,9.781.095,11.964-2.818s-1.478-2.717-2.056-7.4" transform="translate(32.075 39.966)" fill="#79aa39"/>
  <path id="Fill_343" data-name="Fill 343" d="M.334,0A20.755,20.755,0,0,1,.081,5.7C-.5,7.733,2.305,3.646.334,0" transform="translate(42.96 29.91)" fill="#a3ce58"/>
  <path id="Fill_344" data-name="Fill 344" d="M46.547,9.248A4.659,4.659,0,0,0,38.859,6.4a7.193,7.193,0,0,0-10.2-3.278A7.236,7.236,0,0,0,15.524,8.134,7.223,7.223,0,0,0,7.2,17.821l-.011,0a4.664,4.664,0,0,0-2.72,5.294l-.078.029A7.232,7.232,0,0,0,6.227,36.964a7.231,7.231,0,0,0,14.209,1.183A7.2,7.2,0,0,0,27.5,34.565a4.606,4.606,0,0,0,3.534-.981,4.655,4.655,0,0,0,7.153-2.778,7.155,7.155,0,0,0,4.9-2.436,4.664,4.664,0,0,0,7.491-5.225l-.011-.024c.163-.057.327-.111.489-.181A7.234,7.234,0,0,0,46.547,9.248" transform="translate(0)" fill="url(#linear-gradient)"/>
  <path id="Fill_345" data-name="Fill 345" d="M31.955,28.661a7.155,7.155,0,0,0,4.9-2.436A4.664,4.664,0,0,0,44.348,21l-.011-.024c.163-.057.327-.111.489-.181A7.234,7.234,0,0,0,40.32,7.1a4.659,4.659,0,0,0-7.688-2.85A7.193,7.193,0,0,0,22.428.976s6.3.907,7.887,6.931c0,0,4.689-1.377,7.062,1.45,5.345,6.366,2.552,16.461-13.46,17.7,0,0-.581,1.966-3.636,2.6a8.937,8.937,0,0,1-6.636,5.017S6.132,43.136,0,34.82A7.231,7.231,0,0,0,14.209,36a7.2,7.2,0,0,0,7.059-3.583,4.606,4.606,0,0,0,3.534-.981,4.655,4.655,0,0,0,7.153-2.778" transform="translate(6.227 2.145)" fill="#43bc5a"/>
  <path id="Fill_346" data-name="Fill 346" d="M0,9.752S1.7,6.065,4.929,6.088c0,0-1.976-3.65,2.087-6.088,0,0-2.827,4.053.126,7.376A9.516,9.516,0,0,0,0,9.752" transform="translate(9.047 12.673)" fill="#379c4a"/>
  <path id="Fill_347" data-name="Fill 347" d="M0,1.119S3.93.1,5.954,2.623c0,0,1.58-3.837,6.037-2.229,0,0-4.927.369-5.637,4.758A9.511,9.511,0,0,0,0,1.119" transform="translate(27.191 16.152)" fill="#379c4a"/>
  <path id="Fill_348" data-name="Fill 348" d="M0,8.581S2.234,5.193,5.425,5.7c0,0-1.4-3.907,2.982-5.7,0,0-3.407,3.579-.989,7.31A9.512,9.512,0,0,0,0,8.581" transform="translate(8.33 26.292)" fill="#379c4a"/>
</svg>
